<svg width="200" height="168" viewBox="0 0 200 168" fill="none" xmlns="http://www.w3.org/2000/svg">
<g clip-path="url(#clip0)">
<path d="M165.44 85.1528C165.44 89.8316 161.572 93.6993 156.893 93.6993H33.4997C28.7586 93.6993 24.9532 89.8316 24.9532 85.1528V30.1934C24.9532 25.5147 28.7586 21.6469 33.4997 21.6469H156.956C161.634 21.6469 165.502 25.4523 165.502 30.1934V85.1528H165.44Z" fill="#002C3F"/>
<path d="M170.867 97.7541C170.867 100.125 169.37 102.059 167.561 102.059H24.4541C22.645 102.059 21.1478 100.125 21.1478 97.7541C21.1478 95.3836 22.645 93.4497 24.4541 93.4497H167.561C169.432 93.4497 170.867 95.3836 170.867 97.7541Z" fill="#002C3F"/>
<path d="M167.623 102.246H24.4541C22.5203 102.246 20.8983 100.187 20.8983 97.6918C20.8983 95.1965 22.4579 93.1378 24.4541 93.1378H167.561C169.495 93.1378 171.117 95.1965 171.117 97.6918C171.117 100.249 169.557 102.246 167.623 102.246ZM24.4541 93.6993C22.7698 93.6993 21.3974 95.5084 21.3974 97.7542C21.3974 100 22.7698 101.809 24.4541 101.809H167.561C169.245 101.809 170.618 100 170.618 97.7542C170.618 95.5084 169.245 93.6993 167.561 93.6993H24.4541Z" fill="#1D4C5C"/>
<path d="M157.517 27.1991H32.1273V85.9015H157.517V27.1991Z" fill="url(#paint0_linear)"/>
<path d="M111.978 97.6918C111.978 98.2532 111.541 98.7523 110.917 98.7523H78.4154C77.854 98.7523 77.3549 98.3156 77.3549 97.6918C77.3549 97.1303 77.854 96.6313 78.4154 96.6313H110.917C111.478 96.6313 111.978 97.0679 111.978 97.6918Z" fill="white"/>
<path d="M60.0748 93.6994C60.0748 94.0737 59.8877 94.3232 59.6382 94.3232H46.2258C45.9763 94.3232 45.7891 94.0737 45.7891 93.6994C45.7891 93.3251 45.9763 93.0756 46.2258 93.0756H59.6382C59.8877 93.0756 60.0748 93.3251 60.0748 93.6994Z" fill="#ABABAB"/>
<path d="M145.602 93.6994C145.602 94.0737 145.415 94.3232 145.165 94.3232H131.753C131.503 94.3232 131.316 94.0737 131.316 93.6994C131.316 93.3251 131.503 93.0756 131.753 93.0756H145.165C145.415 93.0756 145.602 93.3251 145.602 93.6994Z" fill="#ABABAB"/>
<path d="M95.3837 24.6414C95.3837 25.5147 94.6974 26.2009 93.8241 26.2009C92.9507 26.2009 92.2645 25.5147 92.2645 24.6414C92.2645 23.768 92.9507 23.0818 93.8241 23.0818C94.6351 23.0818 95.3837 23.8304 95.3837 24.6414Z" fill="#005980"/>
<path d="M155.583 27.3238L36.6812 85.8391H153.649C155.77 85.8391 157.517 84.5914 157.517 83.0318V29.7567C157.517 28.6962 156.769 27.7605 155.583 27.3238Z" fill="#20669C"/>
<path d="M153.462 26.9495H36.4317C34.0611 26.9495 32.1272 28.1972 32.1272 29.7567V83.0318C32.1272 84.5914 34.0611 85.8391 36.4317 85.8391H36.6812L155.521 27.2614C154.959 27.0743 154.211 26.9495 153.462 26.9495Z" fill="#2678B8"/>
<path d="M54.7723 42.2333C54.7723 43.3562 53.8365 44.292 52.7136 44.292C51.5907 44.292 50.655 43.3562 50.655 42.2333C50.655 41.1104 51.5907 40.1747 52.7136 40.1747C53.8989 40.1747 54.7723 41.1104 54.7723 42.2333Z" stroke="white" stroke-width="0.0718"/>
<path d="M56.8309 42.2333C56.8309 44.4791 55.0218 46.2882 52.776 46.2882C50.5302 46.2882 48.6587 44.4791 48.6587 42.2333C48.6587 39.9875 50.4678 38.1784 52.7136 38.1784C55.0218 38.116 56.8309 39.9251 56.8309 42.2333Z" stroke="white" stroke-width="0.0718"/>
<path opacity="0.2" d="M62.6325 42.2334C62.6325 47.6607 58.2034 52.0899 52.776 52.0899C47.2863 52.0899 42.9195 47.6607 42.9195 42.2334C42.9195 36.7437 47.3487 32.3769 52.776 32.3769C58.2034 32.3145 62.6325 36.7437 62.6325 42.2334Z" fill="white"/>
<path d="M58.8895 42.2333C58.8895 45.602 56.1447 48.3469 52.776 48.3469C49.4073 48.3469 46.6625 45.602 46.6625 42.2333C46.6625 38.8647 49.4073 36.1198 52.776 36.1198C56.1447 36.1198 58.8895 38.8647 58.8895 42.2333Z" stroke="white" stroke-width="0.0718"/>
<g opacity="0.8">
<path opacity="0.8" d="M67.7479 70.7424C68.4342 71.4286 68.4342 72.4891 67.7479 73.1753C67.0617 73.8615 66.0012 73.8615 65.315 73.1753C64.6288 72.4891 64.6288 71.4286 65.315 70.7424C66.0012 70.0562 67.0617 70.0562 67.7479 70.7424Z" stroke="white" stroke-width="0.0718"/>
<path opacity="0.8" d="M68.9332 69.4948C70.2433 70.8048 70.2433 72.9882 68.9332 74.2983C67.6232 75.6083 65.4398 75.6083 64.1297 74.2983C62.8197 72.9882 62.8197 70.8048 64.1297 69.4948C65.4398 68.1847 67.6232 68.1847 68.9332 69.4948Z" stroke="white" stroke-width="0.0718"/>
<path opacity="0.2" d="M72.3643 66.0637C75.6082 69.3076 75.6082 74.5478 72.3643 77.7294C69.1204 80.9733 63.8802 80.9733 60.6987 77.7294C57.4548 74.4854 57.4548 69.2453 60.6987 66.0637C63.9426 62.8822 69.1828 62.8822 72.3643 66.0637Z" fill="white"/>
<path opacity="0.8" d="M70.1809 68.3095C72.1772 70.3058 72.1772 73.5497 70.1809 75.546C68.1846 77.5422 64.9407 77.5422 62.9445 75.546C60.9482 73.5497 60.9482 70.3058 62.9445 68.3095C64.9407 66.3133 68.1846 66.3133 70.1809 68.3095Z" stroke="white" stroke-width="0.0718"/>
</g>
<g opacity="0.8">
<path opacity="0.8" d="M138.303 42.8572C138.989 43.5434 138.989 44.6039 138.303 45.2902C137.617 45.9764 136.556 45.9764 135.87 45.2902C135.184 44.6039 135.184 43.5434 135.87 42.8572C136.556 42.2334 137.617 42.2334 138.303 42.8572Z" stroke="white" stroke-width="0.0718"/>
<path opacity="0.8" d="M139.488 41.672C140.798 42.982 140.798 45.1654 139.488 46.4755C138.178 47.7855 135.995 47.7855 134.685 46.4755C133.375 45.1654 133.375 42.982 134.685 41.672C135.995 40.3619 138.178 40.3619 139.488 41.672Z" stroke="white" stroke-width="0.0718"/>
<path opacity="0.2" d="M142.92 38.2409C146.163 41.4848 146.163 46.725 142.92 49.9689C139.676 53.2128 134.435 53.2128 131.192 49.9689C127.948 46.725 127.948 41.4848 131.192 38.2409C134.435 34.997 139.676 34.997 142.92 38.2409Z" fill="white"/>
<path opacity="0.8" d="M140.674 40.4868C142.67 42.483 142.67 45.7269 140.674 47.7232C138.677 49.7194 135.434 49.7194 133.437 47.7232C131.441 45.7269 131.441 42.483 133.437 40.4868C135.434 38.4905 138.677 38.4905 140.674 40.4868Z" stroke="white" stroke-width="0.0718"/>
</g>
<path d="M93.325 46.4754C93.325 49.2202 89.1453 51.4036 84.0299 51.4036C78.9145 51.4036 74.7348 49.2202 74.7348 46.4754C74.7348 43.7305 78.9145 41.5471 84.0299 41.5471C89.1453 41.5471 93.325 43.7305 93.325 46.4754Z" fill="#FFAA00"/>
<path d="M93.2002 45.0405C93.2002 47.723 89.0829 49.9688 83.9675 49.9688C78.8521 49.9688 74.7348 47.7854 74.7348 45.0405C74.7348 42.358 78.8521 40.1746 83.9675 40.1746C89.0829 40.1123 93.2002 42.2957 93.2002 45.0405Z" fill="#F27500"/>
<path d="M73.612 38.8647V52.2146V38.8647Z" stroke="#FFF700" stroke-width="0.0431"/>
<path d="M75.4211 39.0518V52.4018V39.0518Z" stroke="#FFF700" stroke-width="0.0431"/>
<path d="M77.2926 39.239V52.589V39.239Z" stroke="#FFF700" stroke-width="0.0431"/>
<path d="M79.1016 39.4261V52.7761V39.4261Z" stroke="#FFF700" stroke-width="0.0431"/>
<path d="M80.9731 39.6757V53.0257V39.6757Z" stroke="#FFF700" stroke-width="0.0431"/>
<path d="M82.7823 39.8628V53.2128V39.8628Z" stroke="#FFF700" stroke-width="0.0431"/>
<path d="M84.6537 40.05V53.4V40.05Z" stroke="#FFF700" stroke-width="0.0431"/>
<path d="M86.5252 40.2371V53.5871V40.2371Z" stroke="#FFF700" stroke-width="0.0431"/>
<path d="M88.3344 40.4243V53.7742V40.4243Z" stroke="#FFF700" stroke-width="0.0431"/>
<path d="M90.2058 40.6114V53.9614V40.6114Z" stroke="#FFF700" stroke-width="0.0431"/>
<path d="M92.0149 40.861V54.2109V40.861Z" stroke="#FFF700" stroke-width="0.0431"/>
<path d="M93.8864 41.0481V54.3981V41.0481Z" stroke="#FFF700" stroke-width="0.0431"/>
<path d="M91.3911 45.2278C91.3911 47.4112 88.0848 49.158 84.0299 49.158C79.975 49.158 76.6687 47.4112 76.6687 45.2278C76.6687 43.0444 79.975 41.2977 84.0299 41.2977C88.0848 41.2977 91.3911 43.0444 91.3911 45.2278Z" fill="#FFF700"/>
<path d="M91.3911 45.0405C91.3911 47.2239 88.0848 48.9707 84.0299 48.9707C79.975 48.9707 76.6687 47.2239 76.6687 45.0405C76.6687 42.8571 79.975 41.1104 84.0299 41.1104C88.0848 41.1104 91.3911 42.8571 91.3911 45.0405Z" fill="#FFB700"/>
<path d="M83.6556 47.5984C83.5932 47.5984 83.5932 47.5984 83.5309 47.5984H83.4685C83.2189 47.5984 83.0318 47.5984 82.7823 47.5984C82.5951 47.5984 82.408 47.5984 82.2208 47.536C82.0337 47.536 81.9089 47.536 81.7218 47.4736C81.597 47.4736 81.4098 47.4112 81.2227 47.4112C81.2227 47.3488 81.2851 47.2241 81.3474 47.1617C81.4098 47.0369 81.4722 46.9745 81.5346 46.9121C81.7841 46.9745 82.096 46.9745 82.3456 47.0369C82.6575 47.0993 82.9694 47.0993 83.3437 47.0993C83.9675 47.0993 84.4666 47.0369 84.7785 46.9121C85.0904 46.7874 85.2776 46.6002 85.2776 46.3507C85.2776 46.2259 85.2776 46.1012 85.1528 46.0388C85.0904 45.9764 84.9657 45.914 84.8409 45.8516C84.7161 45.7892 84.529 45.7269 84.3418 45.7269C84.1547 45.6645 83.9052 45.6021 83.6556 45.5397L83.0942 45.4149C82.8446 45.3526 82.6575 45.2902 82.4703 45.2278C82.2832 45.1654 82.096 45.103 81.9713 44.9783C81.8465 44.9159 81.7217 44.7911 81.6594 44.6663C81.597 44.5416 81.5346 44.4168 81.5346 44.2297C81.5346 43.9178 81.7217 43.6682 82.096 43.4187C82.4703 43.2315 82.9694 43.1068 83.6556 43.0444V42.4206C83.7804 42.4206 83.9052 42.4206 84.0299 42.4206C84.2171 42.4206 84.3418 42.4206 84.4666 42.4206V43.0444C84.7785 43.0444 85.0904 43.0444 85.4023 43.1068C85.7143 43.1068 85.9638 43.1692 86.2133 43.2315C86.1509 43.4187 86.0886 43.5435 85.9638 43.7306C85.7766 43.6682 85.5271 43.6682 85.2776 43.6058C85.028 43.6058 84.7161 43.5435 84.3418 43.5435C83.8428 43.5435 83.4685 43.6058 83.2189 43.7306C82.9694 43.793 82.8446 43.9801 82.8446 44.1673C82.8446 44.2297 82.8446 44.3544 82.9694 44.4168C83.0318 44.4792 83.1566 44.5416 83.2813 44.604C83.4061 44.6664 83.5932 44.7287 83.7804 44.7287C83.9675 44.7911 84.2171 44.8535 84.4042 44.8535L84.8409 44.9783C85.0904 45.0406 85.4023 45.103 85.5895 45.1654C85.839 45.2278 86.0262 45.2902 86.1509 45.4149C86.3381 45.4773 86.4629 45.6021 86.5252 45.7269C86.65 45.8516 86.65 45.9764 86.65 46.1635C86.65 46.5378 86.4629 46.7874 86.0886 47.0369C85.7143 47.2864 85.1528 47.4112 84.4666 47.4736V48.1598C84.4042 48.1598 84.3418 48.1598 84.2795 48.1598C84.2171 48.1598 84.1547 48.1598 84.0923 48.1598C84.0299 48.1598 83.9675 48.1598 83.9052 48.1598C83.8428 48.1598 83.7804 48.1598 83.718 48.1598V47.5984H83.6556Z" fill="#FFF700"/>
<path d="M83.6556 47.4112C83.5932 47.4112 83.5932 47.4112 83.5309 47.4112H83.4685C83.2189 47.4112 83.0318 47.4112 82.7823 47.4112C82.5951 47.4112 82.408 47.4112 82.2208 47.3488C82.0337 47.3488 81.9089 47.2864 81.7217 47.2864C81.597 47.2864 81.4098 47.224 81.2227 47.224C81.2227 47.0993 81.2851 47.0369 81.3474 46.9745C81.4098 46.9121 81.4722 46.7874 81.5346 46.725C81.7841 46.7874 82.096 46.7874 82.3456 46.8497C82.6575 46.8497 82.9694 46.9121 83.3437 46.9121C83.9675 46.9121 84.4666 46.8497 84.7785 46.725C85.0904 46.6002 85.2776 46.4131 85.2776 46.1635C85.2776 46.0388 85.2776 45.914 85.1528 45.8516C85.0904 45.7892 84.9657 45.7268 84.8409 45.6645C84.7161 45.6021 84.529 45.5397 84.3418 45.4773C84.1547 45.4149 83.9051 45.3526 83.6556 45.2902L83.0942 45.1654C82.8446 45.103 82.6575 45.0406 82.4703 44.9783C82.2832 44.9159 82.096 44.8535 81.9713 44.7287C81.8465 44.6663 81.7217 44.5416 81.6594 44.4168C81.597 44.292 81.5346 44.1673 81.5346 43.9801C81.5346 43.6682 81.7217 43.4187 82.096 43.2315C82.4703 43.0444 82.9694 42.9196 83.6556 42.8572V42.2334C83.7804 42.2334 83.9052 42.2334 84.0299 42.2334C84.2171 42.2334 84.3418 42.2334 84.4666 42.2334V42.7948C84.7785 42.7948 85.0904 42.7948 85.4023 42.8572C85.7143 42.8572 85.9638 42.9196 86.2133 42.982C86.1509 43.1691 86.0886 43.2939 85.9638 43.4811C85.7766 43.4187 85.5271 43.4187 85.2152 43.3563C84.9657 43.3563 84.6537 43.2939 84.2794 43.2939C83.7804 43.2939 83.4061 43.3563 83.1566 43.4187C82.907 43.5434 82.7823 43.6682 82.7823 43.8554C82.7823 43.9801 82.7823 44.0425 82.907 44.1049C82.9694 44.1673 83.0942 44.2297 83.2189 44.292C83.3437 44.3544 83.5309 44.4168 83.718 44.4792C83.9052 44.5416 84.1547 44.5416 84.3418 44.604L84.7785 44.7287C85.028 44.7911 85.34 44.8535 85.5271 44.9159C85.7766 44.9783 85.9638 45.0406 86.0886 45.1654C86.2757 45.2278 86.4005 45.3525 86.4628 45.4773C86.5876 45.6021 86.5876 45.7268 86.5876 45.914C86.5876 46.2883 86.4005 46.5378 86.0262 46.7874C85.6519 47.0369 85.0904 47.1617 84.4042 47.224V48.035C84.3418 48.035 84.2794 48.035 84.2171 48.035C84.1547 48.035 84.0923 48.035 84.0299 48.035C83.9675 48.035 83.9051 48.035 83.8428 48.035C83.7804 48.035 83.718 48.035 83.6556 48.035V47.4112V47.4112Z" fill="#FF8800"/>
<path d="M97.0056 43.5433C97.0056 46.2882 92.826 48.534 87.7105 48.534C82.5951 48.534 78.4155 46.2882 78.4155 43.5433C78.4155 40.7985 82.5951 38.6151 87.7105 38.6151C92.826 38.6151 97.0056 40.7985 97.0056 43.5433Z" fill="#D67200"/>
<path d="M97.0056 42.7948C97.0056 45.5396 92.826 47.723 87.7105 47.723C82.5951 47.723 78.4155 45.4772 78.4155 42.7948C78.4155 40.0499 82.5951 37.8665 87.7105 37.8665C92.826 37.8665 97.0056 40.0499 97.0056 42.7948Z" fill="#FFAA00"/>
<path d="M96.9432 41.3599C96.9432 44.0424 92.826 46.2882 87.7106 46.2882C82.6575 46.2882 78.4779 44.1048 78.4779 41.3599C78.4779 38.6775 82.5951 36.4941 87.7106 36.4941C92.826 36.4317 96.9432 38.6151 96.9432 41.3599Z" fill="#F27500"/>
<path d="M77.2926 35.1841V48.534V35.1841Z" stroke="#FFF700" stroke-width="0.0431"/>
<path d="M79.1017 35.3712V48.7212V35.3712Z" stroke="#FFF700" stroke-width="0.0431"/>
<path d="M80.9731 35.5584V48.9083V35.5584Z" stroke="#FFF700" stroke-width="0.0431"/>
<path d="M82.7823 35.7455V49.0955V35.7455Z" stroke="#FFF700" stroke-width="0.0431"/>
<path d="M84.6538 35.9951V49.2827V35.9951Z" stroke="#FFF700" stroke-width="0.0431"/>
<path d="M86.5252 36.1822V49.5322V36.1822Z" stroke="#FFF700" stroke-width="0.0431"/>
<path d="M88.3344 36.3694V49.7194V36.3694Z" stroke="#FFF700" stroke-width="0.0431"/>
<path d="M90.2059 36.5565V49.9065V36.5565Z" stroke="#FFF700" stroke-width="0.0431"/>
<path d="M92.015 36.7437V50.0936V36.7437Z" stroke="#FFF700" stroke-width="0.0431"/>
<path d="M93.8865 36.9308V50.2808V36.9308Z" stroke="#FFF700" stroke-width="0.0431"/>
<path d="M95.6955 37.118V50.4679V37.118Z" stroke="#FFF700" stroke-width="0.0431"/>
<path d="M97.5671 37.3051V50.655V37.3051Z" stroke="#FFF700" stroke-width="0.0431"/>
<path d="M95.0717 41.5472C95.0717 43.7306 91.7654 45.4774 87.7105 45.4774C83.6556 45.4774 80.3493 43.7306 80.3493 41.5472C80.3493 39.3638 83.6556 37.6171 87.7105 37.6171C91.7654 37.6171 95.0717 39.3638 95.0717 41.5472Z" fill="#FFF700"/>
<path d="M95.0717 41.3599C95.0717 43.5433 91.7654 45.2901 87.7105 45.2901C83.6556 45.2901 80.3493 43.5433 80.3493 41.3599C80.3493 39.1765 83.6556 37.4298 87.7105 37.4298C91.7654 37.4298 95.0717 39.1765 95.0717 41.3599Z" fill="#FFB700"/>
<path d="M87.3362 43.9177C87.2738 43.9177 87.2738 43.9177 87.2738 43.9177H87.2115C86.9619 43.9177 86.7748 43.9177 86.5252 43.9177C86.3381 43.9177 86.1509 43.9177 85.9638 43.9177C85.7766 43.9177 85.6519 43.8554 85.4647 43.8554C85.2776 43.8554 85.1528 43.793 84.9657 43.793C84.9657 43.7306 85.0281 43.6058 85.0904 43.5435C85.1528 43.4811 85.2152 43.3563 85.2776 43.2939C85.5271 43.3563 85.839 43.3563 86.0886 43.4187C86.3381 43.4811 86.7124 43.4811 87.0867 43.4811C87.7105 43.4811 88.2096 43.4187 88.5215 43.2939C88.8334 43.1692 88.9582 42.982 88.9582 42.7325C88.9582 42.6077 88.9582 42.5453 88.8334 42.4206C88.771 42.3582 88.6463 42.2958 88.5215 42.2334C88.3967 42.171 88.2096 42.1086 88.0224 42.0463C87.8353 41.9839 87.5858 41.9215 87.3362 41.8591L86.7748 41.7343C86.5252 41.672 86.3381 41.6096 86.1509 41.5472C85.9638 41.4848 85.7766 41.4224 85.6519 41.2977C85.5271 41.2353 85.4024 41.1105 85.34 40.9857C85.2776 40.861 85.2152 40.7362 85.2152 40.5491C85.2152 40.2372 85.4023 39.9876 85.7766 39.7381C86.1509 39.5509 86.65 39.4262 87.3362 39.3638V38.74C87.461 38.74 87.5858 38.74 87.7105 38.74C87.8353 38.74 88.0224 38.74 88.1472 38.74V39.3014C88.4591 39.3014 88.8334 39.3014 89.0829 39.3638C89.3949 39.3638 89.6444 39.4262 89.8939 39.4886C89.8315 39.6757 89.7692 39.8005 89.6444 39.9876C89.4572 39.9252 89.2077 39.9252 88.8958 39.8629C88.6463 39.8005 88.3344 39.8005 87.9601 39.8005C87.461 39.8005 87.0867 39.8629 86.8372 39.9252C86.5876 40.05 86.4629 40.1748 86.4629 40.3619C86.4629 40.4867 86.5252 40.5491 86.5876 40.6115C86.65 40.6738 86.7748 40.7362 86.8995 40.7986C87.0243 40.861 87.2115 40.9234 87.3986 40.9234C87.5858 40.9857 87.8353 41.0481 88.0848 41.0481L88.5215 41.1729C88.771 41.2353 89.0829 41.2977 89.2701 41.36C89.5196 41.4224 89.7068 41.4848 89.8315 41.6096C90.0187 41.672 90.1435 41.7967 90.2058 41.9215C90.2682 42.0463 90.3306 42.2334 90.3306 42.3582C90.3306 42.7325 90.1435 42.982 89.7692 43.2315C89.3949 43.4811 88.8334 43.6058 88.1472 43.6682V44.4168C88.0848 44.4168 88.0224 44.4168 87.9601 44.4168C87.8977 44.4168 87.8353 44.4168 87.7729 44.4168C87.7105 44.4168 87.6481 44.4168 87.5858 44.4168C87.5234 44.4168 87.461 44.4168 87.3986 44.4168V43.9177H87.3362Z" fill="#FFF700"/>
<path d="M87.3362 43.7306C87.2738 43.7306 87.2738 43.7306 87.2738 43.7306H87.2115C86.9619 43.7306 86.7748 43.7306 86.5252 43.7306C86.2757 43.6682 86.1509 43.6682 85.9638 43.6682C85.7766 43.6682 85.6519 43.6682 85.4647 43.6058C85.2776 43.6058 85.1528 43.5434 84.9657 43.5434C84.9657 43.4811 85.0281 43.3563 85.0904 43.2939C85.1528 43.1691 85.2152 43.1068 85.2776 43.0444C85.5271 43.1068 85.839 43.1068 86.0886 43.1691C86.3381 43.2315 86.7124 43.2315 87.0867 43.2315C87.7105 43.2315 88.2096 43.1691 88.5215 43.0444C88.8334 42.9196 88.9582 42.7325 88.9582 42.4829C88.9582 42.3582 88.9582 42.2958 88.8334 42.171C88.771 42.1086 88.6463 42.0462 88.5215 41.9839C88.3967 41.9215 88.2096 41.8591 88.0224 41.8591C87.8353 41.7967 87.5858 41.7343 87.3362 41.6719L86.7748 41.5472C86.5252 41.4848 86.3381 41.4224 86.1509 41.36C85.9638 41.2977 85.7766 41.2353 85.6519 41.1105C85.5271 41.0481 85.4024 40.9234 85.34 40.7986C85.2776 40.6738 85.2152 40.5491 85.2152 40.3619C85.2152 40.05 85.4023 39.8005 85.7766 39.5509C86.1509 39.3638 86.65 39.239 87.3362 39.1766V38.5528C87.461 38.5528 87.5858 38.5528 87.7105 38.5528C87.8353 38.5528 88.0224 38.5528 88.1472 38.5528V39.1142C88.4591 39.1142 88.8334 39.1142 89.0829 39.1766C89.3949 39.1766 89.6444 39.239 89.8939 39.3014C89.8315 39.4885 89.7692 39.6757 89.6444 39.8005C89.4572 39.7381 89.2077 39.7381 88.8958 39.6757C88.6463 39.6757 88.3344 39.6133 87.9601 39.6133C87.461 39.6133 87.0867 39.6757 86.8372 39.7381C86.5876 39.8628 86.4629 39.9876 86.4629 40.2371C86.4629 40.2995 86.5252 40.4243 86.5876 40.4867C86.65 40.5491 86.7748 40.6114 86.8995 40.6738C87.0243 40.7362 87.2115 40.7986 87.3986 40.7986C87.5858 40.861 87.8353 40.9234 88.0848 40.9234L88.5215 41.0481C88.771 41.1105 89.0829 41.1729 89.2701 41.2353C89.5196 41.2977 89.7068 41.36 89.8315 41.4848C90.0187 41.5472 90.1435 41.6719 90.2058 41.7967C90.2682 41.9215 90.3306 42.0462 90.3306 42.2334C90.3306 42.6077 90.1435 42.8572 89.7692 43.1068C89.3325 43.4187 88.8334 43.6058 88.1472 43.6682V44.4168C88.0848 44.4168 88.0224 44.4168 87.9601 44.4168C87.8977 44.4168 87.8353 44.4168 87.7729 44.4168C87.7105 44.4168 87.6481 44.4168 87.5858 44.4168C87.5234 44.4168 87.461 44.4168 87.3986 44.4168V43.7306H87.3362Z" fill="#FF8800"/>
<path d="M93.325 39.8628C93.325 42.6076 89.1453 44.791 84.0299 44.791C78.9145 44.791 74.7348 42.5452 74.7348 39.8628C74.7348 37.1179 78.9145 34.9345 84.0299 34.9345C89.1453 34.9345 93.325 37.1179 93.325 39.8628Z" fill="#D67200"/>
<path d="M93.325 39.1142C93.325 41.8591 89.1453 44.0425 84.0299 44.0425C78.9145 44.0425 74.7348 41.7967 74.7348 39.1142C74.7348 36.3693 78.9145 34.1859 84.0299 34.1859C89.1453 34.1859 93.325 36.3693 93.325 39.1142Z" fill="#FFAA00"/>
<path d="M93.2002 37.6171C93.2002 40.2996 89.0829 42.5454 83.9675 42.5454C78.8521 42.5454 74.7348 40.362 74.7348 37.6171C74.7348 34.9346 78.8521 32.7512 83.9675 32.7512C89.0829 32.7512 93.2002 34.9346 93.2002 37.6171Z" fill="#F27500"/>
<path d="M73.612 31.5035V44.8535V31.5035Z" stroke="#FFF700" stroke-width="0.0431"/>
<path d="M75.4211 31.6906V45.0406V31.6906Z" stroke="#FFF700" stroke-width="0.0431"/>
<path d="M77.2926 31.8778V45.2278V31.8778Z" stroke="#FFF700" stroke-width="0.0431"/>
<path d="M79.1016 32.0649V45.4149V32.0649Z" stroke="#FFF700" stroke-width="0.0431"/>
<path d="M80.9731 32.3145V45.6645V32.3145Z" stroke="#FFF700" stroke-width="0.0431"/>
<path d="M82.7823 32.5016V45.8516V32.5016Z" stroke="#FFF700" stroke-width="0.0431"/>
<path d="M84.6537 32.6888V46.0388V32.6888Z" stroke="#FFF700" stroke-width="0.0431"/>
<path d="M86.5252 32.8759V46.2259V32.8759Z" stroke="#FFF700" stroke-width="0.0431"/>
<path d="M88.3344 33.0631V46.413V33.0631Z" stroke="#FFF700" stroke-width="0.0431"/>
<path d="M90.2058 33.2502V46.6002V33.2502Z" stroke="#FFF700" stroke-width="0.0431"/>
<path d="M92.0149 33.4374V46.7873V33.4374Z" stroke="#FFF700" stroke-width="0.0431"/>
<path d="M93.8864 33.6245V46.9745V33.6245Z" stroke="#FFF700" stroke-width="0.0431"/>
<path d="M91.3911 37.8667C91.3911 40.0501 88.0848 41.7968 84.0299 41.7968C79.975 41.7968 76.6687 40.0501 76.6687 37.8667C76.6687 35.6832 79.975 33.9365 84.0299 33.9365C88.0848 33.9365 91.3911 35.6832 91.3911 37.8667Z" fill="#FFF700"/>
<path d="M91.3911 37.6171C91.3911 39.8005 88.0848 41.5472 84.0299 41.5472C79.975 41.5472 76.6687 39.8005 76.6687 37.6171C76.6687 35.4337 79.975 33.687 84.0299 33.687C88.0848 33.7493 91.3911 35.4961 91.3911 37.6171Z" fill="#FFB700"/>
<path d="M83.6556 40.237C83.5932 40.237 83.5932 40.237 83.5309 40.237H83.4685C83.2189 40.237 83.0318 40.237 82.7823 40.237C82.5951 40.237 82.408 40.237 82.2208 40.1747C82.0337 40.1747 81.9089 40.1123 81.7217 40.1123C81.597 40.1123 81.4098 40.0499 81.2227 40.0499C81.2227 39.9875 81.2851 39.8628 81.3474 39.8004C81.4098 39.738 81.4722 39.6132 81.5346 39.5508C81.7841 39.6132 82.096 39.6132 82.3456 39.6756C82.6575 39.6756 82.9694 39.738 83.3437 39.738C83.9675 39.738 84.4666 39.6756 84.7785 39.5508C85.0904 39.4261 85.2776 39.2389 85.2776 38.9894C85.2776 38.8646 85.2776 38.8022 85.1528 38.6775C85.0904 38.6151 84.9657 38.5527 84.8409 38.4903C84.7161 38.4279 84.529 38.3656 84.3418 38.3032C84.1547 38.2408 83.9051 38.1784 83.6556 38.116L83.0942 37.9913C82.8446 37.9289 82.6575 37.8665 82.4703 37.8041C82.2832 37.7417 82.096 37.6793 81.9713 37.617C81.8465 37.5546 81.7217 37.4298 81.6594 37.305C81.597 37.1803 81.5346 37.0555 81.5346 36.8684C81.5346 36.5565 81.7217 36.3069 82.096 36.1198C82.4703 35.9326 82.9694 35.8079 83.6556 35.7455V35.1216C83.7804 35.1216 83.9052 35.1216 84.0299 35.1216C84.2171 35.1216 84.3418 35.1216 84.4666 35.1216V35.6831C84.7785 35.6831 85.0904 35.6831 85.4023 35.7455C85.7143 35.8079 85.9638 35.8079 86.2133 35.8702C86.1509 36.0574 86.0886 36.2445 85.9638 36.3693C85.7766 36.3069 85.5271 36.3069 85.2152 36.2445C84.9657 36.1822 84.6537 36.1822 84.2794 36.1822C83.7804 36.1822 83.4061 36.2445 83.1566 36.3069C82.907 36.4317 82.7823 36.5565 82.7823 36.7436C82.7823 36.8684 82.7823 36.9307 82.907 36.9931C82.9694 37.0555 83.0942 37.1179 83.2189 37.1803C83.3437 37.2427 83.5309 37.305 83.718 37.305C83.9052 37.3674 84.1547 37.3674 84.3418 37.4298L84.7785 37.5546C85.028 37.617 85.34 37.6793 85.5271 37.7417C85.7766 37.8041 85.9638 37.8665 86.0886 37.9913C86.2757 38.0536 86.4005 38.1784 86.4628 38.3032C86.5876 38.4279 86.5876 38.5527 86.5876 38.7399C86.5876 39.1142 86.4005 39.3637 86.0262 39.6132C85.6519 39.8004 85.0904 39.9875 84.4042 40.0499V40.7361C84.3418 40.7361 84.2794 40.7361 84.2171 40.7361C84.1547 40.7361 84.0923 40.7361 84.0299 40.7361C83.9675 40.7361 83.9051 40.7361 83.8428 40.7361C83.7804 40.7361 83.718 40.7361 83.6556 40.7361V40.237V40.237Z" fill="#FFF700"/>
<path d="M83.6556 40.0499C83.5932 40.0499 83.5932 40.0499 83.5309 40.0499H83.4685C83.2189 40.0499 83.0318 40.0499 82.7823 40.0499C82.5951 40.0499 82.408 40.0499 82.2208 39.9875C82.0337 39.9875 81.9089 39.9875 81.7217 39.9252C81.597 39.9252 81.4098 39.8628 81.2227 39.8628C81.2227 39.8004 81.2851 39.6756 81.3474 39.6132C81.4098 39.4885 81.4722 39.4261 81.5346 39.3637C81.7841 39.4261 82.096 39.4261 82.3456 39.4885C82.6575 39.5509 82.9694 39.5509 83.3437 39.5509C83.9675 39.5509 84.4666 39.4885 84.7785 39.3637C85.0904 39.2389 85.2776 39.0518 85.2776 38.8023C85.2776 38.6775 85.2776 38.6151 85.1528 38.4903C85.0904 38.428 84.9657 38.3656 84.8409 38.3032C84.7161 38.2408 84.529 38.1784 84.3418 38.116C84.1547 38.0537 83.9051 37.9913 83.6556 37.9289L83.0942 37.8041C82.8446 37.7417 82.6575 37.6794 82.4703 37.617C82.2832 37.5546 82.096 37.4922 81.9713 37.3674C81.8465 37.3051 81.7217 37.1803 81.6594 37.0555C81.597 36.9308 81.5346 36.806 81.5346 36.6189C81.5346 36.3069 81.7217 36.0574 82.096 35.8079C82.4703 35.6207 82.9694 35.496 83.6556 35.4336V34.9345C83.7804 34.9345 83.9052 34.9345 84.0299 34.9345C84.2171 34.9345 84.3418 34.9345 84.4666 34.9345V35.496C84.7785 35.496 85.0904 35.496 85.4023 35.5583C85.7143 35.5583 85.9638 35.6207 86.2133 35.6831C86.1509 35.8703 86.0886 36.0574 85.9638 36.1822C85.7766 36.1198 85.5271 36.1198 85.2152 36.0574C84.9657 35.995 84.6537 35.995 84.2794 35.995C83.7804 35.995 83.4061 36.0574 83.1566 36.1198C82.907 36.2446 82.7823 36.3693 82.7823 36.5565C82.7823 36.6812 82.7823 36.7436 82.907 36.806C82.9694 36.8684 83.0942 36.9308 83.2189 36.9931C83.3437 37.0555 83.5309 37.1179 83.718 37.1179C83.9052 37.1803 84.1547 37.2427 84.3418 37.2427L84.7785 37.3674C85.028 37.4298 85.34 37.4922 85.5271 37.5546C85.7766 37.617 85.9638 37.6794 86.0886 37.8041C86.2757 37.8665 86.4005 37.9913 86.4628 38.116C86.5876 38.2408 86.5876 38.3656 86.5876 38.5527C86.5876 38.927 86.4005 39.1766 86.0262 39.4261C85.6519 39.6756 85.0904 39.8004 84.4042 39.8628V40.6114C84.3418 40.6114 84.2794 40.6114 84.2171 40.6114C84.1547 40.6114 84.0923 40.6114 84.0299 40.6114C83.9675 40.6114 83.9051 40.6114 83.8428 40.6114C83.7804 40.6114 83.718 40.6114 83.6556 40.6114V40.0499V40.0499Z" fill="#FF8800"/>
<path d="M93.325 36.1823C93.325 38.9272 89.1453 41.1106 84.0299 41.1106C78.9145 41.1106 74.7348 38.8648 74.7348 36.1823C74.7348 33.4375 78.9145 31.1917 84.0299 31.1917C89.1453 31.1917 93.325 33.4375 93.325 36.1823Z" fill="#D67200"/>
<path d="M93.325 35.4336C93.325 38.1785 89.1453 40.3619 84.0299 40.3619C78.9145 40.3619 74.7348 38.1161 74.7348 35.4336C74.7348 32.6888 78.9145 30.5054 84.0299 30.5054C89.1453 30.5054 93.325 32.6888 93.325 35.4336Z" fill="#FFAA00"/>
<path d="M93.2002 33.9989C93.2002 36.6814 89.0829 38.8648 83.9675 38.8648C78.8521 38.8648 74.7348 36.6814 74.7348 33.9989C74.7348 31.3165 78.8521 29.0707 83.9675 29.0707C89.0829 29.0707 93.2002 31.2541 93.2002 33.9989Z" fill="#F27500"/>
<path d="M73.612 27.8229V41.1729V27.8229Z" stroke="#FFF700" stroke-width="0.0431"/>
<path d="M75.4211 28.0101V41.36V28.0101Z" stroke="#FFF700" stroke-width="0.0431"/>
<path d="M77.2926 28.1972V41.5472V28.1972Z" stroke="#FFF700" stroke-width="0.0431"/>
<path d="M79.1016 28.3844V41.7343V28.3844Z" stroke="#FFF700" stroke-width="0.0431"/>
<path d="M80.9731 28.5715V41.9215V28.5715Z" stroke="#FFF700" stroke-width="0.0431"/>
<path d="M82.7823 28.8211V42.171V28.8211Z" stroke="#FFF700" stroke-width="0.0431"/>
<path d="M84.6537 29.0082V42.3582V29.0082Z" stroke="#FFF700" stroke-width="0.0431"/>
<path d="M86.5252 29.1954V42.5453V29.1954Z" stroke="#FFF700" stroke-width="0.0431"/>
<path d="M88.3344 29.3825V42.7325V29.3825Z" stroke="#FFF700" stroke-width="0.0431"/>
<path d="M90.2058 29.5696V42.9196V29.5696Z" stroke="#FFF700" stroke-width="0.0431"/>
<path d="M92.0149 29.7568V43.1068V29.7568Z" stroke="#FFF700" stroke-width="0.0431"/>
<path d="M93.8864 30.0064V43.3563V30.0064Z" stroke="#FFF700" stroke-width="0.0431"/>
<path d="M91.0168 34.1859C91.0168 36.2446 87.8977 37.8665 84.0299 37.8665C80.1622 37.8665 77.043 36.2446 77.043 34.1859C77.043 32.1273 80.1622 30.5053 84.0299 30.5053C87.8977 30.443 91.0168 32.1273 91.0168 34.1859Z" fill="#FFF700"/>
<path d="M91.0168 33.9988C91.0168 36.0574 87.8977 37.6794 84.0299 37.6794C80.1622 37.6794 77.043 35.9951 77.043 33.9988C77.043 31.9402 80.1622 30.3182 84.0299 30.3182C87.8977 30.2558 91.0168 31.9402 91.0168 33.9988Z" fill="#FFB700"/>
<path d="M83.6556 36.5565C83.5932 36.5565 83.5932 36.5565 83.5309 36.5565H83.4685C83.2189 36.5565 83.0318 36.5565 82.7823 36.5565C82.5951 36.5565 82.408 36.5565 82.2208 36.4942C82.0337 36.4942 81.9089 36.4318 81.7218 36.4318C81.597 36.4318 81.4098 36.3694 81.2227 36.3694C81.2227 36.307 81.2851 36.1823 81.3474 36.0575C81.4098 35.9951 81.4722 35.8703 81.5346 35.808C81.7841 35.8703 82.096 35.8703 82.3456 35.9327C82.6575 35.9327 82.9694 35.9951 83.3437 35.9951C83.9675 35.9951 84.4666 35.9327 84.7785 35.808C85.0904 35.6832 85.2776 35.496 85.2776 35.2465C85.2776 35.1217 85.2776 34.997 85.1528 34.9346C85.0904 34.8722 84.9657 34.8098 84.8409 34.7474C84.7161 34.6851 84.529 34.6227 84.3418 34.5603C84.1547 34.4979 83.9052 34.4355 83.6556 34.3731L83.1566 34.3108C82.907 34.2484 82.7199 34.186 82.5327 34.1236C82.3456 34.0612 82.1584 33.9988 82.0337 33.8741C81.9089 33.8117 81.7841 33.6869 81.7218 33.5622C81.6594 33.4374 81.597 33.3126 81.597 33.1255C81.597 32.8136 81.7841 32.564 82.1584 32.3145C82.5327 32.1274 83.0318 32.0026 83.718 31.9402V31.3164C83.8428 31.3164 83.9675 31.3164 84.0923 31.3164C84.2794 31.3164 84.4042 31.3164 84.529 31.3164V31.8778C84.8409 31.8778 85.1528 31.8778 85.4647 31.9402C85.7766 31.9402 86.0262 32.0026 86.2757 32.065C86.2133 32.2521 86.1509 32.3769 86.0262 32.564C85.839 32.5017 85.5895 32.5017 85.2776 32.4393C85.028 32.4393 84.7161 32.3769 84.3418 32.3769C83.8428 32.3769 83.4685 32.4393 83.2189 32.5017C82.9694 32.6264 82.8446 32.7512 82.8446 32.9383C82.8446 33.0631 82.8446 33.1255 82.9694 33.1879C83.0318 33.2503 83.1566 33.3126 83.2813 33.375C83.4061 33.4374 83.5932 33.4998 83.7804 33.5622C83.9675 33.6245 84.2171 33.6245 84.4042 33.6869L84.8409 33.8117C85.0904 33.8741 85.4023 33.9365 85.5895 33.9988C85.839 34.0612 86.0262 34.1236 86.1509 34.2484C86.3381 34.3731 86.4629 34.4355 86.5252 34.5603C86.65 34.6851 86.65 34.8098 86.65 34.997C86.65 35.3713 86.4629 35.6208 86.0886 35.8703C85.7143 36.1199 85.1528 36.2446 84.4666 36.307V36.9932C84.4042 36.9932 84.3418 36.9932 84.2795 36.9932C84.2171 36.9932 84.1547 36.9932 84.0923 36.9932C84.0299 36.9932 83.9675 36.9932 83.9052 36.9932C83.8428 36.9932 83.7804 36.9932 83.718 36.9932V36.5565H83.6556Z" fill="#FFF700"/>
<path d="M83.6556 36.2447C83.5932 36.2447 83.5932 36.2447 83.5932 36.2447H83.5309C83.2813 36.2447 83.0942 36.2447 82.907 36.2447C82.7199 36.2447 82.5327 36.2447 82.408 36.1823C82.2208 36.1823 82.0961 36.1823 81.9089 36.1199C81.7841 36.1199 81.597 36.0575 81.4722 36.0575C81.4722 35.9952 81.5346 35.8704 81.5346 35.808C81.597 35.7456 81.6594 35.6209 81.7218 35.5585C81.9713 35.6209 82.2208 35.6209 82.4703 35.6832C82.7199 35.6832 83.0318 35.7456 83.4061 35.7456C84.0299 35.7456 84.4666 35.6832 84.7785 35.5585C85.0904 35.4337 85.2152 35.2466 85.2152 35.0594C85.2152 34.9346 85.2152 34.8723 85.1528 34.8099C85.0904 34.7475 85.0281 34.6851 84.8409 34.6227C84.7161 34.5603 84.529 34.498 84.3418 34.498C84.1547 34.4356 83.9052 34.3732 83.6556 34.3108L83.0942 34.186C82.8446 34.1237 82.6575 34.0613 82.4703 33.9989C82.2832 33.9365 82.0961 33.8741 81.9713 33.7494C81.8465 33.687 81.7218 33.5622 81.6594 33.4998C81.597 33.3751 81.5346 33.2503 81.5346 33.1255C81.5346 32.8136 81.7217 32.5641 82.0337 32.3769C82.408 32.1898 82.8446 32.065 83.5309 32.0026V31.3788C83.6556 31.3788 83.7804 31.3788 83.9052 31.3788C84.0299 31.3788 84.2171 31.3788 84.2795 31.3788V31.9403C84.5914 31.9403 84.9033 31.9403 85.2152 32.0026C85.5271 32.0026 85.7766 32.065 85.9638 32.1274C85.9014 32.3146 85.839 32.4393 85.7143 32.6265C85.5271 32.5641 85.2776 32.5641 85.0281 32.5017C84.9033 32.4393 84.6538 32.4393 84.2795 32.4393C83.8428 32.4393 83.4685 32.5017 83.2189 32.5641C82.9694 32.6265 82.8446 32.8136 82.8446 33.0008C82.8446 33.0632 82.8446 33.1879 82.9694 33.2503C83.0318 33.3127 83.1566 33.3751 83.2813 33.4375C83.4061 33.4998 83.5309 33.5622 83.718 33.5622C83.9052 33.6246 84.0923 33.6246 84.3418 33.687L84.7785 33.7494C85.0281 33.8117 85.2776 33.8741 85.4647 33.9365C85.6519 33.9989 85.839 34.0613 86.0262 34.186C86.1509 34.2484 86.2757 34.3732 86.4005 34.498C86.4629 34.6227 86.5252 34.7475 86.5252 34.9346C86.5252 35.2466 86.3381 35.5585 85.9638 35.7456C85.5895 35.9328 85.0904 36.1199 84.4666 36.1823V36.8685C84.4042 36.8685 84.3418 36.8685 84.2795 36.8685C84.2171 36.8685 84.1547 36.8685 84.0923 36.8685C84.0299 36.8685 83.9675 36.8685 83.9052 36.8685C83.8428 36.8685 83.7804 36.8685 83.718 36.8685V36.2447H83.6556Z" fill="#E37900"/>
<path d="M118.777 75.2963C118.777 78.0412 114.598 80.2246 109.482 80.2246C104.304 80.2246 100.187 77.9788 100.187 75.2963C100.187 72.5514 104.367 70.368 109.482 70.368C114.598 70.368 118.777 72.5514 118.777 75.2963Z" fill="#FFAA00"/>
<path d="M118.653 73.8615C118.653 76.5439 114.535 78.7897 109.42 78.7897C104.304 78.7897 100.187 76.6063 100.187 73.8615C100.187 71.179 104.304 68.9956 109.42 68.9956C114.535 68.9332 118.653 71.1166 118.653 73.8615Z" fill="#F27500"/>
<path d="M99.0642 67.6856V81.0356V67.6856Z" stroke="#FFF700" stroke-width="0.0431"/>
<path d="M100.873 67.8727V81.2227V67.8727Z" stroke="#FFF700" stroke-width="0.0431"/>
<path d="M102.745 68.0599V81.4099V68.0599Z" stroke="#FFF700" stroke-width="0.0431"/>
<path d="M104.554 68.247V81.597V68.247Z" stroke="#FFF700" stroke-width="0.0431"/>
<path d="M106.425 68.4966V81.8466V68.4966Z" stroke="#FFF700" stroke-width="0.0431"/>
<path d="M108.235 68.6838V82.0337V68.6838Z" stroke="#FFF700" stroke-width="0.0431"/>
<path d="M110.106 68.8709V82.2209V68.8709Z" stroke="#FFF700" stroke-width="0.0431"/>
<path d="M111.915 69.058V82.408V69.058Z" stroke="#FFF700" stroke-width="0.0431"/>
<path d="M113.787 69.2452V82.5951V69.2452Z" stroke="#FFF700" stroke-width="0.0431"/>
<path d="M115.596 69.4323V82.7823V69.4323Z" stroke="#FFF700" stroke-width="0.0431"/>
<path d="M117.467 69.6195V82.9695V69.6195Z" stroke="#FFF700" stroke-width="0.0431"/>
<path d="M119.339 69.8066V83.1566V69.8066Z" stroke="#FFF700" stroke-width="0.0431"/>
<path d="M116.843 74.0486C116.843 76.232 113.537 77.9787 109.482 77.9787C105.427 77.9787 102.121 76.232 102.121 74.0486C102.121 71.8652 105.427 70.1185 109.482 70.1185C113.537 70.1185 116.843 71.8652 116.843 74.0486Z" fill="#FFF700"/>
<path d="M116.843 73.8615C116.843 76.0449 113.537 77.7916 109.482 77.7916C105.427 77.7916 102.121 76.0449 102.121 73.8615C102.121 71.6781 105.427 69.9313 109.482 69.9313C113.537 69.9313 116.843 71.6781 116.843 73.8615Z" fill="#FFB700"/>
<path d="M109.108 76.4193C109.046 76.4193 109.046 76.4193 108.983 76.4193H108.921C108.671 76.4193 108.484 76.4193 108.297 76.4193C108.11 76.4193 107.923 76.4193 107.735 76.3569C107.548 76.3569 107.424 76.2945 107.236 76.2945C107.049 76.2945 106.925 76.2321 106.737 76.2321C106.737 76.1697 106.8 76.045 106.862 75.9826C106.925 75.9202 106.987 75.7955 107.049 75.7331C107.299 75.7955 107.611 75.7954 107.86 75.8578C108.11 75.8578 108.484 75.9202 108.858 75.9202C109.482 75.9202 109.981 75.8578 110.293 75.7331C110.605 75.6083 110.73 75.4212 110.73 75.1716C110.73 75.0469 110.667 74.9845 110.605 74.8597C110.543 74.7973 110.418 74.7349 110.293 74.6726C110.168 74.6102 109.981 74.5478 109.794 74.4854C109.607 74.423 109.357 74.3606 109.108 74.2983L108.546 74.1735C108.297 74.1111 108.11 74.0487 107.923 73.9863C107.735 73.924 107.548 73.8616 107.424 73.7992C107.299 73.7368 107.174 73.612 107.112 73.4873C107.049 73.3625 106.987 73.2377 106.987 73.0506C106.987 72.7387 107.174 72.4891 107.548 72.2396C107.923 72.0525 108.422 71.9277 109.108 71.8653V71.2415C109.233 71.2415 109.357 71.2415 109.482 71.2415C109.669 71.2415 109.794 71.2415 109.919 71.2415V71.8029C110.231 71.8029 110.543 71.8029 110.855 71.8653C111.167 71.8653 111.416 71.9277 111.666 71.9901C111.603 72.1772 111.541 72.3644 111.416 72.4891C111.229 72.4268 110.979 72.4268 110.667 72.3644C110.418 72.3644 110.106 72.302 109.732 72.302C109.233 72.302 108.858 72.3644 108.609 72.4268C108.359 72.5515 108.235 72.6763 108.235 72.8634C108.235 72.9882 108.297 73.0506 108.359 73.113C108.422 73.1754 108.546 73.2377 108.671 73.3001C108.796 73.3625 108.983 73.4249 109.17 73.4249C109.357 73.4873 109.545 73.4873 109.794 73.5497L110.231 73.6744C110.543 73.7368 110.792 73.7992 110.979 73.8616C111.229 73.924 111.416 73.9863 111.541 74.1111C111.666 74.1735 111.79 74.2983 111.915 74.423C111.978 74.5478 112.04 74.6726 112.04 74.8597C112.04 75.234 111.853 75.4835 111.478 75.7331C111.104 75.9826 110.543 76.1074 109.857 76.1697V76.9183C109.794 76.9183 109.732 76.9183 109.669 76.9183C109.607 76.9183 109.545 76.9183 109.482 76.9183C109.42 76.9183 109.357 76.9183 109.295 76.9183C109.233 76.9183 109.17 76.9183 109.108 76.9183V76.4193V76.4193Z" fill="#FFF700"/>
<path d="M109.108 76.2321C109.046 76.2321 109.046 76.2321 108.983 76.2321H108.921C108.671 76.2321 108.484 76.2321 108.297 76.2321C108.11 76.2321 107.923 76.2321 107.735 76.2321C107.548 76.2321 107.424 76.1697 107.236 76.1697C107.049 76.1697 106.925 76.1073 106.737 76.1073C106.737 76.0449 106.8 75.9202 106.862 75.8578C106.925 75.733 106.987 75.6706 107.049 75.6082C107.299 75.6706 107.611 75.6706 107.86 75.733C108.11 75.7954 108.484 75.7954 108.858 75.7954C109.482 75.7954 109.981 75.733 110.293 75.6082C110.605 75.4835 110.73 75.2963 110.73 75.0468C110.73 74.922 110.667 74.8596 110.605 74.7349C110.543 74.6725 110.418 74.6101 110.293 74.5477C110.168 74.4853 109.981 74.423 109.794 74.423C109.607 74.3606 109.357 74.2982 109.108 74.2358L108.546 74.111C108.297 74.0487 108.11 73.9863 107.923 73.9239C107.735 73.8615 107.548 73.7991 107.424 73.6744C107.299 73.612 107.174 73.4872 107.112 73.3625C107.049 73.2377 106.987 73.1129 106.987 72.9258C106.987 72.6139 107.174 72.3643 107.548 72.1772C107.923 71.99 108.422 71.8653 109.108 71.8029V71.179C109.233 71.179 109.357 71.179 109.482 71.179C109.669 71.179 109.794 71.179 109.919 71.179V71.7405C110.231 71.7405 110.543 71.7405 110.855 71.8029C111.167 71.8029 111.416 71.8653 111.666 71.9276C111.603 72.1148 111.541 72.3019 111.416 72.4267C111.229 72.3643 110.979 72.3643 110.667 72.3019C110.418 72.3019 110.106 72.2396 109.732 72.2396C109.233 72.2396 108.858 72.3019 108.609 72.3643C108.359 72.4891 108.235 72.6139 108.235 72.801C108.235 72.9258 108.297 72.9882 108.359 73.0505C108.422 73.1129 108.546 73.1753 108.671 73.2377C108.796 73.3001 108.983 73.3625 109.17 73.3625C109.357 73.4248 109.545 73.4872 109.794 73.5496L110.231 73.612C110.543 73.6744 110.792 73.7367 110.979 73.7991C111.229 73.8615 111.416 73.9239 111.541 74.0487C111.666 74.111 111.79 74.2358 111.915 74.3606C111.978 74.4853 112.04 74.6101 112.04 74.7973C112.04 75.1716 111.853 75.4211 111.478 75.6706C111.104 75.9202 110.543 76.0449 109.857 76.1073V76.7935C109.794 76.7935 109.732 76.7935 109.669 76.7935C109.607 76.7935 109.545 76.7935 109.482 76.7935C109.42 76.7935 109.357 76.7935 109.295 76.7935C109.233 76.7935 109.17 76.7935 109.108 76.7935V76.2321V76.2321Z" fill="#FF8800"/>
<path d="M122.458 72.3643C122.458 75.1091 118.278 77.2925 113.163 77.2925C107.985 77.2925 103.805 75.0467 103.805 72.3643C103.805 69.6194 107.985 67.436 113.163 67.436C118.278 67.436 122.458 69.6194 122.458 72.3643Z" fill="#D67200"/>
<path d="M122.458 71.6158C122.458 74.3607 118.278 76.5441 113.163 76.5441C107.985 76.5441 103.805 74.2983 103.805 71.6158C103.805 68.871 107.985 66.6252 113.163 66.6252C118.278 66.6876 122.458 68.871 122.458 71.6158Z" fill="#FFAA00"/>
<path d="M122.333 70.1808C122.333 72.8633 118.216 75.1091 113.1 75.1091C107.985 75.1091 103.868 72.9257 103.868 70.1808C103.868 67.4984 107.985 65.315 113.1 65.315C118.216 65.2526 122.333 67.436 122.333 70.1808Z" fill="#F27500"/>
<path d="M102.745 64.005V77.355V64.005Z" stroke="#FFF700" stroke-width="0.0431"/>
<path d="M104.554 64.1921V77.5421V64.1921Z" stroke="#FFF700" stroke-width="0.0431"/>
<path d="M106.425 64.3793V77.7293V64.3793Z" stroke="#FFF700" stroke-width="0.0431"/>
<path d="M108.235 64.5664V77.9164V64.5664Z" stroke="#FFF700" stroke-width="0.0431"/>
<path d="M110.106 64.816V78.166V64.816Z" stroke="#FFF700" stroke-width="0.0431"/>
<path d="M111.915 65.0031V78.3531V65.0031Z" stroke="#FFF700" stroke-width="0.0431"/>
<path d="M113.787 65.1903V78.5403V65.1903Z" stroke="#FFF700" stroke-width="0.0431"/>
<path d="M115.596 65.3774V78.7274V65.3774Z" stroke="#FFF700" stroke-width="0.0431"/>
<path d="M117.467 65.5646V78.9145V65.5646Z" stroke="#FFF700" stroke-width="0.0431"/>
<path d="M119.339 65.7517V79.1017V65.7517Z" stroke="#FFF700" stroke-width="0.0431"/>
<path d="M121.148 65.9389V79.2888V65.9389Z" stroke="#FFF700" stroke-width="0.0431"/>
<path d="M123.019 66.126V79.476V66.126Z" stroke="#FFF700" stroke-width="0.0431"/>
<path d="M120.524 70.3681C120.524 72.5516 117.218 74.2983 113.163 74.2983C109.108 74.2983 105.802 72.5516 105.802 70.3681C105.802 68.1847 109.108 66.438 113.163 66.438C117.218 66.438 120.524 68.1847 120.524 70.3681Z" fill="#FFF700"/>
<path d="M120.524 70.1809C120.524 72.3643 117.218 74.111 113.163 74.111C109.108 74.111 105.802 72.3643 105.802 70.1809C105.802 67.9975 109.108 66.2507 113.163 66.2507C117.218 66.2507 120.524 67.9975 120.524 70.1809Z" fill="#FFB700"/>
<path d="M112.788 72.7387C112.726 72.7387 112.726 72.7387 112.726 72.7387H112.664C112.414 72.7387 112.227 72.7387 112.04 72.7387C111.853 72.7387 111.666 72.7387 111.478 72.6763C111.291 72.6763 111.167 72.6139 110.979 72.6139C110.792 72.6139 110.667 72.5515 110.48 72.5515C110.48 72.4891 110.543 72.3644 110.605 72.302C110.667 72.2396 110.73 72.1148 110.792 72.0525C111.042 72.1148 111.354 72.1148 111.603 72.1772C111.853 72.1772 112.227 72.2396 112.601 72.2396C113.225 72.2396 113.724 72.1772 114.036 72.0525C114.348 71.9277 114.473 71.7405 114.473 71.491C114.473 71.3662 114.473 71.2415 114.41 71.1791C114.348 71.1167 114.223 71.0543 114.099 70.9919C113.974 70.9296 113.787 70.8672 113.599 70.8048C113.412 70.7424 113.163 70.68 112.913 70.6176L112.289 70.4929C112.04 70.4305 111.853 70.3681 111.666 70.3057C111.478 70.2434 111.291 70.181 111.167 70.1186C111.042 70.0562 110.917 69.9314 110.855 69.8067C110.792 69.6819 110.73 69.5571 110.73 69.37C110.73 69.0581 110.917 68.8085 111.291 68.559C111.666 68.3719 112.165 68.2471 112.851 68.1847V67.5609C112.976 67.5609 113.1 67.5609 113.225 67.5609C113.35 67.5609 113.537 67.5609 113.662 67.5609V68.1223C113.974 68.1223 114.286 68.1223 114.598 68.1847C114.91 68.1847 115.159 68.2471 115.409 68.3095C115.346 68.4966 115.284 68.6838 115.159 68.8085C114.972 68.7462 114.722 68.7462 114.41 68.6838C114.161 68.6838 113.849 68.6214 113.475 68.6214C112.976 68.6214 112.601 68.6838 112.352 68.7462C112.102 68.8709 111.978 68.9957 111.978 69.1828C111.978 69.3076 112.04 69.37 112.102 69.4324C112.165 69.4948 112.289 69.5571 112.414 69.6195C112.539 69.6819 112.726 69.7443 112.913 69.8067C113.1 69.8691 113.35 69.8691 113.537 69.9314L113.974 70.0562C114.286 70.1186 114.535 70.181 114.722 70.2434C114.972 70.3057 115.159 70.3681 115.284 70.4929C115.471 70.6177 115.596 70.68 115.658 70.8048C115.72 70.9296 115.783 71.0543 115.783 71.2415C115.783 71.6158 115.596 71.8653 115.221 72.1148C114.847 72.3644 114.286 72.4891 113.662 72.5515V73.3001C113.599 73.3001 113.537 73.3001 113.475 73.3001C113.412 73.3001 113.35 73.3001 113.288 73.3001C113.225 73.3001 113.163 73.3001 113.1 73.3001C113.038 73.3001 112.976 73.3001 112.913 73.3001V72.7387H112.788Z" fill="#FFF700"/>
<path d="M112.788 72.4892C112.726 72.4892 112.726 72.4892 112.726 72.4892H112.664C112.414 72.4892 112.227 72.4892 112.04 72.4892C111.853 72.4892 111.666 72.4892 111.478 72.4268C111.291 72.4268 111.167 72.3644 110.979 72.3644C110.792 72.3644 110.667 72.302 110.48 72.302C110.48 72.2396 110.543 72.1149 110.605 72.0525C110.667 71.9901 110.73 71.8653 110.792 71.8029C111.042 71.8653 111.354 71.8653 111.603 71.9277C111.853 71.9277 112.227 71.9901 112.601 71.9901C113.225 71.9901 113.724 71.9277 114.036 71.8029C114.348 71.6782 114.473 71.491 114.473 71.2415C114.473 71.1167 114.473 71.0543 114.41 70.9296C114.348 70.8672 114.223 70.8048 114.099 70.7424C113.974 70.68 113.787 70.6177 113.599 70.5553C113.412 70.4929 113.163 70.4305 112.913 70.3681L112.289 70.3058C112.04 70.2434 111.853 70.181 111.666 70.1186C111.478 70.0562 111.291 69.9938 111.167 69.9315C111.042 69.8691 110.917 69.7443 110.855 69.6195C110.792 69.4948 110.73 69.37 110.73 69.1829C110.73 68.8709 110.917 68.6214 111.291 68.3719C111.666 68.1847 112.165 68.06 112.851 67.9976V67.3737C112.976 67.3737 113.1 67.3737 113.225 67.3737C113.35 67.3737 113.537 67.3737 113.662 67.3737V67.9352C113.974 67.9352 114.286 67.9352 114.598 67.9976C114.909 67.9976 115.159 68.06 115.409 68.1223C115.346 68.3095 115.284 68.4966 115.159 68.6214C114.909 68.6214 114.66 68.6214 114.348 68.559C114.099 68.559 113.787 68.4966 113.412 68.4966C112.913 68.4966 112.539 68.559 112.289 68.6214C112.04 68.7462 111.915 68.8709 111.915 69.0581C111.915 69.1829 111.977 69.2452 112.04 69.3076C112.102 69.37 112.227 69.4324 112.352 69.4948C112.477 69.5572 112.664 69.6195 112.851 69.6195C113.038 69.6819 113.288 69.6819 113.475 69.7443L113.911 69.8691C114.223 69.9314 114.473 69.9938 114.66 70.0562C114.909 70.1186 115.097 70.181 115.221 70.3058C115.409 70.3681 115.533 70.4929 115.596 70.6177C115.658 70.7424 115.72 70.8672 115.72 71.0543C115.72 71.4286 115.533 71.6782 115.159 71.9277C114.785 72.1149 114.223 72.302 113.599 72.3644V73.113C113.537 73.113 113.475 73.113 113.412 73.113C113.35 73.113 113.288 73.113 113.225 73.113C113.163 73.113 113.1 73.113 113.038 73.113C112.976 73.113 112.913 73.113 112.851 73.113V72.4892H112.788Z" fill="#FF8800"/>
<path d="M118.777 68.6837C118.777 71.4285 114.598 73.612 109.482 73.612C104.304 73.612 100.187 71.3662 100.187 68.6837C100.187 65.9388 104.367 63.7554 109.482 63.7554C114.598 63.7554 118.777 65.9388 118.777 68.6837Z" fill="#D67200"/>
<path d="M118.777 67.9351C118.777 70.68 114.598 72.8634 109.482 72.8634C104.304 72.8634 100.187 70.6176 100.187 67.9351C100.187 65.1903 104.367 63.0069 109.482 63.0069C114.598 63.0069 118.777 65.1903 118.777 67.9351Z" fill="#FFAA00"/>
<path d="M118.653 66.438C118.653 69.1204 114.535 71.3662 109.42 71.3662C104.304 71.3662 100.187 69.1828 100.187 66.438C100.187 63.7555 104.304 61.5097 109.42 61.5097C114.535 61.5721 118.653 63.7555 118.653 66.438Z" fill="#F27500"/>
<path d="M99.0642 60.3244V73.6744V60.3244Z" stroke="#FFF700" stroke-width="0.0431"/>
<path d="M100.873 60.5116V73.8615V60.5116Z" stroke="#FFF700" stroke-width="0.0431"/>
<path d="M102.745 60.6987V74.0487V60.6987Z" stroke="#FFF700" stroke-width="0.0431"/>
<path d="M104.554 60.8859V74.2358V60.8859Z" stroke="#FFF700" stroke-width="0.0431"/>
<path d="M106.425 61.073V74.423V61.073Z" stroke="#FFF700" stroke-width="0.0431"/>
<path d="M108.235 61.3226V74.6725V61.3226Z" stroke="#FFF700" stroke-width="0.0431"/>
<path d="M110.106 61.5097V74.8597V61.5097Z" stroke="#FFF700" stroke-width="0.0431"/>
<path d="M111.915 61.6969V75.0468V61.6969Z" stroke="#FFF700" stroke-width="0.0431"/>
<path d="M113.787 61.884V75.234V61.884Z" stroke="#FFF700" stroke-width="0.0431"/>
<path d="M115.596 62.0711V75.4211V62.0711Z" stroke="#FFF700" stroke-width="0.0431"/>
<path d="M117.467 62.2583V75.6083V62.2583Z" stroke="#FFF700" stroke-width="0.0431"/>
<path d="M119.339 62.4454V75.7954V62.4454Z" stroke="#FFF700" stroke-width="0.0431"/>
<path d="M116.843 66.6876C116.843 68.871 113.537 70.6177 109.482 70.6177C105.427 70.6177 102.121 68.871 102.121 66.6876C102.121 64.5042 105.427 62.7574 109.482 62.7574C113.537 62.7574 116.843 64.5042 116.843 66.6876Z" fill="#FFF700"/>
<path d="M116.843 66.438C116.843 68.6214 113.537 70.3681 109.482 70.3681C105.427 70.3681 102.121 68.6214 102.121 66.438C102.121 64.2546 105.427 62.5079 109.482 62.5079C113.537 62.5703 116.843 64.317 116.843 66.438Z" fill="#FFB700"/>
<path d="M109.108 69.0581C109.046 69.0581 109.046 69.0581 108.983 69.0581H108.921C108.671 69.0581 108.484 69.0581 108.297 69.0581C108.11 69.0581 107.923 69.0581 107.735 68.9957C107.548 68.9957 107.424 68.9957 107.236 68.9333C107.049 68.9333 106.925 68.871 106.737 68.871C106.737 68.7462 106.8 68.6838 106.862 68.559C106.925 68.4967 106.987 68.3719 107.049 68.3095C107.299 68.3719 107.611 68.3719 107.86 68.4343C108.11 68.4967 108.484 68.4967 108.858 68.4967C109.482 68.4967 109.981 68.4343 110.293 68.3095C110.605 68.1847 110.73 67.9976 110.73 67.7481C110.73 67.6233 110.667 67.5609 110.605 67.4361C110.543 67.3738 110.418 67.3114 110.293 67.249C110.168 67.1866 109.981 67.1242 109.794 67.1242C109.607 67.0618 109.357 66.9995 109.108 66.9371L108.546 66.8123C108.297 66.7499 108.11 66.6876 107.923 66.6252C107.735 66.5628 107.548 66.5004 107.424 66.3756C107.299 66.3133 107.174 66.1885 107.112 66.0637C107.049 65.939 106.987 65.8142 106.987 65.627C106.987 65.3151 107.174 65.0656 107.548 64.8784C107.923 64.6913 108.422 64.5665 109.108 64.5041V63.8803C109.233 63.8803 109.357 63.8803 109.482 63.8803C109.669 63.8803 109.794 63.8803 109.919 63.8803V64.4418C110.231 64.4418 110.543 64.4418 110.855 64.5041C111.167 64.5041 111.416 64.5665 111.666 64.6289C111.603 64.8161 111.541 65.0032 111.416 65.128C111.229 65.0656 110.979 65.0656 110.667 65.0032C110.418 65.0032 110.106 64.9408 109.732 64.9408C109.233 64.9408 108.858 65.0032 108.609 65.0656C108.359 65.1904 108.235 65.3151 108.235 65.5023C108.235 65.5647 108.297 65.6894 108.359 65.7518C108.422 65.8142 108.546 65.8766 108.671 65.939C108.796 66.0013 108.983 66.0637 109.17 66.0637C109.357 66.1261 109.545 66.1261 109.794 66.1885L110.231 66.3133C110.543 66.3756 110.792 66.438 110.979 66.5004C111.229 66.5628 111.416 66.6252 111.541 66.7499C111.666 66.8123 111.79 66.9371 111.915 67.0618C111.978 67.1866 112.04 67.3114 112.04 67.4985C112.04 67.8728 111.853 68.1224 111.478 68.3719C111.104 68.6214 110.543 68.7462 109.857 68.8086V69.4948C109.794 69.4948 109.732 69.4948 109.669 69.4948C109.607 69.4948 109.545 69.4948 109.482 69.4948C109.42 69.4948 109.357 69.4948 109.295 69.4948C109.233 69.4948 109.17 69.4948 109.108 69.4948V69.0581V69.0581Z" fill="#FFF700"/>
<path d="M109.108 68.8709C109.046 68.8709 109.046 68.8709 108.983 68.8709H108.921C108.671 68.8709 108.484 68.8709 108.297 68.8709C108.11 68.8709 107.923 68.8709 107.735 68.8086C107.548 68.8086 107.424 68.7462 107.236 68.7462C107.049 68.7462 106.925 68.6838 106.737 68.6838C106.737 68.6214 106.8 68.4966 106.862 68.4343C106.925 68.3719 106.987 68.2471 107.049 68.1847C107.299 68.2471 107.611 68.2471 107.86 68.3095C108.11 68.3095 108.484 68.3719 108.858 68.3719C109.482 68.3719 109.981 68.3095 110.293 68.1847C110.605 68.06 110.73 67.8728 110.73 67.6233C110.73 67.4985 110.667 67.3737 110.605 67.3114C110.543 67.249 110.418 67.1866 110.293 67.1242C110.168 67.0618 109.981 66.9994 109.794 66.9371C109.607 66.8747 109.357 66.8123 109.108 66.7499L108.546 66.6252C108.297 66.5628 108.11 66.5004 107.923 66.438C107.735 66.3756 107.548 66.3132 107.424 66.2509C107.299 66.1885 107.174 66.0637 107.112 65.9389C107.049 65.8142 106.987 65.6894 106.987 65.5023C106.987 65.1903 107.174 64.9408 107.548 64.6913C107.923 64.5041 108.422 64.3794 109.108 64.317V63.6931C109.233 63.6931 109.357 63.6931 109.482 63.6931C109.669 63.6931 109.794 63.6931 109.919 63.6931V64.2546C110.231 64.2546 110.543 64.2546 110.855 64.317C111.167 64.317 111.416 64.3794 111.666 64.4417C111.603 64.6289 111.541 64.816 111.416 64.9408C111.229 64.8784 110.979 64.8784 110.667 64.816C110.418 64.816 110.106 64.7537 109.732 64.7537C109.233 64.7537 108.858 64.816 108.609 64.8784C108.359 65.0032 108.235 65.128 108.235 65.3151C108.235 65.4399 108.297 65.5023 108.359 65.5646C108.422 65.627 108.546 65.6894 108.671 65.7518C108.796 65.8142 108.983 65.8766 109.17 65.9389C109.357 66.0013 109.545 66.0013 109.794 66.0637L110.231 66.1885C110.543 66.2508 110.792 66.3132 110.979 66.3756C111.229 66.438 111.416 66.5004 111.541 66.6252C111.666 66.7499 111.79 66.8123 111.915 66.9371C111.978 67.0618 112.04 67.1866 112.04 67.3737C112.04 67.748 111.853 67.9976 111.478 68.2471C111.104 68.4966 110.543 68.6214 109.857 68.6838V69.4324C109.794 69.4324 109.732 69.4324 109.669 69.4324C109.607 69.4324 109.545 69.4324 109.482 69.4324C109.42 69.4324 109.357 69.4324 109.295 69.4324C109.233 69.4324 109.17 69.4324 109.108 69.4324V68.8709V68.8709Z" fill="#FF8800"/>
<path d="M118.777 65.0032C118.777 67.7481 114.598 69.9315 109.482 69.9315C104.304 69.9315 100.187 67.7481 100.187 65.0032C100.187 62.2584 104.367 60.075 109.482 60.075C114.598 60.0126 118.777 62.2584 118.777 65.0032Z" fill="#D67200"/>
<path d="M118.777 64.2546C118.777 66.9994 114.598 69.1828 109.482 69.1828C104.304 69.1828 100.187 66.937 100.187 64.2546C100.187 61.5097 104.367 59.3263 109.482 59.3263C114.598 59.3263 118.777 61.5097 118.777 64.2546Z" fill="#FFAA00"/>
<path d="M118.653 62.7574C118.653 65.4399 114.535 67.6856 109.42 67.6856C104.304 67.6856 100.187 65.5022 100.187 62.7574C100.187 60.0749 104.304 57.8291 109.42 57.8291C114.535 57.8915 118.653 60.0749 118.653 62.7574Z" fill="#F27500"/>
<path d="M99.0642 56.6439V69.9938V56.6439Z" stroke="#FFF700" stroke-width="0.0431"/>
<path d="M100.873 56.831V70.181V56.831Z" stroke="#FFF700" stroke-width="0.0431"/>
<path d="M102.745 57.0181V70.3681V57.0181Z" stroke="#FFF700" stroke-width="0.0431"/>
<path d="M104.554 57.2053V70.5553V57.2053Z" stroke="#FFF700" stroke-width="0.0431"/>
<path d="M106.425 57.3924V70.7424V57.3924Z" stroke="#FFF700" stroke-width="0.0431"/>
<path d="M108.235 57.642V70.992V57.642Z" stroke="#FFF700" stroke-width="0.0431"/>
<path d="M110.106 57.8291V71.1791V57.8291Z" stroke="#FFF700" stroke-width="0.0431"/>
<path d="M111.915 58.0163V71.3663V58.0163Z" stroke="#FFF700" stroke-width="0.0431"/>
<path d="M113.787 58.2034V71.5534V58.2034Z" stroke="#FFF700" stroke-width="0.0431"/>
<path d="M115.596 58.3906V71.7405V58.3906Z" stroke="#FFF700" stroke-width="0.0431"/>
<path d="M117.467 58.5777V71.9277V58.5777Z" stroke="#FFF700" stroke-width="0.0431"/>
<path d="M119.339 58.7649V72.1148V58.7649Z" stroke="#FFF700" stroke-width="0.0431"/>
<path d="M116.469 63.0069C116.469 65.0655 113.35 66.6875 109.482 66.6875C105.614 66.6875 102.495 65.0655 102.495 63.0069C102.495 60.9482 105.614 59.3263 109.482 59.3263C113.288 59.2639 116.469 60.9482 116.469 63.0069Z" fill="#FFF700"/>
<path d="M116.469 62.8197C116.469 64.8784 113.35 66.5003 109.482 66.5003C105.614 66.5003 102.495 64.8784 102.495 62.8197C102.495 60.7611 105.614 59.1391 109.482 59.1391C113.288 59.0767 116.469 60.7611 116.469 62.8197Z" fill="#FFB700"/>
<path d="M109.108 65.3774C109.046 65.3774 109.046 65.3774 108.983 65.3774H108.921C108.671 65.3774 108.484 65.3774 108.297 65.3774C108.11 65.3774 107.923 65.3774 107.735 65.315C107.548 65.315 107.424 65.315 107.236 65.2526C107.049 65.2526 106.925 65.1903 106.737 65.1903C106.737 65.1279 106.8 65.0031 106.862 64.9407C106.925 64.816 106.987 64.7536 107.049 64.6912C107.299 64.7536 107.611 64.7536 107.86 64.816C108.11 64.8783 108.484 64.8783 108.858 64.8783C109.482 64.8783 109.981 64.816 110.293 64.6912C110.605 64.5664 110.73 64.3793 110.73 64.1297C110.73 64.005 110.667 63.9426 110.605 63.8178C110.543 63.7554 110.418 63.6931 110.293 63.6307C110.168 63.5683 109.981 63.5059 109.794 63.5059C109.607 63.4435 109.357 63.3811 109.108 63.3188L108.546 63.194C108.297 63.1316 108.11 63.0692 107.923 63.0069C107.735 62.9445 107.548 62.8821 107.424 62.7573C107.299 62.6949 107.174 62.5702 107.112 62.4454C107.049 62.3206 106.987 62.1959 106.987 62.0087C106.987 61.6968 107.174 61.4473 107.548 61.2601C107.923 61.073 108.422 60.9482 109.108 60.8858V60.262C109.233 60.262 109.357 60.262 109.482 60.262C109.669 60.262 109.794 60.262 109.919 60.262V60.8234C110.231 60.8234 110.543 60.8234 110.855 60.8858C111.167 60.8858 111.416 60.9482 111.666 61.0106C111.603 61.1977 111.541 61.3225 111.416 61.5097C111.229 61.4473 110.979 61.4473 110.667 61.3849C110.418 61.3225 110.106 61.3225 109.732 61.3225C109.233 61.3225 108.858 61.3849 108.609 61.5097C108.359 61.572 108.235 61.7592 108.235 61.9463C108.235 62.0711 108.297 62.1335 108.359 62.1959C108.422 62.2583 108.546 62.3206 108.671 62.383C108.796 62.4454 108.983 62.5078 109.17 62.5078C109.357 62.5702 109.545 62.6326 109.794 62.6949L110.231 62.7573C110.543 62.8197 110.792 62.8821 110.979 62.9445C111.229 63.0069 111.416 63.0692 111.541 63.194C111.666 63.2564 111.79 63.3812 111.915 63.5059C111.978 63.6307 112.04 63.8178 112.04 63.9426C112.04 64.3169 111.853 64.5664 111.478 64.816C111.104 65.0655 110.543 65.1903 109.857 65.2526V65.9389C109.794 65.9389 109.732 65.9389 109.669 65.9389C109.607 65.9389 109.545 65.9389 109.482 65.9389C109.42 65.9389 109.357 65.9389 109.295 65.9389C109.233 65.9389 109.17 65.9389 109.108 65.9389V65.3774V65.3774Z" fill="#FFF700"/>
<path d="M109.108 65.0656C109.046 65.0656 109.046 65.0656 109.046 65.0656H108.983C108.734 65.0656 108.546 65.0656 108.359 65.0656C108.172 65.0656 107.985 65.0656 107.86 65.0032C107.673 65.0032 107.548 64.9408 107.424 64.9408C107.299 64.9408 107.112 64.8785 106.987 64.8785C106.987 64.8161 107.049 64.6913 107.112 64.6289C107.174 64.5042 107.236 64.4418 107.299 64.3794C107.548 64.4418 107.798 64.4418 108.047 64.5042C108.297 64.5042 108.609 64.5666 108.983 64.5666C109.607 64.5666 110.044 64.5042 110.356 64.3794C110.667 64.2546 110.792 64.0675 110.792 63.8803C110.792 63.7556 110.73 63.6932 110.667 63.5684C110.605 63.506 110.48 63.4437 110.356 63.3813C110.231 63.3189 110.106 63.2565 109.856 63.2565C109.669 63.1941 109.42 63.1941 109.17 63.1317L108.671 63.007C108.422 62.9446 108.235 62.8822 108.047 62.8198C107.86 62.7574 107.673 62.6951 107.548 62.6327C107.424 62.5703 107.299 62.4455 107.236 62.3208C107.174 62.196 107.112 62.0712 107.112 61.9465C107.112 61.6346 107.299 61.385 107.611 61.1979C107.985 61.0107 108.422 60.886 109.108 60.8236V60.1997C109.233 60.1997 109.357 60.1997 109.482 60.1997C109.607 60.1997 109.794 60.1997 109.856 60.1997V60.7612C110.168 60.7612 110.48 60.7612 110.792 60.8236C111.104 60.8236 111.354 60.886 111.541 60.9483C111.541 61.1355 111.416 61.2603 111.291 61.4474C111.104 61.385 110.855 61.385 110.605 61.3226C110.356 61.3226 110.044 61.2602 109.732 61.2602C109.295 61.2602 108.921 61.3226 108.671 61.385C108.422 61.4474 108.297 61.6345 108.297 61.8217C108.297 61.8841 108.297 62.0088 108.359 62.0712C108.422 62.1336 108.546 62.196 108.671 62.2584C108.796 62.3208 108.983 62.3831 109.108 62.3831C109.295 62.4455 109.482 62.4455 109.732 62.5079L110.168 62.5703C110.418 62.6327 110.667 62.6951 110.917 62.7574C111.104 62.8198 111.291 62.8822 111.478 63.007C111.603 63.0694 111.728 63.1941 111.853 63.3189C111.915 63.4437 111.978 63.5684 111.978 63.7556C111.978 64.0675 111.79 64.3794 111.416 64.5666C111.042 64.7537 110.543 64.9409 109.919 65.0032V65.6894C109.856 65.6894 109.794 65.6894 109.732 65.6894C109.669 65.6894 109.607 65.6894 109.545 65.6894C109.482 65.6894 109.42 65.6894 109.357 65.6894C109.295 65.6894 109.233 65.6894 109.17 65.6894V65.0656H109.108Z" fill="#E37900"/>
<path d="M21.0854 154.024V130.63C21.0854 128.01 23.2065 125.951 25.7642 125.951H97.3799C100 125.951 102.059 128.072 102.059 130.63V141.984C102.059 144.604 104.18 146.662 106.737 146.662H123.206C125.827 146.662 127.885 146.787 127.885 146.912C127.885 147.037 125.764 147.162 123.206 147.162H106.238C103.618 147.162 101.56 145.041 101.56 142.483V131.129C101.56 128.571 99.4385 126.45 96.8808 126.45H26.2632C23.6432 126.45 21.5845 128.571 21.5845 131.129V153.088C21.5845 155.708 23.1441 156.394 25.1403 154.71L31.2539 149.407C33.2501 147.723 34.8721 146.413 34.9345 146.538C34.9969 146.662 33.4997 148.097 31.5658 149.782L24.6413 155.77C22.645 157.392 21.0854 156.644 21.0854 154.024Z" fill="white"/>
<path d="M158.141 148.971C147.162 148.971 129.445 148.284 128.072 146.6C128.01 146.538 128.01 146.475 128.01 146.413H178.915C178.852 148.284 169.619 148.971 158.141 148.971Z" fill="#66898F"/>
<path d="M158.141 130.443C146.663 130.443 128.01 134.997 128.01 146.475H178.915C178.852 134.997 169.619 130.443 158.141 130.443Z" fill="#527394"/>
<path d="M134.81 137.305C134.061 135.745 135.933 133.375 137.492 132.626C139.052 131.878 142.046 132.002 142.795 133.562L134.81 137.305Z" fill="#2C3E50"/>
<path d="M158.141 130.443C146.663 130.443 128.01 134.997 128.01 146.475H178.915C178.852 134.997 169.619 130.443 158.141 130.443Z" fill="#E74C3C"/>
<path d="M158.141 136.993C146.663 136.993 125.639 141.547 125.639 153.026H180.287C180.287 141.547 169.619 136.993 158.141 136.993Z" fill="#2C3E50"/>
<path d="M86.65 119.651H42.5452H41.1728V122.021C41.048 122.333 40.9856 122.708 40.9856 123.082C40.9856 123.456 41.048 123.83 41.1728 124.142V124.392H37.8665H36.4317V126.762C36.3069 127.074 36.2445 127.449 36.2445 127.823C36.2445 128.197 36.3069 128.572 36.4317 128.883V140.861C36.3069 141.173 36.2445 141.547 36.2445 141.922C36.2445 142.296 36.3069 142.67 36.4317 142.982V144.978H37.8665H38.2408C38.6775 145.165 39.1765 145.29 39.6756 145.29C40.1747 145.29 40.6737 145.165 41.1104 144.978H77.2926C77.7293 145.165 78.1659 145.29 78.7274 145.29C79.2264 145.29 79.7255 145.165 80.1622 144.978H82.0961H83.5309V140.549C84.0299 140.549 84.4666 140.424 84.9033 140.237H86.8372H88.272V119.713H86.65V119.651Z" fill="#66898F"/>
<path d="M84.3419 113.537H38.8022V134.061H84.3419V113.537Z" fill="#46542E"/>
<path d="M82.907 113.537H37.3674V134.061H82.907V113.537Z" fill="#556736"/>
<path d="M79.4136 116.532H40.9232V131.129H79.4136V116.532Z" fill="#859D4C"/>
<path d="M43.9176 116.968C43.9176 118.84 42.4205 120.337 40.549 120.337C38.6775 120.337 37.1803 118.84 37.1803 116.968C37.1803 115.097 38.6775 113.6 40.549 113.6C42.4205 113.6 43.9176 115.097 43.9176 116.968Z" fill="#556736"/>
<path d="M51.466 123.83C51.466 125.702 49.9688 127.199 48.0973 127.199C46.2258 127.199 44.7286 125.702 44.7286 123.83C44.7286 121.959 46.2258 120.462 48.0973 120.462C49.9688 120.462 51.466 121.959 51.466 123.83Z" fill="#556736"/>
<path d="M74.9844 123.83C74.9844 125.702 73.4872 127.199 71.6157 127.199C69.7442 127.199 68.247 125.702 68.247 123.83C68.247 121.959 69.7442 120.462 71.6157 120.462C73.4872 120.462 74.9844 121.959 74.9844 123.83Z" fill="#556736"/>
<path d="M43.9176 131.067C43.9176 132.938 42.4205 134.436 40.549 134.436C38.6775 134.436 37.1803 132.938 37.1803 131.067C37.1803 129.195 38.6775 127.698 40.549 127.698C42.4205 127.698 43.9176 129.195 43.9176 131.067Z" fill="#556736"/>
<path d="M82.9694 131.067C82.9694 132.938 81.4722 134.436 79.6008 134.436C77.7293 134.436 76.2321 132.938 76.2321 131.067C76.2321 129.195 77.7293 127.698 79.6008 127.698C81.4722 127.698 82.9694 129.195 82.9694 131.067Z" fill="#556736"/>
<path d="M82.9694 116.968C82.9694 118.84 81.4722 120.337 79.6008 120.337C77.7293 120.337 76.2321 118.84 76.2321 116.968C76.2321 115.097 77.7293 113.6 79.6008 113.6C81.4722 113.6 82.9694 115.097 82.9694 116.968Z" fill="#556736"/>
<path d="M66.5003 123.83C66.5003 127.324 63.6307 130.193 60.1372 130.193C56.6438 130.193 53.7741 127.324 53.7741 123.83C53.7741 120.337 56.5814 117.467 60.1372 117.467C63.6307 117.467 66.5003 120.337 66.5003 123.83Z" fill="#556736"/>
<path d="M62.0087 124.828C62.2583 125.265 62.383 125.702 62.383 126.076C62.383 126.887 62.1959 127.449 61.6968 127.885C61.3849 128.135 61.073 128.322 60.6987 128.384V129.008H59.5758V128.322C59.0143 128.197 58.64 127.823 58.3281 127.324C58.0786 126.887 57.9538 126.388 57.8914 125.827L59.2015 125.702C59.2639 126.263 59.3886 126.638 59.6382 126.825C59.8253 127.012 60.0125 127.074 60.1996 127.074C60.5115 127.074 60.7611 126.949 60.8858 126.638C60.9482 126.513 61.0106 126.326 61.0106 126.014C61.0106 125.639 60.8235 125.265 60.5115 124.891C60.262 124.641 59.8253 124.267 59.3263 123.768C58.8896 123.394 58.5777 123.019 58.3905 122.645C58.141 122.208 58.0162 121.772 58.0162 121.273C58.0162 120.836 58.141 120.399 58.3281 120.025C58.5777 119.526 59.0143 119.276 59.5134 119.089V118.528H60.6987V119.089C61.073 119.152 61.3849 119.339 61.6344 119.526C62.0711 119.9 62.3206 120.462 62.3206 121.085L61.0106 121.335C60.9482 120.961 60.8858 120.649 60.6987 120.462C60.5739 120.337 60.3868 120.274 60.1372 120.274C59.8877 120.274 59.7006 120.399 59.5758 120.586C59.451 120.774 59.3886 120.961 59.3886 121.273C59.3886 121.709 59.5758 122.084 59.9501 122.52C60.0749 122.645 60.262 122.895 60.5739 123.082C60.8858 123.331 61.1354 123.518 61.1978 123.643C61.5721 124.142 61.8216 124.517 62.0087 124.828Z" fill="#859D4C"/>
<path d="M79.6632 118.278H34.1235V138.865H79.6632V118.278Z" fill="#46542E"/>
<path d="M78.2283 118.278H32.6887V138.865H78.2283V118.278Z" fill="#556736"/>
<path d="M74.6725 121.21H36.1822V135.808H74.6725V121.21Z" fill="#859D4C"/>
<path d="M39.2389 121.647C39.2389 123.518 37.7417 125.016 35.8702 125.016C33.9987 125.016 32.5016 123.518 32.5016 121.647C32.5016 119.776 33.9987 118.278 35.8702 118.278C37.7417 118.278 39.2389 119.776 39.2389 121.647Z" fill="#556736"/>
<path d="M46.7873 128.509C46.7873 130.381 45.2901 131.878 43.4186 131.878C41.5471 131.878 40.0499 130.381 40.0499 128.509C40.0499 126.638 41.5471 125.141 43.4186 125.141C45.2277 125.141 46.7873 126.7 46.7873 128.509Z" fill="#556736"/>
<path d="M70.2433 128.509C70.2433 130.381 68.7461 131.878 66.8746 131.878C65.0031 131.878 63.5059 130.381 63.5059 128.509C63.5059 126.638 65.0031 125.141 66.8746 125.141C68.7461 125.141 70.2433 126.7 70.2433 128.509Z" fill="#556736"/>
<path d="M39.2389 135.746C39.2389 137.617 37.7417 139.114 35.8702 139.114C33.9987 139.114 32.5016 137.617 32.5016 135.746C32.5016 133.874 33.9987 132.377 35.8702 132.377C37.7417 132.377 39.2389 133.874 39.2389 135.746Z" fill="#556736"/>
<path d="M78.2283 135.746C78.2283 137.617 76.7311 139.114 74.8596 139.114C72.9881 139.114 71.491 137.617 71.491 135.746C71.491 133.874 72.9881 132.377 74.8596 132.377C76.7311 132.377 78.2283 133.874 78.2283 135.746Z" fill="#556736"/>
<path d="M78.2283 121.647C78.2283 123.518 76.7311 125.016 74.8596 125.016C72.9881 125.016 71.491 123.518 71.491 121.647C71.491 119.776 72.9881 118.278 74.8596 118.278C76.7311 118.278 78.2283 119.776 78.2283 121.647Z" fill="#556736"/>
<path d="M61.7592 128.509C61.7592 132.003 58.8896 134.872 55.3961 134.872C51.9027 134.872 49.0331 132.003 49.0331 128.509C49.0331 125.016 51.9027 122.146 55.3961 122.146C58.952 122.208 61.7592 125.016 61.7592 128.509Z" fill="#556736"/>
<path d="M57.2676 129.507C57.5172 130.006 57.6419 130.443 57.7043 130.817C57.7043 131.566 57.5172 132.19 57.0181 132.626C56.7686 132.876 56.3943 133.063 56.02 133.125V133.749H54.8971V133.063C54.3356 132.938 53.8989 132.626 53.6494 132.065C53.3999 131.628 53.2751 131.129 53.2127 130.568L54.5228 130.505C54.5851 131.067 54.7099 131.441 54.9595 131.628C55.1466 131.815 55.3337 131.878 55.5209 131.878C55.8328 131.878 56.0823 131.753 56.2071 131.441C56.3319 131.316 56.3319 131.129 56.3319 130.817C56.3319 130.443 56.1447 130.069 55.8328 129.694C55.5209 129.445 55.1466 129.071 54.5852 128.572C54.1485 128.135 53.8366 127.823 53.6494 127.449C53.3999 127.012 53.2751 126.575 53.2751 126.076C53.2751 125.639 53.3999 125.203 53.587 124.829C53.8366 124.329 54.2732 124.018 54.7723 123.893V123.331H55.9576V123.893C56.3319 123.955 56.6438 124.142 56.8933 124.392C57.33 124.766 57.5795 125.328 57.5795 125.951L56.2695 126.201C56.2071 125.827 56.1447 125.515 55.9576 125.328C55.8328 125.203 55.6457 125.14 55.3961 125.14C55.1466 125.14 54.9594 125.265 54.8347 125.452C54.7099 125.64 54.6475 125.827 54.6475 126.139C54.6475 126.575 54.8347 126.95 55.209 127.386C55.3337 127.573 55.5209 127.761 55.8328 127.948C56.1447 128.197 56.3319 128.384 56.4566 128.509C56.8309 128.883 57.1429 129.195 57.2676 129.507Z" fill="#859D4C"/>
<path d="M50.7798 131.067L49.033 137.679L47.2863 144.292C47.0368 145.228 46.413 145.353 45.8515 144.542L43.0443 140.3L37.4298 145.914C36.7436 146.6 35.6831 146.6 34.9345 145.914L50.7174 130.131C50.9045 130.381 50.9045 130.693 50.7798 131.067Z" fill="#4A4A4A"/>
<path d="M36.3693 133.375L42.9819 131.628L49.5945 129.882C50.1559 129.757 50.5926 129.882 50.7798 130.193L34.9345 145.976C34.9345 145.976 34.9345 145.976 34.8721 145.976L34.8097 145.914C34.1235 145.228 34.1235 144.105 34.8097 143.419L40.4866 137.742L36.1198 134.872C35.3088 134.248 35.4335 133.624 36.3693 133.375Z" fill="#3B3B3B"/>
<path d="M60.4491 167.997C64.9625 167.997 68.6213 164.339 68.6213 159.825C68.6213 155.312 64.9625 151.653 60.4491 151.653C55.9358 151.653 52.277 155.312 52.277 159.825C52.277 164.339 55.9358 167.997 60.4491 167.997Z" fill="#14A0AD"/>
<path d="M178.977 23.3936C182.216 23.3936 184.841 20.7682 184.841 17.5296C184.841 14.291 182.216 11.6656 178.977 11.6656C175.738 11.6656 173.113 14.291 173.113 17.5296C173.113 20.7682 175.738 23.3936 178.977 23.3936Z" fill="#14A0AD"/>
<path d="M185.964 76.2322C190.408 76.2322 194.011 72.6292 194.011 68.1847C194.011 63.7403 190.408 60.1373 185.964 60.1373C181.519 60.1373 177.916 63.7403 177.916 68.1847C177.916 72.6292 181.519 76.2322 185.964 76.2322Z" fill="#14A0AD"/>
<path d="M9.73176 29.8814C13.1082 29.8814 15.8453 27.1443 15.8453 23.7679C15.8453 20.3915 13.1082 17.6543 9.73176 17.6543C6.35535 17.6543 3.61823 20.3915 3.61823 23.7679C3.61823 27.1443 6.35535 29.8814 9.73176 29.8814Z" fill="#14A0AD"/>
<path d="M89.1453 6.86213C89.1453 10.6675 86.0886 13.7243 82.2832 13.7243C78.4778 13.7243 75.4211 10.6675 75.4211 6.86213C75.4211 3.05677 78.4778 0 82.2832 0C86.0886 0 89.1453 3.05677 89.1453 6.86213Z" fill="#14A0AD"/>
<path d="M17.9663 66.8121C17.9663 71.2413 14.3481 74.8596 9.85652 74.8596C5.42733 74.8596 1.80911 71.2413 1.80911 66.8121C1.80911 62.383 5.42733 58.7647 9.85652 58.7647C14.3481 58.7024 17.9663 62.3206 17.9663 66.8121Z" fill="#14A0AD"/>
<path d="M194.136 111.915C197.375 111.915 200 109.29 200 106.051C200 102.813 197.375 100.187 194.136 100.187C190.897 100.187 188.272 102.813 188.272 106.051C188.272 109.29 190.897 111.915 194.136 111.915Z" fill="#14A0AD"/>
<path d="M6.6126 126.7C10.2646 126.7 13.2252 123.739 13.2252 120.087C13.2252 116.435 10.2646 113.475 6.6126 113.475C2.96056 113.475 0 116.435 0 120.087C0 123.739 2.96056 126.7 6.6126 126.7Z" fill="#14A0AD"/>
<path d="M129.819 128.072C135.332 128.072 139.8 123.604 139.8 118.091C139.8 112.579 135.332 108.11 129.819 108.11C124.307 108.11 119.838 112.579 119.838 118.091C119.838 123.604 124.307 128.072 129.819 128.072Z" fill="#14A0AD"/>
</g>
<defs>
<linearGradient id="paint0_linear" x1="32.1397" y1="56.5497" x2="157.522" y2="56.5497" gradientUnits="userSpaceOnUse">
<stop stop-color="#2D8ED9"/>
<stop offset="1" stop-color="#20669C"/>
</linearGradient>
<clipPath id="clip0">
<rect width="200" height="167.997" fill="white"/>
</clipPath>
</defs>
</svg>
