<svg width="201" height="205" viewBox="0 0 201 205" fill="none" xmlns="http://www.w3.org/2000/svg">
<path d="M87.4225 36.922C87.4225 48.8347 77.7295 58.5276 65.8168 58.5276C53.9041 58.5276 44.2112 48.8347 44.2112 36.922C44.2112 25.0093 53.8302 15.3164 65.8168 15.3164C77.8035 15.3164 87.4225 25.0093 87.4225 36.922Z" stroke="#CCEBFF" stroke-width="0.1458" stroke-miterlimit="10" stroke-dasharray="0.92 0.92"/>
<path d="M79.3573 36.9218C79.3573 44.395 73.29 50.3883 65.8908 50.3883C58.4177 50.3883 52.4243 44.321 52.4243 36.9218C52.4243 29.4486 58.4917 23.4553 65.8908 23.4553C73.29 23.3813 79.3573 29.4486 79.3573 36.9218Z" stroke="#CCEBFF" stroke-width="0.2187" stroke-miterlimit="10" stroke-dasharray="0.57 0.57"/>
<path d="M92.8239 36.9219C92.8239 51.7943 80.7632 63.9289 65.8908 63.9289C50.9445 63.855 38.8838 51.7943 38.8838 36.9219C38.8838 22.0495 50.9445 9.91489 65.8908 9.91489C80.7632 9.91489 92.8239 21.9756 92.8239 36.9219Z" stroke="#CCEBFF" stroke-width="0.0729" stroke-miterlimit="10" stroke-dasharray="1.14 1.14"/>
<path d="M85.4987 16.944L82.0951 15.3902L81.6511 15.1682L80.9852 14.8722L80.5412 14.6503C80.3193 14.5023 80.0233 14.5023 80.0233 14.6503L76.7676 21.9015L76.9156 21.9755H76.9896L74.1779 28.1908L73.66 24.5652C73.438 23.2333 72.5501 22.3454 71.5882 22.4934L57.6038 24.5652C56.9378 24.6392 56.4199 25.3051 56.2719 26.119L55.236 25.5271C55.532 23.2333 55.088 20.7916 53.6822 18.7198C50.7225 14.2803 44.6552 13.0964 40.2157 16.0561C35.7022 19.0158 34.5183 25.0831 37.478 29.5966C40.4376 34.1101 46.505 35.294 51.0185 32.3343C51.9064 31.7424 52.5723 31.0765 53.2382 30.3365H56.7898L59.8975 51.7942C60.0455 53.052 61.0074 54.0139 61.9693 53.866L64.115 53.57L64.707 58.3795L66.4828 57.1956L70.3304 54.6059L71.2923 52.4601L75.9537 51.7942C76.9156 51.6462 77.5076 50.5363 77.3596 49.2045L76.2497 41.5093L83.7229 25.0091L86.9785 17.7579C86.9785 17.6839 86.3126 17.314 85.4987 16.944Z" stroke="#C2E5E1" stroke-width="0.1518" stroke-miterlimit="10"/>
<path d="M81.0592 29.0046L77.8035 27.5988L77.3596 27.4508L76.6937 27.1548L76.2497 26.9328C76.0277 26.7848 75.7318 26.7848 75.7318 26.9328L72.5501 33.5921L72.6981 33.6661H72.7721L70.0344 39.2895L69.5164 35.9598C69.2945 34.776 68.4066 33.9621 67.4447 34.11L53.9042 36.0338C53.0163 36.1078 52.4243 37.2177 52.5723 38.3276L56.1239 61.0431C56.3459 62.2269 57.2338 63.0409 58.1217 62.9669L60.1935 62.6709L60.7854 67.1104L62.4872 66.0005L65.0769 63.6328L67.1487 61.709L71.6622 61.0431C72.6241 60.8951 73.216 59.8592 72.9941 58.6753L71.9582 51.6461L79.2094 36.4778L82.391 29.8185C82.391 29.7445 81.7991 29.3746 81.0592 29.0046Z" fill="#2BADB3"/>
<path d="M75.9537 51.7942L61.9693 53.866C61.0074 54.014 60.0455 53.0521 59.8975 51.7942L56.1979 27.0809C56.0499 25.8231 56.6419 24.7132 57.6038 24.5652L71.5142 22.4934C72.4761 22.3455 73.438 23.2334 73.586 24.5652L77.2856 49.2785C77.5076 50.4624 76.8416 51.6462 75.9537 51.7942Z" fill="#03384D"/>
<path d="M71.806 25.6208L58.3371 27.6113L61.7555 50.7425L75.2243 48.7521L71.806 25.6208Z" fill="#20669C"/>
<path opacity="0.26" d="M71.5882 24.4913L60.8594 50.9064L57.2338 26.6371L71.5882 24.4913Z" fill="#FFF2D1" stroke="white" stroke-width="0.0359" stroke-miterlimit="10"/>
<path d="M69.2945 51.2022C69.3685 51.6462 69.1465 52.0161 68.7766 52.0901C68.4806 52.1641 68.1846 51.7942 68.1106 51.3502C68.0366 50.9063 68.2586 50.5363 68.6286 50.4623C68.9245 50.4623 69.2205 50.7583 69.2945 51.2022Z" fill="#FFF1CC"/>
<path d="M66.9267 24.7872C66.9267 25.0091 66.8527 25.1571 66.6308 25.1571L63.1531 25.7491C63.0052 25.7491 62.7832 25.6751 62.7832 25.4531C62.7832 25.2311 62.8572 25.0831 63.0052 25.0831L66.5568 24.5652C66.7048 24.4912 66.8527 24.6392 66.9267 24.7872Z" fill="#FFF1CC"/>
<path d="M64.855 38.5498C64.929 38.9937 64.633 39.3637 64.1891 39.4377C63.7451 39.5117 63.3752 39.2157 63.3012 38.7718C63.2272 38.3278 63.5231 37.9579 63.9671 37.8839C64.411 37.8099 64.855 38.1058 64.855 38.5498Z" fill="white"/>
<path d="M69.9604 35.5161C70.0344 36.182 69.5905 36.8479 68.9245 36.9219C68.2586 36.9959 67.5927 36.5519 67.5187 35.886C67.4447 35.2201 67.8887 34.5542 68.5546 34.4802C69.2205 34.4062 69.8864 34.8501 69.9604 35.5161Z" fill="white"/>
<path d="M70.7744 40.3995C70.8483 41.0655 70.4044 41.6574 69.7385 41.8054C69.0725 41.8794 68.4806 41.4354 68.3326 40.7695C68.2586 40.0296 68.7026 39.4376 69.4425 39.3637C70.1084 39.2157 70.7004 39.7336 70.7744 40.3995Z" fill="white"/>
<path d="M64.1151 38.6236L68.7766 35.6639L64.1151 38.6236Z" stroke="white" stroke-width="0.0359" stroke-miterlimit="10"/>
<path d="M64.1151 38.6238L69.5905 40.5476L64.1151 38.6238Z" stroke="white" stroke-width="0.0359" stroke-miterlimit="10"/>
<path d="M60.7854 30.1887L64.855 29.5968L60.7854 30.1887Z" stroke="#FFEDBF" stroke-width="0.1302" stroke-miterlimit="10"/>
<path d="M64.115 47.6508L70.2564 46.7629L64.115 47.6508Z" stroke="#FFEDBF" stroke-width="0.1076" stroke-miterlimit="10"/>
<path d="M63.6711 45.061L71.5882 43.8771L63.6711 45.061Z" stroke="#FFEDBF" stroke-width="0.1076" stroke-miterlimit="10"/>
<path d="M65.8169 29.4487L66.8528 29.3008L65.8169 29.4487Z" stroke="#FFEDBF" stroke-width="0.1076" stroke-miterlimit="10"/>
<path d="M67.9626 29.0788L69.3685 28.8568L67.9626 29.0788Z" stroke="#FFEDBF" stroke-width="0.1076" stroke-miterlimit="10"/>
<path d="M61.2294 31.9645L66.5568 31.1505L61.2294 31.9645Z" stroke="#FFEDBF" stroke-width="0.1076" stroke-miterlimit="10"/>
<path d="M67.5187 31.0766L69.6645 30.7807L67.5187 31.0766Z" stroke="#FFEDBF" stroke-width="0.1076" stroke-miterlimit="10"/>
<path d="M63.8191 51.6462L80.0973 15.6121C80.3193 15.0942 81.2072 14.9462 81.9471 15.3162L85.4987 16.87C86.3126 17.24 86.7566 17.9799 86.5346 18.4978L70.2564 54.5319L63.8191 51.6462Z" fill="#F9CB3B"/>
<path d="M63.5971 51.5721L79.8753 15.5381C80.0973 15.0201 80.6892 14.7981 81.1332 14.9461L83.131 15.834C83.5749 16.056 83.7969 16.6479 83.5749 17.1659L67.2967 53.2739L63.5971 51.5721Z" fill="#E3B836"/>
<path d="M85.4987 16.9439L83.1309 15.908L81.9471 15.3901L81.0592 15.0201C80.6892 14.7981 80.2453 14.7241 80.2453 14.7981L76.9896 22.0493L77.2116 22.1233L80.6892 23.6772L83.6489 25.009L86.9045 17.7578C86.9785 17.6838 86.3126 17.3139 85.4987 16.9439Z" fill="#004F6B"/>
<path d="M82.983 15.8341L81.6511 15.2422L80.9852 14.9462L80.5412 14.7242C80.3193 14.5762 80.0233 14.5762 80.0233 14.7242L76.7676 21.9754L76.9156 22.0494L78.8394 22.9373L80.5412 23.6772L83.7969 16.426C83.7969 16.278 83.4269 16.0561 82.983 15.8341Z" fill="#002E3F"/>
<path d="M64.707 58.3794L63.5971 51.5721L70.3304 54.6058L64.707 58.3794Z" fill="#E8A700"/>
<path d="M64.707 58.3794L67.0007 56.8255L64.337 55.9376L64.707 58.3794Z" fill="white"/>
<path d="M35.1102 26.267C38.2919 21.9014 44.3592 21.0135 48.7247 24.1952C50.7225 25.675 52.0544 27.7468 52.4983 30.0406L62.7092 31.4464L52.2024 35.146C51.9064 36.1079 51.4624 36.9958 50.7965 37.8097C47.6149 42.1012 41.5475 43.0631 37.182 39.8815C32.8905 36.6998 31.9286 30.6325 35.1102 26.267Z" fill="#2BADB3"/>
<path d="M40.2157 16.0561C44.6552 13.0964 50.7225 14.2803 53.7562 18.7198C55.162 20.7916 55.606 23.2333 55.31 25.5271L64.337 30.3365L53.1642 30.2626C52.5723 31.0025 51.8324 31.6684 50.9445 32.2603C46.505 35.22 40.4376 34.0361 37.478 29.5966C34.5183 25.0831 35.7022 19.0158 40.2157 16.0561Z" fill="#2D8ED9"/>
<path d="M40.5116 20.5695H46.653H40.5116Z" stroke="white" stroke-width="0.1518" stroke-miterlimit="10"/>
<path d="M47.3189 20.5695H50.5005H47.3189Z" stroke="white" stroke-width="0.1518" stroke-miterlimit="10"/>
<path d="M40.5116 23.5291H43.6193H40.5116Z" stroke="white" stroke-width="0.1518" stroke-miterlimit="10"/>
<path d="M44.2852 23.5291H48.2808H44.2852Z" stroke="white" stroke-width="0.1518" stroke-miterlimit="10"/>
<path d="M40.5116 27.3028H50.4265H40.5116Z" stroke="white" stroke-width="0.2406" stroke-miterlimit="10"/>
<path d="M49.1687 23.5291H50.5005H49.1687Z" stroke="white" stroke-width="0.1518" stroke-miterlimit="10"/>
<path d="M156.679 26.119C156.679 37.5137 147.43 46.7627 136.035 46.7627C124.64 46.7627 115.317 37.5137 115.317 26.119C115.317 14.7242 124.566 5.40128 136.035 5.40128C147.43 5.40128 156.679 14.6503 156.679 26.119Z" stroke="#CCEBFF" stroke-width="0.1397" stroke-miterlimit="10" stroke-dasharray="0.88 0.88"/>
<path d="M148.91 26.1191C148.91 33.2224 143.138 39.0677 135.961 39.0677C128.858 39.0677 123.013 33.2963 123.013 26.1191C123.013 19.0159 128.784 13.1706 135.961 13.1706C143.138 13.1706 148.91 18.9419 148.91 26.1191Z" stroke="#CCEBFF" stroke-width="0.0699" stroke-miterlimit="10" stroke-dasharray="0.55 0.55"/>
<path d="M161.858 26.1191C161.858 40.3995 150.316 51.9423 136.035 51.9423C121.755 51.9423 110.212 40.3995 110.212 26.1191C110.212 11.8387 121.755 0.295945 136.035 0.295945C150.242 0.221953 161.858 11.8387 161.858 26.1191Z" stroke="#CCEBFF" stroke-width="0.0699" stroke-miterlimit="10" stroke-dasharray="1.1 1.1"/>
<path d="M139.069 30.1148C135.665 25.8972 129.45 25.2313 125.232 28.7089C121.015 32.1126 120.349 38.3279 123.752 42.5454C125.01 44.0992 126.638 45.1351 128.34 45.6531C128.34 45.6531 128.34 45.6531 128.34 45.7271L127.748 51.7944C127.674 52.2383 128.118 52.6823 128.636 52.9043C127.526 53.0523 126.712 53.7922 126.564 54.7541L125.38 66.3708C125.232 67.5547 126.268 68.6645 127.748 68.8125C129.154 68.9605 130.412 68.1466 130.56 66.8887L131.744 55.272C131.818 54.3101 131.152 53.4222 130.116 53.0523C130.708 52.9783 131.226 52.6083 131.226 52.1644L131.892 46.097C133.963 46.023 135.961 45.2831 137.663 43.9513C141.88 40.4736 142.546 34.3323 139.069 30.1148Z" fill="#2BADB3"/>
<path d="M130.338 18.424C126.12 21.8277 125.454 28.043 128.932 32.2605C132.336 36.4781 138.551 37.144 142.768 33.6664C146.986 30.2627 147.652 24.0474 144.174 19.8299C140.697 15.6123 134.555 15.0204 130.338 18.424Z" stroke="white" stroke-width="0.4658"/>
<path d="M130.338 18.424C126.12 21.8277 125.454 28.043 128.932 32.2605C132.336 36.4781 138.551 37.144 142.768 33.6664C146.986 30.2627 147.652 24.0474 144.174 19.8299C140.697 15.6123 134.555 15.0204 130.338 18.424Z" stroke="#002E3F" stroke-width="0.1649"/>
<path opacity="0.61" d="M131.078 19.312C127.304 22.3456 126.712 27.895 129.82 31.6686C132.853 35.4422 138.403 35.9601 142.102 32.9265C145.876 29.8928 146.394 24.3434 143.36 20.6438C140.327 16.7962 134.777 16.2783 131.078 19.312Z" fill="#769FA5"/>
<path d="M132.853 41.5835C132.779 42.1754 133.519 42.7674 134.481 42.9154C135.443 42.9894 136.257 42.6194 136.331 41.9535L136.923 35.8121C136.997 35.2202 136.257 34.6283 135.295 34.4803C134.333 34.4063 133.519 34.7763 133.445 35.4422L132.853 41.5835Z" fill="white"/>
<path d="M130.56 56.234C130.412 57.4178 131.448 58.5277 132.927 58.6757C134.333 58.8237 135.591 58.0098 135.739 56.8259L136.923 45.2092C137.071 44.0253 136.035 42.9154 134.555 42.7674C133.149 42.6195 131.892 43.4334 131.744 44.6172L130.56 56.234Z" fill="#20669C"/>
<path d="M134.481 42.6933L135.221 35.812L134.481 42.6933Z" stroke="#FFB700" stroke-width="0.0462"/>
<path opacity="0.56" d="M131.744 57.4178C131.448 57.4178 131.596 54.3102 132.04 50.6106C132.483 46.911 133.075 43.8773 133.371 43.8773C133.667 43.8773 133.519 46.985 133.075 50.6846C132.631 54.4582 132.04 57.4178 131.744 57.4178Z" fill="white"/>
<path d="M195.303 90.8621C195.303 102.775 185.684 112.468 173.697 112.468C161.784 112.468 152.091 102.775 152.091 90.8621C152.091 78.9494 161.784 69.2565 173.697 69.2565C185.684 69.2565 195.303 78.9494 195.303 90.8621Z" stroke="#CCEBFF" stroke-width="0.1458" stroke-miterlimit="10" stroke-dasharray="0.92 0.92"/>
<path d="M187.237 90.862C187.237 98.3351 181.17 104.328 173.771 104.328C166.298 104.328 160.304 98.2612 160.304 90.862C160.304 83.3888 166.372 77.3954 173.771 77.3954C181.17 77.3215 187.237 83.3888 187.237 90.862Z" stroke="#CCEBFF" stroke-width="0.2187" stroke-miterlimit="10" stroke-dasharray="0.57 0.57"/>
<path d="M200.704 90.862C200.704 105.734 188.643 117.869 173.771 117.869C158.899 117.869 146.764 105.808 146.764 90.862C146.764 75.9897 158.825 63.855 173.771 63.855C188.643 63.855 200.704 75.9157 200.704 90.862Z" stroke="#CCEBFF" stroke-width="0.0729" stroke-miterlimit="10" stroke-dasharray="1.14 1.14"/>
<g opacity="0.6">
<path opacity="0.6" d="M162.006 121.199L173.253 121.421C173.401 121.347 173.549 121.273 173.549 121.199C173.549 121.199 173.623 121.125 173.771 121.051C173.845 121.051 173.845 120.977 173.919 120.903C173.993 120.829 173.993 120.755 174.067 120.755C174.067 120.755 174.067 120.755 174.067 120.681L174.141 120.607C174.141 120.533 174.215 120.533 174.215 120.459C174.215 120.385 174.289 120.385 174.289 120.311C174.363 120.237 174.363 120.089 174.437 120.089C174.511 120.015 174.511 119.867 174.511 119.793C174.511 119.793 174.511 119.793 174.511 119.719C174.511 119.645 174.511 119.571 174.585 119.497C174.585 119.497 174.585 119.497 174.585 119.423C174.585 119.349 174.585 119.275 174.585 119.275C174.585 119.201 174.585 119.201 174.585 119.201C174.585 119.053 174.585 118.905 174.585 118.683C174.585 118.609 174.585 118.461 174.585 118.387C174.585 118.313 174.585 118.239 174.585 118.239C174.585 117.869 174.659 117.647 174.659 117.425C174.659 117.129 174.733 116.833 174.807 116.537C174.807 116.463 174.807 116.389 174.807 116.315C174.881 116.093 174.881 115.871 174.955 115.649C175.029 115.353 175.029 115.131 175.177 114.761V114.687C175.325 113.948 175.547 113.356 175.621 112.986C175.695 112.69 175.843 112.32 175.991 111.876V111.802V111.728C176.065 111.58 176.065 111.506 176.139 111.358V111.284V111.21V111.136V111.062C176.139 111.062 176.139 111.062 176.139 110.988C176.139 110.988 176.139 110.988 176.139 110.914C176.139 110.914 176.139 110.914 176.139 110.84C176.139 110.84 176.139 110.84 176.139 110.766V110.692C176.139 110.618 176.213 110.544 176.213 110.544C176.287 110.396 176.361 110.248 176.361 110.1C176.361 110.1 176.361 110.1 176.361 110.026C176.435 109.878 176.435 109.73 176.509 109.582V109.508C176.509 109.434 176.583 109.36 176.583 109.36C176.583 109.286 176.657 109.212 176.657 109.138C176.879 108.768 176.953 108.546 177.101 108.25C177.101 108.25 177.101 108.25 177.101 108.176C177.101 108.176 177.101 108.176 177.101 108.102C177.175 107.88 177.323 107.584 177.471 107.288C177.545 107.14 177.619 106.992 177.693 106.918C177.767 106.77 177.841 106.622 177.989 106.474C177.989 106.4 178.062 106.326 178.062 106.252C178.136 106.178 178.21 106.03 178.21 105.956C178.432 105.586 178.506 105.364 178.654 105.142C178.95 104.699 179.172 104.329 179.246 104.255C179.32 104.107 179.468 103.885 179.542 103.737C179.616 103.589 179.69 103.367 179.764 103.219C179.838 103.071 179.912 102.849 179.986 102.701C180.06 102.553 180.134 102.331 180.208 102.183C180.356 101.887 180.43 101.443 180.578 101.147C180.652 100.999 180.652 100.777 180.726 100.629C180.726 100.481 180.8 100.259 180.874 100.111C180.874 99.963 180.948 99.7411 180.948 99.5191C180.948 99.2971 181.022 99.1491 181.022 99.0012C181.022 98.9272 181.022 98.8532 181.022 98.7792C181.022 98.6312 181.022 98.5572 181.022 98.4092C181.022 98.4092 181.022 98.1872 181.022 97.8173C181.022 97.6693 181.022 97.5213 181.022 97.3733C181.022 97.3733 181.022 97.3733 181.022 97.2993C181.022 97.1514 181.022 97.0034 181.022 96.8554C181.022 96.7814 181.022 96.7814 181.022 96.7074C181.022 96.6334 181.022 96.5594 181.022 96.5594C181.022 96.2635 180.948 95.8935 180.948 95.5975C180.948 95.5235 180.948 95.3755 180.874 95.2276V95.1536C180.8 94.7836 180.726 94.4876 180.726 94.4876C180.652 94.1177 180.504 93.6737 180.43 93.3778C180.43 93.2298 180.356 93.1558 180.282 93.0078C180.208 92.9338 180.208 92.7858 180.134 92.7118V92.6379C180.134 92.5639 180.134 92.5639 180.06 92.4899C179.912 92.1199 179.69 91.676 179.468 91.232C179.394 91.158 179.394 91.084 179.32 90.936C179.32 90.936 179.32 90.862 179.246 90.862C179.246 90.7881 179.246 90.7881 179.172 90.7881C178.95 90.3441 178.58 89.8262 178.284 89.3822C178.062 89.0862 177.841 88.7903 177.619 88.5683C177.545 88.4943 177.397 88.3463 177.323 88.1983C177.175 88.0504 177.027 87.9024 176.879 87.7544C176.879 87.7544 176.879 87.7544 176.879 87.6804C176.509 87.3104 175.991 86.8665 175.547 86.5705C175.177 86.2745 174.659 85.9786 174.289 85.6826C174.141 85.6086 173.919 85.4606 173.771 85.3866C173.771 85.3866 173.771 85.3866 173.697 85.3866C173.475 85.2387 173.105 85.0907 172.883 85.0167H172.809C172.513 84.8687 172.291 84.7947 171.995 84.7207C171.921 84.7207 171.847 84.6467 171.773 84.6467C171.625 84.5727 171.403 84.4987 171.255 84.4987C171.107 84.4987 170.959 84.4248 170.885 84.4248C170.811 84.4248 170.663 84.3508 170.515 84.3508C170.515 84.3508 170.515 84.3508 170.441 84.3508C170.293 84.3508 170.145 84.2768 170.071 84.2768C169.775 84.2028 169.553 84.2028 169.331 84.1288C169.183 84.1288 169.035 84.1288 168.961 84.0548C168.888 84.0548 168.814 84.0548 168.814 84.0548C168.666 84.0548 168.592 84.0548 168.444 83.9808C168.444 83.9808 168.37 83.9808 168.296 83.9808C168.296 83.9808 168.296 83.9808 168.222 83.9808C168.148 83.9808 168.074 83.9808 168 83.9808H167.926C167.778 83.9808 167.778 83.9808 167.63 83.9808C167.556 83.9808 167.482 83.9808 167.408 83.9808C167.26 83.9808 167.038 83.9808 166.89 83.9808C166.89 83.9808 166.89 83.9808 166.816 83.9808C166.742 83.9808 166.594 83.9808 166.52 83.9808C166.372 83.9808 166.224 83.9808 166.15 84.0548C166.002 84.0548 165.854 84.0548 165.854 84.0548C165.706 84.0548 165.632 84.0548 165.558 84.0548C165.41 84.0548 165.262 84.1288 165.188 84.1288C165.114 84.1288 165.04 84.1288 164.966 84.2028C164.818 84.2028 164.744 84.2768 164.744 84.2768C164.744 84.2768 164.744 84.2768 164.67 84.2768C164.448 84.3508 164.226 84.4248 164.004 84.4248C163.93 84.4248 163.782 84.4987 163.708 84.4987C163.486 84.5727 163.116 84.6467 162.894 84.7947C162.45 84.9427 161.932 85.1647 161.562 85.3866C161.34 85.4606 161.118 85.6086 160.896 85.7566C160.674 85.8306 160.526 85.9786 160.304 86.1266C160.156 86.2746 159.934 86.3485 159.786 86.4965C159.639 86.5705 159.565 86.6445 159.491 86.7185C159.343 86.8665 159.047 87.0885 158.899 87.2364C158.751 87.3844 158.603 87.5324 158.455 87.6064C158.381 87.6804 158.307 87.7544 158.233 87.8284C158.085 87.9764 157.937 88.1243 157.789 88.2723C157.641 88.4203 157.419 88.6423 157.271 88.8643C157.123 89.0862 156.901 89.3082 156.753 89.5302C156.605 89.6782 156.309 90.1221 156.013 90.7141C155.939 90.862 155.865 91.01 155.791 91.084C155.791 91.084 155.791 91.084 155.791 91.158C155.643 91.454 155.495 91.7499 155.421 91.9719C155.347 92.1939 155.199 92.5639 155.125 92.7858C155.125 92.8598 155.125 92.8598 155.125 92.8598C155.051 93.1558 154.903 93.5258 154.829 93.7477C154.829 93.8957 154.755 94.0437 154.681 94.2657C154.607 94.4137 154.607 94.6356 154.533 94.7836C154.533 94.7836 154.533 94.7836 154.533 94.8576C154.459 95.1536 154.459 95.5235 154.385 95.8195C154.385 95.8935 154.385 95.8935 154.385 95.9675V96.0415C154.385 96.1895 154.385 96.2635 154.385 96.3374C154.385 96.4114 154.385 96.4114 154.385 96.4114C154.385 96.5594 154.385 96.7814 154.385 97.0034C154.385 97.1514 154.385 97.3733 154.385 97.5953V97.6693V97.7433V97.8173C154.385 97.8173 154.385 97.8913 154.385 97.9653V98.0393C154.385 98.0393 154.385 98.0393 154.385 98.1132C154.385 98.1872 154.385 98.1133 154.385 98.1872V98.2612C154.385 98.4092 154.385 98.5572 154.385 98.7052C154.385 98.7792 154.385 98.7792 154.385 98.8532C154.385 99.0011 154.385 99.1491 154.459 99.2231C154.459 99.2231 154.459 99.2231 154.459 99.2971C154.459 99.2971 154.459 99.2971 154.459 99.3711C154.459 99.3711 154.459 99.3711 154.459 99.4451C154.459 99.4451 154.459 99.4451 154.459 99.5191C154.459 99.5931 154.459 99.6671 154.459 99.7411C154.459 99.7411 154.459 99.7411 154.459 99.8151C154.459 99.8891 154.459 99.963 154.459 100.037C154.459 100.111 154.459 100.185 154.459 100.185C154.459 100.259 154.459 100.259 154.459 100.333C154.459 100.333 154.459 100.333 154.459 100.407V100.481V100.555C154.459 100.629 154.459 100.629 154.459 100.629V100.703C154.459 100.777 154.459 100.851 154.459 100.851C154.459 100.999 154.533 101.221 154.607 101.369C154.681 101.665 154.755 101.813 154.755 101.887C154.829 102.035 154.903 102.257 154.977 102.405C155.051 102.553 155.125 102.775 155.199 102.923C155.199 102.923 155.347 103.293 155.643 103.811C155.643 103.811 155.643 103.885 155.717 103.885C155.791 104.033 155.865 104.107 155.939 104.255V104.329C156.013 104.551 156.161 104.773 156.309 105.068C156.309 105.068 156.309 105.142 156.383 105.142C156.383 105.142 156.383 105.216 156.457 105.29V105.364C156.457 105.438 156.531 105.512 156.531 105.512C156.605 105.66 156.753 105.882 156.827 106.03C156.901 106.104 156.901 106.252 156.975 106.4C156.975 106.4 156.975 106.474 157.049 106.548C157.049 106.548 157.049 106.622 157.123 106.622C157.123 106.622 157.123 106.696 157.197 106.696C157.271 106.918 157.345 107.066 157.419 107.214C157.567 107.51 157.641 107.658 157.715 108.028C157.789 108.102 157.789 108.25 157.863 108.398C157.863 108.472 157.937 108.546 157.937 108.62C157.937 108.694 158.011 108.842 158.011 108.916C158.011 108.99 158.011 108.99 158.085 109.064C158.085 109.064 158.085 109.064 158.085 109.138C158.085 109.138 158.085 109.138 158.085 109.212C158.085 109.286 158.159 109.286 158.159 109.36C158.159 109.36 158.159 109.36 158.159 109.434C158.233 109.73 158.381 110.1 158.455 110.47V110.544C158.455 110.618 158.455 110.692 158.529 110.766C158.529 110.766 158.529 110.766 158.529 110.84V110.914C158.677 111.358 158.751 111.728 158.825 112.024C158.825 112.098 158.825 112.098 158.899 112.172C158.899 112.246 158.973 112.394 158.973 112.542C159.047 112.838 159.121 113.208 159.269 113.652C159.269 113.726 159.269 113.8 159.343 113.948V114.021C159.417 114.317 159.417 114.613 159.491 114.835C159.491 114.983 159.491 115.057 159.565 115.205V115.279C159.565 115.427 159.639 115.575 159.639 115.723C159.639 116.019 159.713 116.315 159.713 116.611C159.713 116.833 159.713 117.055 159.713 117.425C159.713 117.499 159.713 117.499 159.713 117.573C159.713 117.573 159.713 117.573 159.713 117.647C159.713 117.721 159.713 117.869 159.713 117.943C159.713 118.091 159.713 118.313 159.713 118.461C159.713 118.461 159.713 118.535 159.713 118.683V118.757V118.831V118.905C159.713 118.979 159.786 119.053 159.786 119.127C159.786 119.201 159.86 119.275 159.86 119.349C159.86 119.423 159.934 119.497 159.934 119.571C159.934 119.645 160.008 119.645 160.008 119.719V119.793V119.867L160.082 119.941C160.082 119.941 160.156 120.015 160.156 120.089L160.23 120.163C160.23 120.163 160.23 120.163 160.304 120.237C160.378 120.311 160.378 120.311 160.452 120.385C160.526 120.459 160.674 120.533 160.822 120.681C161.932 121.125 161.932 121.125 162.006 121.199Z" fill="#2BADB3"/>
<path opacity="0.75" d="M162.968 124.158L172.365 124.306C173.253 124.306 173.919 123.714 173.919 123.048C173.919 122.308 173.253 121.717 172.365 121.717L162.968 121.569C162.08 121.569 161.414 122.161 161.414 122.826C161.414 123.492 162.154 124.084 162.968 124.158Z" fill="#2771A3"/>
<path opacity="0.75" d="M173.919 125.786C173.919 125.046 173.253 124.454 172.439 124.454L163.042 124.306C162.154 124.306 161.488 124.898 161.488 125.564C161.488 126.304 162.154 126.896 163.042 126.896L172.439 127.044C173.179 127.044 173.919 126.452 173.919 125.786Z" fill="#2771A3"/>
<path opacity="0.75" d="M165.928 129.116C166.446 129.634 167.038 129.93 167.63 129.93C168.296 129.93 168.887 129.634 169.479 129.116C170.589 128.82 171.477 128.154 172.291 127.34L163.042 127.192C163.782 128.08 164.744 128.82 165.928 129.116Z" fill="#2771A3"/>
</g>
<path d="M187.533 89.9741C187.533 89.9001 187.533 89.9001 187.533 89.9741C187.533 89.9001 187.533 89.9001 187.533 89.8262C187.533 89.6782 187.533 89.5302 187.533 89.3822C187.533 89.3082 187.533 89.3082 187.533 89.2342C187.533 89.1602 187.533 89.0862 187.533 89.0862C187.533 88.7903 187.459 88.4203 187.459 88.1243C187.459 88.0503 187.459 87.9764 187.385 87.7544V87.6804C187.311 87.3104 187.237 87.0885 187.237 87.0885C187.163 86.7185 187.015 86.2745 186.941 85.9786C186.941 85.8306 186.868 85.7566 186.794 85.6086C186.794 85.5346 186.72 85.3866 186.646 85.3126V85.2387C186.646 85.1647 186.646 85.1647 186.572 85.0907C186.424 84.7207 186.202 84.2768 185.98 83.8328C185.906 83.7588 185.906 83.6848 185.832 83.6108C185.832 83.6108 185.832 83.5368 185.758 83.5368C185.758 83.5368 185.758 83.4629 185.684 83.4629C185.462 83.0189 185.092 82.501 184.796 82.057C184.648 81.761 184.352 81.4651 184.13 81.2431C184.056 81.1691 183.908 81.0211 183.834 80.8731C183.686 80.7252 183.538 80.5772 183.39 80.4292C183.02 80.0592 182.502 79.6153 182.058 79.3193C181.688 79.0233 181.17 78.6534 180.8 78.4314C180.652 78.3574 180.43 78.2094 180.282 78.1354C180.282 78.1354 180.282 78.1354 180.208 78.1354C180.208 78.1354 180.208 78.1354 180.134 78.1354C179.912 77.9875 179.616 77.8395 179.32 77.7655H179.246C178.95 77.6175 178.654 77.5435 178.432 77.4695C178.358 77.4695 178.284 77.3955 178.284 77.3955C178.062 77.3215 177.914 77.3215 177.767 77.2475C177.619 77.1735 177.471 77.1735 177.397 77.1735C177.323 77.1735 177.175 77.0996 177.027 77.0996C176.879 77.0996 176.731 77.0256 176.657 77.0256C176.361 76.9516 176.139 76.9516 175.917 76.8776C175.769 76.8776 175.621 76.8776 175.547 76.8036C175.473 76.8036 175.399 76.8036 175.399 76.8036C175.251 76.8036 175.177 76.8036 175.029 76.8036C175.029 76.8036 174.955 76.8036 174.881 76.8036H174.807C174.733 76.8036 174.659 76.8036 174.585 76.8036H174.511C174.363 76.8036 174.363 76.8036 174.215 76.8036C174.141 76.8036 174.067 76.8036 173.993 76.8036C173.845 76.8036 173.623 76.8036 173.475 76.8036C173.475 76.8036 173.475 76.8036 173.401 76.8036C173.327 76.8036 173.179 76.8036 173.105 76.8036C172.957 76.8036 172.809 76.8036 172.735 76.8036C172.587 76.8036 172.439 76.8036 172.439 76.8036C172.291 76.8036 172.143 76.8036 172.143 76.8776C171.995 76.8776 171.847 76.9516 171.773 76.9516C171.699 76.9516 171.625 76.9516 171.551 77.0256C171.403 77.0256 171.255 77.0996 171.255 77.0996C171.255 77.0996 171.255 77.0996 171.181 77.0996C170.959 77.1735 170.737 77.1735 170.515 77.2475C170.515 77.2475 170.515 77.2475 170.441 77.2475C170.367 77.2475 170.219 77.3215 170.145 77.3215C169.923 77.3955 169.553 77.4695 169.331 77.6175C168.887 77.7655 168.37 77.9875 168 78.2094C167.778 78.2834 167.556 78.5054 167.334 78.5794C167.112 78.6534 166.964 78.8014 166.742 78.9494C166.594 79.0233 166.372 79.1713 166.224 79.3193C166.076 79.3933 166.002 79.4673 165.928 79.5413C165.706 79.6893 165.484 79.8373 165.336 80.0592C165.188 80.2072 165.04 80.3552 164.892 80.4292C164.818 80.5032 164.744 80.5772 164.67 80.6512C164.522 80.7991 164.374 80.9471 164.226 81.0951C164.078 81.2431 163.856 81.4651 163.708 81.687C163.56 81.835 163.338 82.131 163.19 82.353C163.19 82.353 163.19 82.353 163.19 82.427C163.042 82.575 162.746 83.0189 162.45 83.6108C162.376 83.7588 162.302 83.9068 162.228 83.9808C162.228 83.9808 162.228 83.9808 162.228 84.0548C162.08 84.3508 161.932 84.6467 161.784 84.8687C161.71 85.0907 161.562 85.4606 161.414 85.6826C161.414 85.7566 161.414 85.7566 161.414 85.7566C161.34 86.0526 161.192 86.4225 161.118 86.6445C161.118 86.7925 161.044 86.9405 160.97 87.1624C160.97 87.1624 160.97 87.1624 160.97 87.2364C160.97 87.3844 160.896 87.6064 160.822 87.7544C160.822 87.7544 160.822 87.7544 160.822 87.8284C160.748 88.1243 160.748 88.4943 160.674 88.7903C160.674 88.8643 160.674 88.8643 160.674 88.9383V89.0122C160.674 89.1602 160.674 89.2342 160.674 89.3082C160.674 89.3082 160.674 89.3082 160.674 89.3822V89.4562C160.674 89.6042 160.674 89.8262 160.674 90.0481C160.674 90.1961 160.674 90.4181 160.674 90.6401V90.7141V90.788C160.674 90.788 160.674 90.862 160.674 90.936V91.01V91.084C160.674 91.084 160.674 91.084 160.674 91.158C160.674 91.158 160.674 91.158 160.674 91.232V91.306C160.674 91.454 160.674 91.602 160.748 91.7499C160.748 91.8239 160.748 91.8239 160.748 91.8979C160.748 92.0459 160.748 92.1939 160.822 92.2679V92.3419C160.822 92.3419 160.822 92.3419 160.822 92.4159C160.822 92.4159 160.822 92.4159 160.822 92.4899V92.5639C160.822 92.6378 160.822 92.7118 160.822 92.7858C160.822 92.7858 160.822 92.7858 160.822 92.8598C160.822 92.9338 160.822 93.0078 160.822 93.0078C160.822 93.0818 160.822 93.0818 160.896 93.1558V93.2298C160.896 93.2298 160.896 93.2298 160.896 93.3038C160.896 93.3778 160.896 93.3778 160.896 93.3778C160.896 93.3778 160.896 93.3778 160.896 93.4518V93.5257C160.896 93.5997 160.896 93.5997 160.896 93.5997C160.896 93.6737 160.896 93.7477 160.97 93.7477C161.044 93.8957 161.044 94.1177 161.118 94.2657C161.192 94.5616 161.266 94.7096 161.266 94.7836C161.34 94.9316 161.414 95.1536 161.488 95.3015C161.562 95.4495 161.636 95.6715 161.71 95.8195C161.71 95.8195 161.858 96.1894 162.154 96.7074C162.154 96.7814 162.154 96.7814 162.228 96.7814C162.302 96.9294 162.376 97.0034 162.45 97.1513C162.45 97.1513 162.45 97.1513 162.45 97.2253C162.524 97.4473 162.672 97.6693 162.82 97.9653C162.82 97.9653 162.82 98.0392 162.894 98.0392C162.894 98.1132 162.894 98.1132 162.968 98.1872V98.2612C162.968 98.3352 163.042 98.4092 163.042 98.4092C163.116 98.6312 163.264 98.7792 163.338 98.9271C163.412 99.0011 163.412 99.1491 163.486 99.2971C163.486 99.2971 163.486 99.3711 163.56 99.4451C163.56 99.4451 163.56 99.5191 163.634 99.5191C163.634 99.5191 163.634 99.5931 163.708 99.5931C163.782 99.7411 163.856 99.963 163.93 100.111C164.078 100.407 164.152 100.555 164.226 100.925C164.3 100.999 164.3 101.147 164.374 101.295C164.374 101.369 164.448 101.443 164.448 101.517C164.448 101.591 164.522 101.739 164.522 101.813C164.522 101.887 164.522 101.887 164.596 101.961C164.596 101.961 164.596 101.961 164.596 102.035V102.109C164.596 102.183 164.596 102.183 164.67 102.257V102.331C164.744 102.627 164.892 102.997 165.04 103.367V103.441C165.04 103.515 165.04 103.589 165.114 103.589C165.114 103.589 165.114 103.589 165.114 103.663V103.737C165.262 104.181 165.336 104.551 165.41 104.92C165.41 104.994 165.41 105.068 165.484 105.068C165.484 105.142 165.558 105.29 165.558 105.364C165.632 105.66 165.706 106.03 165.854 106.474C165.854 106.548 165.854 106.622 165.928 106.77C165.928 106.77 165.928 106.77 165.928 106.844C166.002 107.14 166.076 107.436 166.076 107.732C166.076 107.88 166.076 107.954 166.15 108.102V108.176C166.15 108.324 166.15 108.472 166.224 108.62C166.224 108.842 166.298 109.212 166.298 109.508C166.298 109.73 166.298 109.952 166.298 110.322C166.298 110.396 166.298 110.47 166.298 110.47C166.298 110.544 166.298 110.692 166.298 110.766C166.298 110.988 166.298 111.136 166.298 111.284C166.298 111.284 166.298 111.358 166.298 111.506C166.298 111.506 166.298 111.506 166.298 111.58V111.654V111.728C166.298 111.802 166.298 111.876 166.372 111.95C166.372 111.95 166.372 111.95 166.372 112.024C166.372 112.098 166.446 112.172 166.446 112.32C166.446 112.394 166.52 112.468 166.52 112.542C166.52 112.616 166.594 112.616 166.594 112.69C166.594 112.69 166.594 112.69 166.594 112.764C166.594 112.764 166.594 112.764 166.594 112.838L166.668 112.912C166.668 112.912 166.668 112.912 166.668 112.986C166.668 113.06 166.742 113.06 166.742 113.134L166.816 113.208C166.816 113.208 166.816 113.208 166.89 113.282C166.964 113.356 166.964 113.356 167.038 113.43C167.186 113.504 167.26 113.578 167.408 113.726C167.408 113.726 167.482 113.726 167.482 113.8L178.728 114.021C178.876 113.947 179.024 113.874 179.098 113.8C179.098 113.8 179.172 113.726 179.32 113.652C179.394 113.578 179.394 113.578 179.468 113.504C179.542 113.43 179.542 113.43 179.616 113.356C179.616 113.356 179.616 113.356 179.616 113.282L179.69 113.208L179.764 113.134C179.764 113.06 179.838 113.06 179.838 112.986C179.912 112.912 179.912 112.764 179.986 112.764C180.06 112.69 180.06 112.542 180.06 112.468C180.06 112.468 180.06 112.468 180.06 112.394C180.06 112.32 180.06 112.246 180.134 112.172C180.134 112.098 180.134 112.024 180.134 112.024C180.134 111.95 180.134 111.95 180.134 111.95C180.134 111.802 180.134 111.58 180.134 111.432C180.134 111.358 180.134 111.21 180.134 111.136C180.134 111.136 180.134 111.136 180.134 111.062C180.134 110.988 180.134 110.988 180.134 110.914C180.134 110.544 180.208 110.322 180.208 110.1C180.208 109.804 180.282 109.508 180.282 109.212C180.282 109.138 180.282 109.064 180.356 108.99C180.356 108.768 180.43 108.546 180.43 108.398C180.504 108.176 180.504 107.88 180.652 107.51C180.652 107.51 180.652 107.51 180.652 107.436C180.8 106.696 181.022 106.104 181.096 105.734C181.17 105.438 181.318 105.068 181.466 104.625V104.551V104.477C181.54 104.329 181.54 104.181 181.614 104.107V104.033C181.614 104.033 181.614 103.959 181.688 103.959V103.885C181.688 103.885 181.688 103.885 181.688 103.811V103.737V103.663C181.688 103.663 181.688 103.663 181.688 103.589C181.688 103.589 181.688 103.589 181.688 103.515C181.688 103.515 181.688 103.515 181.688 103.441V103.367C181.688 103.293 181.762 103.219 181.762 103.145C181.836 102.997 181.91 102.849 181.91 102.701V102.627C181.984 102.479 182.058 102.331 182.058 102.257V102.183C182.058 102.109 182.132 102.109 182.132 102.035C182.132 101.961 182.206 101.887 182.206 101.813C182.354 101.443 182.502 101.221 182.65 100.925C182.65 100.925 182.65 100.925 182.65 100.851C182.724 100.629 182.872 100.333 183.02 100.037C183.094 99.889 183.168 99.7411 183.242 99.6671C183.316 99.5191 183.39 99.3711 183.538 99.2231C183.538 99.1491 183.612 99.0751 183.612 99.0011C183.686 98.9271 183.76 98.7792 183.76 98.7052C183.982 98.3352 184.056 98.1132 184.204 97.8913C184.5 97.4473 184.722 97.0774 184.796 97.0034C184.87 96.8554 185.018 96.6334 185.092 96.4854C185.166 96.3374 185.314 96.1155 185.388 95.9675C185.462 95.8195 185.536 95.5975 185.61 95.4495C185.684 95.3015 185.758 95.0796 185.832 94.9316C185.98 94.6356 186.054 94.1917 186.202 93.8957C186.276 93.7477 186.35 93.5257 186.35 93.3778C186.35 93.2298 186.424 93.0078 186.498 92.7858C186.498 92.6378 186.572 92.4159 186.572 92.1939C186.572 91.9719 186.646 91.8239 186.646 91.676C186.646 91.602 186.646 91.528 186.646 91.454C186.646 91.306 186.646 91.232 186.646 91.158C186.646 91.158 186.646 90.936 186.646 90.6401C187.533 90.2701 187.533 90.1221 187.533 89.9741Z" fill="#F9CB3B"/>
<path d="M180.282 112.542C180.282 112.542 180.282 112.468 180.282 112.542C180.282 112.468 180.282 112.468 180.282 112.542C180.356 112.394 180.356 112.32 180.356 112.246C180.356 112.172 180.356 112.098 180.356 112.098C180.356 112.024 180.356 112.024 180.356 112.024C180.356 111.876 180.356 111.654 180.356 111.506C180.356 111.432 180.356 111.284 180.356 111.21C180.356 111.21 180.356 111.21 180.356 111.136C180.356 111.062 180.356 111.062 180.356 110.988C180.356 110.618 180.43 110.396 180.43 110.174C180.43 109.878 180.504 109.582 180.504 109.286C180.504 109.212 180.504 109.138 180.578 109.064C180.578 108.842 180.652 108.62 180.652 108.472C180.726 108.25 180.726 107.954 180.874 107.584C180.874 107.584 180.874 107.584 180.874 107.51C181.022 106.77 181.244 106.178 181.318 105.808C181.392 105.512 181.54 105.143 181.688 104.699V104.625V104.551C181.762 104.403 181.762 104.255 181.836 104.181V104.107C181.836 104.107 181.836 104.033 181.91 104.033V103.959C181.91 103.959 181.91 103.959 181.91 103.885V103.811V103.737C181.91 103.737 181.91 103.737 181.91 103.663C181.91 103.663 181.91 103.663 181.91 103.589C181.91 103.589 181.91 103.589 181.91 103.515V103.441C181.91 103.367 181.984 103.293 181.984 103.219C182.058 103.071 182.132 102.923 182.132 102.775V102.701C182.206 102.553 182.28 102.405 182.28 102.331V102.257C182.28 102.183 182.354 102.183 182.354 102.109C182.354 102.035 182.428 101.961 182.428 101.887C182.576 101.517 182.724 101.295 182.872 100.999C182.872 100.999 182.872 100.999 182.872 100.925C182.946 100.703 183.094 100.407 183.242 100.111C183.316 99.9631 183.39 99.8151 183.464 99.7411C183.538 99.5931 183.612 99.4452 183.76 99.2972C183.76 99.2232 183.834 99.1492 183.834 99.0752C183.908 99.0012 183.982 98.8532 183.982 98.7792C184.204 98.4093 184.278 98.1873 184.426 97.9653C184.722 97.5214 184.944 97.1514 185.018 97.0774C185.092 96.9294 185.24 96.7075 185.314 96.5595C185.388 96.4115 185.536 96.1895 185.61 96.0415C185.684 95.8935 185.758 95.6716 185.832 95.5236C185.906 95.3756 185.98 95.1536 186.054 95.0056C186.202 94.7097 186.276 94.2657 186.424 93.9698C186.498 93.8218 186.572 93.5998 186.572 93.4518C186.572 93.3038 186.646 93.0819 186.72 92.8599C186.72 92.7119 186.794 92.4899 186.794 92.2679C186.794 92.046 186.868 91.898 186.868 91.75C186.868 91.676 186.868 91.602 186.868 91.528C186.868 91.38 186.868 91.306 186.868 91.2321C186.868 91.2321 186.868 91.0101 186.868 90.7141C186.868 90.5661 186.868 90.4181 186.868 90.2702C186.868 90.2702 186.868 90.2702 186.868 90.1962C186.868 90.1962 186.868 90.1962 186.868 90.1222C186.868 89.9742 186.868 89.8262 186.868 89.6782C186.868 89.6042 186.868 89.6042 186.868 89.5302C186.868 89.4563 186.868 89.3823 186.868 89.3823C186.868 89.0863 186.794 88.7163 186.794 88.4204C186.794 88.3464 186.794 88.2724 186.72 88.0504V87.9764C186.646 87.6065 186.572 87.3845 186.572 87.3845C186.498 87.0145 186.35 86.5706 186.276 86.2746C186.276 86.1266 186.202 86.0526 186.128 85.9046C186.128 85.8306 186.054 85.6827 185.98 85.6087V85.5347C185.98 85.4607 185.98 85.4607 185.906 85.3867C185.758 85.0167 185.536 84.5728 185.314 84.1288C185.24 84.0548 185.24 83.9809 185.166 83.9069C185.166 83.9069 185.166 83.8329 185.092 83.8329C185.092 83.8329 185.092 83.7589 185.018 83.7589C184.796 83.3149 184.426 82.797 184.13 82.353C183.982 82.0571 183.686 81.7611 183.464 81.5391C183.39 81.4651 183.242 81.3171 183.168 81.1692C183.02 81.0212 182.872 80.8732 182.724 80.7252C182.354 80.3552 181.836 79.9113 181.392 79.6153C181.022 79.3194 180.504 78.9494 180.134 78.7274C179.986 78.6534 179.764 78.5055 179.616 78.4315C179.616 78.4315 179.616 78.4315 179.542 78.4315C179.542 78.4315 179.542 78.4315 179.468 78.4315C179.246 78.2835 178.95 78.1355 178.654 78.0615H178.58C178.284 77.9135 177.988 77.8395 177.767 77.7655C177.693 77.7655 177.619 77.6915 177.619 77.6915C177.397 77.6176 177.249 77.6175 177.101 77.5436C176.953 77.4696 176.805 77.4696 176.731 77.4696C176.657 77.4696 176.509 77.3956 176.361 77.3956C176.213 77.3956 176.065 77.3216 175.991 77.3216C175.695 77.2476 175.473 77.2476 175.251 77.1736C175.103 77.1736 174.955 77.1736 174.881 77.0996C174.807 77.0996 174.733 77.0996 174.733 77.0996C174.585 77.0996 174.511 77.0996 174.363 77.0996C174.363 77.0996 174.289 77.0996 174.215 77.0996H174.141L172.661 114.909L178.728 114.983C178.876 114.909 179.024 114.835 179.098 114.761C179.098 114.761 179.172 114.687 179.32 114.613C179.394 114.539 179.394 114.539 179.468 114.466C179.542 114.392 179.542 114.392 179.616 114.318C179.616 114.318 179.616 114.318 179.616 114.244L179.69 114.17L179.764 114.096C179.764 114.022 179.838 114.022 179.838 113.948C179.912 113.874 179.912 113.726 179.986 113.726C180.282 112.69 180.282 112.616 180.282 112.542Z" fill="#E3B836"/>
<path d="M178.062 114.539L168.666 114.391C167.778 114.391 167.112 114.983 167.112 115.649C167.112 116.389 167.778 116.981 168.666 116.981L178.062 117.129C178.95 117.129 179.616 116.537 179.616 115.871C179.616 115.131 178.95 114.613 178.062 114.539Z" fill="#0E3757" stroke="white" stroke-width="0.0276"/>
<path d="M177.988 117.277L168.592 117.129C167.704 117.129 167.038 117.721 167.038 118.387C167.038 119.127 167.704 119.719 168.592 119.719L177.988 119.867C178.876 119.867 179.542 119.349 179.542 118.609C179.542 117.943 178.876 117.351 177.988 117.277Z" fill="#0E3757" stroke="white" stroke-width="0.0276"/>
<path d="M171.551 122.013C172.069 122.531 172.661 122.827 173.253 122.827C173.919 122.827 174.511 122.531 175.103 122.013C176.213 121.717 177.175 121.051 177.915 120.237L168.666 120.089C169.405 120.977 170.441 121.643 171.551 122.013Z" fill="#0E3757" stroke="white" stroke-width="0.0276"/>
<g opacity="0.8">
<path opacity="0.8" d="M176.065 106.696L176.805 95.8936C176.879 94.5617 177.841 93.4518 179.024 93.5998L182.132 93.8218L176.065 106.696Z" stroke="white" stroke-width="0.0202" stroke-miterlimit="10"/>
<g opacity="0.8">
<path opacity="0.75" d="M184.574 94.1178C184.5 95.0057 183.686 95.7456 182.798 95.6716C181.91 95.5976 181.17 94.7837 181.244 93.8218C181.318 92.9339 182.132 92.194 183.02 92.268C183.908 92.416 184.648 93.2299 184.574 94.1178Z" fill="white"/>
<path opacity="0.75" d="M185.092 94.1917C185.018 95.4495 183.908 96.3374 182.724 96.2635C181.466 96.1895 180.578 95.0796 180.652 93.8957C180.726 92.6379 181.836 91.75 183.02 91.8239C184.278 91.8979 185.24 92.9338 185.092 94.1917Z" stroke="white" stroke-width="0.0101" stroke-miterlimit="10"/>
</g>
<g opacity="0.8">
<path opacity="0.75" d="M177.619 106.992C177.545 107.732 176.953 108.324 176.213 108.25C175.473 108.176 174.881 107.584 174.955 106.844C175.029 106.104 175.621 105.512 176.435 105.586C177.101 105.586 177.693 106.252 177.619 106.992Z" fill="white"/>
<path opacity="0.75" d="M178.063 107.066C177.989 108.028 177.175 108.768 176.139 108.694C175.177 108.62 174.437 107.806 174.511 106.77C174.585 105.808 175.399 105.069 176.435 105.142C177.397 105.216 178.136 106.03 178.063 107.066Z" stroke="white" stroke-width="0.008027" stroke-miterlimit="10"/>
</g>
</g>
<g opacity="0.8">
<path opacity="0.8" d="M170.737 106.77L171.477 89.0124C171.477 87.6805 170.663 86.4967 169.553 86.4967L166.446 86.4227L170.737 106.77Z" stroke="white" stroke-width="0.0411" stroke-miterlimit="10"/>
<g opacity="0.8">
<path opacity="0.75" d="M163.93 86.4967C163.93 87.4586 164.596 88.1985 165.558 88.1985C166.52 88.1985 167.26 87.4586 167.26 86.5707C167.26 85.6088 166.52 84.8689 165.632 84.8689C164.744 84.8689 164.004 85.6088 163.93 86.4967Z" fill="white"/>
<path opacity="0.75" d="M163.412 86.4966C163.412 87.7545 164.374 88.7904 165.558 88.7904C166.816 88.7904 167.778 87.8285 167.852 86.6446C167.852 85.3867 166.89 84.3508 165.706 84.3508C164.448 84.2768 163.486 85.2387 163.412 86.4966Z" stroke="white" stroke-width="0.0101" stroke-miterlimit="10"/>
</g>
<g opacity="0.8">
<path opacity="0.75" d="M169.11 106.918C169.11 107.658 169.701 108.25 170.441 108.324C171.181 108.324 171.773 107.732 171.847 106.992C171.847 106.252 171.255 105.661 170.515 105.587C169.775 105.587 169.184 106.178 169.11 106.918Z" fill="white"/>
<path opacity="0.75" d="M168.74 106.918C168.74 107.88 169.479 108.694 170.441 108.768C171.403 108.768 172.217 108.028 172.291 107.066C172.291 106.104 171.551 105.291 170.589 105.217C169.553 105.143 168.74 105.882 168.74 106.918Z" stroke="white" stroke-width="0.008027" stroke-miterlimit="10"/>
</g>
</g>
<path d="M173.771 177.137C173.771 189.049 164.078 198.668 152.165 198.668C140.253 198.668 130.56 189.049 130.56 177.137C130.56 165.224 140.253 155.531 152.165 155.531C164.078 155.605 173.771 165.224 173.771 177.137Z" stroke="#CCEBFF" stroke-width="0.1458" stroke-miterlimit="10" stroke-dasharray="0.92 0.92"/>
<path d="M165.632 177.136C165.632 184.61 159.565 190.603 152.165 190.603C144.766 190.603 138.699 184.536 138.699 177.136C138.699 169.663 144.766 163.67 152.165 163.67C159.639 163.67 165.632 169.737 165.632 177.136Z" stroke="#CCEBFF" stroke-width="0.2187" stroke-miterlimit="10" stroke-dasharray="0.57 0.57"/>
<path d="M179.172 177.137C179.172 192.009 167.112 204.144 152.165 204.144C137.293 204.144 125.232 192.083 125.232 177.137C125.232 162.264 137.293 150.13 152.165 150.13C167.038 150.204 179.172 162.264 179.172 177.137Z" stroke="#CCEBFF" stroke-width="0.0729" stroke-miterlimit="10" stroke-dasharray="1.14 1.14"/>
<path d="M157.271 168.628H135.665C130.782 168.628 126.786 172.253 126.786 176.693V182.464V189.419C126.786 193.859 130.782 197.484 135.665 197.484H157.271C162.154 197.484 166.15 193.859 166.15 189.419V182.464V176.693C166.076 172.253 162.154 168.628 157.271 168.628Z" fill="#2BADB3"/>
<path d="M171.477 171.365C171.477 166.926 167.482 163.3 162.598 163.3H140.993C136.109 163.3 132.114 166.926 132.114 171.365V177.063H171.477V171.365V171.365Z" fill="#2D8ED9"/>
<path d="M132.188 177.062V184.092C132.188 188.531 136.183 192.157 141.067 192.157H162.672C167.556 192.157 171.551 188.531 171.551 184.092V177.062H132.188Z" fill="#20669C"/>
<path d="M148.762 184.092L148.614 177.433L148.392 170.773L154.237 173.881L160.156 177.063L154.459 180.54L148.762 184.092Z" fill="#E6F5FF"/>
<path d="M96.1535 149.538L86.7566 123.048L78.0255 98.4092C77.0636 95.7455 74.8439 94.1177 73.0681 94.7096L67.0747 96.9294C65.2989 97.5953 64.633 100.259 65.5209 102.849L65.6689 103.293L34.2963 128.894L31.2627 129.93C30.2268 127.932 28.8209 126.822 26.3052 127.784L8.76915 133.999C5.73549 135.109 3.88569 138.069 4.25565 141.029L4.10767 141.103C3.51573 141.324 2.99779 141.62 2.47985 142.064C2.33186 142.212 2.18388 142.36 2.03589 142.508L1.51795 143.026L1.59194 143.174C0.926017 144.284 0.778033 145.616 1.22198 146.874L5.29154 158.343C5.73549 159.6 6.69738 160.488 7.88125 160.932V161.006H8.17722C9.06512 161.302 10.101 161.302 11.0629 160.932L11.3589 161.672C12.0248 163.596 15.4284 164.188 18.98 162.93L19.498 162.782C19.498 162.856 19.572 162.93 19.572 163.078L26.4532 182.464C27.8591 186.386 30.2268 189.049 31.7806 188.531L39.5498 185.794C40.4377 185.498 39.1058 182.316 37.478 178.986C35.7022 175.287 34.0744 169.145 33.7044 165.298C33.4824 162.93 33.1125 160.192 32.5945 158.195L36.4421 156.863C39.6238 155.753 39.7717 154.273 39.2538 152.571L42.1395 151.535H82.687L83.6489 154.199C84.0929 155.531 85.7947 156.197 87.4225 155.753C87.5705 155.753 87.6445 155.679 87.7925 155.679L93.7858 153.533C93.8598 153.533 94.0078 153.459 94.0818 153.385C95.7836 152.423 96.6715 150.943 96.1535 149.538Z" fill="#2BADB3"/>
<path d="M98.8912 139.845L89.4943 113.429L80.6893 88.7902C79.7274 86.1265 77.5076 84.4986 75.7318 85.1646L69.8124 87.2363C68.0366 87.9023 67.3707 90.566 68.3326 93.1557L68.4806 93.5996L37.034 119.201L34.0744 120.237C33.0385 118.313 31.6326 117.203 29.1169 118.091L11.5069 124.306C8.3992 125.416 6.6234 128.376 6.91936 131.335H6.77138C6.17944 131.557 5.58751 131.927 5.14356 132.297C4.99557 132.445 4.84759 132.593 4.69961 132.741L4.18166 133.259L4.25566 133.407C3.58973 134.517 3.44174 135.849 3.8857 137.107L7.95525 148.576C8.3992 149.833 9.36109 150.721 10.545 151.165V151.239H10.8409C11.7288 151.535 12.7647 151.461 13.7266 151.165L14.0226 151.905C14.6885 153.829 18.0921 154.347 21.6437 153.163L22.1617 153.015C22.1617 153.089 22.2357 153.163 22.2357 153.237L29.1169 172.623C30.5228 176.545 32.8905 179.208 34.4443 178.69L42.2135 175.953C43.1014 175.657 41.7695 172.475 40.1417 169.145C38.3659 165.446 36.7381 159.304 36.3681 155.457C36.1461 153.089 35.7762 150.351 35.2582 148.354L39.1058 147.022C42.2875 145.912 42.4355 144.432 41.9175 142.73L44.8032 141.694H85.3507L86.3126 144.358C86.7566 145.69 88.4584 146.356 90.0862 145.912C90.2342 145.912 90.3082 145.838 90.4562 145.838L96.4495 143.692C96.5975 143.618 96.6715 143.618 96.7455 143.544C98.4473 142.804 99.3352 141.25 98.8912 139.845Z" stroke="#C2E5E1" stroke-width="0.1745" stroke-miterlimit="10"/>
<path d="M89.9382 135.183C90.9001 137.847 89.4943 140.733 86.8306 141.694H44.9512L34.5183 145.394C31.8546 146.356 28.9689 144.95 28.0071 142.286L23.4196 129.486C22.4577 126.822 23.8635 123.936 26.5272 122.974L36.9601 119.275L69.4425 92.8598C72.1062 91.8979 74.9919 93.3037 75.9538 95.9674L89.9382 135.183Z" fill="#C3AE3E"/>
<path d="M78.0255 101.517C77.0636 98.8531 74.178 97.4473 71.5143 98.4092L39.0318 124.824L28.599 128.524C25.9353 129.486 24.5294 132.371 25.4913 135.035L26.8972 139.031L84.1669 118.683L78.0255 101.517Z" fill="#F9DD4F"/>
<path d="M27.1191 141.842C27.933 144.136 28.377 146.134 25.9352 146.948L13.8746 151.239C11.4328 152.127 8.84313 150.943 8.02922 148.65L3.95967 137.107C3.14576 134.813 4.40362 132.223 6.84535 131.336L18.832 127.044C21.2738 126.156 22.1617 127.932 22.9756 130.3L27.1191 141.842Z" fill="#FFB700"/>
<path d="M34.2963 145.69C35.4802 147.022 36.0721 151.609 36.5161 155.383C36.8861 159.23 38.5879 165.372 40.2897 169.071C41.8435 172.401 43.2494 175.583 42.3615 175.879L34.5923 178.616C32.9645 179.282 30.5967 176.619 29.1909 172.697L22.3097 153.311C20.9038 149.39 22.0877 148.502 23.6415 147.984L31.4107 145.172C32.4465 144.876 33.4084 144.728 34.2963 145.69Z" fill="#B8A749"/>
<path d="M32.1506 157.011C31.3367 157.307 30.7448 157.529 30.8187 157.751L31.1887 158.786C31.2627 159.008 31.9286 158.934 32.7425 158.638L36.6641 157.233L36.0722 155.531L32.1506 157.011Z" fill="#E6D15B"/>
<path d="M35.4062 168.479C34.5923 168.775 34.0004 168.997 34.0743 169.219L34.4443 170.255C34.5183 170.477 35.1842 170.403 35.9981 170.181L39.9197 168.775L39.3278 167.074L35.4062 168.479Z" fill="#E6D15B"/>
<path d="M32.5206 163.152C31.5587 163.522 30.7448 163.818 30.8188 164.04L31.1887 165.076C31.2627 165.298 32.1506 165.15 33.1125 164.854L38.07 163.078L37.478 161.376L32.5206 163.152Z" fill="#E6D15B"/>
<path d="M41.0296 139.549C42.2135 142.878 42.8054 145.764 39.3278 147.022L21.7177 153.237C18.1661 154.495 14.3925 152.793 13.1347 149.39L7.21532 132.667C6.03145 129.338 7.88125 125.564 11.4329 124.306L28.9689 118.091C32.5205 116.833 33.8524 119.423 35.0363 122.826L41.0296 139.549Z" fill="#3C79A1"/>
<path d="M41.9175 142.138C42.5834 144.062 42.8054 145.764 39.2538 147.022L21.7177 153.237C18.1661 154.495 14.7625 153.903 14.0966 151.979L10.693 142.434C10.027 140.51 12.3208 137.921 15.7984 136.663L33.3345 130.448C36.8861 129.19 37.774 130.596 38.4399 132.593L41.9175 142.138Z" fill="#29546F"/>
<path d="M98.0773 137.699C99.0392 140.363 98.3733 143.026 96.5975 143.618L90.6041 145.764C88.8283 146.43 86.6086 144.728 85.6467 142.064L68.2586 93.2297C67.2967 90.566 67.9626 87.9023 69.7384 87.3104L75.7318 85.1646C77.5076 84.4987 79.7274 86.2005 80.6892 88.7902L98.0773 137.699Z" fill="#3C79A1"/>
<path d="M98.8912 139.845C99.4092 141.324 98.3733 142.952 96.5975 143.618L90.6042 145.764C88.8283 146.43 86.9786 145.764 86.4606 144.284L77.0636 117.795C76.5457 116.389 77.5816 114.687 79.3574 114.021L85.3507 111.876C87.1265 111.21 88.9763 111.876 89.4943 113.355L98.8912 139.845Z" fill="#29546F"/>
<path d="M11.9508 151.461L10.693 151.313L4.25566 133.333L5.21756 132.371L11.9508 151.461Z" fill="#D45454"/>
<path d="M84.6108 68.3684H79.2094V73.7698H84.6108V68.3684Z" fill="#303030" stroke="#303030" stroke-width="0.0729"/>
<path d="M139.883 72.364H131.818V80.4291H139.883V72.364Z" stroke="white" stroke-width="0.0729"/>
<path d="M199.224 137.107H191.159V145.172H199.224V137.107Z" stroke="white" stroke-width="0.0729"/>
<path d="M188.421 34.6281H180.356V42.6933H188.421V34.6281Z" fill="white"/>
<path d="M111.544 57.5657H106.142V62.9671H111.544V57.5657Z" fill="white"/>
<path d="M138.551 106.104H133.149V111.506H138.551V106.104Z" fill="#303030" stroke="#303030" stroke-width="0.0729"/>
<path d="M114.725 155.457H106.66V163.522H114.725V155.457Z" fill="#303030" stroke="#303030" stroke-width="0.0729"/>
<path d="M161.414 120.977H153.349V129.042H161.414V120.977Z" fill="white"/>
<g opacity="0.25">
<path opacity="0.25" fill-rule="evenodd" clip-rule="evenodd" d="M118.943 132.963C125.01 114.021 116.131 90.27 99.1132 79.9111L101.555 72.29C122.347 84.9426 133.149 113.947 125.75 137.107L118.943 132.963ZM115.539 130.892L108.658 126.748C112.728 114.095 106.808 98.2611 95.4876 91.3799L97.9293 83.7587C113.024 92.9337 120.941 114.021 115.539 130.892ZM105.255 124.676L98.4473 120.533C100.445 114.169 97.4854 106.326 91.862 102.849L94.3037 95.2275C103.701 100.925 108.658 114.095 105.255 124.676Z" fill="white"/>
</g>
</svg>
