<svg width="200" height="200" viewBox="0 0 200 200" fill="none" xmlns="http://www.w3.org/2000/svg">
<g clip-path="url(#clip0)">
<g clip-path="url(#clip1)">
<path d="M170.493 84.6872L155.408 86.9499C154.402 87.0756 153.397 86.0699 153.145 84.6872L149.123 57.9115C148.871 56.5288 149.625 55.2717 150.631 55.146L165.842 52.8833C166.847 52.7576 167.853 53.7632 168.104 55.146L172.127 81.9216C172.127 83.3044 171.498 84.5614 170.493 84.6872Z" fill="#03384D"/>
<path d="M165.919 56.3509L151.37 58.51L155.097 83.6286L169.646 81.4695L165.919 56.3509Z" fill="#EB5A49"/>
<path opacity="0.26" d="M165.716 55.0202L154.151 83.8071L150.254 57.4086L165.716 55.0202Z" fill="#FFF2D1" stroke="white" stroke-width="0.0229" stroke-miterlimit="10"/>
<path d="M163.327 84.0585C163.453 84.5614 163.202 84.9385 162.825 85.0642C162.447 85.0642 162.07 84.8128 162.07 84.3099C162.07 83.8071 162.196 83.43 162.573 83.3043C162.825 83.3043 163.202 83.5557 163.327 84.0585Z" fill="#FFF1CC"/>
<path d="M160.688 55.3973C160.688 55.6487 160.562 55.7744 160.436 55.7744L156.665 56.403C156.539 56.403 156.288 56.2773 156.288 56.0259C156.288 55.7744 156.414 55.6487 156.539 55.6487L160.31 55.0202C160.436 55.0202 160.688 55.2716 160.688 55.3973Z" fill="#FFF1CC"/>
<path d="M158.425 70.3565C158.551 70.8593 158.173 71.2365 157.671 71.3622C157.168 71.4879 156.791 71.1107 156.665 70.6079C156.539 70.1051 156.916 69.728 157.419 69.6023C157.922 69.6023 158.425 69.8537 158.425 70.3565Z" fill="white"/>
<path d="M163.956 67.0881C164.082 67.8423 163.579 68.4709 162.825 68.5966C162.07 68.7223 161.442 68.2194 161.316 67.4652C161.19 66.711 161.693 66.0824 162.447 65.9567C163.202 65.831 163.83 66.3338 163.956 67.0881Z" fill="white"/>
<path d="M164.962 72.3679C165.087 73.1222 164.585 73.7507 163.83 73.8764C163.076 74.0021 162.447 73.4993 162.322 72.7451C162.196 71.9908 162.699 71.3623 163.453 71.2366C164.082 71.1109 164.836 71.6137 164.962 72.3679Z" fill="white"/>
<path d="M157.671 70.4822L162.699 67.2138L157.671 70.4822Z" stroke="white" stroke-width="0.0229" stroke-miterlimit="10"/>
<path d="M157.671 70.4823L163.579 72.4936L157.671 70.4823Z" stroke="white" stroke-width="0.0229" stroke-miterlimit="10"/>
<path d="M154.025 61.3057L158.425 60.6772L154.025 61.3057Z" stroke="#FFEDBF" stroke-width="0.0832" stroke-miterlimit="10"/>
<path d="M157.671 80.2872L164.333 79.2816L157.671 80.2872Z" stroke="#FFEDBF" stroke-width="0.0688" stroke-miterlimit="10"/>
<path d="M157.168 77.396L165.716 76.1389L157.168 77.396Z" stroke="#FFEDBF" stroke-width="0.0688" stroke-miterlimit="10"/>
<path d="M159.43 60.4258L160.562 60.3L159.43 60.4258Z" stroke="#FFEDBF" stroke-width="0.0688" stroke-miterlimit="10"/>
<path d="M161.819 60.0485L163.327 59.7971L161.819 60.0485Z" stroke="#FFEDBF" stroke-width="0.0688" stroke-miterlimit="10"/>
<path d="M154.528 63.1913L160.31 62.3114L154.528 63.1913Z" stroke="#FFEDBF" stroke-width="0.0688" stroke-miterlimit="10"/>
<path d="M161.316 62.1856L163.705 61.8085L161.316 62.1856Z" stroke="#FFEDBF" stroke-width="0.0688" stroke-miterlimit="10"/>
<path d="M157.419 84.5612L175.018 45.4663C175.27 44.9635 176.15 44.7121 177.03 45.2149L180.801 46.9748C181.681 47.3519 182.184 48.1061 181.932 48.7347L164.333 87.8296L157.419 84.5612Z" fill="#FFB700"/>
<path d="M157.168 84.5613L174.767 45.4664C175.018 44.9635 175.647 44.5864 176.15 44.8378L178.287 45.8435C178.789 45.9692 179.041 46.5977 178.789 47.2263L161.19 86.3212L157.168 84.5613Z" fill="#FF8800"/>
<path d="M180.926 46.975L178.412 45.8436L177.155 45.2151L176.275 44.8379C175.772 44.5865 175.27 44.4608 175.27 44.5865L171.75 52.5061L172.001 52.6318L175.772 54.266L179.041 55.7745L182.561 47.8549C182.435 47.7292 181.806 47.3521 180.926 46.975Z" fill="#004F6B"/>
<path d="M178.161 45.7178L176.778 45.0893L176.024 44.7122L175.521 44.4608C175.27 44.3351 175.018 44.3351 174.892 44.4608L171.373 52.3803H171.498L173.635 53.386L175.395 54.1402L178.915 46.2207C179.041 46.2207 178.664 45.9693 178.161 45.7178Z" fill="#002E3F"/>
<path d="M158.299 91.8525L157.168 84.5615L164.333 87.8298L158.299 91.8525Z" fill="#E8A700"/>
<path d="M158.299 91.8524L160.688 90.2182L157.922 89.2126L158.299 91.8524Z" fill="white"/>
<path d="M105.502 73.3734H102.108V76.7674H105.502V73.3734Z" fill="#303030" stroke="#303030" stroke-width="0.0268"/>
<path d="M139.946 76.0131H134.918V81.0414H139.946V76.0131Z" stroke="white" stroke-width="0.0268"/>
<path d="M176.904 116.365H171.875V121.393H176.904V116.365Z" stroke="white" stroke-width="0.0268"/>
<path d="M170.241 52.3801H165.213V57.4084H170.241V52.3801Z" fill="white"/>
<path d="M122.347 66.7109H118.953V70.105H122.347V66.7109Z" fill="white"/>
<path d="M139.192 97.006H135.798V100.4H139.192V97.006Z" fill="#303030" stroke="#303030" stroke-width="0.0268"/>
<path d="M124.233 127.804H119.204V132.833H124.233V127.804Z" fill="#303030" stroke="#303030" stroke-width="0.0268"/>
<path d="M153.397 106.183H148.368V111.211H153.397V106.183Z" fill="white"/>
<path d="M93.6857 140.375L86.3947 130.57L93.1829 125.542L100.474 135.347C101.102 136.227 100.725 137.61 99.594 138.49L97.5826 139.998C96.0742 141.129 94.3143 141.255 93.6857 140.375Z" fill="white"/>
<path d="M103.491 105.177L102.611 103.92C102.108 103.166 102.234 102.16 102.988 101.532L109.273 96.8807C110.028 96.2522 111.159 96.5036 111.662 97.2579L112.542 98.5149C113.17 99.1435 112.919 100.275 112.165 100.778L105.879 105.429C105.125 106.057 104.119 105.932 103.491 105.177Z" fill="#D5331C"/>
<path d="M70.3042 119.131C67.0359 121.645 66.4073 126.296 68.9215 129.565C71.4356 132.833 76.0868 133.462 79.3552 130.947L70.3042 119.131Z" fill="white"/>
<path d="M71.8128 118C68.5444 120.514 67.9158 125.165 70.43 128.433C72.9441 131.702 77.5953 132.33 80.8637 129.816L71.8128 118Z" fill="#FFB31A"/>
<path d="M92.4286 92.3552C91.0459 98.1378 82.8749 107.063 77.4695 111.086C75.3325 112.594 73.1955 113.851 71.0584 114.731L83.7549 131.827C85.2633 129.942 87.0232 128.307 89.0346 126.799C94.44 122.776 105.376 117.497 111.285 117.874L92.4286 92.3552Z" fill="url(#paint0_linear)" stroke="white" stroke-width="0.0854" stroke-miterlimit="10"/>
<path d="M86.6461 129.69L82.1207 134.593L67.6644 115.862L73.9497 112.594L86.6461 129.69Z" fill="white"/>
<path d="M119.079 113.6C120.336 115.234 119.959 117.622 118.324 118.754C116.69 120.011 114.302 119.634 113.17 117.999L92.5544 90.4695C91.423 88.8353 91.6745 86.5726 93.3086 85.3155C94.9428 84.0584 97.3313 84.4355 98.4626 86.0697L119.079 113.6Z" fill="white"/>
<path d="M94.9429 128.056L91.2974 130.822L94.9429 128.056Z" stroke="#D5613E" stroke-width="0.1338" stroke-miterlimit="10"/>
<path d="M97.7084 131.702L95.9485 132.959L97.7084 131.702Z" stroke="#D5613E" stroke-width="0.1338" stroke-miterlimit="10"/>
<path d="M114.427 96.1266L131.398 83.4301L114.427 96.1266Z" stroke="#FFB31A" stroke-width="0.0803" stroke-miterlimit="10"/>
<path d="M111.159 95.6236L114.302 74.6305L111.159 95.6236Z" stroke="#FFB31A" stroke-width="0.0803" stroke-miterlimit="10"/>
<path d="M113.925 99.7719L134.918 102.915L113.925 99.7719Z" stroke="#FFB31A" stroke-width="0.0803" stroke-miterlimit="10"/>
<path d="M108.156 97.6709L105.829 99.3871L108.739 103.333L111.066 101.616L108.156 97.6709Z" fill="white"/>
<path d="M71.9384 99.5205H20.0214C19.5185 99.5205 19.1414 99.1434 19.1414 98.6406V93.2352C19.1414 92.7323 19.5185 92.3552 20.0214 92.3552H71.9384C72.4412 92.3552 72.8184 92.7323 72.8184 93.2352V98.7663C72.8184 99.1434 72.4412 99.5205 71.9384 99.5205Z" fill="#132333"/>
<path d="M72.4413 99.1433H20.6499C20.1471 99.1433 19.77 98.7662 19.77 98.2634V92.7322C19.77 92.2294 20.1471 91.8523 20.6499 91.8523H72.567C73.0698 91.8523 73.4469 92.2294 73.4469 92.7322V98.2634C73.3212 98.7662 72.9441 99.1433 72.4413 99.1433Z" fill="#E74C3C"/>
<g opacity="0.36">
<path opacity="0.36" d="M72.4413 99.1433H20.6499C20.1471 99.1433 19.77 98.7662 19.77 98.2634V92.7322C19.77 92.2294 20.1471 91.8523 20.6499 91.8523H72.567C73.0698 91.8523 73.4469 92.2294 73.4469 92.7322V98.2634C73.3212 98.7662 72.9441 99.1433 72.4413 99.1433Z" fill="#E74C3C"/>
</g>
<path d="M59.8705 98.1375H21.1527C20.9013 98.1375 20.7756 98.0118 20.7756 97.7604V93.2349C20.7756 92.9835 20.9013 92.8578 21.1527 92.8578H59.9962C60.2476 92.8578 60.3733 92.9835 60.3733 93.2349V97.8861C60.3733 98.0118 60.1219 98.1375 59.8705 98.1375Z" fill="#ECF0F1"/>
<path d="M62.6361 95.7491C62.5104 95.7491 62.5104 95.7491 62.3847 95.6234L62.259 95.4977L62.1333 95.372C62.1333 95.2463 62.1333 95.2463 62.1333 95.1206C62.1333 94.9949 62.1333 94.8692 62.1333 94.8692C62.1333 94.7434 62.259 94.7434 62.259 94.6177C62.3847 94.6177 62.3847 94.492 62.5104 94.492C62.6361 94.492 62.7618 94.492 62.7618 94.492C62.8875 94.492 63.0132 94.492 63.0132 94.492C63.1389 94.492 63.2646 94.492 63.2646 94.6177C63.2646 94.7434 63.2646 94.7434 63.2646 94.8692C63.2646 94.9949 63.2646 94.9949 63.1389 95.1206C63.1389 95.1206 63.0132 95.1206 63.0132 94.9949C62.8875 94.9949 62.8875 94.9949 62.7618 94.9949C62.7618 94.9949 62.7618 94.9949 62.6361 94.9949C62.6361 94.9949 62.6361 94.9949 62.5104 94.9949C62.5104 94.9949 62.5104 94.9949 62.5104 95.1206V95.2463C62.5104 95.2463 62.6361 95.2463 62.6361 95.372H62.7618C62.8875 95.372 62.8875 95.4977 63.0132 95.4977C63.1389 95.4977 63.1389 95.6234 63.1389 95.6234L63.2646 95.7491C63.2646 95.8748 63.2646 95.8748 63.2646 96.0005C63.2646 96.1262 63.2646 96.2519 63.2646 96.2519C63.2646 96.3776 63.1389 96.3776 63.1389 96.5033C63.0132 96.5033 63.0132 96.6291 62.8875 96.6291C62.7618 96.6291 62.6361 96.6291 62.5104 96.6291C62.3847 96.6291 62.259 96.6291 62.1333 96.6291C62.0076 96.6291 61.8819 96.6291 61.8819 96.5033C61.8819 96.3776 61.8819 96.3776 61.8819 96.2519C61.8819 96.1262 61.8818 96.1262 62.0076 96.0005C62.1333 96.1262 62.3847 96.1262 62.5104 96.1262C62.6361 96.1262 62.6361 96.1262 62.7618 96.1262L62.8875 96.0005C62.8875 96.0005 62.8875 96.0005 62.8875 95.8748C62.8875 95.8748 62.8875 95.8748 62.7618 95.8748C62.7618 95.8748 62.7618 95.8748 62.6361 95.8748V95.7491Z" fill="#A82F23"/>
<path d="M64.2703 96.0006C64.2703 96.1263 64.2703 96.1263 64.396 96.1263C64.396 96.1263 64.5217 96.1263 64.6474 96.1263C64.6474 96.1263 64.7731 96.1263 64.8989 96.1263C65.0246 96.1263 65.0246 96.1263 65.1503 96.1263C65.1503 96.1263 65.1503 96.252 65.276 96.252C65.276 96.3777 65.276 96.3777 65.276 96.5034C64.8989 96.6292 64.7731 96.6292 64.5217 96.6292C64.396 96.6292 64.2703 96.6292 64.1446 96.6292C64.0189 96.6292 64.0189 96.5034 63.8932 96.5034C63.8932 96.3777 63.7675 96.252 63.7675 96.1263C63.7675 96.0006 63.7675 95.8749 63.7675 95.7492C63.7675 95.6235 63.7675 95.4978 63.7675 95.3721C63.7675 95.2464 63.8932 95.2464 63.8932 95.1207C64.0189 94.995 64.0189 94.995 64.1446 94.995C64.2703 94.995 64.396 94.995 64.5217 94.995C64.6474 94.995 64.7731 94.995 64.7731 94.995C64.8989 94.995 64.8989 95.1207 65.0246 95.1207C65.0246 95.2464 65.1503 95.2464 65.1503 95.3721C65.1503 95.4978 65.1503 95.4978 65.1503 95.6235V95.7492V95.8749H64.2703V96.0006ZM64.7731 95.6235C64.7731 95.4978 64.7731 95.4978 64.6474 95.4978L64.5217 95.3721C64.396 95.3721 64.396 95.3721 64.396 95.3721L64.2703 95.4978H64.7731V95.6235Z" fill="#A82F23"/>
<path d="M66.1559 95.6234C66.1559 95.6234 66.1559 95.4977 66.1559 95.6234C66.1559 95.4977 66.0302 95.4977 66.0302 95.4977C66.0302 95.4977 66.0302 95.4977 65.9044 95.4977H65.7787H65.653C65.653 95.4977 65.5273 95.4977 65.4016 95.4977V95.372C65.4016 95.372 65.4016 95.372 65.4016 95.2463C65.4016 95.2463 65.4016 95.2463 65.4016 95.1206V94.9949C65.5273 94.9949 65.653 94.9948 65.653 94.8691C65.7787 94.8691 65.7787 94.8691 65.9044 94.8691C66.0302 94.8691 66.1559 94.8691 66.1559 94.8691C66.2816 94.8691 66.2816 94.9949 66.4073 94.9949C66.4073 94.9949 66.533 95.1206 66.533 95.2463C66.533 95.372 66.533 95.372 66.533 95.4977V96.3776C66.4073 96.3776 66.4073 96.3776 66.2816 96.5033C66.1559 96.5033 66.0302 96.5033 65.9044 96.5033C65.7787 96.5033 65.653 96.5033 65.653 96.5033C65.5273 96.5033 65.5273 96.5033 65.4016 96.3776L65.2759 96.2519C65.2759 96.1262 65.2759 96.1262 65.2759 96.0005C65.2759 95.8748 65.2759 95.8748 65.2759 95.7491C65.2759 95.6234 65.4016 95.6234 65.4016 95.6234C65.5273 95.6234 65.5273 95.4977 65.653 95.4977C65.7787 95.4977 65.7787 95.4977 65.9044 95.4977H66.1559V95.6234ZM66.1559 95.8748H66.0302C65.9044 95.8748 65.9044 95.8748 65.9044 95.8748L65.7787 96.0005V96.1262C65.7787 96.1262 65.7787 96.1262 65.9044 96.1262C65.9044 96.1262 65.9044 96.1262 66.0302 96.1262C66.0302 96.1262 66.0301 96.1262 66.1559 96.1262C66.1559 96.1262 66.1559 96.1262 66.2816 96.1262C66.2816 96.1262 66.2816 96.1262 66.4073 96.1262V95.8748H66.1559Z" fill="#A82F23"/>
<path d="M67.0359 95.1204C67.1616 95.1204 67.2873 95.1204 67.2873 95.1204C67.413 95.1204 67.5387 95.1204 67.5387 95.1204C67.7901 95.1204 67.9158 95.1204 68.0415 95.2461C68.1672 95.2461 68.2929 95.3718 68.2929 95.4975V95.6233V95.749C68.2929 95.749 68.2929 95.749 68.2929 95.8747L68.6701 96.5032H68.5443H68.4186H68.2929H68.1672L67.5387 95.8747C67.6644 95.8747 67.6644 95.749 67.6644 95.749V95.6233V95.4975H67.5387H67.413V96.6289H67.2873H67.1616H67.0359H66.9102V95.1204H67.0359Z" fill="#A82F23"/>
<path d="M69.6757 96.1263C69.6757 96.1263 69.6757 96.252 69.8014 96.252C69.8014 96.3777 69.8014 96.3777 69.8014 96.5034C69.6757 96.5034 69.6757 96.5035 69.55 96.6292C69.4243 96.7549 69.4243 96.6292 69.2986 96.6292C69.1728 96.6292 69.0471 96.6292 68.9214 96.6292C68.7957 96.6292 68.7957 96.5034 68.67 96.5034C68.67 96.3777 68.5443 96.252 68.5443 96.1263C68.5443 96.0006 68.5443 95.8749 68.5443 95.7492C68.5443 95.6235 68.5443 95.4978 68.5443 95.3721C68.5443 95.2464 68.67 95.2464 68.67 95.1207C68.7957 94.995 68.7957 94.995 68.9214 94.995C69.0471 94.995 69.1728 94.995 69.2986 94.995H69.4243C69.4243 94.995 69.4243 94.995 69.55 94.995H69.6757H69.8014C69.8014 95.1207 69.8014 95.1207 69.8014 95.2464C69.8014 95.3721 69.8014 95.3721 69.6757 95.4978H69.55C69.55 95.4978 69.55 95.4978 69.4243 95.4978C69.4243 95.4978 69.4243 95.4978 69.2986 95.4978C69.2986 95.4978 69.2986 95.4978 69.1728 95.4978C69.0471 95.4978 69.0471 95.4978 68.9214 95.6235C68.7957 95.6235 68.7957 95.7492 68.7957 95.8749C68.7957 96.0006 68.7957 96.0006 68.7957 96.0006C68.7957 96.0006 68.7957 96.1263 68.9214 96.1263H69.0471H69.1728H69.2986C69.55 96.252 69.55 96.1263 69.6757 96.1263Z" fill="#A82F23"/>
<path d="M69.9271 95.1204H70.0528H70.1785H70.3042H70.4299V95.6233H70.9328V95.1204H71.0585H71.1842H71.3099H71.4356V96.6289H71.3099H71.1842H71.0585H70.9328V96.0004H70.4299V96.6289H70.3042H70.1785H70.0528H69.9271V95.1204V95.1204Z" fill="#A82F23"/>
<path d="M62.6361 95.4978C62.5104 95.4978 62.5104 95.4978 62.3847 95.3721L62.259 95.2464L62.1333 95.1207C62.1333 94.995 62.1333 94.995 62.1333 94.8693C62.1333 94.7436 62.1333 94.6179 62.1333 94.6179C62.1333 94.4922 62.259 94.4922 62.259 94.3665C62.3847 94.3665 62.3847 94.2408 62.5104 94.2408C62.6361 94.2408 62.7618 94.2408 62.7618 94.2408C62.8875 94.2408 63.0132 94.2408 63.0132 94.2408C63.1389 94.2408 63.2646 94.2408 63.2646 94.3665C63.2646 94.4922 63.2646 94.4922 63.2646 94.6179C63.2646 94.7436 63.2646 94.7436 63.1389 94.8693C63.1389 94.8693 63.0132 94.8693 63.0132 94.7436C62.8875 94.7436 62.8875 94.7436 62.7618 94.7436C62.7618 94.7436 62.7618 94.7436 62.6361 94.7436C62.6361 94.7436 62.6361 94.7436 62.5104 94.7436C62.5104 94.7436 62.5104 94.7436 62.5104 94.8693V94.995C62.5104 94.995 62.6361 94.995 62.6361 95.1207H62.7618C62.8875 95.1207 62.8875 95.2464 63.0132 95.2464C63.1389 95.2464 63.1389 95.3721 63.1389 95.3721L63.2646 95.4978C63.2646 95.6235 63.2646 95.6235 63.2646 95.7492C63.2646 95.8749 63.2646 96.0007 63.2646 96.0007C63.2646 96.1264 63.1389 96.1264 63.1389 96.2521C63.0132 96.2521 63.0132 96.3778 62.8875 96.3778C62.7618 96.3778 62.6361 96.3778 62.5104 96.3778C62.3847 96.3778 62.259 96.3778 62.1333 96.3778C62.0076 96.3778 61.8819 96.3778 61.8819 96.2521C61.8819 96.1264 61.8819 96.1264 61.8819 96.0007C61.8819 95.8749 61.8818 95.8749 62.0076 95.7492C62.1333 95.8749 62.3847 95.8749 62.5104 95.8749C62.6361 95.8749 62.6361 95.8749 62.7618 95.8749L62.8875 95.7492C62.8875 95.7492 62.8875 95.7492 62.8875 95.6235C62.8875 95.6235 62.8875 95.6235 62.7618 95.6235C62.7618 95.6235 62.7618 95.6235 62.6361 95.6235V95.4978Z" fill="white"/>
<path d="M64.2703 95.7493C64.2703 95.875 64.2703 95.875 64.396 95.875C64.396 95.875 64.5217 95.875 64.6474 95.875C64.6474 95.875 64.7731 95.875 64.8988 95.875C65.0245 95.875 65.0245 95.875 65.1503 95.7493C65.1503 95.7493 65.1503 95.875 65.276 95.875C65.276 96.0008 65.276 96.0008 65.276 96.1265C64.8988 96.3779 64.7731 96.3779 64.5217 96.3779C64.396 96.3779 64.2703 96.3779 64.1446 96.3779C64.0189 96.3779 64.0189 96.2522 63.8932 96.2522C63.8932 96.1265 63.7675 96.0008 63.7675 95.875C63.7675 95.7493 63.7675 95.6236 63.7675 95.4979C63.7675 95.3722 63.7675 95.2465 63.7675 95.1208C63.7675 94.9951 63.8932 94.9951 63.8932 94.8694C64.0189 94.9951 64.0189 94.8694 64.1446 94.8694C64.2703 94.8694 64.396 94.7437 64.5217 94.7437C64.6474 94.7437 64.7731 94.7437 64.7731 94.7437C64.8988 94.7437 64.8988 94.8694 65.0245 94.8694C65.0245 94.8694 65.1503 94.9951 65.1503 95.1208C65.1503 95.2465 65.1503 95.2465 65.1503 95.3722V95.4979V95.6236H64.2703V95.7493ZM64.7731 95.3722C64.7731 95.2465 64.7731 95.2465 64.6474 95.2465L64.5217 95.1208C64.396 95.1208 64.396 95.1208 64.396 95.1208L64.2703 95.2465H64.7731V95.3722Z" fill="white"/>
<path d="M66.1559 95.3721C66.1559 95.3721 66.1559 95.2464 66.1559 95.3721C66.1559 95.2464 66.0302 95.2464 66.0302 95.2464C66.0302 95.2464 66.0302 95.2464 65.9045 95.2464H65.7788H65.6531C65.6531 95.2464 65.5274 95.2464 65.4017 95.2464V95.1207C65.4017 95.1207 65.4017 95.1207 65.4017 94.995C65.4017 94.995 65.4017 94.995 65.4017 94.8693V94.7436C65.5274 94.7436 65.6531 94.7436 65.6531 94.6179C65.7788 94.6179 65.7788 94.6179 65.9045 94.6179C66.0302 94.6179 66.1559 94.6179 66.1559 94.6179C66.2816 94.6179 66.2816 94.7436 66.4073 94.7436C66.4073 94.7436 66.5331 94.8693 66.5331 94.995C66.5331 95.1207 66.5331 95.1207 66.5331 95.2464V96.2521C66.4073 96.2521 66.4073 96.2521 66.2816 96.3778C66.1559 96.3778 66.0302 96.3778 65.9045 96.3778C65.7788 96.3778 65.6531 96.3778 65.6531 96.3778C65.5274 96.3778 65.5274 96.3778 65.4017 96.2521C65.276 96.1263 65.4017 96.1263 65.4017 96.1263C65.4017 96.0006 65.4017 96.0006 65.4017 95.8749C65.4017 95.7492 65.4017 95.7492 65.4017 95.6235C65.4017 95.4978 65.5274 95.4978 65.5274 95.4978C65.6531 95.4978 65.6531 95.3721 65.7788 95.3721C65.9045 95.3721 65.9045 95.3721 66.0302 95.3721H66.1559V95.3721ZM66.1559 95.6235H66.0302C65.9045 95.6235 65.9045 95.6235 65.9045 95.6235L65.7788 95.7492V95.8749C65.7788 95.8749 65.7788 95.8749 65.9045 95.8749C65.9045 95.8749 65.9045 95.8749 66.0302 95.8749C66.0302 95.8749 66.0302 95.8749 66.1559 95.8749C66.1559 95.8749 66.1559 95.8749 66.2816 95.8749C66.2816 95.8749 66.2816 95.8749 66.4073 95.8749V95.6235H66.1559Z" fill="white"/>
<path d="M67.0359 94.8691C67.1616 94.8691 67.2873 94.8691 67.2873 94.8691C67.413 94.8691 67.5387 94.8691 67.5387 94.8691C67.7901 94.8691 67.9158 94.8691 68.0415 94.9949C68.1672 94.9949 68.2929 95.1206 68.2929 95.2463V95.372V95.4977C68.2929 95.4977 68.2929 95.4977 68.2929 95.6234L68.6701 96.2519H68.5443H68.4186H68.2929H68.1672L67.5387 95.6234C67.6644 95.6234 67.6644 95.4977 67.6644 95.4977V95.372V95.2463H67.5387H67.413V96.3776H67.2873H67.1616H67.0359H66.9102V94.8691H67.0359Z" fill="white"/>
<path d="M69.6757 95.8748C69.6757 95.8748 69.6757 96.0005 69.8014 96.0005C69.8014 96.1262 69.8014 96.1262 69.8014 96.2519C69.6757 96.2519 69.6757 96.2519 69.55 96.3776C69.4243 96.3776 69.4243 96.3776 69.2986 96.3776C69.1728 96.3776 69.0471 96.3776 68.9214 96.3776C68.7957 96.3776 68.7957 96.2519 68.67 96.2519C68.5443 96.2519 68.5443 96.0005 68.5443 95.8748C68.5443 95.7491 68.5443 95.6234 68.5443 95.4977C68.5443 95.372 68.5443 95.2463 68.5443 95.1206C68.5443 94.9949 68.67 94.9948 68.67 94.8691C68.7957 94.9948 68.7957 94.8691 68.9214 94.8691C69.0471 94.8691 69.1728 94.8691 69.2986 94.8691H69.4243H69.55H69.6757H69.8014C69.8014 94.9948 69.8014 94.9949 69.8014 95.1206C69.8014 95.2463 69.8014 95.2463 69.6757 95.372H69.55C69.55 95.372 69.55 95.372 69.4243 95.372C69.4243 95.372 69.4243 95.372 69.2986 95.372C69.2986 95.372 69.2986 95.372 69.1728 95.372C69.0471 95.372 69.0471 95.372 68.9214 95.4977C68.7957 95.4977 68.7957 95.6234 68.7957 95.7491C68.7957 95.8748 68.7957 95.8748 68.7957 95.8748C68.7957 95.8748 68.7957 96.0005 68.9214 96.0005H69.0471H69.1728H69.2986C69.55 96.0005 69.55 95.8748 69.6757 95.8748Z" fill="white"/>
<path d="M69.9271 94.8691H70.0528H70.1785H70.3042H70.4299V95.372H70.9328V94.8691H71.0585H71.1842H71.3099H71.4356V96.3776H71.3099H71.1842H71.0585H70.9328V95.7491H70.4299V96.3776H70.3042H70.1785H70.0528H69.9271V94.8691V94.8691Z" fill="white"/>
<g opacity="0.8">
<path opacity="0.8" d="M135.169 32.6443H68.67V59.0428H95.6971L97.7084 62.5626L100.977 68.3452L104.371 62.5626L106.508 59.0428H135.169V32.6443Z" fill="url(#paint1_linear)" stroke="white" stroke-width="0.1767" stroke-miterlimit="10"/>
<g opacity="0.8">
<g opacity="0.8">
<path opacity="0.8" d="M84.3834 39.3068H74.0755V49.6148H84.3834V39.3068Z" fill="white"/>
<g opacity="0.8">
<path opacity="0.8" d="M80.6123 47.2266L80.1094 49.1122H77.8467L77.4696 47.2266L78.6009 46.598H79.7323L80.6123 47.2266Z" fill="url(#paint2_linear)"/>
<path opacity="0.8" d="M81.115 43.8322C81.115 44.9635 80.2351 46.7234 79.2294 46.7234C78.2238 46.7234 77.2181 44.9635 77.2181 43.8322C77.2181 42.7008 78.0981 41.9466 79.1037 41.9466C80.1094 41.9466 81.115 42.8265 81.115 43.8322Z" fill="#FFF5E3"/>
<path opacity="0.8" d="M77.3438 44.4609C77.3438 44.4609 76.0868 43.958 76.4639 42.701C76.841 41.4439 77.721 41.4439 77.721 41.4439C77.9724 40.8154 78.6009 40.564 78.7266 40.564C78.8523 41.0668 79.2295 41.0668 79.4809 41.1925C79.6066 41.1925 79.6066 41.1925 79.7323 41.1925C80.2351 40.9411 80.6122 41.3182 80.6122 41.3182C80.6122 41.3182 81.995 41.3182 81.7436 42.9524C81.4922 44.5866 81.3665 43.958 81.1151 44.2095C80.8636 44.4609 80.3608 43.0781 80.2351 43.0781C79.9837 43.958 78.4752 43.0781 78.4752 43.2038C77.5953 43.4552 77.3438 44.4609 77.3438 44.4609Z" fill="#465A72"/>
<path opacity="0.8" d="M80.4865 50.872H77.8467C77.0924 50.872 76.4639 50.2435 76.4639 49.4893V48.4836C76.4639 47.7294 77.0924 47.1008 77.8467 47.1008L79.1037 48.4836L80.3608 46.9751H80.4865C81.2408 46.9751 81.8693 47.6037 81.8693 48.3579V49.3636C81.8693 50.2435 81.2408 50.872 80.4865 50.872Z" fill="#348AD1"/>
<g opacity="0.8">
<path opacity="0.8" d="M79.1037 49.3633L77.2181 47.1006H77.4695L79.1037 48.8605V49.3633Z" fill="white"/>
</g>
<g opacity="0.8">
<path opacity="0.8" d="M79.1037 49.3633V48.8605L80.7379 47.1006H80.9893L79.1037 49.3633Z" fill="white"/>
</g>
</g>
</g>
</g>
<path opacity="0.8" d="M88.7832 40.1868H130.769H88.7832Z" stroke="#F9ED32" stroke-width="0.106" stroke-miterlimit="10"/>
<path opacity="0.8" d="M88.7832 43.3295H130.769H88.7832Z" stroke="white" stroke-width="0.106" stroke-miterlimit="10"/>
<path opacity="0.8" d="M88.7832 46.3464H130.769H88.7832Z" stroke="#F9ED32" stroke-width="0.106" stroke-miterlimit="10"/>
<path opacity="0.8" d="M88.7832 49.4891H117.444H88.7832Z" stroke="white" stroke-width="0.106" stroke-miterlimit="10"/>
</g>
<path d="M139.192 156.34C139.192 157.094 139.82 157.597 140.449 157.723L172.881 157.974C173.635 157.974 174.138 157.346 174.264 156.717L174.641 115.359C174.641 114.605 174.013 114.102 173.384 113.977L140.952 113.725C140.197 113.725 139.695 114.354 139.569 114.982L139.192 156.34Z" fill="white"/>
<path d="M142.521 117.708L142.189 153.408L171.353 153.679L171.685 117.978L142.521 117.708Z" fill="#242E33"/>
<path d="M142.446 118.807L142.123 153.502L170.03 153.762L170.353 119.067L142.446 118.807Z" fill="#47565D"/>
<path d="M156.539 115.862C156.539 116.114 156.791 116.365 157.042 116.365C157.294 116.365 157.545 116.114 157.545 115.862C157.545 115.611 157.294 115.359 157.042 115.359C156.791 115.359 156.539 115.611 156.539 115.862Z" fill="#6D6E71"/>
<path d="M155.282 155.586C155.282 156.34 155.911 156.969 156.665 156.969C157.419 156.969 158.048 156.34 158.048 155.586C158.048 154.831 157.419 154.203 156.665 154.203C155.911 154.203 155.282 154.831 155.282 155.586Z" fill="#CDD0D1"/>
<path d="M156.036 155.586C156.036 155.963 156.288 156.34 156.665 156.34C157.042 156.34 157.294 156.089 157.419 155.711C157.419 155.334 157.168 155.083 156.791 154.957C156.288 154.832 156.036 155.209 156.036 155.586Z" fill="#ECF0F1"/>
<path d="M176.527 126.045C183.261 126.045 188.72 120.585 188.72 113.851C188.72 107.117 183.261 101.657 176.527 101.657C169.792 101.657 164.333 107.117 164.333 113.851C164.333 120.585 169.792 126.045 176.527 126.045Z" stroke="#CCEBFF" stroke-width="0.117" stroke-miterlimit="10" stroke-dasharray="0.31 0.31"/>
<path d="M194 108.571C194 104.549 190.355 101.28 185.955 101.28H166.344C161.945 101.28 158.299 104.549 158.299 108.571V113.725H194V108.571V108.571Z" fill="#E75F51"/>
<path d="M158.299 113.725V120.136C158.299 124.159 161.945 127.427 166.344 127.427H185.955C190.355 127.427 194 124.159 194 120.136V113.725H158.299Z" fill="#CC4335"/>
<path d="M173.384 120.136L173.258 113.977L173.007 107.943L178.412 110.834L183.692 113.725L178.538 116.868L173.384 120.136Z" fill="#E6F5FF"/>
<path d="M55.0937 59.0429V57.5344C55.0937 55.7745 53.5852 54.266 51.8253 54.266H36.8661C35.1062 54.266 33.5977 55.7745 33.5977 57.5344V59.0429C33.5977 59.42 33.3463 59.7971 32.9692 59.9228C30.8322 60.9285 29.4494 63.1912 29.4494 65.7053V67.8424C29.4494 71.4879 32.3407 74.3791 35.9862 74.3791H52.9566C56.6021 74.3791 59.4934 71.4879 59.4934 67.8424V65.7053C59.4934 63.1912 57.9849 60.9285 55.8479 59.9228C55.3451 59.7971 55.0937 59.42 55.0937 59.0429Z" fill="url(#paint3_linear)" stroke="#F69988" stroke-width="0.1233" stroke-miterlimit="10"/>
<path d="M43.2772 52.3804C43.4029 52.5061 43.4029 52.7575 43.2772 52.8832L42.0201 54.0146C41.8944 54.1403 41.643 54.1403 41.5173 54.0146C41.3916 53.8889 41.3916 53.6375 41.5173 53.5118L42.7743 52.3804C42.9 52.2547 43.1515 52.2547 43.2772 52.3804Z" fill="#F36C60"/>
<path d="M42.1458 53.8889C42.1458 54.1403 42.0201 54.266 41.7687 54.266H38.7517C38.5003 54.266 38.3746 54.1403 38.3746 53.8889C38.3746 53.6375 38.5003 53.5118 38.7517 53.5118H41.7687C41.8944 53.5118 42.1458 53.6375 42.1458 53.8889Z" fill="#F69988"/>
<path d="M46.797 53.8889C46.797 54.1403 46.9227 54.266 47.1741 54.266H50.191C50.4425 54.266 50.5682 54.1403 50.5682 53.8889C50.5682 53.6375 50.4425 53.5118 50.191 53.5118H47.1741C46.9227 53.5118 46.797 53.6375 46.797 53.8889Z" fill="#F69988"/>
<path d="M45.5399 52.3804C45.4142 52.5061 45.4142 52.7575 45.5399 52.8832L46.797 54.0146C46.9227 54.1403 47.1741 54.1403 47.2998 54.0146C47.4255 53.8889 47.4255 53.6375 47.2998 53.5118L46.0427 52.3804C46.0427 52.2547 45.7913 52.2547 45.5399 52.3804Z" fill="#F36C60"/>
<path d="M44.1572 52.3803C44.1572 52.8831 43.78 53.3859 43.1515 53.3859C42.523 53.3859 42.1458 53.0088 42.1458 52.3803C42.1458 51.8774 42.523 51.3746 43.1515 51.3746C43.78 51.3746 44.1572 51.8774 44.1572 52.3803Z" fill="#F36C60"/>
<path d="M46.4199 52.3803C46.4199 52.8831 46.0428 53.3859 45.4142 53.3859C44.9114 53.3859 44.4086 53.0088 44.4086 52.3803C44.4086 51.8774 44.7857 51.3746 45.4142 51.3746C46.0428 51.5003 46.4199 51.8774 46.4199 52.3803Z" fill="#F36C60"/>
<path d="M44.2829 67.4652C44.0315 67.4652 43.9058 67.4652 43.78 67.4652C43.6543 67.4652 43.5286 67.4652 43.4029 67.4652C43.2772 67.4652 43.1515 67.4652 43.0258 67.3395C42.9001 67.3395 42.7744 67.2138 42.6487 67.2138C42.6487 67.0881 42.6487 66.9624 42.7744 66.711C42.7744 66.5853 42.9001 66.4596 42.9001 66.2082C43.1515 66.3339 43.2772 66.3339 43.5286 66.3339C43.78 66.3339 43.9058 66.3339 44.1572 66.3339C44.5343 66.3339 44.7857 66.3339 44.9114 66.2082C45.0371 66.2082 45.1628 66.0825 45.1628 65.831C45.1628 65.7053 45.1628 65.5796 45.0371 65.5796C45.0371 65.4539 44.9114 65.4539 44.9114 65.3282C44.7857 65.3282 44.7857 65.2025 44.66 65.2025C44.5343 65.2025 44.5343 65.0768 44.4086 65.0768L44.0315 64.8254C43.78 64.8254 43.6543 64.6997 43.5286 64.574C43.4029 64.574 43.2772 64.4483 43.1515 64.3226C43.0258 64.1969 43.0258 64.0711 42.9001 63.9454C42.9001 63.8197 42.7744 63.5683 42.7744 63.4426C42.7744 62.9398 42.9001 62.5627 43.1515 62.3112C43.5286 62.0598 43.9058 61.8084 44.2829 61.8084V60.9285C44.4086 60.9285 44.5343 60.9285 44.66 60.9285C44.7857 60.9285 44.9114 60.9285 45.0371 60.9285V61.6827C45.2885 61.6827 45.4142 61.6827 45.6657 61.8084C45.9171 61.8084 46.0428 61.9341 46.2942 61.9341C46.2942 62.1855 46.1685 62.5627 46.0428 62.8141C45.9171 62.8141 45.9171 62.6884 45.7914 62.6884C45.6657 62.6884 45.6657 62.6884 45.5399 62.5627C45.4142 62.5627 45.2885 62.5627 45.2885 62.5627C45.1628 62.5627 45.0371 62.5627 44.9114 62.5627C44.7857 62.5627 44.7857 62.5627 44.66 62.5627C44.4086 62.6884 44.2829 62.6884 44.2829 62.8141C44.1572 62.8141 44.1572 62.9398 44.1572 62.9398C44.1572 63.0655 44.0315 63.0655 44.0315 63.1912C44.0315 63.3169 44.0315 63.4426 44.0315 63.4426C44.0315 63.5683 44.1572 63.5683 44.1572 63.5683C44.1572 63.5683 44.2829 63.694 44.4086 63.694C44.5343 63.694 44.5343 63.8197 44.66 63.8197L45.1628 64.0711C45.2885 64.1969 45.5399 64.3226 45.6657 64.3226C45.7914 64.4483 45.9171 64.4483 46.0428 64.574C46.1685 64.8254 46.2942 64.9511 46.2942 65.0768C46.2942 65.2025 46.4199 65.4539 46.4199 65.7053C46.4199 66.0825 46.2942 66.4596 46.0428 66.8367C45.7914 67.0881 45.4142 67.3395 45.0371 67.3395V68.2195C44.9114 68.2195 44.7857 68.2195 44.66 68.2195C44.5343 68.2195 44.4086 68.2195 44.2829 68.2195V67.4652V67.4652Z" fill="#FDE0DC"/>
<path d="M44.1571 37.0438C44.1571 38.9294 42.6486 40.5636 40.6373 40.5636C38.7517 40.5636 37.1175 39.0551 37.1175 37.0438C37.1175 35.1582 38.626 33.524 40.6373 33.524C42.5229 33.6497 44.1571 35.1582 44.1571 37.0438Z" fill="url(#paint4_linear)"/>
<path d="M40.6373 32.3927C43.1514 32.3927 45.2885 34.5297 45.2885 37.0439C45.2885 39.6837 43.1514 41.695 40.6373 41.695C38.1232 41.695 35.9861 39.558 35.9861 37.0439C35.9861 34.5297 38.1232 32.3927 40.6373 32.3927Z" fill="url(#paint5_linear)"/>
<path d="M40.6373 32.8956C38.3746 32.8956 36.489 34.7812 36.489 37.044C36.489 39.3067 38.3746 41.1923 40.6373 41.1923C42.9 41.1923 44.7856 39.3067 44.7856 37.044C44.7856 34.7812 42.9 32.8956 40.6373 32.8956Z" fill="url(#paint6_linear)"/>
<path d="M40.6374 32.2672C43.2772 32.2672 45.4142 34.4043 45.4142 37.0441C45.4142 39.684 43.2772 41.821 40.6374 41.821C37.9975 41.821 35.8605 39.684 35.8605 37.0441C35.8605 34.53 37.9975 32.2672 40.6374 32.2672Z" fill="url(#paint7_linear)"/>
<path d="M40.6373 32.5185C38.1232 32.5185 36.1119 34.5298 36.1119 37.1697C36.1119 39.6838 38.1232 41.8209 40.6373 41.8209C43.1515 41.8209 45.1628 39.6838 45.1628 37.044C45.1628 34.5298 43.1515 32.5185 40.6373 32.5185Z" fill="url(#paint8_linear)"/>
<path d="M40.6373 41.3179C38.3746 41.3179 36.489 39.4323 36.489 37.0438C36.489 34.6554 38.3746 32.7698 40.6373 32.7698C42.9 32.7698 44.7856 34.6554 44.7856 37.0438C44.7856 39.4323 42.9 41.3179 40.6373 41.3179Z" fill="url(#paint9_linear)"/>
<path d="M40.6373 33.0215C38.3746 33.0215 36.6147 34.9071 36.6147 37.0441C36.6147 39.3068 38.3746 41.0667 40.6373 41.0667C42.9001 41.0667 44.66 39.1811 44.66 37.0441C44.66 34.9071 42.9001 33.0215 40.6373 33.0215Z" fill="url(#paint10_linear)"/>
<path d="M40.386 38.5525C40.1345 38.5525 40.0088 38.5525 39.8831 38.4268C39.7574 38.4268 39.6317 38.3011 39.6317 38.3011L39.8831 37.7982C40.0088 37.7982 40.1346 37.924 40.2603 37.924C40.386 37.924 40.5117 38.0497 40.7631 38.0497C40.8888 38.0497 41.1402 38.0497 41.1402 37.924C41.2659 37.924 41.2659 37.7982 41.2659 37.6725V37.5468L41.1402 37.4211C41.1402 37.4211 41.0145 37.2954 40.8888 37.2954C40.6374 37.2954 40.5117 37.1697 40.386 37.1697C40.2603 37.1697 40.1346 37.044 40.1346 37.044C40.0088 37.044 40.0088 36.9183 39.8831 36.9183C39.7574 36.7926 39.7574 36.7926 39.6317 36.6669C39.6317 36.5412 39.506 36.4155 39.506 36.2898C39.506 36.1641 39.506 36.0383 39.506 36.0383C39.506 35.9126 39.6317 35.9126 39.6317 35.7869C39.6317 35.6612 39.7574 35.6612 39.8831 35.5355C40.0088 35.5355 40.1346 35.4098 40.2603 35.4098V34.907H40.8888V35.4098C41.0145 35.4098 41.1402 35.4098 41.2659 35.5355C41.3916 35.5355 41.5173 35.5355 41.5173 35.6612V36.1641C41.3916 36.1641 41.2659 36.0383 41.1402 36.0383C41.0145 36.0383 40.8888 36.0383 40.7631 36.0383C40.6374 36.0383 40.5117 36.0383 40.386 36.1641C40.2603 36.2898 40.2603 36.1641 40.2603 36.2898V36.4155C40.2603 36.4155 40.2603 36.5412 40.386 36.5412C40.386 36.5412 40.5117 36.5412 40.5117 36.6669C40.5117 36.6669 40.6374 36.6669 40.7631 36.7926C40.8888 36.7926 41.0145 36.9183 41.1402 36.9183C41.2659 36.9183 41.3916 37.044 41.3916 37.1697C41.3916 37.2954 41.643 37.1697 41.643 37.2954C41.643 37.4211 41.7687 37.5468 41.7687 37.6725C41.7687 37.7982 41.7687 37.7982 41.7687 37.924C41.7687 38.0497 41.643 38.0497 41.643 38.1754C41.5173 38.3011 41.3916 38.3011 41.2659 38.3011C41.2659 38.4268 41.1402 38.4268 40.8888 38.4268V38.9296H40.386V38.5525Z" fill="white"/>
<path d="M51.8253 41.4436C51.8253 42.9521 50.6939 44.2092 49.1855 44.3349C47.677 44.3349 46.4199 43.2035 46.2942 41.695C46.2942 40.1865 47.4256 38.9295 48.934 38.8038C50.4425 38.678 51.6996 39.9351 51.8253 41.4436Z" fill="url(#paint11_linear)"/>
<path d="M49.0598 45.2151C47.0484 45.2151 45.4142 43.5809 45.4142 41.5696C45.4142 40.564 45.7914 39.684 46.4199 38.9298C47.0484 38.1755 48.0541 37.7984 49.0598 37.7984H49.1855C51.1968 37.7984 52.831 39.4326 52.831 41.4439C52.831 42.4496 52.4538 43.3295 51.8253 44.0838C51.0711 44.838 50.1911 45.2151 49.1855 45.2151C49.0597 45.2151 49.0598 45.2151 49.0598 45.2151ZM49.0598 38.3012C48.934 38.3012 48.934 38.3012 49.0598 38.3012C48.0541 38.3012 47.2998 38.6783 46.797 39.3069C46.1685 39.9354 45.7914 40.8154 45.9171 41.6953C45.9171 43.4552 47.4256 44.7123 49.1855 44.7123C50.0654 44.7123 50.8196 44.3352 51.3225 43.7066C51.951 43.0781 52.2024 42.3239 52.2024 41.4439C52.0767 39.684 50.6939 38.3012 49.0598 38.3012Z" fill="url(#paint12_linear)"/>
<path d="M49.0597 45.3407C47.0484 45.3407 45.4142 43.7065 45.2885 41.6952C45.2885 40.6895 45.6656 39.6839 46.2942 38.9296C46.9227 38.1754 47.9284 37.7983 48.934 37.6726H49.0597C51.071 37.6726 52.7052 39.3068 52.8309 41.3181C52.8309 42.3237 52.4538 43.3294 51.8253 44.0836C51.1967 44.8379 50.1911 45.215 49.1854 45.3407H49.0597ZM49.0597 37.924H48.934C47.9284 37.924 47.0484 38.4268 46.4199 39.0554C45.6656 39.6839 45.4142 40.6895 45.4142 41.6952C45.5399 43.7065 47.0484 45.215 49.0597 45.215H49.1854C50.1911 45.215 51.071 44.7122 51.6996 44.0836C52.3281 43.3294 52.7052 42.4494 52.7052 41.4438C52.5795 39.4325 50.9453 37.924 49.0597 37.924ZM49.0597 44.8379C47.2998 44.8379 45.917 43.4551 45.7913 41.6952C45.7913 40.8153 46.0428 39.9353 46.6713 39.3068C47.2998 38.6782 48.0541 38.3011 48.934 38.3011H49.0597C50.8196 38.3011 52.2024 39.6839 52.3281 41.4438C52.3281 42.3237 52.0767 43.2037 51.4482 43.8322C50.8196 44.3351 50.0654 44.7122 49.0597 44.8379ZM49.0597 38.4268C48.0541 38.4268 47.2998 38.8039 46.797 39.4325C46.1685 40.061 45.9171 40.8153 45.9171 41.6952C45.9171 43.4551 47.4255 44.7122 49.0597 44.7122C49.9397 44.7122 50.6939 44.3351 51.1968 43.7065C51.8253 43.078 52.0767 42.198 52.0767 41.4438C52.0767 39.6839 50.6939 38.4268 49.0597 38.4268Z" fill="url(#paint13_linear)"/>
<path d="M48.8083 42.5751C48.6826 42.5751 48.4312 42.5751 48.4312 42.4494C48.3055 42.4494 48.1798 42.3237 48.1798 42.3237L48.3055 41.9465C48.4312 41.9465 48.4312 42.0722 48.5569 42.0722C48.6826 42.0722 48.8083 42.0722 48.934 42.0722C49.0597 42.0722 49.1854 42.0722 49.1854 41.9465L49.3111 41.8208V41.6951C49.3111 41.6951 49.3111 41.6951 49.1854 41.5694C49.1854 41.5694 49.0597 41.5694 49.0597 41.4437C48.934 41.4437 48.934 41.4437 48.8083 41.318C48.6826 41.318 48.6826 41.318 48.5569 41.1923C48.4312 41.1923 48.4312 41.0666 48.3055 41.0666C48.1798 41.0666 48.1798 40.9409 48.1798 40.9409C48.1798 40.8152 48.1798 40.8152 48.0541 40.6895C48.0541 40.5638 48.0541 40.5638 48.0541 40.4381C48.0541 40.3124 48.0541 40.3124 48.1798 40.1866L48.3055 40.0609C48.4312 40.0609 48.4312 39.9352 48.5569 39.9352V39.5581H49.0597V39.9352C49.1854 39.9352 49.3111 39.9352 49.4369 39.9352C49.5626 39.9352 49.5626 39.9352 49.6883 40.0609V40.8152C49.5626 40.8152 49.5626 40.8152 49.4369 40.6895C49.3111 40.6895 49.1854 40.6895 49.0597 40.6895C48.934 40.6895 48.8083 40.6895 48.8083 40.8152L48.6826 40.9409V41.0666C48.6826 41.0666 48.6826 41.0666 48.8083 41.1923H48.934H49.0597C49.1854 41.1923 49.3111 41.318 49.3111 41.318C49.4369 41.318 49.4369 41.4437 49.5626 41.4437C49.6883 41.4437 49.6883 41.5694 49.6883 41.6951C49.6883 41.8208 49.6883 41.8208 49.814 41.9465C49.814 42.0722 49.814 42.0722 49.814 42.198C49.814 42.3237 49.814 42.3237 49.6883 42.4494C49.6883 42.4494 49.5626 42.5751 49.4369 42.5751C49.3111 42.5751 49.3111 42.7008 49.1854 42.7008V43.2036H48.6826L48.8083 42.5751Z" fill="white"/>
<path d="M44.1571 46.3463C44.1571 47.352 43.4029 48.1062 42.3972 48.1062C41.3916 48.1062 40.6373 47.352 40.6373 46.3463C40.6373 45.3407 41.3916 44.5864 42.3972 44.5864C43.4029 44.4607 44.1571 45.3407 44.1571 46.3463Z" fill="url(#paint14_linear)"/>
<path d="M42.3973 48.8604C41.0145 48.8604 39.8831 47.729 39.8831 46.3462C39.8831 44.9635 41.0145 43.8321 42.3973 43.8321C43.78 43.8321 44.9114 44.9635 44.9114 46.3462C44.9114 47.729 43.78 48.8604 42.3973 48.8604ZM42.3973 44.3349C41.2659 44.3349 40.3859 45.2149 40.3859 46.3462C40.3859 47.4776 41.2659 48.3575 42.3973 48.3575C43.5286 48.3575 44.4086 47.4776 44.4086 46.3462C44.4086 45.2149 43.5286 44.3349 42.3973 44.3349Z" fill="url(#paint15_linear)"/>
<path d="M42.3972 48.8605C41.0145 48.8605 39.7574 47.7291 39.7574 46.2207C39.7574 44.8379 40.8887 43.5808 42.3972 43.5808C43.78 43.5808 45.0371 44.7122 45.0371 46.2207C45.0371 47.7291 43.9057 48.8605 42.3972 48.8605ZM42.3972 43.8322C41.0145 43.8322 40.0088 44.9636 40.0088 46.3464C40.0088 47.7291 41.1402 48.8605 42.3972 48.8605C43.78 48.8605 44.7857 47.7291 44.7857 46.3464C44.9114 44.9636 43.78 43.8322 42.3972 43.8322ZM42.3972 48.3577C41.2659 48.3577 40.3859 47.4777 40.3859 46.3464C40.3859 45.215 41.2659 44.3351 42.3972 44.3351C43.5286 44.3351 44.4085 45.215 44.4085 46.3464C44.4085 47.4777 43.5286 48.3577 42.3972 48.3577ZM42.3972 44.3351C41.3916 44.3351 40.5116 45.215 40.5116 46.2207C40.5116 47.2263 41.3916 48.1063 42.3972 48.1063C43.4029 48.232 44.2828 47.352 44.2828 46.3464C44.2828 45.215 43.4029 44.3351 42.3972 44.3351Z" fill="url(#paint16_linear)"/>
<path d="M42.2715 46.975C42.1458 46.975 42.0201 46.975 42.0201 46.975C41.8944 46.975 41.8944 46.975 41.8944 46.8493L42.0201 46.5978C42.0201 46.5978 42.1458 46.5978 42.2715 46.7235C42.3972 46.7235 42.3972 46.7235 42.5229 46.7235C42.6486 46.7235 42.6486 46.7235 42.7743 46.7235V46.5978C42.7743 46.5978 42.7743 46.5978 42.7743 46.4721C42.7743 46.4721 42.7743 46.4721 42.6486 46.4721H42.5229H42.3972C42.3972 46.4721 42.2715 46.4721 42.2715 46.3464L42.1458 46.2207V46.095V45.9693C42.1458 45.9693 42.1458 45.8436 42.2715 45.8436L42.3972 45.7179H42.5229V45.2151H42.7743V45.4665C42.9 45.4665 42.9 45.4665 43.0257 45.4665H43.1515L42.9 45.8436H42.7743C42.6486 45.8436 42.6486 45.8436 42.5229 45.8436C42.3972 45.8436 42.3972 45.8436 42.3972 45.8436C42.3972 45.8436 42.3972 45.8436 42.3972 45.9693C42.3972 45.9693 42.3972 45.9693 42.3972 46.095C42.3972 46.095 42.3972 46.095 42.5229 46.095H42.6486C42.7743 46.095 42.7743 46.095 42.9 46.2207L43.0257 46.3464L43.1515 46.4721V46.5978V46.7235C43.1515 46.7235 43.1515 46.8493 43.0257 46.8493L42.9 46.975C42.9 46.975 42.7743 46.975 42.6486 46.975V47.2264H42.2715V46.975Z" fill="white"/>
<path d="M49.3112 144.523C54.2404 144.523 58.2364 140.527 58.2364 135.598C58.2364 130.669 54.2404 126.673 49.3112 126.673C44.3819 126.673 40.386 130.669 40.386 135.598C40.386 140.527 44.3819 144.523 49.3112 144.523Z" fill="white"/>
<path d="M57.4821 131.827C57.4821 131.827 54.5908 151.689 28.1924 147.792C29.9523 154.203 42.7744 158.854 50.8196 154.454C58.8649 150.055 61.8819 139.872 57.4821 131.827Z" fill="white"/>
<path d="M54.3395 143.015C54.3395 143.015 43.2772 147.792 36.8662 133.084C34.2263 135.975 35.7348 144.021 40.6374 146.786C45.4143 149.552 51.5739 147.918 54.3395 143.015Z" fill="white"/>
<path d="M47.8027 142.009C47.8027 142.009 40.386 147.038 33.7235 137.232C32.215 139.747 34.4777 145.278 38.3746 146.66C42.2716 148.043 46.5456 145.906 47.8027 142.009Z" fill="white"/>
<path d="M45.7913 145.655C45.7913 145.655 38.3746 148.169 32.0893 141.632C31.2093 143.644 33.5977 147.666 36.7404 148.169C39.8831 148.672 45.2885 148.672 45.7913 145.655Z" fill="white"/>
<path d="M52.9567 131.575L60.8762 130.067L56.0993 135.85L52.9567 131.575Z" fill="white"/>
<path d="M54.088 131.953L61.8818 133.461L55.3451 137.107L54.088 131.953Z" fill="white"/>
<path d="M52.8309 133.084C52.8309 133.964 52.0767 134.718 51.1967 134.718C50.3168 134.718 49.5625 133.964 49.5625 133.084C49.5625 132.204 50.3168 131.45 51.1967 131.45C52.0767 131.45 52.8309 132.078 52.8309 133.084Z" fill="white"/>
<path d="M52.2024 133.084C52.2024 133.587 51.6996 134.09 51.1968 134.09C50.6939 134.09 50.1911 133.587 50.1911 133.084C50.1911 132.581 50.6939 132.078 51.1968 132.078C51.6996 132.078 52.2024 132.455 52.2024 133.084Z" fill="#2C3E50"/>
<path d="M84.7605 142.386C84.7605 142.386 85.6405 135.724 86.269 135.095C86.8976 134.467 88.0289 133.587 91.0459 134.718C93.9372 137.107 84.7605 142.386 84.7605 142.386Z" fill="#DEC257"/>
<path d="M93.8114 137.107C93.0572 137.861 91.9258 137.987 91.1716 137.233C90.4173 136.478 90.2916 135.347 91.0459 134.593L99.3425 125.919C99.9711 125.039 100.851 124.913 101.605 125.668C102.36 126.422 102.36 127.302 101.605 128.056L93.8114 137.107Z" fill="#F1D35E"/>
<path d="M96.0742 140.124C95.6971 140.627 94.6914 140.375 93.9372 139.621C93.1829 138.867 92.8058 137.861 93.1829 137.358L97.9598 132.33C98.3369 131.827 99.3426 132.079 100.097 132.833C100.851 133.587 100.6 134.97 100.097 135.347L96.0742 140.124Z" fill="#F1D35E"/>
<path d="M98.714 142.889C98.3369 143.266 97.4569 143.015 96.7027 142.261C95.9484 141.506 95.5713 140.627 95.9484 140.249L99.9711 135.85C100.348 135.473 101.228 135.724 101.982 136.478C102.737 137.232 102.36 138.741 101.982 139.118L98.714 142.889Z" fill="#F1D35E"/>
<path d="M101.48 145.529C101.228 145.906 100.348 145.529 99.594 144.901C98.8397 144.146 98.4626 143.392 98.714 143.015L102.108 139.244C102.36 138.867 103.239 139.244 103.994 139.872C104.748 140.627 104.119 142.512 103.868 142.764L101.48 145.529Z" fill="#F1D35E"/>
<path d="M96.577 150.935C95.8228 151.815 94.3143 151.94 93.4344 151.06L85.5148 143.895C84.6349 143.015 84.5092 141.632 85.3891 140.752L90.5431 135.096C91.2973 134.216 92.8058 134.09 93.6858 134.97L101.605 142.135C102.485 142.889 102.611 144.398 101.731 145.278L96.577 150.935Z" fill="#F1D35E"/>
<path d="M90.9202 155.209L81.8693 147.038C81.2408 146.409 81.115 145.404 81.6179 144.901L83.3778 143.015C83.8806 142.387 84.8863 142.387 85.5148 143.015L94.5657 151.186C95.1942 151.815 95.32 152.82 94.8171 153.323L93.0572 155.334C92.5544 155.837 91.5487 155.837 90.9202 155.209Z" fill="#ECF0F1"/>
<path d="M48.1797 180.099L81.115 143.769C81.6178 143.141 83.5034 142.135 84.132 142.638L95.0685 152.569C95.697 153.072 94.6914 155.083 94.1885 155.712L61.2533 192.041" fill="#86AF5C"/>
<path d="M48.1797 180.099L81.115 143.769C81.6178 143.141 83.5034 142.135 84.132 142.638L88.5317 146.661C89.1602 147.164 89.1602 148.169 88.6574 148.672L54.7165 186.007" fill="#9ECF6D"/>
<path d="M101.228 127.804C100.851 128.181 100.348 127.93 99.9711 127.553C99.594 127.176 99.2168 126.673 99.594 126.296C99.9711 125.919 100.725 125.667 101.228 126.17C101.731 126.673 101.48 127.427 101.228 127.804Z" fill="#909294"/>
<path d="M101.228 127.679C100.851 127.93 100.474 127.804 99.9711 127.427C99.5939 127.05 99.3425 126.673 99.7196 126.296C100.097 125.919 100.725 125.542 101.228 126.045C101.731 126.547 101.48 127.302 101.228 127.679Z" fill="#FAFEFF"/>
</g>
</g>
<defs>
<linearGradient id="paint0_linear" x1="97.3753" y1="126.34" x2="80.8605" y2="99.5127" gradientUnits="userSpaceOnUse">
<stop offset="0.4424" stop-color="#D5331C"/>
<stop offset="0.4485" stop-color="#D5613E"/>
</linearGradient>
<linearGradient id="paint1_linear" x1="101.923" y1="32.7059" x2="101.923" y2="68.3753" gradientUnits="userSpaceOnUse">
<stop stop-color="#34D1CE"/>
<stop offset="1" stop-color="#3495D1"/>
</linearGradient>
<linearGradient id="paint2_linear" x1="77.4997" y1="47.8388" x2="80.6512" y2="47.8388" gradientUnits="userSpaceOnUse">
<stop offset="0.5096" stop-color="#FFFCE3"/>
</linearGradient>
<linearGradient id="paint3_linear" x1="34.3256" y1="55.4879" x2="54.4224" y2="75.5847" gradientUnits="userSpaceOnUse">
<stop offset="0.5" stop-color="#E84E40"/>
</linearGradient>
<linearGradient id="paint4_linear" x1="37.1377" y1="37.1016" x2="44.1408" y2="37.1016" gradientUnits="userSpaceOnUse">
<stop offset="0.5" stop-color="#FDD835"/>
</linearGradient>
<linearGradient id="paint5_linear" x1="35.9861" y1="37.1017" x2="45.2922" y2="37.1017" gradientUnits="userSpaceOnUse">
<stop offset="0.5" stop-color="#FDD835"/>
</linearGradient>
<linearGradient id="paint6_linear" x1="35.9861" y1="37.1018" x2="45.2922" y2="37.1018" gradientUnits="userSpaceOnUse">
<stop offset="0.5" stop-color="#FDD835"/>
</linearGradient>
<linearGradient id="paint7_linear" x1="35.9095" y1="37.1032" x2="45.3715" y2="37.1032" gradientUnits="userSpaceOnUse">
<stop offset="0.5" stop-color="#FDD835"/>
</linearGradient>
<linearGradient id="paint8_linear" x1="36.0654" y1="37.1018" x2="45.2156" y2="37.1018" gradientUnits="userSpaceOnUse">
<stop offset="0.5" stop-color="#FDD835"/>
</linearGradient>
<linearGradient id="paint9_linear" x1="35.9095" y1="37.1029" x2="45.3714" y2="37.1029" gradientUnits="userSpaceOnUse">
<stop offset="0.5" stop-color="#FDD835"/>
</linearGradient>
<linearGradient id="paint10_linear" x1="35.9095" y1="37.1032" x2="45.3715" y2="37.1032" gradientUnits="userSpaceOnUse">
<stop offset="0.5" stop-color="#FDD835"/>
</linearGradient>
<linearGradient id="paint11_linear" x1="46.2822" y1="41.6206" x2="51.766" y2="41.4263" gradientUnits="userSpaceOnUse">
<stop offset="0.5" stop-color="#FDD835"/>
</linearGradient>
<linearGradient id="paint12_linear" x1="45.32" y1="41.5231" x2="52.7291" y2="41.5231" gradientUnits="userSpaceOnUse">
<stop offset="0.5" stop-color="#FDD835"/>
</linearGradient>
<linearGradient id="paint13_linear" x1="45.2407" y1="41.5242" x2="52.8071" y2="41.5242" gradientUnits="userSpaceOnUse">
<stop offset="0.5" stop-color="#FDD835"/>
</linearGradient>
<linearGradient id="paint14_linear" x1="40.6398" y1="46.2985" x2="44.2137" y2="46.2985" gradientUnits="userSpaceOnUse">
<stop offset="0.5" stop-color="#FDD835"/>
</linearGradient>
<linearGradient id="paint15_linear" x1="39.9171" y1="46.2972" x2="44.9365" y2="46.2972" gradientUnits="userSpaceOnUse">
<stop offset="0.5" stop-color="#FDD835"/>
</linearGradient>
<linearGradient id="paint16_linear" x1="39.8404" y1="46.2999" x2="45.0145" y2="46.2999" gradientUnits="userSpaceOnUse">
<stop offset="0.5" stop-color="#FDD835"/>
</linearGradient>
<clipPath id="clip0">
<rect width="200" height="200" fill="white"/>
</clipPath>
<clipPath id="clip1">
<rect width="200" height="185.041" fill="white" transform="translate(-6 7)"/>
</clipPath>
</defs>
</svg>
