<svg width="200" height="174" viewBox="0 0 200 174" fill="none" xmlns="http://www.w3.org/2000/svg">
<path d="M162.179 144.844L161.083 144.022C161.768 143.063 162.453 142.172 163.138 141.213L164.303 142.035C163.549 142.926 162.864 143.885 162.179 144.844ZM166.221 139.02L165.057 138.266C165.673 137.307 166.29 136.279 166.838 135.252L168.071 135.937C167.455 137.033 166.838 137.992 166.221 139.02ZM169.716 132.854L168.482 132.237C169.031 131.209 169.51 130.181 170.058 129.085L171.292 129.702C170.812 130.73 170.264 131.826 169.716 132.854ZM172.73 126.482L171.429 125.933C171.908 124.837 172.319 123.809 172.73 122.713L174.032 123.193C173.621 124.289 173.142 125.385 172.73 126.482ZM175.197 119.835L173.827 119.424C174.169 118.328 174.512 117.232 174.854 116.067L176.225 116.41C175.882 117.574 175.54 118.671 175.197 119.835ZM177.047 112.984L175.677 112.641C175.951 111.545 176.156 110.38 176.362 109.215L177.732 109.489C177.595 110.723 177.321 111.819 177.047 112.984ZM178.417 106.064L177.047 105.858C177.184 104.693 177.39 103.597 177.458 102.432L178.828 102.569C178.691 103.734 178.554 104.899 178.417 106.064ZM179.102 99.0064L177.732 98.9378C177.801 97.7731 177.869 96.6083 177.869 95.4435H179.239C179.239 96.6083 179.171 97.8416 179.102 99.0064ZM177.869 91.9491C177.869 90.7844 177.801 89.6196 177.732 88.4548L179.102 88.3863C179.171 89.5511 179.239 90.7158 179.239 91.9491H177.869ZM177.458 84.9604C177.321 83.7957 177.184 82.6309 177.047 81.5346L178.417 81.3291C178.554 82.4938 178.76 83.6586 178.828 84.8234L177.458 84.9604ZM176.43 78.1088C176.225 76.944 175.951 75.8477 175.677 74.683L177.047 74.3404C177.321 75.5052 177.595 76.6699 177.801 77.8347L176.43 78.1088ZM174.786 71.3256C174.443 70.2294 174.101 69.1331 173.758 68.0368L175.06 67.5572C175.471 68.6535 175.814 69.8183 176.156 70.9145L174.786 71.3256ZM172.525 64.8166C172.114 63.7203 171.634 62.6925 171.155 61.5963L172.456 60.9796C172.936 62.0759 173.416 63.1036 173.827 64.1999L172.525 64.8166ZM169.647 58.4445C169.099 57.4168 168.551 56.389 168.003 55.4298L169.236 54.7446C169.853 55.7724 170.401 56.8001 170.949 57.8279L169.647 58.4445ZM166.153 52.4836C165.536 51.5243 164.851 50.5651 164.234 49.6059L165.399 48.7837C166.084 49.7429 166.769 50.7021 167.386 51.7299L166.153 52.4836ZM162.11 46.7967C161.425 45.906 160.671 45.0153 159.918 44.1245L161.014 43.2338C161.768 44.1245 162.521 45.0153 163.275 45.9745L162.11 46.7967ZM157.588 41.5209C156.766 40.6987 156.012 39.8765 155.122 39.0543L156.081 38.0266C156.903 38.8488 157.725 39.671 158.547 40.5617L157.588 41.5209ZM152.587 36.6562C151.696 35.9025 150.874 35.1489 149.914 34.3952L150.805 33.2989C151.696 34.0526 152.587 34.8063 153.477 35.6285L152.587 36.6562ZM147.242 32.2026C146.352 31.5175 145.392 30.8323 144.433 30.1472L145.255 28.9824C146.214 29.6675 147.174 30.3527 148.133 31.1064L147.242 32.2026ZM141.555 28.1602C140.596 27.5435 139.568 26.9269 138.609 26.3102L139.363 25.0769C140.391 25.6936 141.35 26.3102 142.378 26.9269L141.555 28.1602ZM135.594 24.5288C134.567 23.9807 133.539 23.4325 132.511 22.8844L133.128 21.6511C134.156 22.1992 135.252 22.7474 136.211 23.2955L135.594 24.5288Z" fill="white"/>
<path d="M33.5046 153.957C32.6824 153.135 31.8603 152.244 31.0381 151.422L32.0658 150.462C32.8195 151.285 33.6417 152.175 34.4639 152.998L33.5046 153.957ZM28.7085 148.749C27.9548 147.859 27.2011 146.968 26.4474 146.009L27.5437 145.118C28.2289 146.009 28.9826 146.968 29.7362 147.79L28.7085 148.749ZM24.3234 143.131C23.6383 142.172 22.9531 141.213 22.3364 140.185L23.5012 139.431C24.1179 140.39 24.803 141.35 25.4882 142.309L24.3234 143.131ZM20.4865 137.239C19.8698 136.211 19.3217 135.183 18.7051 134.155L19.9384 133.47C20.4865 134.498 21.0346 135.526 21.6513 136.485L20.4865 137.239ZM17.0607 131.004C16.5125 129.976 16.0329 128.88 15.5533 127.783L16.8551 127.235C17.3347 128.332 17.8143 129.359 18.294 130.387L17.0607 131.004ZM14.2515 124.495C13.8404 123.398 13.4293 122.302 13.0182 121.206L14.32 120.726C14.7311 121.822 15.0737 122.919 15.4848 124.015L14.2515 124.495ZM11.9219 117.849C11.5793 116.752 11.3053 115.587 10.9627 114.423L12.333 114.08C12.6071 115.176 12.9497 116.341 13.2237 117.437L11.9219 117.849ZM10.209 110.997C10.0034 109.832 9.72938 108.667 9.59235 107.502L10.9627 107.297C11.1682 108.462 11.3738 109.558 11.5793 110.723L10.209 110.997ZM9.11273 104.008C8.9757 102.843 8.83867 101.679 8.77015 100.514L10.1405 100.377C10.209 101.542 10.346 102.706 10.4831 103.871L9.11273 104.008ZM8.49608 96.9509C8.42757 95.8547 8.42757 94.6899 8.42757 93.5251L9.86642 93.3881C9.86642 94.6214 9.86642 95.7862 9.93493 96.8824L8.49608 96.9509ZM9.93493 89.8937L8.5646 89.8252C8.63312 88.6604 8.70163 87.4271 8.77015 86.2623L10.1405 86.3994C10.072 87.5642 10.0034 88.7289 9.93493 89.8937ZM10.4831 82.9735L9.11273 82.768C9.24977 81.6032 9.45532 80.4384 9.66087 79.2736L11.0312 79.5477C10.8256 80.644 10.6886 81.8088 10.4831 82.9735ZM11.7164 76.1219L10.346 75.8478C10.6201 74.683 10.8942 73.5183 11.1682 72.422L12.5386 72.7646C12.2645 73.8608 11.9904 74.9571 11.7164 76.1219ZM13.4978 69.4073L12.1275 68.9962C12.5386 67.8314 12.9497 66.7351 13.3608 65.6388L14.6626 66.1185C14.2515 67.2147 13.9089 68.311 13.4978 69.4073ZM15.9644 62.8982L14.7311 62.35C15.2107 61.2538 15.6903 60.1575 16.2385 59.1298L17.4718 59.7464C16.9236 60.7742 16.444 61.8704 15.9644 62.8982ZM19.1162 56.6632L17.8829 55.978C18.431 54.9503 19.0476 53.9225 19.6643 52.8947L20.8291 53.6484C20.2809 54.6762 19.6643 55.7039 19.1162 56.6632ZM22.7475 50.7707L21.6513 50.0171C22.3364 49.0578 23.0216 48.0986 23.7753 47.1394L24.803 47.9616C24.1179 48.9208 23.4327 49.88 22.7475 50.7707ZM26.9956 45.2894L25.9678 44.3987C26.7215 43.508 27.4752 42.6173 28.2974 41.7265L29.3251 42.6858C28.5029 43.5765 27.7493 44.3987 26.9956 45.2894ZM31.7232 40.2192L30.764 39.1914C31.5862 38.3692 32.4769 37.547 33.2991 36.7933L34.2583 37.8211C33.3676 38.5748 32.5454 39.397 31.7232 40.2192ZM36.862 35.5601L35.9712 34.4638C36.862 33.7101 37.8212 32.9564 38.7119 32.2713L39.5341 33.3675C38.7119 34.0527 37.7527 34.8064 36.862 35.5601ZM42.4118 31.312L41.5896 30.1472C42.5488 29.4621 43.5766 28.7769 44.5358 28.1603L45.2895 29.325C44.3303 29.9417 43.371 30.6269 42.4118 31.312ZM48.2357 27.4751L47.5506 26.3103C48.5783 25.6937 49.6061 25.1455 50.6338 24.5289L51.319 25.7622C50.2912 26.3103 49.2635 26.8584 48.2357 27.4751ZM54.3337 24.1178L53.7171 22.8845C54.7448 22.3363 55.8411 21.7882 56.8688 21.3086L57.4855 22.6104C56.4577 23.09 55.3614 23.5696 54.3337 24.1178Z" fill="white"/>
<path fill-rule="evenodd" clip-rule="evenodd" d="M193.285 125.18V162.384C193.285 162.384 192.395 166.153 189.928 166.495H172.456C171.771 167.866 169.853 171.36 167.318 172.662C167.318 172.662 163.755 174.512 160.397 172.936C160.397 172.936 156.218 171.292 155.259 166.358C155.259 166.358 154.985 163.275 156.218 161.083C156.218 161.083 156.012 160.397 157.04 159.575L158.822 157.588V159.918L157.52 161.288C157.52 161.288 156.766 161.905 156.766 161.562C156.766 161.562 155.464 164.166 156.286 167.249C156.286 167.249 157.383 171.223 161.425 172.456C161.425 172.456 165.331 173.964 169.03 170.538C169.03 170.538 170.743 168.277 171.634 166.427H162.727C162.727 166.427 159.027 165.673 159.027 162.316V125.111C159.027 125.111 158.89 121.48 163.344 121.069H189.517C189.517 121.137 192.943 121.617 193.285 125.18Z" fill="#2AA7AD"/>
<path fill-rule="evenodd" clip-rule="evenodd" d="M189.517 158.753V121.96C189.517 119.63 187.667 117.78 185.337 117.78H167.66V162.864H185.337C187.667 162.933 189.517 161.014 189.517 158.753Z" fill="#154459"/>
<path fill-rule="evenodd" clip-rule="evenodd" d="M189.517 158.753V153.683H167.66V162.932H185.337C187.667 162.932 189.517 161.014 189.517 158.753Z" fill="#0F303F"/>
<path opacity="0.65" fill-rule="evenodd" clip-rule="evenodd" d="M189.791 158.753V121.96C189.791 120.726 189.311 119.63 188.489 118.808C187.667 117.986 186.571 117.506 185.337 117.506H167.66V118.054H185.337C186.434 118.054 187.393 118.465 188.078 119.219C188.763 119.904 189.243 120.932 189.243 121.96V158.684C189.243 159.781 188.832 160.74 188.078 161.425C187.393 162.11 186.365 162.59 185.337 162.59H167.66V163.138H185.337C186.571 163.138 187.667 162.658 188.489 161.836C189.311 161.083 189.791 159.918 189.791 158.753Z" fill="white"/>
<path d="M186.434 121.686H167.66V150.188H186.434V121.686Z" fill="#46AFB3"/>
<path fill-rule="evenodd" clip-rule="evenodd" d="M155.533 158.753V121.96C155.533 119.63 157.383 117.78 159.712 117.78H177.389V162.864H159.712C157.451 162.933 155.533 161.014 155.533 158.753Z" fill="#154459"/>
<path fill-rule="evenodd" clip-rule="evenodd" d="M155.533 158.753V153.683H177.389V162.932H159.712C157.451 162.932 155.533 161.014 155.533 158.753Z" fill="#0F303F"/>
<path opacity="0.65" fill-rule="evenodd" clip-rule="evenodd" d="M155.259 158.753V121.96C155.259 120.726 155.738 119.63 156.56 118.808C157.383 117.986 158.479 117.506 159.712 117.506H177.389V118.054H159.712C158.616 118.054 157.657 118.465 156.972 119.219C156.286 119.904 155.807 120.932 155.807 121.96V158.684C155.807 159.781 156.218 160.74 156.972 161.425C157.657 162.11 158.684 162.59 159.712 162.59H177.389V163.138H159.712C158.479 163.138 157.383 162.658 156.56 161.836C155.807 161.083 155.259 159.918 155.259 158.753Z" fill="white"/>
<path fill-rule="evenodd" clip-rule="evenodd" d="M172.045 153.683V118.123H159.781C159.781 118.123 156.423 117.986 155.875 121.754V153.751H172.045V153.683Z" fill="#19526B"/>
<path d="M178.143 121.686H158.616V150.188H178.143V121.686Z" fill="#46AFB3"/>
<path fill-rule="evenodd" clip-rule="evenodd" d="M172.045 162.658V153.683H155.944L155.875 158.753C155.875 158.753 155.875 162.384 159.781 162.658H172.045Z" fill="#144054"/>
<path fill-rule="evenodd" clip-rule="evenodd" d="M164.508 146.283L154.231 157.725C153.203 158.753 152.038 157.725 153.203 156.492L163.344 145.187C164.645 143.748 164.714 143.748 166.495 142.857C165.81 144.707 165.81 144.844 164.508 146.283Z" fill="#F4DB81"/>
<path fill-rule="evenodd" clip-rule="evenodd" d="M154.368 157.52L154.231 157.725C153.203 158.753 152.038 157.725 153.203 156.492L153.34 156.355C153.683 156.698 154.094 157.109 154.368 157.52Z" fill="#154459"/>
<path fill-rule="evenodd" clip-rule="evenodd" d="M153.203 158.136C152.998 158.616 152.861 159.164 152.724 159.644C152.586 160.123 152.518 160.603 152.518 161.083C152.312 163.481 153.135 165.536 154.573 166.975C154.71 167.112 154.779 167.181 154.916 167.318C155.053 167.455 155.122 167.523 155.259 167.592C155.875 168.071 156.56 168.482 157.314 168.825C157.451 168.893 157.588 168.962 157.725 168.962C157.862 169.03 157.999 169.03 158.136 169.099C158.89 169.305 159.712 169.373 160.534 169.373C160.946 169.373 161.357 169.305 161.768 169.236C162.179 169.167 162.59 169.03 162.932 168.825C164.919 168.003 166.838 166.221 168.071 163.207H168.825L168.756 163.344C168.482 163.96 168.208 164.577 167.866 165.125C167.523 165.673 167.249 166.153 166.838 166.632C164.988 168.962 162.727 170.058 160.466 170.127C160.329 170.127 160.123 170.127 159.986 170.127C159.781 170.127 159.644 170.127 159.507 170.127C158.616 170.058 157.794 169.853 156.972 169.51C156.835 169.442 156.697 169.373 156.492 169.305C156.355 169.236 156.218 169.167 156.012 169.099C155.259 168.688 154.573 168.14 153.957 167.523C153.683 167.181 153.409 166.906 153.135 166.495C152.861 166.153 152.655 165.742 152.449 165.331C151.49 163.275 151.285 160.671 152.449 157.862L152.655 157.588H152.724C152.724 157.931 152.929 158.068 153.203 158.136Z" fill="#154569"/>
<path fill-rule="evenodd" clip-rule="evenodd" d="M166.701 142.926C166.632 142.994 166.495 142.926 166.427 142.857C166.358 142.789 166.427 142.652 166.495 142.583C166.701 142.446 167.112 142.309 167.592 142.035C169.03 141.418 171.223 140.391 171.223 139.774C171.223 139.431 170.538 139.226 168.551 139.089C168.414 139.089 168.345 139.02 168.345 138.883C168.345 138.883 168.345 138.883 168.345 138.815C168.345 138.746 168.345 138.746 168.414 138.746L168.482 138.678C168.482 138.678 168.551 138.609 168.619 138.609C168.893 138.472 169.442 138.267 169.442 138.13C169.442 138.061 169.305 137.993 168.756 137.924C168.619 137.924 168.551 137.787 168.619 137.718C168.619 137.718 168.619 137.718 168.619 137.65C168.688 137.513 168.893 137.376 169.168 137.307C169.51 137.17 169.99 136.896 170.058 136.691C170.127 136.485 170.538 136.485 170.401 136.828C170.264 137.17 169.716 137.444 169.305 137.65C169.716 137.787 169.853 137.993 169.853 138.198C169.853 138.404 169.579 138.609 169.305 138.746C171.017 138.883 171.634 139.294 171.634 139.774C171.566 140.596 169.305 141.692 167.729 142.309C167.318 142.652 166.906 142.857 166.701 142.926Z" fill="white"/>
<g opacity="0.85">
<path opacity="0.85" d="M172.045 159.986C172.991 159.986 173.758 159.219 173.758 158.273C173.758 157.327 172.991 156.56 172.045 156.56C171.099 156.56 170.332 157.327 170.332 158.273C170.332 159.219 171.099 159.986 172.045 159.986Z" fill="#F4DB81"/>
</g>
<path d="M183.282 130.045C183.282 132.648 181.158 134.772 178.554 134.772C175.951 134.772 173.827 132.648 173.827 130.045C173.827 127.441 175.951 125.317 178.554 125.317C181.226 125.317 183.282 127.441 183.282 130.045Z" stroke="white" stroke-width="0.096" stroke-miterlimit="10"/>
<path d="M183.213 137.581H174.032V146.762H183.213V137.581Z" stroke="white" stroke-width="0.096" stroke-miterlimit="10"/>
<path d="M162.727 141.898C161.562 141.898 160.603 140.939 160.603 139.774V126.071C160.603 124.906 161.562 123.947 162.727 123.947C163.892 123.947 164.851 124.906 164.851 126.071V139.774C164.851 141.007 163.892 141.898 162.727 141.898Z" stroke="white" stroke-width="0.096" stroke-miterlimit="10"/>
<path d="M178.486 31.175C178.486 41.3155 170.264 49.5375 160.123 49.5375C149.983 49.5375 141.761 41.3155 141.761 31.175C141.761 21.0346 149.983 12.8126 160.123 12.8126C170.195 12.7441 178.486 20.9661 178.486 31.175Z" fill="white"/>
<path fill-rule="evenodd" clip-rule="evenodd" d="M170.812 30.8324C172.319 29.8047 172.593 26.927 168.756 27.064H163.412C166.153 24.5974 165.879 18.2254 161.836 17.9513C161.699 21.2401 161.357 25.5567 156.56 27.064H156.423V41.521H166.906C168.551 41.4525 169.853 39.9452 169.168 38.6433C170.949 38.3693 171.977 35.6286 170.332 34.7379C172.319 34.1212 172.388 31.3121 170.812 30.8324Z" fill="#E8C8AE"/>
<path fill-rule="evenodd" clip-rule="evenodd" d="M168.345 26.8584H156.012V41.3154H166.495C167.934 41.3154 169.168 39.808 168.756 38.4377C170.264 38.0951 171.223 36.0396 169.921 34.5322C171.566 33.9156 171.634 31.0379 170.401 30.5583C171.84 29.7361 172.182 26.7898 168.345 26.8584Z" fill="#F7BE7B"/>
<path fill-rule="evenodd" clip-rule="evenodd" d="M161.425 17.7458C160.603 20.555 160.946 25.3511 156.012 26.8585L162.11 27.6807C165.057 25.8307 165.81 17.9513 161.425 17.7458Z" fill="#F7BE7B"/>
<path fill-rule="evenodd" clip-rule="evenodd" d="M166.153 30.5583L172.73 30.8324L172.525 30.5583H166.153Z" fill="white"/>
<path fill-rule="evenodd" clip-rule="evenodd" d="M165.81 34.4639L172.114 34.875L171.977 34.4639H165.81Z" fill="white"/>
<path fill-rule="evenodd" clip-rule="evenodd" d="M164.234 38.3692L170.469 38.7803L170.332 38.4377L164.234 38.3692Z" fill="white"/>
<path fill-rule="evenodd" clip-rule="evenodd" d="M155.944 26.5843H141.624C141.144 26.5843 140.802 26.7213 140.802 26.9269V41.3839C140.802 41.5894 141.213 41.7265 141.624 41.7265H155.944C156.423 41.7265 156.766 41.5894 156.766 41.3839V26.9269C156.835 26.7213 156.423 26.5843 155.944 26.5843Z" fill="#3E9A9E"/>
<path fill-rule="evenodd" clip-rule="evenodd" d="M161.425 17.6772C161.357 18.6364 161.288 19.5957 161.151 20.4864C161.562 20.5549 161.836 20.4179 162.042 20.2808C162.384 19.9383 162.727 18.4309 162.453 17.9513C162.247 17.7457 161.768 17.7457 161.425 17.6772Z" fill="#F7BE7B"/>
<path fill-rule="evenodd" clip-rule="evenodd" d="M140.802 26.9269V40.4246L155.327 26.5843H141.692C141.213 26.5843 140.802 26.7213 140.802 26.9269Z" fill="#43A7AB"/>
<path d="M134.293 24.0492C134.293 24.0492 134.087 23.6381 133.333 23.0215L134.224 21.9252C135.183 22.7474 135.526 23.3641 135.594 23.4326L134.293 24.0492Z" fill="white"/>
<path d="M130.593 21.3086C129.702 20.8975 128.674 20.4864 127.509 20.1439L127.921 18.7735C129.085 19.1846 130.182 19.5957 131.141 20.0068L130.593 21.3086ZM74.135 19.6642L73.9294 18.2939C75.0942 18.1569 76.1905 18.0198 77.2867 17.8828L77.4238 19.2531C76.396 19.3902 75.2998 19.5272 74.135 19.6642ZM124.358 19.2531C123.33 19.0476 122.302 18.842 121.069 18.6365L121.274 17.2662C122.508 17.4717 123.604 17.6773 124.632 17.9513L124.358 19.2531ZM80.8496 18.9106L80.7126 17.5402C81.8774 17.4032 82.9736 17.3347 84.0699 17.1977L84.2069 18.568C83.1107 18.705 82.0144 18.7735 80.8496 18.9106ZM87.5642 18.2939L87.4272 16.9236C88.592 16.8551 89.6883 16.718 90.7845 16.6495L90.853 18.0199C89.8253 18.0884 88.729 18.1569 87.5642 18.2939ZM117.78 18.0884C116.752 17.9513 115.656 17.8828 114.423 17.7458L114.56 16.3755C115.725 16.444 116.889 16.581 117.917 16.718L117.78 18.0884ZM94.2789 17.8143L94.2104 16.444C95.3751 16.3755 96.4714 16.3069 97.5677 16.3069L97.6362 17.6773C96.5399 17.6773 95.4437 17.7458 94.2789 17.8143ZM111.065 17.6087C109.969 17.5402 108.873 17.5402 107.708 17.4717V16.0329C108.873 16.0329 110.038 16.1014 111.134 16.1699L111.065 17.6087ZM100.993 17.5402L100.925 16.1699C102.09 16.1699 103.255 16.1014 104.351 16.1014V17.5402C103.255 17.4717 102.158 17.4717 100.993 17.5402Z" fill="white"/>
<path d="M70.5284 18.7238L68.7644 18.9721L68.965 20.3969L70.7289 20.1486L70.5284 18.7238Z" fill="white"/>
<g opacity="0.95">
<path opacity="0.95" fill-rule="evenodd" clip-rule="evenodd" d="M20.555 7.39972C21.6513 7.87934 22.4049 8.63302 22.8846 9.52373C26.2419 15.4162 19.8013 17.8142 19.5958 22.7474C19.5272 23.8437 19.8013 25.214 20.555 26.8584C21.3772 20.4179 25.9678 19.0475 26.3789 13.9088C26.5845 10.8941 25.0086 8.08489 20.555 7.39972Z" fill="#D1E6BB"/>
<path opacity="0.95" fill-rule="evenodd" clip-rule="evenodd" d="M28.1603 15.3477C28.3659 17.8143 26.927 19.4587 25.5567 21.4456C23.9123 23.7752 22.2679 26.1048 22.7475 29.3936C23.2271 24.0493 32.2713 21.2401 28.1603 15.3477Z" fill="#D1E6BB"/>
</g>
<path fill-rule="evenodd" clip-rule="evenodd" d="M61.802 43.7821L59.3354 21.8568L65.5019 21.0346L66.1185 13.4978L88.3865 15.3477L86.5365 37.273L83.5218 37.0675L84.0014 41.11L61.802 43.7821Z" fill="#2AA7AD"/>
<path d="M62.6251 9.94193L62.3889 12.8098L84.6494 14.6437L84.8856 11.7758L62.6251 9.94193Z" fill="#F36C35"/>
<path d="M62.3755 12.8524L60.8043 31.9718L83.0647 33.8012L84.636 14.6818L62.3755 12.8524Z" fill="#FDC00F"/>
<path fill-rule="evenodd" clip-rule="evenodd" d="M77.9034 15.8273L82.7681 33.7787L79.8904 33.5731L77.9034 15.8273Z" fill="#E0AA0D"/>
<path d="M78.0036 15.7541L55.8213 18.3764L56.1592 21.2342L78.3415 18.612L78.0036 15.7541Z" fill="#F36C35"/>
<path d="M78.276 18.5591L56.0937 21.1747L58.3402 40.227L80.5225 37.6114L78.276 18.5591Z" fill="white"/>
<path fill-rule="evenodd" clip-rule="evenodd" d="M77.2182 33.0249L60.8428 34.9434L60.7743 34.2582L77.1497 32.3398L77.2182 33.0249ZM75.8479 23.2956L59.4724 25.214L59.4039 24.5289L75.7794 22.6104L75.8479 23.2956ZM76.3275 26.5159L59.9521 28.4343L59.8835 27.7492L76.259 25.8307L76.3275 26.5159ZM76.8071 29.7361L60.4317 31.7231L60.3632 31.038L76.7386 29.1195L76.8071 29.7361Z" fill="#F4DB81"/>
<path d="M42.3433 39.26C40.5618 36.5879 38.0267 36.2453 36.9305 36.2453V33.6417H17.3347V51.6615C17.5403 55.2929 21.1716 55.4985 21.1716 55.4985H33.0935C36.3138 55.3614 36.8619 52.8948 36.9305 52.1411C38.7119 52.0726 40.1507 51.1819 40.1507 51.1819C43.7136 48.7153 43.7136 45.9061 43.7136 45.7691C44.4673 42.0692 42.3433 39.26 42.3433 39.26ZM39.5341 48.7838C38.4378 49.606 37.5471 49.8801 36.9305 49.8801V38.5063C38.5063 38.6434 39.5341 39.4656 39.5341 39.4656C41.5211 41.384 41.5896 43.371 41.5896 43.371C41.8636 47.1394 39.5341 48.7838 39.5341 48.7838Z" fill="#2AA7AD"/>
<path d="M33.2991 48.5782C29.3936 48.5782 26.2419 45.0154 26.2419 40.6303C26.2419 36.2452 29.3936 32.6824 33.2991 32.6824C37.2045 32.6824 40.3563 36.2452 40.3563 40.6303C40.3563 45.0154 37.2045 48.5782 33.2991 48.5782ZM33.2991 34.9434C30.6269 34.9434 28.4344 37.4785 28.4344 40.6303C28.4344 43.7821 30.6269 46.3172 33.2991 46.3172C35.9712 46.3172 38.1638 43.7821 38.1638 40.6303C38.0952 37.5471 35.9712 34.9434 33.2991 34.9434Z" fill="#DBDBDB"/>
<path d="M29.4622 52.0041H17.7458C15.5533 52.0041 13.7719 50.2226 13.7719 48.0301V30.1473H33.3676V48.0301C33.4361 50.2226 31.6547 52.0041 29.4622 52.0041Z" fill="#DBDBDB"/>
<path d="M33.2991 48.5782C29.3936 48.5782 26.2419 45.0154 26.2419 40.6303C26.2419 36.2452 29.3936 32.6824 33.2991 32.6824C37.2045 32.6824 40.3563 36.2452 40.3563 40.6303C40.3563 45.0154 37.2045 48.5782 33.2991 48.5782ZM33.2991 34.9434C30.6269 34.9434 28.4344 37.4785 28.4344 40.6303C28.4344 43.7821 30.6269 46.3172 33.2991 46.3172C35.9712 46.3172 38.1638 43.7821 38.1638 40.6303C38.0952 37.5471 35.9712 34.9434 33.2991 34.9434Z" fill="white"/>
<path d="M29.4622 52.0041H17.7458C15.5533 52.0041 13.7719 50.2226 13.7719 48.0301V30.1473H33.3676V48.0301C33.4361 50.2226 31.6547 52.0041 29.4622 52.0041Z" fill="url(#paint0_linear)"/>
<path d="M166.632 105.927L162.795 100.377V70.9147H170.606V100.308L166.632 105.927Z" fill="#2AA7AD"/>
<path d="M68.6537 150.463H57.9651V142.515H68.6537V143.885H74.135V149.298H68.6537V150.463Z" fill="#2AA7AD"/>
<path d="M82.1514 142.652H75.2312V150.6H82.1514V142.652Z" fill="#2AA7AD"/>
<path d="M82.9051 147.859C82.2199 147.859 81.6033 147.311 81.6033 146.557C81.6033 145.872 82.1514 145.255 82.9051 145.255C83.5902 145.255 84.2069 145.803 84.2069 146.557C84.2069 147.242 83.6588 147.859 82.9051 147.859ZM82.9051 145.598C82.4255 145.598 81.9458 146.009 81.9458 146.557C81.9458 147.105 82.3569 147.516 82.9051 147.516C83.4532 147.516 83.8643 147.105 83.8643 146.557C83.8643 146.009 83.4532 145.598 82.9051 145.598Z" fill="#2AA7AD"/>
<path d="M79.3422 144.707C79.5478 144.844 79.8219 144.981 80.0959 144.981C80.7811 144.981 81.3292 144.433 81.3292 143.748C81.3292 143.063 80.7811 142.515 80.0959 142.515C79.8219 142.515 79.5478 142.583 79.3422 142.789V139.842H72.4221V147.722H79.3422V144.707ZM80.8496 143.748C80.8496 144.159 80.507 144.433 80.1644 144.433C79.7533 144.433 79.4793 144.09 79.4793 143.748C79.4793 143.337 79.8219 143.063 80.1644 143.063C80.507 142.994 80.8496 143.337 80.8496 143.748Z" fill="#0F303F"/>
<path d="M72.96 140.328L72.9492 142.863L78.9101 142.889L78.9209 140.353L72.96 140.328Z" fill="#154459"/>
<path d="M55.2183 139.791L55.1862 147.671L65.8062 147.714L65.8383 139.834L55.2183 139.791Z" fill="#0F303F"/>
<path d="M55.6366 140.204L55.626 142.739L65.3554 142.779L65.366 140.244L55.6366 140.204Z" fill="#154459"/>
<path d="M65.8621 141.082L65.8395 146.495L71.3208 146.518L71.3435 141.105L65.8621 141.082Z" fill="#F9FCFF"/>
<path d="M65.8061 143.793L65.7951 146.465L71.2764 146.488L71.2875 143.816L65.8061 143.793Z" fill="#DBDCDD"/>
<path d="M68.5524 141.587L68.5462 143.163L70.6702 143.171L70.6764 141.595L68.5524 141.587Z" fill="#9BA1A5"/>
<path d="M68.4973 144.291L68.4904 145.867L70.6144 145.876L70.6213 144.3L68.4973 144.291Z" fill="#9BA1A5"/>
<path d="M175.54 62.0074V104.351H200L175.54 62.0074ZM180.404 79.7533L190.682 98.7324H181.021L180.404 79.7533Z" fill="#2AA7AD"/>
<path d="M163.07 102.501L159.233 96.8139L159.37 81.5347V67.4203H167.112L167.043 82.4255L166.975 96.8825L163.07 102.501Z" fill="#D1D1D1"/>
<path d="M172.045 58.5132V100.857H196.506L172.045 58.5132ZM176.91 76.259L187.187 95.2381H177.527L176.91 76.259Z" fill="#FDC00F"/>
<path d="M172.045 97.0195H173.279H172.045Z" stroke="white" stroke-width="0.0402" stroke-miterlimit="10"/>
<path d="M172.045 93.7309H173.279H172.045Z" stroke="white" stroke-width="0.0402" stroke-miterlimit="10"/>
<path d="M172.045 90.5106H173.279H172.045Z" stroke="white" stroke-width="0.0402" stroke-miterlimit="10"/>
<path d="M172.045 100.308H173.279H172.045Z" stroke="white" stroke-width="0.0402" stroke-miterlimit="10"/>
<path d="M172.045 98.7325H172.73H172.045Z" stroke="white" stroke-width="0.0402" stroke-miterlimit="10"/>
<path d="M172.045 95.3066H172.73H172.045Z" stroke="white" stroke-width="0.0402" stroke-miterlimit="10"/>
<path d="M172.045 92.0863H172.73H172.045Z" stroke="white" stroke-width="0.0402" stroke-miterlimit="10"/>
<path d="M172.045 88.7976H172.73H172.045Z" stroke="white" stroke-width="0.0402" stroke-miterlimit="10"/>
<path d="M172.045 85.5774H172.73H172.045Z" stroke="white" stroke-width="0.0402" stroke-miterlimit="10"/>
<path d="M172.045 82.2885H172.73H172.045Z" stroke="white" stroke-width="0.0402" stroke-miterlimit="10"/>
<path d="M172.045 78.9312H172.73H172.045Z" stroke="white" stroke-width="0.0402" stroke-miterlimit="10"/>
<path d="M172.045 75.711H172.73H172.045Z" stroke="white" stroke-width="0.0402" stroke-miterlimit="10"/>
<path d="M172.045 72.4221H172.73H172.045Z" stroke="white" stroke-width="0.0402" stroke-miterlimit="10"/>
<path d="M172.045 69.1334H172.73H172.045Z" stroke="white" stroke-width="0.0402" stroke-miterlimit="10"/>
<path d="M172.045 65.9131H172.73H172.045Z" stroke="white" stroke-width="0.0402" stroke-miterlimit="10"/>
<path d="M172.045 62.6243H172.73H172.045Z" stroke="white" stroke-width="0.0402" stroke-miterlimit="10"/>
<path d="M172.045 87.2217H173.279H172.045Z" stroke="white" stroke-width="0.0402" stroke-miterlimit="10"/>
<path d="M172.045 83.9328H173.279H172.045Z" stroke="white" stroke-width="0.0402" stroke-miterlimit="10"/>
<path d="M172.045 80.6442H173.279H172.045Z" stroke="white" stroke-width="0.0402" stroke-miterlimit="10"/>
<path d="M172.045 77.3553H173.279H172.045Z" stroke="white" stroke-width="0.0402" stroke-miterlimit="10"/>
<path d="M172.045 74.0666H173.279H172.045Z" stroke="white" stroke-width="0.0402" stroke-miterlimit="10"/>
<path d="M172.045 70.7778H173.279H172.045Z" stroke="white" stroke-width="0.0402" stroke-miterlimit="10"/>
<path d="M172.045 67.4889H173.279H172.045Z" stroke="white" stroke-width="0.0402" stroke-miterlimit="10"/>
<path d="M172.045 64.2002H173.279H172.045Z" stroke="white" stroke-width="0.0402" stroke-miterlimit="10"/>
<path d="M172.045 60.9113H173.279H172.045Z" stroke="white" stroke-width="0.0402" stroke-miterlimit="10"/>
<path d="M175.334 100.445H173.895V100.651H173.69C173.69 100.582 173.69 100.514 173.621 100.445C173.553 100.377 173.553 100.308 173.484 100.308V100.103H175.334V100.445V100.445Z" fill="white"/>
<path d="M173.964 97.4993C173.758 97.4993 173.621 97.4308 173.553 97.3623C173.484 97.2938 173.416 97.1567 173.416 97.0197C173.416 96.8827 173.484 96.8141 173.553 96.6771C173.621 96.6086 173.758 96.5401 173.895 96.5401C174.032 96.5401 174.169 96.5401 174.238 96.6086C174.306 96.6086 174.443 96.7456 174.58 96.8141C174.649 96.8141 174.717 96.8827 174.786 96.9512L174.854 97.0197C174.923 97.0197 174.923 97.0882 174.991 97.0882V96.6086H175.265V97.4993H174.991C174.991 97.4993 174.923 97.4993 174.923 97.4308L174.854 97.3623L174.717 97.2938C174.649 97.2252 174.58 97.1567 174.443 97.0882C174.306 97.0197 174.238 96.9512 174.101 96.8827C174.032 96.8141 173.964 96.8141 173.895 96.8141C173.827 96.8141 173.758 96.8141 173.758 96.8827C173.69 96.8827 173.69 96.9512 173.69 97.0197C173.69 97.0882 173.758 97.1567 173.827 97.1567C173.827 97.1567 173.895 97.1567 173.964 97.1567H174.032L173.964 97.4993Z" fill="white"/>
<path d="M175.06 93.7309C175.06 93.5938 174.991 93.5253 174.854 93.5253H174.717C174.512 93.5253 174.443 93.5938 174.443 93.7994H174.169C174.169 93.6624 174.169 93.5938 174.101 93.5253C174.032 93.4568 173.964 93.4568 173.895 93.4568H173.827C173.69 93.4568 173.621 93.5253 173.621 93.5938C173.621 93.6624 173.621 93.7309 173.69 93.7309C173.758 93.7309 173.758 93.7309 173.827 93.7309H173.895V94.005H173.827C173.69 94.005 173.621 93.9364 173.484 93.9364C173.416 93.8679 173.347 93.7309 173.347 93.5938C173.347 93.4568 173.416 93.3198 173.484 93.2513C173.553 93.1827 173.69 93.1142 173.758 93.1142H173.827C173.964 93.1142 174.032 93.1827 174.101 93.2513C174.169 93.2513 174.169 93.3198 174.169 93.3883C174.238 93.3198 174.306 93.2513 174.375 93.1827C174.443 93.1827 174.512 93.1142 174.58 93.1142H174.717C174.854 93.1142 174.991 93.1827 175.06 93.2513C175.128 93.3198 175.197 93.4568 175.197 93.5938C175.197 93.7309 175.128 93.7994 175.06 93.9364C174.991 94.0049 174.854 94.0735 174.717 94.0735H174.649V93.7994H174.717C174.786 93.7994 174.786 93.7994 174.854 93.7309C175.06 93.7994 175.06 93.7309 175.06 93.7309Z" fill="white"/>
<path d="M174.649 91.0587L173.484 90.5791V90.305H174.649V90.0995H174.923V90.305H175.334V90.5791H174.923V91.0587H174.649ZM174.649 90.5791H174.032L174.649 90.7847V90.5791Z" fill="white"/>
<path d="M173.758 87.2902H174.169C174.101 87.2902 174.101 87.2217 174.101 87.1531V87.0846C174.101 86.9476 174.169 86.8791 174.238 86.8106C174.306 86.742 174.443 86.742 174.58 86.742H174.991C175.128 86.742 175.266 86.8106 175.334 86.8791C175.403 86.9476 175.471 87.0846 175.471 87.2216C175.471 87.3587 175.403 87.4272 175.334 87.4957C175.266 87.5642 175.128 87.6328 174.991 87.6328H174.923V87.3587H174.991C175.06 87.3587 175.128 87.2902 175.128 87.2902C175.128 87.2902 175.128 87.2902 175.128 87.2216C175.128 87.0846 175.06 87.0161 174.923 87.0161H174.443C174.375 87.0161 174.375 87.0161 174.306 87.0846V87.1531C174.306 87.2217 174.306 87.2217 174.375 87.2902C174.375 87.2902 174.443 87.2902 174.512 87.2902H174.58V87.5642H173.553V86.742H173.827V87.2902H173.758Z" fill="white"/>
<path d="M173.964 83.7274C173.895 83.7274 173.827 83.7274 173.827 83.7959C173.827 83.7959 173.758 83.8644 173.758 83.9329C173.758 84.0014 173.758 84.0014 173.827 84.07C173.827 84.07 173.895 84.1385 173.964 84.1385H174.306C174.238 84.0699 174.238 84.0014 174.238 83.9329C174.238 83.7959 174.306 83.7274 174.375 83.6589C174.443 83.5903 174.58 83.5903 174.717 83.5903H175.06C175.197 83.5903 175.266 83.6589 175.334 83.7274C175.403 83.7959 175.471 83.9329 175.471 84.0014C175.471 84.1385 175.403 84.207 175.334 84.344C175.266 84.4125 175.128 84.481 174.991 84.481H173.964C173.895 84.481 173.758 84.481 173.69 84.4125C173.621 84.344 173.553 84.2755 173.553 84.207C173.553 84.1385 173.484 84.07 173.484 84.07C173.484 83.9329 173.553 83.8644 173.621 83.7959C173.69 83.7274 173.827 83.6589 173.964 83.6589H174.032V83.7274H173.964ZM174.923 84.0014C174.991 84.0014 174.991 84.0014 175.06 84.0014C175.06 84.0014 175.128 83.9329 175.128 83.8644C175.128 83.7959 175.128 83.7959 175.06 83.7274C175.06 83.7274 174.991 83.6589 174.923 83.6589H174.58C174.512 83.6589 174.512 83.6589 174.443 83.7274V83.7959C174.443 83.8644 174.443 83.8644 174.512 83.9329C174.512 83.9329 174.58 83.9329 174.649 83.9329H174.923V84.0014Z" fill="white"/>
<path d="M173.484 80.1645H173.758L175.334 80.5756V80.8497L173.758 80.4386V80.9867H173.484V80.1645Z" fill="white"/>
<path d="M174.923 76.8071C175.06 76.8071 175.128 76.8757 175.265 76.9442C175.334 77.0127 175.403 77.1497 175.403 77.2868C175.403 77.4238 175.334 77.4923 175.265 77.6293C175.197 77.6979 175.06 77.7664 174.923 77.7664H174.717C174.58 77.7664 174.512 77.6979 174.443 77.6293C174.375 77.6293 174.375 77.5608 174.375 77.4923C174.306 77.5608 174.238 77.6293 174.169 77.6979C174.101 77.6979 174.032 77.6979 173.964 77.6979H173.895C173.758 77.6979 173.69 77.6293 173.621 77.5608C173.553 77.4923 173.484 77.3553 173.484 77.2182C173.484 77.0812 173.553 77.0127 173.621 76.8757C173.69 76.8071 173.827 76.7386 173.895 76.7386H173.964C174.101 76.7386 174.169 76.7386 174.238 76.8757L174.306 76.9442C174.375 76.8757 174.443 76.8071 174.512 76.7386C174.58 76.7386 174.649 76.6701 174.717 76.6701H174.923V76.8071ZM173.964 77.0812C173.827 77.0812 173.758 77.1497 173.69 77.2182V77.2868C173.69 77.3553 173.69 77.3553 173.758 77.4238L173.827 77.4923C173.895 77.4923 173.895 77.4923 173.964 77.4923C174.032 77.4923 174.101 77.4923 174.169 77.4238C174.238 77.4238 174.238 77.3553 174.238 77.2868C174.238 77.2182 174.238 77.1497 174.169 77.1497C174.101 77.0812 174.032 77.0812 173.964 77.0812ZM174.786 77.0812C174.649 77.0812 174.58 77.0812 174.58 77.1497V77.2182C174.58 77.2868 174.58 77.3553 174.649 77.3553C174.717 77.3553 174.717 77.3553 174.786 77.3553H174.854C174.923 77.3553 174.991 77.3553 174.991 77.2868C174.991 77.2868 175.06 77.2182 175.06 77.1497C175.06 77.0812 174.991 77.0127 174.923 77.0127H174.854H174.786V77.0812Z" fill="white"/>
<path d="M173.416 73.998C173.416 73.861 173.484 73.7924 173.553 73.6554C173.621 73.5869 173.758 73.5184 173.895 73.5184H174.923C175.06 73.5184 175.128 73.5869 175.265 73.6554C175.334 73.7239 175.403 73.861 175.403 73.9295C175.403 74.0665 175.334 74.135 175.265 74.2721C175.197 74.3406 175.06 74.4091 174.923 74.4091H174.854V74.135H174.923C174.991 74.135 174.991 74.135 175.06 74.0665C175.06 74.0665 175.128 73.998 175.128 73.9295C175.128 73.861 175.128 73.861 175.06 73.7924C175.06 73.7924 174.991 73.7239 174.923 73.7239H174.58C174.649 73.7924 174.649 73.861 174.649 73.9295C174.649 74.0665 174.58 74.135 174.512 74.2035C174.443 74.2721 174.306 74.2721 174.169 74.2721H173.827C173.758 74.2721 173.69 74.2721 173.621 74.2035C173.553 74.135 173.484 74.0665 173.484 73.998C173.484 74.135 173.416 74.0665 173.416 73.998ZM173.895 73.861C173.827 73.861 173.827 73.861 173.758 73.9295C173.758 73.9295 173.69 73.998 173.69 74.0665C173.69 74.135 173.69 74.135 173.758 74.2035C173.758 74.2035 173.827 74.2721 173.895 74.2721H174.238C174.306 74.2721 174.375 74.2721 174.375 74.2035V74.135C174.375 74.0665 174.306 73.998 174.238 73.998H174.169H173.895V73.861Z" fill="white"/>
<path d="M175.334 71.2573H173.895V71.4629H173.69C173.69 71.3944 173.69 71.3258 173.621 71.2573C173.553 71.1888 173.553 71.1203 173.484 71.1203V70.9147H175.334V71.2573V71.2573Z" fill="white"/>
<path d="M174.923 69.8185C175.06 69.8185 175.128 69.887 175.265 69.9555C175.334 70.024 175.403 70.161 175.403 70.2981C175.403 70.4351 175.334 70.5036 175.265 70.6407C175.197 70.7092 175.06 70.7777 174.923 70.7777H173.895C173.758 70.7777 173.69 70.7092 173.553 70.6407C173.484 70.5721 173.416 70.4351 173.416 70.2981C173.416 70.161 173.484 70.0925 173.553 69.9555C173.621 69.887 173.758 69.8185 173.895 69.8185H174.923ZM173.895 70.0925C173.827 70.0925 173.827 70.0925 173.758 70.161C173.758 70.161 173.69 70.2296 173.69 70.2981C173.69 70.3666 173.69 70.3666 173.758 70.4351C173.758 70.4351 173.827 70.5036 173.895 70.5036H174.923C174.991 70.5036 174.991 70.5036 175.06 70.4351C175.06 70.4351 175.128 70.3666 175.128 70.2981C175.128 70.2296 175.128 70.2296 175.06 70.161C175.06 70.161 174.991 70.0925 174.923 70.0925H173.895Z" fill="white"/>
<path d="M175.334 67.9685H173.895V68.2426H173.69C173.69 68.174 173.69 68.1055 173.621 68.037C173.553 67.9685 173.553 67.9 173.484 67.9V67.6944H175.334V67.9685V67.9685Z" fill="white"/>
<path d="M175.334 67.2149H173.895V67.489H173.69C173.69 67.4204 173.69 67.3519 173.621 67.2834C173.553 67.2149 173.553 67.1464 173.484 67.1464V66.9408H175.334V67.2149V67.2149Z" fill="white"/>
<path d="M159.382 67.3583L159.253 96.8205L161.72 96.8313L161.849 67.3691L159.382 67.3583Z" fill="#2F93E3"/>
<path d="M167.112 67.4205H164.44L164.303 96.8141L166.975 96.8826L167.112 67.4205Z" fill="#2F93E3"/>
<path d="M164.508 67.4205H161.836L161.768 96.8141L164.371 96.8826L164.508 67.4205Z" fill="#319BED"/>
<path d="M166.975 96.8827L159.301 96.8142L162.316 101.336H163.892L166.975 96.8827Z" fill="#FCDDA6"/>
<path d="M163.892 101.336H162.316L163.07 102.501L163.892 101.336Z" fill="#15475C"/>
<g opacity="0.0141">
<path opacity="0.0141" d="M162.042 67.4205H161.494V96.9512H162.042V67.4205Z" fill="#2F93E3"/>
</g>
<g opacity="0.0282">
<path opacity="0.0282" d="M162.042 67.4205H161.494V96.9512H162.042V67.4205Z" fill="#2F93E3"/>
</g>
<g opacity="0.0423">
<path opacity="0.0423" d="M162.042 67.4205H161.494V96.9512H162.042V67.4205Z" fill="#2F93E3"/>
</g>
<g opacity="0.0563">
<path opacity="0.0563" d="M162.042 67.4205H161.494V96.9512H162.042V67.4205Z" fill="#2F93E3"/>
</g>
<g opacity="0.0704">
<path opacity="0.0704" d="M162.042 67.4205H161.494V96.9512H162.042V67.4205Z" fill="#2F93E3"/>
</g>
<g opacity="0.0845">
<path opacity="0.0845" d="M162.11 67.4205H161.562V96.9512H162.11V67.4205Z" fill="#2F93E3"/>
</g>
<g opacity="0.0986">
<path opacity="0.0986" d="M162.042 67.4205H161.562V96.9512H162.042V67.4205Z" fill="#2F93E3"/>
</g>
<g opacity="0.1127">
<path opacity="0.1127" d="M162.042 67.4205H161.562V96.9512H162.042V67.4205Z" fill="#2F93E3"/>
</g>
<g opacity="0.1268">
<path opacity="0.1268" d="M162.042 67.4205H161.562V96.9512H162.042V67.4205Z" fill="#2F93E3"/>
</g>
<g opacity="0.1408">
<path opacity="0.1408" d="M162.042 67.4205H161.562V96.9512H162.042V67.4205Z" fill="#2F93E3"/>
</g>
<g opacity="0.1549">
<path opacity="0.1549" d="M162.042 67.4205H161.562V96.9512H162.042V67.4205Z" fill="#2F93E3"/>
</g>
<g opacity="0.169">
<path opacity="0.169" d="M162.042 67.4205H161.562V96.9512H162.042V67.4205Z" fill="#2F93E3"/>
</g>
<g opacity="0.1831">
<path opacity="0.1831" d="M162.042 67.4205H161.562V96.9512H162.042V67.4205Z" fill="#2F93E3"/>
</g>
<g opacity="0.1972">
<path opacity="0.1972" d="M162.042 67.4205H161.562V96.9512H162.042V67.4205Z" fill="#2F93E3"/>
</g>
<g opacity="0.2113">
<path opacity="0.2113" d="M162.042 67.4205H161.562V96.9512H162.042V67.4205Z" fill="#2F93E3"/>
</g>
<g opacity="0.2254">
<path opacity="0.2254" d="M161.973 67.4205H161.562V96.9512H161.973V67.4205Z" fill="#2F93E3"/>
</g>
<g opacity="0.2394">
<path opacity="0.2394" d="M161.973 67.4205H161.562V96.9512H161.973V67.4205Z" fill="#2F93E3"/>
</g>
<g opacity="0.2535">
<path opacity="0.2535" d="M161.973 67.4205H161.562V96.9512H161.973V67.4205Z" fill="#2F93E3"/>
</g>
<g opacity="0.2676">
<path opacity="0.2676" d="M161.973 67.4205H161.562V96.9512H161.973V67.4205Z" fill="#2F93E3"/>
</g>
<g opacity="0.2817">
<path opacity="0.2817" d="M161.973 67.4205H161.562V96.9512H161.973V67.4205Z" fill="#2F93E3"/>
</g>
<g opacity="0.2958">
<path opacity="0.2958" d="M161.973 67.4205H161.562V96.9512H161.973V67.4205Z" fill="#2F93E3"/>
</g>
<g opacity="0.3099">
<path opacity="0.3099" d="M161.973 67.4205H161.562V96.9512H161.973V67.4205Z" fill="#2F93E3"/>
</g>
<g opacity="0.3239">
<path opacity="0.3239" d="M161.973 67.4205H161.562V96.9512H161.973V67.4205Z" fill="#2F93E3"/>
</g>
<g opacity="0.338">
<path opacity="0.338" d="M161.973 67.4205H161.562V96.9512H161.973V67.4205Z" fill="#2F93E3"/>
</g>
<g opacity="0.3521">
<path opacity="0.3521" d="M161.905 67.4205H161.562V96.9512H161.905V67.4205Z" fill="#2F93E3"/>
</g>
<g opacity="0.3662">
<path opacity="0.3662" d="M161.905 67.4205H161.562V96.9512H161.905V67.4205Z" fill="#2F93E3"/>
</g>
<g opacity="0.3803">
<path opacity="0.3803" d="M161.905 67.4205H161.562V96.9512H161.905V67.4205Z" fill="#2F93E3"/>
</g>
<g opacity="0.3944">
<path opacity="0.3944" d="M161.973 67.4205H161.631V96.9512H161.973V67.4205Z" fill="#2F93E3"/>
</g>
<g opacity="0.4085">
<path opacity="0.4085" d="M161.973 67.4205H161.631V96.9512H161.973V67.4205Z" fill="#2F93E3"/>
</g>
<g opacity="0.4225">
<path opacity="0.4225" d="M161.973 67.4205H161.631V96.9512H161.973V67.4205Z" fill="#2F93E3"/>
</g>
<g opacity="0.4366">
<path opacity="0.4366" d="M161.973 67.4205H161.631V96.9512H161.973V67.4205Z" fill="#2F93E3"/>
</g>
<g opacity="0.4507">
<path opacity="0.4507" d="M161.973 67.4205H161.631V96.9512H161.973V67.4205Z" fill="#2F93E3"/>
</g>
<g opacity="0.4648">
<path opacity="0.4648" d="M161.973 67.4205H161.631V96.9512H161.973V67.4205Z" fill="#2F93E3"/>
</g>
<g opacity="0.4789">
<path opacity="0.4789" d="M161.905 67.4205H161.631V96.9512H161.905V67.4205Z" fill="#2F93E3"/>
</g>
<g opacity="0.493">
<path opacity="0.493" d="M161.905 67.4205H161.631V96.9512H161.905V67.4205Z" fill="#2F93E3"/>
</g>
<g opacity="0.507">
<path opacity="0.507" d="M161.905 67.4205H161.631V96.9512H161.905V67.4205Z" fill="#2F93E3"/>
</g>
<g opacity="0.5211">
<path opacity="0.5211" d="M161.905 67.4205H161.631V96.9512H161.905V67.4205Z" fill="#2F93E3"/>
</g>
<g opacity="0.5352">
<path opacity="0.5352" d="M161.905 67.4205H161.631V96.9512H161.905V67.4205Z" fill="#2F93E3"/>
</g>
<g opacity="0.5493">
<path opacity="0.5493" d="M161.905 67.4205H161.631V96.9512H161.905V67.4205Z" fill="#2F93E3"/>
</g>
<g opacity="0.5634">
<path opacity="0.5634" d="M161.905 67.4205H161.631V96.9512H161.905V67.4205Z" fill="#2F93E3"/>
</g>
<g opacity="0.5775">
<path opacity="0.5775" d="M161.905 67.4205H161.631V96.9512H161.905V67.4205Z" fill="#2F93E3"/>
</g>
<g opacity="0.5915">
<path opacity="0.5915" d="M161.905 67.4205H161.631V96.9512H161.905V67.4205Z" fill="#2F93E3"/>
</g>
<g opacity="0.6056">
<path opacity="0.6056" d="M161.836 67.4205H161.631V96.9512H161.836V67.4205Z" fill="#2F93E3"/>
</g>
<g opacity="0.6197">
<path opacity="0.6197" d="M161.836 67.4205H161.631V96.9512H161.836V67.4205Z" fill="#2F93E3"/>
</g>
<g opacity="0.6338">
<path opacity="0.6338" d="M161.836 67.4205H161.631V96.9512H161.836V67.4205Z" fill="#2F93E3"/>
</g>
<g opacity="0.6479">
<path opacity="0.6479" d="M161.836 67.4205H161.631V96.9512H161.836V67.4205Z" fill="#2F93E3"/>
</g>
<g opacity="0.662">
<path opacity="0.662" d="M161.836 67.4205H161.631V96.9512H161.836V67.4205Z" fill="#2F93E3"/>
</g>
<g opacity="0.6761">
<path opacity="0.6761" d="M161.836 67.4205H161.631V96.9512H161.836V67.4205Z" fill="#2F93E3"/>
</g>
<g opacity="0.6901">
<path opacity="0.6901" d="M161.836 67.4205H161.631V96.9512H161.836V67.4205Z" fill="#2F93E3"/>
</g>
<g opacity="0.7042">
<path opacity="0.7042" d="M161.905 67.4205H161.699V96.9512H161.905V67.4205Z" fill="#2F93E3"/>
</g>
<g opacity="0.7183">
<path opacity="0.7183" d="M161.905 67.4205H161.699V96.9512H161.905V67.4205Z" fill="#2F93E3"/>
</g>
<g opacity="0.7324">
<path opacity="0.7324" d="M161.836 67.4205H161.699V96.9512H161.836V67.4205Z" fill="#2F93E3"/>
</g>
<g opacity="0.7465">
<path opacity="0.7465" d="M161.836 67.4205H161.699V96.9512H161.836V67.4205Z" fill="#2F93E3"/>
</g>
<g opacity="0.7606">
<path opacity="0.7606" d="M161.836 67.4205H161.699V96.9512H161.836V67.4205Z" fill="#2F93E3"/>
</g>
<g opacity="0.7746">
<path opacity="0.7746" d="M161.836 67.4205H161.699V96.9512H161.836V67.4205Z" fill="#2F93E3"/>
</g>
<g opacity="0.7887">
<path opacity="0.7887" d="M161.836 67.4205H161.699V96.9512H161.836V67.4205Z" fill="#2F93E3"/>
</g>
<g opacity="0.8028">
<path opacity="0.8028" d="M161.836 67.4205H161.699V96.9512H161.836V67.4205Z" fill="#2F93E3"/>
</g>
<g opacity="0.8169">
<path opacity="0.8169" d="M161.836 67.4205H161.699V96.9512H161.836V67.4205Z" fill="#2F93E3"/>
</g>
<g opacity="0.831">
<path opacity="0.831" d="M161.836 67.4205H161.699V96.9512H161.836V67.4205Z" fill="#2F93E3"/>
</g>
<g opacity="0.8451">
<path opacity="0.8451" d="M161.836 67.4205H161.699V96.9512H161.836V67.4205Z" fill="#2F93E3"/>
</g>
<g opacity="0.8592">
<path opacity="0.8592" d="M161.768 67.4205H161.699V96.9512H161.768V67.4205Z" fill="#2F93E3"/>
</g>
<g opacity="0.8732">
<path opacity="0.8732" d="M161.768 67.4205H161.699V96.9512H161.768V67.4205Z" fill="#2F93E3"/>
</g>
<g opacity="0.8873">
<path opacity="0.8873" d="M161.768 67.4205H161.699V96.9512H161.768V67.4205Z" fill="#2F93E3"/>
</g>
<g opacity="0.9014">
<path opacity="0.9014" d="M161.768 67.4205H161.699V96.9512H161.768V67.4205Z" fill="#2F93E3"/>
</g>
<g opacity="0.9155">
<path opacity="0.9155" d="M161.768 67.4205H161.699V96.9512H161.768V67.4205Z" fill="#2F93E3"/>
</g>
<g opacity="0.9296">
<path opacity="0.9296" d="M161.768 67.4205H161.699V96.9512H161.768V67.4205Z" fill="#2F93E3"/>
</g>
<g opacity="0.9437">
<path opacity="0.9437" d="M161.768 67.4205H161.699V96.9512H161.768V67.4205Z" fill="#2F93E3"/>
</g>
<g opacity="0.9577">
<path opacity="0.9577" d="M161.768 67.4205H161.699V96.9512H161.768V67.4205Z" fill="#2F93E3"/>
</g>
<g opacity="0.9718">
<path opacity="0.9718" d="M161.768 67.4205H161.699V96.9512H161.768V67.4205Z" fill="#2F93E3"/>
</g>
<g opacity="0.0141">
<path opacity="0.0141" d="M164.782 67.4205H164.234V96.9512H164.782V67.4205Z" fill="#2F93E3"/>
</g>
<g opacity="0.0282">
<path opacity="0.0282" d="M164.851 67.4205H164.303V96.9512H164.851V67.4205Z" fill="#2F93E3"/>
</g>
<g opacity="0.0423">
<path opacity="0.0423" d="M164.851 67.4205H164.303V96.9512H164.851V67.4205Z" fill="#2F93E3"/>
</g>
<g opacity="0.0563">
<path opacity="0.0563" d="M164.851 67.4205H164.303V96.9512H164.851V67.4205Z" fill="#2F93E3"/>
</g>
<g opacity="0.0704">
<path opacity="0.0704" d="M164.851 67.4205H164.303V96.9512H164.851V67.4205Z" fill="#2F93E3"/>
</g>
<g opacity="0.0845">
<path opacity="0.0845" d="M164.851 67.4205H164.303V96.9512H164.851V67.4205Z" fill="#2F93E3"/>
</g>
<g opacity="0.0986">
<path opacity="0.0986" d="M164.782 67.4205H164.303V96.9512H164.782V67.4205Z" fill="#2F93E3"/>
</g>
<g opacity="0.1127">
<path opacity="0.1127" d="M164.782 67.4205H164.303V96.9512H164.782V67.4205Z" fill="#2F93E3"/>
</g>
<g opacity="0.1268">
<path opacity="0.1268" d="M164.782 67.4205H164.303V96.9512H164.782V67.4205Z" fill="#2F93E3"/>
</g>
<g opacity="0.1408">
<path opacity="0.1408" d="M164.782 67.4205H164.303V96.9512H164.782V67.4205Z" fill="#2F93E3"/>
</g>
<g opacity="0.1549">
<path opacity="0.1549" d="M164.782 67.4205H164.303V96.9512H164.782V67.4205Z" fill="#2F93E3"/>
</g>
<g opacity="0.169">
<path opacity="0.169" d="M164.782 67.4205H164.303V96.9512H164.782V67.4205Z" fill="#2F93E3"/>
</g>
<g opacity="0.1831">
<path opacity="0.1831" d="M164.782 67.4205H164.303V96.9512H164.782V67.4205Z" fill="#2F93E3"/>
</g>
<g opacity="0.1972">
<path opacity="0.1972" d="M164.782 67.4205H164.303V96.9512H164.782V67.4205Z" fill="#2F93E3"/>
</g>
<g opacity="0.2113">
<path opacity="0.2113" d="M164.782 67.4205H164.303V96.9512H164.782V67.4205Z" fill="#2F93E3"/>
</g>
<g opacity="0.2254">
<path opacity="0.2254" d="M164.714 67.4205H164.303V96.9512H164.714V67.4205Z" fill="#2F93E3"/>
</g>
<g opacity="0.2394">
<path opacity="0.2394" d="M164.714 67.4205H164.303V96.9512H164.714V67.4205Z" fill="#2F93E3"/>
</g>
<g opacity="0.2535">
<path opacity="0.2535" d="M164.714 67.4205H164.303V96.9512H164.714V67.4205Z" fill="#2F93E3"/>
</g>
<g opacity="0.2676">
<path opacity="0.2676" d="M164.714 67.4205H164.303V96.9512H164.714V67.4205Z" fill="#2F93E3"/>
</g>
<g opacity="0.2817">
<path opacity="0.2817" d="M164.714 67.4205H164.303V96.9512H164.714V67.4205Z" fill="#2F93E3"/>
</g>
<g opacity="0.2958">
<path opacity="0.2958" d="M164.714 67.4205H164.303V96.9512H164.714V67.4205Z" fill="#2F93E3"/>
</g>
<g opacity="0.3099">
<path opacity="0.3099" d="M164.714 67.4205H164.303V96.9512H164.714V67.4205Z" fill="#2F93E3"/>
</g>
<g opacity="0.3239">
<path opacity="0.3239" d="M164.714 67.4205H164.303V96.9512H164.714V67.4205Z" fill="#2F93E3"/>
</g>
<g opacity="0.338">
<path opacity="0.338" d="M164.782 67.4205H164.371V96.9512H164.782V67.4205Z" fill="#2F93E3"/>
</g>
<g opacity="0.3521">
<path opacity="0.3521" d="M164.714 67.4205H164.371V96.9512H164.714V67.4205Z" fill="#2F93E3"/>
</g>
<g opacity="0.3662">
<path opacity="0.3662" d="M164.714 67.4205H164.371V96.9512H164.714V67.4205Z" fill="#2F93E3"/>
</g>
<g opacity="0.3803">
<path opacity="0.3803" d="M164.714 67.4205H164.371V96.9512H164.714V67.4205Z" fill="#2F93E3"/>
</g>
<g opacity="0.3944">
<path opacity="0.3944" d="M164.714 67.4205H164.371V96.9512H164.714V67.4205Z" fill="#2F93E3"/>
</g>
<g opacity="0.4085">
<path opacity="0.4085" d="M164.714 67.4205H164.371V96.9512H164.714V67.4205Z" fill="#2F93E3"/>
</g>
<g opacity="0.4225">
<path opacity="0.4225" d="M164.714 67.4205H164.371V96.9512H164.714V67.4205Z" fill="#2F93E3"/>
</g>
<g opacity="0.4366">
<path opacity="0.4366" d="M164.714 67.4205H164.371V96.9512H164.714V67.4205Z" fill="#2F93E3"/>
</g>
<g opacity="0.4507">
<path opacity="0.4507" d="M164.714 67.4205H164.371V96.9512H164.714V67.4205Z" fill="#2F93E3"/>
</g>
<g opacity="0.4648">
<path opacity="0.4648" d="M164.714 67.4205H164.371V96.9512H164.714V67.4205Z" fill="#2F93E3"/>
</g>
<g opacity="0.4789">
<path opacity="0.4789" d="M164.645 67.4205H164.371V96.9512H164.645V67.4205Z" fill="#2F93E3"/>
</g>
<g opacity="0.493">
<path opacity="0.493" d="M164.645 67.4205H164.371V96.9512H164.645V67.4205Z" fill="#2F93E3"/>
</g>
<g opacity="0.507">
<path opacity="0.507" d="M164.645 67.4205H164.371V96.9512H164.645V67.4205Z" fill="#2F93E3"/>
</g>
<g opacity="0.5211">
<path opacity="0.5211" d="M164.645 67.4205H164.371V96.9512H164.645V67.4205Z" fill="#2F93E3"/>
</g>
<g opacity="0.5352">
<path opacity="0.5352" d="M164.645 67.4205H164.371V96.9512H164.645V67.4205Z" fill="#2F93E3"/>
</g>
<g opacity="0.5493">
<path opacity="0.5493" d="M164.645 67.4205H164.371V96.9512H164.645V67.4205Z" fill="#2F93E3"/>
</g>
<g opacity="0.5634">
<path opacity="0.5634" d="M164.645 67.4205H164.371V96.9512H164.645V67.4205Z" fill="#2F93E3"/>
</g>
<g opacity="0.5775">
<path opacity="0.5775" d="M164.645 67.4205H164.371V96.9512H164.645V67.4205Z" fill="#2F93E3"/>
</g>
<g opacity="0.5915">
<path opacity="0.5915" d="M164.645 67.4205H164.371V96.9512H164.645V67.4205Z" fill="#2F93E3"/>
</g>
<g opacity="0.6056">
<path opacity="0.6056" d="M164.577 67.4205H164.371V96.9512H164.577V67.4205Z" fill="#2F93E3"/>
</g>
<g opacity="0.6197">
<path opacity="0.6197" d="M164.577 67.4205H164.371V96.9512H164.577V67.4205Z" fill="#2F93E3"/>
</g>
<g opacity="0.6338">
<path opacity="0.6338" d="M164.577 67.4205H164.371V96.9512H164.577V67.4205Z" fill="#2F93E3"/>
</g>
<g opacity="0.6479">
<path opacity="0.6479" d="M164.645 67.4205H164.44V96.9512H164.645V67.4205Z" fill="#2F93E3"/>
</g>
<g opacity="0.662">
<path opacity="0.662" d="M164.645 67.4205H164.44V96.9512H164.645V67.4205Z" fill="#2F93E3"/>
</g>
<g opacity="0.6761">
<path opacity="0.6761" d="M164.645 67.4205H164.44V96.9512H164.645V67.4205Z" fill="#2F93E3"/>
</g>
<g opacity="0.6901">
<path opacity="0.6901" d="M164.645 67.4205H164.44V96.9512H164.645V67.4205Z" fill="#2F93E3"/>
</g>
<g opacity="0.7042">
<path opacity="0.7042" d="M164.645 67.4205H164.44V96.9512H164.645V67.4205Z" fill="#2F93E3"/>
</g>
<g opacity="0.7183">
<path opacity="0.7183" d="M164.645 67.4205H164.44V96.9512H164.645V67.4205Z" fill="#2F93E3"/>
</g>
<g opacity="0.7324">
<path opacity="0.7324" d="M164.577 67.4205H164.44V96.9512H164.577V67.4205Z" fill="#2F93E3"/>
</g>
<g opacity="0.7465">
<path opacity="0.7465" d="M164.577 67.4205H164.44V96.9512H164.577V67.4205Z" fill="#2F93E3"/>
</g>
<g opacity="0.7606">
<path opacity="0.7606" d="M164.577 67.4205H164.44V96.9512H164.577V67.4205Z" fill="#2F93E3"/>
</g>
<g opacity="0.7746">
<path opacity="0.7746" d="M164.577 67.4205H164.44V96.9512H164.577V67.4205Z" fill="#2F93E3"/>
</g>
<g opacity="0.7887">
<path opacity="0.7887" d="M164.577 67.4205H164.44V96.9512H164.577V67.4205Z" fill="#2F93E3"/>
</g>
<g opacity="0.8028">
<path opacity="0.8028" d="M164.577 67.4205H164.44V96.9512H164.577V67.4205Z" fill="#2F93E3"/>
</g>
<g opacity="0.8169">
<path opacity="0.8169" d="M164.577 67.4205H164.44V96.9512H164.577V67.4205Z" fill="#2F93E3"/>
</g>
<g opacity="0.831">
<path opacity="0.831" d="M164.577 67.4205H164.44V96.9512H164.577V67.4205Z" fill="#2F93E3"/>
</g>
<g opacity="0.8451">
<path opacity="0.8451" d="M164.577 67.4205H164.44V96.9512H164.577V67.4205Z" fill="#2F93E3"/>
</g>
<g opacity="0.8592">
<path opacity="0.8592" d="M164.508 67.4205H164.44V96.9512H164.508V67.4205Z" fill="#2F93E3"/>
</g>
<g opacity="0.8732">
<path opacity="0.8732" d="M164.508 67.4205H164.44V96.9512H164.508V67.4205Z" fill="#2F93E3"/>
</g>
<g opacity="0.8873">
<path opacity="0.8873" d="M164.508 67.4205H164.44V96.9512H164.508V67.4205Z" fill="#2F93E3"/>
</g>
<g opacity="0.9014">
<path opacity="0.9014" d="M164.508 67.4205H164.44V96.9512H164.508V67.4205Z" fill="#2F93E3"/>
</g>
<g opacity="0.9155">
<path opacity="0.9155" d="M164.508 67.4205H164.44V96.9512H164.508V67.4205Z" fill="#2F93E3"/>
</g>
<g opacity="0.9296">
<path opacity="0.9296" d="M164.508 67.4205H164.44V96.9512H164.508V67.4205Z" fill="#2F93E3"/>
</g>
<g opacity="0.9437">
<path opacity="0.9437" d="M164.577 67.4205H164.508V96.9512H164.577V67.4205Z" fill="#2F93E3"/>
</g>
<g opacity="0.9577">
<path opacity="0.9577" d="M164.577 67.4205H164.508V96.9512H164.577V67.4205Z" fill="#2F93E3"/>
</g>
<g opacity="0.9718">
<path opacity="0.9718" d="M164.577 67.4205H164.508V96.9512H164.577V67.4205Z" fill="#2F93E3"/>
</g>
<path d="M161.699 96.8142C161.699 96.8142 160.946 97.5679 160.534 97.6364H160.397C159.918 97.5679 159.233 96.8142 159.233 96.8142H161.699Z" fill="#2F93E3"/>
<path d="M164.303 96.8142C164.303 96.8142 163.549 97.5679 163.138 97.6364H163.001C162.521 97.5679 161.836 96.8142 161.836 96.8142H164.303Z" fill="#319BED"/>
<path d="M166.906 96.8142C166.906 96.8142 166.153 97.5679 165.742 97.6364H165.605C165.125 97.5679 164.44 96.8142 164.44 96.8142H166.906Z" fill="#2F93E3"/>
<path d="M36.9305 162.727H9.86641C9.86641 162.727 4.31657 161.631 3.90547 157.862V154.162C3.90547 154.162 3.28882 154.368 3.35733 153.751V144.776C3.35733 144.776 3.49437 144.296 4.0425 144.502V141.076C4.0425 141.076 3.76843 138.335 7.39981 137.307C7.39981 137.307 6.78317 137.033 6.85168 136.074C6.85168 136.074 6.64613 135.526 7.60536 135.32H11.5793L12.8126 136.417V137.239H15.4848L17.1977 133.676C17.1977 133.676 17.7458 132.854 18.8421 132.785H28.777L32.2028 134.293L33.6417 137.376H35.4916C35.4916 137.376 39.0545 138.815 39.3971 139.157C39.3971 139.157 41.0415 140.939 40.9044 142.172V158.89C40.9044 158.822 40.8359 162.316 36.9305 162.727Z" fill="#2AA7AD"/>
<path d="M32.9565 134.293C32.4769 134.087 31.9287 133.95 31.3806 133.95H30.2844L29.0511 131.347C28.914 131.004 28.5029 130.73 28.0233 130.593C27.7492 130.524 26.3789 129.839 25.9678 129.702C25.6937 129.565 25.3512 129.497 25.0086 129.497H15.6218C14.7996 129.497 13.9774 129.908 13.7718 130.456L12.1274 134.019H4.65914C2.39809 134.019 0.548141 135.869 0.548141 138.13V154.437C0.548141 155.738 1.16479 156.835 2.05551 157.588C2.60364 158.068 4.59062 158.89 4.9332 159.027C5.48134 159.301 6.09799 159.507 6.78315 159.507H33.5046C35.7657 159.507 37.6156 157.657 37.6156 155.396V139.089C37.6156 137.582 36.7934 136.28 35.6286 135.595C35.149 135.183 33.2991 134.43 32.9565 134.293Z" fill="#102C47"/>
<path d="M4.65911 158.342C2.46658 158.342 0.68515 156.561 0.68515 154.368V138.061C0.68515 135.869 2.46658 134.087 4.65911 134.087H12.1274L13.8403 130.524C14.0459 130.045 14.8681 129.634 15.6218 129.634H25.0771C25.8307 129.634 26.6529 130.045 26.8585 130.524L28.5714 134.087H31.3806C33.5731 134.087 35.3546 135.869 35.3546 138.061V154.368C35.3546 156.561 33.5731 158.342 31.3806 158.342H4.65911Z" fill="#EEF1EA"/>
<path d="M12.333 133.333L12.0589 133.95H28.5714L28.2974 133.333H12.333Z" fill="#071B2B"/>
<path d="M28.3659 133.539L26.8585 130.387C26.5845 129.839 25.7623 129.428 25.0086 129.428H15.6218C14.7996 129.428 13.9774 129.839 13.7718 130.387L12.2645 133.539H28.3659Z" fill="#2F455D"/>
<path d="M35.4231 137.65C35.2176 135.595 33.5046 133.95 31.3806 133.95H4.65915C2.53513 133.95 0.822219 135.595 0.616669 137.65H35.4231Z" fill="#2F455D"/>
<path d="M0.548141 154.505C0.616658 156.698 2.39809 158.411 4.65914 158.411H31.3806C33.5732 158.411 35.3546 156.698 35.4916 154.505H0.548141Z" fill="#2F455D"/>
<path d="M24.529 132.717C24.666 132.991 24.4605 133.265 24.1864 133.265H16.5125C16.2385 133.265 16.0329 133.059 16.1699 132.717L17.0607 130.25C17.1292 130.113 17.3347 129.976 17.5403 129.976H23.0901C23.2957 129.976 23.5012 130.113 23.5697 130.25L24.529 132.717Z" fill="#E9E7EA"/>
<path d="M16.5125 133.196C16.2385 133.196 16.0329 132.991 16.1699 132.648L17.0607 130.182C17.1292 130.045 17.3347 129.908 17.5403 129.908H23.0901L16.5125 133.196Z" fill="white"/>
<path d="M8.56459 137.65H0.548141V154.505H8.56459V137.65Z" fill="#154569"/>
<path d="M11.7849 154.162H8.90718V149.777C9.52383 151.49 10.5516 152.929 11.7849 154.162ZM10.4831 137.993H8.90718V140.87C9.31828 139.843 9.86641 138.883 10.4831 137.993ZM30.3529 137.993C31.8602 140.048 32.751 142.583 32.751 145.324C32.751 148.818 31.3121 151.901 29.0511 154.162H35.4231V137.993H30.3529Z" fill="#F36C35"/>
<path d="M35.0805 138.198H33.8472V153.888H35.0805V138.198Z" fill="#FC967E"/>
<path d="M4.04248 133.95H9.52381V133.402C9.52381 133.265 9.45529 133.059 9.31826 132.991C9.24974 132.922 8.49606 132.237 8.42754 132.169C8.35902 132.1 8.22199 132.032 8.01644 132.032H3.97396C3.69989 132.032 3.42583 132.237 3.42583 132.58V133.402C3.42583 133.608 3.49434 133.745 3.63138 133.813C3.76841 133.813 4.04248 133.95 4.04248 133.95Z" fill="#C44E37"/>
<path d="M2.46659 138.198H1.23329V153.888H2.46659V138.198Z" fill="#0F334F"/>
<path d="M8.56457 132.58C8.56457 132.306 8.35902 132.032 8.01644 132.032H3.97396C3.69989 132.032 3.42583 132.237 3.42583 132.58V133.402C3.42583 133.676 3.63138 133.95 3.97396 133.95H8.01644C8.29051 133.95 8.56457 133.745 8.56457 133.402V132.58Z" fill="#EF6C4D"/>
<path d="M36.6564 154.848L35.4231 154.162V137.993L36.6564 138.609V154.848Z" fill="#C44E37"/>
<path d="M33.3676 136.417C33.3676 136.759 33.0935 137.102 32.6824 137.102H29.051C28.7085 137.102 28.3659 136.828 28.3659 136.417V135.389C28.3659 135.046 28.6399 134.704 29.051 134.704H32.6824C33.025 134.704 33.3676 134.978 33.3676 135.389V136.417Z" fill="#E9E7EA"/>
<path d="M29.1881 137.102H29.051C28.7085 137.102 28.3659 136.828 28.3659 136.417V136.348L29.1881 137.102ZM28.5029 135.115C28.4344 135.183 28.4344 135.252 28.4344 135.389V136.006C28.777 136.348 29.1881 136.759 29.5307 137.102H30.4214L28.5029 135.115ZM30.9695 134.704H29.9418L32.3398 137.102H32.7509C32.9565 137.102 33.0935 137.033 33.2306 136.896L30.9695 134.704ZM32.4084 134.704H31.3806L33.3676 136.691C33.3676 136.622 33.4361 136.554 33.4361 136.417V135.731L32.4084 134.704ZM33.3676 135.389C33.3676 135.046 33.0935 134.772 32.7509 134.772L33.3676 135.389ZM29.5307 134.704H29.051C28.8455 134.704 28.7085 134.772 28.5714 134.909C29.3251 135.663 30.0103 136.348 30.764 137.102H31.8602L29.5307 134.704Z" fill="#94E8FF"/>
<path d="M24.2549 158.89C24.2549 159.027 24.1178 159.096 24.0493 159.096H16.3755C16.2384 159.096 16.1699 158.959 16.1699 158.89C16.1699 158.753 16.307 158.685 16.3755 158.685H23.9808C24.1178 158.616 24.2549 158.753 24.2549 158.89Z" fill="#071623"/>
<path d="M1.91845 144.844H1.37032V147.105H1.91845C2.05548 147.105 2.124 147.037 2.124 146.9V145.118C2.124 144.981 2.05548 144.844 1.91845 144.844Z" fill="#0C1E2B"/>
<path d="M1.91847 144.844H0.753683V141.35C0.753683 141.213 0.685166 141.144 0.548133 141.144H0.20555C0.0685166 141.144 0 141.213 0 141.35V150.531C0 150.668 0.0685166 150.737 0.20555 150.737H0.479616C0.61665 150.737 0.685166 150.668 0.685166 150.531V147.105H1.84995C1.98698 147.105 2.0555 147.037 2.0555 146.9V145.118C2.12402 144.981 2.0555 144.844 1.91847 144.844Z" fill="#071623"/>
<path d="M0.479616 141.144H0.20555C0.0685166 141.144 0 141.213 0 141.35V150.531C0 150.668 0.0685166 150.737 0.20555 150.737H0.479616V141.144Z" fill="#0C1E2B"/>
<path d="M1.7129 144.844H1.37032V147.105H1.7129V144.844Z" fill="#102C47"/>
<path d="M31.8602 145.667C31.8602 151.97 26.7215 157.04 20.4865 157.04C14.1829 157.04 9.11272 151.902 9.11272 145.667C9.11272 139.432 14.2515 134.293 20.4865 134.293C26.79 134.293 31.8602 139.363 31.8602 145.667Z" fill="#0C1E2B"/>
<path d="M31.3806 145.187C31.3806 151.49 26.2419 156.561 20.0069 156.561C13.7033 156.561 8.6331 151.422 8.6331 145.187C8.6331 138.952 13.7033 133.813 20.0069 133.813C26.3104 133.813 31.3806 138.883 31.3806 145.187Z" fill="#102C47"/>
<path d="M30.2844 145.187C30.2844 150.874 25.6938 155.464 20.0069 155.464C14.32 155.464 9.72939 150.874 9.72939 145.187C9.72939 139.5 14.32 134.909 20.0069 134.909C25.6938 134.909 30.2844 139.5 30.2844 145.187Z" fill="#1B486D"/>
<path d="M29.1881 145.187C29.1881 150.257 25.0771 154.437 19.9384 154.437C14.7996 154.437 10.6886 150.326 10.6886 145.187C10.6886 140.117 14.7996 135.937 19.9384 135.937C25.0771 135.937 29.1881 140.117 29.1881 145.187Z" fill="#102C47"/>
<path d="M28.2289 145.187C28.2289 149.709 24.529 153.409 20.0069 153.409C15.4848 153.409 11.7849 149.709 11.7849 145.187C11.7849 140.665 15.4848 136.965 20.0069 136.965C24.529 136.965 28.2289 140.665 28.2289 145.187Z" fill="#1B486D"/>
<path d="M27.5437 145.187C27.5437 149.366 24.1179 152.792 19.9384 152.792C15.7588 152.792 12.333 149.366 12.333 145.187C12.333 141.007 15.7588 137.581 19.9384 137.581C24.1864 137.581 27.5437 141.007 27.5437 145.187Z" fill="#80DDFF"/>
<path d="M23.8438 139.226C23.8438 139.226 21.5828 138.267 20.2809 138.267C16.307 138.267 13.1552 141.487 13.1552 145.392C13.1552 146.694 14.1144 148.955 14.1144 148.955C15.2107 139.294 24.0494 147.996 23.8438 139.226Z" fill="#94E8FF"/>
<path d="M15.9644 150.942C17.0606 151.627 18.3625 152.039 19.7328 152.039C23.6382 152.039 26.8585 148.887 26.8585 144.913C26.8585 143.543 26.4474 142.241 25.7622 141.144C26.5844 146.763 22.6105 151.765 15.9644 150.942Z" fill="#5FCFED"/>
<path d="M10.209 135.183C10.209 135.526 9.93489 135.8 9.59231 135.8C9.24973 135.8 8.97566 135.526 8.97566 135.183C8.97566 134.841 9.24973 134.567 9.59231 134.567C9.93489 134.567 10.209 134.841 10.209 135.183Z" fill="#FFA733"/>
<path d="M9.59232 135.732C9.31826 135.732 9.04419 135.457 9.04419 135.183C9.04419 134.909 9.31826 134.635 9.59232 134.635C9.86639 134.635 10.1405 134.909 10.1405 135.183C10.1405 135.457 9.86639 135.732 9.59232 135.732Z" fill="#C44E37"/>
<path d="M9.59229 135.663C9.31822 135.663 9.11267 135.457 9.11267 135.183C9.11267 134.909 9.31822 134.704 9.59229 134.704C9.86635 134.704 10.0719 134.909 10.0719 135.183C10.0719 135.457 9.86635 135.663 9.59229 135.663Z" fill="#EF6C4D"/>
<path d="M124.426 30.3528H119.904L118.534 22.6789H118.602C120.178 21.6512 121.069 19.8698 121.069 18.0198C121.069 15.2791 119.15 13.0181 116.547 12.47V3.56281H114.08V12.47C111.545 13.0181 109.627 15.2791 109.627 18.0198C109.627 19.9383 110.586 21.6512 112.162 22.7475L110.791 30.4213H105.653V31.038H110.791L109.969 35.2175L108.188 34.9434L107.571 38.4378L109.215 38.6433L108.941 40.1507L109.353 45.9061L111.545 40.5618L111.956 38.5063L113.052 38.5748L113.326 36.9304L112.23 36.7248L113.258 30.9009H114.628V33.7101H116.204V30.9009L117.369 31.038L118.465 36.7934L117.232 36.9989L117.574 38.5748L118.602 38.3007L118.945 40.6303L121.274 45.9061L121.617 40.0822L121.343 38.6433L123.056 38.3692L122.508 34.8749L120.795 35.149L120.041 30.9695H124.426V30.3528V30.3528ZM116.204 30.3528V27.2696H114.628V30.4213H113.326L114.56 23.2956H115.93L117.163 30.4213H116.204V30.3528ZM114.834 21.9938L115.039 20.8975H115.588L115.793 21.9938H114.834ZM118.26 21.2401L117.986 19.7327C118.397 19.1161 118.465 18.7735 118.465 18.7735C119.15 16.3069 116.958 15.0736 116.958 15.0736C114.286 13.7718 112.641 15.8958 112.641 15.8958C110.928 18.0198 112.641 19.8698 112.641 19.8698L112.367 21.3086C111.408 20.4864 110.791 19.3216 110.791 18.0198C110.791 15.5532 112.778 13.5662 115.245 13.5662C117.712 13.5662 119.699 15.5532 119.699 18.0198C119.767 19.2531 119.219 20.4179 118.26 21.2401Z" fill="#2AA7AD"/>
<g opacity="0.9">
<g opacity="0.9">
<path opacity="0.9" d="M109.558 19.6643L109.421 19.5958C107.434 18.7051 106.064 16.6496 106.064 14.457C106.064 11.3738 108.599 8.83868 111.682 8.83868C114.765 8.83868 117.3 11.3738 117.3 14.457C117.3 16.5811 116.136 18.4995 114.286 19.4588L114.149 19.5273L109.558 19.6643ZM111.751 9.93495C109.284 9.93495 107.229 11.9904 107.229 14.457C107.229 16.17 108.256 17.7458 109.764 18.4995L113.943 18.3625C115.382 17.5403 116.273 16.0329 116.273 14.3885C116.273 11.9904 114.286 9.93495 111.751 9.93495Z" fill="#4B5261"/>
</g>
<g opacity="0.9">
<path opacity="0.9" d="M118.123 36.6564L115.588 37.0675L111.751 15.4848H114.286L118.123 36.6564Z" fill="white"/>
<g opacity="0.9">
<path opacity="0.9" d="M115.588 37.0675L117.849 42.4118L118.123 36.6564L115.588 37.0675Z" fill="white"/>
<path opacity="0.9" d="M118.48 40.8809L116.523 41.226L116.88 43.2503L118.837 42.9051L118.48 40.8809Z" fill="#2B244B"/>
</g>
</g>
<g opacity="0.9">
<path opacity="0.9" d="M105.516 36.6564L108.051 37.0675L111.888 15.4848H109.284L105.516 36.6564Z" fill="white"/>
<g opacity="0.9">
<path opacity="0.9" d="M108.051 37.0675L105.79 42.4118L105.516 36.6564L108.051 37.0675Z" fill="white"/>
<path opacity="0.9" d="M105.129 40.8992L104.771 42.9234L106.728 43.2686L107.085 41.2443L105.129 40.8992Z" fill="#2B244B"/>
</g>
</g>
<path opacity="0.9" d="M112.984 0H110.517V9.38678H112.984V0Z" fill="#4B5261"/>
<path opacity="0.9" d="M112.984 0H110.517V2.32956H112.984V0Z" fill="#4B5261"/>
<path opacity="0.9" d="M120.863 26.8586H102.09V27.4752H120.863V26.8586Z" fill="#4B5261"/>
<path opacity="0.9" d="M112.641 23.7067H111.134V30.2158H112.641V23.7067Z" fill="#4B5261"/>
<g opacity="0.9">
<path opacity="0.9" d="M118.898 31.3481L117.414 31.6099L118.021 35.0512L119.505 34.7893L118.898 31.3481Z" fill="white"/>
<path opacity="0.9" d="M114.617 33.239L113.739 33.3937L114.025 35.0131L114.902 34.8585L114.617 33.239Z" fill="white"/>
</g>
<g opacity="0.9">
<path opacity="0.9" d="M104.653 31.4163L104.046 34.8575L105.531 35.1194L106.138 31.6781L104.653 31.4163Z" fill="white"/>
<path opacity="0.9" d="M108.956 33.2068L108.671 34.8262L109.548 34.9807L109.833 33.3613L108.956 33.2068Z" fill="white"/>
</g>
<path opacity="0.9" d="M110.38 17.4032C109.215 16.8551 108.462 15.7588 108.462 14.3885C108.462 12.5385 109.969 11.0997 111.751 11.0997C113.601 11.0997 115.039 12.5385 115.039 14.3885C115.039 15.6218 114.354 16.718 113.258 17.3347L110.38 17.4032Z" fill="white"/>
</g>
<path d="M12.0589 112.162L10.1405 94.0733C10.1405 94.0733 7.7424 92.1549 11.5793 91.1957C11.5793 91.1957 12.7441 90.716 16.444 90.3049L14.6626 73.6554L15.6903 69.8185L17.7458 73.3813L19.6643 90.0994L20.418 90.0309V73.5184L21.9939 69.6129L23.6383 73.5184V90.1679L23.9808 90.0994L25.8308 73.3128L27.8863 69.6814L29.0511 73.7239L27.0641 90.716C27.0641 90.716 26.9956 90.2364 30.6269 91.6753C30.6269 91.6753 32.1343 92.703 30.4899 94.0048L28.5029 111.751C28.5029 111.751 27.8178 114.765 19.5958 114.697C19.6643 114.697 14.2515 114.628 12.0589 112.162Z" fill="#2AA7AD"/>
<path d="M18.431 91.3324V111.134C22.1994 110.86 25.0771 109.489 25.0771 107.913L27.1326 89.2769L18.431 91.3324Z" fill="#0F303F"/>
<path d="M6.44058 89.2769L8.49608 107.913C8.49608 109.695 12.196 111.202 16.7866 111.202C17.3347 111.202 17.8829 111.202 18.431 111.134V91.3324L6.44058 89.2769Z" fill="#0F303F"/>
<path d="M16.7866 91.3325C22.5005 91.3325 27.1326 90.4123 27.1326 89.277C27.1326 88.1418 22.5005 87.2215 16.7866 87.2215C11.0726 87.2215 6.44058 88.1418 6.44058 89.277C6.44058 90.4123 11.0726 91.3325 16.7866 91.3325Z" fill="#12181F" stroke="#3C5069" stroke-width="0.1816" stroke-miterlimit="10"/>
<path opacity="0.7" d="M12.47 87.6326L12.5385 91.1955L12.47 87.6326Z" stroke="#1D2631" stroke-width="0.2106" stroke-miterlimit="10"/>
<path opacity="0.7" d="M14.9366 87.6326L15.0051 91.1955L14.9366 87.6326Z" stroke="#1D2631" stroke-width="0.1264" stroke-miterlimit="10"/>
<path d="M19.9383 110.997L19.8698 91.538L21.6513 91.1954L21.7198 110.449L19.9383 110.997Z" fill="#35465E"/>
<path d="M23.4327 109.695L23.3642 90.6473L23.9808 90.3732V109.215L23.4327 109.695Z" fill="#35465E"/>
<path d="M25.4882 70.2296L22.3365 96.6085C22.2679 97.0196 21.9254 97.2937 21.5828 97.2251L19.9384 97.0196C19.5273 96.9511 19.2532 96.6085 19.3217 96.2659L22.4735 69.887L25.4882 70.2296Z" fill="#FFB700"/>
<path d="M25.6252 70.2295L22.4735 96.6084C22.405 97.0195 22.1994 97.2935 21.9939 97.225L21.0346 97.088C20.8291 97.088 20.692 96.7454 20.692 96.3343L23.8438 69.9554L25.6252 70.2295Z" fill="#FF7B00"/>
<path d="M19.9384 96.951L21.0346 97.0881L21.5828 97.1566L21.9939 97.2251C22.1994 97.2251 22.405 97.2251 22.405 97.1566L23.0216 91.8808H22.8846L21.2402 91.6752L19.8699 91.4697L19.2532 96.7455C19.2532 96.814 19.5273 96.951 19.9384 96.951Z" fill="#004F6B"/>
<path d="M21.1031 97.088L21.7198 97.1565L21.9939 97.225H22.1994C22.3364 97.225 22.405 97.1565 22.405 97.088L23.0216 91.8122H22.9531L22.0624 91.6752L21.3087 91.6067L20.692 96.8825C20.7606 97.0195 20.8976 97.088 21.1031 97.088Z" fill="#002E3F"/>
<path d="M24.4605 66.1871L25.4882 70.2296L22.4735 69.8185L24.4605 66.1871Z" fill="#7D5A00"/>
<path d="M24.4604 66.1871L23.5697 67.763L24.8715 67.8315L24.4604 66.1871Z" fill="white"/>
<path d="M20.0069 69.9554L19.9383 96.4713C19.9383 96.8824 19.5958 97.1565 19.2532 97.1565H17.6088C17.1977 97.1565 16.9236 96.8139 16.9236 96.4713L16.9921 69.9554H20.0069Z" fill="#F36C35"/>
<path d="M20.1439 69.9554L20.0754 96.4713C20.0754 96.8824 19.8698 97.1565 19.6643 97.1565H18.705C18.4995 97.1565 18.2939 96.8139 18.2939 96.4713L18.3624 69.9554H20.1439Z" fill="#D45E2E"/>
<path d="M17.6088 97.225H18.705H19.2532H19.6643C19.8698 97.225 20.0754 97.1565 20.0754 97.088V91.7437H19.9383H18.2939H16.8551V97.088C16.8551 97.1565 17.1977 97.1565 17.6088 97.225Z" fill="#004F6B"/>
<path d="M18.7736 97.225H19.3902H19.6643H19.8698C20.0069 97.225 20.0754 97.1565 20.0754 97.088V91.7437V91.7437H19.1847H18.3625V97.088C18.3625 97.1565 18.568 97.225 18.7736 97.225Z" fill="#002E3F"/>
<path d="M18.4995 66.1185L20.0069 69.9554H16.9236L18.4995 66.1185Z" fill="#7D5A00"/>
<path d="M18.4995 66.1185L17.8143 67.7629L19.1161 67.6944L18.4995 66.1185Z" fill="white"/>
<path d="M14.183 69.887L16.9922 96.2659C17.0607 96.677 16.7866 97.0196 16.3755 97.0196L14.7311 97.2251C14.32 97.2937 13.9774 97.0196 13.9774 96.6085L11.1682 70.2296L14.183 69.887Z" fill="#3498DB"/>
<path d="M14.32 69.8185L17.1292 96.1973C17.1977 96.6084 16.9921 96.8825 16.7866 96.951L15.8274 97.0195C15.6218 97.0195 15.4163 96.7455 15.3477 96.4029L12.5386 70.024L14.32 69.8185Z" fill="#34C8DB"/>
<path d="M14.6626 97.225L15.7588 97.088L16.307 97.0195L16.7181 96.951C16.9236 96.951 17.1292 96.8139 17.1292 96.7454L16.581 91.4011H16.444L14.7996 91.6067L13.4293 91.8122L13.9774 97.1565C13.9774 97.225 14.32 97.225 14.6626 97.225Z" fill="#004F6B"/>
<path d="M15.8959 97.0881L16.5125 97.0196H16.7866H16.9921C17.1292 97.0196 17.1977 96.9511 17.1977 96.8826L16.6495 91.5383H16.581L15.6903 91.6068L14.9366 91.6753L15.4848 97.0196C15.4848 97.0881 15.6903 97.0881 15.8959 97.0881Z" fill="#002E3F"/>
<path d="M12.2645 66.1871L14.183 69.887L11.0997 70.161L12.2645 66.1871Z" fill="#7D5A00"/>
<path d="M12.2645 66.1871L11.7849 67.9L13.0182 67.6944L12.2645 66.1871Z" fill="white"/>
<path d="M145.118 128.126H53.5115C53.5115 128.126 47.345 126.071 47.2079 122.371L49.8801 120.452H60.8428V119.219H55.0874C55.0874 119.219 52.6893 119.082 52.6893 116.821V58.7187C52.6893 58.7187 52.5522 56.7317 55.0874 56.3206H143.474C143.474 56.3206 145.872 56.4577 145.872 58.7187V105.516L147.174 106.817C147.174 106.817 146.9 107.366 145.872 109.352V116.821C145.872 116.821 145.872 119.219 143.474 119.219H137.718V120.452H148.27L150.737 122.302C150.737 122.302 150.531 127.509 145.118 128.126Z" fill="#2AA7AD"/>
<path d="M127.372 114.971H64.6112V117.917H127.372V114.971Z" fill="#19526B"/>
<path d="M64.6797 114.354H57.2799V118.602H64.6797V114.354Z" fill="#154459"/>
<path d="M134.224 114.354H126.824V118.602H134.224V114.354Z" fill="#154459"/>
<path fill-rule="evenodd" clip-rule="evenodd" d="M123.741 53.1689H139.979C141.076 53.1689 142.035 54.0597 142.035 55.2244V113.327C142.035 114.423 141.144 115.382 139.979 115.382H51.5245C50.9078 115.382 50.3597 115.108 49.9486 114.697L123.741 53.1689Z" fill="#0F303F"/>
<path fill-rule="evenodd" clip-rule="evenodd" d="M51.5245 53.1689H139.911C141.007 53.1689 141.966 54.0597 141.966 55.2244V113.327C141.966 114.423 141.076 115.382 139.911 115.382H51.5245C50.4282 115.382 49.469 114.491 49.469 113.327V55.1559C49.469 54.0597 50.4282 53.1689 51.5245 53.1689Z" fill="#0F303F"/>
<path fill-rule="evenodd" clip-rule="evenodd" d="M53.1004 58.1707H138.404C139.294 58.1707 139.979 58.8559 139.979 59.7466V103.734C139.979 104.625 139.294 105.31 138.404 105.31H53.1004C52.2097 105.31 51.5245 104.625 51.5245 103.734V59.7466C51.5245 58.8559 52.2782 58.1707 53.1004 58.1707Z" fill="#F4DB81"/>
<path fill-rule="evenodd" clip-rule="evenodd" d="M139.979 64.3372H51.5245V59.6095C51.5245 58.7873 52.2097 58.1022 53.0319 58.1022H138.335C139.226 58.1022 139.979 58.8559 139.979 59.7466V64.3372V64.3372Z" fill="#D4BE70"/>
<path fill-rule="evenodd" clip-rule="evenodd" d="M51.5245 52.7579H139.911C140.596 52.7579 141.144 53.0319 141.624 53.443C142.035 53.8541 142.309 54.4708 142.309 55.156V113.258C142.309 113.943 142.035 114.56 141.624 114.971C141.213 115.382 140.596 115.656 139.911 115.656H51.5245C50.8394 115.656 50.2912 115.382 49.8116 114.971C49.4005 114.56 49.1264 113.943 49.1264 113.258V55.156C49.1264 54.4708 49.4005 53.9227 49.8116 53.443C50.2912 53.0319 50.9079 52.7579 51.5245 52.7579ZM139.979 53.5116H51.5245C51.0449 53.5116 50.6338 53.7171 50.3597 53.9912C50.0857 54.3338 49.8801 54.7449 49.8801 55.156V113.258C49.8801 113.738 50.0857 114.149 50.3597 114.423C50.6338 114.697 51.1134 114.902 51.5245 114.902H139.911C140.391 114.902 140.802 114.697 141.076 114.423C141.35 114.149 141.555 113.669 141.555 113.258V55.156C141.555 54.6763 141.35 54.2652 141.076 53.9912C140.802 53.7171 140.391 53.5116 139.979 53.5116Z" fill="#FAF5D0"/>
<path fill-rule="evenodd" clip-rule="evenodd" d="M96.8825 112.71C98.1843 112.71 99.2806 111.614 99.2806 110.312C99.2806 109.01 98.1843 107.914 96.8825 107.914C95.5807 107.914 94.4844 109.01 94.4844 110.312C94.4844 111.682 95.5807 112.71 96.8825 112.71Z" fill="#0F303F"/>
<path fill-rule="evenodd" clip-rule="evenodd" d="M96.677 112.093C97.7732 112.093 98.7325 111.203 98.7325 110.038C98.7325 108.941 97.8417 107.982 96.677 107.982C95.5807 107.982 94.6215 108.873 94.6215 110.038C94.6215 111.134 95.5122 112.093 96.677 112.093Z" fill="#F7CE96"/>
<path fill-rule="evenodd" clip-rule="evenodd" d="M96.677 107.982C97.4306 107.982 98.0473 108.393 98.3899 108.941C97.9103 109.764 97.0196 110.312 95.9918 110.312C95.5122 110.312 95.0326 110.175 94.6215 109.969C94.6215 108.873 95.5122 107.982 96.677 107.982Z" fill="white"/>
<path fill-rule="evenodd" clip-rule="evenodd" d="M144.776 116.889L147.037 118.876C147.037 122.028 144.296 124.563 141.624 124.563H51.1819C48.5098 124.563 43.7136 121.96 43.7136 118.808L46.3858 116.889H144.776V116.889Z" fill="#0F303F"/>
<path fill-rule="evenodd" clip-rule="evenodd" d="M146.763 120.247H46.4543C43.7136 119.767 43.6451 119.287 43.6451 118.808L46.3172 116.889H144.776L147.174 118.739C147.174 119.287 146.763 119.767 146.763 120.247Z" fill="#154459"/>
<path fill-rule="evenodd" clip-rule="evenodd" d="M86.0569 117.78H106.269C106.543 117.78 106.749 117.917 106.749 118.123V118.602C106.749 118.808 106.543 118.945 107.503 118.945H87.2902C85.7828 118.945 85.5088 118.808 85.5088 118.602V118.123C85.5773 117.917 85.7828 117.78 86.0569 117.78Z" fill="#0F303F"/>
<path opacity="0.15" fill-rule="evenodd" clip-rule="evenodd" d="M66.187 114.971H51.8671C51.8671 114.971 50.2912 115.108 49.9486 112.436V55.567C49.9486 55.567 50.4967 53.1689 51.8671 53.5115H119.562L66.187 114.971Z" fill="white"/>
<path d="M108.119 101.199C116.255 101.199 122.85 94.6037 122.85 86.468C122.85 78.3322 116.255 71.7369 108.119 71.7369C99.9835 71.7369 93.3882 78.3322 93.3882 86.468C93.3882 94.6037 99.9835 101.199 108.119 101.199Z" stroke="white" stroke-width="0.0894" stroke-miterlimit="10"/>
<path fill-rule="evenodd" clip-rule="evenodd" d="M130.593 96.9511L132.032 95.1697L123.056 87.9069L122.85 88.181C124.015 90.9217 125.111 93.7993 126.208 96.4715C128.606 95.7178 128.674 95.4437 130.593 96.9511Z" fill="#3E9A9E"/>
<path fill-rule="evenodd" clip-rule="evenodd" d="M133.539 93.3882L130.661 96.951L143.131 107.229L146.489 106.201L133.539 93.3882Z" fill="#F36C35"/>
<path fill-rule="evenodd" clip-rule="evenodd" d="M133.059 93.9364L132.032 95.2382L143.337 106.749L145.529 106.406L133.059 93.9364Z" fill="#F3885C"/>
<path fill-rule="evenodd" clip-rule="evenodd" d="M138.472 98.5269L136.211 101.542L145.324 110.038L148.475 107.571L138.472 98.5269Z" fill="#F36C35"/>
<path fill-rule="evenodd" clip-rule="evenodd" d="M138.129 99.0066L137.033 100.308L146.42 109.901L147.585 108.736L138.129 99.0066Z" fill="#F3885C"/>
<path fill-rule="evenodd" clip-rule="evenodd" d="M131.894 95.3068L133.47 93.3883C131.62 91.881 131.894 91.7439 132.031 89.2773C129.154 88.7292 126.071 88.3181 123.193 87.77L122.987 88.044L131.894 95.3068Z" fill="#4AB8BD"/>
<path fill-rule="evenodd" clip-rule="evenodd" d="M129.839 96.54C129.633 96.7455 129.702 97.0881 129.907 97.2936C130.113 97.4992 130.456 97.4307 130.661 97.2251L133.813 93.3882C134.018 93.1826 133.95 92.8401 133.744 92.6345C133.539 92.429 133.196 92.4975 132.991 92.703L129.839 96.54Z" fill="#154569"/>
<path fill-rule="evenodd" clip-rule="evenodd" d="M128.674 92.429C128.4 92.7716 127.921 92.8401 127.578 92.5661C127.304 92.3605 127.235 92.0179 127.304 91.6753L122.85 88.1125L123.193 87.7014L127.646 91.2642C127.921 91.0587 128.263 91.0587 128.537 91.3328C128.88 91.6068 128.948 92.0864 128.674 92.429Z" fill="white"/>
<path fill-rule="evenodd" clip-rule="evenodd" d="M122.439 102.501C122.371 102.227 122.576 102.021 122.782 101.953C123.056 101.884 123.261 102.09 123.33 102.295C123.398 102.569 123.193 102.775 122.987 102.844C122.713 102.912 122.439 102.775 122.439 102.501Z" fill="#154569"/>
<path fill-rule="evenodd" clip-rule="evenodd" d="M123.467 102.295C123.467 102.501 123.467 102.638 123.33 102.775C123.261 102.912 123.124 102.981 122.919 103.049C122.713 103.049 122.576 103.049 122.439 102.912C122.302 102.843 122.234 102.706 122.165 102.501C122.165 102.364 122.165 102.158 122.302 102.021C122.371 101.884 122.508 101.816 122.713 101.747C122.85 101.747 123.056 101.747 123.193 101.884C123.398 102.021 123.467 102.158 123.467 102.295ZM123.056 102.158C122.987 102.09 122.919 102.09 122.85 102.09C122.782 102.09 122.713 102.158 122.645 102.227C122.576 102.295 122.576 102.364 122.576 102.432C122.576 102.501 122.645 102.569 122.713 102.638C122.782 102.706 122.85 102.706 122.919 102.706C122.987 102.706 123.056 102.638 123.124 102.569C123.193 102.501 123.193 102.432 123.193 102.364C123.124 102.295 123.124 102.227 123.056 102.158Z" fill="#154569"/>
<path fill-rule="evenodd" clip-rule="evenodd" d="M122.439 87.2218C122.371 86.9478 122.576 86.7422 122.782 86.6737C123.056 86.6052 123.261 86.8108 123.33 87.0163C123.398 87.2904 123.193 87.4959 122.987 87.5644C122.713 87.633 122.439 87.4274 122.439 87.2218Z" fill="#154569"/>
<path fill-rule="evenodd" clip-rule="evenodd" d="M123.467 87.0163C123.467 87.2218 123.467 87.3589 123.33 87.4959C123.261 87.6329 123.124 87.7014 122.919 87.77C122.713 87.77 122.576 87.77 122.439 87.6329C122.302 87.5644 122.234 87.4274 122.165 87.2218C122.165 87.0163 122.165 86.8792 122.302 86.7422C122.371 86.6052 122.508 86.5367 122.713 86.4681C122.85 86.4681 123.056 86.4681 123.193 86.6052C123.398 86.7422 123.467 86.8792 123.467 87.0163ZM123.056 86.8792C122.987 86.8107 122.919 86.8107 122.85 86.8107C122.782 86.8107 122.713 86.8792 122.645 86.9478C122.576 87.0163 122.576 87.0848 122.576 87.1533C122.576 87.2218 122.645 87.2903 122.713 87.3589C122.782 87.4274 122.85 87.4274 122.919 87.4274C122.987 87.4274 123.056 87.3589 123.124 87.2903C123.193 87.2218 123.193 87.1533 123.193 87.0848C123.124 87.0163 123.124 86.9478 123.056 86.8792Z" fill="#154569"/>
<path fill-rule="evenodd" clip-rule="evenodd" d="M122.439 70.6407C122.371 70.3667 122.576 70.1611 122.782 70.0926C123.056 70.0241 123.261 70.2296 123.33 70.4352C123.398 70.7093 123.193 70.9148 122.987 70.9833C122.713 71.0518 122.439 70.9148 122.439 70.6407Z" fill="#154569"/>
<path fill-rule="evenodd" clip-rule="evenodd" d="M123.467 70.4352C123.467 70.6407 123.467 70.7777 123.33 70.9148C123.261 71.0518 123.124 71.1203 122.919 71.1888C122.713 71.1888 122.576 71.1888 122.439 71.0518C122.302 70.9833 122.234 70.8463 122.165 70.6407C122.165 70.5037 122.165 70.2981 122.302 70.1611C122.371 70.0241 122.508 69.9555 122.713 69.887C122.85 69.887 123.056 69.887 123.193 70.0241C123.398 70.1611 123.467 70.2981 123.467 70.4352ZM123.056 70.2981C122.987 70.2296 122.919 70.2296 122.85 70.2296C122.782 70.2296 122.713 70.2981 122.645 70.3666C122.576 70.4352 122.576 70.5037 122.576 70.5722C122.576 70.6407 122.645 70.7092 122.713 70.7777C122.782 70.8463 122.85 70.8463 122.919 70.8463C122.987 70.8463 123.056 70.7777 123.124 70.7092C123.193 70.6407 123.193 70.5722 123.193 70.5037C123.124 70.4352 123.124 70.3666 123.056 70.2981Z" fill="#154569"/>
<path fill-rule="evenodd" clip-rule="evenodd" d="M107.229 71.874C107.16 71.3944 107.503 70.9148 107.982 70.7777C108.462 70.7092 108.941 71.0518 109.078 71.5314C109.147 72.011 108.804 72.4907 108.325 72.6277C107.777 72.7647 107.297 72.4221 107.229 71.874Z" stroke="white" stroke-width="0.05" stroke-miterlimit="10"/>
<path fill-rule="evenodd" clip-rule="evenodd" d="M107.297 101.405C107.229 100.925 107.571 100.445 108.051 100.308C108.53 100.24 109.01 100.582 109.147 101.062C109.216 101.542 108.873 102.021 108.393 102.158C107.845 102.227 107.366 101.884 107.297 101.405Z" stroke="white" stroke-width="0.05" stroke-miterlimit="10"/>
<path fill-rule="evenodd" clip-rule="evenodd" d="M92.4974 86.6736C92.4289 86.194 92.7715 85.7144 93.2511 85.5773C93.7307 85.5088 94.2103 85.8514 94.3474 86.331C94.4844 86.8106 94.0733 87.2902 93.5937 87.4273C93.1141 87.5643 92.5659 87.1532 92.4974 86.6736Z" stroke="white" stroke-width="0.05" stroke-miterlimit="10"/>
<path d="M123.056 70.2981H122.782V102.706H123.056V70.2981Z" fill="#154569"/>
<path d="M77.5608 79.5479H67.763V82.3571H77.5608V79.5479Z" fill="#32C8CF"/>
<path d="M89.3457 79.5479H79.5478V82.3571H89.3457V79.5479Z" fill="#32C8CF"/>
<path d="M65.776 79.5479H55.9781V82.3571H65.776V79.5479Z" fill="#32C8CF"/>
<path d="M89.4142 84.2755H55.9781V91.4698H89.4142V84.2755Z" fill="#3498DB"/>
<path d="M89.4142 93.3198H55.9781V100.446H89.4142V93.3198Z" fill="#F36C35"/>
<path d="M79.4108 96.3345H65.4334V97.4308H79.4108V96.3345Z" fill="white"/>
<path d="M84.481 87.3589H60.4317V88.044H84.481V87.3589Z" fill="white"/>
<path d="M63.0353 80.6442H58.7188V81.2608H63.0353V80.6442Z" fill="white"/>
<path d="M74.8202 80.6442H70.5036V81.2608H74.8202V80.6442Z" fill="white"/>
<path d="M86.605 80.6442H82.2885V81.2608H86.605V80.6442Z" fill="white"/>
<path d="M65.3649 68.1057H55.9781V77.4925H65.3649V68.1057Z" fill="#3498DB"/>
<path d="M77.3553 68.1057H67.9685V77.4925H77.3553V68.1057Z" fill="#F36C35"/>
<path d="M89.1402 68.1057H79.7534V77.4925H89.1402V68.1057Z" fill="#103754"/>
<path opacity="0.5" d="M60.5002 74.5462C61.4841 74.5462 62.2816 73.7486 62.2816 72.7647C62.2816 71.7809 61.4841 70.9833 60.5002 70.9833C59.5163 70.9833 58.7188 71.7809 58.7188 72.7647C58.7188 73.7486 59.5163 74.5462 60.5002 74.5462Z" fill="white"/>
<path d="M74.4091 72.7647C74.4091 73.724 73.6554 74.5462 72.6276 74.5462C71.6684 74.5462 70.8462 73.7925 70.8462 72.7647C70.8462 71.8055 71.5999 70.9833 72.6276 70.9833C73.5869 70.9833 74.4091 71.8055 74.4091 72.7647Z" fill="#FCA681"/>
<path d="M84.481 74.5462C85.4649 74.5462 86.2625 73.7486 86.2625 72.7647C86.2625 71.7809 85.4649 70.9833 84.481 70.9833C83.4972 70.9833 82.6996 71.7809 82.6996 72.7647C82.6996 73.7486 83.4972 74.5462 84.481 74.5462Z" fill="#195785"/>
<path d="M135.526 60.5688H69.4073V61.8021H135.526V60.5688Z" fill="#F8FFFF"/>
<path d="M130.73 69.7501H126.824V73.6555H130.73V69.7501Z" fill="#F36C35"/>
<path d="M130.73 75.7794H126.824V79.6848H130.73V75.7794Z" fill="#FDBE08"/>
<path opacity="0.8" d="M136.143 75.7794H132.237V79.6848H136.143V75.7794Z" fill="white"/>
<path d="M136.143 69.7501H132.237V73.6555H136.143V69.7501Z" fill="#319BED"/>
<path d="M108.941 86.5365C108.941 86.9476 108.599 87.2902 108.188 87.2902C107.777 87.2902 107.434 86.9476 107.434 86.5365C107.434 86.1255 107.777 85.7829 108.188 85.7829C108.599 85.7144 108.941 86.0569 108.941 86.5365Z" fill="white"/>
<path d="M168.071 135.526L167.729 132.032H166.701V123.193H167.044V131.689H168.003L168.345 135.526H168.071Z" fill="white"/>
<path d="M118.123 164.714L118.191 153.683C118.191 153.683 118.876 147.927 125.111 146.694V144.639H126.345V140.185C126.345 140.185 126.139 138.952 125.111 138.883H114.491C114.491 138.883 113.464 138.815 113.052 140.253V167.318C113.052 167.318 112.915 169.305 110.654 169.647H107.64V172.114H93.9363C93.9363 172.114 92.2234 170.127 88.8661 169.167C88.8661 169.167 92.7715 167.729 93.9363 166.221H107.64V168.414H110.449C110.449 168.414 111.34 168.482 111.819 167.318V140.185C111.819 140.185 112.093 137.65 114.491 137.65H125.385C125.385 137.65 127.578 138.061 127.578 140.185V144.639H128.606V146.694C128.606 146.694 134.43 147.516 135.32 153.683V164.097C135.32 164.097 134.567 171.292 126.756 171.429C126.756 171.429 119.836 171.977 118.123 164.714Z" fill="#2AA7AD"/>
<path d="M123.741 167.866H122.645C118.191 167.866 114.628 164.234 114.628 159.849V151.148C114.628 146.694 118.26 143.131 122.645 143.131H123.741C128.195 143.131 131.757 146.762 131.757 151.148V159.849C131.826 164.303 128.195 167.866 123.741 167.866Z" fill="#DBDCDD"/>
<path d="M116.067 164.714H114.286C107.091 164.714 101.199 159.027 101.199 152.038V138.335C101.199 131.346 107.023 125.659 114.286 125.659H116.067C123.261 125.659 129.154 131.346 129.154 138.335V152.038C129.154 159.027 123.261 164.714 116.067 164.714Z" fill="white"/>
<path d="M106.954 166.153H96.7454V164.92H106.954C107.708 164.92 108.393 164.303 108.393 163.481V136.691C108.393 135.252 109.558 134.087 110.997 134.087H121.48C122.919 134.087 124.084 135.252 124.084 136.691V142.994H122.85V136.691C122.85 135.937 122.234 135.252 121.411 135.252H110.997C110.243 135.252 109.558 135.868 109.558 136.691V163.481C109.558 164.988 108.393 166.153 106.954 166.153Z" fill="white"/>
<path d="M104.145 165.673V162.727H90.4419C90.4419 162.727 89.2086 164.44 85.3717 165.673C89.2086 166.838 90.4419 168.619 90.4419 168.619H104.145V165.673Z" fill="white"/>
<path d="M93.0455 166.906C92.3604 166.906 91.8808 166.358 91.8808 165.742C91.8808 165.056 92.4289 164.577 93.0455 164.577C93.7307 164.577 94.2103 165.125 94.2103 165.742C94.2788 166.358 93.7307 166.906 93.0455 166.906Z" fill="#4EC4C8"/>
<path d="M125.111 141.144H121.617V143.2H125.111V141.144Z" fill="white"/>
<path fill-rule="evenodd" clip-rule="evenodd" d="M55.567 60.7743C55.567 61.528 54.9503 62.1447 54.1966 62.1447C53.4429 62.1447 52.8263 61.528 52.8263 60.7743C52.8263 60.0206 53.4429 59.404 54.1966 59.404C54.9503 59.404 55.567 60.0206 55.567 60.7743Z" fill="#319BED"/>
<path fill-rule="evenodd" clip-rule="evenodd" d="M60.0206 60.7743C60.0206 61.528 59.4039 62.1447 58.6502 62.1447C57.8965 62.1447 57.2799 61.528 57.2799 60.7743C57.2799 60.0206 57.8965 59.404 58.6502 59.404C59.4039 59.404 60.0206 60.0206 60.0206 60.7743Z" fill="#F36C35"/>
<path fill-rule="evenodd" clip-rule="evenodd" d="M64.5427 60.7743C64.5427 61.528 63.926 62.1447 63.1723 62.1447C62.4187 62.1447 61.802 61.528 61.802 60.7743C61.802 60.0206 62.4187 59.404 63.1723 59.404C63.926 59.404 64.5427 60.0206 64.5427 60.7743Z" fill="#FDBE08"/>
<g opacity="0.85">
<path opacity="0.85" d="M99.4861 142.652C99.4861 142.652 97.4991 143.474 95.0325 143.474C92.566 143.474 90.579 142.652 90.579 142.652C90.579 142.652 92.566 141.829 95.0325 141.829C97.4991 141.829 99.4861 142.652 99.4861 142.652Z" fill="white"/>
<path opacity="0.85" d="M95.0325 138.198C95.0325 138.198 95.8547 140.185 95.8547 142.652C95.8547 145.118 95.0325 147.105 95.0325 147.105C95.0325 147.105 94.2103 145.118 94.2103 142.652C94.2103 140.185 95.0325 138.198 95.0325 138.198Z" fill="white"/>
</g>
<path opacity="0.5" d="M70.5721 160.055C71.1203 162.864 69.2703 165.605 66.4611 166.221C63.6519 166.769 60.9113 164.919 60.2946 162.11C59.7465 159.301 61.5964 156.56 64.4056 155.944C67.2833 155.396 70.024 157.246 70.5721 160.055Z" stroke="white" stroke-width="0.1473" stroke-miterlimit="10" stroke-dasharray="0.33 0.33"/>
<path opacity="0.25" d="M67.2148 161.083C67.2148 162.042 66.3926 162.864 65.4334 162.864C64.4741 162.864 63.6519 162.042 63.6519 161.083C63.6519 160.123 64.4741 159.301 65.4334 159.301C66.4611 159.301 67.2148 160.123 67.2148 161.083Z" fill="white"/>
<path opacity="0.45" d="M145.187 140.802C145.529 142.377 144.502 143.885 142.926 144.159C141.35 144.502 139.911 143.474 139.568 141.898C139.226 140.322 140.254 138.883 141.829 138.541C143.337 138.266 144.844 139.226 145.187 140.802Z" fill="white"/>
<defs>
<linearGradient id="paint0_linear" x1="13.8219" y1="41.064" x2="33.4389" y2="41.064" gradientUnits="userSpaceOnUse">
<stop offset="0.5152" stop-color="#E0E0E0"/>
</linearGradient>
</defs>
</svg>
