<svg width="200" height="72" viewBox="0 0 200 72" fill="none" xmlns="http://www.w3.org/2000/svg">
<g clip-path="url(#clip0)">
<rect width="200" height="72" fill="#F7F7F7"/>
<g clip-path="url(#clip1)">
<path d="M185.574 61.6154H146.432C145.638 61.6154 145 62.2562 145 63.0531V72.5677C145 73.3592 145.638 74.0054 146.432 74.0054H185.574C186.362 74.0054 187.005 73.3646 187.005 72.5677V63.0531C187 62.2562 186.362 61.6154 185.574 61.6154Z" fill="#E0E0E0"/>
<path d="M182.855 67.8077C182.855 69.2454 181.697 70.4085 180.265 70.4085C178.834 70.4085 177.676 69.2454 177.676 67.8077C177.676 66.37 178.834 65.2069 180.265 65.2069C181.697 65.2069 182.855 66.37 182.855 67.8077Z" fill="white"/>
<path d="M181.584 67.8077C181.584 68.54 180.995 69.1323 180.265 69.1323C179.536 69.1323 178.946 68.54 178.946 67.8077C178.946 67.0754 179.536 66.4831 180.265 66.4831C180.995 66.4831 181.584 67.0754 181.584 67.8077Z" fill="#E0E0E0"/>
<path d="M174.716 66.3269H171.767V69.2885H174.716V66.3269Z" fill="white"/>
<path d="M185.574 48.6923H146.432C145.638 48.6923 145 49.3331 145 50.13V59.6446C145 60.4362 145.638 61.0823 146.432 61.0823H185.574C186.362 61.0823 187.005 60.4415 187.005 59.6446V50.13C187 49.3331 186.362 48.6923 185.574 48.6923Z" fill="#E0E0E0"/>
<path d="M182.855 54.8846C182.855 56.3223 181.697 57.4854 180.265 57.4854C178.834 57.4854 177.676 56.3223 177.676 54.8846C177.676 53.4469 178.834 52.2839 180.265 52.2839C181.697 52.2839 182.855 53.4469 182.855 54.8846Z" fill="white"/>
<path d="M181.584 54.8846C181.584 55.6169 180.995 56.2092 180.265 56.2092C179.536 56.2092 178.946 55.6169 178.946 54.8846C178.946 54.1523 179.536 53.56 180.265 53.56C180.995 53.56 181.584 54.1523 181.584 54.8846Z" fill="#E0E0E0"/>
<path d="M174.716 53.4038H171.767V56.3654H174.716V53.4038Z" fill="white"/>
<path d="M185.574 35.7692H146.432C145.638 35.7692 145 36.41 145 37.2069V46.7215C145 47.5131 145.638 48.1538 146.432 48.1538H185.574C186.362 48.1538 187.005 47.5131 187.005 46.7162V37.2069C187 36.41 186.362 35.7692 185.574 35.7692Z" fill="#E0E0E0"/>
<path d="M182.855 41.9615C182.855 43.3992 181.697 44.5623 180.265 44.5623C178.834 44.5623 177.676 43.3992 177.676 41.9615C177.676 40.5238 178.834 39.3608 180.265 39.3608C181.697 39.3608 182.855 40.5238 182.855 41.9615Z" fill="white"/>
<path d="M181.584 41.9615C181.584 42.6938 180.995 43.2861 180.265 43.2861C179.536 43.2861 178.946 42.6938 178.946 41.9615C178.946 41.2292 179.536 40.6369 180.265 40.6369C180.995 40.6369 181.584 41.2292 181.584 41.9615Z" fill="#E0E0E0"/>
<path d="M174.716 40.4808H171.767V43.4423H174.716V40.4808Z" fill="white"/>
<path d="M185.574 22.8461H146.432C145.638 22.8461 145 23.4869 145 24.2838V33.7985C145 34.59 145.638 35.2308 146.432 35.2308H185.574C186.362 35.2308 187.005 34.59 187.005 33.7931V24.2838C187 23.4869 186.362 22.8461 185.574 22.8461Z" fill="#E0E0E0"/>
<path d="M182.855 29.0385C182.855 30.4761 181.697 31.6392 180.265 31.6392C178.834 31.6392 177.676 30.4761 177.676 29.0385C177.676 27.6008 178.834 26.4377 180.265 26.4377C181.697 26.4377 182.855 27.6008 182.855 29.0385Z" fill="white"/>
<path d="M181.584 29.0385C181.584 29.7708 180.995 30.3631 180.265 30.3631C179.536 30.3631 178.946 29.7708 178.946 29.0385C178.946 28.3061 179.536 27.7138 180.265 27.7138C180.995 27.7138 181.584 28.3061 181.584 29.0385Z" fill="#E0E0E0"/>
<path d="M174.716 27.5577H171.767V30.5192H174.716V27.5577Z" fill="white"/>
<path d="M185.574 9.92308H146.432C145.638 9.92308 145 10.5638 145 11.3608V20.8754C145 21.6669 145.638 22.3077 146.432 22.3077H185.574C186.362 22.3077 187.005 21.6669 187.005 20.87V11.3608C187 10.5638 186.362 9.92308 185.574 9.92308Z" fill="#E0E0E0"/>
<path d="M182.855 16.1154C182.855 17.5531 181.697 18.7162 180.265 18.7162C178.834 18.7162 177.676 17.5531 177.676 16.1154C177.676 14.6777 178.834 13.5146 180.265 13.5146C181.697 13.5146 182.855 14.6777 182.855 16.1154Z" fill="white"/>
<path d="M181.584 16.1154C181.584 16.8477 180.995 17.44 180.265 17.44C179.536 17.44 178.946 16.8477 178.946 16.1154C178.946 15.3831 179.536 14.7908 180.265 14.7908C180.995 14.7908 181.584 15.3831 181.584 16.1154Z" fill="#E0E0E0"/>
<path d="M174.716 14.6346H171.767V17.5962H174.716V14.6346Z" fill="white"/>
<path d="M185.574 -3H146.432C145.638 -3 145 -2.35923 145 -1.56231V7.95231C145 8.74385 145.638 9.38461 146.432 9.38461H185.574C186.362 9.38461 187.005 8.74384 187.005 7.94692V-1.56231C187 -2.35923 186.362 -3 185.574 -3Z" fill="#E0E0E0"/>
<path d="M182.855 3.19231C182.855 4.63 181.697 5.79308 180.265 5.79308C178.834 5.79308 177.676 4.63 177.676 3.19231C177.676 1.75461 178.834 0.591537 180.265 0.591537C181.697 0.591537 182.855 1.75461 182.855 3.19231Z" fill="white"/>
<path d="M181.584 3.19231C181.584 3.92461 180.995 4.51692 180.265 4.51692C179.536 4.51692 178.946 3.92461 178.946 3.19231C178.946 2.46 179.536 1.86769 180.265 1.86769C180.995 1.86769 181.584 2.46 181.584 3.19231Z" fill="#E0E0E0"/>
<path d="M174.716 1.71153H171.767V4.67307H174.716V1.71153Z" fill="white"/>
</g>
<path d="M101 6H6V66H101V6Z" fill="white"/>
<path d="M101 6H6V10.0644H101V6Z" fill="#D3D3D3"/>
<path d="M99.5866 8.0322C99.5866 8.70682 99.033 9.25652 98.3535 9.25652C97.6741 9.25652 97.1205 8.70682 97.1205 8.0322C97.1205 7.35757 97.6741 6.80788 98.3535 6.80788C99.0372 6.80788 99.5866 7.35757 99.5866 8.0322Z" fill="#E0E0E0"/>
<path d="M95.489 8.0322C95.489 8.70682 94.9354 9.25652 94.2559 9.25652C93.5765 9.25652 93.0229 8.70682 93.0229 8.0322C93.0229 7.35757 93.5765 6.80788 94.2559 6.80788C94.9354 6.80788 95.489 7.35757 95.489 8.0322Z" fill="#E0E0E0"/>
<path d="M91.3872 8.0322C91.3872 8.70682 90.8336 9.25652 90.1541 9.25652C89.4747 9.25652 88.9211 8.70682 88.9211 8.0322C88.9211 7.35757 89.4747 6.80788 90.1541 6.80788C90.8336 6.80788 91.3872 7.35757 91.3872 8.0322Z" fill="#E0E0E0"/>
<path d="M23.1789 17.1147L22.596 16.3068C22.3821 16.0111 22.0381 15.832 21.6858 15.832H17.5631C17.2066 15.832 16.8878 16.0111 16.7075 16.3068L16.2168 17.1147C16.0364 17.4103 15.7177 17.5894 15.3612 17.5894H12.9034C12.3163 17.5894 11.8717 18.0641 11.9053 18.6513L12.7021 32.3145C12.7357 32.9017 13.239 33.3764 13.8261 33.3764H33.316C33.9032 33.3764 34.3519 32.9017 34.3142 32.3145L33.5173 18.6513C33.4838 18.0641 32.9805 17.5894 32.3933 17.5894H24.089C23.7367 17.5894 23.3928 17.4103 23.1789 17.1147Z" fill="#D3D3D3"/>
<path d="M34.3394 18.8887H16.4852C15.7428 18.8887 15.0844 19.4842 15.0172 20.2171L13.9436 32.048C13.8765 32.781 14.4259 33.3765 15.1724 33.3765H33.0266C33.769 33.3765 34.4274 32.781 34.4945 32.048L35.5682 20.2171C35.6353 19.4842 35.0817 18.8887 34.3394 18.8887Z" fill="#E0E0E0"/>
<path d="M52.9107 17.1147L52.3278 16.3068C52.1139 16.0111 51.77 15.832 51.4176 15.832H47.2949C46.9384 15.832 46.6196 16.0111 46.4393 16.3068L45.9486 17.1147C45.7682 17.4103 45.4495 17.5894 45.093 17.5894H42.6353C42.0481 17.5894 41.6035 18.0641 41.6371 18.6513L42.4339 32.3145C42.4675 32.9017 42.9708 33.3764 43.558 33.3764H63.0478C63.635 33.3764 64.0838 32.9017 64.046 32.3145L63.2491 18.6513C63.2156 18.0641 62.7123 17.5894 62.1251 17.5894H53.825C53.4686 17.5894 53.1246 17.4103 52.9107 17.1147Z" fill="#D3D3D3"/>
<path d="M64.0712 18.8887H46.217C45.4746 18.8887 44.8162 19.4842 44.7491 20.2171L43.6754 32.048C43.6083 32.781 44.1577 33.3765 44.9042 33.3765H62.7584C63.505 33.3765 64.1592 32.781 64.2263 32.048L65.3 20.2171C65.3671 19.4842 64.8177 18.8887 64.0712 18.8887Z" fill="#E0E0E0"/>
<path d="M82.6467 17.1147L82.0638 16.3068C81.8499 16.0111 81.506 15.832 81.1536 15.832H77.0309C76.6744 15.832 76.3556 16.0111 76.1753 16.3068L75.6846 17.1147C75.5042 17.4103 75.1855 17.5894 74.829 17.5894H72.3712C71.7841 17.5894 71.3395 18.0641 71.3731 18.6513L72.1699 32.3145C72.2035 32.9017 72.7068 33.3764 73.2939 33.3764H92.7838C93.371 33.3764 93.8198 32.9017 93.782 32.3145L92.9851 18.6513C92.9516 18.0641 92.4483 17.5894 91.8611 17.5894H83.561C83.2004 17.5894 82.8606 17.4103 82.6467 17.1147Z" fill="#D3D3D3"/>
<path d="M93.803 18.8887H75.9488C75.2064 18.8887 74.548 19.4842 74.4809 20.2171L73.4072 32.048C73.3401 32.781 73.8895 33.3765 74.6361 33.3765H92.4902C93.2326 33.3765 93.8911 32.781 93.9582 32.048L95.0318 20.2171C95.0989 19.4842 94.5495 18.8887 93.803 18.8887Z" fill="#E0E0E0"/>
<path d="M23.1789 42.1174L22.596 41.3096C22.3821 41.0139 22.0381 40.8348 21.6858 40.8348H17.5631C17.2066 40.8348 16.8878 41.0139 16.7075 41.3096L16.2168 42.1174C16.0364 42.4131 15.7177 42.5922 15.3612 42.5922H12.9034C12.3163 42.5922 11.8717 43.0669 11.9053 43.6541L12.7021 57.3173C12.7357 57.9045 13.239 58.3792 13.8261 58.3792H33.316C33.9032 58.3792 34.3519 57.9045 34.3142 57.3173L33.5173 43.6541C33.4838 43.0669 32.9805 42.5922 32.3933 42.5922H24.089C23.7367 42.588 23.3928 42.4131 23.1789 42.1174Z" fill="#D3D3D3"/>
<path d="M34.3394 43.8914H16.4852C15.7428 43.8914 15.0844 44.487 15.0172 45.2199L13.9436 57.0508C13.8765 57.7837 14.4259 58.3792 15.1724 58.3792H33.0266C33.769 58.3792 34.4274 57.7837 34.4945 57.0508L35.5682 45.2199C35.6353 44.487 35.0817 43.8914 34.3394 43.8914Z" fill="#E0E0E0"/>
<path d="M52.9107 42.1174L52.3278 41.3096C52.1139 41.0139 51.77 40.8348 51.4176 40.8348H47.2949C46.9384 40.8348 46.6196 41.0139 46.4393 41.3096L45.9486 42.1174C45.7682 42.4131 45.4495 42.5922 45.093 42.5922H42.6353C42.0481 42.5922 41.6035 43.0669 41.6371 43.6541L42.4339 57.3173C42.4675 57.9045 42.9708 58.3792 43.558 58.3792H63.0478C63.635 58.3792 64.0838 57.9045 64.046 57.3173L63.2491 43.6541C63.2156 43.0669 62.7123 42.5922 62.1251 42.5922H53.825C53.4686 42.588 53.1246 42.4131 52.9107 42.1174Z" fill="#D3D3D3"/>
<path d="M64.0712 43.8914H46.217C45.4746 43.8914 44.8162 44.487 44.7491 45.2199L43.6754 57.0508C43.6083 57.7837 44.1577 58.3792 44.9042 58.3792H62.7584C63.505 58.3792 64.1592 57.7837 64.2263 57.0508L65.3 45.2199C65.3671 44.487 64.8177 43.8914 64.0712 43.8914Z" fill="#E0E0E0"/>
<path d="M82.6467 42.1174L82.0638 41.3096C81.8499 41.0139 81.506 40.8348 81.1536 40.8348H77.0309C76.6744 40.8348 76.3556 41.0139 76.1753 41.3096L75.6846 42.1174C75.5042 42.4131 75.1855 42.5922 74.829 42.5922H72.3712C71.7841 42.5922 71.3395 43.0669 71.3731 43.6541L72.1699 57.3173C72.2035 57.9045 72.7068 58.3792 73.2939 58.3792H92.7838C93.371 58.3792 93.8198 57.9045 93.782 57.3173L92.9851 43.6541C92.9516 43.0669 92.4483 42.5922 91.8611 42.5922H83.561C83.2004 42.588 82.8606 42.4131 82.6467 42.1174Z" fill="#D3D3D3"/>
<path d="M93.803 43.8914H75.9488C75.2064 43.8914 74.548 44.487 74.4809 45.2199L73.4072 57.0508C73.3401 57.7837 73.8895 58.3792 74.6361 58.3792H92.4902C93.2326 58.3792 93.8911 57.7837 93.9582 57.0508L95.0318 45.2199C95.0989 44.487 94.5495 43.8914 93.803 43.8914Z" fill="#E0E0E0"/>
<path opacity="0.5" d="M94.5 36C93.6745 36 93 35.3279 93 34.5C93 33.6745 93.6721 33 94.5 33C95.3255 33 96 33.6721 96 34.5C95.9976 35.3255 95.3255 36 94.5 36Z" fill="#FA9D99"/>
<path d="M94.3976 37.9307C92.525 37.9307 91 36.39 91 34.4981C91 32.6061 92.525 31.0654 94.3976 31.0654C96.2702 31.0654 97.7952 32.6061 97.7952 34.4981C97.7952 36.39 96.2702 37.9307 94.3976 37.9307ZM94.3976 31.9509C93.007 31.9509 91.8764 33.0931 91.8764 34.4981C91.8764 35.903 93.007 37.0452 94.3976 37.0452C95.7882 37.0452 96.9187 35.903 96.9187 34.4981C96.9187 33.0931 95.7882 31.9509 94.3976 31.9509Z" fill="#CA3D3D"/>
<path d="M146.1 34.197H97.021V34.7873H146.1V34.197Z" fill="#CA3D3D"/>
<path d="M94.6839 31.8358H94.0996V28.2939C94.0996 28.2142 94.1317 28.1405 94.1843 28.0844L112.054 10.08C112.11 10.024 112.183 9.99445 112.262 9.99445H128.572V10.5848H112.382L94.6839 28.415V31.8358Z" fill="#CA3D3D"/>
<path d="M137.044 61.6462H115.134C115.055 61.6462 114.982 61.6138 114.926 61.5606L94.1843 40.6048C94.1288 40.5487 94.0996 40.4749 94.0996 40.3952V37.4437H94.6839V40.2742L115.253 61.0559H137.044V61.6462Z" fill="#CA3D3D"/>
<path d="M122.437 42.7564H110.705C110.629 42.7564 110.553 42.7269 110.497 42.6709L102.61 34.7519L103.022 34.3328L110.825 42.1661H122.437V42.7564Z" fill="#CA3D3D"/>
<path d="M114.319 34.7224L113.904 34.3062L121.765 26.3135C121.821 26.2574 121.894 26.2279 121.973 26.2279H133.831V26.8182H122.095L114.319 34.7224Z" fill="#CA3D3D"/>
<path d="M158.954 19.7345H112.572C112.493 19.7345 112.42 19.702 112.364 19.646L107.707 14.894L108.122 14.4778L112.691 19.1442H158.952V19.7345H158.954Z" fill="#CA3D3D"/>
<path d="M117.582 10.4962L117.17 10.08L124.765 2.40606C124.821 2.34998 124.894 2.32047 124.973 2.32047H149.317V2.91077H125.093L117.582 10.4962Z" fill="#CA3D3D"/>
<path d="M122.329 76.1206L110.547 64.217C110.492 64.161 110.462 64.0872 110.462 64.0075V56.9238H111.047V63.8865L122.744 75.7044L122.329 76.1206Z" fill="#CA3D3D"/>
<path d="M119.676 61.4662L119.262 61.05L127.009 53.1724C127.065 53.1163 127.138 53.0868 127.216 53.0868H156.62V53.6771H127.336L119.676 61.4662Z" fill="#CA3D3D"/>
<path d="M146.977 69.9105H133.88C133.801 69.9105 133.728 69.8781 133.673 69.8249L125.443 61.5105L125.855 61.0943L133.997 69.3202H146.974V69.9105H146.977Z" fill="#CA3D3D"/>
<path d="M149.314 3.96743C150.053 3.96743 150.652 3.3622 150.652 2.61563C150.652 1.86905 150.053 1.26382 149.314 1.26382C148.575 1.26382 147.976 1.86905 147.976 2.61563C147.976 3.3622 148.575 3.96743 149.314 3.96743Z" fill="#CA3D3D"/>
<path d="M131.201 13.4123C129.495 13.4123 128.11 12.0103 128.11 10.2896C128.11 8.56886 129.498 7.16689 131.201 7.16689C132.904 7.16689 134.292 8.56886 134.292 10.2896C134.292 12.0103 132.907 13.4123 131.201 13.4123ZM131.201 7.75424C129.819 7.75424 128.695 8.89058 128.695 10.2867C128.695 11.6827 129.819 12.8191 131.201 12.8191C132.583 12.8191 133.708 11.6827 133.708 10.2867C133.708 8.89058 132.586 7.75424 131.201 7.75424Z" fill="#CA3D3D"/>
<path d="M131.201 11.6414C131.94 11.6414 132.539 11.0362 132.539 10.2896C132.539 9.54303 131.94 8.93781 131.201 8.93781C130.462 8.93781 129.863 9.54303 129.863 10.2896C129.863 11.0362 130.462 11.6414 131.201 11.6414Z" fill="#CA3D3D"/>
<path d="M160.295 19.4866C160.295 20.2333 159.697 20.8384 158.957 20.8384C158.218 20.8384 157.619 20.2333 157.619 19.4866C157.619 18.7398 158.218 18.1348 158.957 18.1348C159.697 18.1348 160.295 18.7398 160.295 19.4866Z" fill="#CA3D3D"/>
<path d="M133.831 27.8748C134.569 27.8748 135.169 27.2696 135.169 26.523C135.169 25.7764 134.569 25.1712 133.831 25.1712C133.092 25.1712 132.493 25.7764 132.493 26.523C132.493 27.2696 133.092 27.8748 133.831 27.8748Z" fill="#CA3D3D"/>
<path d="M148.73 37.6149C147.024 37.6149 145.639 36.2129 145.639 34.4922C145.639 32.7685 147.026 31.3694 148.73 31.3694C150.433 31.3694 151.82 32.7714 151.82 34.4922C151.823 36.2129 150.436 37.6149 148.73 37.6149ZM148.73 31.9568C147.348 31.9568 146.223 33.0931 146.223 34.4892C146.223 35.8853 147.348 37.0216 148.73 37.0216C150.111 37.0216 151.236 35.8853 151.236 34.4892C151.239 33.0931 150.114 31.9568 148.73 31.9568Z" fill="#CA3D3D"/>
<path d="M148.73 35.844C149.469 35.844 150.068 35.2387 150.068 34.4922C150.068 33.7456 149.469 33.1404 148.73 33.1404C147.991 33.1404 147.392 33.7456 147.392 34.4922C147.392 35.2387 147.991 35.844 148.73 35.844Z" fill="#CA3D3D"/>
<path d="M122.437 43.8131C123.176 43.8131 123.775 43.2079 123.775 42.4613C123.775 41.7147 123.176 41.1095 122.437 41.1095C121.698 41.1095 121.099 41.7147 121.099 42.4613C121.099 43.2079 121.698 43.8131 122.437 43.8131Z" fill="#CA3D3D"/>
<path d="M156.617 54.7338C157.356 54.7338 157.955 54.1285 157.955 53.382C157.955 52.6354 157.356 52.0302 156.617 52.0302C155.878 52.0302 155.279 52.6354 155.279 53.382C155.279 54.1285 155.878 54.7338 156.617 54.7338Z" fill="#CA3D3D"/>
<path d="M139.673 64.4237C137.967 64.4237 136.582 63.0217 136.582 61.3009C136.582 59.5772 137.97 58.1782 139.673 58.1782C141.376 58.1782 142.764 59.5802 142.764 61.3009C142.767 63.0246 141.379 64.4237 139.673 64.4237ZM139.673 58.7685C138.291 58.7685 137.167 59.9049 137.167 61.3009C137.167 62.697 138.291 63.8333 139.673 63.8333C141.055 63.8333 142.18 62.697 142.18 61.3009C142.183 59.9049 141.058 58.7685 139.673 58.7685Z" fill="#CA3D3D"/>
<path d="M141.014 61.3009C141.014 62.0477 140.415 62.6527 139.676 62.6527C138.937 62.6527 138.338 62.0477 138.338 61.3009C138.338 60.5542 138.937 59.9491 139.676 59.9491C140.415 59.9491 141.014 60.5542 141.014 61.3009Z" fill="#CA3D3D"/>
<path d="M146.977 70.9672C147.716 70.9672 148.315 70.3619 148.315 69.6154C148.315 68.8688 147.716 68.2636 146.977 68.2636C146.238 68.2636 145.639 68.8688 145.639 69.6154C145.639 70.3619 146.238 70.9672 146.977 70.9672Z" fill="#CA3D3D"/>
<path d="M157.719 6.60019H152.84C152.598 6.60019 152.399 6.39949 152.399 6.15451V-0.554319C152.399 -0.799296 152.598 -1 152.84 -1H157.719C157.961 -1 158.16 -0.799296 158.16 -0.554319V6.15451C158.16 6.40244 157.961 6.60019 157.719 6.60019Z" fill="#CA3D3D"/>
<path opacity="0.6" d="M157.719 6.60019H152.84C152.598 6.60019 152.399 6.39949 152.399 6.15451V-0.554319C152.399 -0.799296 152.598 -1 152.84 -1H157.719C157.961 -1 158.16 -0.799296 158.16 -0.554319V6.15451C158.16 6.40244 157.961 6.60019 157.719 6.60019Z" fill="white"/>
<path d="M157.298 0.0773163H153.258V0.487579H157.298V0.0773163Z" fill="#CA3D3D"/>
<path d="M157.298 0.797485H153.258V1.20775H157.298V0.797485Z" fill="#CA3D3D"/>
<path d="M157.298 1.51765H153.258V1.92792H157.298V1.51765Z" fill="#CA3D3D"/>
<path d="M157.298 2.23489H153.258V2.64516H157.298V2.23489Z" fill="#CA3D3D"/>
<path d="M157.298 2.95506H153.258V3.36533H157.298V2.95506Z" fill="#CA3D3D"/>
<path d="M157.298 3.67229H153.258V4.08255H157.298V3.67229Z" fill="#CA3D3D"/>
<path d="M157.298 4.39246H153.258V4.80272H157.298V4.39246Z" fill="#CA3D3D"/>
<path d="M155.875 5.10968H153.258V5.51994H155.875V5.10968Z" fill="#CA3D3D"/>
<path d="M130.573 46.9004H125.694C125.452 46.9004 125.253 46.6997 125.253 46.4547V39.7459C125.253 39.5009 125.452 39.3002 125.694 39.3002H130.573C130.816 39.3002 131.014 39.5009 131.014 39.7459V46.4547C131.014 46.6997 130.819 46.9004 130.573 46.9004Z" fill="#CA3D3D"/>
<path opacity="0.6" d="M130.573 46.9004H125.694C125.452 46.9004 125.253 46.6997 125.253 46.4547V39.7459C125.253 39.5009 125.452 39.3002 125.694 39.3002H130.573C130.816 39.3002 131.014 39.5009 131.014 39.7459V46.4547C131.014 46.6997 130.819 46.9004 130.573 46.9004Z" fill="white"/>
<path d="M130.155 40.3775H126.115V40.7878H130.155V40.3775Z" fill="#CA3D3D"/>
<path d="M130.155 41.0947H126.115V41.505H130.155V41.0947Z" fill="#CA3D3D"/>
<path d="M130.155 41.8149H126.115V42.2252H130.155V41.8149Z" fill="#CA3D3D"/>
<path d="M130.155 42.5351H126.115V42.9453H130.155V42.5351Z" fill="#CA3D3D"/>
<path d="M130.155 43.2523H126.115V43.6626H130.155V43.2523Z" fill="#CA3D3D"/>
<path d="M130.155 43.9725H126.115V44.3827H130.155V43.9725Z" fill="#CA3D3D"/>
<path d="M130.155 44.6897H126.115V45.1H130.155V44.6897Z" fill="#CA3D3D"/>
<path d="M128.733 45.4099H126.115V45.8201H128.733V45.4099Z" fill="#CA3D3D"/>
<path d="M164.274 55.0791H159.396C159.153 55.0791 158.954 54.8784 158.954 54.6334V47.9246C158.954 47.6796 159.153 47.4789 159.396 47.4789H164.274C164.517 47.4789 164.715 47.6796 164.715 47.9246V54.6334C164.715 54.8813 164.52 55.0791 164.274 55.0791Z" fill="#CA3D3D"/>
<path opacity="0.6" d="M164.274 55.0791H159.396C159.153 55.0791 158.954 54.8784 158.954 54.6334V47.9246C158.954 47.6796 159.153 47.4789 159.396 47.4789H164.274C164.517 47.4789 164.715 47.6796 164.715 47.9246V54.6334C164.715 54.8813 164.52 55.0791 164.274 55.0791Z" fill="white"/>
<path d="M163.857 48.5592H159.816V48.9694H163.857V48.5592Z" fill="#CA3D3D"/>
<path d="M163.857 49.2764H159.816V49.6866H163.857V49.2764Z" fill="#CA3D3D"/>
<path d="M163.857 49.9966H159.816V50.4068H163.857V49.9966Z" fill="#CA3D3D"/>
<path d="M163.857 50.7138H159.816V51.124H163.857V50.7138Z" fill="#CA3D3D"/>
<path d="M163.857 51.4339H159.816V51.8442H163.857V51.4339Z" fill="#CA3D3D"/>
<path d="M163.857 52.1512H159.816V52.5614H163.857V52.1512Z" fill="#CA3D3D"/>
<path d="M163.857 52.8713H159.816V53.2816H163.857V52.8713Z" fill="#CA3D3D"/>
<path d="M162.434 53.5915H159.816V54.0018H162.434V53.5915Z" fill="#CA3D3D"/>
<path d="M166.559 21.1719H161.68C161.438 21.1719 161.239 20.9712 161.239 20.7262V14.0174C161.239 13.7724 161.438 13.5717 161.68 13.5717H166.559C166.801 13.5717 167 13.7724 167 14.0174V20.7262C167 20.9742 166.801 21.1719 166.559 21.1719Z" fill="#CA3D3D"/>
<path opacity="0.6" d="M166.559 21.1719H161.68C161.438 21.1719 161.239 20.9712 161.239 20.7262V14.0174C161.239 13.7724 161.438 13.5717 161.68 13.5717H166.559C166.801 13.5717 167 13.7724 167 14.0174V20.7262C167 20.9742 166.801 21.1719 166.559 21.1719Z" fill="white"/>
<path d="M166.138 14.652H162.098V15.0622H166.138V14.652Z" fill="#CA3D3D"/>
<path d="M166.138 15.3692H162.098V15.7795H166.138V15.3692Z" fill="#CA3D3D"/>
<path d="M166.138 16.0894H162.098V16.4996H166.138V16.0894Z" fill="#CA3D3D"/>
<path d="M166.138 16.8066H162.098V17.2169H166.138V16.8066Z" fill="#CA3D3D"/>
<path d="M166.138 17.5268H162.098V17.937H166.138V17.5268Z" fill="#CA3D3D"/>
<path d="M166.138 18.2469H162.098V18.6572H166.138V18.2469Z" fill="#CA3D3D"/>
<path d="M166.138 18.9642H162.098V19.3744H166.138V18.9642Z" fill="#CA3D3D"/>
<path d="M164.715 19.6843H162.098V20.0946H164.715V19.6843Z" fill="#CA3D3D"/>
<path d="M166.086 41.1184H153.547C153.299 41.1184 153.097 40.9147 153.097 40.6638V27.9958C153.097 27.745 153.299 27.5413 153.547 27.5413H166.086C166.334 27.5413 166.536 27.745 166.536 27.9958V40.6638C166.536 40.9147 166.334 41.1184 166.086 41.1184Z" fill="#CA3D3D"/>
<path opacity="0.5" d="M159.816 38.9047C162.317 38.9047 164.344 36.8565 164.344 34.3298C164.344 31.8032 162.317 29.7549 159.816 29.7549C157.315 29.7549 155.288 31.8032 155.288 34.3298C155.288 36.8565 157.315 38.9047 159.816 38.9047Z" fill="white"/>
<path opacity="0.7" d="M159.816 34.3298H164.344C164.344 36.8386 162.299 38.9047 159.816 38.9047C157.333 38.9047 155.288 36.8386 155.288 34.3298C155.288 31.821 157.333 29.7549 159.816 29.7549C160.611 29.7549 161.391 29.9675 162.08 30.3659L159.816 34.3298Z" fill="white"/>
<path d="M159.816 37.8717C161.752 37.8717 163.322 36.2859 163.322 34.3298C163.322 32.3737 161.752 30.788 159.816 30.788C157.88 30.788 156.311 32.3737 156.311 34.3298C156.311 36.2859 157.88 37.8717 159.816 37.8717Z" fill="#CA3D3D"/>
<path opacity="0.3" d="M159.816 37.8717C161.752 37.8717 163.322 36.2859 163.322 34.3298C163.322 32.3737 161.752 30.788 159.816 30.788C157.88 30.788 156.311 32.3737 156.311 34.3298C156.311 36.2859 157.88 37.8717 159.816 37.8717Z" fill="white"/>
<path d="M161.172 36.1894C161.172 36.3983 161.116 36.5842 161.005 36.7471C160.896 36.91 160.747 37.0375 160.56 37.1295C160.778 37.2234 160.951 37.3605 161.077 37.5406C161.206 37.7208 161.27 37.9249 161.27 38.153C161.27 38.5153 161.147 38.8037 160.902 39.0184C160.658 39.2331 160.337 39.3404 159.939 39.3404C159.536 39.3404 159.213 39.2331 158.97 39.0184C158.728 38.8018 158.607 38.5134 158.607 38.153C158.607 37.9269 158.669 37.7227 158.792 37.5406C158.916 37.3586 159.088 37.2206 159.306 37.1266C159.12 37.0346 158.974 36.9072 158.866 36.7443C158.759 36.5813 158.705 36.3964 158.705 36.1894C158.705 35.8367 158.818 35.5569 159.045 35.3499C159.271 35.1429 159.569 35.0393 159.939 35.0393C160.307 35.0393 160.604 35.1429 160.83 35.3499C161.058 35.5569 161.172 35.8367 161.172 36.1894ZM160.738 38.1415C160.738 37.9077 160.663 37.717 160.514 37.5694C160.366 37.4218 160.172 37.348 159.933 37.348C159.693 37.348 159.501 37.4208 159.355 37.5665C159.211 37.7122 159.139 37.9039 159.139 38.1415C159.139 38.3792 159.209 38.5661 159.349 38.7022C159.491 38.8382 159.688 38.9063 159.939 38.9063C160.188 38.9063 160.383 38.8382 160.525 38.7022C160.667 38.5642 160.738 38.3773 160.738 38.1415ZM159.939 35.4764C159.73 35.4764 159.56 35.5415 159.43 35.6719C159.301 35.8003 159.237 35.9757 159.237 36.198C159.237 36.4107 159.3 36.5832 159.427 36.7155C159.555 36.8458 159.726 36.911 159.939 36.911C160.151 36.911 160.321 36.8458 160.448 36.7155C160.576 36.5832 160.64 36.4107 160.64 36.198C160.64 35.9852 160.574 35.8118 160.442 35.6776C160.31 35.5434 160.142 35.4764 159.939 35.4764ZM161.258 44.4975C161.258 45.1204 161.152 45.5833 160.939 45.8862C160.726 46.189 160.394 46.3404 159.942 46.3404C159.495 46.3404 159.164 46.1928 158.95 45.8977C158.735 45.6006 158.624 45.1578 158.616 44.5694V43.8593C158.616 43.244 158.722 42.7869 158.935 42.4879C159.148 42.1889 159.482 42.0393 159.936 42.0393C160.386 42.0393 160.718 42.1841 160.931 42.4735C161.143 42.761 161.253 43.2057 161.258 43.8075V44.4975ZM160.726 43.7701C160.726 43.3197 160.663 42.9919 160.537 42.7869C160.41 42.5799 160.21 42.4764 159.936 42.4764C159.664 42.4764 159.465 42.5789 159.341 42.784C159.216 42.9891 159.152 43.3044 159.148 43.7299V44.5809C159.148 45.0332 159.213 45.3677 159.344 45.5843C159.476 45.799 159.675 45.9063 159.942 45.9063C160.204 45.9063 160.399 45.8047 160.525 45.6015C160.654 45.3984 160.721 45.0783 160.726 44.6413V43.7701ZM158.587 49.9019C158.587 49.6508 158.667 49.4438 158.826 49.2809C158.987 49.1179 159.193 49.0365 159.444 49.0365C159.699 49.0365 159.905 49.1189 160.062 49.2837C160.221 49.4466 160.301 49.6584 160.301 49.9191V50.1232C160.301 50.3762 160.22 50.5832 160.059 50.7443C159.9 50.9033 159.697 50.9829 159.45 50.9829C159.201 50.9829 158.995 50.9033 158.832 50.7443C158.669 50.5832 158.587 50.3695 158.587 50.1031V49.9019ZM158.984 50.1232C158.984 50.2727 159.026 50.3964 159.111 50.4941C159.195 50.59 159.308 50.6379 159.45 50.6379C159.586 50.6379 159.695 50.5909 159.778 50.497C159.862 50.4031 159.904 50.2747 159.904 50.1117V49.9019C159.904 49.7524 159.863 49.6287 159.781 49.531C159.698 49.4332 159.586 49.3844 159.444 49.3844C159.302 49.3844 159.19 49.4332 159.108 49.531C159.025 49.6287 158.984 49.7562 158.984 49.9134V50.1232ZM160.626 52.2565C160.626 52.0054 160.705 51.7994 160.864 51.6384C161.025 51.4755 161.231 51.394 161.483 51.394C161.734 51.394 161.94 51.4745 162.101 51.6355C162.262 51.7965 162.342 52.0102 162.342 52.2767V52.4808C162.342 52.7319 162.262 52.9389 162.101 53.1018C161.942 53.2628 161.737 53.3433 161.488 53.3433C161.239 53.3433 161.033 53.2638 160.87 53.1047C160.707 52.9437 160.626 52.73 160.626 52.4635V52.2565ZM161.023 52.4808C161.023 52.6322 161.065 52.7568 161.149 52.8545C161.233 52.9504 161.346 52.9983 161.488 52.9983C161.626 52.9983 161.737 52.9513 161.819 52.8574C161.901 52.7616 161.943 52.6322 161.943 52.4693V52.2565C161.943 52.1051 161.9 51.9815 161.816 51.8856C161.734 51.7898 161.622 51.7419 161.483 51.7419C161.346 51.7419 161.235 51.7898 161.149 51.8856C161.065 51.9796 161.023 52.107 161.023 52.268V52.4808ZM159.571 52.9667L159.269 52.7769L161.313 49.5051L161.615 49.6949L159.571 52.9667Z" fill="white"/>
<path d="M153.602 66.5163H144.061C143.871 66.5163 143.719 66.3628 143.719 66.1709V56.5312C143.719 56.3394 143.871 56.1859 144.061 56.1859H153.602C153.792 56.1859 153.944 56.3394 153.944 56.5312V66.1709C153.944 66.3598 153.792 66.5163 153.602 66.5163Z" fill="#CA3D3D"/>
<path opacity="0.5" d="M152.089 64.7808H150.775V65.4567H152.089V64.7808Z" fill="white"/>
<path d="M152.089 58.0395H150.775V58.7154H152.089V58.0395Z" fill="white"/>
<path d="M152.089 59.164H150.775V59.8399H152.089V59.164Z" fill="white"/>
<path opacity="0.75" d="M152.089 60.2856H150.775V60.9615H152.089V60.2856Z" fill="white"/>
<path opacity="0.5" d="M152.089 61.4101H150.775V62.086H152.089V61.4101Z" fill="white"/>
<path opacity="0.5" d="M152.089 62.5347H150.775V63.2106H152.089V62.5347Z" fill="white"/>
<path opacity="0.5" d="M152.089 63.6592H150.775V64.3351H152.089V63.6592Z" fill="white"/>
<path opacity="0.5" d="M150.301 64.7808H148.987V65.4567H150.301V64.7808Z" fill="white"/>
<path d="M150.301 61.4101H148.987V62.086H150.301V61.4101Z" fill="white"/>
<path opacity="0.75" d="M150.301 62.5347H148.987V63.2106H150.301V62.5347Z" fill="white"/>
<path opacity="0.5" d="M150.301 63.6592H148.987V64.3351H150.301V63.6592Z" fill="white"/>
<path opacity="0.5" d="M148.511 64.7808H147.196V65.4567H148.511V64.7808Z" fill="white"/>
<path d="M148.511 60.2856H147.196V60.9615H148.511V60.2856Z" fill="white"/>
<path opacity="0.75" d="M148.511 61.4101H147.196V62.086H148.511V61.4101Z" fill="white"/>
<path opacity="0.5" d="M148.511 62.5347H147.196V63.2106H148.511V62.5347Z" fill="white"/>
<path opacity="0.5" d="M148.511 63.6592H147.196V64.3351H148.511V63.6592Z" fill="white"/>
<path opacity="0.5" d="M146.723 64.7807H145.408V65.4567H146.723V64.7807Z" fill="white"/>
<path d="M146.723 62.5347H145.408V63.2106H146.723V62.5347Z" fill="white"/>
<path opacity="0.75" d="M146.723 63.6592H145.408V64.3351H146.723V63.6592Z" fill="white"/>
<path d="M145.785 16.8066H136.244C136.054 16.8066 135.902 16.6531 135.902 16.4613V6.82156C135.902 6.62971 136.054 6.47623 136.244 6.47623H145.785C145.975 6.47623 146.127 6.62971 146.127 6.82156V16.4613C146.127 16.6531 145.972 16.8066 145.785 16.8066Z" fill="#CA3D3D"/>
<path opacity="0.9" d="M141.75 10.5198V9.87343L141.42 9.84097C141.376 9.6255 141.292 9.42185 141.175 9.24476L141.385 8.98797L140.932 8.53049L140.678 8.743C140.5 8.62493 140.301 8.53934 140.088 8.49507L140.056 8.16154H139.416L139.384 8.49507C139.171 8.53934 138.969 8.62493 138.794 8.743L138.54 8.53049L138.087 8.98797L138.297 9.24476C138.18 9.4248 138.096 9.6255 138.052 9.84097L137.722 9.87343V10.5198L138.052 10.5523C138.096 10.7677 138.18 10.9714 138.297 11.1485L138.087 11.4053L138.54 11.8628L138.794 11.6503C138.972 11.7683 139.171 11.8539 139.384 11.8982L139.416 12.2317H140.056L140.088 11.8982C140.301 11.8539 140.503 11.7683 140.678 11.6503L140.932 11.8628L141.385 11.4053L141.175 11.1485C141.292 10.9685 141.376 10.7677 141.42 10.5523L141.75 10.5198ZM139.738 11.0718C139.258 11.0718 138.873 10.6792 138.873 10.1981C138.873 9.717 139.261 9.32445 139.738 9.32445C140.217 9.32445 140.602 9.717 140.602 10.1981C140.602 10.6792 140.217 11.0718 139.738 11.0718Z" fill="white"/>
<path opacity="0.6" d="M144.345 12.3439V11.8392L144.088 11.8156C144.052 11.6444 143.985 11.4879 143.895 11.3492L144.061 11.1456L143.708 10.7884L143.506 10.9567C143.369 10.8652 143.211 10.7973 143.045 10.7619L143.021 10.5021H142.519L142.495 10.7619C142.326 10.7973 142.171 10.8652 142.031 10.9567L141.829 10.7884L141.476 11.1456L141.642 11.3492C141.552 11.4909 141.485 11.6473 141.45 11.8156L141.192 11.8392V12.3468L141.45 12.3704C141.485 12.5416 141.552 12.6981 141.642 12.8368L141.476 13.0404L141.829 13.3976L142.031 13.2293C142.171 13.3208 142.326 13.3887 142.495 13.4241L142.519 13.6839H143.021L143.045 13.4241C143.214 13.3887 143.369 13.3208 143.509 13.2293L143.711 13.3976L144.064 13.0404L143.898 12.8368C143.988 12.6951 144.055 12.5387 144.09 12.3704L144.345 12.3439ZM142.767 12.7778C142.393 12.7778 142.089 12.4708 142.089 12.093C142.089 11.7152 142.393 11.4082 142.767 11.4082C143.141 11.4082 143.445 11.7152 143.445 12.093C143.445 12.4708 143.141 12.7778 142.767 12.7778Z" fill="white"/>
<path opacity="0.4" d="M141.75 13.7813V13.3562L141.534 13.3356C141.505 13.1939 141.45 13.0611 141.374 12.943L141.514 12.7718L141.216 12.4708L141.046 12.6125C140.93 12.5357 140.798 12.4796 140.658 12.4501L140.637 12.2317H140.217L140.196 12.4501C140.056 12.4796 139.925 12.5357 139.808 12.6125L139.638 12.4708L139.34 12.7718L139.48 12.943C139.405 13.0611 139.349 13.1939 139.32 13.3356L139.104 13.3562V13.7813L139.32 13.8019C139.349 13.9436 139.405 14.0764 139.48 14.1945L139.34 14.3657L139.638 14.6667L139.808 14.525C139.925 14.6018 140.056 14.6579 140.196 14.6874L140.217 14.9058H140.637L140.658 14.6874C140.798 14.6579 140.93 14.6018 141.046 14.525L141.216 14.6667L141.514 14.3657L141.374 14.1945C141.45 14.0764 141.505 13.9436 141.534 13.8019L141.75 13.7813ZM140.427 14.1472C140.112 14.1472 139.857 13.8905 139.857 13.5717C139.857 13.2529 140.112 12.9961 140.427 12.9961C140.743 12.9961 140.997 13.2529 140.997 13.5717C140.997 13.8875 140.74 14.1472 140.427 14.1472Z" fill="white"/>
<path d="M145.133 23.4977H136.15V29.4008H145.133V23.4977Z" fill="#CA3D3D"/>
<path opacity="0.6" d="M145.133 23.4977H136.15V29.4008H145.133V23.4977Z" fill="white"/>
<path d="M144.803 24.6045H136.477V29.1056H144.803V24.6045Z" fill="#CA3D3D"/>
<path d="M143.316 25.2775H137.158V25.4723H143.316V25.2775Z" fill="white"/>
<path d="M140.114 25.8707H137.158V26.0655H140.114V25.8707Z" fill="white"/>
<path d="M140.88 26.461H137.158V26.6558H140.88V26.461Z" fill="white"/>
<path d="M138.47 27.0543H137.158V27.2491H138.47V27.0543Z" fill="white"/>
<path d="M138.008 27.6476H137.158V27.8424H138.008V27.6476Z" fill="white"/>
<path d="M159.448 68.5086H150.465V74.4116H159.448V68.5086Z" fill="#CA3D3D"/>
<path opacity="0.6" d="M159.448 68.5086H150.465V74.4116H159.448V68.5086Z" fill="white"/>
<path d="M159.118 69.6154H150.792V74.1165H159.118V69.6154Z" fill="#CA3D3D"/>
<path d="M157.631 70.2883H151.473V70.4831H157.631V70.2883Z" fill="white"/>
<path d="M154.429 70.8816H151.473V71.0764H154.429V70.8816Z" fill="white"/>
<path d="M155.195 71.4719H151.473V71.6667H155.195V71.4719Z" fill="white"/>
<g opacity="0.4">
<g opacity="0.4">
<path opacity="0.4" d="M146.1 34.197H96.4367V34.7873H146.1V34.197Z" fill="white"/>
</g>
<g opacity="0.4">
<path opacity="0.4" d="M94.6839 31.8358H94.0996V28.2939C94.0996 28.2142 94.1317 28.1405 94.1843 28.0844L112.054 10.08C112.11 10.024 112.183 9.99445 112.262 9.99445H128.572V10.5848H112.382L94.6839 28.415V31.8358Z" fill="white"/>
</g>
<g opacity="0.4">
<path opacity="0.4" d="M137.044 61.6462H115.134C115.055 61.6462 114.982 61.6138 114.926 61.5606L94.1843 40.6048C94.1288 40.5487 94.0996 40.4749 94.0996 40.3952V37.4437H94.6839V40.2742L115.253 61.0559H137.044V61.6462Z" fill="white"/>
</g>
<g opacity="0.4">
<path opacity="0.4" d="M122.437 42.7564H110.705C110.629 42.7564 110.553 42.7269 110.497 42.6709L102.61 34.7519L103.022 34.3328L110.825 42.1661H122.437V42.7564Z" fill="white"/>
</g>
<g opacity="0.4">
<path opacity="0.4" d="M114.319 34.7224L113.904 34.3062L121.765 26.3135C121.821 26.2574 121.894 26.2279 121.973 26.2279H133.831V26.8182H122.095L114.319 34.7224Z" fill="white"/>
</g>
<g opacity="0.4">
<path opacity="0.4" d="M158.954 19.7345H112.572C112.493 19.7345 112.42 19.702 112.364 19.646L107.707 14.894L108.122 14.4778L112.691 19.1442H158.952V19.7345H158.954Z" fill="white"/>
</g>
<g opacity="0.4">
<path opacity="0.4" d="M117.582 10.4962L117.17 10.08L124.765 2.40606C124.821 2.34998 124.894 2.32047 124.973 2.32047H149.317V2.91077H125.093L117.582 10.4962Z" fill="white"/>
</g>
<g opacity="0.4">
<path opacity="0.4" d="M122.329 76.1206L110.547 64.217C110.492 64.161 110.462 64.0872 110.462 64.0075V56.9238H111.047V63.8865L122.744 75.7044L122.329 76.1206Z" fill="white"/>
</g>
<g opacity="0.4">
<path opacity="0.4" d="M119.676 61.4662L119.262 61.05L127.009 53.1724C127.065 53.1163 127.138 53.0868 127.216 53.0868H156.62V53.6771H127.336L119.676 61.4662Z" fill="white"/>
</g>
<g opacity="0.4">
<path opacity="0.4" d="M146.977 69.9105H133.88C133.801 69.9105 133.728 69.8781 133.673 69.8249L125.443 61.5105L125.855 61.0943L133.997 69.3202H146.974V69.9105H146.977Z" fill="white"/>
</g>
<g opacity="0.4">
<path opacity="0.4" d="M149.314 3.96743C150.053 3.96743 150.652 3.3622 150.652 2.61563C150.652 1.86905 150.053 1.26382 149.314 1.26382C148.575 1.26382 147.976 1.86905 147.976 2.61563C147.976 3.3622 148.575 3.96743 149.314 3.96743Z" fill="white"/>
</g>
<g opacity="0.4">
<path opacity="0.4" d="M131.201 13.4123C129.495 13.4123 128.11 12.0103 128.11 10.2896C128.11 8.56886 129.498 7.16689 131.201 7.16689C132.904 7.16689 134.292 8.56886 134.292 10.2896C134.292 12.0103 132.907 13.4123 131.201 13.4123ZM131.201 7.75424C129.819 7.75424 128.695 8.89058 128.695 10.2867C128.695 11.6827 129.819 12.8191 131.201 12.8191C132.583 12.8191 133.708 11.6827 133.708 10.2867C133.708 8.89058 132.586 7.75424 131.201 7.75424Z" fill="white"/>
</g>
<g opacity="0.4">
<path opacity="0.4" d="M160.295 19.4866C160.295 20.2333 159.697 20.8384 158.957 20.8384C158.218 20.8384 157.619 20.2333 157.619 19.4866C157.619 18.7398 158.218 18.1348 158.957 18.1348C159.697 18.1348 160.295 18.7398 160.295 19.4866Z" fill="white"/>
</g>
<g opacity="0.4">
<path opacity="0.4" d="M133.831 27.8748C134.569 27.8748 135.169 27.2696 135.169 26.523C135.169 25.7764 134.569 25.1712 133.831 25.1712C133.092 25.1712 132.493 25.7764 132.493 26.523C132.493 27.2696 133.092 27.8748 133.831 27.8748Z" fill="white"/>
</g>
<g opacity="0.4">
<path opacity="0.4" d="M148.73 37.6149C147.024 37.6149 145.639 36.2129 145.639 34.4922C145.639 32.7685 147.026 31.3694 148.73 31.3694C150.433 31.3694 151.82 32.7714 151.82 34.4922C151.823 36.2129 150.436 37.6149 148.73 37.6149ZM148.73 31.9568C147.348 31.9568 146.223 33.0931 146.223 34.4892C146.223 35.8853 147.348 37.0216 148.73 37.0216C150.111 37.0216 151.236 35.8853 151.236 34.4892C151.239 33.0931 150.114 31.9568 148.73 31.9568Z" fill="white"/>
</g>
<g opacity="0.4">
<path opacity="0.4" d="M122.437 43.8131C123.176 43.8131 123.775 43.2079 123.775 42.4613C123.775 41.7147 123.176 41.1095 122.437 41.1095C121.698 41.1095 121.099 41.7147 121.099 42.4613C121.099 43.2079 121.698 43.8131 122.437 43.8131Z" fill="white"/>
</g>
<g opacity="0.4">
<path opacity="0.4" d="M156.617 54.7338C157.356 54.7338 157.955 54.1285 157.955 53.382C157.955 52.6354 157.356 52.0302 156.617 52.0302C155.878 52.0302 155.279 52.6354 155.279 53.382C155.279 54.1285 155.878 54.7338 156.617 54.7338Z" fill="white"/>
</g>
<g opacity="0.4">
<path opacity="0.4" d="M139.673 64.4237C137.967 64.4237 136.582 63.0217 136.582 61.3009C136.582 59.5772 137.97 58.1782 139.673 58.1782C141.376 58.1782 142.764 59.5802 142.764 61.3009C142.767 63.0246 141.379 64.4237 139.673 64.4237ZM139.673 58.7685C138.291 58.7685 137.167 59.9049 137.167 61.3009C137.167 62.697 138.291 63.8333 139.673 63.8333C141.055 63.8333 142.18 62.697 142.18 61.3009C142.183 59.9049 141.058 58.7685 139.673 58.7685Z" fill="white"/>
</g>
<g opacity="0.4">
<path opacity="0.4" d="M146.977 70.9672C147.716 70.9672 148.315 70.3619 148.315 69.6154C148.315 68.8688 147.716 68.2636 146.977 68.2636C146.238 68.2636 145.639 68.8688 145.639 69.6154C145.639 70.3619 146.238 70.9672 146.977 70.9672Z" fill="white"/>
</g>
<g opacity="0.4">
<g opacity="0.4">
<path opacity="0.4" d="M94.3976 37.9307C92.525 37.9307 91 36.39 91 34.4981C91 32.6061 92.525 31.0654 94.3976 31.0654C96.2702 31.0654 97.7952 32.6061 97.7952 34.4981C97.7952 36.39 96.2702 37.9307 94.3976 37.9307ZM94.3976 31.9509C93.007 31.9509 91.8764 33.0931 91.8764 34.4981C91.8764 35.903 93.007 37.0452 94.3976 37.0452C95.7882 37.0452 96.9187 35.903 96.9187 34.4981C96.9187 33.0931 95.7882 31.9509 94.3976 31.9509Z" fill="white"/>
</g>
</g>
</g>
<g clip-path="url(#clip2)">
<path d="M94.3597 36.0776C93.4797 36.0776 92.7654 35.3738 92.7654 34.5068C92.7654 33.6398 93.4797 32.936 94.3597 32.936C95.2398 32.936 95.9541 33.6398 95.9541 34.5068C95.9541 35.3738 95.2363 36.0776 94.3597 36.0776Z" fill="#CA3D3D"/>
<path d="M95.081 43H95.05C93.5591 43 92.089 42.5512 90.8017 41.8202L91.6679 40.3208C92.6929 40.9056 93.8628 41.2592 95.05 41.2592L95.081 43ZM99.3259 41.742L98.4562 40.2732C99.4812 39.6816 100.337 38.835 100.927 37.8218L102.425 38.6684C101.683 39.94 100.613 41.0042 99.3259 41.742ZM87.6923 38.699C86.9469 37.4342 86.55 35.9858 86.55 34.517L88.2755 34.5136C88.2755 35.6832 88.593 36.8358 89.1866 37.8456L87.6923 38.699ZM101.824 34.4864C101.821 33.3168 101.503 32.1642 100.906 31.1578L102.397 30.301C103.146 31.5658 103.547 33.0108 103.55 34.483L101.824 34.4864ZM89.1797 31.1816L87.6854 30.3316C88.4308 29.0634 89.5041 28.0026 90.7879 27.2648L91.6541 28.7336C90.6292 29.3218 89.7733 30.1684 89.1797 31.1816ZM98.4217 28.72C97.4002 28.1386 96.2337 27.768 95.05 27.768L95.0327 26H95.05C96.534 26 98.0007 26.4522 99.281 27.1798L98.4217 28.72Z" fill="#CA3D3D"/>
<g opacity="0.6">
<path opacity="0.6" d="M95.081 43H95.05C93.5591 43 92.089 42.5512 90.8017 41.8202L91.6679 40.3208C92.6929 40.9056 93.8628 41.2592 95.05 41.2592L95.081 43ZM99.3259 41.742L98.4562 40.2732C99.4812 39.6816 100.337 38.835 100.927 37.8218L102.425 38.6684C101.683 39.94 100.613 41.0042 99.3259 41.742ZM87.6923 38.699C86.9469 37.4342 86.55 35.9858 86.55 34.517L88.2755 34.5136C88.2755 35.6832 88.593 36.8358 89.1866 37.8456L87.6923 38.699ZM101.824 34.4864C101.821 33.3168 101.503 32.1642 100.906 31.1578L102.397 30.301C103.146 31.5658 103.547 33.0108 103.55 34.483L101.824 34.4864ZM89.1797 31.1816L87.6854 30.3316C88.4308 29.0634 89.5041 28.0026 90.7879 27.2648L91.6541 28.7336C90.6292 29.3218 89.7733 30.1684 89.1797 31.1816ZM98.4217 28.72C97.4002 28.1386 96.2337 27.768 95.05 27.768L95.0327 26H95.05C96.534 26 98.0007 26.4522 99.281 27.1798L98.4217 28.72Z" fill="white"/>
</g>
</g>
<path d="M50.1846 23.4816L50.2986 28.5077C50.3611 30.2768 52.0971 31.6536 54.1566 31.5759C56.1353 31.4982 57.7021 30.1065 57.7168 28.4078C57.7278 26.9939 57.7315 24.0664 57.7315 24.0664" fill="#E8B299"/>
<path d="M41.7527 72.1129C42.1401 71.954 42.4199 68.8649 42.4199 68.8649L42.9537 70.1616C44.0798 69.877 43.4013 67.6619 42.9911 66.9047C42.8802 66.7037 42.6931 66.5583 42.4812 66.4483L43.1444 53.863L45 46.0411C45 46.0411 44.4887 46.9584 42.401 46.0411C40.4301 45.1741 38.7611 46.3387 38.5 48.5C38.2579 50.476 37.2191 64.6652 37.2564 66.7998C37.2605 66.9989 37.2615 67.1096 37.2615 67.1096L37.2768 67.1098C37.3261 67.8122 37.469 69.4954 37.7051 69.73C38.0047 70.0273 40.7932 70.7173 40.7932 70.7173L40.9862 71.9418C40.9836 71.9373 41.3643 72.2754 41.7527 72.1129Z" fill="#E8B299"/>
<path d="M49.1364 17.0491C49.1364 17.0491 47.3012 14.2363 46.6613 16.7308C46.0213 19.2254 47.8014 20.3357 48.9342 20.0581C50.0669 19.7805 49.1364 17.0491 49.1364 17.0491Z" fill="#CD8B6D"/>
<path d="M48.9415 17.5266C48.9415 17.5266 47.68 15.75 47.2865 16.5014C46.8893 17.2527 47.0401 18.1891 47.0401 18.1891C47.0401 18.1891 47.246 17.1528 48.0478 17.7079C48.0478 17.7079 47.349 19.3808 48.868 18.8553C48.8643 18.8553 49.4785 18.3297 48.9415 17.5266Z" fill="#CD8B6D"/>
<path d="M59.2836 16.3052C59.2836 16.3052 60.9312 13.3592 61.733 15.8019C62.5347 18.2446 60.8282 19.4844 59.6808 19.292C58.5333 19.0995 59.2836 16.3052 59.2836 16.3052Z" fill="#CD8B6D"/>
<path d="M59.3314 16.9677C59.3314 16.9677 60.4752 15.0986 60.9165 15.8204C61.3615 16.5384 61.2696 17.4858 61.2696 17.4858C61.2696 17.4858 60.9974 16.468 60.2361 17.0824C60.2361 17.0824 61.0416 18.6998 59.4932 18.289C59.4932 18.2853 58.8459 17.8078 59.3314 16.9677Z" fill="#CD8B6D"/>
<path d="M54.9731 25.717C49.4969 25.9206 48.4156 20.6651 48.2023 18.7886C48.114 18.0225 48.114 16.753 48.1434 15.5095C48.1912 13.7218 48.3126 11.9823 48.3604 11.8417C49.8021 7.57065 55.1938 7.46702 57.0364 8.64396C59.4012 10.154 59.6329 11.8898 59.6329 11.8898C59.8757 12.9187 60.0632 13.9772 60.1809 15.0209C60.7841 20.4208 59.5631 25.5468 54.9731 25.717Z" fill="#E8B299"/>
<path d="M52.1449 16.6235C52.1633 17.2268 51.7771 17.7264 51.2769 17.7449C50.7804 17.7634 50.3611 17.2897 50.3391 16.6901C50.3207 16.0905 50.7069 15.5872 51.207 15.5687C51.7072 15.5502 52.1265 16.0239 52.1449 16.6235Z" fill="#4A1D1D"/>
<path d="M58.0956 16.4014C58.114 17.0047 57.7278 17.5044 57.2276 17.5229C56.7311 17.5414 56.3082 17.0676 56.2898 16.4681C56.2714 15.8685 56.6576 15.3651 57.1578 15.3466C57.6579 15.3281 58.0772 15.8019 58.0956 16.4014Z" fill="#4A1D1D"/>
<path d="M60.3133 15.7427C60.3501 16.3089 59.3939 17.138 59.096 17.6228C59.0408 17.7153 58.9783 17.8042 58.9121 17.893C58.5222 18.4185 57.9632 18.8738 57.3085 19.2328C57.224 19.2809 57.1394 19.3253 57.0548 19.3697C56.2346 19.7768 55.2894 20.0359 54.3516 20.0988C54.2964 20.1025 54.2376 20.1062 54.1824 20.1099H54.1383C53.3034 20.1358 52.5347 19.9175 51.8543 19.5807C51.7881 19.5474 51.7219 19.5141 51.6557 19.4807C51.2732 19.2735 50.9275 19.0292 50.6149 18.7775C50.328 18.5481 50.0081 18.2705 49.6991 17.9707C49.6881 17.9596 49.6771 17.9485 49.6624 17.9337C49.221 17.497 48.3972 16.853 48.1471 16.3274C47.8455 16.5828 47.1394 21.9346 48.2832 23.3521C48.3126 23.3891 48.342 23.4261 48.3751 23.4594C48.4891 23.5963 48.6031 23.7259 48.7282 23.848C49.4858 24.6215 50.3942 25.1582 51.4204 25.4728C51.6042 25.5283 51.7918 25.5801 51.9867 25.6245C52.8473 25.8133 53.7852 25.8577 54.7708 25.7615C54.8812 25.7504 54.9878 25.7393 55.0982 25.7245C55.4034 25.6838 55.716 25.6319 56.0323 25.569C56.6281 25.4469 57.1688 25.2803 57.6543 25.0805C57.8051 25.0176 57.9522 24.9509 58.0956 24.8769C59.3828 24.2329 60.2361 23.2966 60.7216 22.1714C60.8282 21.9272 60.9165 21.6755 60.99 21.4127C61.1114 20.9797 61.1887 20.5245 61.2218 20.0544C61.2622 19.3993 60.3096 15.6316 60.3133 15.7427Z" fill="#4A1D1D"/>
<path d="M52.4538 13.1112C52.0861 12.8632 51.5233 12.9372 51.0894 13.0372C50.4862 13.1778 48.9525 13.6441 49.4785 14.3177C49.4858 14.3288 49.4969 14.3325 49.5042 14.3399C49.4895 14.3844 49.5594 14.4288 49.6182 14.3992C49.6293 14.3955 49.644 14.3881 49.6587 14.3844C49.7065 14.3807 49.7506 14.3621 49.7837 14.3362C50.192 14.2067 50.7142 14.1993 51.1225 14.203C51.6815 14.2067 52.1375 14.4695 52.7039 14.4214C52.7995 14.414 52.8621 14.3584 52.8657 14.2844C52.8952 13.8588 52.8988 13.4073 52.4538 13.1112Z" fill="#4A1D1D"/>
<path d="M55.374 14.1956C55.3814 14.2696 55.4476 14.3177 55.5469 14.3177C56.1132 14.3214 56.5546 14.0253 57.1099 13.9809C57.5182 13.9476 58.0404 13.9143 58.456 14.0142C58.4928 14.0365 58.5369 14.0513 58.5847 14.0513C58.5958 14.055 58.6105 14.0587 58.6252 14.0624C58.6877 14.0846 58.7502 14.0365 58.7355 13.992C58.7429 13.9846 58.7539 13.9772 58.7613 13.9698C59.2468 13.2592 57.6837 12.9113 57.0732 12.8114C56.6355 12.7411 56.0691 12.7115 55.716 12.9853C55.2894 13.3184 55.3225 13.7663 55.374 14.1956Z" fill="#4A1D1D"/>
<path d="M54.8665 19.3179C54.6568 19.0995 54.7929 18.6406 54.7672 18.3667C54.7304 18.0003 54.7377 17.6413 54.7046 17.2749C54.6789 16.9825 54.7194 16.3052 54.3773 16.0239C54.3222 15.7427 53.9654 15.7945 53.8146 16.0535C53.5645 16.4903 53.6601 17.0232 53.7043 17.4674C53.7411 17.8597 53.7631 18.2483 53.7742 18.648C53.7815 18.9108 53.8404 19.2994 53.708 19.5437C53.2115 19.403 52.612 19.2957 53.0386 19.8212C53.2519 20.084 53.9544 20.6392 54.4435 20.5541C54.9768 20.4615 55.6278 19.7509 55.7933 19.3993C56.0434 18.8664 55.2379 19.1032 54.8665 19.3179Z" fill="#CD8B6D"/>
<path d="M50.8246 20.5356C50.8246 20.5356 54.5686 23.8924 57.3784 20.0285C57.3784 20.0285 55.7455 27.4048 50.8246 20.5356Z" fill="white"/>
<path d="M88.2112 41.0948C87 41.5 84.1062 41.8376 83 42L74 43C71 42.5644 70.2215 42.5774 69.986 39.9834L67 37.5L72.9742 36.9671L75.7484 38.2483L87.7886 38.2483C87.9451 38.175 88.4863 37.9093 89.2681 37.3545C89.5088 37.182 89.7169 36.9694 89.8907 36.727C90.0974 36.4347 90.3563 36.0297 90.4304 35.7672C90.5216 35.4389 90.9624 35.3913 91.0692 35.6801C91.179 35.9667 90.9488 36.872 90.2439 37.7049C89.539 38.5379 91.2227 38.2148 91.8437 38.1087C92.4596 38.0017 95.3197 37.8388 95.5 38C95.7668 38.2399 95.4431 38.9424 94.8219 39.0352C94.1954 39.1272 93.5 39.5 92.4383 39.8559C92.4383 39.8559 90.5866 40.5938 90.0866 40.5938L88.2112 41.0948Z" fill="#E8B299"/>
<path d="M57.7058 27.9266C58.9857 28.0006 61.1335 28.1746 65.374 30.6691C66.3008 31.2132 75.8154 37.6419 75.8154 37.6419L71.6006 43.0677L63.8441 38.6708L64.8886 48.0198L66.0508 59.1341L47.2534 58.8935L46.7826 47.7311L46.6245 40.1402L45.4329 50.2737L38 49.5631L40.0485 36.2096C40.2986 34.5811 40.9423 33.0193 42.0088 31.7683C43.2887 30.2657 44.9217 29.3515 46.7863 28.6705C47.6028 28.3744 49.221 28.0932 50.2913 28.0265C50.2913 28.0265 51.9426 30.7024 54.4619 30.7024C56.9812 30.7024 57.7058 27.9266 57.7058 27.9266Z" fill="#263238"/>
<path d="M46.9628 57.8869V120.339H56.6392L57.4924 66.1736L60.8871 120.339H70.5597L66.2346 58.9417L46.9628 57.8869Z" fill="#45758B"/>
<path d="M58.3163 58.3569C58.342 58.3569 58.3714 58.7418 58.3972 59.3599C58.4229 59.9817 58.4487 60.8403 58.4634 61.7878C58.4671 62.2579 58.4707 62.7094 58.4744 63.1239C58.4744 63.5347 58.4266 63.9233 58.2721 64.2194C58.1213 64.5155 57.897 64.7006 57.7205 64.7857C57.5439 64.8708 57.4299 64.8745 57.4299 64.8671C57.4262 64.8523 57.5292 64.8301 57.6837 64.7302C57.8345 64.6339 58.0294 64.4526 58.1508 64.1713C58.2758 63.8937 58.3126 63.531 58.3015 63.1239C58.2942 62.7057 58.2832 62.2579 58.2758 61.7878C58.2611 60.8403 58.2574 59.9817 58.2648 59.3599C58.2758 58.7418 58.2905 58.3569 58.3163 58.3569Z" fill="#455A64"/>
<path d="M56.5803 59.0638C56.5987 59.0823 56.4516 59.16 56.4479 59.3636C56.4443 59.4598 56.4847 59.5783 56.5877 59.6412C56.687 59.7078 56.8525 59.6967 56.9775 59.6153C57.1725 59.4968 57.143 59.2785 56.9996 59.1748C56.8635 59.0638 56.698 59.0601 56.6098 59.0897L56.6061 59.0231C56.687 59.0601 56.7274 59.086 56.7201 59.0971C56.7164 59.1082 56.6649 59.1082 56.5803 59.0897L56.5031 59.0749L56.5767 59.0231C56.6723 58.9565 56.904 58.9269 57.1026 59.0601C57.1982 59.1267 57.2902 59.2341 57.3012 59.3784C57.3122 59.5191 57.224 59.6634 57.0916 59.7448C56.915 59.8633 56.6539 59.8781 56.4921 59.7559C56.3302 59.6375 56.3045 59.4635 56.3266 59.3414C56.3486 59.2156 56.4185 59.1304 56.481 59.0897C56.5325 59.0564 56.5767 59.0527 56.5803 59.0638Z" fill="#455A64"/>
<path d="M50.9654 37.9958C51.4985 37.9958 51.9307 37.5673 51.9307 37.0387C51.9307 36.5101 51.4985 36.0816 50.9654 36.0816C50.4322 36.0816 50 36.5101 50 37.0387C50 37.5673 50.4322 37.9958 50.9654 37.9958Z" fill="#CA3D3D"/>
<path d="M50.6948 37.5081C50.6333 37.5142 50.6056 37.5233 50.5933 37.5965L50.5503 37.9013C50.6456 37.947 50.7501 37.9775 50.8608 37.9897L50.8116 37.5721C50.8085 37.5294 50.7532 37.502 50.6948 37.5081Z" fill="#263238"/>
<path d="M51.0699 37.5294C51.0699 37.5874 51.0238 37.5874 50.9654 37.5874C50.907 37.5874 50.8608 37.5874 50.8608 37.5294V37.1058C50.8608 37.0478 50.907 37.0021 50.9654 37.0021C51.0238 37.0021 51.0699 37.0478 51.0699 37.1058V37.5294Z" fill="#E8B299"/>
<path d="M50.8577 37.4654C50.8639 37.4654 50.8731 37.4654 50.8792 37.4654C50.9469 37.4654 51.0114 37.4532 51.0699 37.435V37.1088C51.0699 37.0509 51.0237 37.0052 50.9653 37.0052C50.9069 37.0052 50.8608 37.0509 50.8608 37.1088V37.4654H50.8577Z" fill="#CD8B6D"/>
<path d="M51.3005 37.5081H51.0699C51.0699 37.5813 50.8577 37.5813 50.8577 37.5081H50.701C50.6733 37.5081 50.6518 37.5386 50.6518 37.5752L50.6671 37.9501C50.7624 37.9806 50.8608 37.9958 50.9654 37.9958C51.1006 37.9958 51.2267 37.9684 51.3435 37.9196L51.3466 37.5752C51.3497 37.5386 51.3281 37.5081 51.3005 37.5081Z" fill="#263238"/>
<path d="M51.2574 37.5599C51.199 37.5782 51.2051 37.6544 51.2144 37.7337C51.2205 37.7885 51.2451 37.9562 51.2451 37.9562C51.2789 37.9471 51.3127 37.9349 51.3466 37.9196L51.3496 37.5965L51.3404 37.563C51.325 37.5234 51.3158 37.5416 51.2574 37.5599Z" fill="#263238"/>
<path d="M51.4019 37.5569C51.3896 37.5173 51.3312 37.499 51.2728 37.5173C51.2144 37.5356 51.1775 37.5813 51.1898 37.6209L51.2943 37.941C51.365 37.9166 51.4296 37.883 51.4911 37.8434L51.4019 37.5569Z" fill="#263238"/>
<path d="M50.5657 36.6882C50.5657 36.6882 50.4304 36.4626 50.3689 36.6546C50.3105 36.8467 50.4458 36.9412 50.538 36.9229C50.6302 36.9046 50.5657 36.6882 50.5657 36.6882Z" fill="#CD8B6D"/>
<path d="M50.5472 36.7248C50.5472 36.7248 50.4519 36.5815 50.4181 36.6394C50.3843 36.6973 50.3935 36.7705 50.3935 36.7705C50.3935 36.7705 50.415 36.6912 50.4765 36.7369C50.4765 36.7369 50.415 36.865 50.538 36.8284C50.538 36.8284 50.5872 36.7888 50.5472 36.7248Z" fill="#B66C50"/>
<path d="M51.3712 36.6638C51.3712 36.6638 51.5126 36.4382 51.5679 36.6333C51.6233 36.8284 51.4849 36.9168 51.3927 36.8985C51.3035 36.8802 51.3712 36.6638 51.3712 36.6638Z" fill="#CD8B6D"/>
<path d="M51.3742 36.7156C51.3742 36.7156 51.4726 36.5723 51.5033 36.6303C51.5372 36.6882 51.5249 36.7613 51.5249 36.7613C51.5249 36.7613 51.5064 36.6821 51.4449 36.7278C51.4449 36.7278 51.5033 36.8558 51.3804 36.8192C51.3834 36.8192 51.3312 36.7796 51.3742 36.7156Z" fill="#B66C50"/>
<path d="M50.9961 37.3862C50.5595 37.3831 50.4919 36.9686 50.4827 36.8223C50.4796 36.7613 50.4827 36.6638 50.4888 36.5662C50.4981 36.426 50.5134 36.2919 50.5196 36.2797C50.6487 35.9505 51.076 35.9627 51.2205 36.0602C51.4019 36.1852 51.4142 36.3224 51.4142 36.3224C51.4296 36.4047 51.4419 36.487 51.448 36.5693C51.4788 36.9899 51.362 37.3862 50.9961 37.3862Z" fill="#E8B299"/>
<path d="M50.8055 36.6638C50.8055 36.7095 50.7717 36.7491 50.7317 36.7491C50.6917 36.7491 50.661 36.7095 50.661 36.6638C50.661 36.6181 50.6948 36.5784 50.7348 36.5784C50.7747 36.5784 50.8055 36.6181 50.8055 36.6638Z" fill="#4A1D1D"/>
<path d="M51.2789 36.6668C51.2789 36.7126 51.2451 36.7522 51.2051 36.7522C51.1652 36.7522 51.1344 36.7126 51.1344 36.6668C51.1344 36.6211 51.1682 36.5815 51.2082 36.5815C51.2482 36.5815 51.2789 36.6211 51.2789 36.6668Z" fill="#4A1D1D"/>
<path d="M51.4572 36.6242C51.4572 36.6699 51.3804 36.7309 51.3527 36.7674C51.3466 36.7735 51.3435 36.7827 51.3373 36.7888C51.3035 36.8284 51.2574 36.8619 51.2051 36.8894C51.199 36.8924 51.1928 36.8955 51.1836 36.8985C51.116 36.9259 51.0422 36.9442 50.9653 36.9473C50.9623 36.9473 50.9561 36.9473 50.953 36.9473H50.95C50.8823 36.9473 50.8239 36.9259 50.7717 36.8985C50.7655 36.8955 50.7624 36.8924 50.7563 36.8894C50.7255 36.8711 50.7009 36.8528 50.6763 36.8314C50.6548 36.8132 50.6302 36.7888 50.6056 36.7644L50.6026 36.7613C50.5687 36.7248 50.5073 36.6729 50.4888 36.6303C50.4642 36.6486 50.3904 37.0661 50.4765 37.1789C50.4796 37.182 50.4796 37.185 50.4827 37.1881C50.4919 37.2003 50.5011 37.2094 50.5103 37.2186C50.5687 37.2826 50.6395 37.3283 50.7194 37.3557C50.7348 37.3618 50.7501 37.3649 50.7624 37.3679C50.8301 37.3862 50.9039 37.3923 50.9838 37.3892C50.993 37.3892 51.0022 37.3892 51.0115 37.3862C51.0361 37.3832 51.0606 37.3801 51.0852 37.3771C51.1344 37.371 51.1775 37.3588 51.2144 37.3435C51.2267 37.3405 51.239 37.3344 51.2513 37.3283C51.3558 37.2826 51.4265 37.2125 51.4695 37.1271C51.4788 37.1088 51.488 37.0875 51.4941 37.0692C51.5064 37.0357 51.5126 36.9991 51.5187 36.9625C51.5187 36.9137 51.4572 36.615 51.4572 36.6242Z" fill="#4A1D1D"/>
<path d="M50.8424 36.39C50.8147 36.3686 50.7686 36.3717 50.7348 36.3808C50.6856 36.39 50.5626 36.4205 50.6026 36.4753C50.6026 36.4753 50.6026 36.4753 50.6056 36.4784C50.6056 36.4814 50.6087 36.4845 50.6149 36.4845H50.6179C50.621 36.4845 50.6241 36.4845 50.6271 36.4814C50.661 36.4723 50.7009 36.4753 50.7348 36.4753C50.7778 36.4784 50.8147 36.4997 50.8608 36.4967C50.867 36.4967 50.8731 36.4936 50.8731 36.4875C50.8731 36.4509 50.8762 36.4144 50.8424 36.39Z" fill="#4A1D1D"/>
<path d="M51.0699 36.484C51.0699 36.49 51.076 36.4931 51.0822 36.4931C51.1283 36.4961 51.1621 36.4748 51.2082 36.4718C51.242 36.4718 51.282 36.4687 51.3158 36.4779C51.3189 36.4809 51.322 36.4809 51.325 36.4809H51.3281C51.3343 36.484 51.3373 36.4779 51.3373 36.4748C51.3373 36.4748 51.3373 36.4748 51.3404 36.4718C51.3804 36.4169 51.2574 36.3864 51.2113 36.3742C51.1775 36.3681 51.1313 36.362 51.1037 36.3834C51.0668 36.4169 51.0668 36.4504 51.0699 36.484Z" fill="#4A1D1D"/>
<path d="M51.0114 36.8832C50.9961 36.865 51.0084 36.8314 51.0084 36.807C51.0053 36.7796 51.0084 36.7491 51.0084 36.7217C51.0084 36.6973 51.0145 36.6455 50.9869 36.6242C50.9838 36.6028 50.9561 36.6059 50.9407 36.6242C50.9192 36.6577 50.9254 36.7004 50.9284 36.7339C50.9315 36.7644 50.9315 36.7949 50.9284 36.8253C50.9284 36.8467 50.9315 36.8772 50.9192 36.8954C50.8793 36.8832 50.8331 36.8711 50.8639 36.9137C50.8792 36.9351 50.9346 36.9808 50.9715 36.9747C51.0145 36.9686 51.0699 36.9168 51.0822 36.8893C51.1068 36.8528 51.0422 36.868 51.0114 36.8832Z" fill="#CD8B6D"/>
<path d="M50.6856 36.9656C50.6856 36.9656 50.9715 37.2399 51.2082 36.9473C51.2082 36.9473 51.0545 37.5203 50.6856 36.9656Z" fill="white"/>
<path d="M52.189 36.676H52.6163C52.687 36.676 52.7393 36.6912 52.7731 36.7247C52.8069 36.7583 52.8223 36.807 52.8223 36.8802V36.9808C52.8223 37.0509 52.8069 37.1027 52.7731 37.1362C52.7393 37.1698 52.6901 37.185 52.6163 37.185H52.3703V37.3862H52.1859V36.676H52.189ZM52.6378 36.8802C52.6378 36.8406 52.6163 36.8192 52.5763 36.8192H52.3734V37.0417H52.5763C52.6163 37.0417 52.6378 37.0204 52.6378 36.9808V36.8802Z" fill="white"/>
<path d="M52.9791 37.3862H52.7792L53.0498 36.679H53.2527L53.5232 37.3862H53.3234L53.2773 37.2612H53.0221L52.9791 37.3862ZM53.0713 37.1271H53.2342L53.1512 36.8893L53.0713 37.1271Z" fill="white"/>
<path d="M53.5786 36.676H54.0059C54.0766 36.676 54.1289 36.6912 54.1627 36.7247C54.1965 36.7583 54.2119 36.807 54.2119 36.8802V36.9808C54.2119 37.0509 54.1965 37.1027 54.1627 37.1362C54.1289 37.1698 54.0797 37.185 54.0059 37.185H53.76V37.3862H53.5755V36.676H53.5786ZM54.0274 36.8802C54.0274 36.8406 54.0059 36.8192 53.9659 36.8192H53.763V37.0417H53.9659C54.0059 37.0417 54.0274 37.0204 54.0274 36.9808V36.8802Z" fill="white"/>
<path d="M54.6392 37.3862H54.2734V37.246H54.3656V36.8223H54.2734V36.6821H54.6392V36.8223H54.547V37.246H54.6392V37.3862Z" fill="white"/>
<path d="M55.128 36.676C55.2049 36.676 55.2633 36.6943 55.3033 36.7339C55.3432 36.7735 55.3617 36.8314 55.3617 36.9076V37.1515C55.3617 37.2277 55.3432 37.2856 55.3033 37.3252C55.2633 37.3648 55.2049 37.3831 55.128 37.3831H54.7314V36.676H55.128ZM55.1803 36.9107C55.1803 36.8497 55.1496 36.8192 55.0881 36.8192H54.9159V37.2429H55.0881C55.1496 37.2429 55.1803 37.2124 55.1803 37.1515V36.9107Z" fill="#CA3D3D"/>
<path d="M55.8013 37.3862H55.4355V37.246H55.5277V36.8223H55.4355V36.6821H55.8013V36.8223H55.7091V37.246H55.8013V37.3862Z" fill="#CA3D3D"/>
<path d="M56.0657 37.3923C55.9981 37.3923 55.9489 37.377 55.9182 37.3466C55.8874 37.3161 55.872 37.2673 55.872 37.2002V36.8771C55.872 36.807 55.8874 36.7552 55.9212 36.7247C55.955 36.6943 56.0042 36.676 56.078 36.676H56.4439V36.8162H56.118C56.078 36.8162 56.0565 36.8375 56.0565 36.8771V37.2002C56.0565 37.2155 56.0596 37.2277 56.0688 37.2368C56.078 37.246 56.0903 37.249 56.1057 37.249C56.1272 37.249 56.1487 37.249 56.1733 37.249C56.1979 37.249 56.2225 37.249 56.244 37.249C56.2686 37.249 56.2932 37.249 56.3209 37.249V37.0997H56.1887V36.9777H56.5054V37.3679C56.4531 37.374 56.4039 37.377 56.3516 37.377C56.3086 37.3831 56.2594 37.3892 56.2102 37.3892C56.158 37.3923 56.1088 37.3923 56.0657 37.3923Z" fill="#CA3D3D"/>
<path d="M56.945 37.3862H56.5791V37.246H56.6714V36.8223H56.5791V36.6821H56.945V36.8223H56.8528V37.246H56.945V37.3862Z" fill="#CA3D3D"/>
<path d="M57.3816 37.3862H57.1971V36.8192H56.9819V36.679H57.5937V36.8192H57.3785V37.3862H57.3816Z" fill="#CA3D3D"/>
<path d="M57.7228 37.3862H57.523L57.7935 36.679H57.9964L58.267 37.3862H58.0671L58.021 37.2612H57.7659L57.7228 37.3862ZM57.815 37.1271H57.978L57.895 36.8893L57.815 37.1271Z" fill="#CA3D3D"/>
<path d="M58.5037 37.2429H58.8757V37.3831H58.3192V36.676H58.5037V37.2429Z" fill="#CA3D3D"/>
</g>
<defs>
<clipPath id="clip0">
<rect width="200" height="72" fill="white"/>
</clipPath>
<clipPath id="clip1">
<rect width="42" height="77" fill="white" transform="translate(145 -3)"/>
</clipPath>
<clipPath id="clip2">
<rect width="17" height="17" fill="white" transform="translate(86.55 26)"/>
</clipPath>
</defs>
</svg>
