<svg width="200" height="72" viewBox="0 0 200 72" fill="none" xmlns="http://www.w3.org/2000/svg">
<g clip-path="url(#clip0)">
<rect width="200" height="72" fill="#F7F7F7"/>
<path d="M189.113 5.55014H157.299V62.3763H189.113V5.55014Z" fill="#EBEBEB"/>
<path d="M187.514 7.19815H158.57V60.6833H187.514V7.19815Z" fill="#FAFAFA"/>
<path d="M187.514 7.82773L158.57 44.4359V7.19815H187.514V7.82773Z" fill="#F5F5F5"/>
<path d="M188.142 22.5832H158.57V23.1519H188.142V22.5832Z" fill="#EBEBEB"/>
<path d="M188.142 35.3203H158.57V35.889H188.142V35.3203Z" fill="#EBEBEB"/>
<path d="M188.142 48.0573H158.57V48.6261H188.142V48.0573Z" fill="#EBEBEB"/>
<path d="M172.311 22.8701V62.2004H173.774V22.8701H172.311Z" fill="#EBEBEB"/>
<path d="M164.807 7.19815H164.144V22.8689H164.807V7.19815Z" fill="#EBEBEB"/>
<path d="M170.519 7.19815H169.856V22.8689H170.519V7.19815Z" fill="#EBEBEB"/>
<path d="M176.233 7.19815H175.571V22.8689H176.233V7.19815Z" fill="#EBEBEB"/>
<path d="M181.948 7.19815H181.286V22.8689H181.948V7.19815Z" fill="#EBEBEB"/>
<path d="M157.299 4.58725H155.952V62.7281H157.299V4.58725Z" fill="#F5F5F5"/>
<path d="M190.459 62.8869L189.113 62.3763V4.58725H190.459V62.8869Z" fill="#E0E0E0"/>
<path d="M190.459 4H155.952V5.55014H190.459V4Z" fill="#E0E0E0"/>
<path d="M191.371 63.08H155V64.5244H191.371V63.08Z" fill="#E0E0E0"/>
<path d="M189.113 62.3764L191.369 63.08H155L157.299 62.3764H189.113Z" fill="#EBEBEB"/>
<path d="M166.818 21.4657C166.818 21.4657 165.057 21.3393 165.22 25.2687C165.382 29.198 165.785 31.2912 165.785 31.2912C165.785 31.2912 165.733 32.1616 165.055 31.9917C164.376 31.8197 163.1 30.972 162.468 31.6062C161.814 32.2632 162.047 33.2724 162.914 34.46C163.782 35.6475 165.587 38.3188 165.749 38.5613C165.908 38.7997 165.972 39.2452 165.491 39.2017C165.009 39.1582 161.762 38.0639 161.332 39.6286C160.903 41.1912 163.865 44.1051 164.184 44.4305C164.501 44.7559 164.519 44.961 164.39 45.1558C164.261 45.3527 163.204 44.8823 162.268 44.6087C161.332 44.3351 160.199 44.1818 160.026 45.104C159.853 46.0263 161.159 48.7267 166.047 51.5638L168.398 52.7306L170.624 51.3193C175.202 48.0096 176.229 45.1931 175.965 44.2937C175.7 43.3922 174.587 43.6595 173.684 44.0243C172.78 44.389 171.777 44.9631 171.629 44.7807C171.481 44.5983 171.477 44.3932 171.76 44.0367C172.044 43.6823 174.699 40.4887 174.114 38.9758C173.528 37.4629 170.408 38.8743 169.932 38.9654C169.457 39.0566 169.476 38.6069 169.611 38.3541C169.749 38.0971 171.275 35.2599 172.019 33.9916C172.763 32.7232 172.892 31.6974 172.175 31.1088C171.483 30.541 170.299 31.5109 169.641 31.7492C168.982 31.9875 168.844 31.1254 168.844 31.1254C168.844 31.1254 169.034 29.0032 168.801 25.078C168.567 21.1528 166.785 21.4699 166.785 21.4699" fill="#EBEBEB"/>
<path d="M166.956 24.9848C166.956 24.9848 166.96 25.0117 166.966 25.0677C166.971 25.1257 166.977 25.2065 166.985 25.3081C167 25.5236 167.021 25.8365 167.048 26.2365C167.102 27.0427 167.171 28.2095 167.252 29.6519C167.412 32.5368 167.602 36.5221 167.794 40.9239C167.988 45.3279 168.165 49.3132 168.311 52.198C168.384 53.6363 168.444 54.8031 168.486 55.6134C168.507 56.0134 168.521 56.3263 168.532 56.5419C168.536 56.6455 168.54 56.7243 168.542 56.7844C168.544 56.8382 168.542 56.8673 168.542 56.8673C168.542 56.8673 168.538 56.8403 168.532 56.7844C168.528 56.7263 168.521 56.6455 168.513 56.544C168.498 56.3284 168.478 56.0155 168.45 55.6155C168.396 54.8093 168.328 53.6425 168.246 52.2001C168.086 49.3153 167.896 45.33 167.702 40.926C167.508 36.5241 167.331 32.5388 167.185 29.654C167.112 28.2157 167.052 27.0489 167.01 26.2386C166.989 25.8386 166.975 25.5257 166.964 25.3101C166.96 25.2065 166.956 25.1257 166.954 25.0677C166.956 25.0138 166.956 24.9848 166.956 24.9848Z" fill="#E0E0E0"/>
<path d="M164.205 32.8642C164.209 32.86 164.261 32.9035 164.351 32.9844C164.44 33.0652 164.567 33.1875 164.724 33.3408C165.034 33.6455 165.451 34.0807 165.903 34.5656C166.345 35.0464 166.745 35.4817 167.054 35.8174C167.192 35.9645 167.308 36.091 167.404 36.1946C167.488 36.2837 167.531 36.3355 167.527 36.3397C167.523 36.3438 167.471 36.3003 167.379 36.2195C167.289 36.1366 167.162 36.0143 167.008 35.8609C166.702 35.5521 166.289 35.1128 165.839 34.6278C165.395 34.1512 164.99 33.7201 164.68 33.3864C164.542 33.2393 164.424 33.1129 164.328 33.0113C164.244 32.9201 164.201 32.8683 164.205 32.8642Z" fill="#E0E0E0"/>
<path d="M167.758 36.263C167.74 36.2464 168.601 35.3511 169.678 34.2631C170.756 33.175 171.646 32.3088 171.662 32.3253C171.679 32.3419 170.82 33.2372 169.743 34.3253C168.665 35.4133 167.777 36.2817 167.758 36.263Z" fill="#E0E0E0"/>
<path d="M167.75 43.0378C167.748 43.0316 167.806 42.9964 167.915 42.9342C168.04 42.8637 168.194 42.7788 168.375 42.6772C168.763 42.4596 169.299 42.1591 169.876 41.8047C170.456 41.4524 170.968 41.1167 171.339 40.87C171.512 40.756 171.658 40.6586 171.777 40.5799C171.881 40.5115 171.94 40.4763 171.944 40.4825C171.948 40.4866 171.896 40.5322 171.798 40.6089C171.7 40.6856 171.556 40.7933 171.375 40.9239C171.014 41.183 170.504 41.5291 169.924 41.8835C169.345 42.2379 168.803 42.5321 168.407 42.7352C168.209 42.8368 168.046 42.9156 167.934 42.9674C167.817 43.0171 167.752 43.044 167.75 43.0378Z" fill="#E0E0E0"/>
<path d="M163.855 40.6669C163.859 40.6607 163.915 40.6897 164.017 40.7436C164.119 40.7975 164.265 40.8783 164.444 40.9799C164.803 41.183 165.293 41.4669 165.833 41.7861C166.372 42.1052 166.858 42.3995 167.208 42.615C167.383 42.7228 167.523 42.8119 167.621 42.8741C167.717 42.9363 167.769 42.9736 167.765 42.9798C167.761 42.986 167.704 42.957 167.602 42.9031C167.5 42.8492 167.354 42.7684 167.175 42.6669C166.816 42.4638 166.327 42.1798 165.785 41.8607C165.245 41.5415 164.759 41.2472 164.409 41.0317C164.234 40.9239 164.094 40.8348 163.996 40.7726C163.902 40.7105 163.85 40.6732 163.855 40.6669Z" fill="#E0E0E0"/>
<path d="M163.081 46.648C163.083 46.6418 163.158 46.6791 163.288 46.7475C163.433 46.8262 163.617 46.9278 163.836 47.048C164.296 47.305 164.928 47.6656 165.624 48.0676C166.32 48.4697 166.948 48.8386 167.4 49.1101C167.613 49.2406 167.792 49.3484 167.934 49.4354C168.059 49.5142 168.125 49.5598 168.123 49.566C168.121 49.5722 168.046 49.5349 167.917 49.4665C167.773 49.3878 167.588 49.2862 167.369 49.166C166.908 48.909 166.277 48.5484 165.58 48.1464C164.884 47.7443 164.257 47.3754 163.805 47.1039C163.592 46.9734 163.413 46.8656 163.271 46.7786C163.146 46.6998 163.079 46.6522 163.081 46.648Z" fill="#E0E0E0"/>
<path d="M168.021 49.4603C168.019 49.4541 168.092 49.4064 168.225 49.3235C168.375 49.2323 168.567 49.1163 168.797 48.9774C169.278 48.6852 169.943 48.279 170.666 47.8106C171.389 47.3443 172.031 46.9029 172.494 46.5838C172.715 46.4304 172.901 46.304 173.044 46.2045C173.174 46.1154 173.249 46.0677 173.253 46.0739C173.257 46.0781 173.19 46.1361 173.065 46.2335C172.942 46.3309 172.759 46.4698 172.532 46.6356C172.077 46.9692 171.439 47.4189 170.714 47.8873C169.991 48.3557 169.32 48.7536 168.828 49.0334C168.582 49.1722 168.382 49.2821 168.242 49.3546C168.102 49.4271 168.023 49.4644 168.021 49.4603Z" fill="#E0E0E0"/>
<path d="M171.554 53.4954H165.049L167.173 69.4739H169.432L171.554 53.4954Z" fill="#E0E0E0"/>
<path d="M165.387 55.46C165.384 55.4621 165.393 55.4828 165.422 55.516C165.449 55.5492 165.501 55.5948 165.578 55.6279C165.733 55.6942 166.003 55.7004 166.266 55.545C166.529 55.3999 166.758 55.1181 167.11 54.9937C167.458 54.8611 167.892 54.886 168.307 55.0165C168.726 55.145 169.09 55.3564 169.42 55.5533C169.751 55.7481 170.053 55.9243 170.326 56.0362C170.597 56.1543 170.831 56.2082 170.995 56.2289C171.077 56.2393 171.141 56.2434 171.185 56.2414C171.229 56.2414 171.252 56.2393 171.252 56.2351C171.256 56.2144 170.883 56.2165 170.36 55.9678C170.097 55.8476 169.801 55.6694 169.474 55.4704C169.147 55.2694 168.774 55.0497 168.342 54.9171C167.915 54.7803 167.454 54.7554 167.079 54.9026C166.891 54.973 166.735 55.0849 166.604 55.1948C166.47 55.3046 166.352 55.4062 166.231 55.4808C165.993 55.6341 165.743 55.6403 165.597 55.5906C165.443 55.5367 165.395 55.4497 165.387 55.46Z" fill="#F5F5F5"/>
<path d="M165.624 58.4029C165.632 58.4091 165.676 58.3366 165.778 58.2309C165.883 58.1293 166.051 57.9946 166.297 57.9034C166.541 57.8102 166.856 57.7542 167.202 57.7687C167.55 57.7812 167.929 57.8558 168.334 57.9221C168.736 57.9905 169.136 58.0195 169.493 57.9698C169.849 57.9242 170.16 57.8226 170.406 57.7107C170.652 57.5988 170.835 57.4765 170.954 57.3874C171.075 57.2962 171.131 57.2361 171.127 57.232C171.114 57.2154 170.864 57.4371 170.374 57.6423C170.131 57.7418 169.826 57.835 169.48 57.8723C169.134 57.9159 168.751 57.8827 168.35 57.8164C167.95 57.7521 167.565 57.6775 167.204 57.6693C166.843 57.661 166.52 57.7273 166.268 57.833C166.014 57.9366 165.843 58.0879 165.747 58.2019C165.701 58.262 165.666 58.3096 165.649 58.3449C165.63 58.3822 165.622 58.4008 165.624 58.4029Z" fill="#F5F5F5"/>
<path d="M170.818 59.978C170.82 59.9738 170.76 59.9324 170.639 59.8847C170.518 59.837 170.333 59.7894 170.099 59.7707C169.866 59.7521 169.586 59.7666 169.284 59.8163C168.98 59.866 168.655 59.9489 168.315 60.0215C167.973 60.094 167.644 60.1417 167.346 60.1292C167.048 60.1189 166.783 60.0546 166.577 59.9635C166.158 59.7811 166.01 59.5158 165.993 59.5324C165.989 59.5345 166.018 59.6008 166.104 59.7003C166.187 59.7997 166.333 59.9261 166.545 60.0318C166.756 60.1355 167.031 60.2101 167.342 60.2267C167.652 60.2432 167.992 60.1956 168.336 60.123C168.682 60.0505 169.005 59.9635 169.301 59.9116C169.597 59.8578 169.868 59.835 170.095 59.8433C170.551 59.8598 170.81 59.9966 170.818 59.978Z" fill="#F5F5F5"/>
<path d="M166.199 62.1934C166.204 62.21 166.431 62.0504 166.831 62.1292C167.027 62.1644 167.246 62.2639 167.492 62.3737C167.738 62.4877 168.032 62.5851 168.348 62.6079C168.988 62.668 169.555 62.4628 169.905 62.2494C170.085 62.1437 170.208 62.0297 170.293 61.953C170.372 61.8701 170.412 61.8204 170.408 61.8162C170.393 61.8017 170.222 61.9924 169.868 62.1851C169.52 62.3758 168.972 62.5623 168.359 62.5022C167.744 62.467 167.271 62.1022 166.843 62.0545C166.635 62.0235 166.462 62.0525 166.354 62.096C166.243 62.1416 166.195 62.1913 166.199 62.1934Z" fill="#F5F5F5"/>
<path d="M166.562 65.2606C166.562 65.2731 166.781 65.271 167.104 65.1529C167.431 65.0451 167.836 64.7943 168.309 64.6078C168.546 64.5187 168.784 64.4627 169.001 64.4648C169.218 64.4648 169.411 64.5187 169.557 64.5912C169.855 64.7384 169.943 64.9498 169.96 64.9353C169.964 64.9332 169.951 64.8814 169.897 64.7985C169.845 64.7177 169.745 64.612 169.593 64.5249C169.441 64.4379 169.236 64.3736 169.003 64.3674C168.769 64.3612 168.517 64.4171 168.273 64.5104C167.784 64.7052 167.392 64.9601 167.079 65.0845C166.768 65.2171 166.558 65.2441 166.562 65.2606Z" fill="#F5F5F5"/>
<path d="M166.881 66.6885C166.877 66.701 167.033 66.7569 167.294 66.8212C167.552 66.8854 167.917 66.9538 168.323 66.9932C168.73 67.0326 169.101 67.0367 169.368 67.0222C169.634 67.0098 169.799 66.9849 169.797 66.9725C169.795 66.9414 169.138 66.9683 168.334 66.8875C167.527 66.8129 166.887 66.6574 166.881 66.6885Z" fill="#F5F5F5"/>
<path d="M173.507 69.6873C173.507 69.7164 141.379 69.7412 101.758 69.7412C62.1197 69.7412 30 69.7164 30 69.6873C30 69.6583 62.1198 69.6335 101.756 69.6335C141.379 69.6335 173.507 69.6563 173.507 69.6873Z" fill="#263238"/>
<path d="M58.6317 55.0933H19V11H62.0125V51.7318C62.0125 53.5866 60.4993 55.0933 58.6317 55.0933Z" fill="#EBEBEB"/>
<path d="M58.4608 24.1227C58.4608 24.2118 50.6862 24.2844 41.0982 24.2844C31.5081 24.2844 23.7356 24.2118 23.7356 24.1227C23.7356 24.0336 31.5081 23.9611 41.0982 23.9611C50.6862 23.9611 58.4608 24.0336 58.4608 24.1227Z" fill="#455A64"/>
<path d="M41.3046 27.1091C41.3046 27.1982 37.4631 27.2708 32.7275 27.2708C27.9898 27.2708 24.1483 27.1982 24.1483 27.1091C24.1483 27.02 27.9877 26.9474 32.7275 26.9474C37.4631 26.9474 41.3046 27.02 41.3046 27.1091Z" fill="#455A64"/>
<path d="M48.1663 26.8335C48.1663 26.9226 47.1491 26.9951 45.8943 26.9951C44.6395 26.9951 43.6224 26.9226 43.6224 26.8335C43.6224 26.7443 44.6395 26.6718 45.8943 26.6718C47.1491 26.6718 48.1663 26.7443 48.1663 26.8335Z" fill="#455A64"/>
<path d="M59.3884 26.649C59.3884 26.7381 57.3749 26.8107 54.8904 26.8107C52.4058 26.8107 50.3923 26.7381 50.3923 26.649C50.3923 26.5599 52.4058 26.4874 54.8904 26.4874C57.3749 26.4874 59.3884 26.5599 59.3884 26.649Z" fill="#455A64"/>
<path d="M39.8726 29.9691C39.8726 30.0582 36.2605 30.1307 31.8041 30.1307C27.3478 30.1307 23.7356 30.0582 23.7356 29.9691C23.7356 29.88 27.3478 29.8074 31.8041 29.8074C36.2605 29.8053 39.8726 29.8779 39.8726 29.9691Z" fill="#455A64"/>
<path d="M59.3884 29.8862C59.3884 29.9753 55.4427 30.0478 50.5778 30.0478C45.7109 30.0478 41.7673 29.9753 41.7673 29.8862C41.7673 29.7971 45.7109 29.7245 50.5778 29.7245C55.4427 29.7245 59.3884 29.7971 59.3884 29.8862Z" fill="#455A64"/>
<path d="M59.3884 32.7627C59.3884 32.8518 57.6313 32.9244 55.4656 32.9244C53.2979 32.9244 51.5429 32.8518 51.5429 32.7627C51.5429 32.6736 53.2979 32.6011 55.4656 32.6011C57.6313 32.6011 59.3884 32.6736 59.3884 32.7627Z" fill="#455A64"/>
<path d="M43.1596 20.9208C43.1596 21.0099 38.9034 21.0824 33.655 21.0824C28.4046 21.0824 24.1483 21.0099 24.1483 20.9208C24.1483 20.8317 28.4025 20.7591 33.655 20.7591C38.9034 20.7591 43.1596 20.8317 43.1596 20.9208Z" fill="#E8505B"/>
<path d="M134.657 69.4449H51.3812C49.7033 69.4449 48.3443 68.0937 48.3443 66.4253V13.7169C48.3443 12.0486 49.7033 10.6973 51.3812 10.6973H134.657C136.335 10.6973 137.694 12.0486 137.694 13.7169V66.4274C137.694 68.0936 136.335 69.4449 134.657 69.4449Z" fill="#263238"/>
<path d="M137.827 70.2407H48.4423C46.3934 70.2407 44.7321 68.589 44.7321 66.5517V65.099H141.535V66.5517C141.535 68.589 139.874 70.2407 137.827 70.2407Z" fill="#263238"/>
<path d="M135.17 13.0309H50.8685V62.6431H135.17V13.0309Z" fill="#455A64"/>
<path d="M84.3368 65.099C84.3347 65.099 84.366 65.0969 84.4306 65.0969C84.4994 65.0969 84.5932 65.0948 84.714 65.0948C84.9704 65.0927 85.3414 65.0907 85.8146 65.0886C86.7817 65.0844 88.1741 65.0782 89.8999 65.072C93.3766 65.0637 98.1893 65.0534 103.557 65.043H103.657L103.607 65.13C103.436 65.4223 103.25 65.7373 103.065 66.0544C102.871 66.3859 102.677 66.7155 102.491 67.0305L102.475 67.0595H102.441C95.0128 67.045 88.6701 67.0346 85.5394 67.0284H85.5249L85.5165 67.016C85.1309 66.3922 84.8349 65.9134 84.6307 65.5839C84.5348 65.4285 84.4598 65.3062 84.4076 65.2212C84.3576 65.1383 84.3368 65.099 84.3368 65.099C84.3368 65.099 84.368 65.1425 84.4202 65.2254C84.4764 65.3103 84.5536 65.4326 84.6557 65.5881C84.8641 65.9093 85.1663 66.3777 85.5582 66.9849L85.5353 66.9724C88.666 66.9662 95.0107 66.9559 102.437 66.9414L102.387 66.9704C102.573 66.6554 102.767 66.3258 102.96 65.9943C103.146 65.6772 103.331 65.3642 103.502 65.0699L103.552 65.157C98.206 65.1446 93.412 65.1363 89.9499 65.128C88.2178 65.1218 86.8172 65.1155 85.8458 65.1114C85.3644 65.1093 84.9892 65.1072 84.7286 65.1052C84.6036 65.1031 84.5077 65.1031 84.4347 65.1031C84.3722 65.101 84.3368 65.099 84.3368 65.099Z" fill="#455A64"/>
<path d="M137.694 65.099C137.694 65.128 117.691 65.1528 93.0224 65.1528C68.3437 65.1528 48.3465 65.128 48.3465 65.099C48.3465 65.0699 68.3458 65.0451 93.0224 65.0451C117.691 65.0451 137.694 65.0699 137.694 65.099Z" fill="#455A64"/>
<path d="M114.891 3.12253C116.269 3.12253 117.386 4.23336 117.386 5.60324V10.6952H109.922V5.99908C109.922 4.41159 111.216 3.12253 112.815 3.12253H114.891Z" fill="#263238"/>
<path d="M114.891 3.12253C114.891 3.15154 107.85 3.17019 99.1648 3.1619C90.4772 3.15361 83.4363 3.1246 83.4363 3.09351C83.4363 3.0645 90.4772 3.04584 99.1648 3.05413C107.85 3.06242 114.891 3.09351 114.891 3.12253Z" fill="#263238"/>
<path d="M114.824 3.11631L111.713 3.09558L107.192 3.12252H73.9796C71.1595 3.12252 68.873 5.39599 68.873 8.20001V61.8245V62.7612H111.886V5.90582C112.011 3.12252 114.824 3.11631 114.824 3.11631Z" fill="#FAFAFA"/>
<path d="M114.824 3.11631L88.889 3.17226L75.9223 3.18263L74.3006 3.1847C74.0297 3.17848 73.7629 3.19506 73.4961 3.20957C73.2314 3.24687 72.9667 3.27589 72.7103 3.35257C71.6723 3.60748 70.7406 4.22714 70.0632 5.04575C69.7255 5.45817 69.4629 5.92654 69.2711 6.41978C69.2294 6.5462 69.1711 6.6664 69.1419 6.79489L69.0418 7.18037C69.0022 7.44149 68.9501 7.70262 68.948 7.96997C68.9251 9.03728 68.9439 10.117 68.9376 11.1905L68.9772 62.7612L68.873 62.6576L111.886 62.6845L111.811 62.7592L111.831 32.087L111.856 16.7509L111.871 9.08287L111.875 7.16586L111.877 6.20839C111.877 6.04881 111.873 5.88923 111.898 5.72966C111.919 5.57008 111.925 5.4105 111.973 5.25714C112.115 4.63541 112.473 4.05098 113.015 3.69659C113.278 3.51214 113.572 3.37329 113.88 3.2821C114.185 3.18677 114.503 3.12667 114.824 3.11631ZM114.824 3.11631C114.503 3.12667 114.185 3.18884 113.878 3.28417C113.572 3.37743 113.278 3.51836 113.017 3.70281C112.48 4.05927 112.125 4.64163 111.986 5.26129C111.938 5.41465 111.931 5.57422 111.913 5.73173C111.888 5.88924 111.894 6.04881 111.894 6.21046L111.896 7.17001L111.9 9.08702L111.915 16.7551L111.94 32.0911L111.961 62.7633V62.8379H111.886L68.873 62.8649H68.7688V62.7612L68.8042 11.1885C68.8105 10.1129 68.7938 9.04142 68.8188 7.96168C68.8209 7.68812 68.873 7.42077 68.9147 7.15135L69.0168 6.75552C69.0481 6.62288 69.1065 6.49853 69.1502 6.37004C69.3482 5.86437 69.6171 5.38356 69.9652 4.96078C70.6614 4.12351 71.616 3.48935 72.6811 3.23029C72.9437 3.15154 73.2168 3.12252 73.4877 3.08522C73.7608 3.07071 74.0338 3.05621 74.3027 3.06035L75.9243 3.06242L88.8911 3.07278L114.824 3.11631Z" fill="#263238"/>
<path d="M75.3532 12.9397H82.859L82.8715 15.4391H82.513C82.3942 14.5438 82.0586 13.9407 81.5021 13.6236C81.1894 13.4495 80.7225 13.3542 80.1014 13.3376V19.8679C80.1014 20.3238 80.1806 20.6264 80.3411 20.7756C80.5016 20.9248 80.8351 20.9994 81.3416 20.9994V21.3144H76.8977V20.9994C77.3855 20.9994 77.7085 20.9228 77.869 20.7715C78.0295 20.6202 78.1087 20.3176 78.1087 19.8658V13.3355C77.5001 13.3521 77.0332 13.4474 76.7081 13.6215C76.1119 13.9448 75.7743 14.55 75.6972 15.437H75.3386L75.3532 12.9397Z" fill="#E8505B"/>
<path d="M105.983 13.5034C105.983 13.5925 101.843 13.665 96.7365 13.665C91.6278 13.665 87.4883 13.5925 87.4883 13.5034C87.4883 13.4143 91.6278 13.3417 96.7365 13.3417C101.843 13.3417 105.983 13.4143 105.983 13.5034Z" fill="#E8505B"/>
<path d="M95.0107 16.4421C95.0107 16.5313 93.4099 16.6038 91.436 16.6038C89.4601 16.6038 87.8614 16.5313 87.8614 16.4421C87.8614 16.353 89.4621 16.2805 91.436 16.2805C93.4099 16.2805 95.0107 16.353 95.0107 16.4421Z" fill="#455A64"/>
<path d="M85.998 25.4034C85.998 25.4925 82.9569 25.565 79.2093 25.565C75.4595 25.565 72.4185 25.4925 72.4185 25.4034C72.4185 25.3142 75.4575 25.2417 79.2093 25.2417C82.959 25.2417 85.998 25.3142 85.998 25.4034Z" fill="#455A64"/>
<path d="M101.376 25.4034C101.376 25.4925 98.3352 25.565 94.5876 25.565C90.8378 25.565 87.7968 25.4925 87.7968 25.4034C87.7968 25.3142 90.8358 25.2417 94.5876 25.2417C98.3352 25.2417 101.376 25.3142 101.376 25.4034Z" fill="#E8505B"/>
<path d="M85.998 27.797C85.998 27.8861 82.9569 27.9587 79.2093 27.9587C75.4595 27.9587 72.4185 27.8861 72.4185 27.797C72.4185 27.7079 75.4575 27.6354 79.2093 27.6354C82.959 27.6354 85.998 27.7079 85.998 27.797Z" fill="#455A64"/>
<path d="M85.998 30.1907C85.998 30.2798 82.9569 30.3524 79.2093 30.3524C75.4595 30.3524 72.4185 30.2798 72.4185 30.1907C72.4185 30.1016 75.4575 30.0291 79.2093 30.0291C82.959 30.0291 85.998 30.1016 85.998 30.1907Z" fill="#E8505B"/>
<path d="M95.0107 21.3165C95.0107 21.4056 93.4099 21.4781 91.436 21.4781C89.4601 21.4781 87.8614 21.4056 87.8614 21.3165C87.8614 21.2274 89.4621 21.1548 91.436 21.1548C93.4099 21.1548 95.0107 21.2274 95.0107 21.3165Z" fill="#455A64"/>
<path d="M107.413 25.4034C107.413 25.4925 106.345 25.565 105.03 25.565C103.713 25.565 102.646 25.4925 102.646 25.4034C102.646 25.3142 103.713 25.2417 105.03 25.2417C106.345 25.2417 107.413 25.3142 107.413 25.4034Z" fill="#455A64"/>
<path d="M108.688 16.4421C108.688 16.5313 105.941 16.6038 102.554 16.6038C99.1648 16.6038 96.4197 16.5313 96.4197 16.4421C96.4197 16.353 99.1669 16.2805 102.554 16.2805C105.941 16.2805 108.688 16.353 108.688 16.4421Z" fill="#455A64"/>
<path d="M108.134 18.7757C108.134 18.8648 103.594 18.9373 97.9976 18.9373C92.399 18.9373 87.8593 18.8648 87.8593 18.7757C87.8593 18.6866 92.3969 18.614 97.9976 18.614C103.596 18.614 108.134 18.6866 108.134 18.7757Z" fill="#455A64"/>
<path d="M107.413 27.797C107.413 27.8861 103.021 27.9587 97.6057 27.9587C92.1885 27.9587 87.7968 27.8861 87.7968 27.797C87.7968 27.7079 92.1864 27.6354 97.6057 27.6354C103.021 27.6354 107.413 27.7079 107.413 27.797Z" fill="#455A64"/>
<path d="M107.413 34.7252C107.413 34.8143 103.292 34.8868 98.2102 34.8868C93.1264 34.8868 89.0057 34.8143 89.0057 34.7252C89.0057 34.6361 93.1264 34.5635 98.2102 34.5635C103.292 34.5635 107.413 34.6361 107.413 34.7252Z" fill="#E8505B"/>
<path d="M107.413 37.0546C107.413 37.1438 103.292 37.2163 98.2102 37.2163C93.1264 37.2163 89.0057 37.1438 89.0057 37.0546C89.0057 36.9655 93.1264 36.893 98.2102 36.893C103.292 36.893 107.413 36.9655 107.413 37.0546Z" fill="#455A64"/>
<path d="M107.413 39.3841C107.413 39.4732 103.292 39.5457 98.2102 39.5457C93.1264 39.5457 89.0057 39.4732 89.0057 39.3841C89.0057 39.2949 93.1264 39.2224 98.2102 39.2224C103.292 39.2224 107.413 39.2949 107.413 39.3841Z" fill="#455A64"/>
<path d="M107.413 41.7135C107.413 41.8026 103.292 41.8752 98.2102 41.8752C93.1264 41.8752 89.0057 41.8026 89.0057 41.7135C89.0057 41.6244 93.1264 41.5518 98.2102 41.5518C103.292 41.5518 107.413 41.6244 107.413 41.7135Z" fill="#455A64"/>
<path d="M99.6025 44.0429C99.6025 44.0885 99.0085 44.1279 98.0497 44.1569C97.0909 44.1859 95.7673 44.2046 94.3041 44.2046C92.8409 44.2046 91.5153 44.1859 90.5565 44.1569C89.5977 44.1279 89.0057 44.0865 89.0057 44.0429C89.0057 43.9973 89.5977 43.958 90.5565 43.9289C91.5153 43.8999 92.8409 43.8813 94.3041 43.8813C95.7673 43.8813 97.0909 43.8999 98.0497 43.9289C99.0085 43.958 99.6025 43.9994 99.6025 44.0429Z" fill="#455A64"/>
<path d="M104.078 30.3151C104.078 30.4042 100.528 30.4767 96.1508 30.4767C91.7716 30.4767 88.2241 30.4042 88.2241 30.3151C88.2241 30.2259 91.7737 30.1534 96.1508 30.1534C100.528 30.1534 104.078 30.2259 104.078 30.3151Z" fill="#455A64"/>
<path d="M85.677 34.9884L86.6545 52.969L68.971 55.1699L68.9585 34.8371L85.677 34.9884Z" fill="#E0E0E0"/>
<path d="M62.7826 33.7406L62.6594 52.8154L86.6544 52.9686L86.7776 33.8939L62.7826 33.7406Z" fill="#F5F5F5"/>
<path d="M63.6014 34.9468L63.4937 51.6197L85.8024 51.7622L85.9101 35.0893L63.6014 34.9468Z" fill="#E8505B"/>
<g opacity="0.2">
<path opacity="0.2" d="M63.4933 51.6198L71.3534 41.3073L76.137 47.821L79.4344 44.3766L85.8021 51.7628L63.4933 51.6198Z" fill="black"/>
</g>
<g opacity="0.2">
<g opacity="0.2">
<g opacity="0.2">
<path opacity="0.2" d="M78.2359 40.0804C78.2296 41.0441 77.4376 41.8212 76.4683 41.815C75.4991 41.8088 74.7175 41.0213 74.7237 40.0576C74.73 39.0939 75.522 38.3168 76.4913 38.323C77.4605 38.3292 78.2421 39.1167 78.2359 40.0804Z" fill="black"/>
</g>
</g>
</g>
<path d="M88.964 57.4703C88.964 57.6734 88.7973 57.8392 88.593 57.8392C88.3887 57.8392 88.222 57.6734 88.222 57.4703C88.222 57.2672 88.3887 57.1014 88.593 57.1014C88.7994 57.1014 88.964 57.2651 88.964 57.4703Z" fill="#263238"/>
<path d="M91.1671 57.4703C91.1671 57.6734 91.0004 57.8392 90.7961 57.8392C90.5919 57.8392 90.4251 57.6734 90.4251 57.4703C90.4251 57.2672 90.5919 57.1014 90.7961 57.1014C91.0004 57.1014 91.1671 57.2651 91.1671 57.4703Z" fill="#263238"/>
<path d="M93.3682 57.4703C93.3682 57.6734 93.2015 57.8392 92.9972 57.8392C92.793 57.8392 92.6262 57.6734 92.6262 57.4703C92.6262 57.2672 92.793 57.1014 92.9972 57.1014C93.2015 57.1014 93.3682 57.2651 93.3682 57.4703Z" fill="#263238"/>
<path d="M101.478 48.8966C101.478 48.9857 98.4373 49.0582 94.6897 49.0582C90.94 49.0582 87.8989 48.9857 87.8989 48.8966C87.8989 48.8075 90.9379 48.7349 94.6897 48.7349C98.4394 48.7349 101.478 48.8075 101.478 48.8966Z" fill="#E8505B"/>
<path d="M107.515 51.2903C107.515 51.3794 103.123 51.4519 97.7078 51.4519C92.2906 51.4519 87.8989 51.3794 87.8989 51.2903C87.8989 51.2011 92.2885 51.1286 97.7078 51.1286C103.125 51.1286 107.515 51.2011 107.515 51.2903Z" fill="#455A64"/>
<path d="M150.673 55.2746L150.599 66.7643L165.052 66.8566L165.126 55.367L150.673 55.2746Z" fill="#F5F5F5"/>
<path d="M151.168 56.0021L151.103 66.0452L164.541 66.131L164.605 56.0879L151.168 56.0021Z" fill="#E8505B"/>
<path opacity="0.2" d="M151.1 66.046L155.834 59.8349L158.717 63.758L160.703 61.6835L164.538 66.1331L151.1 66.046Z" fill="black"/>
<g opacity="0.2">
<g opacity="0.2">
<path opacity="0.2" d="M159.982 59.0971C159.978 59.6774 159.5 60.1458 158.917 60.1416C158.333 60.1375 157.862 59.6629 157.866 59.0826C157.87 58.5023 158.348 58.034 158.931 58.0381C159.515 58.0423 159.984 58.5148 159.982 59.0971Z" fill="black"/>
</g>
</g>
<path d="M148.553 54.0751L148.479 65.5647L162.932 65.6571L163.006 54.1674L148.553 54.0751Z" fill="#F5F5F5"/>
<path d="M149.048 54.8025L148.983 64.8456L162.421 64.9314L162.486 54.8884L149.048 54.8025Z" fill="#E8505B"/>
<path opacity="0.2" d="M148.981 64.8482L153.714 58.635L156.597 62.5581L158.583 60.4836L162.418 64.9332L148.981 64.8482Z" fill="black"/>
<g opacity="0.2">
<g opacity="0.2">
<path opacity="0.2" d="M157.862 57.8972C157.858 58.4775 157.381 58.9459 156.797 58.9417C156.213 58.9376 155.742 58.463 155.746 57.8827C155.751 57.3024 156.228 56.834 156.812 56.8382C157.395 56.8423 157.866 57.3149 157.862 57.8972Z" fill="black"/>
</g>
</g>
<path d="M146.667 53.0845L146.592 64.5741L161.045 64.6664L161.119 53.1768L146.667 53.0845Z" fill="#F5F5F5"/>
<path d="M147.159 53.8098L147.094 63.8529L160.532 63.9387L160.597 53.8956L147.159 53.8098Z" fill="#E8505B"/>
<path opacity="0.2" d="M147.094 63.8555L151.828 57.6444L154.71 61.5675L156.695 59.493L160.532 63.9425L147.094 63.8555Z" fill="black"/>
<g opacity="0.2">
<g opacity="0.2">
<path opacity="0.2" d="M155.974 56.9045C155.969 57.4848 155.492 57.9532 154.908 57.949C154.325 57.9449 153.854 57.4703 153.858 56.89C153.862 56.3097 154.339 55.8413 154.923 55.8455C155.507 55.8496 155.978 56.3242 155.974 56.9045Z" fill="black"/>
</g>
</g>
<path d="M144.546 54.3188L144.472 65.8084L158.925 65.9007L158.999 54.4111L144.546 54.3188Z" fill="#F5F5F5"/>
<path d="M145.041 55.0441L144.976 65.0872L158.413 65.173L158.478 55.1299L145.041 55.0441Z" fill="#455A64"/>
<path opacity="0.2" d="M144.975 65.0907L149.708 58.8775L152.591 62.8006L154.575 60.7261L158.412 65.1756L144.975 65.0907Z" fill="black"/>
<g opacity="0.2">
<g opacity="0.2">
<path opacity="0.2" d="M153.854 58.1397C153.85 58.7199 153.372 59.1883 152.789 59.1842C152.205 59.18 151.734 58.7054 151.738 58.1252C151.742 57.5449 152.22 57.0765 152.803 57.0807C153.387 57.0848 153.858 57.5573 153.854 58.1397Z" fill="black"/>
</g>
</g>
<path d="M167.342 58.5935H158.998V69.6873H167.342V58.5935Z" fill="#263238"/>
<path d="M143.017 58.5935V69.6873H159.707V58.5935H143.017ZM153.137 61.2193H149.589C149.166 61.2193 148.822 60.8774 148.822 60.4567C148.822 60.036 149.166 59.694 149.589 59.694H153.137C153.56 59.694 153.904 60.036 153.904 60.4567C153.904 60.8774 153.56 61.2193 153.137 61.2193Z" fill="#E8505B"/>
<path d="M132.195 68.5268L116.675 67.5817C116.577 67.36 116.513 67.2315 116.513 67.2315L112.307 67.3144L110.937 67.2315C110.937 67.2315 110.916 67.273 110.883 67.3434L96.7636 67.6232C93.9477 67.6232 90.99 69.3309 90.99 71.5132C90.9546 73.5898 91.9655 75.8446 94.4875 75.7928L113.726 75.7285L132.962 75.7928C135.484 75.8446 136.151 74.3317 136.156 72.537C136.452 69.1962 134.346 68.5537 132.195 68.5268Z" fill="#455A64"/>
<path d="M96.2551 75.7949C96.2551 75.7949 96.2863 75.7907 96.3468 75.7887C96.4135 75.7866 96.5031 75.7866 96.6177 75.7845C96.8616 75.7824 97.2139 75.7783 97.6662 75.7741C98.5812 75.77 99.9027 75.7638 101.537 75.7576C104.82 75.7534 109.368 75.7472 114.453 75.741L114.399 75.799C114.372 75.3804 114.345 74.9307 114.316 74.4789C114.258 73.5545 114.201 72.6427 114.147 71.7785L114.195 71.8282C109.47 71.3059 105.295 70.8438 102.295 70.5122C100.803 70.3422 99.6025 70.2055 98.7688 70.1101C98.3582 70.0604 98.0413 70.0231 97.8183 69.9961C97.7141 69.9816 97.6328 69.9713 97.5724 69.9651C97.5161 69.9568 97.489 69.9526 97.489 69.9505C97.489 69.9485 97.5182 69.9506 97.5724 69.9547C97.6328 69.9609 97.7141 69.9671 97.8183 69.9775C98.0413 70.0003 98.3603 70.0314 98.7709 70.0728C99.6046 70.1599 100.805 70.2863 102.3 70.4417C105.299 70.765 109.476 71.2147 114.203 71.7225L114.249 71.7266L114.251 71.7722C114.305 72.6385 114.364 73.5483 114.422 74.4726C114.451 74.9244 114.478 75.3742 114.506 75.7928L114.51 75.8508H114.451C109.363 75.8446 104.815 75.8384 101.535 75.8342C99.8985 75.828 98.5791 75.8218 97.6641 75.8177C97.2118 75.8135 96.8595 75.8094 96.6157 75.8073C96.4989 75.8052 96.4093 75.8032 96.3447 75.8032C96.2863 75.799 96.2551 75.7949 96.2551 75.7949Z" fill="#263238"/>
<path d="M100.222 70.307C100.209 70.3215 100.017 70.1661 99.6775 69.9609C99.3399 69.7557 98.8459 69.5112 98.2644 69.3433C97.6828 69.1775 97.1346 69.1236 96.7365 69.1195C96.3405 69.1153 96.0925 69.1443 96.0904 69.1257C96.0904 69.1174 96.1508 69.105 96.2613 69.0863C96.3718 69.0656 96.5344 69.0511 96.7365 69.0428C97.1388 69.0262 97.7016 69.0697 98.2935 69.2397C98.8855 69.4096 99.3857 69.6707 99.7171 69.8966C99.8839 70.0086 100.013 70.108 100.096 70.1826C100.182 70.2573 100.226 70.3008 100.222 70.307Z" fill="#263238"/>
<path d="M130.991 69.4863C130.997 69.5153 127.937 70.2511 124.154 71.1298C120.371 72.0085 117.299 72.6965 117.292 72.6675C117.286 72.6385 120.346 71.9028 124.129 71.0241C127.912 70.1454 130.984 69.4573 130.991 69.4863Z" fill="#263238"/>
<path d="M128.402 69.19C128.412 69.2231 127.81 69.3433 127.203 69.762C126.591 70.1723 126.257 70.6842 126.228 70.6614C126.218 70.6552 126.284 70.5184 126.436 70.3236C126.586 70.1288 126.828 69.8842 127.141 69.6728C127.454 69.4614 127.772 69.3288 128.01 69.2604C128.248 69.19 128.4 69.1754 128.402 69.19Z" fill="#263238"/>
<path d="M122.626 51.6695L127.541 60.1769C128.148 61.2276 128.185 62.5105 127.641 63.5944C127.01 64.8523 125.701 65.6316 124.287 65.5922L116.74 65.3808L116.542 62.6514L123.189 61.3851L118.708 53.6715L122.626 51.6695Z" fill="#FFBE9D"/>
<path d="M104.305 66.2305L111.246 68.0584L111.396 65.988L104.999 62.2949L109.67 53.6736L105.749 51.6716L100.834 60.179C99.6442 62.3757 100.755 65.1093 103.148 65.8657L104.305 66.2305Z" fill="#FFBE9D"/>
<path d="M108.102 60.4546L107.548 68.4293L121.559 68.7174L120.404 62.8648L120.112 57.1573L121.138 58.436L126.541 56.7221C126.541 56.7221 124.494 52.9855 123.249 51.2778C121.78 49.2572 119.502 47.8438 116.913 47.307L111.456 47.3713C110.679 47.4541 110.041 47.6013 109.509 47.8168L109.514 47.7961C106.552 48.4448 101.751 57.4682 101.751 57.4682L107.054 59.122L108.13 56.7511L108.102 60.4546Z" fill="#263238"/>
<path d="M106.833 70.4148L106.041 61.2463H123.11L121.978 70.5288L106.833 70.4148Z" fill="#FAFAFA"/>
<path d="M115.662 66.1352C115.662 66.732 115.177 67.2149 114.576 67.2149C113.976 67.2149 113.491 66.732 113.491 66.1352C113.491 65.5383 113.976 65.0554 114.576 65.0554C115.175 65.0554 115.662 65.5383 115.662 66.1352Z" fill="#E8505B"/>
<path d="M114.86 50.5545C116.298 50.5234 117.451 49.3649 117.467 47.935L115.719 40.7104C115.727 40.2752 115.4 39.9063 114.964 39.8607C113.53 39.7094 111.888 39.239 111.798 40.669C111.698 42.2585 109.722 41.9912 109.912 43.1766C110.293 45.562 112.132 45.8646 112.132 45.8646C112.132 45.8584 112.134 46.7868 112.138 47.9184C112.144 49.3981 113.372 50.5856 114.86 50.5545Z" fill="#FFBE9D"/>
<path d="M112.132 45.8646C112.132 45.8646 113.745 45.9682 115.343 45.0128C115.343 45.0128 114.564 46.6501 112.165 46.4283L112.132 45.8646Z" fill="#EB996E"/>
<path d="M110.946 55C111.469 55 111.893 54.5715 111.893 54.0429C111.893 53.5143 111.469 53.0858 110.946 53.0858C110.424 53.0858 110 53.5143 110 54.0429C110 54.5715 110.424 55 110.946 55Z" fill="#CA3D3D"/>
<path d="M110.678 54.5124C110.619 54.5197 110.59 54.5288 110.579 54.5997L110.538 54.9054C110.631 54.9509 110.734 54.9818 110.842 54.9927L110.795 54.5742C110.79 54.5342 110.738 54.5051 110.678 54.5124Z" fill="#263238"/>
<path d="M111.045 54.5324C111.045 54.5906 110.998 54.5888 110.941 54.5888C110.883 54.5888 110.837 54.5906 110.837 54.5324V54.1102C110.837 54.052 110.883 54.0047 110.941 54.0047C110.998 54.0047 111.045 54.052 111.045 54.1102V54.5324Z" fill="#E8B299"/>
<path d="M110.838 54.4687C110.846 54.4687 110.853 54.4687 110.86 54.4687C110.926 54.4687 110.989 54.4577 111.045 54.4377V54.112C111.045 54.0538 110.998 54.0065 110.941 54.0065C110.883 54.0065 110.837 54.0538 110.837 54.112V54.4687H110.838Z" fill="#E8B299"/>
<path d="M111.274 54.5124H111.047C111.047 54.587 110.84 54.587 110.84 54.5124H110.687C110.66 54.5124 110.639 54.5415 110.64 54.5779L110.655 54.9527C110.747 54.9836 110.846 55 110.946 55C111.078 55 111.204 54.9727 111.317 54.9236L111.32 54.5779C111.322 54.5415 111.301 54.5124 111.274 54.5124Z" fill="#455A64"/>
<path d="M111.231 54.5633C111.173 54.5815 111.178 54.6579 111.187 54.738C111.195 54.7944 111.216 54.96 111.216 54.96C111.25 54.9491 111.283 54.9382 111.315 54.9236L111.319 54.5997L111.308 54.5652C111.297 54.5251 111.288 54.5451 111.231 54.5633Z" fill="#263238"/>
<path d="M111.374 54.5597C111.362 54.5196 111.306 54.5014 111.249 54.5178C111.191 54.536 111.155 54.5815 111.166 54.6233L111.27 54.9418C111.338 54.9163 111.403 54.8835 111.463 54.8435L111.374 54.5597Z" fill="#455A64"/>
<path d="M110.552 53.6899C110.552 53.6899 110.419 53.4643 110.36 53.6572C110.302 53.85 110.435 53.9428 110.525 53.9246C110.615 53.9065 110.552 53.6899 110.552 53.6899Z" fill="#E8B299"/>
<path d="M110.534 53.7264C110.534 53.7264 110.443 53.5826 110.408 53.6408C110.374 53.6991 110.383 53.7718 110.383 53.7718C110.383 53.7718 110.403 53.6918 110.462 53.7373C110.462 53.7373 110.403 53.8665 110.522 53.8301C110.524 53.8301 110.574 53.7919 110.534 53.7264Z" fill="#B66C50"/>
<path d="M111.344 53.6663C111.344 53.6663 111.482 53.4425 111.536 53.6354C111.59 53.8282 111.454 53.921 111.365 53.901C111.276 53.8828 111.344 53.6663 111.344 53.6663Z" fill="#E8B299"/>
<path d="M111.346 53.7191C111.346 53.7191 111.441 53.5771 111.473 53.6354C111.506 53.6936 111.495 53.7664 111.495 53.7664C111.495 53.7664 111.477 53.6863 111.416 53.7318C111.416 53.7318 111.473 53.861 111.355 53.8228C111.353 53.8228 111.304 53.7827 111.346 53.7191Z" fill="#B66C50"/>
<path d="M110.977 54.3886C110.55 54.385 110.484 53.9701 110.473 53.8228C110.47 53.7627 110.473 53.6626 110.48 53.5662C110.489 53.4261 110.506 53.2915 110.509 53.2805C110.635 52.9512 111.056 52.9621 111.195 53.0604C111.373 53.1859 111.385 53.3224 111.385 53.3224C111.401 53.4043 111.412 53.488 111.418 53.5699C111.446 53.9938 111.335 54.3905 110.977 54.3886Z" fill="#E8B299"/>
<path d="M110.788 53.6663C110.788 53.7136 110.756 53.7518 110.716 53.7518C110.676 53.7518 110.646 53.7136 110.646 53.6663C110.646 53.619 110.678 53.5808 110.718 53.5808C110.757 53.5808 110.788 53.6208 110.788 53.6663Z" fill="#4A1D1D"/>
<path d="M111.25 53.67C111.25 53.7173 111.218 53.7555 111.178 53.7555C111.139 53.7555 111.108 53.7173 111.108 53.67C111.108 53.6227 111.141 53.5844 111.18 53.5844C111.22 53.5844 111.252 53.6227 111.25 53.67Z" fill="#4A1D1D"/>
<path d="M111.427 53.6262C111.428 53.6699 111.351 53.7318 111.326 53.77C111.32 53.7773 111.317 53.7845 111.31 53.79C111.277 53.83 111.232 53.8628 111.18 53.8901C111.173 53.8937 111.168 53.8974 111.16 53.8992C111.096 53.9283 111.02 53.9447 110.948 53.9465C110.944 53.9465 110.939 53.9465 110.935 53.9465H110.932C110.867 53.9465 110.808 53.9265 110.756 53.8974C110.75 53.8955 110.745 53.8919 110.741 53.8883C110.712 53.8701 110.685 53.85 110.662 53.83C110.64 53.8118 110.617 53.7882 110.594 53.7645C110.592 53.7627 110.592 53.7627 110.592 53.7609C110.559 53.7245 110.497 53.6717 110.479 53.6299C110.455 53.6481 110.381 54.0647 110.466 54.1794C110.468 54.183 110.47 54.1848 110.473 54.1885C110.482 54.1994 110.489 54.2103 110.5 54.2194C110.556 54.2831 110.626 54.3286 110.703 54.3559C110.718 54.3613 110.732 54.365 110.747 54.3704C110.813 54.3886 110.885 54.3941 110.962 54.3904C110.971 54.3904 110.979 54.3886 110.988 54.3886C111.011 54.3868 111.036 54.3832 111.061 54.3795C111.108 54.3723 111.151 54.3613 111.189 54.3468C111.202 54.3431 111.213 54.3377 111.223 54.3322C111.326 54.2867 111.396 54.2158 111.437 54.1303C111.446 54.1121 111.454 54.092 111.461 54.072C111.472 54.0393 111.479 54.0029 111.484 53.9665C111.488 53.9155 111.427 53.6171 111.427 53.6262Z" fill="#4A1D1D"/>
<path d="M110.824 53.3934C110.797 53.3733 110.752 53.377 110.718 53.3824C110.671 53.3915 110.549 53.4225 110.588 53.4771L110.59 53.4789C110.588 53.4825 110.594 53.4862 110.599 53.4843C110.601 53.4843 110.601 53.4843 110.603 53.4825C110.606 53.4825 110.61 53.4807 110.613 53.4789C110.646 53.4698 110.685 53.4716 110.718 53.4734C110.761 53.4752 110.795 53.4971 110.84 53.4953C110.847 53.4953 110.853 53.4916 110.853 53.4843C110.855 53.4534 110.856 53.4188 110.824 53.3934Z" fill="#4A1D1D"/>
<path d="M111.047 53.488C111.047 53.4934 111.052 53.4971 111.06 53.4989C111.105 53.5007 111.139 53.4789 111.182 53.477C111.214 53.4752 111.254 53.4752 111.286 53.4843C111.29 53.4861 111.292 53.488 111.295 53.488C111.297 53.488 111.297 53.488 111.299 53.4898C111.304 53.4916 111.308 53.488 111.308 53.4843L111.31 53.4825C111.349 53.4279 111.229 53.3952 111.182 53.3861C111.148 53.3788 111.105 53.3752 111.076 53.3952C111.043 53.4188 111.043 53.4552 111.047 53.488Z" fill="#4A1D1D"/>
<path d="M110.989 53.8865C110.973 53.8683 110.986 53.8337 110.984 53.8119C110.982 53.7828 110.984 53.7555 110.982 53.7264C110.98 53.7027 110.988 53.6499 110.961 53.6281C110.957 53.6063 110.93 53.6081 110.917 53.6281C110.896 53.6608 110.903 53.7027 110.905 53.7391C110.907 53.77 110.907 53.801 110.907 53.8319C110.907 53.8519 110.91 53.8828 110.898 53.901C110.86 53.8883 110.813 53.8774 110.846 53.921C110.862 53.9429 110.914 53.9884 110.952 53.9829C110.993 53.9774 111.047 53.9247 111.061 53.8974C111.083 53.8555 111.02 53.8719 110.989 53.8865Z" fill="#E8B299"/>
<path d="M110.671 53.9683C110.671 53.9683 110.952 54.2431 111.182 53.952C111.182 53.952 111.031 54.5233 110.671 53.9683Z" fill="white"/>
<path d="M112.144 53.6808H112.564C112.634 53.6808 112.684 53.6972 112.717 53.7281C112.749 53.7609 112.763 53.8118 112.763 53.8828V53.9847C112.763 54.0556 112.747 54.1066 112.717 54.1393C112.684 54.1721 112.634 54.1866 112.564 54.1866H112.324V54.3886H112.144V53.6808ZM112.585 53.8828C112.585 53.8428 112.565 53.8227 112.526 53.8227H112.324V54.0447H112.524C112.564 54.0447 112.583 54.0247 112.583 53.9847V53.8828H112.585Z" fill="white"/>
<path d="M112.92 54.3886H112.726L112.99 53.6808H113.19L113.454 54.3886H113.26L113.215 54.2631H112.965L112.92 54.3886ZM113.01 54.1302H113.17L113.091 53.8919L113.01 54.1302Z" fill="white"/>
<path d="M113.505 53.6808H113.924C113.994 53.6808 114.044 53.6972 114.077 53.7281C114.109 53.7609 114.123 53.8118 114.123 53.8828V53.9847C114.123 54.0556 114.107 54.1066 114.077 54.1393C114.044 54.1721 113.994 54.1866 113.924 54.1866H113.684V54.3886H113.505V53.6808ZM113.945 53.8828C113.945 53.8428 113.925 53.8227 113.886 53.8227H113.686V54.0447H113.886C113.925 54.0447 113.945 54.0247 113.945 53.9847V53.8828Z" fill="white"/>
<path d="M114.546 54.3886H114.186V54.2467H114.276V53.8227H114.186V53.6808H114.546V53.8227H114.456V54.2467H114.546V54.3886Z" fill="white"/>
<path d="M115.025 53.6808C115.1 53.6808 115.158 53.7008 115.196 53.7409C115.235 53.7809 115.255 53.8373 115.255 53.9137V54.1557C115.255 54.2321 115.235 54.2904 115.196 54.3286C115.156 54.3686 115.1 54.3886 115.025 54.3886H114.634V53.6808H115.025ZM115.075 53.9119C115.075 53.8519 115.044 53.8209 114.985 53.8209H114.816V54.2449H114.985C115.044 54.2449 115.075 54.2139 115.075 54.1539V53.9119Z" fill="#CA3D3D"/>
<path d="M115.685 54.3886H115.325V54.2467H115.415V53.8227H115.325V53.6808H115.685V53.8227H115.595V54.2467H115.685V54.3886Z" fill="#CA3D3D"/>
<path d="M115.946 54.3959C115.881 54.3959 115.832 54.3813 115.802 54.3504C115.771 54.3195 115.755 54.2703 115.755 54.2048V53.8828C115.755 53.8118 115.771 53.7609 115.802 53.7299C115.834 53.6972 115.885 53.6826 115.955 53.6826H116.315V53.8245H115.994C115.955 53.8245 115.935 53.8446 115.935 53.8846V54.2066C115.935 54.2212 115.94 54.2339 115.949 54.243C115.958 54.2521 115.971 54.2558 115.985 54.2558C116.005 54.2558 116.027 54.2558 116.052 54.2558C116.077 54.2558 116.099 54.2558 116.12 54.2558C116.145 54.2558 116.171 54.2558 116.196 54.2558V54.1066H116.066V53.9847H116.376V54.374C116.325 54.3813 116.275 54.385 116.225 54.385C116.181 54.3922 116.135 54.3959 116.084 54.3959C116.034 54.3959 115.989 54.3959 115.946 54.3959Z" fill="#CA3D3D"/>
<path d="M116.806 54.3886H116.446V54.2467H116.536V53.8227H116.446V53.6808H116.806V53.8227H116.716V54.2467H116.806V54.3886Z" fill="#CA3D3D"/>
<path d="M117.236 54.3886H117.056V53.8227H116.845V53.6808H117.446V53.8227H117.236V54.3886Z" fill="#CA3D3D"/>
<path d="M117.57 54.3886H117.376L117.64 53.6808H117.84L118.105 54.3886H117.91L117.865 54.2631H117.615L117.57 54.3886ZM117.66 54.1302H117.82L117.741 53.8919L117.66 54.1302Z" fill="#CA3D3D"/>
<path d="M118.335 54.2467H118.7V54.3886H118.155V53.6808H118.335V54.2467Z" fill="#CA3D3D"/>
<path d="M111.296 42.3332C111.296 42.3332 110.226 40.7042 109.849 42.1446C109.47 43.5849 110.51 44.2294 111.173 44.0719C111.836 43.9124 111.296 42.3332 111.296 42.3332Z" fill="#CB896D"/>
<path d="M111.179 42.6088C111.179 42.6088 110.445 41.5788 110.212 42.0119C109.978 42.4451 110.066 42.986 110.066 42.986C110.066 42.986 110.189 42.387 110.656 42.7103C110.656 42.7103 110.245 43.6761 111.133 43.3735C111.133 43.3756 111.494 43.0751 111.179 42.6088Z" fill="#B46C50"/>
<path d="M117.232 41.9207C117.232 41.9207 118.201 40.2213 118.666 41.6327C119.131 43.044 118.132 43.759 117.459 43.6471C116.788 43.5352 117.232 41.9207 117.232 41.9207Z" fill="#CB896D"/>
<path d="M117.257 42.3041C117.257 42.3041 117.928 41.2265 118.187 41.643C118.445 42.0596 118.391 42.6046 118.391 42.6046C118.391 42.6046 118.232 42.016 117.786 42.3704C117.786 42.3704 118.253 43.3072 117.351 43.0647C117.351 43.0647 116.973 42.7891 117.257 42.3041Z" fill="#B46C50"/>
<path d="M114.693 47.3506C111.492 47.4583 110.868 44.4201 110.745 43.3342C110.695 42.8907 110.695 42.157 110.718 41.4379C110.75 40.4058 110.825 39.3986 110.852 39.3178C111.702 36.8536 114.854 36.8018 115.931 37.4857C117.311 38.3624 117.445 39.3654 117.445 39.3654C117.586 39.9623 117.693 40.5716 117.759 41.1768C118.101 44.2999 117.378 47.2615 114.693 47.3506Z" fill="#E6B097"/>
<path d="M112.69 41.6803C112.701 42.0285 112.471 42.3187 112.182 42.3269C111.89 42.3373 111.646 42.0637 111.635 41.7156C111.625 41.3674 111.854 41.0773 112.144 41.069C112.436 41.0586 112.68 41.3322 112.69 41.6803Z" fill="#390A0A"/>
<path d="M116.171 41.5622C116.181 41.9104 115.954 42.2005 115.662 42.2088C115.371 42.2192 115.127 41.9456 115.116 41.5974C115.106 41.2493 115.335 40.9591 115.625 40.9508C115.917 40.9405 116.161 41.2161 116.171 41.5622Z" fill="#390A0A"/>
<path d="M117.834 41.5954C117.855 41.9228 117.294 42.3995 117.119 42.6793C117.086 42.7332 117.051 42.785 117.011 42.8368C116.782 43.1394 116.454 43.4026 116.071 43.6098C116.023 43.6368 115.973 43.6637 115.923 43.6886C115.441 43.9227 114.891 44.0699 114.339 44.1051C114.305 44.1072 114.272 44.1093 114.239 44.1113H114.214C113.726 44.1258 113.276 43.9974 112.88 43.8025C112.84 43.7839 112.803 43.7632 112.763 43.7424C112.54 43.6222 112.338 43.4813 112.154 43.3342C111.988 43.1995 111.8 43.0399 111.621 42.8658C111.615 42.8596 111.608 42.8513 111.6 42.8451C111.342 42.5922 110.862 42.2192 110.716 41.9145C110.541 42.0596 110.118 45.1517 110.783 45.9745C110.8 45.9952 110.818 46.0159 110.835 46.0367C110.902 46.1154 110.968 46.19 111.041 46.2605C111.483 46.7081 112.015 47.0211 112.613 47.2034C112.719 47.2366 112.83 47.2656 112.944 47.2905C113.449 47.4003 113.995 47.4273 114.572 47.3734C114.637 47.3672 114.699 47.3609 114.764 47.3527C114.943 47.3299 115.125 47.3008 115.31 47.2635C115.66 47.1931 115.975 47.0998 116.259 46.9838C116.348 46.9485 116.434 46.9092 116.517 46.8677C117.271 46.4988 117.772 45.9579 118.057 45.3071C118.12 45.1662 118.172 45.0211 118.216 44.8699C118.289 44.6212 118.332 44.358 118.353 44.0865C118.385 43.7114 117.832 41.5311 117.834 41.5954Z" fill="#4A1C1C"/>
<path d="M113.242 40.0618C113.028 39.9188 112.698 39.9581 112.444 40.0182C112.092 40.0991 111.191 40.3643 111.5 40.754C111.504 40.7602 111.51 40.7622 111.517 40.7664C111.508 40.7913 111.548 40.8161 111.583 40.8016C111.59 40.7995 111.598 40.7954 111.606 40.7933C111.633 40.7913 111.658 40.7809 111.679 40.7664C111.917 40.6918 112.223 40.6876 112.463 40.6918C112.79 40.6959 113.057 40.8472 113.388 40.8223C113.445 40.8182 113.482 40.7871 113.484 40.7436C113.499 40.4949 113.501 40.2358 113.242 40.0618Z" fill="#4A1C1C"/>
<path d="M114.947 40.6939C114.952 40.7353 114.991 40.7643 115.047 40.7664C115.379 40.7685 115.637 40.5985 115.963 40.5737C116.202 40.555 116.507 40.5384 116.748 40.5965C116.769 40.611 116.796 40.6172 116.823 40.6192C116.832 40.6213 116.84 40.6234 116.846 40.6255C116.882 40.6379 116.919 40.611 116.911 40.5861C116.915 40.5819 116.921 40.5778 116.926 40.5716C117.211 40.1612 116.298 39.9561 115.942 39.9001C115.685 39.8587 115.354 39.84 115.148 39.9975C114.899 40.1882 114.918 40.4472 114.947 40.6939Z" fill="#4A1C1C"/>
<path d="M114.643 43.6533C114.52 43.5269 114.601 43.2616 114.587 43.1041C114.566 42.8927 114.572 42.6855 114.551 42.4741C114.537 42.3062 114.562 41.9145 114.364 41.7508C114.333 41.5871 114.124 41.6161 114.035 41.7674C113.887 42.0202 113.943 42.3269 113.968 42.5839C113.989 42.8098 114.001 43.0357 114.007 43.2657C114.01 43.417 114.045 43.6429 113.968 43.7839C113.678 43.701 113.326 43.6388 113.576 43.9434C113.701 44.0968 114.11 44.418 114.397 44.3704C114.708 44.3185 115.091 43.9082 115.189 43.7051C115.333 43.3963 114.86 43.531 114.643 43.6533Z" fill="#CB896D"/>
<path d="M112.277 44.3517C112.277 44.3517 114.462 46.2978 116.111 44.0699C116.111 44.0699 115.143 48.3288 112.277 44.3517Z" fill="white"/>
<path d="M125.048 36.8142C124.442 37.0049 124.179 37.8629 124.577 38.3561C124.973 38.8494 125.874 38.7831 126.192 38.2359C126.511 37.6888 126.124 36.8785 125.496 36.7811" fill="#EBEBEB"/>
<path d="M127.866 32.744C127.172 32.9616 126.87 33.946 127.326 34.5118C127.781 35.0775 128.815 35.0009 129.179 34.375C129.546 33.7491 129.1 32.8186 128.381 32.7046" fill="#EBEBEB"/>
<path d="M133.884 14.7946C131.998 14.6371 130.091 15.0557 128.798 16.4277C127.506 17.8017 126.889 19.7768 127.173 21.6378C125.167 22.4668 124.073 25.0014 124.853 27.0179C125.632 29.0344 128.152 30.1887 130.199 29.4675C131.118 31.7866 133.33 33.5502 135.804 33.9419C138.28 34.3336 140.931 33.3388 142.53 31.4197C144.498 31.8612 146.705 31.8322 148.358 30.684C150.011 29.5359 150.759 27.0054 149.498 25.4407C151.764 24.8915 152.916 22.0792 152.243 19.8576C151.572 17.638 149.56 16.0443 147.411 15.1407C145.992 14.5438 144.22 14.233 143.009 15.1801C142.04 13.6962 140.325 12.7242 138.547 12.6475C136.771 12.575 134.978 13.3998 133.884 14.7946Z" fill="#F5F5F5"/>
<path d="M133.884 14.7945C133.884 14.7945 133.921 14.7448 133.998 14.6494C134.073 14.552 134.196 14.4173 134.365 14.2474C134.705 13.9158 135.259 13.4495 136.108 13.0848C136.529 12.9045 137.023 12.749 137.579 12.6703C138.136 12.5957 138.757 12.5915 139.403 12.7262C140.049 12.8526 140.718 13.1117 141.354 13.5117C141.986 13.9158 142.584 14.4629 143.044 15.1613L142.99 15.1531C143.478 14.7759 144.114 14.5603 144.774 14.5438C145.435 14.5189 146.117 14.6432 146.784 14.8629C147.451 15.0847 148.109 15.3872 148.751 15.7603C149.393 16.1333 150.019 16.581 150.577 17.1302C151.14 17.6711 151.63 18.3218 151.986 19.0575C152.157 19.4285 152.299 19.8202 152.389 20.2285C152.464 20.6388 152.507 21.0637 152.472 21.4885C152.418 22.3361 152.155 23.1962 151.657 23.9319C151.405 24.2946 151.111 24.6407 150.742 24.9039C150.377 25.1712 149.96 25.3723 149.512 25.4883L149.541 25.4054C149.812 25.7495 150.004 26.1557 150.102 26.5888C150.2 27.0219 150.204 27.4758 150.135 27.9193C149.994 28.8084 149.548 29.656 148.889 30.3088C148.222 30.9617 147.332 31.3658 146.409 31.5689C145.479 31.772 144.508 31.7741 143.553 31.6518C143.205 31.6103 142.861 31.5419 142.523 31.4694L142.578 31.4508C140.848 33.5149 138.015 34.4413 135.535 33.9398C134.292 33.6911 133.154 33.1087 132.229 32.3274C131.303 31.544 130.586 30.5575 130.157 29.484L130.219 29.513C129.033 29.9192 127.737 29.712 126.72 29.1483C125.692 28.5908 124.923 27.6333 124.673 26.5681C124.419 25.5028 124.625 24.4086 125.096 23.5278C125.569 22.6429 126.315 21.9548 127.162 21.6004L127.139 21.6398C127.012 20.7777 127.08 19.9363 127.268 19.1777C127.466 18.4213 127.781 17.7436 128.166 17.1737C128.356 16.8856 128.573 16.6328 128.79 16.3965C129.015 16.1685 129.244 15.9613 129.488 15.7934C129.967 15.4453 130.467 15.2277 130.926 15.0743C131.851 14.7779 132.612 14.751 133.117 14.7489C133.621 14.7593 133.884 14.7945 133.884 14.7945C133.884 14.7945 133.817 14.7945 133.688 14.7862C133.559 14.7779 133.365 14.7738 133.113 14.7738C132.61 14.7842 131.851 14.8152 130.934 15.1178C130.48 15.2712 129.986 15.4909 129.513 15.837C129.273 16.0028 129.048 16.2121 128.825 16.438C128.612 16.6722 128.398 16.925 128.212 17.211C127.831 17.7768 127.522 18.4482 127.328 19.1985C127.145 19.9487 127.078 20.7797 127.208 21.6315L127.212 21.6605L127.185 21.673C126.357 22.0232 125.626 22.6988 125.163 23.5692C124.702 24.4355 124.502 25.5111 124.752 26.5515C124.998 27.5898 125.751 28.5245 126.759 29.0695C127.758 29.6187 129.025 29.8197 130.18 29.4218L130.226 29.4052L130.242 29.4488C130.665 30.5057 131.374 31.4798 132.287 32.2507C133.2 33.0217 134.324 33.5957 135.545 33.8382C137.986 34.3314 140.781 33.4154 142.484 31.3844L142.505 31.3596L142.538 31.3658C142.873 31.4362 143.213 31.5046 143.559 31.5461C144.506 31.6663 145.464 31.6621 146.379 31.4632C147.286 31.2642 148.161 30.8663 148.808 30.2322C149.45 29.598 149.885 28.7669 150.023 27.9027C150.167 27.0427 149.985 26.1329 149.454 25.4718L149.404 25.4096L149.483 25.3889C149.916 25.2769 150.321 25.0821 150.675 24.8231C151.034 24.5661 151.321 24.2304 151.569 23.876C152.055 23.1589 152.316 22.3154 152.37 21.4823C152.403 21.0657 152.361 20.6492 152.288 20.2471C152.203 19.8471 152.063 19.4617 151.897 19.0969C151.546 18.3716 151.065 17.7291 150.508 17.1944C149.958 16.6514 149.339 16.2079 148.703 15.8349C148.068 15.4639 147.413 15.1613 146.752 14.9396C146.094 14.722 145.421 14.5976 144.772 14.6204C144.124 14.6349 143.505 14.8443 143.03 15.209L142.999 15.2339L142.978 15.2007C142.525 14.5106 141.936 13.9676 141.314 13.5676C140.687 13.1718 140.026 12.9107 139.386 12.7842C138.746 12.6475 138.132 12.6516 137.581 12.72C137.029 12.7946 136.539 12.9459 136.118 13.1221C135.274 13.4785 134.72 13.9365 134.376 14.2619C134.205 14.4277 134.08 14.5603 134.003 14.6557C133.927 14.7489 133.884 14.7945 133.884 14.7945Z" fill="#263238"/>
<path d="M146.773 21.2543C146.773 21.3434 143.078 21.4159 138.519 21.4159C133.959 21.4159 130.263 21.3434 130.263 21.2543C130.263 21.1652 133.959 21.0927 138.519 21.0927C143.076 21.0927 146.773 21.1652 146.773 21.2543Z" fill="#455A64"/>
<path d="M146.773 23.0366C146.773 23.1257 143.078 23.1983 138.519 23.1983C133.959 23.1983 130.263 23.1257 130.263 23.0366C130.263 22.9475 133.959 22.875 138.519 22.875C143.076 22.875 146.773 22.9475 146.773 23.0366Z" fill="#455A64"/>
<path d="M146.773 24.8168C146.773 24.9059 143.078 24.9785 138.519 24.9785C133.959 24.9785 130.263 24.9059 130.263 24.8168C130.263 24.7277 133.959 24.6552 138.519 24.6552C143.076 24.6552 146.773 24.7277 146.773 24.8168Z" fill="#455A64"/>
<path d="M146.773 26.5971C146.773 26.6862 143.078 26.7588 138.519 26.7588C133.959 26.7588 130.263 26.6862 130.263 26.5971C130.263 26.508 133.959 26.4355 138.519 26.4355C143.076 26.4355 146.773 26.508 146.773 26.5971Z" fill="#455A64"/>
<path d="M31.8627 35.5457H11.778V48.6767H31.8627V35.5457Z" fill="#E0E0E0"/>
<path d="M31.154 36.0825H12.4762V48.0881H31.154V36.0825Z" fill="#FAFAFA"/>
<path d="M24.8614 40.4574H18.7689V43.7608H24.8614V40.4574Z" fill="#E0E0E0"/>
</g>
<defs>
<clipPath id="clip0">
<rect width="200" height="72" fill="white"/>
</clipPath>
</defs>
</svg>
