<svg width="200" height="72" viewBox="0 0 200 72" fill="none" xmlns="http://www.w3.org/2000/svg">
<g clip-path="url(#clip0)">
<rect width="200" height="72" fill="#F7F7F7"/>
<g clip-path="url(#clip1)">
<path d="M122.619 11.1458C119.273 11.1458 116.56 8.42958 116.56 5.07948C116.56 1.72938 119.273 -0.986816 122.619 -0.986816C125.966 -0.986816 128.679 1.72938 128.679 5.07948C128.679 8.43135 125.966 11.1458 122.619 11.1458Z" fill="#E0E0E0"/>
<path d="M121.125 3.72845H119.871V7.78506H121.125V3.72845Z" fill="white"/>
<path d="M120.492 3.19726C120.902 3.19726 121.233 2.8626 121.233 2.44827C121.233 2.03571 120.9 1.69928 120.492 1.69928C120.081 1.69928 119.751 2.03393 119.751 2.44827C119.751 2.8626 120.083 3.19726 120.492 3.19726Z" fill="white"/>
<path d="M123.131 5.65495C123.131 5.0848 123.392 4.74483 123.895 4.74483C124.356 4.74483 124.577 5.07063 124.577 5.65495C124.577 6.23927 124.577 7.78329 124.577 7.78329H125.826C125.826 7.78329 125.826 6.30125 125.826 5.21583C125.826 4.12864 125.211 3.60452 124.353 3.60452C123.493 3.60452 123.132 4.27383 123.132 4.27383V3.7267H121.93V7.78329H123.132C123.131 7.78329 123.131 6.28 123.131 5.65495Z" fill="white"/>
<path d="M165.344 34.1485L165.967 35.287L167.104 35.9103L165.967 36.5336L165.344 37.6721L164.722 36.5336L163.584 35.9103L164.722 35.287L165.344 34.1485Z" fill="#E0E0E0"/>
<path d="M167.104 28.5231L167.385 29.0366L167.898 29.3181L167.385 29.5996L167.104 30.1131L166.823 29.5996L166.31 29.3181L166.823 29.0366L167.104 28.5231Z" fill="#D3D3D3"/>
<path d="M110.737 41.3161C111.37 41.0399 111.814 40.3777 111.809 39.6039C111.8 38.5893 111.022 37.773 110.072 37.7819C109.122 37.789 108.36 38.6194 108.369 39.6322C108.376 40.4131 108.841 41.0736 109.487 41.3321C106.844 41.7659 107.002 44.645 107.002 44.645L113.261 44.5936C113.261 44.5936 113.367 41.6791 110.737 41.3161Z" fill="#D3D3D3"/>
<path d="M170.786 60.2941C170.698 59.8426 170.254 59.4903 169.794 59.508C169.34 59.5239 168.926 59.9011 168.864 60.3526C168.798 59.9028 168.381 59.5292 167.926 59.5168C167.468 59.5044 167.026 59.8603 166.941 60.3118C166.879 60.6412 166.993 60.9829 167.177 61.2627C167.362 61.5407 167.613 61.7673 167.865 61.9904C168.215 62.3021 168.538 62.596 168.887 62.9077C169.234 62.5925 169.529 62.2968 169.876 61.9816C170.123 61.7567 170.374 61.5283 170.556 61.2485C170.74 60.967 170.85 60.6235 170.786 60.2941Z" fill="#E0E0E0"/>
<path d="M174.863 22.9703L175.534 22.8375L176.593 20.5037L176.328 19.1634C176.328 19.1634 177.352 18.8942 177.578 20.6737C177.805 22.4532 177.847 21.9805 177.847 21.9805C177.847 21.9805 180.051 21.552 180.272 21.7078C180.433 21.8211 180.926 23.9973 181.185 25.1801C181.314 25.775 181.059 26.4036 180.532 26.655C180.458 26.6904 180.38 26.7188 180.302 26.7347C179.754 26.8445 176.858 26.9543 176.858 26.9543L175.7 27.1845L174.863 22.9703Z" fill="#D3D3D3"/>
<path d="M172.87 22.9845L174.193 27.4961L175.341 27.2677L174.449 22.7667L172.87 22.9845Z" fill="#D3D3D3"/>
<path d="M168.096 21.1996C164.527 22.9367 160.227 21.4493 158.49 17.8761C156.755 14.3029 158.241 9.99841 161.81 8.25961C165.38 6.52259 169.679 8.00995 171.416 11.5832C173.151 15.1564 171.665 19.4626 168.096 21.1996Z" fill="#CA3D3D"/>
<path d="M163.177 16.3392C163.298 16.3321 163.37 16.2471 163.346 16.1214C163.328 16.0346 163.282 15.815 163.262 15.723C163.238 15.5972 163.208 15.5654 163.08 15.5087C162.801 15.3848 162.555 15.1687 162.369 14.7845C161.828 13.669 162.176 12.2649 163.514 11.6133C164.697 11.036 165.7 11.445 166.17 12.4118C166.789 13.6849 166.747 15.0324 165.912 15.4397C165.45 15.6645 164.92 15.4503 164.803 14.9279C164.665 14.3047 164.628 13.5751 164.431 13.1714C164.256 12.8102 163.915 12.6031 163.515 12.7978C163.043 13.028 162.902 13.7009 163.22 14.3542C163.422 14.7703 163.699 14.9846 163.699 14.9846C163.699 14.9846 164.21 17.267 164.301 17.6654C164.479 18.4604 165.047 19.2661 165.102 19.3493C165.135 19.3989 165.208 19.3776 165.219 19.3245C165.234 19.2466 165.459 18.278 165.312 17.4919C165.272 17.2688 165.033 16.1284 165.033 16.1284C165.328 16.3462 165.901 16.3852 166.377 16.1532C167.794 15.4627 168.128 13.7009 167.286 11.9709C166.649 10.6624 164.95 9.98247 163.268 10.8023C161.174 11.8222 160.848 13.8407 161.457 15.0944C161.824 15.8522 162.44 16.387 163.177 16.3392Z" fill="white"/>
<path d="M175.274 41.4932C172.716 40.5158 171.436 37.6473 172.414 35.0869C173.39 32.5265 176.255 31.2446 178.813 32.2238C181.37 33.2012 182.651 36.0696 181.673 38.63C180.696 41.1886 177.831 42.4706 175.274 41.4932Z" fill="#CA3D3D"/>
<path fill-rule="evenodd" clip-rule="evenodd" d="M179.63 37.7004C180.107 36.3476 179.416 34.8514 178.059 34.3326C176.719 33.8191 175.226 34.453 174.663 35.7491C174.649 35.7846 174.633 35.82 174.619 35.8572C174.441 36.3264 174.403 36.8133 174.488 37.2737L173.531 38.4299L175.081 38.5185C175.364 38.8514 175.732 39.1205 176.169 39.2887C177.546 39.8164 179.085 39.1329 179.607 37.7642C179.616 37.7429 179.623 37.7217 179.63 37.7004ZM176.319 38.8921C175.893 38.7292 175.546 38.4512 175.297 38.1059L174.393 38.0546L174.95 37.3817C174.83 36.9426 174.842 36.4627 175.017 36.0077C175.044 35.9404 175.072 35.8731 175.106 35.8093C175.611 34.7948 176.823 34.3114 177.909 34.7275C179.009 35.1489 179.591 36.3423 179.266 37.4472C179.25 37.5021 179.232 37.557 179.211 37.6119C178.772 38.7611 177.476 39.3348 176.319 38.8921Z" fill="white"/>
<path fill-rule="evenodd" clip-rule="evenodd" d="M178.066 37.7482C178.017 37.6951 177.773 37.4313 177.723 37.3906C177.676 37.3481 177.638 37.3233 177.575 37.3675C177.511 37.4118 177.341 37.5039 177.29 37.5304C177.239 37.557 177.202 37.5482 177.152 37.495C177.102 37.4419 176.929 37.302 176.775 37.0063C176.655 36.7779 176.607 36.5318 176.595 36.4574C176.582 36.3831 176.627 36.3618 176.669 36.3441C176.708 36.3264 176.758 36.2963 176.802 36.2733C176.814 36.2662 176.825 36.2591 176.835 36.252C176.858 36.2343 176.876 36.2184 176.901 36.1936C176.938 36.16 176.94 36.121 176.936 36.0856C176.933 36.0502 176.924 35.7031 176.919 35.5615C176.915 35.4216 176.855 35.4216 176.819 35.4074C176.784 35.3933 176.745 35.372 176.705 35.3561C176.664 35.3401 176.591 35.3295 176.512 35.3702C176.432 35.4092 176.218 35.496 176.105 35.7952C176.078 35.866 176.064 35.9404 176.057 36.0148C176.038 36.252 176.103 36.4804 176.116 36.5194C176.131 36.5707 176.282 37.3534 176.809 37.8368C177.339 38.3166 177.37 38.2352 177.486 38.2688C177.601 38.3025 177.904 38.2617 178.008 38.1378C178.114 38.0156 178.16 37.8952 178.155 37.8633C178.15 37.8315 178.116 37.8014 178.066 37.7482Z" fill="white"/>
<path d="M110.826 18.5596C108.739 18.5596 107.046 16.865 107.046 14.7756C107.046 12.6863 108.739 10.9917 110.826 10.9917C112.913 10.9917 114.605 12.6863 114.605 14.7756C114.605 16.8668 112.913 18.5596 110.826 18.5596Z" fill="#CA3D3D"/>
<path d="M108.813 16.0435C109.179 16.279 109.612 16.4153 110.079 16.4153C111.613 16.4153 112.479 15.1174 112.428 13.9541C112.589 13.8372 112.729 13.692 112.84 13.5256C112.692 13.5911 112.533 13.6353 112.366 13.6566C112.536 13.5539 112.667 13.3928 112.729 13.1998C112.57 13.2954 112.393 13.3627 112.204 13.3998C112.053 13.2387 111.837 13.1396 111.6 13.1396C111.068 13.1396 110.675 13.6371 110.796 14.1559C110.109 14.1223 109.499 13.7929 109.092 13.2918C108.877 13.6637 108.981 14.1506 109.349 14.3967C109.213 14.3932 109.085 14.3542 108.974 14.294C108.965 14.6765 109.239 15.0359 109.637 15.1156C109.52 15.1475 109.393 15.1546 109.264 15.1298C109.368 15.4591 109.674 15.6982 110.035 15.7035C109.688 15.9726 109.25 16.0948 108.813 16.0435Z" fill="white"/>
<path d="M117.617 60.9457C114.121 61.7797 110.61 59.6177 109.777 56.1171C108.944 52.6165 111.103 49.1018 114.6 48.2678C118.097 47.4338 121.608 49.5958 122.441 53.0964C123.274 56.597 121.114 60.1118 117.617 60.9457Z" fill="#455A64"/>
<path d="M115.431 51.756C116.358 51.5347 116.47 51.5116 116.839 51.4426C117.181 51.3771 117.379 51.3895 117.513 51.4089C117.69 51.4337 117.824 51.4815 117.975 51.5736C118.125 51.6657 118.228 51.7648 118.33 51.9118C118.406 52.0234 118.507 52.1933 118.603 52.528C118.707 52.891 118.737 52.999 118.956 53.9268C119.177 54.8546 119.2 54.9662 119.271 55.3363C119.337 55.678 119.324 55.8763 119.305 56.0109C119.28 56.188 119.232 56.3225 119.14 56.473C119.048 56.6235 118.949 56.7262 118.803 56.8289C118.691 56.9051 118.521 57.006 118.187 57.1016C117.824 57.2061 117.717 57.2344 116.79 57.4558C115.863 57.6771 115.752 57.7001 115.382 57.7709C115.04 57.8364 114.842 57.8241 114.708 57.8046C114.531 57.7798 114.397 57.732 114.246 57.6399C114.096 57.5478 113.993 57.4487 113.891 57.3017C113.815 57.1902 113.714 57.0202 113.618 56.6855C113.514 56.3225 113.484 56.2145 113.265 55.2867C113.044 54.3589 113.021 54.2473 112.95 53.8772C112.884 53.5337 112.897 53.3372 112.916 53.2026C112.941 53.0256 112.989 52.891 113.081 52.7405C113.173 52.59 113.272 52.4873 113.419 52.3846C113.53 52.3084 113.7 52.2075 114.034 52.1119C114.395 52.0074 114.505 51.9773 115.431 51.756ZM115.283 51.1309C114.34 51.3558 114.223 51.3877 113.855 51.4939C113.489 51.5984 113.252 51.7188 113.051 51.8569C112.844 52.0003 112.678 52.165 112.531 52.404C112.384 52.6431 112.311 52.8662 112.276 53.1159C112.242 53.3567 112.244 53.624 112.315 53.9976C112.386 54.373 112.41 54.4917 112.635 55.4354C112.86 56.3792 112.892 56.4961 112.998 56.8644C113.102 57.2309 113.221 57.4682 113.36 57.67C113.503 57.8772 113.668 58.0436 113.907 58.1906C114.146 58.3376 114.368 58.4101 114.618 58.4456C114.858 58.4792 115.125 58.4774 115.499 58.4066C115.874 58.3358 115.992 58.311 116.935 58.0861C117.877 57.8612 117.994 57.8294 118.362 57.7231C118.728 57.6187 118.965 57.4983 119.167 57.3601C119.374 57.2167 119.54 57.052 119.687 56.813C119.834 56.574 119.906 56.3509 119.942 56.1012C119.975 55.8604 119.973 55.593 119.903 55.2194C119.832 54.844 119.807 54.7254 119.583 53.7816C119.358 52.8379 119.326 52.721 119.22 52.3527C119.116 51.9862 118.995 51.7489 118.857 51.547C118.714 51.3399 118.55 51.1734 118.311 51.0265C118.072 50.8795 117.849 50.8069 117.6 50.7715C117.359 50.7379 117.092 50.7396 116.719 50.8104C116.344 50.8813 116.226 50.9061 115.283 51.1309Z" fill="white"/>
<path d="M115.684 52.8219C114.699 53.0574 114.091 54.0454 114.326 55.0317C114.561 56.018 115.55 56.6253 116.533 56.3916C117.518 56.1561 118.127 55.168 117.892 54.1818C117.658 53.1955 116.669 52.5864 115.684 52.8219ZM116.385 55.7648C115.746 55.917 115.104 55.5222 114.952 54.883C114.8 54.2438 115.194 53.601 115.833 53.4487C116.471 53.2965 117.113 53.6913 117.266 54.3305C117.419 54.9697 117.025 55.6125 116.385 55.7648Z" fill="white"/>
<path d="M117.938 52.2093C117.992 52.4395 117.851 52.6714 117.621 52.7263C117.391 52.7812 117.159 52.6396 117.105 52.4094C117.05 52.1792 117.191 51.9472 117.421 51.8923C117.651 51.8374 117.883 51.9791 117.938 52.2093Z" fill="white"/>
<path d="M166.925 55.2106C165.249 55.2106 163.89 53.8507 163.89 52.1721C163.89 50.4935 165.249 49.1336 166.925 49.1336C168.602 49.1336 169.96 50.4935 169.96 52.1721C169.96 53.8489 168.602 55.2106 166.925 55.2106Z" fill="#455A64"/>
<path d="M166.462 54.0083H167.201V52.1562H167.716L167.771 51.5364H167.2C167.2 51.5364 167.2 51.3045 167.2 51.1823C167.2 51.0353 167.23 50.9787 167.369 50.9787C167.482 50.9787 167.769 50.9787 167.769 50.9787V50.3341C167.769 50.3341 167.348 50.3341 167.258 50.3341C166.708 50.3341 166.46 50.5767 166.46 51.0406C166.46 51.4443 166.46 51.5346 166.46 51.5346H166.076V52.1632H166.46V54.0083H166.462Z" fill="white"/>
<path d="M156.571 72L132.183 71.9858C129.25 71.9841 126.873 69.6025 126.873 66.6668L126.886 5.45664C126.886 2.5191 129.266 0.137558 132.2 0.139329L156.589 0.153495C159.522 0.155265 161.899 2.53681 161.899 5.47257L161.886 66.6827C161.886 69.6202 159.506 72.0018 156.571 72Z" fill="#263238"/>
<path d="M156.564 2.31902L151.837 2.31548C151.203 2.31548 150.689 2.85376 150.689 3.51599V4.37476C150.689 5.03876 150.174 5.57528 149.541 5.57528L140.322 5.57173C139.689 5.57173 139.174 5.03345 139.174 4.36945V3.51068C139.174 2.84668 138.66 2.3084 138.027 2.3084L136.364 2.30663L132.225 2.30486C130.17 2.30309 128.502 3.97105 128.502 6.02857L128.49 65.7726C128.49 67.8301 130.154 69.4963 132.208 69.4981L156.547 69.5122C158.602 69.514 160.268 67.846 160.27 65.7885L160.282 6.04273C160.282 3.98699 158.618 2.32079 156.564 2.31902Z" fill="white"/>
<path d="M156.92 7.1724C156.92 7.18834 156.304 7.20604 155.547 7.21312C154.789 7.22021 154.173 7.21135 154.173 7.19542C154.173 7.17948 154.789 7.16178 155.546 7.1547C156.304 7.14939 156.92 7.15647 156.92 7.1724Z" fill="#263238"/>
<path d="M156.925 7.87535C156.925 7.89128 156.31 7.90899 155.553 7.91608C154.794 7.92316 154.178 7.9143 154.178 7.89837C154.178 7.88243 154.792 7.86472 155.551 7.85764C156.31 7.85233 156.925 7.85941 156.925 7.87535Z" fill="#263238"/>
<path d="M156.932 8.58008C156.932 8.59602 156.317 8.61373 155.56 8.62081C154.801 8.62789 154.185 8.61904 154.185 8.6031C154.185 8.58717 154.801 8.56946 155.558 8.56237C156.317 8.55529 156.932 8.56414 156.932 8.58008Z" fill="#263238"/>
<path d="M131.058 9.26535C131.06 9.26358 131.084 9.26181 131.13 9.26004C131.187 9.25827 131.252 9.2565 131.33 9.25295C131.52 9.24764 131.765 9.24233 132.07 9.23525L132.048 9.25649C132.047 9.09182 132.043 8.91299 132.04 8.71998C132.041 8.62082 132.031 8.52698 132.041 8.41189C132.061 8.29679 132.163 8.19586 132.289 8.18347C132.407 8.1817 132.514 8.17639 132.643 8.1817C132.775 8.19763 132.888 8.32689 132.885 8.46678C132.888 8.71644 132.89 8.9785 132.894 9.24941L132.86 9.21577C133.159 9.21223 133.472 9.20869 133.792 9.20692L133.757 9.24233C133.753 8.86695 133.75 8.4774 133.746 8.079C133.746 7.97984 133.745 7.88068 133.745 7.7833C133.745 7.69122 133.688 7.63102 133.614 7.56196C133.476 7.42562 133.34 7.29105 133.205 7.16002C133.072 7.02899 132.94 6.89796 132.812 6.77225C132.749 6.7085 132.685 6.64653 132.621 6.58455C132.556 6.52081 132.505 6.4553 132.429 6.44113C132.354 6.42165 132.275 6.43759 132.215 6.48186C132.158 6.52966 132.098 6.59695 132.041 6.65184C131.926 6.76693 131.815 6.88026 131.707 6.99004C131.497 7.2096 131.277 7.40969 131.118 7.59738C131.051 7.70185 131.076 7.82934 131.07 7.9462C131.07 8.06129 131.07 8.17107 131.07 8.27554C131.069 8.4774 131.069 8.65447 131.067 8.80498C131.065 8.93955 131.063 9.05287 131.063 9.14317C131.061 9.22285 131.06 9.26358 131.058 9.26535C131.056 9.26712 131.054 9.22817 131.051 9.1538C131.049 9.06349 131.046 8.95371 131.042 8.82091C131.038 8.66863 131.035 8.4898 131.03 8.28617C131.028 8.17993 131.026 8.06838 131.023 7.95151C131.021 7.89131 131.021 7.83111 131.019 7.76736C131.019 7.70185 131.035 7.63279 131.07 7.57259C131.244 7.36188 131.449 7.17419 131.661 6.94754C131.769 6.83776 131.879 6.72444 131.994 6.60757C132.054 6.54914 132.103 6.49071 132.174 6.42874C132.248 6.37207 132.351 6.35083 132.445 6.37562C132.544 6.39686 132.609 6.47831 132.669 6.53675C132.733 6.59872 132.797 6.66069 132.86 6.72444C132.989 6.85016 133.12 6.97941 133.255 7.11221C133.389 7.24324 133.525 7.37782 133.663 7.51416C133.697 7.54957 133.736 7.5779 133.768 7.62748C133.798 7.67352 133.815 7.72841 133.817 7.78507C133.819 7.88423 133.819 7.98338 133.821 8.08254C133.824 8.48094 133.826 8.87049 133.829 9.24587V9.28128H133.794C133.472 9.28305 133.161 9.28483 132.862 9.2866H132.828V9.25295C132.827 8.98204 132.825 8.71998 132.825 8.47032C132.828 8.357 132.742 8.25784 132.636 8.24367C132.528 8.23836 132.402 8.2419 132.298 8.2419C132.197 8.25076 132.114 8.33043 132.096 8.42251C132.087 8.51636 132.094 8.62614 132.093 8.71998C132.093 8.91299 132.093 9.09182 132.093 9.25649V9.27774H132.071C131.764 9.27597 131.512 9.2742 131.32 9.27243C131.244 9.27066 131.18 9.27066 131.123 9.26889C131.079 9.26889 131.056 9.26712 131.058 9.26535Z" fill="#263238"/>
<path d="M147.146 55.9507C147.146 55.9578 147.056 55.9631 146.892 55.9684C146.71 55.9719 146.476 55.9773 146.195 55.9826C145.606 55.9914 144.794 55.9967 143.896 55.9967C142.997 55.9967 142.185 55.9914 141.596 55.9826C141.315 55.9773 141.082 55.9719 140.899 55.9684C140.735 55.9631 140.645 55.956 140.645 55.9507C140.645 55.9436 140.735 55.9383 140.899 55.933C141.082 55.9295 141.315 55.9241 141.596 55.9188C142.185 55.91 142.997 55.9047 143.896 55.9047C144.794 55.9047 145.606 55.91 146.195 55.9188C146.476 55.9241 146.71 55.9295 146.892 55.933C147.054 55.9383 147.146 55.9436 147.146 55.9507Z" fill="#455A64"/>
<path d="M157.367 57.5531C157.367 57.5779 153.623 57.5992 149.005 57.5992C144.385 57.5992 140.642 57.5779 140.642 57.5531C140.642 57.5284 144.387 57.5071 149.005 57.5071C153.623 57.5071 157.367 57.5266 157.367 57.5531Z" fill="#455A64"/>
<path d="M152.141 59.06C152.141 59.0848 149.567 59.106 146.393 59.106C143.216 59.106 140.642 59.0848 140.642 59.06C140.642 59.0352 143.216 59.0139 146.393 59.0139C149.567 59.0139 152.141 59.0334 152.141 59.06Z" fill="#455A64"/>
<path d="M157.698 61.9922L157.178 61.4699L156.683 61.9639L156.685 60.4712L157.698 60.473V61.9922ZM157.178 61.4061L157.194 61.4221L157.652 61.8824L157.654 60.519L156.731 60.5172L156.729 61.8541L157.178 61.4061Z" fill="#263238"/>
<path d="M143.862 61.7974L143.678 61.716C143.589 61.7638 143.511 61.7886 143.441 61.7886C143.159 61.7903 142.929 61.5637 142.928 61.2822C142.926 61.0006 143.152 60.7705 143.433 60.7687C143.715 60.7669 143.945 60.9936 143.946 61.2751C143.948 61.4008 143.902 61.5212 143.819 61.6151L143.862 61.7974ZM143.432 60.8041C143.17 60.8059 142.959 61.0201 142.961 61.2822C142.963 61.5442 143.177 61.7549 143.439 61.7532C143.506 61.7532 143.58 61.7284 143.667 61.6806L143.674 61.677L143.808 61.7372L143.778 61.6044L143.784 61.5973C143.865 61.5088 143.909 61.3937 143.907 61.2751C143.909 61.013 143.693 60.8023 143.432 60.8041Z" fill="#263238"/>
<path d="M145.039 61.7196L144.829 61.2061L144.435 60.8466L145.39 60.8395L145.039 61.7196ZM144.525 60.8803L144.861 61.1884L145.039 61.6257L145.34 60.8732L144.525 60.8803Z" fill="#263238"/>
<path d="M145.374 60.8425L144.852 61.1824L144.871 61.2121L145.393 60.8722L145.374 60.8425Z" fill="#263238"/>
<path d="M142.356 60.9529C142.33 60.8165 142.194 60.7103 142.054 60.7156C141.916 60.7209 141.79 60.836 141.773 60.9723C141.751 60.836 141.626 60.7227 141.488 60.7191C141.348 60.7156 141.216 60.8254 141.191 60.9617C141.173 61.0609 141.207 61.1653 141.263 61.2503C141.32 61.3353 141.396 61.4026 141.472 61.4699C141.578 61.5637 141.677 61.6523 141.783 61.7461C141.888 61.6505 141.978 61.5602 142.082 61.4646C142.156 61.3955 142.233 61.3265 142.287 61.2415C142.344 61.1565 142.378 61.0538 142.356 60.9529Z" fill="#CA3D3D"/>
<path d="M158.763 63.3131C158.763 63.3131 158.761 63.2565 158.759 63.1467C158.759 63.0351 158.758 62.874 158.756 62.6615C158.754 62.2348 158.752 61.6062 158.749 60.7917C158.745 59.1645 158.74 56.7971 158.733 53.8277L158.763 53.8578C151.957 53.8613 141.799 53.8666 130.478 53.8737H130.476L130.522 53.8277C130.522 57.1247 130.52 60.3225 130.52 63.3131L130.476 63.2689C138.619 63.2777 145.683 63.2848 150.715 63.2901C153.234 63.2954 155.241 63.299 156.624 63.3025C157.314 63.3043 157.847 63.3078 158.209 63.3078C158.39 63.3096 158.526 63.3096 158.62 63.3114C158.715 63.3114 158.763 63.3131 158.763 63.3131C158.763 63.3131 158.719 63.3149 158.627 63.3167C158.533 63.3167 158.398 63.3184 158.222 63.3202C157.861 63.322 157.332 63.3238 156.646 63.3255C155.266 63.3291 153.26 63.3326 150.747 63.3379C145.708 63.3432 138.631 63.3503 130.476 63.3592H130.432V63.3149C130.432 60.3243 130.43 57.1264 130.43 53.8295V53.7834H130.476H130.478C141.799 53.7905 151.957 53.7958 158.763 53.7994H158.793V53.8295C158.786 56.8077 158.781 59.1804 158.777 60.813C158.773 61.6239 158.772 62.2507 158.77 62.6757C158.768 62.8846 158.768 63.0458 158.766 63.1555C158.765 63.26 158.763 63.3131 158.763 63.3131Z" fill="#263238"/>
<path d="M131.655 55.4112L131.619 61.6829L139.454 61.7275L139.49 55.4558L131.655 55.4112Z" fill="#E0E0E0"/>
<path d="M139.488 55.4567C139.488 55.4567 139.473 55.4585 139.449 55.4585C139.42 55.4585 139.383 55.4602 139.337 55.4602C139.235 55.4602 139.093 55.462 138.909 55.462C138.532 55.462 137.989 55.4638 137.303 55.4638C135.925 55.4602 133.973 55.4567 131.652 55.4532L131.693 55.4124C131.684 57.2787 131.673 59.4195 131.663 61.6824C131.672 61.693 131.576 61.5956 131.619 61.6363H131.62H131.624H131.633H131.65H131.684H131.751H131.887L132.158 61.6381C132.338 61.6399 132.517 61.6399 132.694 61.6416C133.049 61.6434 133.401 61.6452 133.75 61.6487C134.445 61.654 135.124 61.6576 135.782 61.6611C137.098 61.67 138.333 61.6788 139.452 61.6877L139.413 61.7266C139.433 59.8444 139.449 58.2809 139.459 57.1849C139.466 56.6395 139.472 56.2092 139.477 55.9118C139.48 55.7683 139.482 55.655 139.484 55.5753C139.486 55.4992 139.488 55.4567 139.488 55.4567C139.488 55.4567 139.489 55.4921 139.491 55.5665C139.491 55.6462 139.493 55.7559 139.493 55.8958C139.493 56.1915 139.495 56.6183 139.496 57.1601C139.495 58.2632 139.493 59.8338 139.491 61.7266V61.7656H139.452C138.333 61.7603 137.098 61.7567 135.782 61.7496C135.124 61.7461 134.445 61.7426 133.75 61.739C133.401 61.7372 133.049 61.7355 132.694 61.7337C132.515 61.7319 132.337 61.7319 132.158 61.7302L131.887 61.7284H131.751H131.684H131.65H131.633H131.624H131.62H131.619C131.659 61.7691 131.56 61.6717 131.571 61.6806C131.585 59.4159 131.599 57.2769 131.611 55.4107V55.3699H131.652C133.983 55.3912 135.945 55.4107 137.33 55.4231C138.012 55.4319 138.552 55.439 138.927 55.4425C139.107 55.4461 139.247 55.4478 139.346 55.4496C139.39 55.4514 139.426 55.4514 139.452 55.4532C139.477 55.4567 139.489 55.4567 139.488 55.4567Z" fill="#263238"/>
<path d="M131.922 55.8078L131.89 61.2897L139.176 61.3312L139.207 55.8492L131.922 55.8078Z" fill="#D3D3D3"/>
<path d="M131.889 61.291L134.454 57.8984L136.017 60.0392L137.093 58.9059L139.174 61.3318L131.889 61.291Z" fill="white"/>
<path d="M136.702 57.4929C136.7 57.8099 136.442 58.0649 136.125 58.0631C135.809 58.0613 135.554 57.8028 135.556 57.4859C135.557 57.1689 135.816 56.9139 136.132 56.9157C136.447 56.9175 136.704 57.176 136.702 57.4929Z" fill="white"/>
<path d="M144.866 14.7774C144.866 14.781 144.838 14.7845 144.783 14.7863C144.718 14.788 144.638 14.7916 144.542 14.7951C144.32 14.7987 144.021 14.804 143.66 14.8093C142.915 14.8182 141.886 14.8235 140.749 14.8235C139.611 14.8235 138.582 14.8182 137.837 14.8093C137.477 14.804 137.178 14.7987 136.955 14.7951C136.859 14.7916 136.78 14.788 136.714 14.7863C136.659 14.7827 136.631 14.781 136.631 14.7774C136.631 14.7739 136.659 14.7703 136.714 14.7686C136.78 14.7668 136.859 14.7633 136.955 14.7597C137.178 14.7562 137.477 14.7509 137.837 14.7455C138.582 14.7367 139.611 14.7314 140.749 14.7314C141.886 14.7314 142.915 14.7367 143.66 14.7455C144.021 14.7509 144.32 14.7562 144.542 14.7597C144.638 14.7633 144.718 14.7668 144.783 14.7686C144.836 14.7703 144.866 14.7739 144.866 14.7774Z" fill="#263238"/>
<path d="M156.441 49.4435L155.668 48.668L154.932 49.4028L154.935 47.1824L156.442 47.1841L156.441 49.4435ZM155.669 48.5706L155.694 48.5954L156.373 49.2788L156.377 47.2532L155.006 47.2514L155.003 49.2381L155.669 48.5706Z" fill="#263238"/>
<path d="M136.833 49.2098L136.472 49.0487C136.297 49.1425 136.145 49.1903 136.005 49.1903C135.451 49.1938 134.999 48.7476 134.995 48.1952C134.99 47.641 135.437 47.1877 135.989 47.1841C136.541 47.1788 136.995 47.6268 136.999 48.1792C137.001 48.4254 136.912 48.6626 136.75 48.8486L136.833 49.2098ZM135.989 47.2514C135.474 47.255 135.059 47.6781 135.062 48.1934C135.066 48.7087 135.488 49.1248 136.003 49.1213C136.136 49.1195 136.283 49.0734 136.452 48.9796L136.467 48.9707L136.732 49.0894L136.672 48.8273L136.684 48.8149C136.843 48.6396 136.93 48.4147 136.928 48.1792C136.926 47.664 136.504 47.2479 135.989 47.2514Z" fill="#263238"/>
<path d="M139.153 49.054L138.739 48.0429L137.963 47.3346L139.845 47.3187L139.153 49.054ZM138.14 47.4037L138.801 48.011L139.153 48.8716L139.744 47.3913L138.14 47.4037Z" fill="#263238"/>
<path d="M139.806 47.3218L138.78 47.9899L138.818 48.0478L139.844 47.3796L139.806 47.3218Z" fill="#263238"/>
<path d="M133.872 47.5471C133.819 47.278 133.552 47.069 133.278 47.0797C133.007 47.0903 132.759 47.3169 132.724 47.5861C132.683 47.3169 132.434 47.0956 132.162 47.0885C131.887 47.0814 131.626 47.2957 131.574 47.5666C131.539 47.7631 131.606 47.9668 131.718 48.1332C131.829 48.2997 131.979 48.4342 132.13 48.5653C132.34 48.7512 132.533 48.9247 132.743 49.1106C132.95 48.9212 133.126 48.7441 133.332 48.5564C133.479 48.4218 133.63 48.2855 133.737 48.1173C133.847 47.9491 133.911 47.7437 133.872 47.5471Z" fill="#CA3D3D"/>
<path d="M133.7 16.0558C134.406 16.0558 134.977 15.4835 134.977 14.7774C134.977 14.0714 134.406 13.499 133.7 13.499C132.995 13.499 132.423 14.0714 132.423 14.7774C132.423 15.4835 132.995 16.0558 133.7 16.0558Z" fill="#E0E0E0"/>
<path d="M155.959 42.1129C155.959 42.1377 150.607 42.159 144.007 42.159C137.404 42.159 132.052 42.1377 132.052 42.1129C132.052 42.0881 137.402 42.0669 144.007 42.0669C150.607 42.0669 155.959 42.0864 155.959 42.1129Z" fill="#455A64"/>
<path d="M155.959 40.1192C155.959 40.1439 150.607 40.1652 144.007 40.1652C137.404 40.1652 132.052 40.1439 132.052 40.1192C132.052 40.0944 137.402 40.0731 144.007 40.0731C150.607 40.0731 155.959 40.0944 155.959 40.1192Z" fill="#455A64"/>
<path d="M145.064 44.1315C145.064 44.1563 142.151 44.1775 138.559 44.1775C134.965 44.1775 132.052 44.1563 132.052 44.1315C132.052 44.1067 134.965 44.0854 138.559 44.0854C142.151 44.0854 145.064 44.1067 145.064 44.1315Z" fill="#455A64"/>
<path d="M143.46 65.8452C143.458 66.1302 143.23 66.3604 142.951 66.3587C142.669 66.3569 142.443 66.1249 142.445 65.8399C142.447 65.5548 142.675 65.3246 142.954 65.3264C143.234 65.3281 143.46 65.5601 143.46 65.8452Z" fill="#263238"/>
<path d="M145.032 65.8523C145.031 66.1374 144.802 66.3676 144.523 66.3658C144.242 66.364 144.015 66.1321 144.017 65.847C144.019 65.5619 144.247 65.3317 144.527 65.3335C144.808 65.3352 145.034 65.5672 145.032 65.8523Z" fill="#263238"/>
<path d="M146.607 65.8611C146.605 66.1462 146.377 66.3764 146.097 66.3746C145.816 66.3729 145.59 66.1409 145.591 65.8558C145.593 65.5707 145.821 65.3406 146.101 65.3423C146.382 65.3441 146.608 65.5761 146.607 65.8611Z" fill="#263238"/>
<path d="M158.933 17.3059H130.646V34.6231H158.933V17.3059Z" fill="#D3D3D3"/>
<path d="M133.258 34.6266L141.362 23.7653L146.389 30.5576L149.794 26.9242L156.474 34.6195L133.258 34.6266Z" fill="white"/>
<path d="M148.518 22.4338C148.518 23.4448 147.701 24.2646 146.691 24.2646C145.681 24.2646 144.863 23.4466 144.863 22.4355C144.863 21.4245 145.68 20.6047 146.69 20.6047C147.7 20.6029 148.518 21.4227 148.518 22.4338Z" fill="white"/>
<path d="M158.857 50.7184C158.857 50.3483 158.839 34.7027 158.814 11.5442L158.857 11.5867C150.326 11.5884 140.711 11.5902 130.573 11.5902H130.57L130.616 11.5442C130.612 26.1947 130.609 39.7526 130.607 50.7184L130.57 50.6812C147.724 50.7024 158.547 50.7166 158.857 50.7184C158.549 50.7184 147.724 50.7325 130.57 50.7556H130.533V50.7184C130.531 39.7526 130.527 26.1947 130.524 11.5442V11.4981H130.57H130.573C140.711 11.4999 150.326 11.5017 158.857 11.5017H158.899V11.5442C158.89 23.135 158.883 32.9338 158.878 39.8341C158.872 43.2798 158.869 46.0031 158.867 47.8641C158.865 48.7919 158.864 49.5072 158.862 49.9889C158.86 50.2279 158.86 50.4103 158.86 50.5342C158.858 50.6564 158.857 50.7184 158.857 50.7184Z" fill="#263238"/>
<path d="M145.565 55.5771L146.191 53.4718C146.301 53.0149 146.446 52.4767 146.64 51.8622C146.815 51.3098 147.266 50.729 147.677 50.3111C148.315 49.6613 148.619 49.656 149.049 49.3107C149.088 49.2859 149.132 49.2505 149.169 49.2293C149.258 49.1815 149.323 49.1177 149.378 49.0487C149.748 48.6485 149.392 48.0287 148.641 48.0872C148.075 48.1314 147.153 48.2943 145.651 49.8437C145.632 49.8667 145.613 49.8862 145.595 49.911C144.808 50.9362 144.068 48.011 143.934 46.9221C143.847 46.2156 143.085 45.7818 142.393 46.0368L138.739 47.7472C138.437 47.641 138.08 47.6587 137.673 47.7826C137.135 47.9809 136.836 48.5352 136.976 49.0734L138.458 54.9963L134.105 69.4963H143.488L145.565 55.5771Z" fill="#E8B299"/>
<path d="M152.774 42.2599L149.873 47.9491L148.423 47.5453L141.132 53.4824C140.512 53.987 139.602 53.9074 139.081 53.3L136.306 50.0721C136.306 50.0721 141.902 47.6587 142.936 45.6614C143.971 43.664 142.776 43.2108 142.776 43.2108L145.409 40.2148L152.774 42.2599Z" fill="#CA3D3D"/>
<path d="M149.012 30.6373C149.012 30.6373 144.767 29.697 138.792 23.9459C132.818 18.1948 130.011 10.5561 129.28 10.5933C128.55 10.6305 125.356 9.1467 119.284 22.3718C113.21 35.5969 115.603 38.669 116.811 38.6442C118.019 38.6194 126.226 36.3299 131.35 36.9125C136.475 37.495 143.064 40.1705 143.064 40.1705L149.012 30.6373Z" fill="#CA3D3D"/>
<path d="M158.031 37.8456L156.582 40.6026L155.933 41.8367C155.043 43.5312 152.984 44.2306 151.248 43.4303L142.148 40.2555L147.447 28.1442L156.538 32.994C158.285 33.9254 158.95 36.0927 158.031 37.8456Z" fill="#CA3D3D"/>
<g opacity="0.4">
<path opacity="0.4" d="M158.031 37.8456L156.582 40.6026L155.933 41.8367C155.043 43.5312 152.984 44.2306 151.248 43.4303L142.148 40.2555L147.447 28.1442L156.538 32.994C158.285 33.9254 158.95 36.0927 158.031 37.8456Z" fill="#263238"/>
</g>
<path d="M119.772 22.6126C116.54 29.7767 115.194 36.1617 116.767 36.8718C118.339 37.5836 122.234 32.3513 125.465 25.1872C128.697 18.023 130.043 11.6398 128.47 10.928C126.898 10.2162 123.003 15.4485 119.772 22.6126Z" fill="#CA3D3D"/>
<g opacity="0.5">
<path opacity="0.5" d="M119.772 22.6126C116.54 29.7767 115.194 36.1617 116.767 36.8718C118.339 37.5836 122.234 32.3513 125.465 25.1872C128.697 18.023 130.043 11.6398 128.47 10.928C126.898 10.2162 123.003 15.4485 119.772 22.6126Z" fill="#263238"/>
</g>
<path d="M158.812 41.8296L156.345 41.0541L157.871 38.1484L159.721 39.2993L158.812 41.8296Z" fill="#CA3D3D"/>
<g opacity="0.6">
<path opacity="0.6" d="M157.871 38.1484L156.345 41.0541L156.853 41.2135L158.092 38.2865L157.871 38.1484Z" fill="#263238"/>
</g>
<path d="M156.172 38.8177C156.136 38.8974 154.905 38.4193 153.423 37.7482C151.939 37.0772 150.768 36.4698 150.804 36.3884C150.839 36.3087 152.07 36.7868 153.552 37.4579C155.036 38.1307 156.207 38.7381 156.172 38.8177Z" fill="#CA3D3D"/>
<path d="M156.93 37.0878C156.892 37.1675 155.777 36.6965 154.442 36.0378C153.107 35.3791 152.054 34.7824 152.093 34.7027C152.132 34.6248 153.244 35.094 154.582 35.7527C155.917 36.4132 156.969 37.0099 156.93 37.0878Z" fill="#CA3D3D"/>
<path d="M155.215 40.6327C155.202 40.6752 154.909 40.6079 154.442 40.4627C154.208 40.3901 153.932 40.2998 153.625 40.1935C153.321 40.0838 153.006 39.9226 152.666 39.7703C151.317 39.1435 150.287 38.5291 150.321 38.4565C150.361 38.3698 151.462 38.862 152.799 39.4817C153.135 39.634 153.444 39.8022 153.738 39.9244C154.032 40.043 154.297 40.1546 154.516 40.252C154.958 40.4485 155.227 40.5919 155.215 40.6327Z" fill="#CA3D3D"/>
<path d="M126.36 21.019C126.36 21.019 122.671 18.7278 120.651 23.7193C118.633 28.7108 122.515 29.5306 122.515 29.5306C124.105 27.0641 125.395 24.2381 126.36 21.019Z" fill="#CA3D3D"/>
<g opacity="0.5">
<path opacity="0.5" d="M130.285 15.0713C130.306 15.0749 130.255 15.4131 130.14 16.024C130.023 16.6331 129.859 17.5184 129.622 18.6056C129.466 19.1403 129.294 19.7247 129.112 20.3515C129.02 20.6649 128.925 20.9907 128.826 21.3236C128.776 21.49 128.727 21.66 128.675 21.8317C128.621 22.0017 128.548 22.1699 128.484 22.3417C128.219 23.0287 127.94 23.7494 127.651 24.4948C127.579 24.6807 127.506 24.8702 127.432 25.0597C127.36 25.2509 127.259 25.4297 127.172 25.6174C126.992 25.9893 126.809 26.3682 126.624 26.7489C126.438 27.1313 126.254 27.5085 126.074 27.8803C125.98 28.0645 125.9 28.2557 125.796 28.4292C125.692 28.6045 125.591 28.7781 125.488 28.9516C125.081 29.6404 124.687 30.3061 124.312 30.94C124.217 31.0976 124.13 31.257 124.029 31.4057C123.925 31.5527 123.824 31.6979 123.723 31.8395C123.521 32.1246 123.325 32.4008 123.136 32.6682C122.756 33.1994 122.402 33.697 122.078 34.1503C121.372 35.0055 120.782 35.6819 120.375 36.1493C119.966 36.6168 119.731 36.8665 119.715 36.8541C119.698 36.8399 119.901 36.5619 120.279 36.0714C120.674 35.5721 121.226 34.8691 121.905 34.0086C122.216 33.55 122.558 33.0507 122.924 32.5142C123.108 32.2468 123.297 31.9688 123.493 31.6837C123.59 31.5421 123.691 31.3969 123.792 31.2499C123.889 31.1012 123.974 30.94 124.066 30.7842C124.434 30.1521 124.82 29.4881 125.218 28.8011C125.318 28.6293 125.419 28.4558 125.52 28.2805C125.624 28.107 125.7 27.9175 125.794 27.7334C125.973 27.3633 126.155 26.9879 126.339 26.609C126.523 26.2301 126.705 25.8547 126.886 25.4864C126.972 25.3005 127.073 25.1216 127.146 24.9339C127.22 24.7463 127.292 24.5586 127.367 24.3744C127.66 23.6361 127.941 22.9225 128.212 22.2425C128.277 22.0726 128.352 21.9061 128.408 21.7379C128.461 21.5679 128.513 21.3997 128.564 21.235C128.667 20.9039 128.767 20.5834 128.865 20.2736C129.059 19.6538 129.241 19.0766 129.408 18.5472C129.664 17.483 129.873 16.6154 130.021 15.9974C130.17 15.3989 130.264 15.0678 130.285 15.0713Z" fill="#263238"/>
</g>
<g opacity="0.4">
<path opacity="0.4" d="M137.19 49.6737C137.526 50.2846 137.871 50.9061 138.368 51.3948C138.867 51.8835 139.549 52.2305 140.245 52.1597C140.938 52.0889 141.596 51.5134 141.603 50.814C141.935 51.0654 142.447 50.9291 142.722 50.6157C142.998 50.3023 143.089 49.8684 143.12 49.4523C143.573 49.7197 144.203 49.5072 144.504 49.077C144.806 48.6467 144.824 48.0677 144.679 47.5613C144.532 47.0566 144.24 46.6087 143.952 46.1678C144.3 46.1961 144.67 46.2209 144.981 46.0615C145.292 45.9039 145.503 45.4914 145.321 45.1921C145.215 45.0168 145.009 44.9301 144.813 44.8681C144.267 44.6963 143.885 44.56 143.315 44.6255C143.182 44.6273 143.543 46.127 139.976 48.1775C137.873 49.3939 137.19 49.6737 137.19 49.6737Z" fill="#263238"/>
</g>
<path d="M145.223 51.841C145.222 51.8569 144.983 51.8127 144.599 51.8215C144.217 51.8304 143.681 51.9136 143.152 52.1686C142.623 52.4218 142.224 52.7865 141.976 53.0804C141.727 53.3744 141.613 53.5886 141.599 53.5798C141.594 53.5762 141.617 53.5213 141.668 53.4239C141.72 53.3283 141.805 53.1938 141.925 53.0379C142.162 52.7281 142.567 52.3456 143.112 52.0836C143.655 51.8233 144.206 51.7471 144.597 51.7542C144.794 51.7578 144.951 51.7755 145.059 51.795C145.167 51.818 145.225 51.8357 145.223 51.841Z" fill="#E8B299"/>
<path d="M137.423 48.7228C137.998 49.2753 138.391 49.8862 138.994 50.4421C139.268 50.6953 139.693 51.1734 140.061 51.2372C140.428 51.3009 140.664 51.2513 140.809 50.9078C140.927 50.6298 140.715 50.2491 140.57 50.0207C140.186 49.4169 139.818 48.9459 139.532 48.4767C139.397 48.2571 139.571 48.2111 139.634 48.3138C139.91 48.6007 140.324 48.8503 140.572 49.162C140.911 49.5905 140.973 50.1571 141.859 49.9765C141.976 49.9534 142.095 49.9127 142.188 49.8401C142.523 49.5834 142.537 49.1389 142.395 48.783C142.286 48.5033 142.091 48.266 141.902 48.034C142.28 48.4608 142.692 48.9105 143.292 48.9601C143.642 48.9884 143.992 48.8255 144.134 48.505C144.311 48.1013 144.056 47.71 143.801 47.3948C143.349 46.8353 142.843 46.3183 142.293 45.8526C142.087 45.6791 141.827 45.5817 141.559 45.5799C141.247 45.5781 140.858 45.6366 140.667 45.9075C140.319 46.3979 140.427 46.8335 140.427 46.8335C140.427 46.8335 139.647 46.4387 139.021 46.8512C138.394 47.2656 138.239 47.9756 138.239 47.9756L137.423 48.7228Z" fill="#E8B299"/>
<path d="M141.569 45.4082C141.329 45.1656 141.272 44.7212 141.46 44.3529C141.592 44.0926 141.759 43.8394 141.928 43.7827C142.669 43.533 145.908 44.0926 145.88 44.8132C145.85 45.5516 145.614 45.8774 143.856 45.6224C143.547 45.5782 143.062 45.5162 143.062 45.5162L142.638 46.1536L141.569 45.4082Z" fill="#E8B299"/>
<path d="M142.149 48.4218C142.123 48.4377 141.877 47.9349 141.375 47.4834C140.876 47.0265 140.352 46.83 140.365 46.8034C140.368 46.7928 140.505 46.8282 140.708 46.9238C140.911 47.0194 141.18 47.1841 141.437 47.4161C141.691 47.648 141.882 47.8995 141.996 48.0942C142.112 48.2855 142.16 48.4165 142.149 48.4218Z" fill="#E8B299"/>
<path d="M142.694 46.2102C142.678 46.2262 142.464 46.0509 142.172 45.8721C142.027 45.7835 141.893 45.7074 141.792 45.6631C141.691 45.6153 141.626 45.6029 141.626 45.5888C141.626 45.5764 141.702 45.5675 141.815 45.6012C141.928 45.633 142.072 45.7021 142.222 45.7942C142.521 45.9765 142.717 46.1908 142.694 46.2102Z" fill="#E8B299"/>
<path d="M143.239 45.5409C143.237 45.5604 142.954 45.5693 142.615 45.4701C142.447 45.4188 142.303 45.3373 142.215 45.2612C142.126 45.185 142.089 45.1213 142.098 45.1142C142.116 45.0983 142.316 45.2895 142.641 45.3816C142.963 45.4772 143.242 45.5108 143.239 45.5409Z" fill="#E8B299"/>
<path d="M140.091 49.3125C140.08 49.3195 139.965 49.1743 139.795 48.9282C139.622 48.6892 139.401 48.3315 139.04 48.0677C138.679 47.8039 138.255 47.7419 137.97 47.7844C137.68 47.8251 137.528 47.9455 137.519 47.9278C137.515 47.9243 137.549 47.8906 137.622 47.8464C137.694 47.8003 137.809 47.7507 137.959 47.7206C138.256 47.6587 138.711 47.7153 139.095 47.9933C139.477 48.2731 139.691 48.6449 139.852 48.8928C140.006 49.1478 140.101 49.3054 140.091 49.3125Z" fill="#E8B299"/>
<path d="M142.569 56.4837C142.572 56.5084 141.978 56.5934 141.246 56.6749C140.512 56.7546 139.914 56.7988 139.912 56.7741C139.908 56.7493 140.501 56.6643 141.235 56.5828C141.969 56.5031 142.565 56.4589 142.569 56.4837Z" fill="#E8B299"/>
<path d="M174.607 6.65714L174.807 7.02189L175.171 7.22198L174.807 7.42206L174.607 7.78682L174.407 7.42206L174.041 7.22198L174.407 7.02189L174.607 6.65714Z" fill="#CA3D3D"/>
<path d="M107.69 30.8303L107.89 31.195L108.256 31.3951L107.89 31.5952L107.69 31.9599L107.49 31.5952L107.126 31.3951L107.49 31.195L107.69 30.8303Z" fill="#CA3D3D"/>
<path d="M164.953 -0.151062L165.415 0.691774L166.257 1.15392L165.415 1.61606L164.953 2.4589L164.492 1.61606L163.65 1.15392L164.492 0.691774L164.953 -0.151062Z" fill="#CA3D3D"/>
<path d="M111.432 25.0862L111.892 25.9291L112.734 26.3895L111.892 26.8498L111.432 27.6927L110.973 26.8498L110.131 26.3895L110.973 25.9291L111.432 25.0862Z" fill="#CA3D3D"/>
<path d="M175.742 45.178L176.202 46.0208L177.042 46.4812L176.202 46.9416L175.742 47.7826L175.282 46.9416L174.441 46.4812L175.282 46.0208L175.742 45.178Z" fill="#CA3D3D"/>
</g>
<path d="M80.1298 2L79.721 2.74438L78.977 3.15022L79.721 3.55606L80.1298 4.30044L80.5365 3.55606L81.2826 3.15022L80.5365 2.74438L80.1298 2Z" fill="#CA3D3D"/>
<path d="M94.7356 46.1061L94.3268 46.8505L93.5828 47.2563L94.3268 47.6642L94.7356 48.4065L95.1423 47.6642L95.8883 47.2563L95.1423 46.8505L94.7356 46.1061Z" fill="#CA3D3D"/>
<path d="M28.8991 4.31064L28.4903 5.05502L27.7463 5.46086L28.4903 5.86874L28.8991 6.61108L29.3058 5.86874L30.0518 5.46086L29.3058 5.05502L28.8991 4.31064Z" fill="#CA3D3D"/>
<path d="M89.3703 25.553L89.1189 26.0078L88.6631 26.2587L89.1189 26.5095L89.3703 26.9663L89.6217 26.5095L90.0775 26.2587L89.6217 26.0078L89.3703 25.553Z" fill="#CA3D3D"/>
<path d="M56.1383 12.5845L55.8869 13.0413L55.429 13.2922L55.8869 13.541L56.1383 13.9978L56.3897 13.541L56.8455 13.2922L56.3897 13.0413L56.1383 12.5845Z" fill="#CA3D3D"/>
<path d="M41.8657 24.3498L41.6408 24.7556L41.2361 24.9779L41.6408 25.2002L41.8657 25.606L42.0885 25.2002L42.4952 24.9779L42.0885 24.7556L41.8657 24.3498Z" fill="#CA3D3D"/>
<path d="M68.8249 43.9137L68.6021 44.3196L68.1954 44.5419L68.6021 44.7642L68.8249 45.17L69.0497 44.7642L69.4544 44.5419L69.0497 44.3196L68.8249 43.9137Z" fill="#CA3D3D"/>
<path d="M29.6186 47.7437L29.3958 48.1516L28.989 48.3719L29.3958 48.5942L29.6186 49L29.8414 48.5942L30.2481 48.3719L29.8414 48.1516L29.6186 47.7437Z" fill="#CA3D3D"/>
<path d="M92.8306 65.9471H82.0163V68.281H92.8306V65.9471Z" fill="#263238"/>
<path d="M86.3104 65.9471L86.489 68.283H88.0149L88.095 65.9471H86.3104Z" fill="#D3D3D3"/>
<path d="M90.2081 65.9471H79.3938V68.281H90.2081V65.9471Z" fill="#455A64"/>
<path d="M90.1732 66.3139C90.1732 66.3426 87.7664 66.3671 84.801 66.3671C81.8335 66.3671 79.4267 66.3426 79.4267 66.3139C79.4267 66.2852 81.8314 66.2606 84.801 66.2606C87.7684 66.2606 90.1732 66.2852 90.1732 66.3139Z" fill="#263238"/>
<path d="M90.1691 66.8487C90.1691 66.8774 87.7623 66.902 84.7969 66.902C81.8294 66.902 79.4225 66.8774 79.4225 66.8487C79.4225 66.82 81.8273 66.7954 84.7969 66.7954C87.7643 66.7954 90.1691 66.818 90.1691 66.8487Z" fill="#263238"/>
<path d="M90.1691 67.3814C90.1691 67.4101 87.7623 67.4347 84.7969 67.4347C81.8294 67.4347 79.4225 67.4101 79.4225 67.3814C79.4225 67.3527 81.8273 67.3282 84.7969 67.3282C87.7643 67.3282 90.1691 67.3527 90.1691 67.3814Z" fill="#263238"/>
<path d="M90.1691 67.9163C90.1691 67.9449 87.7623 67.9695 84.7969 67.9695C81.8294 67.9695 79.4225 67.9449 79.4225 67.9163C79.4225 67.8876 81.8273 67.863 84.7969 67.863C87.7643 67.863 90.1691 67.8876 90.1691 67.9163Z" fill="#263238"/>
<path d="M83.6859 65.9471L83.8645 68.283H85.3924L85.4704 65.9471H83.6859Z" fill="#D3D3D3"/>
<path d="M94.1429 63.6398H83.3285V65.9737H94.1429V63.6398Z" fill="#263238"/>
<path d="M87.6226 63.6398L87.8013 65.9737H89.3271L89.4072 63.6398H87.6226Z" fill="#D3D3D3"/>
<path d="M91.5204 63.6398H80.7061V65.9737H91.5204V63.6398Z" fill="#455A64"/>
<path d="M91.4855 64.0045C91.4855 64.0332 89.0787 64.0578 86.1132 64.0578C83.1458 64.0578 80.7389 64.0332 80.7389 64.0045C80.7389 63.9759 83.1437 63.9513 86.1132 63.9513C89.0787 63.9513 91.4855 63.9759 91.4855 64.0045Z" fill="#263238"/>
<path d="M91.4814 64.5394C91.4814 64.568 89.0745 64.5926 86.1091 64.5926C83.1416 64.5926 80.7348 64.568 80.7348 64.5394C80.7348 64.5107 83.1396 64.4861 86.1091 64.4861C89.0766 64.4861 91.4814 64.5107 91.4814 64.5394Z" fill="#263238"/>
<path d="M91.4814 65.0741C91.4814 65.1028 89.0745 65.1274 86.1091 65.1274C83.1416 65.1274 80.7348 65.1028 80.7348 65.0741C80.7348 65.0455 83.1396 65.0209 86.1091 65.0209C89.0766 65.0209 91.4814 65.0434 91.4814 65.0741Z" fill="#263238"/>
<path d="M91.4814 65.6069C91.4814 65.6356 89.0745 65.6602 86.1091 65.6602C83.1416 65.6602 80.7348 65.6356 80.7348 65.6069C80.7348 65.5782 83.1396 65.5536 86.1091 65.5536C89.0766 65.5536 91.4814 65.5782 91.4814 65.6069Z" fill="#263238"/>
<path d="M84.9981 63.6398L85.1768 65.9737H86.7026L86.7827 63.6398H84.9981Z" fill="#D3D3D3"/>
<path d="M93.4097 70.5903H82.5954V72.9242H93.4097V70.5903Z" fill="#263238"/>
<path d="M86.8875 70.5903L87.0661 72.9242H88.594L88.672 70.5903H86.8875Z" fill="#D3D3D3"/>
<path d="M90.7852 70.5903H79.9709V72.9242H90.7852V70.5903Z" fill="#455A64"/>
<path d="M90.7503 70.9571C90.7503 70.9857 88.3435 71.0103 85.3781 71.0103C82.4106 71.0103 80.0038 70.9857 80.0038 70.9571C80.0038 70.9284 82.4085 70.9038 85.3781 70.9038C88.3455 70.9038 90.7503 70.9263 90.7503 70.9571Z" fill="#263238"/>
<path d="M90.7483 71.4898C90.7483 71.5185 88.3414 71.5431 85.376 71.5431C82.4085 71.5431 80.0017 71.5185 80.0017 71.4898C80.0017 71.4611 82.4065 71.4365 85.376 71.4365C88.3414 71.4365 90.7483 71.4611 90.7483 71.4898Z" fill="#263238"/>
<path d="M90.7483 72.0246C90.7483 72.0533 88.3414 72.0779 85.376 72.0779C82.4085 72.0779 80.0017 72.0533 80.0017 72.0246C80.0017 71.996 82.4065 71.9714 85.376 71.9714C88.3414 71.9714 90.7483 71.996 90.7483 72.0246Z" fill="#263238"/>
<path d="M84.265 70.5903L84.4416 72.9242H85.9695L86.0476 70.5903H84.265Z" fill="#D3D3D3"/>
<path d="M94.722 68.2809H83.9077V70.6149H94.722V68.2809Z" fill="#263238"/>
<path d="M88.1997 68.2809L88.3784 70.6169H89.9063L89.9843 68.2809H88.1997Z" fill="#D3D3D3"/>
<path d="M92.0975 68.2809H81.2831V70.6149H92.0975V68.2809Z" fill="#455A64"/>
<path d="M92.0625 68.6478C92.0625 68.6764 89.6557 68.701 86.6903 68.701C83.7228 68.701 81.316 68.6764 81.316 68.6478C81.316 68.6191 83.7208 68.5945 86.6903 68.5945C89.6578 68.5945 92.0625 68.6191 92.0625 68.6478Z" fill="#263238"/>
<path d="M92.0585 69.1825C92.0585 69.2112 89.6516 69.2358 86.6862 69.2358C83.7187 69.2358 81.3119 69.2112 81.3119 69.1825C81.3119 69.1539 83.7167 69.1293 86.6862 69.1293C89.6537 69.1293 92.0585 69.1518 92.0585 69.1825Z" fill="#263238"/>
<path d="M92.0585 69.7153C92.0585 69.744 89.6516 69.7686 86.6862 69.7686C83.7187 69.7686 81.3119 69.744 81.3119 69.7153C81.3119 69.6866 83.7167 69.662 86.6862 69.662C89.6537 69.662 92.0585 69.6866 92.0585 69.7153Z" fill="#263238"/>
<path d="M92.0585 70.2501C92.0585 70.2788 89.6516 70.3034 86.6862 70.3034C83.7187 70.3034 81.3119 70.2788 81.3119 70.2501C81.3119 70.2214 83.7167 70.1968 86.6862 70.1968C89.6537 70.1968 92.0585 70.2214 92.0585 70.2501Z" fill="#263238"/>
<path d="M85.5752 68.2809L85.7539 70.6169H87.2818L87.3598 68.2809H85.5752Z" fill="#D3D3D3"/>
<path d="M86.1338 68.2564H75.3195V70.5903H86.1338V68.2564Z" fill="#CA3D3D"/>
<path opacity="0.2" d="M86.1338 68.2564H75.3195V70.5903H86.1338V68.2564Z" fill="#263238"/>
<path d="M79.6136 68.2564L79.7922 70.5903H81.3181L81.3982 68.2564H79.6136Z" fill="#D3D3D3"/>
<path d="M84.9468 70.5903H74.1324V72.9242H84.9468V70.5903Z" fill="#CA3D3D"/>
<path opacity="0.2" d="M84.9468 70.5903H74.1324V72.9242H84.9468V70.5903Z" fill="#263238"/>
<path d="M78.4266 70.5903L78.6052 72.9242H80.1311L80.2112 70.5903H78.4266Z" fill="#D3D3D3"/>
<path d="M82.3223 70.5903H71.5079V72.9242H82.3223V70.5903Z" fill="#CA3D3D"/>
<g opacity="0.2">
<path opacity="0.2" d="M82.2894 70.9571C82.2894 70.9857 79.8826 71.0103 76.9172 71.0103C73.9497 71.0103 71.5428 70.9857 71.5428 70.9571C71.5428 70.9284 73.9476 70.9038 76.9172 70.9038C79.8826 70.9038 82.2894 70.9263 82.2894 70.9571Z" fill="#263238"/>
</g>
<g opacity="0.2">
<path opacity="0.2" d="M82.2853 71.4898C82.2853 71.5185 79.8785 71.5431 76.913 71.5431C73.9456 71.5431 71.5387 71.5185 71.5387 71.4898C71.5387 71.4611 73.9435 71.4365 76.913 71.4365C79.8785 71.4365 82.2853 71.4611 82.2853 71.4898Z" fill="#263238"/>
</g>
<g opacity="0.2">
<path opacity="0.2" d="M82.2853 72.0246C82.2853 72.0533 79.8785 72.0779 76.913 72.0779C73.9456 72.0779 71.5387 72.0533 71.5387 72.0246C71.5387 71.9959 73.9435 71.9713 76.913 71.9713C79.8785 71.9713 82.2853 71.9959 82.2853 72.0246Z" fill="#263238"/>
</g>
<path d="M75.802 70.5903L75.9807 72.9242H77.5065L77.5866 70.5903H75.802Z" fill="#D3D3D3"/>
<path d="M83.883 68.2564H73.0687V70.5903H83.883V68.2564Z" fill="#CA3D3D"/>
<g opacity="0.2">
<path opacity="0.2" d="M83.8502 68.6232C83.8502 68.6518 81.4433 68.6764 78.4779 68.6764C75.5104 68.6764 73.1036 68.6518 73.1036 68.6232C73.1036 68.5945 75.5084 68.5699 78.4779 68.5699C81.4433 68.5699 83.8502 68.5924 83.8502 68.6232Z" fill="#263238"/>
</g>
<g opacity="0.2">
<path opacity="0.2" d="M83.8461 69.158C83.8461 69.1866 81.4392 69.2112 78.4738 69.2112C75.5063 69.2112 73.0995 69.1866 73.0995 69.158C73.0995 69.1293 75.5043 69.1047 78.4738 69.1047C81.4413 69.1026 83.8461 69.1272 83.8461 69.158Z" fill="#263238"/>
</g>
<g opacity="0.2">
<path opacity="0.2" d="M83.8461 69.6907C83.8461 69.7194 81.4392 69.744 78.4738 69.744C75.5063 69.744 73.0995 69.7194 73.0995 69.6907C73.0995 69.662 75.5043 69.6375 78.4738 69.6375C81.4413 69.6375 83.8461 69.662 83.8461 69.6907Z" fill="#263238"/>
</g>
<g opacity="0.2">
<path opacity="0.2" d="M83.8461 70.2255C83.8461 70.2542 81.4392 70.2788 78.4738 70.2788C75.5063 70.2788 73.0995 70.2542 73.0995 70.2255C73.0995 70.1969 75.5043 70.1723 78.4738 70.1723C81.4413 70.1723 83.8461 70.1948 83.8461 70.2255Z" fill="#263238"/>
</g>
<path d="M77.3628 68.2564L77.5415 70.5903H79.0673L79.1474 68.2564H77.3628Z" fill="#D3D3D3"/>
<path d="M64.9351 70.5903H54.1208V72.9242H64.9351V70.5903Z" fill="#263238"/>
<path d="M58.4128 70.5903L58.5915 72.9242H60.1194L60.1974 70.5903H58.4128Z" fill="#D3D3D3"/>
<path d="M62.3106 70.5903H51.4962V72.9242H62.3106V70.5903Z" fill="#455A64"/>
<path d="M62.2757 70.9571C62.2757 70.9857 59.8688 71.0103 56.9034 71.0103C53.936 71.0103 51.5291 70.9857 51.5291 70.9571C51.5291 70.9284 53.9339 70.9038 56.9034 70.9038C59.8709 70.9038 62.2757 70.9263 62.2757 70.9571Z" fill="#263238"/>
<path d="M62.2716 71.4898C62.2716 71.5185 59.8647 71.5431 56.8993 71.5431C53.9318 71.5431 51.525 71.5185 51.525 71.4898C51.525 71.4611 53.9298 71.4365 56.8993 71.4365C59.8668 71.4365 62.2716 71.4611 62.2716 71.4898Z" fill="#263238"/>
<path d="M62.2716 72.0246C62.2716 72.0533 59.8647 72.0779 56.8993 72.0779C53.9318 72.0779 51.525 72.0533 51.525 72.0246C51.525 71.996 53.9298 71.9714 56.8993 71.9714C59.8668 71.9714 62.2716 71.996 62.2716 72.0246Z" fill="#263238"/>
<path d="M55.7883 70.5903L55.967 72.9242H57.4949L57.5729 70.5903H55.7883Z" fill="#C4C4C4"/>
<path d="M63.6187 68.2809H52.8044V70.6149H63.6187V68.2809Z" fill="#263238"/>
<path d="M57.0985 68.2809L57.2771 70.6169H58.803L58.881 68.2809H57.0985Z" fill="#D3D3D3"/>
<path d="M60.9942 68.2809H50.1799V70.6149H60.9942V68.2809Z" fill="#455A64"/>
<path d="M60.9613 68.6478C60.9613 68.6764 58.5545 68.701 55.5891 68.701C52.6216 68.701 50.2148 68.6764 50.2148 68.6478C50.2148 68.6191 52.6196 68.5945 55.5891 68.5945C58.5545 68.5945 60.9613 68.6191 60.9613 68.6478Z" fill="#263238"/>
<path d="M60.9573 69.1825C60.9573 69.2112 58.5504 69.2358 55.585 69.2358C52.6175 69.2358 50.2107 69.2112 50.2107 69.1825C50.2107 69.1539 52.6155 69.1293 55.585 69.1293C58.5504 69.1293 60.9573 69.1518 60.9573 69.1825Z" fill="#263238"/>
<path d="M60.9573 69.7153C60.9573 69.744 58.5504 69.7686 55.585 69.7686C52.6175 69.7686 50.2107 69.744 50.2107 69.7153C50.2107 69.6866 52.6155 69.662 55.585 69.662C58.5504 69.662 60.9573 69.6866 60.9573 69.7153Z" fill="#263238"/>
<path d="M60.9573 70.2501C60.9573 70.2788 58.5504 70.3034 55.585 70.3034C52.6175 70.3034 50.2107 70.2788 50.2107 70.2501C50.2107 70.2214 52.6155 70.1968 55.585 70.1968C58.5504 70.1968 60.9573 70.2214 60.9573 70.2501Z" fill="#263238"/>
<path d="M54.474 68.2809L54.6526 70.6169H56.1785L56.2586 68.2809H54.474Z" fill="#C4C4C4"/>
<rect x="36" y="16" width="66" height="15" rx="7.5" fill="#A23840"/>
<rect x="36" y="15" width="66" height="15" rx="7.5" fill="#CA3D3D"/>
<path d="M45.8252 26V18.8906H48.1494C48.9209 18.8906 49.5003 19.0501 49.8877 19.3691C50.2783 19.6882 50.4736 20.1602 50.4736 20.7852C50.4736 21.1172 50.3792 21.4118 50.1904 21.6689C50.0016 21.9229 49.7445 22.1198 49.4189 22.2598C49.8031 22.3672 50.1058 22.5723 50.3271 22.875C50.5518 23.1745 50.6641 23.5326 50.6641 23.9492C50.6641 24.5872 50.4574 25.0885 50.0439 25.4531C49.6305 25.8177 49.0462 26 48.291 26H45.8252ZM46.7627 22.6748V25.2334H48.3105C48.7467 25.2334 49.0902 25.1211 49.3408 24.8965C49.5947 24.6686 49.7217 24.3561 49.7217 23.959C49.7217 23.1029 49.2562 22.6748 48.3252 22.6748H46.7627ZM46.7627 21.9229H48.1787C48.5889 21.9229 48.916 21.8203 49.1602 21.6152C49.4076 21.4102 49.5312 21.1318 49.5312 20.7803C49.5312 20.3896 49.4173 20.1064 49.1895 19.9307C48.9616 19.7516 48.6149 19.6621 48.1494 19.6621H46.7627V21.9229Z" fill="white"/>
<path d="M51.6748 23.3096C51.6748 22.792 51.7757 22.3265 51.9775 21.9131C52.1826 21.4997 52.4658 21.1807 52.8271 20.9561C53.1917 20.7314 53.6068 20.6191 54.0723 20.6191C54.7917 20.6191 55.3727 20.8682 55.8154 21.3662C56.2614 21.8643 56.4844 22.5267 56.4844 23.3535V23.417C56.4844 23.9313 56.3851 24.3936 56.1865 24.8037C55.9912 25.2106 55.7096 25.528 55.3418 25.7559C54.9772 25.9837 54.5573 26.0977 54.082 26.0977C53.3659 26.0977 52.7848 25.8486 52.3389 25.3506C51.8962 24.8525 51.6748 24.1934 51.6748 23.373V23.3096ZM52.583 23.417C52.583 24.0029 52.7181 24.4733 52.9883 24.8281C53.2617 25.1829 53.6263 25.3604 54.082 25.3604C54.541 25.3604 54.9056 25.1813 55.1758 24.8232C55.446 24.4619 55.5811 23.9574 55.5811 23.3096C55.5811 22.7301 55.4427 22.2614 55.166 21.9033C54.8926 21.542 54.528 21.3613 54.0723 21.3613C53.6263 21.3613 53.2666 21.5387 52.9932 21.8936C52.7197 22.2484 52.583 22.7562 52.583 23.417Z" fill="white"/>
<path d="M57.3779 23.3096C57.3779 22.792 57.4788 22.3265 57.6807 21.9131C57.8857 21.4997 58.1689 21.1807 58.5303 20.9561C58.8949 20.7314 59.3099 20.6191 59.7754 20.6191C60.4948 20.6191 61.0758 20.8682 61.5186 21.3662C61.9645 21.8643 62.1875 22.5267 62.1875 23.3535V23.417C62.1875 23.9313 62.0882 24.3936 61.8896 24.8037C61.6943 25.2106 61.4128 25.528 61.0449 25.7559C60.6803 25.9837 60.2604 26.0977 59.7852 26.0977C59.069 26.0977 58.488 25.8486 58.042 25.3506C57.5993 24.8525 57.3779 24.1934 57.3779 23.373V23.3096ZM58.2861 23.417C58.2861 24.0029 58.4212 24.4733 58.6914 24.8281C58.9648 25.1829 59.3294 25.3604 59.7852 25.3604C60.2441 25.3604 60.6087 25.1813 60.8789 24.8232C61.1491 24.4619 61.2842 23.9574 61.2842 23.3096C61.2842 22.7301 61.1458 22.2614 60.8691 21.9033C60.5957 21.542 60.2311 21.3613 59.7754 21.3613C59.3294 21.3613 58.9697 21.5387 58.6963 21.8936C58.4229 22.2484 58.2861 22.7562 58.2861 23.417Z" fill="white"/>
<path d="M66.3965 24.5986C66.3965 24.3545 66.3037 24.1657 66.1182 24.0322C65.9359 23.8955 65.6152 23.7783 65.1562 23.6807C64.7005 23.583 64.3376 23.4658 64.0674 23.3291C63.8005 23.1924 63.6019 23.0296 63.4717 22.8408C63.3447 22.652 63.2812 22.4274 63.2812 22.167C63.2812 21.734 63.4635 21.3678 63.8281 21.0684C64.196 20.7689 64.6647 20.6191 65.2344 20.6191C65.8333 20.6191 66.3184 20.7738 66.6895 21.083C67.0638 21.3923 67.251 21.7878 67.251 22.2695H66.3428C66.3428 22.0221 66.237 21.8089 66.0254 21.6299C65.8171 21.4508 65.5534 21.3613 65.2344 21.3613C64.9056 21.3613 64.6484 21.4329 64.4629 21.5762C64.2773 21.7194 64.1846 21.9066 64.1846 22.1377C64.1846 22.3558 64.2708 22.5202 64.4434 22.6309C64.6159 22.7415 64.9268 22.8473 65.376 22.9482C65.8285 23.0492 66.1947 23.1696 66.4746 23.3096C66.7546 23.4495 66.9613 23.6188 67.0947 23.8174C67.2314 24.0127 67.2998 24.252 67.2998 24.5352C67.2998 25.0072 67.111 25.3864 66.7334 25.6729C66.3558 25.9561 65.8659 26.0977 65.2637 26.0977C64.8405 26.0977 64.4661 26.0228 64.1406 25.873C63.8151 25.7233 63.5596 25.515 63.374 25.248C63.1917 24.9779 63.1006 24.6865 63.1006 24.374H64.0039C64.0202 24.6768 64.1406 24.9176 64.3652 25.0967C64.5931 25.2725 64.8926 25.3604 65.2637 25.3604C65.6055 25.3604 65.8789 25.292 66.084 25.1553C66.2923 25.0153 66.3965 24.8298 66.3965 24.5986Z" fill="white"/>
<path d="M69.7021 19.4375V20.7168H70.6885V21.415H69.7021V24.6914C69.7021 24.903 69.7461 25.0625 69.834 25.1699C69.9219 25.2741 70.0716 25.3262 70.2832 25.3262C70.3874 25.3262 70.5306 25.3066 70.7129 25.2676V26C70.4753 26.0651 70.2441 26.0977 70.0195 26.0977C69.6159 26.0977 69.3115 25.9756 69.1064 25.7314C68.9014 25.4873 68.7988 25.1406 68.7988 24.6914V21.415H67.8369V20.7168H68.7988V19.4375H69.7021Z" fill="white"/>
<path d="M75.3076 23.2168V26H74.3701V18.8906H76.9922C77.7702 18.8906 78.3789 19.0892 78.8184 19.4863C79.2611 19.8835 79.4824 20.4092 79.4824 21.0635C79.4824 21.7536 79.2659 22.2858 78.833 22.6602C78.4033 23.0312 77.7865 23.2168 76.9824 23.2168H75.3076ZM75.3076 22.4502H76.9922C77.4935 22.4502 77.8776 22.333 78.1445 22.0986C78.4115 21.861 78.5449 21.5192 78.5449 21.0732C78.5449 20.6501 78.4115 20.3115 78.1445 20.0576C77.8776 19.8037 77.5114 19.6719 77.0459 19.6621H75.3076V22.4502Z" fill="white"/>
<path d="M80.2295 23.3096C80.2295 22.792 80.3304 22.3265 80.5322 21.9131C80.7373 21.4997 81.0205 21.1807 81.3818 20.9561C81.7464 20.7314 82.1615 20.6191 82.627 20.6191C83.3464 20.6191 83.9274 20.8682 84.3701 21.3662C84.8161 21.8643 85.0391 22.5267 85.0391 23.3535V23.417C85.0391 23.9313 84.9398 24.3936 84.7412 24.8037C84.5459 25.2106 84.2643 25.528 83.8965 25.7559C83.5319 25.9837 83.112 26.0977 82.6367 26.0977C81.9206 26.0977 81.3395 25.8486 80.8936 25.3506C80.4508 24.8525 80.2295 24.1934 80.2295 23.373V23.3096ZM81.1377 23.417C81.1377 24.0029 81.2728 24.4733 81.543 24.8281C81.8164 25.1829 82.181 25.3604 82.6367 25.3604C83.0957 25.3604 83.4603 25.1813 83.7305 24.8232C84.0007 24.4619 84.1357 23.9574 84.1357 23.3096C84.1357 22.7301 83.9974 22.2614 83.7207 21.9033C83.4473 21.542 83.0827 21.3613 82.627 21.3613C82.181 21.3613 81.8213 21.5387 81.5479 21.8936C81.2744 22.2484 81.1377 22.7562 81.1377 23.417Z" fill="white"/>
<path d="M89.248 24.5986C89.248 24.3545 89.1553 24.1657 88.9697 24.0322C88.7874 23.8955 88.4668 23.7783 88.0078 23.6807C87.5521 23.583 87.1891 23.4658 86.9189 23.3291C86.652 23.1924 86.4534 23.0296 86.3232 22.8408C86.1963 22.652 86.1328 22.4274 86.1328 22.167C86.1328 21.734 86.3151 21.3678 86.6797 21.0684C87.0475 20.7689 87.5163 20.6191 88.0859 20.6191C88.6849 20.6191 89.1699 20.7738 89.541 21.083C89.9154 21.3923 90.1025 21.7878 90.1025 22.2695H89.1943C89.1943 22.0221 89.0885 21.8089 88.877 21.6299C88.6686 21.4508 88.4049 21.3613 88.0859 21.3613C87.7572 21.3613 87.5 21.4329 87.3145 21.5762C87.1289 21.7194 87.0361 21.9066 87.0361 22.1377C87.0361 22.3558 87.1224 22.5202 87.2949 22.6309C87.4674 22.7415 87.7783 22.8473 88.2275 22.9482C88.68 23.0492 89.0462 23.1696 89.3262 23.3096C89.6061 23.4495 89.8128 23.6188 89.9463 23.8174C90.083 24.0127 90.1514 24.252 90.1514 24.5352C90.1514 25.0072 89.9626 25.3864 89.585 25.6729C89.2074 25.9561 88.7174 26.0977 88.1152 26.0977C87.6921 26.0977 87.3177 26.0228 86.9922 25.873C86.6667 25.7233 86.4111 25.515 86.2256 25.248C86.0433 24.9779 85.9521 24.6865 85.9521 24.374H86.8555C86.8717 24.6768 86.9922 24.9176 87.2168 25.0967C87.4447 25.2725 87.7441 25.3604 88.1152 25.3604C88.457 25.3604 88.7305 25.292 88.9355 25.1553C89.1439 25.0153 89.248 24.8298 89.248 24.5986Z" fill="white"/>
<path d="M92.5537 19.4375V20.7168H93.54V21.415H92.5537V24.6914C92.5537 24.903 92.5977 25.0625 92.6855 25.1699C92.7734 25.2741 92.9232 25.3262 93.1348 25.3262C93.2389 25.3262 93.3822 25.3066 93.5645 25.2676V26C93.3268 26.0651 93.0957 26.0977 92.8711 26.0977C92.4674 26.0977 92.1631 25.9756 91.958 25.7314C91.7529 25.4873 91.6504 25.1406 91.6504 24.6914V21.415H90.6885V20.7168H91.6504V19.4375H92.5537Z" fill="white"/>
<g clip-path="url(#clip2)">
<path d="M19.1846 21.4816L19.2986 26.5077C19.3612 28.2768 21.0971 29.6536 23.1567 29.5759C25.1353 29.4981 26.7021 28.1065 26.7168 26.4077C26.7278 24.9939 26.7315 22.0664 26.7315 22.0664" fill="#E8B299"/>
<path d="M18.1364 15.0491C18.1364 15.0491 16.3012 12.2363 15.6613 14.7308C15.0213 17.2254 16.8014 18.3357 17.9342 18.0581C19.0669 17.7805 18.1364 15.0491 18.1364 15.0491Z" fill="#CD8B6D"/>
<path d="M17.9415 15.5266C17.9415 15.5266 16.68 13.75 16.2865 14.5014C15.8893 15.2527 16.0401 16.1891 16.0401 16.1891C16.0401 16.1891 16.246 15.1528 17.0478 15.7079C17.0478 15.7079 16.349 17.3808 17.868 16.8553C17.8643 16.8553 18.4785 16.3297 17.9415 15.5266Z" fill="#CD8B6D"/>
<path d="M28.2836 14.3052C28.2836 14.3052 29.9312 11.3591 30.733 13.8019C31.5347 16.2446 29.8282 17.4844 28.6808 17.292C27.5333 17.0995 28.2836 14.3052 28.2836 14.3052Z" fill="#CD8B6D"/>
<path d="M28.3314 14.9677C28.3314 14.9677 29.4752 13.0986 29.9165 13.8203C30.3615 14.5383 30.2696 15.4858 30.2696 15.4858C30.2696 15.4858 29.9974 14.468 29.2361 15.0824C29.2361 15.0824 30.0416 16.6998 28.4932 16.289C28.4932 16.2853 27.8459 15.8078 28.3314 14.9677Z" fill="#CD8B6D"/>
<path d="M23.9732 23.717C18.4969 23.9206 17.4156 18.6651 17.2023 16.7886C17.114 16.0225 17.114 14.753 17.1435 13.5095C17.1913 11.7218 17.3126 9.98234 17.3604 9.8417C18.8021 5.57065 24.1938 5.46702 26.0364 6.64396C28.4013 8.154 28.633 9.88981 28.633 9.88981C28.8757 10.9187 29.0633 11.9772 29.181 13.0209C29.7841 18.4208 28.5631 23.5468 23.9732 23.717Z" fill="#E8B299"/>
<path d="M21.1449 14.6235C21.1633 15.2268 20.7771 15.7264 20.2769 15.7449C19.7804 15.7634 19.3612 15.2897 19.3391 14.6901C19.3207 14.0905 19.7069 13.5872 20.2071 13.5687C20.7073 13.5502 21.1265 14.0239 21.1449 14.6235Z" fill="#4A1D1D"/>
<path d="M27.0956 14.4014C27.114 15.0047 26.7278 15.5044 26.2277 15.5229C25.7312 15.5414 25.3082 15.0676 25.2898 14.4681C25.2714 13.8685 25.6576 13.3651 26.1578 13.3466C26.658 13.3281 27.0772 13.8019 27.0956 14.4014Z" fill="#4A1D1D"/>
<path d="M29.3134 13.7427C29.3501 14.3089 28.3939 15.138 28.096 15.6228C28.0408 15.7153 27.9783 15.8042 27.9121 15.893C27.5223 16.4186 26.9632 16.8738 26.3086 17.2328C26.224 17.2809 26.1394 17.3253 26.0548 17.3697C25.2347 17.7768 24.2895 18.0359 23.3516 18.0988C23.2964 18.1025 23.2376 18.1062 23.1824 18.1099H23.1383C22.3034 18.1359 21.5348 17.9175 20.8544 17.5807C20.7882 17.5474 20.722 17.5141 20.6558 17.4808C20.2733 17.2735 19.9276 17.0292 19.6149 16.7776C19.3281 16.5481 19.0081 16.2705 18.6992 15.9707C18.6881 15.9596 18.6771 15.9485 18.6624 15.9337C18.221 15.497 17.3972 14.853 17.1471 14.3274C16.8455 14.5828 16.1394 19.9346 17.2832 21.3521C17.3126 21.3891 17.342 21.4261 17.3751 21.4594C17.4892 21.5964 17.6032 21.7259 17.7282 21.848C18.4858 22.6216 19.3943 23.1582 20.4204 23.4728C20.6043 23.5283 20.7918 23.5801 20.9868 23.6246C21.8474 23.8133 22.7852 23.8577 23.7709 23.7615C23.8812 23.7504 23.9879 23.7393 24.0982 23.7245C24.4035 23.6838 24.7161 23.632 25.0324 23.569C25.6282 23.4469 26.1688 23.2804 26.6543 23.0805C26.8051 23.0176 26.9522 22.951 27.0956 22.8769C28.3829 22.233 29.2361 21.2966 29.7216 20.1714C29.8283 19.9272 29.9165 19.6755 29.9901 19.4127C30.1114 18.9797 30.1887 18.5245 30.2218 18.0544C30.2622 17.3993 29.3097 13.6316 29.3134 13.7427Z" fill="#4A1D1D"/>
<path d="M21.4539 11.1112C21.0861 10.8632 20.5234 10.9372 20.0894 11.0371C19.4862 11.1778 17.9526 11.6441 18.4785 12.3177C18.4859 12.3288 18.4969 12.3325 18.5042 12.3399C18.4895 12.3843 18.5594 12.4288 18.6183 12.3991C18.6293 12.3954 18.644 12.388 18.6587 12.3843C18.7065 12.3806 18.7507 12.3621 18.7838 12.3362C19.192 12.2067 19.7143 12.1993 20.1225 12.203C20.6815 12.2067 21.1376 12.4695 21.704 12.4214C21.7996 12.4139 21.8621 12.3584 21.8658 12.2844C21.8952 11.8588 21.8989 11.4073 21.4539 11.1112Z" fill="#4A1D1D"/>
<path d="M24.3741 12.1956C24.3814 12.2696 24.4476 12.3177 24.5469 12.3177C25.1133 12.3214 25.5546 12.0253 26.11 11.9809C26.5182 11.9476 27.0405 11.9143 27.4561 12.0142C27.4929 12.0365 27.537 12.0513 27.5848 12.0513C27.5958 12.055 27.6106 12.0587 27.6253 12.0624C27.6878 12.0846 27.7503 12.0365 27.7356 11.992C27.743 11.9846 27.754 11.9772 27.7613 11.9698C28.2468 11.2592 26.6837 10.9113 26.0732 10.8114C25.6356 10.7411 25.0692 10.7115 24.7161 10.9853C24.2895 11.3184 24.3226 11.7663 24.3741 12.1956Z" fill="#4A1D1D"/>
<path d="M23.8665 17.3179C23.6569 17.0995 23.7929 16.6406 23.7672 16.3667C23.7304 16.0003 23.7378 15.6413 23.7047 15.2749C23.6789 14.9825 23.7194 14.3052 23.3774 14.0239C23.3222 13.7427 22.9654 13.7945 22.8146 14.0535C22.5646 14.4903 22.6602 15.0232 22.7043 15.4674C22.7411 15.8597 22.7632 16.2483 22.7742 16.648C22.7815 16.9108 22.8404 17.2994 22.708 17.5437C22.2115 17.403 21.612 17.2957 22.0386 17.8212C22.2519 18.084 22.9544 18.6392 23.4436 18.5541C23.9768 18.4615 24.6278 17.7509 24.7933 17.3993C25.0434 16.8664 24.238 17.1032 23.8665 17.3179Z" fill="#CD8B6D"/>
<path d="M19.8246 18.5356C19.8246 18.5356 23.5686 21.8924 26.3785 18.0285C26.3785 18.0285 24.7455 25.4048 19.8246 18.5356Z" fill="white"/>
<path d="M56.8897 25.3678C57.0441 25.6675 57.0368 26.0228 56.875 26.3152L49.1773 40.1499C47.7944 42.3705 44.9183 43.0996 42.6565 41.808L38.3534 39.3541L41.3361 34.1504L44.5322 36.0898L52.263 25.8045C52.2924 25.6342 52.3843 25.0384 52.377 24.0798C52.3733 23.7837 52.3181 23.4913 52.2188 23.21C52.0975 22.8732 51.9136 22.4291 51.7407 22.2181C51.5237 21.9554 51.737 21.5667 52.0349 21.6445C52.3328 21.7185 52.9434 22.4254 53.2229 23.4802C53.5024 24.535 54.2012 22.9695 54.4697 22.3995C54.7345 21.8332 55.6392 20.1159 55.8746 20.0604C56.224 19.979 56.3748 20.338 56.0953 20.9005C55.8121 21.4668 55.0986 23.1989 55.4038 23.3248C55.4038 23.3248 55.9445 23.4506 56.0769 23.7874L56.8897 25.3678Z" fill="#E8B299"/>
<path d="M55.9408 23.5912C55.9665 23.6023 55.904 23.8503 55.7826 24.2463C55.7127 24.4684 55.6392 24.6978 55.562 24.9347C55.5178 25.0679 55.4737 25.2012 55.4259 25.3381C55.4001 25.4047 55.3817 25.4899 55.3045 25.5713C55.2199 25.6638 55.0655 25.6601 54.9845 25.6157C54.8963 25.575 54.8374 25.5269 54.7712 25.4751C54.7087 25.4233 54.6351 25.3455 54.6131 25.2419C54.58 25.0309 54.6719 24.9051 54.7087 24.7793C54.8006 24.5461 54.8889 24.324 54.9735 24.1057C55.128 23.7245 55.2383 23.4913 55.2641 23.5024C55.2898 23.5098 55.2236 23.7578 55.1022 24.1538C55.0287 24.3758 54.9551 24.6053 54.8779 24.8422C54.8374 24.9717 54.7712 25.1124 54.797 25.2012C54.808 25.2826 54.9588 25.3862 55.0655 25.4455C55.1243 25.4677 55.15 25.464 55.1758 25.4418C55.2052 25.4158 55.231 25.3492 55.2567 25.2789C55.3082 25.142 55.356 25.0087 55.4038 24.8792C55.4921 24.646 55.5803 24.4203 55.6613 24.2056C55.8084 23.8133 55.915 23.5801 55.9408 23.5912Z" fill="#CD8B6D"/>
<path d="M56.2203 24.7608C56.246 24.7682 56.1909 24.9939 56.0879 25.3529C56.0254 25.5602 55.9592 25.7675 55.893 25.9821L55.8341 26.1635C55.8084 26.2264 55.7826 26.3078 55.698 26.3707C55.6098 26.4374 55.4847 26.4188 55.4112 26.3818C55.3339 26.3448 55.2751 26.3004 55.2162 26.256C55.1574 26.2079 55.0912 26.145 55.0544 26.0561C55.0176 25.9636 55.0287 25.8711 55.0471 25.7971C55.0912 25.649 55.139 25.5417 55.1831 25.4233C55.2641 25.216 55.345 25.0124 55.4259 24.8126C55.5693 24.4684 55.6686 24.2574 55.6944 24.2685C55.7201 24.2759 55.6649 24.5017 55.5546 24.8607C55.4884 25.0642 55.4222 25.2715 55.3523 25.4862C55.3155 25.6009 55.2641 25.7304 55.2346 25.8452C55.2052 25.9636 55.2309 26.0265 55.3376 26.108C55.4443 26.1968 55.5583 26.256 55.5951 26.219C55.6465 26.1894 55.6907 26.0302 55.7348 25.9229C55.8157 25.7156 55.893 25.5121 55.9665 25.3122C56.0952 24.9643 56.1945 24.7534 56.2203 24.7608Z" fill="#CD8B6D"/>
<path d="M56.7315 25.4085C56.7573 25.4159 56.7021 25.6416 56.5991 26.0006C56.5366 26.2079 56.4704 26.4152 56.4042 26.6298L56.3453 26.8112C56.3196 26.8741 56.2939 26.9555 56.2093 27.0184C56.1173 27.0851 55.996 27.0665 55.9224 27.0295C55.8452 26.9925 55.7863 26.9481 55.7275 26.9037C55.6686 26.8556 55.6024 26.7927 55.5656 26.7038C55.5289 26.6113 55.5399 26.5188 55.5583 26.4448C55.6024 26.2967 55.6502 26.1894 55.6944 26.071C55.7753 25.8637 55.8562 25.6601 55.9371 25.4603C56.0805 25.1161 56.1798 24.9051 56.2056 24.9162C56.2313 24.9236 56.1762 25.1494 56.0658 25.5084C55.9996 25.712 55.9334 25.9192 55.8635 26.1339C55.8268 26.2486 55.7753 26.3781 55.7459 26.4929C55.7164 26.6113 55.7422 26.6742 55.8488 26.7557C55.9555 26.8445 56.0695 26.9037 56.1063 26.8667C56.1578 26.8371 56.2019 26.6779 56.246 26.5706C56.3269 26.3633 56.4042 26.1598 56.4777 25.9599C56.6065 25.612 56.7058 25.4011 56.7315 25.4085Z" fill="#CD8B6D"/>
<path d="M54.4108 26.7668C54.3556 26.7557 54.4733 26.2338 54.2747 25.6379C54.0908 25.0384 53.6936 24.683 53.7341 24.6386C53.7488 24.6201 53.8702 24.683 54.0246 24.8385C54.1791 24.9939 54.3556 25.253 54.4586 25.575C54.5616 25.897 54.5689 26.2116 54.5322 26.43C54.4991 26.6483 54.4365 26.7705 54.4108 26.7668Z" fill="#CD8B6D"/>
<path d="M26.7058 25.9266C27.9857 26.0006 30.1335 26.1746 34.374 28.6691C35.3008 29.2132 44.8154 35.6419 44.8154 35.6419L40.6006 41.0677L32.8441 36.6708L33.8886 46.0198L35.0508 57.1341L16.2534 56.8935L15.7826 45.7311L15.6245 38.1402L14.4329 48.2737L7 47.5631L9.04855 34.2096C9.29864 32.5811 9.94226 31.0193 11.0088 29.7683C12.2887 28.2657 13.9217 27.3515 15.7863 26.6705C16.6028 26.3744 18.221 26.0932 19.2913 26.0265C19.2913 26.0265 20.9426 28.7024 23.4619 28.7024C25.9812 28.7024 26.7058 25.9266 26.7058 25.9266Z" fill="#263238"/>
<path d="M15.9629 55.8869V118.339H25.6392L26.4925 64.1736L29.8871 118.339H39.5598L35.2346 56.9417L15.9629 55.8869Z" fill="#45758B"/>
<path d="M27.3163 56.3569C27.342 56.3569 27.3715 56.7418 27.3972 57.3599C27.4229 57.9817 27.4487 58.8403 27.4634 59.7878C27.4671 60.2578 27.4708 60.7094 27.4744 61.1239C27.4744 61.5347 27.4266 61.9233 27.2722 62.2194C27.1214 62.5155 26.897 62.7006 26.7205 62.7857C26.5439 62.8708 26.4299 62.8745 26.4299 62.8671C26.4263 62.8523 26.5292 62.8301 26.6837 62.7302C26.8345 62.6339 27.0294 62.4526 27.1508 62.1713C27.2758 61.8937 27.3126 61.531 27.3016 61.1239C27.2942 60.7057 27.2832 60.2578 27.2758 59.7878C27.2611 58.8403 27.2574 57.9817 27.2648 57.3599C27.2758 56.7418 27.2905 56.3569 27.3163 56.3569Z" fill="#455A64"/>
<path d="M25.5804 57.0638C25.5988 57.0823 25.4516 57.1601 25.448 57.3636C25.4443 57.4598 25.4847 57.5783 25.5877 57.6412C25.687 57.7078 25.8525 57.6967 25.9776 57.6153C26.1725 57.4969 26.1431 57.2785 25.9996 57.1749C25.8636 57.0638 25.6981 57.0601 25.6098 57.0897L25.6061 57.0231C25.687 57.0601 25.7275 57.086 25.7201 57.0971C25.7164 57.1082 25.665 57.1082 25.5804 57.0897L25.5031 57.0749L25.5767 57.0231C25.6723 56.9565 25.904 56.9269 26.1026 57.0601C26.1982 57.1267 26.2902 57.2341 26.3012 57.3784C26.3123 57.5191 26.224 57.6634 26.0916 57.7448C25.915 57.8633 25.6539 57.8781 25.4921 57.7559C25.3303 57.6375 25.3045 57.4635 25.3266 57.3414C25.3487 57.2156 25.4185 57.1304 25.4811 57.0897C25.5326 57.0564 25.5767 57.0527 25.5804 57.0638Z" fill="#455A64"/>
<path d="M32.4395 44.8873C32.1857 44.5542 29.1294 45.0834 29.1294 45.0834L30.2438 44.2322C29.6774 43.2181 27.7135 44.4468 27.0883 45.039C26.9228 45.1982 26.8308 45.4165 26.7793 45.6497L14.4513 48.2664L7.57005 47.5595C7.57005 47.5595 7.43397 48.7549 7.08826 51.0089C6.76093 53.137 10.2438 55.2281 12.399 54.9209C14.3703 54.6433 26.4189 51.1939 28.4711 50.6054C28.6624 50.5499 28.769 50.5203 28.769 50.5203L28.7653 50.5055C29.431 50.276 31.0199 49.7024 31.1854 49.4137C31.395 49.0473 31.3398 46.1752 31.3398 46.1752L32.4726 45.6719C32.4689 45.6756 32.6969 45.2204 32.4395 44.8873Z" fill="#E8B299"/>
<path d="M19.9654 35.9958C20.4985 35.9958 20.9307 35.5673 20.9307 35.0387C20.9307 34.5101 20.4985 34.0816 19.9654 34.0816C19.4322 34.0816 19 34.5101 19 35.0387C19 35.5673 19.4322 35.9958 19.9654 35.9958Z" fill="#CA3D3D"/>
<path d="M19.6948 35.5081C19.6333 35.5142 19.6056 35.5233 19.5933 35.5965L19.5503 35.9013C19.6456 35.947 19.7501 35.9775 19.8608 35.9897L19.8116 35.5721C19.8085 35.5294 19.7532 35.502 19.6948 35.5081Z" fill="#263238"/>
<path d="M20.0699 35.5295C20.0699 35.5874 20.0238 35.5874 19.9654 35.5874C19.907 35.5874 19.8608 35.5874 19.8608 35.5295V35.1058C19.8608 35.0479 19.907 35.0021 19.9654 35.0021C20.0238 35.0021 20.0699 35.0479 20.0699 35.1058V35.5295Z" fill="#E8B299"/>
<path d="M19.8577 35.4655C19.8639 35.4655 19.8731 35.4655 19.8792 35.4655C19.9469 35.4655 20.0114 35.4533 20.0699 35.435V35.1088C20.0699 35.0509 20.0237 35.0052 19.9653 35.0052C19.9069 35.0052 19.8608 35.0509 19.8608 35.1088V35.4655H19.8577Z" fill="#CD8B6D"/>
<path d="M20.3005 35.5081H20.0699C20.0699 35.5813 19.8577 35.5813 19.8577 35.5081H19.701C19.6733 35.5081 19.6518 35.5386 19.6518 35.5752L19.6671 35.9501C19.7624 35.9806 19.8608 35.9958 19.9654 35.9958C20.1006 35.9958 20.2267 35.9684 20.3435 35.9196L20.3466 35.5752C20.3497 35.5386 20.3281 35.5081 20.3005 35.5081Z" fill="#263238"/>
<path d="M20.2574 35.5599C20.199 35.5782 20.2051 35.6544 20.2144 35.7337C20.2205 35.7885 20.2451 35.9562 20.2451 35.9562C20.2789 35.947 20.3127 35.9348 20.3466 35.9196L20.3496 35.5965L20.3404 35.563C20.325 35.5233 20.3158 35.5416 20.2574 35.5599Z" fill="#263238"/>
<path d="M20.4019 35.5569C20.3896 35.5172 20.3312 35.499 20.2728 35.5172C20.2144 35.5355 20.1775 35.5813 20.1898 35.6209L20.2943 35.9409C20.365 35.9166 20.4296 35.883 20.4911 35.8434L20.4019 35.5569Z" fill="#263238"/>
<path d="M19.5657 34.6882C19.5657 34.6882 19.4304 34.4626 19.3689 34.6547C19.3105 34.8467 19.4458 34.9412 19.538 34.9229C19.6302 34.9046 19.5657 34.6882 19.5657 34.6882Z" fill="#CD8B6D"/>
<path d="M19.5472 34.7248C19.5472 34.7248 19.4519 34.5815 19.4181 34.6394C19.3843 34.6973 19.3935 34.7705 19.3935 34.7705C19.3935 34.7705 19.415 34.6912 19.4765 34.737C19.4765 34.737 19.415 34.865 19.538 34.8284C19.538 34.8284 19.5872 34.7888 19.5472 34.7248Z" fill="#B66C50"/>
<path d="M20.3712 34.6638C20.3712 34.6638 20.5126 34.4382 20.5679 34.6333C20.6233 34.8284 20.4849 34.9168 20.3927 34.8985C20.3035 34.8802 20.3712 34.6638 20.3712 34.6638Z" fill="#CD8B6D"/>
<path d="M20.3742 34.7156C20.3742 34.7156 20.4726 34.5723 20.5033 34.6302C20.5372 34.6882 20.5249 34.7613 20.5249 34.7613C20.5249 34.7613 20.5064 34.6821 20.4449 34.7278C20.4449 34.7278 20.5033 34.8558 20.3804 34.8192C20.3834 34.8192 20.3312 34.7796 20.3742 34.7156Z" fill="#B66C50"/>
<path d="M19.9961 35.3862C19.5595 35.3831 19.4919 34.9686 19.4827 34.8223C19.4796 34.7613 19.4827 34.6638 19.4888 34.5662C19.4981 34.426 19.5134 34.2919 19.5196 34.2797C19.6487 33.9505 20.076 33.9627 20.2205 34.0602C20.4019 34.1852 20.4142 34.3224 20.4142 34.3224C20.4296 34.4047 20.4419 34.487 20.448 34.5693C20.4788 34.9899 20.362 35.3862 19.9961 35.3862Z" fill="#E8B299"/>
<path d="M19.8055 34.6638C19.8055 34.7095 19.7717 34.7491 19.7317 34.7491C19.6917 34.7491 19.661 34.7095 19.661 34.6638C19.661 34.6181 19.6948 34.5784 19.7348 34.5784C19.7747 34.5784 19.8055 34.6181 19.8055 34.6638Z" fill="#4A1D1D"/>
<path d="M20.2789 34.6668C20.2789 34.7126 20.2451 34.7522 20.2051 34.7522C20.1652 34.7522 20.1344 34.7126 20.1344 34.6668C20.1344 34.6211 20.1682 34.5815 20.2082 34.5815C20.2482 34.5815 20.2789 34.6211 20.2789 34.6668Z" fill="#4A1D1D"/>
<path d="M20.4572 34.6242C20.4572 34.6699 20.3804 34.7309 20.3527 34.7674C20.3466 34.7735 20.3435 34.7827 20.3373 34.7888C20.3035 34.8284 20.2574 34.8619 20.2051 34.8894C20.199 34.8924 20.1928 34.8955 20.1836 34.8985C20.116 34.9259 20.0422 34.9442 19.9653 34.9473C19.9623 34.9473 19.9561 34.9473 19.953 34.9473H19.95C19.8823 34.9473 19.8239 34.9259 19.7717 34.8985C19.7655 34.8955 19.7624 34.8924 19.7563 34.8894C19.7255 34.8711 19.7009 34.8528 19.6763 34.8314C19.6548 34.8132 19.6302 34.7888 19.6056 34.7644L19.6026 34.7613C19.5687 34.7248 19.5073 34.6729 19.4888 34.6303C19.4642 34.6486 19.3904 35.0661 19.4765 35.1789C19.4796 35.182 19.4796 35.185 19.4827 35.1881C19.4919 35.2003 19.5011 35.2094 19.5103 35.2186C19.5687 35.2826 19.6395 35.3283 19.7194 35.3557C19.7348 35.3618 19.7501 35.3649 19.7624 35.3679C19.8301 35.3862 19.9039 35.3923 19.9838 35.3892C19.993 35.3892 20.0022 35.3892 20.0115 35.3862C20.0361 35.3832 20.0606 35.3801 20.0852 35.3771C20.1344 35.371 20.1775 35.3588 20.2144 35.3435C20.2267 35.3405 20.239 35.3344 20.2513 35.3283C20.3558 35.2826 20.4265 35.2125 20.4695 35.1271C20.4788 35.1088 20.488 35.0875 20.4941 35.0692C20.5064 35.0357 20.5126 34.9991 20.5187 34.9625C20.5187 34.9137 20.4572 34.615 20.4572 34.6242Z" fill="#4A1D1D"/>
<path d="M19.8424 34.39C19.8147 34.3686 19.7686 34.3717 19.7348 34.3808C19.6856 34.39 19.5626 34.4204 19.6026 34.4753C19.6026 34.4753 19.6026 34.4753 19.6056 34.4784C19.6056 34.4814 19.6087 34.4845 19.6149 34.4845H19.6179C19.621 34.4845 19.6241 34.4845 19.6271 34.4814C19.661 34.4723 19.7009 34.4753 19.7348 34.4753C19.7778 34.4784 19.8147 34.4997 19.8608 34.4966C19.867 34.4966 19.8731 34.4936 19.8731 34.4875C19.8731 34.4509 19.8762 34.4143 19.8424 34.39Z" fill="#4A1D1D"/>
<path d="M20.0699 34.484C20.0699 34.49 20.076 34.4931 20.0822 34.4931C20.1283 34.4961 20.1621 34.4748 20.2082 34.4718C20.242 34.4718 20.282 34.4687 20.3158 34.4779C20.3189 34.4809 20.322 34.4809 20.325 34.4809H20.3281C20.3343 34.484 20.3373 34.4779 20.3373 34.4748C20.3373 34.4748 20.3373 34.4748 20.3404 34.4718C20.3804 34.4169 20.2574 34.3864 20.2113 34.3742C20.1775 34.3681 20.1313 34.362 20.1037 34.3834C20.0668 34.4169 20.0668 34.4504 20.0699 34.484Z" fill="#4A1D1D"/>
<path d="M20.0114 34.8832C19.9961 34.865 20.0084 34.8314 20.0084 34.807C20.0053 34.7796 20.0084 34.7491 20.0084 34.7217C20.0084 34.6973 20.0145 34.6455 19.9869 34.6242C19.9838 34.6028 19.9561 34.6059 19.9407 34.6242C19.9192 34.6577 19.9254 34.7004 19.9284 34.7339C19.9315 34.7644 19.9315 34.7949 19.9284 34.8253C19.9284 34.8467 19.9315 34.8772 19.9192 34.8954C19.8793 34.8832 19.8331 34.8711 19.8639 34.9137C19.8792 34.9351 19.9346 34.9808 19.9715 34.9747C20.0145 34.9686 20.0699 34.9168 20.0822 34.8893C20.1068 34.8528 20.0422 34.868 20.0114 34.8832Z" fill="#CD8B6D"/>
<path d="M19.6856 34.9656C19.6856 34.9656 19.9715 35.2399 20.2082 34.9473C20.2082 34.9473 20.0545 35.5203 19.6856 34.9656Z" fill="white"/>
<path d="M21.189 34.676H21.6163C21.687 34.676 21.7393 34.6912 21.7731 34.7247C21.8069 34.7583 21.8223 34.807 21.8223 34.8802V34.9808C21.8223 35.0509 21.8069 35.1027 21.7731 35.1362C21.7393 35.1698 21.6901 35.185 21.6163 35.185H21.3703V35.3862H21.1859V34.676H21.189ZM21.6378 34.8802C21.6378 34.8406 21.6163 34.8192 21.5763 34.8192H21.3734V35.0417H21.5763C21.6163 35.0417 21.6378 35.0204 21.6378 34.9808V34.8802Z" fill="white"/>
<path d="M21.9791 35.3862H21.7792L22.0498 34.679H22.2527L22.5232 35.3862H22.3234L22.2773 35.2612H22.0221L21.9791 35.3862ZM22.0713 35.1271H22.2342L22.1512 34.8893L22.0713 35.1271Z" fill="white"/>
<path d="M22.5786 34.676H23.0059C23.0766 34.676 23.1289 34.6912 23.1627 34.7247C23.1965 34.7583 23.2119 34.807 23.2119 34.8802V34.9808C23.2119 35.0509 23.1965 35.1027 23.1627 35.1362C23.1289 35.1698 23.0797 35.185 23.0059 35.185H22.76V35.3862H22.5755V34.676H22.5786ZM23.0274 34.8802C23.0274 34.8406 23.0059 34.8192 22.9659 34.8192H22.763V35.0417H22.9659C23.0059 35.0417 23.0274 35.0204 23.0274 34.9808V34.8802Z" fill="white"/>
<path d="M23.6392 35.3862H23.2734V35.246H23.3656V34.8223H23.2734V34.6821H23.6392V34.8223H23.547V35.246H23.6392V35.3862Z" fill="white"/>
<path d="M24.128 34.676C24.2049 34.676 24.2633 34.6943 24.3033 34.7339C24.3432 34.7735 24.3617 34.8314 24.3617 34.9076V35.1515C24.3617 35.2277 24.3432 35.2856 24.3033 35.3252C24.2633 35.3648 24.2049 35.3831 24.128 35.3831H23.7314V34.676H24.128ZM24.1803 34.9107C24.1803 34.8497 24.1496 34.8192 24.0881 34.8192H23.9159V35.2429H24.0881C24.1496 35.2429 24.1803 35.2124 24.1803 35.1515V34.9107Z" fill="#CA3D3D"/>
<path d="M24.8013 35.3862H24.4355V35.246H24.5277V34.8223H24.4355V34.6821H24.8013V34.8223H24.7091V35.246H24.8013V35.3862Z" fill="#CA3D3D"/>
<path d="M25.0657 35.3923C24.9981 35.3923 24.9489 35.377 24.9182 35.3466C24.8874 35.3161 24.872 35.2673 24.872 35.2002V34.8771C24.872 34.807 24.8874 34.7552 24.9212 34.7247C24.955 34.6943 25.0042 34.676 25.078 34.676H25.4439V34.8162H25.118C25.078 34.8162 25.0565 34.8375 25.0565 34.8771V35.2002C25.0565 35.2155 25.0596 35.2277 25.0688 35.2368C25.078 35.246 25.0903 35.249 25.1057 35.249C25.1272 35.249 25.1487 35.249 25.1733 35.249C25.1979 35.249 25.2225 35.249 25.244 35.249C25.2686 35.249 25.2932 35.249 25.3209 35.249V35.0997H25.1887V34.9777H25.5054V35.3679C25.4531 35.374 25.4039 35.377 25.3516 35.377C25.3086 35.3831 25.2594 35.3892 25.2102 35.3892C25.158 35.3923 25.1088 35.3923 25.0657 35.3923Z" fill="#CA3D3D"/>
<path d="M25.945 35.3862H25.5791V35.246H25.6714V34.8223H25.5791V34.6821H25.945V34.8223H25.8528V35.246H25.945V35.3862Z" fill="#CA3D3D"/>
<path d="M26.3816 35.3862H26.1971V34.8192H25.9819V34.679H26.5937V34.8192H26.3785V35.3862H26.3816Z" fill="#CA3D3D"/>
<path d="M26.7228 35.3862H26.523L26.7935 34.679H26.9964L27.267 35.3862H27.0671L27.021 35.2612H26.7659L26.7228 35.3862ZM26.815 35.1271H26.978L26.895 34.8893L26.815 35.1271Z" fill="#CA3D3D"/>
<path d="M27.5037 35.2429H27.8757V35.3831H27.3192V34.676H27.5037V35.2429Z" fill="#CA3D3D"/>
</g>
</g>
<defs>
<clipPath id="clip0">
<rect width="200" height="72" fill="white"/>
</clipPath>
<clipPath id="clip1">
<rect width="75" height="79" fill="white" transform="translate(107 -7)"/>
</clipPath>
<clipPath id="clip2">
<rect width="50" height="115" fill="white" transform="translate(7 6)"/>
</clipPath>
</defs>
</svg>
