<svg width="200" height="116" viewBox="0 0 200 116" fill="none" xmlns="http://www.w3.org/2000/svg">
<g clip-path="url(#clip0)">
<g opacity="0.5">
<path opacity="0.5" d="M171.382 21.2472L199.999 21.2472V17.5734L171.382 17.5734V21.2472Z" fill="#78909C"/>
<path opacity="0.5" d="M146.093 21.2472L168.739 21.2472V17.5734L146.093 17.5734V21.2472Z" fill="#78909C"/>
</g>
<g opacity="0.5">
<path opacity="0.5" d="M63.1028 78.7875H24.4882V82.4613H63.1028V78.7875Z" fill="#78909C"/>
<path opacity="0.5" d="M91.6629 78.7875H69.0173V82.4613H91.6629V78.7875Z" fill="#78909C"/>
</g>
<g opacity="0.4">
<path opacity="0.4" d="M38.6147 66.5491H0V70.2229H38.6147V66.5491Z" fill="#78909C"/>
<path opacity="0.4" d="M67.1747 66.5491H44.5291V70.2229H67.1747V66.5491Z" fill="#78909C"/>
</g>
<path d="M118.653 88.3531H47.6911V97.1793H118.653V88.3531Z" fill="url(#paint0_linear)"/>
<path d="M66.9359 88.3531H47.7252V97.1793H66.9359V88.3531Z" fill="url(#paint1_linear)"/>
<path d="M118.642 97.1793L130.414 92.7662L118.642 88.3531V97.1793Z" fill="#F8FEFE"/>
<path d="M131.824 89.7066H127.468V96.4627H131.824V89.7066Z" fill="#6D6E71"/>
<path d="M64.8999 6.93814C54.7202 6.93814 46.4399 15.0478 46.1442 25.1593H64.8999V6.93814Z" fill="#FFD914"/>
<path d="M83.6556 25.1593C83.3599 15.0478 75.0796 6.93814 64.8999 6.93814V25.1593H83.6556V25.1593Z" fill="#FF7B52"/>
<path d="M46.1442 25.1592C46.1329 25.3412 46.1329 25.5232 46.1329 25.7166C46.1329 36.0783 54.5382 44.4836 64.8999 44.4836V25.1592H46.1442Z" fill="#2E7D32"/>
<path d="M64.8999 25.1592V44.4836C75.2616 44.4836 83.667 36.0783 83.667 25.7166C83.667 25.5346 83.6556 25.3526 83.6556 25.1592H64.8999Z" fill="#26C6DA"/>
<path d="M66.2762 26.5355H46.1442C45.3822 26.5355 44.768 25.9213 44.768 25.1593C44.768 24.3972 45.3822 23.783 46.1442 23.783H63.5237V6.93814C63.5237 6.17608 64.1379 5.56189 64.8999 5.56189C65.662 5.56189 66.2762 6.17608 66.2762 6.93814V26.5355V26.5355Z" fill="#78909C"/>
<path d="M196.269 94.1765L151.763 99.1356C150.785 99.2493 149.909 98.5441 149.795 97.566L143.13 37.8298C143.016 36.8517 143.722 35.9759 144.7 35.8621L189.206 30.9031C190.184 30.7893 191.06 31.4945 191.174 32.4727L197.839 92.2088C197.941 93.187 197.247 94.0628 196.269 94.1765Z" fill="white"/>
<path d="M192.948 96.8039L148.157 96.9063C147.179 96.9063 146.383 96.1101 146.372 95.1319L146.235 35.0318C146.235 34.0537 147.031 33.2575 148.01 33.2461L192.8 33.1438C193.778 33.1438 194.586 33.9399 194.586 34.9181L194.722 95.0182C194.722 95.9964 193.926 96.8039 192.948 96.8039Z" fill="white"/>
<path d="M148.157 97.0769C147.077 97.0769 146.201 96.2011 146.201 95.1319L146.065 35.0319C146.065 34.5087 146.269 34.0196 146.633 33.6442C146.997 33.2689 147.498 33.0642 148.01 33.0642L192.8 32.9618C193.881 32.9618 194.757 33.8376 194.757 34.9181L194.893 95.0182C194.893 96.0987 194.017 96.9745 192.937 96.9745L148.157 97.0769ZM192.812 33.3144L148.021 33.4168C147.589 33.4168 147.191 33.5874 146.895 33.8831C146.588 34.1902 146.429 34.5883 146.429 35.0205L146.565 95.1206C146.565 95.9964 147.282 96.7129 148.169 96.7129V96.8949V96.7129L192.96 96.6106C193.847 96.6106 194.563 95.894 194.552 95.0068L194.415 34.9067C194.404 34.0309 193.687 33.3144 192.812 33.3144Z" fill="#BFBFBF"/>
<path d="M192.727 37.017L148.073 37.1188L148.083 41.7708L192.738 41.669L192.727 37.017Z" fill="#E1EBF0"/>
<path d="M189.683 38.918L150.682 38.994L150.684 39.9266L189.685 39.8507L189.683 38.918Z" fill="#B5B5B5"/>
<path d="M150.891 45.4841L150.481 45.485L150.52 62.2389L150.93 62.238L150.891 45.4841Z" fill="#ED9B13"/>
<path d="M189.729 61.9032L150.728 61.9825L150.729 62.4602L189.73 62.3809L189.729 61.9032Z" fill="#ED9B13"/>
<path d="M157.677 54.4586C157.677 55.0046 157.245 55.4368 156.699 55.4482C156.153 55.4482 155.721 55.016 155.71 54.47C155.71 53.9241 156.153 53.4918 156.688 53.4805C157.234 53.4805 157.677 53.9127 157.677 54.4586Z" fill="#EB5A49"/>
<path d="M164.775 56.1761C164.775 56.722 164.343 57.1542 163.797 57.1656C163.251 57.1656 162.818 56.7334 162.807 56.1875C162.807 55.6415 163.239 55.2093 163.785 55.2093C164.331 55.1979 164.775 55.6301 164.775 56.1761Z" fill="#EB5A49"/>
<path d="M171.713 52.6957C171.713 53.2416 171.281 53.6738 170.735 53.6852C170.189 53.6852 169.757 53.253 169.745 52.707C169.745 52.1611 170.177 51.7289 170.723 51.7175C171.281 51.7175 171.713 52.1497 171.713 52.6957Z" fill="#EB5A49"/>
<path d="M177.207 54.0378C177.207 54.5837 176.774 55.0159 176.228 55.0273C175.682 55.0273 175.25 54.5951 175.25 54.0491C175.25 53.5032 175.682 53.071 176.228 53.071C176.763 53.0596 177.195 53.5032 177.207 54.0378Z" fill="#EB5A49"/>
<path d="M183.292 51.3535C183.292 51.8995 182.848 52.3317 182.313 52.3317C181.768 52.3317 181.335 51.8995 181.324 51.3535C181.313 50.8076 181.756 50.3754 182.302 50.364C182.848 50.3754 183.292 50.8189 183.292 51.3535Z" fill="#EB5A49"/>
<path d="M156.644 54.2993L150.655 56.4343L150.774 56.7664L156.762 54.6314L156.644 54.2993Z" fill="#EB5A49"/>
<path d="M163.751 56.3467L156.654 54.6292L156.745 54.288L163.831 56.0055L163.751 56.3467Z" fill="#EB5A49"/>
<path d="M163.865 56.3353L163.706 56.0168L170.655 52.5364L170.814 52.8549L163.865 56.3353Z" fill="#EB5A49"/>
<path d="M170.788 52.524L170.703 52.8664L176.182 54.213L176.266 53.8706L170.788 52.524Z" fill="#EB5A49"/>
<path d="M176.297 54.2084L176.149 53.8785L182.234 51.1943L182.382 51.5241L176.297 54.2084Z" fill="#EB5A49"/>
<path d="M157.689 58.6556C157.689 59.2016 157.257 59.6338 156.711 59.6451C156.165 59.6451 155.732 59.2129 155.721 58.667C155.721 58.121 156.165 57.6888 156.699 57.6888C157.245 57.6661 157.689 58.1097 157.689 58.6556Z" fill="#0D3656"/>
<path d="M164.763 51.7289C164.763 52.2748 164.331 52.7184 163.785 52.7184C163.239 52.7184 162.796 52.2862 162.796 51.7402C162.796 51.1943 163.228 50.7621 163.774 50.7507C164.32 50.7507 164.763 51.1829 164.763 51.7289Z" fill="#0D3656"/>
<path d="M172.191 58.0642C172.191 58.6101 171.747 59.0423 171.212 59.0537C170.667 59.0537 170.234 58.6101 170.223 58.0755C170.223 57.5296 170.655 57.0974 171.201 57.086C171.747 57.086 172.179 57.5296 172.191 58.0642Z" fill="#0D3656"/>
<path d="M177.195 50.3867C177.195 50.9327 176.763 51.3649 176.217 51.3763C175.671 51.3763 175.239 50.9441 175.227 50.3981C175.227 49.8522 175.66 49.4199 176.206 49.4086C176.752 49.4086 177.195 49.8522 177.195 50.3867Z" fill="#0D3656"/>
<path d="M186.863 48.4077C186.863 48.9536 186.431 49.3858 185.885 49.3972C185.339 49.3972 184.907 48.965 184.895 48.419C184.895 47.8731 185.339 47.4409 185.874 47.4409C186.419 47.4181 186.863 47.8617 186.863 48.4077Z" fill="#0D3656"/>
<path d="M163.657 51.5973L156.579 58.5132L156.826 58.7654L163.903 51.8495L163.657 51.5973Z" fill="#0D3656"/>
<path d="M171.087 58.2007L163.66 51.8653L163.899 51.5924L171.315 57.9391L171.087 58.2007Z" fill="#0D3656"/>
<path d="M176.069 50.3081L171.047 57.9776L171.342 58.1708L176.364 50.5013L176.069 50.3081Z" fill="#0D3656"/>
<path d="M185.843 48.2316L176.173 50.2189L176.244 50.5643L185.914 48.5769L185.843 48.2316Z" fill="#0D3656"/>
<path d="M156.711 58.477L150.728 58.4933L150.729 58.8459L156.712 58.8296L156.711 58.477Z" fill="#0D3656"/>
<path d="M152.933 64.4086L150.737 64.4135L150.742 66.5518L152.937 66.5469L152.933 64.4086Z" fill="#B5B5B5"/>
<path d="M170.415 65.0755L154.355 65.1114L154.358 66.1805L170.418 66.1446L170.415 65.0755Z" fill="#B5B5B5"/>
<path d="M174.078 65.0683L171.849 65.0731L171.851 66.1423L174.08 66.1374L174.078 65.0683Z" fill="#B5B5B5"/>
<path d="M189.376 65.0324L175.886 65.0634L175.889 66.0871L189.378 66.0561L189.376 65.0324Z" fill="#B5B5B5"/>
<path d="M150.262 76.6151L150.25 68.8126H150.432L190.616 68.7216L190.639 76.5241H190.457L150.262 76.6151ZM150.603 69.1651L150.614 76.2511L190.264 76.1601L190.253 69.0742L150.603 69.1651Z" fill="#B5B5B5"/>
<path d="M190.435 71.5614L150.421 71.6832L150.422 72.0358L190.436 71.914L190.435 71.5614Z" fill="#B5B5B5"/>
<path d="M182.973 76.3649L182.962 68.9149H183.314L183.326 76.3649H182.973Z" fill="#B5B5B5"/>
<path d="M175.742 68.9374L175.39 68.9382L175.407 76.3768L175.76 76.376L175.742 68.9374Z" fill="#B5B5B5"/>
<path d="M167.834 76.399L167.812 68.949H168.164L168.187 76.399H167.834Z" fill="#B5B5B5"/>
<path d="M160.593 68.9715L160.24 68.9723L160.257 76.4109L160.609 76.4101L160.593 68.9715Z" fill="#B5B5B5"/>
<path d="M153.017 68.9829L152.665 68.9837L152.682 76.4223L153.035 76.4215L153.017 68.9829Z" fill="#B5B5B5"/>
<path d="M158.894 70.1159L154.368 70.1255L154.368 70.5009L158.895 70.4912L158.894 70.1159Z" fill="#B5B5B5"/>
<path d="M165.798 70.0951L163.114 70.1009L163.115 70.4762L165.799 70.4704L165.798 70.0951Z" fill="#B5B5B5"/>
<path d="M174.101 70.2633L169.427 70.274L169.428 70.6493L174.102 70.6386L174.101 70.2633Z" fill="#B5B5B5"/>
<path d="M189.24 70.2297L184.577 70.2394L184.578 70.6147L189.241 70.605L189.24 70.2297Z" fill="#B5B5B5"/>
<path d="M180.778 70.2539L177.821 70.2607L177.822 70.636L180.779 70.6292L180.778 70.2539Z" fill="#B5B5B5"/>
<path d="M157.801 73.2684L155.436 73.2743L155.439 74.605L157.805 74.5992L157.801 73.2684Z" fill="#B5B5B5"/>
<path d="M165.638 73.2571L163.272 73.2629L163.276 74.5937L165.641 74.5879L165.638 73.2571Z" fill="#B5B5B5"/>
<path d="M172.952 73.2348L170.586 73.2396L170.589 74.5703L172.954 74.5655L172.952 73.2348Z" fill="#B5B5B5"/>
<path d="M180.493 73.2229L178.127 73.2288L178.13 74.5595L180.496 74.5537L180.493 73.2229Z" fill="#B5B5B5"/>
<path d="M188.102 73.2007L185.736 73.2055L185.739 74.5363L188.105 74.5314L188.102 73.2007Z" fill="#B5B5B5"/>
<path d="M151.854 74.6133H151.444L151.433 73.0664H151.854V74.6133Z" fill="#B5B5B5"/>
<path d="M151.672 70.1316L151.103 70.1326L151.104 70.8036L151.673 70.8027L151.672 70.1316Z" fill="#B5B5B5"/>
<path d="M190.457 79.5043L150.443 79.5954L150.445 80.4598L190.459 80.3687L190.457 79.5043Z" fill="#B5B5B5"/>
<path d="M164.479 83.1631L150.784 83.1931L150.786 83.8869L164.48 83.8569L164.479 83.1631Z" fill="#B5B5B5"/>
<path d="M190.457 84.8847L150.784 84.9748L150.786 85.6686L190.458 85.5785L190.457 84.8847Z" fill="#B5B5B5"/>
<path d="M190.468 88.0812L150.796 88.1704L150.797 88.8642L190.47 88.775L190.468 88.0812Z" fill="#B5B5B5"/>
<path d="M183.382 89.8747L150.796 89.9484L150.797 90.6422L183.384 90.5685L183.382 89.8747Z" fill="#B5B5B5"/>
<path d="M170.814 86.3514L150.784 86.397L150.786 87.0908L170.816 87.0452L170.814 86.3514Z" fill="#B5B5B5"/>
<path d="M190.468 86.2965L172.122 86.3381L172.124 87.032L190.47 86.9903L190.468 86.2965Z" fill="#B5B5B5"/>
<path d="M179.845 83.129L166.151 83.1591L166.152 83.8529L179.846 83.8228L179.845 83.129Z" fill="#B5B5B5"/>
<path d="M190.457 83.0996L181.449 83.12L181.45 83.8138L190.458 83.7935L190.457 83.0996Z" fill="#B5B5B5"/>
<path d="M147.85 95.4618V95.1092L147.714 34.4063L193.073 34.3039V34.6565L193.21 95.3594L147.85 95.4618ZM148.419 35.1115L148.556 94.7566L192.505 94.6542L192.368 35.0091L148.419 35.1115Z" fill="#ACB4B8"/>
<path d="M160.919 78.5714H139.456V92.914H160.919V78.5714Z" fill="#FFCCBC"/>
<path d="M160.919 78.5714H150.182V92.914H160.919V78.5714Z" fill="#FFCCBC"/>
<path d="M163.626 88.1142H137.329V112.5H163.626V88.1142Z" fill="white"/>
<path d="M163.626 88.1142H150.478V112.5H163.626V88.1142Z" fill="#D4D4D4"/>
<path d="M163.626 92.914H137.329V115.036H163.626V92.914Z" fill="url(#paint2_linear)"/>
<path d="M139.456 78.5714H161.51C164.752 78.5714 167.368 75.944 167.368 72.7024V44.7793H133.576V72.7024C133.587 75.944 136.215 78.5714 139.456 78.5714Z" fill="#FFCCBC"/>
<path d="M170.61 84.1219C177.896 84.1219 183.803 78.2148 183.803 70.9281C183.803 63.6414 177.896 57.7343 170.61 57.7343C163.323 57.7343 157.416 63.6414 157.416 70.9281C157.416 78.2148 163.323 84.1219 170.61 84.1219Z" fill="#FFAB91"/>
<path d="M154.186 16.2307H155.653C157.268 16.2307 158.587 17.6524 158.587 19.404V47.111H151.263V19.404C151.263 17.6524 152.571 16.2307 154.186 16.2307Z" fill="#E3A853"/>
<path d="M145.394 19.404H146.861C148.476 19.404 149.795 20.8257 149.795 22.5773V47.1224H142.47V22.5773C142.459 20.8257 143.778 19.404 145.394 19.404Z" fill="#E3A853"/>
<path d="M136.601 25.7393H138.069C139.684 25.7393 141.003 27.161 141.003 28.9126V47.111H133.678V28.9126C133.667 27.161 134.975 25.7393 136.601 25.7393Z" fill="#E3A853"/>
<path d="M162.978 22.5773H164.445C166.06 22.5773 167.379 23.9991 167.379 25.7507V47.1224H160.055V25.7393C160.055 23.9877 161.363 22.5773 162.978 22.5773Z" fill="#FFCCBC"/>
<path d="M159.964 47.0996C160.817 47.0996 161.613 47.0996 162.307 47.0996C163.603 47.0996 165.093 48.4759 165.651 50.1592L170.189 62.0223C170.871 63.6715 170.871 66.333 170.189 67.9822L162.056 65.0023L158.508 58.1437C156.722 53.833 157.382 47.0996 159.964 47.0996Z" fill="#C79448"/>
<path d="M143.346 101.843C143.346 102.65 142.687 103.31 141.879 103.31C141.071 103.31 140.412 102.65 140.412 101.843C140.412 101.035 141.071 100.375 141.879 100.375C142.687 100.375 143.346 101.035 143.346 101.843Z" fill="#4A4640"/>
<path d="M143.346 107.7C143.346 108.508 142.687 109.167 141.879 109.167C141.071 109.167 140.412 108.508 140.412 107.7C140.412 106.893 141.071 106.233 141.879 106.233C142.687 106.233 143.346 106.893 143.346 107.7Z" fill="#4A4640"/>
<path d="M143.346 113.569C143.346 114.377 142.687 115.036 141.879 115.036C141.071 115.036 140.412 114.377 140.412 113.569C140.412 112.762 141.071 112.102 141.879 112.102C142.687 112.102 143.346 112.762 143.346 113.569Z" fill="#4A4640"/>
<path d="M103.401 78.5714H81.9381V92.914H103.401V78.5714Z" fill="#FFCCBC"/>
<path d="M92.6752 78.5714H81.9381V92.914H92.6752V78.5714Z" fill="#FFCCBC"/>
<path d="M105.516 88.1142H79.2197V112.5H105.516V88.1142Z" fill="#D4D4D4"/>
<path d="M92.368 88.1142H79.2197V112.5H92.368V88.1142Z" fill="white"/>
<path d="M105.516 92.914H79.2197V115.036H105.516V92.914Z" fill="url(#paint3_linear)"/>
<path d="M103.401 78.5714H81.3353C78.0937 78.5714 75.4663 75.944 75.4663 72.7024V44.7793H109.258V72.7024C109.27 75.944 106.642 78.5714 103.401 78.5714Z" fill="#FFCCBC"/>
<path d="M72.2475 84.1219C79.5342 84.1219 85.4413 78.2148 85.4413 70.9281C85.4413 63.6414 79.5342 57.7343 72.2475 57.7343C64.9608 57.7343 59.0537 63.6414 59.0537 70.9281C59.0537 78.2148 64.9608 84.1219 72.2475 84.1219Z" fill="#FFAB91"/>
<path d="M88.6715 16.2307H87.2043C85.5892 16.2307 84.2698 17.6524 84.2698 19.404V47.111H91.5946V19.404C91.5946 17.6524 90.2866 16.2307 88.6715 16.2307Z" fill="#E3A853"/>
<path d="M97.4636 19.404H95.9964C94.3813 19.404 93.0619 20.8257 93.0619 22.5773V47.1224H100.387V22.5773C100.398 20.8257 99.0787 19.404 97.4636 19.404Z" fill="#E3A853"/>
<path d="M106.256 25.7393H104.788C103.173 25.7393 101.854 27.161 101.854 28.9126V47.111H109.19V28.9126C109.19 27.161 107.871 25.7393 106.256 25.7393Z" fill="#E3A853"/>
<path d="M79.8681 22.5773H78.4008C76.7857 22.5773 75.4663 23.9991 75.4663 25.7507V47.1224H82.7912V25.7393C82.8026 23.9877 81.4945 22.5773 79.8681 22.5773Z" fill="#FFCCBC"/>
<path d="M82.8935 47.0996C82.0405 47.0996 81.2443 47.0996 80.5505 47.0996C79.2539 47.0996 77.7639 48.4759 77.2065 50.1592L72.6683 62.0223C71.9859 63.6715 71.9859 66.333 72.6683 67.9822L80.8007 65.0023L84.3494 58.1437C86.1237 53.833 85.4754 47.0996 82.8935 47.0996Z" fill="#C79448"/>
<path d="M99.5109 101.843C99.5109 102.65 100.171 103.31 100.978 103.31C101.786 103.31 102.445 102.65 102.445 101.843C102.445 101.035 101.786 100.375 100.978 100.375C100.171 100.375 99.5109 101.035 99.5109 101.843Z" fill="#4A4640"/>
<path d="M99.5109 107.7C99.5109 108.508 100.171 109.167 100.978 109.167C101.786 109.167 102.445 108.508 102.445 107.7C102.445 106.893 101.786 106.233 100.978 106.233C100.171 106.233 99.5109 106.893 99.5109 107.7Z" fill="#4A4640"/>
<path d="M99.5109 113.569C99.5109 114.377 100.171 115.036 100.978 115.036C101.786 115.036 102.445 114.377 102.445 113.569C102.445 112.762 101.786 112.102 100.978 112.102C100.171 112.102 99.5109 112.762 99.5109 113.569Z" fill="#4A4640"/>
<path d="M159.384 65.9236C160.737 65.9349 161.84 64.8544 161.852 63.5009L162.409 3.18471C162.42 1.83121 161.34 0.727932 159.986 0.716558L82.9618 -2.57751e-06C81.6083 -0.0113766 80.505 1.06915 80.4936 2.42265L79.9363 62.7389C79.9249 64.0924 81.0055 65.1956 82.359 65.207L159.384 65.9236Z" fill="white"/>
<path d="M88.0004 5.53896L87.4974 59.7473L153.933 60.3638L154.436 6.15544L88.0004 5.53896Z" fill="#242E33"/>
<path d="M89.7007 7.8463L89.2199 59.7685L153.938 60.3678L154.419 8.44564L89.7007 7.8463Z" fill="#47565D"/>
<path d="M83.8717 33.6329C84.429 33.6329 84.8954 33.1893 84.8954 32.6206C84.8954 32.0519 84.4518 31.5969 83.8831 31.5969C83.3144 31.5855 82.8594 32.0405 82.848 32.6092C82.8594 33.1665 83.303 33.6329 83.8717 33.6329Z" fill="#6D6E71"/>
<path d="M157.825 35.8621C159.236 35.8735 160.396 34.7361 160.419 33.3258C160.43 31.904 159.293 30.7552 157.882 30.7439C156.46 30.7325 155.312 31.8699 155.3 33.2803C155.278 34.6906 156.415 35.8508 157.825 35.8621Z" fill="#CDD0D1"/>
<path d="M157.837 34.5883C158.542 34.5996 159.122 34.0309 159.133 33.3144C159.145 32.6092 158.576 32.0291 157.859 32.0177C157.154 32.0064 156.574 32.5751 156.563 33.2916C156.563 33.9968 157.131 34.5769 157.837 34.5883Z" fill="#ECF0F1"/>
<path d="M102.445 17.0041V16.9813C102.195 16.8107 101.934 16.5491 101.934 16.1738C101.934 15.6733 102.332 15.3207 102.832 15.3207C103.424 15.3207 103.765 15.7188 103.765 16.242C103.765 16.6401 103.458 16.9927 103.253 17.1633V17.1861C103.549 17.3681 103.867 17.6069 103.867 18.0846C103.867 18.5964 103.446 19.0059 102.821 19.0059C102.184 19.0059 101.717 18.5851 101.717 18.0391C101.729 17.5273 102.116 17.1747 102.445 17.0041ZM102.832 18.8353C103.367 18.8353 103.708 18.4941 103.708 18.0732C103.708 17.5045 103.139 17.2998 102.582 17.0837C102.195 17.2998 101.911 17.6183 101.911 18.0164C101.899 18.4713 102.286 18.8353 102.832 18.8353ZM103.594 16.242C103.594 15.8326 103.321 15.48 102.832 15.48C102.411 15.48 102.116 15.7757 102.116 16.1738C102.116 16.7084 102.627 16.9131 103.094 17.0951C103.412 16.8449 103.594 16.5605 103.594 16.242Z" fill="white"/>
<path d="M104.379 17.1406C104.379 15.9691 104.743 15.3207 105.403 15.3207C106.062 15.3207 106.426 15.9691 106.426 17.1406C106.426 18.3121 106.062 18.9832 105.403 18.9832C104.754 18.9945 104.379 18.3121 104.379 17.1406ZM106.256 17.1406C106.256 16.0487 105.926 15.4686 105.403 15.4686C104.879 15.4686 104.55 16.0487 104.55 17.1406C104.55 18.2325 104.879 18.8353 105.403 18.8353C105.926 18.8353 106.256 18.2439 106.256 17.1406Z" fill="white"/>
<path d="M106.949 16.3558C106.949 15.6278 107.234 15.2184 107.712 15.2184C108.189 15.2184 108.474 15.6278 108.474 16.3558C108.474 17.0951 108.189 17.5046 107.712 17.5046C107.234 17.5046 106.949 17.0951 106.949 16.3558ZM108.303 16.3558C108.303 15.7302 108.076 15.3662 107.712 15.3662C107.348 15.3662 107.12 15.7302 107.12 16.3558C107.12 16.9813 107.348 17.3567 107.712 17.3567C108.076 17.3567 108.303 16.9813 108.303 16.3558ZM107.791 18.9945L109.827 15.2184H110.009L107.973 18.9945H107.791ZM109.361 17.8458C109.361 17.1178 109.645 16.7084 110.123 16.7084C110.601 16.7084 110.885 17.1178 110.885 17.8458C110.885 18.5851 110.601 18.9945 110.123 18.9945C109.645 18.9945 109.361 18.5851 109.361 17.8458ZM110.714 17.8458C110.714 17.2202 110.487 16.8562 110.123 16.8562C109.759 16.8562 109.531 17.2202 109.531 17.8458C109.531 18.4713 109.759 18.8467 110.123 18.8467C110.487 18.8467 110.714 18.4713 110.714 17.8458Z" fill="white"/>
<path d="M110.737 49.0673H110.919L111.419 50.4777L111.613 51.0009H111.624L111.806 50.4777L112.307 49.0673H112.489V51.3876H112.375V49.7725C112.375 49.5905 112.386 49.3517 112.386 49.1697H112.375L112.193 49.6701L111.681 51.126H111.545L111.021 49.6701L110.839 49.1697H110.828C110.839 49.363 110.839 49.5905 110.839 49.7725V51.3876H110.737V49.0673Z" fill="white"/>
<path d="M114.172 50.3412C114.183 50.0682 114.104 49.7611 113.763 49.7611C113.524 49.7611 113.319 49.8749 113.217 49.9659L113.16 49.8862C113.262 49.8066 113.501 49.6701 113.774 49.6701C114.172 49.6701 114.286 49.9659 114.286 50.3071V51.399H114.195L114.183 51.1715H114.172C114.001 51.308 113.785 51.4445 113.558 51.4445C113.296 51.4445 113.069 51.308 113.069 50.9895C113.069 50.5914 113.421 50.4208 114.172 50.3412ZM113.569 51.3307C113.774 51.3307 113.956 51.2284 114.183 51.0464V50.4322C113.444 50.5118 113.194 50.6824 113.194 50.9781C113.182 51.2284 113.364 51.3307 113.569 51.3307Z" fill="white"/>
<path d="M114.911 49.7043H115.002L115.014 50.0227H115.025C115.139 49.818 115.298 49.6588 115.503 49.6588C115.56 49.6588 115.605 49.6702 115.662 49.6929L115.639 49.7953C115.582 49.7725 115.56 49.7725 115.491 49.7725C115.332 49.7725 115.15 49.8863 115.025 50.2161V51.3876H114.923V49.7043H114.911Z" fill="white"/>
<path d="M115.98 48.8512H116.083V50.7734H116.094L116.97 49.7043H117.095L116.549 50.364L117.186 51.3876H117.072L116.492 50.455L116.094 50.9213V51.3876H115.992V48.8512H115.98Z" fill="white"/>
<path d="M118.107 49.6588C118.494 49.6588 118.744 49.9318 118.744 50.4322C118.744 50.4663 118.744 50.5005 118.733 50.546H117.493C117.493 51.0009 117.755 51.3308 118.153 51.3308C118.346 51.3308 118.494 51.2625 118.619 51.1715L118.665 51.2625C118.54 51.3421 118.392 51.4217 118.141 51.4217C117.721 51.4217 117.379 51.0919 117.379 50.546C117.391 50 117.732 49.6588 118.107 49.6588ZM118.642 50.455C118.642 49.9886 118.437 49.7611 118.119 49.7611C117.812 49.7611 117.539 50.0228 117.505 50.455H118.642Z" fill="white"/>
<path d="M119.211 49.8066H118.949V49.727L119.211 49.7156L119.222 49.2266H119.313V49.7156H119.813V49.818H119.313V50.9668C119.313 51.1829 119.359 51.3421 119.609 51.3421C119.677 51.3421 119.768 51.308 119.825 51.2853L119.859 51.3762C119.757 51.4104 119.654 51.4445 119.597 51.4445C119.29 51.4445 119.199 51.2511 119.199 50.9554V49.8066H119.211Z" fill="white"/>
<path d="M121.986 50.5573H121.042L120.746 51.3876H120.632L121.463 49.0673H121.565L122.395 51.3876H122.282L121.986 50.5573ZM121.94 50.455L121.781 49.9886C121.679 49.7043 121.599 49.4654 121.508 49.1811H121.497C121.417 49.4654 121.326 49.7043 121.224 49.9886L121.065 50.455H121.94Z" fill="white"/>
<path d="M122.759 49.7043H122.85L122.862 49.9659H122.873C123.044 49.7953 123.226 49.6588 123.453 49.6588C123.794 49.6588 123.954 49.8635 123.954 50.2957V51.3763H123.851V50.3071C123.851 49.9318 123.737 49.7498 123.442 49.7498C123.226 49.7498 123.078 49.8635 122.862 50.091V51.3763H122.759V49.7043Z" fill="white"/>
<path d="M125.614 50.3412C125.626 50.0682 125.546 49.7611 125.193 49.7611C124.955 49.7611 124.75 49.8749 124.647 49.9659L124.591 49.8862C124.693 49.8066 124.932 49.6701 125.205 49.6701C125.603 49.6701 125.717 49.9659 125.717 50.3071V51.399H125.626L125.614 51.1715H125.603C125.432 51.308 125.216 51.4445 124.989 51.4445C124.727 51.4445 124.5 51.308 124.5 50.9895C124.511 50.5914 124.852 50.4208 125.614 50.3412ZM125 51.3307C125.205 51.3307 125.387 51.2284 125.614 51.0464V50.4322C124.875 50.5118 124.625 50.6824 124.625 50.9781C124.625 51.2284 124.795 51.3307 125 51.3307Z" fill="white"/>
<path d="M126.342 48.8512H126.444V51.2284C126.444 51.2966 126.467 51.3308 126.513 51.3308C126.524 51.3308 126.535 51.3307 126.581 51.3194L126.604 51.4104C126.57 51.4217 126.558 51.4217 126.513 51.4217C126.41 51.4217 126.342 51.3535 126.342 51.1943V48.8512Z" fill="white"/>
<path d="M127.047 52.0587C127.263 52.0587 127.411 51.8539 127.502 51.581L127.548 51.4217L126.854 49.7043H126.979L127.411 50.8075C127.468 50.944 127.536 51.126 127.605 51.2739H127.616C127.673 51.126 127.73 50.944 127.775 50.8075L128.151 49.7043H128.264L127.593 51.6265C127.514 51.8881 127.343 52.161 127.047 52.161C126.99 52.161 126.934 52.1497 126.888 52.1269L126.911 52.0246C126.945 52.0473 127.002 52.0587 127.047 52.0587Z" fill="white"/>
<path d="M128.492 51.1146C128.628 51.2284 128.788 51.3308 129.038 51.3308C129.322 51.3308 129.47 51.1601 129.47 50.9668C129.47 50.7393 129.242 50.6483 129.049 50.5687C128.788 50.4777 128.503 50.3753 128.503 50.091C128.503 49.8635 128.685 49.6588 129.026 49.6588C129.197 49.6588 129.368 49.727 129.493 49.8294L129.424 49.9204C129.311 49.8294 129.197 49.7611 129.015 49.7611C128.731 49.7611 128.606 49.9204 128.606 50.091C128.606 50.2957 128.81 50.3753 129.015 50.4436C129.277 50.5459 129.572 50.6256 129.572 50.9554C129.572 51.2056 129.379 51.4217 129.026 51.4217C128.776 51.4217 128.56 51.3194 128.412 51.1943L128.492 51.1146Z" fill="white"/>
<path d="M129.982 49.1583C129.982 49.0787 130.039 49.0446 130.096 49.0446C130.164 49.0446 130.221 49.0901 130.221 49.1583C130.221 49.2266 130.164 49.2834 130.096 49.2834C130.039 49.2721 129.982 49.2266 129.982 49.1583ZM130.039 49.7043H130.141V51.3876H130.039V49.7043Z" fill="white"/>
<path d="M130.676 51.1146C130.812 51.2284 130.971 51.3308 131.222 51.3308C131.506 51.3308 131.654 51.1601 131.654 50.9668C131.654 50.7393 131.426 50.6483 131.233 50.5687C130.971 50.4777 130.687 50.3753 130.687 50.091C130.687 49.8635 130.869 49.6588 131.21 49.6588C131.381 49.6588 131.551 49.727 131.677 49.8294L131.608 49.9204C131.495 49.8294 131.381 49.7611 131.199 49.7611C130.914 49.7611 130.789 49.9204 130.789 50.091C130.789 50.2957 130.994 50.3753 131.199 50.4436C131.472 50.5459 131.756 50.6256 131.756 50.9554C131.756 51.2056 131.563 51.4217 131.21 51.4217C130.96 51.4217 130.744 51.3194 130.596 51.1943L130.676 51.1146Z" fill="white"/>
<path d="M117.493 23.5214V23.4986C117.243 23.328 116.981 23.0664 116.981 22.6911C116.981 22.1906 117.379 21.838 117.88 21.838C118.471 21.838 118.824 22.2361 118.824 22.7593C118.824 23.1574 118.517 23.51 118.312 23.6806V23.7033C118.608 23.8853 118.926 24.1242 118.926 24.6019C118.926 25.1137 118.505 25.5232 117.88 25.5232C117.243 25.5232 116.777 25.1023 116.777 24.5564C116.777 24.0559 117.163 23.7033 117.493 23.5214ZM117.88 25.3526C118.414 25.3526 118.756 25.0114 118.756 24.5905C118.756 24.0104 118.187 23.8171 117.63 23.601C117.243 23.8171 116.959 24.1356 116.959 24.545C116.947 24.9886 117.334 25.3526 117.88 25.3526ZM118.642 22.7593C118.642 22.3498 118.369 21.9972 117.88 21.9972C117.459 21.9972 117.163 22.293 117.163 22.6911C117.163 23.2256 117.675 23.4304 118.141 23.6237C118.46 23.3735 118.642 23.0778 118.642 22.7593Z" fill="white"/>
<path d="M119.438 23.6692C119.438 22.4977 119.802 21.8494 120.462 21.8494C121.121 21.8494 121.485 22.4977 121.485 23.6692C121.485 24.8408 121.121 25.5118 120.462 25.5118C119.802 25.5118 119.438 24.8408 119.438 23.6692ZM121.315 23.6692C121.315 22.5773 120.985 21.9973 120.462 21.9973C119.939 21.9973 119.609 22.566 119.609 23.6692C119.609 24.7611 119.939 25.364 120.462 25.364C120.985 25.3526 121.315 24.7611 121.315 23.6692Z" fill="white"/>
<path d="M121.997 22.8731C121.997 22.1451 122.282 21.7357 122.759 21.7357C123.237 21.7357 123.521 22.1451 123.521 22.8731C123.521 23.6124 123.237 24.0218 122.759 24.0218C122.282 24.0218 121.997 23.6124 121.997 22.8731ZM123.351 22.8731C123.351 22.2475 123.123 21.8835 122.759 21.8835C122.395 21.8835 122.168 22.2475 122.168 22.8731C122.168 23.4986 122.395 23.874 122.759 23.874C123.123 23.874 123.351 23.4986 123.351 22.8731ZM122.85 25.5118L124.886 21.7357H125.068L123.021 25.5118H122.85ZM124.409 24.363C124.409 23.6351 124.693 23.2256 125.171 23.2256C125.648 23.2256 125.933 23.6351 125.933 24.363C125.933 25.1024 125.648 25.5118 125.171 25.5118C124.704 25.5118 124.409 25.1024 124.409 24.363ZM125.773 24.363C125.773 23.7375 125.546 23.3735 125.182 23.3735C124.818 23.3735 124.591 23.7375 124.591 24.363C124.591 24.9886 124.818 25.364 125.182 25.364C125.535 25.364 125.773 24.9886 125.773 24.363Z" fill="white"/>
<path d="M132.04 15.5255C132.2 15.7188 132.416 15.8212 132.643 15.8212C133.223 15.8212 133.735 15.3549 133.735 13.99C133.485 14.2971 133.167 14.4904 132.814 14.4904C132.2 14.4904 131.847 14.1037 131.847 13.3985C131.847 12.773 132.279 12.3066 132.791 12.3066C133.496 12.3066 133.917 12.9095 133.917 13.9672C133.917 15.4686 133.314 15.9804 132.632 15.9804C132.325 15.9804 132.097 15.8439 131.927 15.6506L132.04 15.5255ZM133.735 13.7853C133.701 13.0232 133.405 12.4659 132.78 12.4659C132.348 12.4659 132.029 12.8867 132.029 13.4099C132.029 13.9445 132.257 14.354 132.837 14.354C133.087 14.3426 133.428 14.1947 133.735 13.7853Z" fill="white"/>
<path d="M134.486 14.1379C134.486 12.9663 134.85 12.318 135.51 12.318C136.169 12.318 136.533 12.9663 136.533 14.1379C136.533 15.3094 136.169 15.9804 135.51 15.9804C134.85 15.9804 134.486 15.3094 134.486 14.1379ZM136.363 14.1379C136.363 13.046 136.033 12.4659 135.51 12.4659C134.986 12.4659 134.657 13.0346 134.657 14.1379C134.657 15.2298 134.986 15.8326 135.51 15.8326C136.033 15.8212 136.363 15.2298 136.363 14.1379Z" fill="white"/>
<path d="M137.045 13.3417C137.045 12.6137 137.329 12.2043 137.807 12.2043C138.285 12.2043 138.569 12.6137 138.569 13.3417C138.569 14.081 138.285 14.4905 137.807 14.4905C137.329 14.4905 137.045 14.081 137.045 13.3417ZM138.399 13.3417C138.399 12.7161 138.171 12.3521 137.807 12.3521C137.443 12.3521 137.216 12.7161 137.216 13.3417C137.216 13.9673 137.443 14.3426 137.807 14.3426C138.171 14.3426 138.399 13.9673 138.399 13.3417ZM137.898 15.9804L139.945 12.2043H140.127L138.08 15.9804H137.898ZM139.468 14.8317C139.468 14.1037 139.752 13.6943 140.23 13.6943C140.707 13.6943 140.992 14.1037 140.992 14.8317C140.992 15.571 140.707 15.9804 140.23 15.9804C139.752 15.9804 139.468 15.571 139.468 14.8317ZM140.821 14.8317C140.821 14.2061 140.594 13.8421 140.23 13.8421C139.866 13.8421 139.638 14.2061 139.638 14.8317C139.638 15.4572 139.866 15.8326 140.23 15.8326C140.594 15.8326 140.821 15.4572 140.821 14.8317Z" fill="white"/>
<path d="M140.958 53.6966H101.319V46.349H140.969V53.6966H140.958ZM101.808 53.2075H140.457V46.8608H101.808V53.2075Z" fill="white"/>
<path d="M110.942 21.7357H101.672V41.5946H110.942V21.7357Z" fill="white"/>
<path d="M126.001 27.9117H116.731V41.5946H126.001V27.9117Z" fill="#FF7B52"/>
<path d="M141.049 18.6192H131.779V41.5946H141.049V18.6192Z" fill="#26C6DA"/>
<path d="M166.39 50.8303C165.889 49.2948 164.525 48.0437 163.353 48.0437C162.727 48.0437 162 48.0437 161.226 48.0437C158.872 48.0437 158.28 54.1629 159.907 58.0869L163.137 64.3198L157.279 78.5487H162.864C164.479 78.5487 166.299 77.3317 166.913 75.8417L170.541 67.0268C171.156 65.5255 171.156 63.1028 170.541 61.6014L166.39 50.8303Z" fill="#FFCCBC"/>
<path d="M163.126 49.2834C164.263 48.9649 165.571 50 166.026 51.6151L161.886 52.7866C161.431 51.1829 161.977 49.6133 163.126 49.2834Z" fill="#FCF0EA"/>
<path d="M166.227 51.3456L161.719 52.7812L161.87 53.258L166.379 51.8224L166.227 51.3456Z" fill="#FCD3C1"/>
<path d="M76.4672 50.8303C76.9677 49.2948 78.3326 48.0437 79.5041 48.0437C80.1297 48.0437 80.8576 48.0437 81.631 48.0437C83.9854 48.0437 84.5769 54.1629 82.9504 58.0869L79.7316 64.3198L85.5892 78.5487H80.0045C78.3894 78.5487 76.5696 77.3317 75.9554 75.8417L72.3271 67.0268C71.7129 65.5255 71.7129 63.1028 72.3271 61.6014L76.4672 50.8303Z" fill="#FFCCBC"/>
<path d="M80.3344 49.7953C79.197 49.4654 77.889 50.5118 77.434 52.1269L81.5742 53.2984C82.0291 51.6833 81.4832 50.1137 80.3344 49.7953Z" fill="#FCF0EA"/>
<path d="M77.0947 51.8488L76.9426 52.3256L81.4504 53.7635L81.6025 53.2867L77.0947 51.8488Z" fill="#FCD3C1"/>
<path d="M183.997 21.5992H181.131V15.7871C181.131 15.7188 181.187 15.662 181.256 15.662H183.872C183.94 15.662 183.997 15.7188 183.997 15.7871V21.5992V21.5992Z" fill="#FFF6F2"/>
<path d="M182.564 95.6779C182.564 95.6779 179.481 88.9786 179.481 87.2725V22.02C179.481 20.8485 180.437 19.8931 181.608 19.8931H183.496C184.668 19.8931 185.623 20.8485 185.623 22.02V87.2725C185.646 88.9672 182.564 95.6779 182.564 95.6779Z" fill="url(#paint4_linear)"/>
<path d="M186.818 47.6911L183.974 21.3831H185.453C187.671 21.3831 189.468 23.1801 189.468 25.3981V47.5432L186.818 47.6911Z" fill="url(#paint5_linear)"/>
<path d="M185.612 66.9927H179.515V69.0855H185.612V66.9927Z" fill="#2692DA"/>
<path d="M185.612 63.2621H179.515V65.3549H185.612V63.2621Z" fill="#2692DA"/>
<path d="M185.612 23.9308H179.436V34.4518H185.612V23.9308Z" fill="#212121"/>
<path d="M185.612 70.712H179.515V72.8048H185.612V70.712Z" fill="#2692DA"/>
<path d="M5.51637 29.7202V56.6083C5.51637 57.4613 11.3626 58.1438 18.5737 58.1438C25.7848 58.1438 31.631 57.45 31.631 56.6083V29.7202H5.51637Z" fill="url(#paint6_linear)"/>
<path d="M31.631 29.7202C31.631 30.5733 25.7848 31.2557 18.5737 31.2557C11.3626 31.2557 5.51637 30.5619 5.51637 29.7202C5.51637 28.8672 11.3626 28.1847 18.5737 28.1847C25.7848 28.1847 31.631 28.8785 31.631 29.7202Z" fill="white"/>
<path d="M38.1597 37.2725V57.0177C38.1597 57.6433 44.0059 58.1438 51.217 58.1438C58.4281 58.1438 64.2743 57.6433 64.2743 57.0177V37.2725H38.1597Z" fill="url(#paint7_linear)"/>
<path d="M64.2857 37.2725C64.2857 37.8981 58.4395 38.3985 51.2284 38.3985C44.0173 38.3985 38.1711 37.8981 38.1711 37.2725C38.1711 36.6469 44.0173 36.1465 51.2284 36.1465C58.4395 36.1465 64.2857 36.6469 64.2857 37.2725Z" fill="#947753"/>
<path d="M10.2593 20.8599H11.3512V17.9595H10.4072V17.243C10.9531 17.1406 11.3057 16.9927 11.6583 16.788H12.5114V20.8713H13.4554V21.8153H10.2593V20.8599Z" fill="white"/>
<path d="M14.172 19.2675C14.172 17.5614 14.8885 16.6856 15.9691 16.6856C17.0496 16.6856 17.7661 17.5614 17.7661 19.2675C17.7661 20.9736 17.0496 21.8949 15.9691 21.8949C14.8885 21.8949 14.172 20.985 14.172 19.2675ZM16.6629 19.2675C16.6629 17.8912 16.3671 17.5842 15.9691 17.5842C15.5823 17.5842 15.2752 17.8912 15.2752 19.2675C15.2752 20.6324 15.5823 20.9963 15.9691 20.9963C16.3671 20.9963 16.6629 20.6438 16.6629 19.2675Z" fill="white"/>
<path d="M18.3576 19.2675C18.3576 17.5614 19.0742 16.6856 20.1547 16.6856C21.2352 16.6856 21.9518 17.5614 21.9518 19.2675C21.9518 20.9736 21.2352 21.8949 20.1547 21.8949C19.0742 21.8949 18.3576 20.985 18.3576 19.2675ZM20.8485 19.2675C20.8485 17.8912 20.5528 17.5842 20.1547 17.5842C19.768 17.5842 19.4609 17.8912 19.4609 19.2675C19.4609 20.6324 19.768 20.9963 20.1547 20.9963C20.5414 20.9963 20.8485 20.6438 20.8485 19.2675Z" fill="white"/>
<path d="M22.4409 18.1756C22.4409 17.1406 22.9754 16.5491 23.7261 16.5491C24.4654 16.5491 25.0114 17.152 25.0114 18.1756C25.0114 19.2106 24.4654 19.8248 23.7261 19.8248C22.9754 19.8248 22.4409 19.222 22.4409 18.1756ZM24.2038 18.1756C24.2038 17.4477 23.9877 17.1974 23.7261 17.1974C23.4645 17.1974 23.2484 17.4477 23.2484 18.1756C23.2484 18.9149 23.4645 19.1765 23.7261 19.1765C23.9877 19.1765 24.2038 18.9149 24.2038 18.1756ZM23.9081 21.8949L26.6947 16.5491H27.3544L24.5792 21.8949H23.9081ZM26.2398 20.2571C26.2398 19.2334 26.7857 18.6306 27.525 18.6306C28.2643 18.6306 28.8103 19.2334 28.8103 20.2571C28.8103 21.2921 28.2643 21.9063 27.525 21.9063C26.7857 21.8949 26.2398 21.2921 26.2398 20.2571ZM28.0027 20.2571C28.0027 19.5177 27.7866 19.2789 27.525 19.2789C27.2634 19.2789 27.0473 19.5291 27.0473 20.2571C27.0473 20.9964 27.2634 21.258 27.525 21.258C27.798 21.2466 28.0027 20.985 28.0027 20.2571Z" fill="white"/>
<path d="M44.2789 31.4718C44.5746 31.7448 44.9386 31.9723 45.3594 31.9723C45.8712 31.9723 46.2011 31.6993 46.2011 31.1874C46.2011 30.687 45.8712 30.414 45.4049 30.414C45.1092 30.414 44.9613 30.4823 44.6656 30.6642L44.1424 30.3344L44.2903 27.798H47.1338V28.7762H45.2912L45.2002 29.7202C45.3935 29.6292 45.5528 29.6065 45.7575 29.6065C46.6219 29.6065 47.3612 30.0955 47.3612 31.1647C47.3612 32.2793 46.4968 32.9277 45.5186 32.9277C44.6997 32.9277 44.1424 32.6206 43.7443 32.2225L44.2789 31.4718Z" fill="white"/>
<path d="M48.0437 30.2889C48.0437 28.5828 48.7602 27.6956 49.8408 27.6956C50.9213 27.6956 51.6378 28.5714 51.6378 30.2889C51.6378 31.995 50.9213 32.9163 49.8408 32.9163C48.7602 32.9163 48.0437 31.995 48.0437 30.2889ZM50.5346 30.2889C50.5346 28.9127 50.2388 28.6056 49.8408 28.6056C49.454 28.6056 49.1469 28.9127 49.1469 30.2889C49.1469 31.6538 49.454 32.0178 49.8408 32.0178C50.2388 32.0178 50.5346 31.6538 50.5346 30.2889Z" fill="white"/>
<path d="M52.1383 29.197C52.1383 28.1733 52.6729 27.5705 53.4236 27.5705C54.1629 27.5705 54.7088 28.1733 54.7088 29.197C54.7088 30.232 54.1629 30.8462 53.4236 30.8462C52.6729 30.8462 52.1383 30.232 52.1383 29.197ZM53.8899 29.197C53.8899 28.4691 53.6738 28.2188 53.4122 28.2188C53.1506 28.2188 52.9345 28.4691 52.9345 29.197C52.9345 29.9363 53.1506 30.1979 53.4122 30.1979C53.6738 30.1979 53.8899 29.9363 53.8899 29.197ZM53.5942 32.9163L56.3808 27.5705H57.0405L54.2652 32.9163H53.5942ZM55.9372 31.2671C55.9372 30.2434 56.4832 29.6406 57.2225 29.6406C57.9618 29.6406 58.5077 30.2434 58.5077 31.2671C58.5077 32.3021 57.9618 32.9163 57.2225 32.9163C56.4832 32.9163 55.9372 32.3135 55.9372 31.2671ZM57.7002 31.2671C57.7002 30.5278 57.4841 30.2889 57.2225 30.2889C56.9609 30.2889 56.7448 30.5391 56.7448 31.2671C56.7448 32.0064 56.9609 32.268 57.2225 32.268C57.4841 32.268 57.7002 32.0064 57.7002 31.2671Z" fill="white"/>
</g>
<defs>
<linearGradient id="paint0_linear" x1="83.1652" y1="97.1757" x2="83.1652" y2="88.3502" gradientUnits="userSpaceOnUse">
<stop offset="0.4904" stop-color="#F9ED32"/>
<stop offset="0.4952" stop-color="#FBB040"/>
</linearGradient>
<linearGradient id="paint1_linear" x1="57.3286" y1="97.1757" x2="57.3286" y2="88.3502" gradientUnits="userSpaceOnUse">
<stop offset="0.4808" stop-color="#3D3D3F"/>
<stop offset="0.4856" stop-color="#262627"/>
</linearGradient>
<linearGradient id="paint2_linear" x1="137.332" y1="103.972" x2="163.631" y2="103.972" gradientUnits="userSpaceOnUse">
<stop offset="0.5" stop-color="#F76350"/>
</linearGradient>
<linearGradient id="paint3_linear" x1="79.2249" y1="103.972" x2="105.524" y2="103.972" gradientUnits="userSpaceOnUse">
<stop offset="0.5" stop-color="#F76350"/>
</linearGradient>
<linearGradient id="paint4_linear" x1="179.491" y1="57.7824" x2="185.643" y2="57.7824" gradientUnits="userSpaceOnUse">
<stop offset="0.5" stop-color="#D4D4D4"/>
</linearGradient>
<linearGradient id="paint5_linear" x1="183.98" y1="34.5352" x2="189.478" y2="34.5352" gradientUnits="userSpaceOnUse">
<stop offset="0.5" stop-color="#D4D4D4"/>
</linearGradient>
<linearGradient id="paint6_linear" x1="2.92868" y1="34.2136" x2="34.1824" y2="52.258" gradientUnits="userSpaceOnUse">
<stop offset="0.5" stop-color="#BABABA"/>
</linearGradient>
<linearGradient id="paint7_linear" x1="37.1356" y1="39.0585" x2="65.2874" y2="55.3119" gradientUnits="userSpaceOnUse">
<stop offset="0.5" stop-color="#4F402D"/>
</linearGradient>
<clipPath id="clip0">
<rect width="200" height="115.036" fill="white"/>
</clipPath>
</defs>
</svg>
