<svg width="200" height="200" viewBox="0 0 200 200" fill="none" xmlns="http://www.w3.org/2000/svg">
<path d="M90.0366 34.9745H15.852V89.572H43.1775L42.1946 96.2559C42.1589 96.4525 42.0516 96.6491 41.8729 96.7563L38.3701 98.8831C37.7625 99.2405 38.0306 100.17 38.7275 100.17H67.179C67.876 100.17 68.144 99.2405 67.5364 98.8831L64.0336 96.7563C63.8549 96.6491 63.7298 96.4704 63.7119 96.2559L62.729 89.572H90.0545V34.9745H90.0366Z" fill="#EF4B39"/>
<path d="M90.0366 34.9745H15.852V89.572H90.0366V34.9745Z" fill="#F2F4F6"/>
<path d="M87.1057 37.8876H18.7829V86.6411H87.1057V37.8876Z" fill="#21252B"/>
<path d="M86.0692 39.8535H19.8374V85.3722H86.0692V39.8535Z" fill="#31343B"/>
<path opacity="0.48" d="M18.7829 37.8876V86.6411L38.7812 86.4623L67.0539 37.8876H18.7829Z" fill="#687487"/>
<path d="M67.179 100.17H38.7275C38.0306 100.17 37.7625 99.2405 38.3701 98.8831L41.8729 96.7563C42.0516 96.6491 42.1768 96.4704 42.1946 96.2559L43.1954 89.5005H62.7111L63.7119 96.2559C63.7477 96.4525 63.8549 96.6491 64.0336 96.7563L67.5364 98.8831C68.144 99.2405 67.876 100.17 67.179 100.17Z" fill="#F2F4F6"/>
<path d="M73.577 50.7551H44.3213V52.3635H73.577V50.7551Z" fill="white"/>
<path d="M41.7478 50.7551H33.9201V52.3635H41.7478V50.7551Z" fill="white"/>
<path d="M67.1611 55.3838H37.9055V56.9922H67.1611V55.3838Z" fill="#7AC142"/>
<path d="M35.332 55.3838H27.5042V56.9922H35.332V55.3838Z" fill="#EF4B39"/>
<path d="M47.7169 58.4756H33.9201V60.084H47.7169V58.4756Z" fill="#FED402"/>
<path d="M58.2075 58.4756H52.0239V60.084H58.2075V58.4756Z" fill="#EF4B39"/>
<path d="M43.8745 44.5536H23.9836V46.1621H43.8745V44.5536Z" fill="#EF4B39"/>
<path d="M54.2757 44.5536H46.448V46.1621H54.2757V44.5536Z" fill="#FED402"/>
<path d="M63.6225 47.6633H34.3669V49.2717H63.6225V47.6633Z" fill="#00AEEF"/>
<path d="M31.8113 47.6633H23.9836V49.2717H31.8113V47.6633Z" fill="#FED402"/>
<path d="M73.577 71.5754H44.3213V73.1838H73.577V71.5754Z" fill="white"/>
<path d="M41.7478 71.5754H33.9201V73.1838H41.7478V71.5754Z" fill="white"/>
<path d="M67.1611 76.222H37.9055V77.8304H67.1611V76.222Z" fill="#7AC142"/>
<path d="M35.332 76.222H27.5042V77.8304H35.332V76.222Z" fill="#EF4B39"/>
<path d="M47.7169 79.3138H33.9201V80.9401H47.7169V79.3138Z" fill="#FED402"/>
<path d="M58.2075 79.3138H52.0239V80.9401H58.2075V79.3138Z" fill="#EF4B39"/>
<path d="M43.8745 65.3918H23.9836V67.0003H43.8745V65.3918Z" fill="#EF4B39"/>
<path d="M54.2757 65.3918H46.448V67.0003H54.2757V65.3918Z" fill="#FED402"/>
<path d="M63.6225 68.4836H34.3669V70.092H63.6225V68.4836Z" fill="#00AEEF"/>
<path d="M31.8113 68.4836H23.9836V70.092H31.8113V68.4836Z" fill="#FED402"/>
<path d="M70.2171 120.651H67.8224V121.848H70.2171V120.651Z" fill="#FED402"/>
<path d="M178.947 121.848H173.997V120.651H178.947V121.848ZM169.064 121.848H164.114V120.651H169.064V121.848ZM159.181 121.848H154.231V120.651H159.181V121.848ZM149.299 121.848H144.348V120.651H149.299V121.848ZM139.416 121.848H134.465V120.651H139.416V121.848ZM129.533 121.848H124.582V120.651H129.533V121.848ZM119.65 121.848H114.699V120.651H119.65V121.848ZM109.767 121.848H104.816V120.651H109.767V121.848ZM99.8838 121.848H94.9334V120.651H99.8838V121.848ZM90.0009 121.848H85.0505V120.651H90.0009V121.848ZM80.1001 121.848H75.1497V120.651H80.0822V121.848H80.1001Z" fill="#FED402"/>
<path d="M186.275 120.651H183.88V121.848H186.275V120.651Z" fill="#FED402"/>
<path d="M61.889 121.258L70.2529 124.672L68.2691 121.258L70.2529 117.845L61.889 121.258Z" fill="#FED402"/>
<path d="M130.802 165.687H129.604V168.081H130.802V165.687Z" fill="#FED402"/>
<path d="M130.802 160.861H129.604V156.054H130.802V160.861ZM130.802 151.229H129.604V146.403H130.802V151.229ZM130.802 141.614H129.604V136.806H130.802V141.614ZM130.802 131.981H129.604V127.174H130.802V131.981ZM130.802 122.348H129.604V117.541H130.802V122.348ZM130.802 112.716H129.604V107.908H130.802V112.716ZM130.802 103.083H129.604V98.2754H130.802V103.083ZM130.802 93.4501H129.604V88.6426H130.802V93.4501ZM130.802 83.8352H129.604V79.0278H130.802V83.8352ZM130.802 74.2025H129.604V69.395H130.802V74.2025ZM130.802 64.5697H129.604V59.7623H130.802V64.5697Z" fill="#FED402"/>
<path d="M130.802 52.5422H129.604V54.937H130.802V52.5422Z" fill="#FED402"/>
<path d="M130.212 46.6089L133.625 54.9727L130.212 52.989L126.798 54.9727L130.212 46.6089Z" fill="#FED402"/>
<path d="M147.1 46.2336H137.092V126.727H147.1V46.2336Z" fill="url(#paint0_linear)"/>
<path d="M147.1 46.2693H137.092V68.0725H147.1V46.2693Z" fill="url(#paint1_linear)"/>
<path d="M137.092 126.727L142.096 140.077L147.1 126.727H137.092Z" fill="url(#paint2_linear)"/>
<path d="M145.563 136.735H137.897V141.685H145.563V136.735Z" fill="#2B244B"/>
<path d="M124.85 127.477H56.9922V140.827H124.85V127.477Z" fill="white"/>
<path d="M124.85 133.822H56.9922V140.095H124.85V133.822Z" fill="#E0BAB5"/>
<path d="M64.7127 136.735C65.9366 136.735 66.9288 135.743 66.9288 134.519C66.9288 133.295 65.9366 132.303 64.7127 132.303C63.4888 132.303 62.4966 133.295 62.4966 134.519C62.4966 135.743 63.4888 136.735 64.7127 136.735Z" fill="#EF4B39"/>
<path d="M117.737 136.735C118.961 136.735 119.954 135.743 119.954 134.519C119.954 133.295 118.961 132.303 117.737 132.303C116.514 132.303 115.521 133.295 115.521 134.519C115.521 135.743 116.514 136.735 117.737 136.735Z" fill="#EF4B39"/>
<path d="M64.8199 127.477H63.7119V130.569H64.8199V127.477Z" fill="#CC7B72"/>
<path d="M67.7866 127.477H66.6786V129.032H67.7866V127.477Z" fill="#6B6B6B"/>
<path d="M71.5039 127.477H70.3958V129.032H71.5039V127.477Z" fill="#6B6B6B"/>
<path d="M75.2033 127.477H74.0952V129.032H75.2033V127.477Z" fill="#6B6B6B"/>
<path d="M81.1366 127.477H80.0286V129.032H81.1366V127.477Z" fill="#6B6B6B"/>
<path d="M84.8539 127.477H83.7459V129.032H84.8539V127.477Z" fill="#6B6B6B"/>
<path d="M88.5533 127.477H87.4453V129.032H88.5533V127.477Z" fill="#6B6B6B"/>
<path d="M94.4866 127.477H93.3786V129.032H94.4866V127.477Z" fill="#6B6B6B"/>
<path d="M98.186 127.477H97.078V129.032H98.186V127.477Z" fill="#6B6B6B"/>
<path d="M101.903 127.477H100.795V129.032H101.903V127.477Z" fill="#6B6B6B"/>
<path d="M107.837 127.477H106.729V129.032H107.837V127.477Z" fill="#6B6B6B"/>
<path d="M111.536 127.477H110.428V129.032H111.536V127.477Z" fill="#6B6B6B"/>
<path d="M115.253 127.477H114.145V129.032H115.253V127.477Z" fill="#6B6B6B"/>
<path d="M78.1521 127.477H77.044V130.569H78.1521V127.477Z" fill="#CC7B72"/>
<path d="M91.4663 127.477H90.3583V130.569H91.4663V127.477Z" fill="#CC7B72"/>
<path d="M104.781 127.477H103.673V130.569H104.781V127.477Z" fill="#CC7B72"/>
<path d="M118.113 127.477H117.005V130.569H118.113V127.477Z" fill="#CC7B72"/>
<path d="M165.258 80.4396C162.095 79.0099 159.896 75.8288 159.896 72.1473C159.896 67.1254 163.971 63.0507 168.993 63.0507C174.015 63.0507 178.09 67.1254 178.09 72.1473C178.09 75.6501 176.124 78.6882 173.228 80.2073L165.258 80.4396Z" stroke="white" stroke-width="0.1384" stroke-miterlimit="10"/>
<path d="M180.377 111.751L175.82 112.555L169.011 73.9165L173.568 73.9523L180.377 111.751Z" fill="url(#paint3_linear)"/>
<path d="M175.82 112.555L179.859 122.08L180.377 111.75L175.82 112.555Z" fill="url(#paint4_linear)"/>
<path d="M175.82 112.555L179.859 122.08L180.377 111.75L175.82 112.555Z" fill="url(#paint5_linear)"/>
<path d="M181.001 119.313L177.499 119.93L178.147 123.608L181.649 122.991L181.001 119.313Z" fill="#2B244B"/>
<path d="M157.805 111.751L162.363 112.555L169.19 73.9165L164.614 73.9523L157.805 111.751Z" fill="url(#paint6_linear)"/>
<path d="M162.363 112.555L158.342 122.08L157.805 111.75L162.363 112.555Z" fill="url(#paint7_linear)"/>
<path d="M162.363 112.555L158.342 122.08L157.805 111.75L162.363 112.555Z" fill="url(#paint8_linear)"/>
<path d="M157.181 119.318L156.533 122.996L160.036 123.613L160.684 119.935L157.181 119.318Z" fill="#2B244B"/>
<path d="M171.227 46.2336H166.777V63.0507H171.227V46.2336Z" fill="url(#paint9_linear)"/>
<path d="M185.31 94.29H151.675V95.3624H185.31V94.29Z" fill="white"/>
<path d="M170.655 88.6427H167.921V100.313H170.655V88.6427Z" fill="white"/>
<path d="M181.858 102.339L179.165 102.815L180.263 109.028L182.955 108.552L181.858 102.339Z" fill="white"/>
<path d="M174.138 105.642L172.554 105.921L173.069 108.843L174.653 108.563L174.138 105.642Z" fill="white"/>
<path d="M156.312 102.33L155.215 108.543L157.908 109.018L159.005 102.806L156.312 102.33Z" fill="white"/>
<path d="M164.014 105.648L163.499 108.569L165.083 108.848L165.598 105.927L164.014 105.648Z" fill="white"/>
<path d="M138.719 165.812L131.695 165.258L138.719 164.704V165.812Z" fill="#EF4B39"/>
<path d="M67.6973 147.958V156.733H64.8199V158.484H53.7932C52.1133 158.484 50.7193 157.108 50.6836 155.428L50.3976 140.363C50.3619 138.039 48.4139 136.127 46.0906 136.127H27.254C25.5384 136.127 24.1444 134.733 24.1444 133.018V125.762C24.1444 124.046 25.5384 122.652 27.254 122.652H49.0037C51.3806 122.652 53.3107 120.722 53.3107 118.345V112.769C53.3107 110.392 51.3806 108.462 49.0037 108.462H34.9209C33.2053 108.462 31.8113 107.068 31.8113 105.353V89.572H30.6139V105.353C30.6139 107.729 32.544 109.66 34.9209 109.66H49.0037C50.7193 109.66 52.1133 111.054 52.1133 112.769V118.381C52.1133 120.096 50.7193 121.49 49.0037 121.49H27.254C24.8771 121.49 22.947 123.421 22.947 125.798V133.053C22.947 135.43 24.8771 137.36 27.254 137.36H46.0906C47.7705 137.36 49.1645 138.736 49.2002 140.416L49.4862 155.482C49.5219 157.805 51.4521 159.718 53.7932 159.718H64.8199V161.219H67.6973V167.456H124.743V147.958H67.6973Z" fill="#EF4B39"/>
<path d="M124.743 147.958H67.6973V167.42H124.743V147.958Z" fill="white"/>
<path d="M73.7199 151.175H69.7703V155.125H73.7199V151.175Z" fill="#D67F76"/>
<path d="M79.832 151.175H75.8824V155.125H79.832V151.175Z" fill="#D67F76"/>
<path d="M85.944 151.175H81.9944V155.125H85.944V151.175Z" fill="#D67F76"/>
<path d="M92.0561 151.175H88.1065V155.125H92.0561V151.175Z" fill="#D67F76"/>
<path d="M98.1682 151.175H94.2186V155.125H98.1682V151.175Z" fill="#D67F76"/>
<path d="M104.28 151.175H100.331V155.125H104.28V151.175Z" fill="#D67F76"/>
<path d="M110.964 151.175H107.015V155.125H110.964V151.175Z" fill="#D67F76"/>
<path d="M116.897 151.175H112.948V155.125H116.897V151.175Z" fill="#D67F76"/>
<path d="M122.456 151.175H118.506V155.125H122.456V151.175Z" fill="#D67F76"/>
<path d="M110.964 156.376H107.015V160.325H110.964V156.376Z" fill="#D67F76"/>
<path d="M116.897 156.376H112.948V160.325H116.897V156.376Z" fill="#D67F76"/>
<path d="M122.456 156.376H118.506V160.325H122.456V156.376Z" fill="#D67F76"/>
<path d="M117.255 162.309H113.305V166.259H117.255V162.309Z" fill="#D67F76"/>
<path d="M122.813 162.309H118.863V166.259H122.813V162.309Z" fill="#D67F76"/>
<path d="M73.7199 156.751H69.7703V160.701H73.7199V156.751Z" fill="#D67F76"/>
<path d="M79.832 156.751H75.8824V160.701H79.832V156.751Z" fill="#D67F76"/>
<path d="M73.7199 162.309H69.7703V166.259H73.7199V162.309Z" fill="#D67F76"/>
<path d="M79.832 162.309H75.8824V166.259H79.832V162.309Z" fill="#D67F76"/>
<path d="M85.944 156.751H81.9944V160.701H85.944V156.751Z" fill="#D67F76"/>
<path d="M101.868 162.309H85.6939V166.259H101.868V162.309Z" fill="#D67F76"/>
<path d="M92.0561 156.751H88.1065V160.701H92.0561V156.751Z" fill="#D67F76"/>
<path d="M98.1682 156.751H94.2186V160.701H98.1682V156.751Z" fill="#D67F76"/>
<path d="M104.28 156.751H100.331V160.701H104.28V156.751Z" fill="#D67F76"/>
<path d="M107.997 162.309H104.048V166.259H107.997V162.309Z" fill="#D67F76"/>
<path d="M73.7199 150.067H69.7703V154.017H73.7199V150.067Z" fill="#D6B1AD"/>
<path d="M79.832 150.067H75.8824V154.017H79.832V150.067Z" fill="#D6B1AD"/>
<path d="M85.944 150.067H81.9944V154.017H85.944V150.067Z" fill="#D6B1AD"/>
<path d="M92.0561 150.067H88.1065V154.017H92.0561V150.067Z" fill="#D6B1AD"/>
<path d="M98.1682 150.067H94.2186V154.017H98.1682V150.067Z" fill="#D6B1AD"/>
<path d="M104.28 150.067H100.331V154.017H104.28V150.067Z" fill="#D6B1AD"/>
<path d="M110.964 150.067H107.015V154.017H110.964V150.067Z" fill="#D6B1AD"/>
<path d="M116.897 150.067H112.948V154.017H116.897V150.067Z" fill="#D6B1AD"/>
<path d="M122.456 150.067H118.506V154.017H122.456V150.067Z" fill="#D6B1AD"/>
<path d="M110.964 155.268H107.015V159.217H110.964V155.268Z" fill="#D6B1AD"/>
<path d="M116.897 155.268H112.948V159.217H116.897V155.268Z" fill="#D6B1AD"/>
<path d="M122.456 155.268H118.506V159.217H122.456V155.268Z" fill="#D6B1AD"/>
<path d="M117.255 161.201H113.305V165.151H117.255V161.201Z" fill="#D6B1AD"/>
<path d="M122.813 161.201H118.863V165.151H122.813V161.201Z" fill="#D6B1AD"/>
<path d="M73.7199 155.625H69.7703V159.575H73.7199V155.625Z" fill="#D6B1AD"/>
<path d="M79.832 155.625H75.8824V159.575H79.832V155.625Z" fill="#D6B1AD"/>
<path d="M73.7199 161.201H69.7703V165.151H73.7199V161.201Z" fill="#D6B1AD"/>
<path d="M79.832 161.201H75.8824V165.151H79.832V161.201Z" fill="#D6B1AD"/>
<path d="M85.944 155.625H81.9944V159.575H85.944V155.625Z" fill="#D6B1AD"/>
<path d="M101.868 161.201H85.6939V165.151H101.868V161.201Z" fill="#D6B1AD"/>
<path d="M92.0561 155.625H88.1065V159.575H92.0561V155.625Z" fill="#D6B1AD"/>
<path d="M98.1682 155.625H94.2186V159.575H98.1682V155.625Z" fill="#D6B1AD"/>
<path d="M104.28 155.625H100.331V159.575H104.28V155.625Z" fill="#D6B1AD"/>
<path d="M107.997 161.201H104.048V165.151H107.997V161.201Z" fill="#D6B1AD"/>
<path d="M67.6973 159.682H53.7932C51.4521 159.682 49.5219 157.787 49.4862 155.446L49.2002 140.381C49.1645 138.701 47.7705 137.325 46.0906 137.325H27.254C24.8771 137.325 22.947 135.394 22.947 133.018V125.762C22.947 123.385 24.8771 121.455 27.254 121.455H49.0037C50.7193 121.455 52.1133 120.061 52.1133 118.345V112.769C52.1133 111.054 50.7193 109.66 49.0037 109.66H34.9209C32.544 109.66 30.6139 107.729 30.6139 105.353V89.572H31.8113V105.353C31.8113 107.068 33.2053 108.462 34.9209 108.462H49.0037C51.3806 108.462 53.3107 110.392 53.3107 112.769V118.381C53.3107 120.758 51.3806 122.688 49.0037 122.688H27.254C25.5384 122.688 24.1444 124.082 24.1444 125.797V133.053C24.1444 134.769 25.5384 136.163 27.254 136.163H46.0906C48.4139 136.163 50.3619 138.057 50.3976 140.399L50.6836 155.464C50.7193 157.144 52.1133 158.52 53.7932 158.52H67.6973V159.682V159.682Z" fill="white"/>
<path d="M67.7866 156.751H64.8199V161.201H67.7866V156.751Z" fill="white"/>
<path d="M170.673 142.847H171.084V140.827H170.083V136.52C170.083 135.091 168.921 133.929 167.492 133.929H157.073C155.643 133.929 154.481 135.091 154.481 136.52V163.131C154.481 163.9 153.856 164.525 153.087 164.525H150.281V162.345H136.646C136.646 162.345 135.412 164.06 131.624 165.24C135.412 166.437 136.646 168.135 136.646 168.135H150.281V165.722H153.087C154.517 165.722 155.679 164.561 155.679 163.131V136.52C155.679 135.752 156.304 135.126 157.073 135.126H167.492C168.26 135.126 168.886 135.752 168.886 136.52V140.827H167.635V142.865H167.813C163.81 143.312 160.701 146.689 160.701 150.818V159.45C160.701 163.864 164.275 167.456 168.707 167.456H169.815C174.229 167.456 177.821 163.882 177.821 159.45V150.818C177.786 146.689 174.676 143.294 170.673 142.847Z" fill="#EF4B39"/>
<path d="M169.797 167.438H168.689C164.275 167.438 160.683 163.864 160.683 159.432V150.8C160.683 146.385 164.257 142.793 168.689 142.793H169.797C174.211 142.793 177.804 146.368 177.804 150.8V159.432C177.786 163.864 174.211 167.438 169.797 167.438Z" fill="#DBC6C3"/>
<path d="M162.13 164.275H160.343C153.159 164.275 147.333 158.645 147.333 151.675V138.075C147.333 131.123 153.159 125.476 160.343 125.476H162.13C169.315 125.476 175.141 131.105 175.141 138.075V151.675C175.141 158.645 169.315 164.275 162.13 164.275Z" fill="white"/>
<path d="M153.069 165.74H142.883V164.543H153.069C153.838 164.543 154.463 163.917 154.463 163.149V136.52C154.463 135.091 155.625 133.929 157.055 133.929H167.474C168.904 133.929 170.065 135.091 170.065 136.52V142.811H168.886V136.52C168.886 135.752 168.26 135.126 167.492 135.126H157.073C156.304 135.126 155.679 135.752 155.679 136.52V163.131C155.679 164.561 154.517 165.74 153.069 165.74Z" fill="white"/>
<path d="M150.264 165.258V162.363H136.628C136.628 162.363 135.395 164.078 131.606 165.258C135.395 166.455 136.628 168.153 136.628 168.153H150.264V165.258Z" fill="white"/>
<path d="M139.237 166.437C138.576 166.437 138.039 165.901 138.039 165.24C138.039 164.579 138.576 164.043 139.237 164.043C139.898 164.043 140.434 164.579 140.434 165.24C140.434 165.919 139.898 166.437 139.237 166.437Z" fill="#EF4B39"/>
<path d="M171.084 140.827H167.635V142.865H171.084V140.827Z" fill="white"/>
<path d="M121.848 46.591H71.3967C70.378 46.591 69.538 47.4131 69.538 48.4496V112.447C69.538 113.466 70.3601 114.306 71.3967 114.306H121.848C122.867 114.306 123.707 113.484 123.707 112.447V48.4496C123.707 47.431 122.884 46.591 121.848 46.591Z" fill="#CC4031"/>
<path d="M121.848 114.306H71.3967C70.378 114.306 69.538 113.484 69.538 112.447V48.4496C69.538 47.431 70.3601 46.591 71.3967 46.591H121.848C122.867 46.591 123.707 47.4131 123.707 48.4496V112.447C123.707 113.466 122.884 114.306 121.848 114.306Z" fill="white"/>
<path d="M127.388 39.2101H58.4756V55.2051H127.388V39.2101Z" fill="#0E1E3A"/>
<path d="M75.1676 51.184C75.1676 52.0597 74.4706 52.7567 73.5949 52.7567C72.7191 52.7567 72.0222 52.0597 72.0222 51.184C72.0222 50.3083 72.7191 49.6113 73.5949 49.6113C74.4706 49.6113 75.1676 50.3083 75.1676 51.184Z" fill="#FED402"/>
<path d="M79.5103 51.184C79.5103 52.0597 78.8133 52.7567 77.9376 52.7567C77.0619 52.7567 76.3649 52.0597 76.3649 51.184C76.3649 50.3083 77.0619 49.6113 77.9376 49.6113C78.8133 49.5934 79.5103 50.3083 79.5103 51.184Z" fill="#EF4B39"/>
<path d="M83.871 51.184C83.871 52.0597 83.174 52.7567 82.2983 52.7567C81.4226 52.7567 80.7256 52.0597 80.7256 51.184C80.7256 50.3083 81.4226 49.6113 82.2983 49.6113C83.174 49.6113 83.871 50.3083 83.871 51.184Z" fill="#7AC142"/>
<path d="M119.685 49.5934H86.8555V52.7388H119.685V49.5934Z" fill="white"/>
<path d="M86.2836 80.5111H73.2732V93.5216H86.2836V80.5111Z" fill="#595957"/>
<path d="M102.976 80.5111H89.9651V93.5216H102.976V80.5111Z" fill="#595957"/>
<path d="M119.685 80.5111H106.675V93.5216H119.685V80.5111Z" fill="#595957"/>
<path d="M119.685 60.5486H73.5055V74.9709H119.685V60.5486Z" fill="#0C4DA2"/>
<path d="M119.685 99.2941H73.5055V108.712H119.685V99.2941Z" fill="#2AA44B"/>
<defs>
<linearGradient id="paint0_linear" x1="137.084" y1="86.4799" x2="147.096" y2="86.4799" gradientUnits="userSpaceOnUse">
<stop offset="0.4739" stop-color="#FE8802"/>
</linearGradient>
<linearGradient id="paint1_linear" x1="137.084" y1="57.1683" x2="147.096" y2="57.1683" gradientUnits="userSpaceOnUse">
<stop offset="0.4123" stop-color="#0C4DA2"/>
<stop offset="0.4171" stop-color="#2B244B"/>
</linearGradient>
<linearGradient id="paint2_linear" x1="137.084" y1="133.405" x2="147.096" y2="133.405" gradientUnits="userSpaceOnUse">
<stop offset="0.4502" stop-color="white"/>
<stop offset="0.4692" stop-color="#B8B8B8"/>
</linearGradient>
<linearGradient id="paint3_linear" x1="172.408" y1="93.2314" x2="176.977" y2="92.426" gradientUnits="userSpaceOnUse">
<stop offset="0.5213" stop-color="#D6B1AD"/>
<stop offset="0.5355" stop-color="white"/>
</linearGradient>
<linearGradient id="paint4_linear" x1="176.691" y1="117.518" x2="181.258" y2="116.713" gradientUnits="userSpaceOnUse">
<stop offset="0.4502" stop-color="white"/>
<stop offset="0.4692" stop-color="#B8B8B8"/>
</linearGradient>
<linearGradient id="paint5_linear" x1="176.691" y1="117.518" x2="181.258" y2="116.713" gradientUnits="userSpaceOnUse">
<stop offset="0.5213" stop-color="#D6B1AD"/>
<stop offset="0.5355" stop-color="white"/>
</linearGradient>
<linearGradient id="paint6_linear" x1="165.775" y1="93.2313" x2="161.207" y2="92.426" gradientUnits="userSpaceOnUse">
<stop offset="0.5213" stop-color="#D6B1AD"/>
<stop offset="0.5355" stop-color="white"/>
</linearGradient>
<linearGradient id="paint7_linear" x1="161.493" y1="117.517" x2="156.925" y2="116.712" gradientUnits="userSpaceOnUse">
<stop offset="0.4502" stop-color="white"/>
<stop offset="0.4692" stop-color="#B8B8B8"/>
</linearGradient>
<linearGradient id="paint8_linear" x1="161.493" y1="117.517" x2="156.925" y2="116.712" gradientUnits="userSpaceOnUse">
<stop offset="0.5213" stop-color="#D6B1AD"/>
<stop offset="0.5355" stop-color="white"/>
</linearGradient>
<linearGradient id="paint9_linear" x1="166.779" y1="54.6418" x2="171.225" y2="54.6418" gradientUnits="userSpaceOnUse">
<stop offset="0.4389" stop-color="white"/>
<stop offset="0.4481" stop-color="#D6B1AD"/>
</linearGradient>
</defs>
</svg>
