<svg width="190" height="110" viewBox="0 0 190 110" fill="none" xmlns="http://www.w3.org/2000/svg">
<g clip-path="url(#clip0)">
<path d="M85.3363 67.1645H23.8223V79.2362H85.3363V67.1645Z" fill="url(#paint0_linear)"/>
<path d="M32.876 73.5856C32.876 74.6772 31.977 75.5762 30.8854 75.5762C29.7938 75.5762 28.8949 74.6772 28.8949 73.5856C28.8949 72.494 29.7938 71.5951 30.8854 71.5951C31.977 71.5951 32.876 72.494 32.876 73.5856Z" fill="#FF7B52"/>
<path d="M80.9057 73.5856C80.9057 74.6771 80.0068 75.5761 78.9152 75.5761C77.8236 75.5761 76.9247 74.6771 76.9247 73.5856C76.9247 72.494 77.8236 71.595 78.9152 71.595C80.0068 71.5308 80.9057 72.494 80.9057 73.5856Z" fill="#FF7B52"/>
<path d="M30.9497 67.1645H29.9223V69.9898H30.9497V67.1645Z" fill="#FF7B52"/>
<path d="M33.6465 67.1645H32.6191V68.5772H33.6465V67.1645Z" fill="white"/>
<path d="M36.9855 67.1645H35.9581V68.5772H36.9855V67.1645Z" fill="white"/>
<path d="M40.3887 67.1645H39.3613V68.5772H40.3887V67.1645Z" fill="white"/>
<path d="M45.7824 67.1645H44.755V68.5772H45.7824V67.1645Z" fill="white"/>
<path d="M49.1214 67.1645H48.094V68.5772H49.1214V67.1645Z" fill="white"/>
<path d="M52.4603 67.1645H51.4329V68.5772H52.4603V67.1645Z" fill="white"/>
<path d="M57.854 67.1645H56.8267V68.5772H57.854V67.1645Z" fill="white"/>
<path d="M61.193 67.1645H60.1656V68.5772H61.193V67.1645Z" fill="white"/>
<path d="M64.5962 67.1645H63.5688V68.5772H64.5962V67.1645Z" fill="white"/>
<path d="M69.9257 67.1645H68.8983V68.5772H69.9257V67.1645Z" fill="white"/>
<path d="M73.3288 67.1645H72.3015V68.5772H73.3288V67.1645Z" fill="white"/>
<path d="M76.6678 67.1645H75.6404V68.5772H76.6678V67.1645Z" fill="white"/>
<path d="M43.0213 67.1645H41.994V69.9898H43.0213V67.1645Z" fill="#FF7B52"/>
<path d="M55.0929 67.1645H54.0656V69.9898H55.0929V67.1645Z" fill="#FF7B52"/>
<path d="M67.1646 67.1645H66.1372V69.9898H67.1646V67.1645Z" fill="#FF7B52"/>
<path d="M79.3005 67.1645H78.2731V69.9898H79.3005V67.1645Z" fill="#FF7B52"/>
<path d="M174.397 23.3727L80.8415 22.6664C80.8415 20.2906 82.7678 18.4285 85.1436 18.4285L170.159 19.1348C172.535 19.1348 174.397 21.0611 174.397 23.3727Z" fill="white"/>
<path d="M165.471 65.3668L88.9963 64.7247C87.5194 64.7247 86.3636 63.5047 86.3636 62.0278L86.6847 22.6023L168.425 23.2444L168.104 62.6699C168.168 64.211 166.948 65.431 165.471 65.3668Z" fill="white"/>
<path d="M164.059 63.6973L87.5836 63.0551C86.1068 63.0551 84.951 61.8351 84.951 60.3583L85.272 20.9328L167.012 21.5749L166.691 61.0004C166.756 62.5415 165.536 63.7615 164.059 63.6973Z" fill="#F5EBEB"/>
<path d="M86.7489 22.6664L168.489 23.3086L86.7489 22.6664Z" stroke="#A1A1A1" stroke-width="0.0368" stroke-miterlimit="10"/>
<path opacity="0.5" d="M80.7131 22.1526L174.525 22.9232L80.7131 22.1526Z" stroke="#A1A1A1" stroke-width="0.184" stroke-miterlimit="10"/>
<path d="M127.306 52.6587L110.29 52.5219L110.218 61.5114L127.234 61.6482L127.306 52.6587Z" fill="#E3D8D8" stroke="#BDB3B3" stroke-width="0.0332" stroke-miterlimit="10"/>
<path d="M127.33 61.771L110.25 61.6425V61.3857L127.138 61.5783L127.202 52.653H127.394L127.33 61.771Z" fill="white"/>
<path d="M164.925 28.5546L90.2473 27.9541L90.065 50.6206L164.742 51.221L164.925 28.5546Z" fill="#E3D8D8" stroke="#BDB3B3" stroke-width="0.1104" stroke-miterlimit="10"/>
<path d="M165.086 51.5613L90.0237 50.9835V50.2771L164.38 50.855L164.508 28.5096H165.215L165.086 51.5613Z" fill="white"/>
<path d="M96.3805 37.4992L92.0142 37.4349V34.8665C92.0142 34.417 92.3994 34.096 92.7847 34.096H96.3805V37.4992Z" fill="#BDB3B3"/>
<path d="M96.0595 34.0317H92.3994C92.1426 34.0317 91.8857 34.2886 91.8857 34.6738V37.0496C91.8857 37.3707 92.0784 37.6917 92.3994 37.6917H96.0595C96.3163 37.6917 96.5732 37.4349 96.5732 37.0496V34.6738C96.5732 34.2886 96.3805 34.0317 96.0595 34.0317ZM92.6563 34.2886H95.6742C95.931 34.2886 96.1879 34.5454 96.1879 34.9307V36.7928C96.1879 37.1138 95.931 37.4349 95.6742 37.4349H92.6563C92.3994 37.4349 92.1426 37.178 92.1426 36.7928V34.9307C92.1426 34.5454 92.3994 34.2886 92.6563 34.2886Z" fill="#878181"/>
<path d="M102.095 37.5632L97.729 37.499V34.9306C97.729 34.4811 98.1142 34.1601 98.4995 34.1601H102.095V37.5632Z" fill="#BDB3B3"/>
<path d="M101.774 34.0317H98.1142C97.8574 34.0317 97.6005 34.2886 97.6005 34.6738V37.0496C97.6005 37.3707 97.8574 37.6917 98.1142 37.6917H101.774C102.031 37.6917 102.288 37.4349 102.288 37.0496V34.6738C102.288 34.3528 102.031 34.0317 101.774 34.0317ZM98.3711 34.2886H101.389C101.646 34.2886 101.903 34.5454 101.903 34.9307V36.7928C101.903 37.1138 101.646 37.4349 101.389 37.4349H98.3711C98.1142 37.4349 97.8574 37.178 97.8574 36.7928V34.9307C97.8574 34.6096 98.05 34.2886 98.3711 34.2886Z" fill="#878181"/>
<path d="M107.746 37.6275L103.38 37.5633V34.9949C103.38 34.5454 103.765 34.2243 104.15 34.2243H107.746V37.6275Z" fill="#BDB3B3"/>
<path d="M107.489 34.096H103.829C103.572 34.096 103.315 34.3528 103.315 34.7381V37.1139C103.315 37.4349 103.572 37.756 103.829 37.756H107.489C107.746 37.756 108.003 37.4992 108.003 37.1139V34.7381C108.003 34.3528 107.746 34.096 107.489 34.096ZM104.022 34.3528H107.04C107.296 34.3528 107.553 34.6097 107.553 34.9949V36.857C107.553 37.1781 107.296 37.4992 107.04 37.4992H104.022C103.765 37.4992 103.508 37.2423 103.508 36.857V34.9949C103.508 34.6097 103.765 34.3528 104.022 34.3528Z" fill="#878181"/>
<path d="M113.461 37.6275L109.094 37.5633V34.9949C109.094 34.5454 109.48 34.2243 109.865 34.2243H113.461V37.6275Z" fill="#BDB3B3"/>
<path d="M113.14 34.1601H109.48C109.223 34.1601 108.966 34.4169 108.966 34.8022V37.178C108.966 37.499 109.223 37.8201 109.48 37.8201H113.14C113.396 37.8201 113.653 37.5632 113.653 37.178V34.8022C113.653 34.4169 113.461 34.1601 113.14 34.1601ZM109.736 34.4169H112.754C113.011 34.4169 113.268 34.6738 113.268 35.059V36.9211C113.268 37.2422 113.011 37.5632 112.754 37.5632H109.736C109.48 37.5632 109.223 37.3064 109.223 36.9211V35.059C109.223 34.6738 109.48 34.4169 109.736 34.4169Z" fill="#878181"/>
<path d="M119.111 37.6916L114.745 37.6274V35.059C114.745 34.6095 115.13 34.2884 115.515 34.2884H119.111V37.6916Z" fill="#BDB3B3"/>
<path d="M118.854 34.1601H115.194C114.937 34.1601 114.681 34.4169 114.681 34.8022V37.178C114.681 37.499 114.937 37.8201 115.194 37.8201H118.854C119.111 37.8201 119.368 37.5632 119.368 37.178V34.8022C119.368 34.4811 119.111 34.1601 118.854 34.1601ZM115.451 34.4811H118.469C118.726 34.4811 118.983 34.738 118.983 35.1232V36.9853C118.983 37.3064 118.726 37.6275 118.469 37.6275H115.451C115.194 37.6275 114.937 37.3706 114.937 36.9853V35.1232C114.937 34.738 115.13 34.4811 115.451 34.4811Z" fill="#878181"/>
<path d="M124.826 37.7559L120.46 37.6917V35.1232C120.46 34.6737 120.845 34.3527 121.23 34.3527H124.826V37.7559Z" fill="#BDB3B3"/>
<path d="M124.505 34.2243H120.845C120.588 34.2243 120.331 34.4812 120.331 34.8664V37.2422C120.331 37.5633 120.588 37.8844 120.845 37.8844H124.505C124.762 37.8844 125.019 37.6275 125.019 37.2422V34.8664C125.019 34.4812 124.826 34.2243 124.505 34.2243ZM121.102 34.4812H124.12C124.376 34.4812 124.633 34.738 124.633 35.1233V36.9854C124.633 37.3065 124.376 37.6275 124.12 37.6275H121.102C120.845 37.6275 120.588 37.3707 120.588 36.9854V35.1233C120.588 34.8022 120.845 34.4812 121.102 34.4812Z" fill="#878181"/>
<path d="M130.541 37.8201L126.174 37.7559V35.1875C126.174 34.738 126.56 34.417 126.945 34.417H130.541V37.8201Z" fill="#BDB3B3"/>
<path d="M130.22 34.2886H126.56C126.303 34.2886 126.046 34.5454 126.046 34.9307V37.3065C126.046 37.6276 126.303 37.9486 126.56 37.9486H130.22C130.477 37.9486 130.733 37.6918 130.733 37.3065V34.9307C130.733 34.5454 130.477 34.2886 130.22 34.2886ZM126.816 34.5454H129.834C130.091 34.5454 130.348 34.8023 130.348 35.1876V37.0497C130.348 37.3707 130.091 37.6918 129.834 37.6918H126.816C126.56 37.6918 126.303 37.4349 126.303 37.0497V35.1876C126.303 34.8023 126.495 34.5454 126.816 34.5454Z" fill="#878181"/>
<path d="M136.191 37.8201L131.825 37.7559V35.1875C131.825 34.738 132.21 34.417 132.595 34.417H136.191V37.8201Z" fill="#BDB3B3"/>
<path d="M135.934 34.3527H132.274C132.018 34.3527 131.761 34.6095 131.761 34.9948V37.3706C131.761 37.6917 132.018 38.0127 132.274 38.0127H135.934C136.191 38.0127 136.448 37.7559 136.448 37.3706V34.9948C136.384 34.6095 136.191 34.3527 135.934 34.3527ZM132.467 34.6095H135.485C135.742 34.6095 135.999 34.8664 135.999 35.2516V37.1138C135.999 37.4348 135.742 37.7559 135.485 37.7559H132.467C132.21 37.7559 131.953 37.499 131.953 37.1138V35.2516C131.953 34.8664 132.21 34.6095 132.467 34.6095Z" fill="#878181"/>
<path d="M141.906 37.8842L137.54 37.82V35.2516C137.54 34.8021 137.925 34.481 138.31 34.481H141.906V37.8842Z" fill="#BDB3B3"/>
<path d="M141.585 34.3527H137.925C137.668 34.3527 137.411 34.6095 137.411 34.9948V37.3706C137.411 37.6917 137.668 38.0127 137.925 38.0127H141.585C141.842 38.0127 142.099 37.7559 142.099 37.3706V34.9948C142.099 34.6737 141.906 34.3527 141.585 34.3527ZM138.182 34.6095H141.2C141.457 34.6095 141.713 34.8664 141.713 35.2516V37.1138C141.713 37.4348 141.457 37.7559 141.2 37.7559H138.182C137.925 37.7559 137.668 37.499 137.668 37.1138V35.2516C137.668 34.9306 137.925 34.6095 138.182 34.6095Z" fill="#878181"/>
<path d="M147.557 37.9485L143.19 37.8843V35.3158C143.19 34.8664 143.576 34.5453 143.961 34.5453H147.557V37.9485Z" fill="#BDB3B3"/>
<path d="M147.3 34.417H143.64C143.383 34.417 143.126 34.6738 143.126 35.0591V37.4349C143.126 37.7559 143.383 38.077 143.64 38.077H147.3C147.557 38.077 147.813 37.8201 147.813 37.4349V35.0591C147.813 34.6738 147.557 34.417 147.3 34.417ZM143.897 34.6738H146.914C147.171 34.6738 147.428 34.9306 147.428 35.3159V37.178C147.428 37.4991 147.171 37.8201 146.914 37.8201H143.897C143.64 37.8201 143.383 37.5633 143.383 37.178V35.3159C143.319 34.9306 143.576 34.6738 143.897 34.6738Z" fill="#878181"/>
<path d="M153.271 37.9487L148.905 37.8845V35.316C148.905 34.8666 149.29 34.5455 149.676 34.5455H153.271V37.9487Z" fill="#BDB3B3"/>
<path d="M152.95 34.4812H149.29C149.033 34.4812 148.777 34.7381 148.777 35.1233V37.4991C148.777 37.8202 149.033 38.1413 149.29 38.1413H152.95C153.207 38.1413 153.464 37.8844 153.464 37.4991V35.1233C153.464 34.7381 153.271 34.4812 152.95 34.4812ZM149.547 34.7381H152.565C152.822 34.7381 153.079 34.9949 153.079 35.3802V37.2423C153.079 37.5634 152.822 37.8844 152.565 37.8844H149.547C149.29 37.8844 149.033 37.6276 149.033 37.2423V35.3802C149.033 34.9949 149.29 34.7381 149.547 34.7381Z" fill="#878181"/>
<path d="M162.967 38.077L154.556 38.0128V35.4444C154.556 34.9949 154.941 34.6739 155.326 34.6739L162.903 34.7381L162.967 38.077Z" fill="#BDB3B3"/>
<path d="M162.646 34.5454L154.941 34.4812C154.684 34.4812 154.427 34.7381 154.427 35.1233V37.4991C154.427 37.8202 154.684 38.1413 154.941 38.1413L162.646 38.2055C162.903 38.2055 163.16 37.9486 163.16 37.5634V35.1876C163.16 34.8023 162.967 34.5454 162.646 34.5454ZM155.262 34.8023L162.325 34.8665C162.582 34.8665 162.839 35.1233 162.839 35.5086V37.3707C162.839 37.6918 162.582 38.0128 162.325 38.0128L155.262 37.9486C155.005 37.9486 154.748 37.6918 154.748 37.3065V35.4444C154.748 35.0591 154.941 34.8023 155.262 34.8023Z" fill="#878181"/>
<path d="M158.601 42.7644L162.967 42.8287V40.2602C162.967 39.8107 162.646 39.4897 162.197 39.4897H158.601V42.7644Z" fill="#BDB3B3"/>
<path d="M158.472 39.8749V42.2507C158.472 42.5718 158.729 42.8928 158.986 42.8928H162.646C162.903 42.8928 163.16 42.636 163.16 42.2507V39.8749C163.16 39.5538 162.903 39.2328 162.646 39.2328H158.986C158.665 39.2328 158.472 39.4896 158.472 39.8749ZM162.903 40.196V42.0581C162.903 42.3791 162.646 42.7002 162.389 42.7002H159.371C159.115 42.7002 158.858 42.4433 158.858 42.0581V40.196C158.858 39.8749 159.115 39.5538 159.371 39.5538H162.389C162.646 39.5538 162.903 39.8107 162.903 40.196Z" fill="#878181"/>
<path d="M152.95 42.7002L157.317 42.7644V40.1959C157.317 39.7465 156.996 39.4254 156.546 39.4254H152.95V42.7002Z" fill="#BDB3B3"/>
<path d="M152.758 39.8106V42.1864C152.758 42.5075 153.015 42.8285 153.271 42.8285H156.931C157.188 42.8285 157.445 42.5717 157.445 42.1864V39.8106C157.445 39.4896 157.188 39.1685 156.931 39.1685H153.271C153.015 39.1685 152.758 39.4896 152.758 39.8106ZM157.188 40.1317V41.9938C157.188 42.3148 156.931 42.6359 156.675 42.6359H153.657C153.4 42.6359 153.143 42.3791 153.143 41.9938V40.1317C153.143 39.8106 153.4 39.4896 153.657 39.4896H156.675C156.996 39.4896 157.188 39.8106 157.188 40.1317Z" fill="#878181"/>
<path d="M147.236 42.6361L151.602 42.7003V40.1319C151.602 39.6824 151.281 39.3613 150.831 39.3613H147.236V42.6361Z" fill="#BDB3B3"/>
<path d="M147.043 39.7465V42.1223C147.043 42.4434 147.3 42.7645 147.557 42.7645H151.217C151.473 42.7645 151.73 42.5076 151.73 42.1223V39.7465C151.73 39.4255 151.473 39.1044 151.217 39.1044H147.557C147.3 39.1686 147.107 39.4255 147.043 39.7465ZM151.538 40.0676V41.9297C151.538 42.2508 151.281 42.5718 151.024 42.5718H148.006C147.749 42.5718 147.492 42.315 147.492 41.9297V40.0676C147.492 39.7465 147.749 39.4255 148.006 39.4255H151.024C151.281 39.4897 151.538 39.7465 151.538 40.0676Z" fill="#878181"/>
<path d="M141.521 42.6359L145.887 42.7001V40.1317C145.887 39.6822 145.566 39.3611 145.117 39.3611H141.521V42.6359Z" fill="#BDB3B3"/>
<path d="M141.392 39.6823V42.0581C141.392 42.3791 141.649 42.7002 141.906 42.7002H145.566C145.823 42.7002 146.08 42.4433 146.08 42.0581V39.6823C146.08 39.3612 145.823 39.0402 145.566 39.0402H141.906C141.649 39.1044 141.392 39.3612 141.392 39.6823ZM145.823 40.0675V41.9297C145.823 42.2507 145.566 42.5718 145.309 42.5718H142.291C142.034 42.5718 141.778 42.3149 141.778 41.9297V40.0675C141.778 39.7465 142.034 39.4254 142.291 39.4254H145.309C145.566 39.4254 145.823 39.6823 145.823 40.0675Z" fill="#878181"/>
<path d="M135.87 42.5718L140.237 42.636V40.0676C140.237 39.6181 139.915 39.2971 139.466 39.2971H135.87V42.5718Z" fill="#BDB3B3"/>
<path d="M135.678 39.6823V42.0581C135.678 42.3791 135.87 42.7002 136.191 42.7002H139.851C140.108 42.7002 140.365 42.4433 140.365 42.0581V39.6823C140.365 39.3612 140.108 39.0402 139.851 39.0402H136.191C135.934 39.0402 135.678 39.297 135.678 39.6823ZM140.108 40.0033V41.8654C140.108 42.1865 139.851 42.5075 139.594 42.5075H136.577C136.32 42.5075 136.063 42.2507 136.063 41.8654V40.0033C136.063 39.6823 136.32 39.3612 136.577 39.3612H139.594C139.915 39.3612 140.108 39.6823 140.108 40.0033Z" fill="#878181"/>
<path d="M130.155 42.5075L134.522 42.5718V40.0033C134.522 39.5538 134.201 39.2328 133.751 39.2328H130.155V42.5075Z" fill="#BDB3B3"/>
<path d="M130.027 39.618V41.9938C130.027 42.3149 130.284 42.6359 130.541 42.6359H134.201C134.458 42.6359 134.714 42.3791 134.714 41.9938V39.618C134.714 39.2969 134.458 38.9759 134.201 38.9759H130.541C130.22 38.9759 130.027 39.2969 130.027 39.618ZM134.458 39.9391V41.8012C134.458 42.1222 134.201 42.4433 133.944 42.4433H130.926C130.669 42.4433 130.412 42.1864 130.412 41.8012V39.9391C130.412 39.618 130.669 39.2969 130.926 39.2969H133.944C134.201 39.3612 134.458 39.618 134.458 39.9391Z" fill="#878181"/>
<path d="M124.505 42.4435L128.871 42.5077V39.9392C128.871 39.4898 128.55 39.1687 128.101 39.1687H124.505V42.4435Z" fill="#BDB3B3"/>
<path d="M124.312 39.5539V41.9297C124.312 42.2508 124.569 42.5718 124.826 42.5718H128.486C128.743 42.5718 129 42.315 129 41.9297V39.5539C129 39.2329 128.743 38.9118 128.486 38.9118H124.826C124.569 38.976 124.312 39.2329 124.312 39.5539ZM128.743 39.875V41.7371C128.743 42.0581 128.486 42.3792 128.229 42.3792H125.211C124.954 42.3792 124.698 42.1223 124.698 41.7371V39.875C124.698 39.5539 124.954 39.2329 125.211 39.2329H128.229C128.55 39.2971 128.743 39.5539 128.743 39.875Z" fill="#878181"/>
<path d="M118.79 42.4435L123.156 42.5077V39.9392C123.156 39.4898 122.835 39.1687 122.386 39.1687H118.79V42.4435Z" fill="#BDB3B3"/>
<path d="M118.662 39.5539V41.9297C118.662 42.2508 118.854 42.5718 119.175 42.5718H122.835C123.092 42.5718 123.349 42.315 123.349 41.9297V39.5539C123.349 39.2329 123.092 38.9118 122.835 38.9118H119.175C118.854 38.9118 118.662 39.1686 118.662 39.5539ZM123.092 39.875V41.7371C123.092 42.0581 122.835 42.3792 122.579 42.3792H119.561C119.304 42.3792 119.047 42.1223 119.047 41.7371V39.875C119.047 39.5539 119.304 39.2329 119.561 39.2329H122.579C122.835 39.2329 123.092 39.4897 123.092 39.875Z" fill="#878181"/>
<path d="M113.14 42.3792L117.506 42.4434V39.875C117.506 39.4255 117.185 39.1044 116.735 39.1044H113.14V42.3792Z" fill="#BDB3B3"/>
<path d="M112.947 39.4896V41.8654C112.947 42.1865 113.14 42.5075 113.461 42.5075H117.121C117.377 42.5075 117.634 42.2507 117.634 41.8654V39.4896C117.634 39.1686 117.377 38.8475 117.121 38.8475H113.461C113.204 38.8475 112.947 39.1686 112.947 39.4896ZM117.377 39.8107V41.6728C117.377 41.9939 117.121 42.3149 116.864 42.3149H113.846C113.589 42.3149 113.332 42.0581 113.332 41.6728V39.8107C113.332 39.4896 113.589 39.1686 113.846 39.1686H116.864C117.185 39.1686 117.377 39.4896 117.377 39.8107Z" fill="#878181"/>
<path d="M107.425 42.3149L111.791 42.3791V39.8107C111.791 39.3612 111.47 39.0402 111.021 39.0402H107.425V42.3149Z" fill="#BDB3B3"/>
<path d="M107.232 39.4254V41.8012C107.232 42.1222 107.489 42.4433 107.746 42.4433H111.406C111.663 42.4433 111.92 42.1864 111.92 41.8012V39.4254C111.92 39.1043 111.663 38.7833 111.406 38.7833H107.746C107.489 38.8475 107.232 39.1043 107.232 39.4254ZM111.727 39.7464V41.6085C111.727 41.9296 111.47 42.2506 111.213 42.2506H108.195C107.938 42.2506 107.682 41.9938 107.682 41.6085V39.7464C107.682 39.4254 107.938 39.1043 108.195 39.1043H111.213C111.47 39.1685 111.727 39.4254 111.727 39.7464Z" fill="#878181"/>
<path d="M101.71 42.3149L106.076 42.3791V39.8107C106.076 39.3612 105.755 39.0402 105.306 39.0402H101.71V42.3149Z" fill="#BDB3B3"/>
<path d="M101.582 39.3613V41.7371C101.582 42.0581 101.838 42.3792 102.095 42.3792H105.755C106.012 42.3792 106.269 42.1223 106.269 41.7371V39.3613C106.269 39.0402 106.012 38.7192 105.755 38.7192H102.095C101.838 38.7834 101.582 39.0402 101.582 39.3613ZM106.012 39.7465V41.6087C106.012 41.9297 105.755 42.2508 105.498 42.2508H102.481C102.224 42.2508 101.967 41.9939 101.967 41.6087V39.7465C101.967 39.4255 102.224 39.1044 102.481 39.1044H105.498C105.755 39.1044 106.012 39.3613 106.012 39.7465Z" fill="#878181"/>
<path d="M92.0142 42.1865L100.426 42.2507V39.6823C100.426 39.2328 100.105 38.9117 99.6553 38.9117L92.0784 38.8475L92.0142 42.1865Z" fill="#BDB3B3"/>
<path d="M91.8857 39.297V41.6728C91.8857 41.9939 92.0784 42.3149 92.3994 42.3149L100.105 42.3791C100.362 42.3791 100.618 42.1223 100.618 41.737V39.3612C100.618 39.0402 100.362 38.7191 100.105 38.7191L92.3994 38.6549C92.0784 38.7191 91.8857 38.976 91.8857 39.297ZM100.297 39.6823V41.5444C100.297 41.8655 100.041 42.1865 99.7837 42.1865L92.7205 42.1223C92.4636 42.1223 92.2068 41.8655 92.2068 41.4802V39.6181C92.2068 39.297 92.4636 38.976 92.7205 38.976L99.7837 39.0402C100.105 39.0402 100.297 39.3612 100.297 39.6823Z" fill="#878181"/>
<path d="M158.601 47.4519L162.967 47.5161V44.9477C162.967 44.4982 162.646 44.1771 162.197 44.1771H158.601V47.4519Z" fill="#BDB3B3"/>
<path d="M158.408 44.5623V46.9381C158.408 47.2592 158.665 47.5802 158.922 47.5802H162.582C162.839 47.5802 163.096 47.3234 163.096 46.9381V44.5623C163.096 44.2413 162.839 43.9202 162.582 43.9202H158.922C158.665 43.9844 158.408 44.2413 158.408 44.5623ZM162.839 44.8834V46.7455C162.839 47.0666 162.582 47.3876 162.325 47.3876H159.307C159.05 47.3876 158.794 47.1308 158.794 46.7455V44.8834C158.794 44.5623 159.05 44.2413 159.307 44.2413H162.325C162.646 44.3055 162.839 44.5623 162.839 44.8834Z" fill="#878181"/>
<path d="M152.886 47.4517L157.252 47.5159V44.9475C157.252 44.498 156.931 44.1769 156.482 44.1769H152.886V47.4517Z" fill="#BDB3B3"/>
<path d="M152.693 44.4981V46.8739C152.693 47.1949 152.95 47.516 153.207 47.516H156.867C157.124 47.516 157.381 47.2591 157.381 46.8739V44.4981C157.381 44.177 157.124 43.856 156.867 43.856H153.207C152.95 43.9202 152.758 44.177 152.693 44.4981ZM157.188 44.8833V46.7454C157.188 47.0665 156.931 47.3876 156.675 47.3876H153.657C153.4 47.3876 153.143 47.1307 153.143 46.7454V44.8833C153.143 44.5623 153.4 44.2412 153.657 44.2412H156.675C156.931 44.2412 157.188 44.4981 157.188 44.8833Z" fill="#878181"/>
<path d="M147.171 47.3876L151.538 47.4518V44.8834C151.538 44.4339 151.217 44.1129 150.767 44.1129H147.171V47.3876Z" fill="#BDB3B3"/>
<path d="M147.043 44.4981V46.8739C147.043 47.1949 147.3 47.516 147.557 47.516H151.217C151.473 47.516 151.73 47.2591 151.73 46.8739V44.4981C151.73 44.177 151.473 43.856 151.217 43.856H147.557C147.3 43.856 147.043 44.1128 147.043 44.4981ZM151.473 44.8191V46.6812C151.473 47.0023 151.217 47.3233 150.96 47.3233H147.942C147.685 47.3233 147.428 47.0665 147.428 46.6812V44.8191C147.428 44.4981 147.685 44.177 147.942 44.177H150.96C151.217 44.177 151.473 44.4981 151.473 44.8191Z" fill="#878181"/>
<path d="M141.521 47.3235L145.887 47.3877V44.8193C145.887 44.3698 145.566 44.0488 145.117 44.0488H141.521V47.3235Z" fill="#BDB3B3"/>
<path d="M141.328 44.434V46.8098C141.328 47.1308 141.585 47.4519 141.842 47.4519H145.502C145.759 47.4519 146.016 47.195 146.016 46.8098V44.434C146.016 44.1129 145.759 43.7919 145.502 43.7919H141.842C141.585 43.7919 141.328 44.1129 141.328 44.434ZM145.759 44.755V46.6171C145.759 46.9382 145.502 47.2593 145.245 47.2593H142.227C141.97 47.2593 141.713 47.0024 141.713 46.6171V44.755C141.713 44.434 141.97 44.1129 142.227 44.1129H145.245C145.566 44.1771 145.759 44.434 145.759 44.755Z" fill="#878181"/>
<path d="M109.993 47.0666L140.365 47.3234V44.755C140.365 44.3055 140.044 43.9844 139.594 43.9844L109.993 43.7276V47.0666Z" fill="#BDB3B3"/>
<path d="M109.865 44.1771V46.5529C109.865 46.8739 110.057 47.195 110.379 47.195L140.044 47.4518C140.301 47.4518 140.558 47.195 140.558 46.8097V44.4339C140.558 44.1129 140.301 43.7918 140.044 43.7918L110.379 43.535C110.057 43.535 109.865 43.856 109.865 44.1771ZM140.237 44.6908V46.5529C140.237 46.8739 139.98 47.195 139.723 47.195L110.7 46.9381C110.443 46.9381 110.186 46.6813 110.186 46.296V44.4339C110.186 44.1129 110.443 43.7918 110.7 43.7918L139.723 44.0487C140.044 44.1129 140.237 44.3697 140.237 44.6908Z" fill="#878181"/>
<path d="M104.343 47.0664L108.709 47.1306V44.5622C108.709 44.1127 108.388 43.7917 107.938 43.7917H104.343V47.0664Z" fill="#BDB3B3"/>
<path d="M104.15 44.1128V46.4886C104.15 46.8097 104.343 47.1307 104.664 47.1307H108.324C108.581 47.1307 108.837 46.8739 108.837 46.4886V44.1128C108.837 43.7918 108.581 43.4707 108.324 43.4707H104.664C104.407 43.5349 104.15 43.7918 104.15 44.1128ZM108.581 44.4981V46.3602C108.581 46.6812 108.324 47.0023 108.067 47.0023H105.049C104.792 47.0023 104.535 46.7455 104.535 46.3602V44.4981C104.535 44.177 104.792 43.856 105.049 43.856H108.067C108.388 43.856 108.581 44.1128 108.581 44.4981Z" fill="#878181"/>
<path d="M98.6279 47.0024L102.994 47.0666V44.4981C102.994 44.0487 102.673 43.7276 102.224 43.7276H98.6279V47.0024Z" fill="#BDB3B3"/>
<path d="M98.4353 44.1128V46.4886C98.4353 46.8097 98.6279 47.1307 98.949 47.1307H102.609C102.866 47.1307 103.123 46.8739 103.123 46.4886V44.1128C103.123 43.7918 102.866 43.4707 102.609 43.4707H98.949C98.6921 43.4707 98.4353 43.7275 98.4353 44.1128ZM102.866 44.4339V46.296C102.866 46.617 102.609 46.9381 102.352 46.9381H99.3342C99.0774 46.9381 98.8206 46.6812 98.8206 46.296V44.4339C98.8206 44.1128 99.0774 43.7918 99.3342 43.7918H102.352C102.673 43.7918 102.93 44.0486 102.866 44.4339Z" fill="#878181"/>
<path d="M92.0142 46.9382L97.6006 47.0024V44.434C97.6006 43.9845 97.2795 43.6635 96.83 43.6635L92.0784 43.5992L92.0142 46.9382Z" fill="#BDB3B3"/>
<path d="M91.8216 44.0487V46.4245C91.8216 46.7456 92.0784 47.0666 92.3353 47.0666L97.2153 47.1308C97.4721 47.1308 97.729 46.874 97.729 46.4887V44.1129C97.729 43.7919 97.4721 43.4708 97.2153 43.4708L92.3995 43.4066C92.0784 43.4066 91.8216 43.7277 91.8216 44.0487ZM97.4721 44.3698V46.2319C97.4721 46.5529 97.2153 46.874 96.9585 46.874H92.7205C92.4637 46.874 92.2068 46.6172 92.2068 46.2319V44.3698C92.2068 44.0487 92.4637 43.7277 92.7205 43.7277H96.9585C97.2153 43.7277 97.4721 44.0487 97.4721 44.3698Z" fill="#878181"/>
<path d="M96.0595 32.5549L92.0142 32.4907V30.6928C92.0142 30.2434 92.3995 29.9223 92.7847 29.9223H95.9953L96.0595 32.5549Z" fill="#BDB3B3"/>
<path d="M95.8026 29.858H92.4637C92.2068 29.858 92.0142 30.0507 92.0142 30.3075V32.1054C92.0142 32.3623 92.2068 32.5549 92.4637 32.5549H95.8026C96.0595 32.5549 96.2521 32.3623 96.2521 32.1054V30.3075C96.2521 30.0507 96.0595 29.858 95.8026 29.858ZM92.6563 30.0507H95.4174C95.6742 30.0507 95.8669 30.2433 95.8669 30.5001V31.9128C95.8669 32.1696 95.6742 32.3623 95.4174 32.3623H92.6563C92.3995 32.3623 92.2068 32.1696 92.2068 31.9128V30.5001C92.1426 30.2433 92.3995 30.0507 92.6563 30.0507Z" fill="#878181"/>
<path d="M101.068 32.555H97.729V30.7571C97.729 30.3076 98.1142 29.9866 98.4995 29.9866H101.068V32.555Z" fill="#BDB3B3"/>
<path d="M100.875 29.9223H98.05C97.8574 29.9223 97.6647 30.1149 97.6647 30.3718V32.1697C97.6647 32.4265 97.8574 32.6192 98.05 32.6192H100.875C101.068 32.6192 101.261 32.4265 101.261 32.1697V30.3718C101.261 30.1149 101.068 29.9223 100.875 29.9223ZM98.2426 30.1149H100.554C100.747 30.1149 100.939 30.3076 100.939 30.5644V31.977C100.939 32.2339 100.747 32.4265 100.554 32.4265H98.2426C98.05 32.4265 97.8574 32.2339 97.8574 31.977V30.5644C97.8574 30.3076 98.05 30.1149 98.2426 30.1149Z" fill="#878181"/>
<path d="M106.269 32.6191H102.93V30.8212C102.93 30.3717 103.315 30.0507 103.701 30.0507H106.269V32.6191Z" fill="#BDB3B3"/>
<path d="M106.012 29.9223H103.187C102.994 29.9223 102.802 30.1149 102.802 30.3718V32.1697C102.802 32.4265 102.994 32.6192 103.187 32.6192H106.012C106.205 32.6192 106.397 32.4265 106.397 32.1697V30.3718C106.397 30.1791 106.205 29.9223 106.012 29.9223ZM103.38 30.1149H105.691C105.884 30.1149 106.076 30.3076 106.076 30.5644V31.977C106.076 32.2339 105.884 32.4265 105.691 32.4265H103.38C103.187 32.4265 102.994 32.2339 102.994 31.977V30.5644C102.994 30.3718 103.187 30.1149 103.38 30.1149Z" fill="#878181"/>
<path d="M111.406 32.6832H108.067V30.8853C108.067 30.4358 108.452 30.1147 108.837 30.1147H111.406V32.6832Z" fill="#BDB3B3"/>
<path d="M111.149 29.9864H108.324C108.131 29.9864 107.938 30.179 107.938 30.4359V32.2338C107.938 32.4906 108.131 32.6832 108.324 32.6832H111.149C111.342 32.6832 111.534 32.4906 111.534 32.2338V30.4359C111.534 30.179 111.406 29.9864 111.149 29.9864ZM108.581 30.179H110.892C111.085 30.179 111.277 30.3717 111.277 30.6285V32.0411C111.277 32.298 111.085 32.4906 110.892 32.4906H108.581C108.388 32.4906 108.195 32.298 108.195 32.0411V30.6285C108.195 30.3717 108.324 30.179 108.581 30.179Z" fill="#878181"/>
<path d="M116.543 32.6832H113.204V30.8853C113.204 30.4358 113.589 30.1147 113.974 30.1147H116.543V32.6832Z" fill="#BDB3B3"/>
<path d="M116.35 29.9864H113.525C113.332 29.9864 113.14 30.179 113.14 30.4359V32.2338C113.14 32.4906 113.332 32.6832 113.525 32.6832H116.35C116.543 32.6832 116.735 32.4906 116.735 32.2338V30.4359C116.735 30.2432 116.543 29.9864 116.35 29.9864ZM113.717 30.2432H116.029C116.222 30.2432 116.414 30.4359 116.414 30.6927V32.1053C116.414 32.3622 116.222 32.5548 116.029 32.5548H113.717C113.525 32.5548 113.332 32.3622 113.332 32.1053V30.6927C113.332 30.4359 113.525 30.2432 113.717 30.2432Z" fill="#878181"/>
<path d="M121.744 32.7475H118.405V30.9496C118.405 30.5001 118.79 30.179 119.175 30.179H121.744V32.7475Z" fill="#BDB3B3"/>
<path d="M121.487 30.0507H118.662C118.469 30.0507 118.276 30.2433 118.276 30.5001V32.298C118.276 32.5549 118.469 32.7475 118.662 32.7475H121.487C121.68 32.7475 121.872 32.5549 121.872 32.298V30.5001C121.872 30.2433 121.744 30.0507 121.487 30.0507ZM118.919 30.2433H121.23C121.423 30.2433 121.615 30.4359 121.615 30.6928V32.1054C121.615 32.3623 121.423 32.5549 121.23 32.5549H118.919C118.726 32.5549 118.533 32.3623 118.533 32.1054V30.6928C118.469 30.5001 118.662 30.2433 118.919 30.2433Z" fill="#878181"/>
<path d="M126.881 32.8117H123.542V31.0138C123.542 30.5643 123.927 30.2433 124.312 30.2433H126.881V32.8117Z" fill="#BDB3B3"/>
<path d="M126.688 30.1149H123.863C123.67 30.1149 123.478 30.3076 123.478 30.5644V32.3623C123.478 32.6191 123.67 32.8118 123.863 32.8118H126.688C126.881 32.8118 127.073 32.6191 127.073 32.3623V30.5644C127.073 30.3076 126.881 30.1149 126.688 30.1149ZM124.055 30.3076H126.367C126.56 30.3076 126.752 30.5002 126.752 30.757V32.1697C126.752 32.4265 126.56 32.6191 126.367 32.6191H124.055C123.863 32.6191 123.67 32.4265 123.67 32.1697V30.757C123.67 30.5002 123.863 30.3076 124.055 30.3076Z" fill="#878181"/>
<path d="M132.082 32.8117H128.743V31.0138C128.743 30.5643 129.128 30.2433 129.513 30.2433H132.082V32.8117Z" fill="#BDB3B3"/>
<path d="M131.825 30.1149H129C128.807 30.1149 128.614 30.3076 128.614 30.5644V32.3623C128.614 32.6191 128.807 32.8118 129 32.8118H131.825C132.018 32.8118 132.21 32.6191 132.21 32.3623V30.5644C132.21 30.3718 132.018 30.1149 131.825 30.1149ZM129.192 30.3718H131.504C131.697 30.3718 131.889 30.5644 131.889 30.8212V32.2339C131.889 32.4907 131.697 32.6834 131.504 32.6834H129.192C129 32.6834 128.807 32.4907 128.807 32.2339V30.8212C128.807 30.5644 129 30.3718 129.192 30.3718Z" fill="#878181"/>
<path d="M137.219 32.8758H133.88V31.0779C133.88 30.6284 134.265 30.3074 134.65 30.3074H137.219V32.8758Z" fill="#BDB3B3"/>
<path d="M136.962 30.179H134.137C133.944 30.179 133.751 30.3717 133.751 30.6285V32.4264C133.751 32.6832 133.944 32.8759 134.137 32.8759H136.962C137.154 32.8759 137.347 32.6832 137.347 32.4264V30.6285C137.411 30.3717 137.219 30.179 136.962 30.179ZM134.393 30.3717H136.705C136.898 30.3717 137.09 30.5643 137.09 30.8211V32.2338C137.09 32.4906 136.898 32.6832 136.705 32.6832H134.393C134.201 32.6832 134.008 32.4906 134.008 32.2338V30.8211C134.008 30.5643 134.137 30.3717 134.393 30.3717Z" fill="#878181"/>
<path d="M142.356 32.9401H139.017V31.1422C139.017 30.6927 139.402 30.3716 139.787 30.3716H142.356V32.9401Z" fill="#BDB3B3"/>
<path d="M142.163 30.2433H139.338C139.145 30.2433 138.952 30.4359 138.952 30.6928V32.4907C138.952 32.7475 139.145 32.9401 139.338 32.9401H142.163C142.356 32.9401 142.548 32.7475 142.548 32.4907V30.6928C142.548 30.4359 142.356 30.2433 142.163 30.2433ZM139.53 30.4359H141.842C142.034 30.4359 142.227 30.6286 142.227 30.8854V32.298C142.227 32.5549 142.034 32.7475 141.842 32.7475H139.53C139.338 32.7475 139.145 32.5549 139.145 32.298V30.8854C139.145 30.6286 139.338 30.4359 139.53 30.4359Z" fill="#878181"/>
<path d="M147.557 32.9401H144.218V31.1422C144.218 30.6927 144.603 30.3716 144.988 30.3716H147.557V32.9401Z" fill="#BDB3B3"/>
<path d="M147.3 30.2433H144.475C144.282 30.2433 144.089 30.4359 144.089 30.6928V32.4907C144.089 32.7475 144.282 32.9401 144.475 32.9401H147.3C147.492 32.9401 147.685 32.7475 147.685 32.4907V30.6928C147.685 30.5001 147.557 30.2433 147.3 30.2433ZM144.731 30.5001H147.043C147.236 30.5001 147.428 30.6928 147.428 30.9496V32.3622C147.428 32.6191 147.236 32.8117 147.043 32.8117H144.731C144.539 32.8117 144.346 32.6191 144.346 32.3622V30.9496C144.346 30.6928 144.475 30.4359 144.731 30.5001Z" fill="#878181"/>
<path d="M152.693 33.0043H149.355V31.2064C149.355 30.757 149.74 30.4359 150.125 30.4359H152.693V33.0043Z" fill="#BDB3B3"/>
<path d="M152.501 30.3076H149.676C149.483 30.3076 149.29 30.5002 149.29 30.757V32.5549C149.29 32.8118 149.483 33.0044 149.676 33.0044H152.501C152.693 33.0044 152.886 32.8118 152.886 32.5549V30.757C152.886 30.5002 152.693 30.3076 152.501 30.3076ZM149.868 30.5002H152.18C152.372 30.5002 152.565 30.6928 152.565 30.9497V32.3623C152.565 32.6191 152.372 32.8118 152.18 32.8118H149.868C149.676 32.8118 149.483 32.6191 149.483 32.3623V30.9497C149.483 30.6928 149.676 30.5002 149.868 30.5002Z" fill="#878181"/>
<path d="M157.895 33.0684H154.556V31.2705C154.556 30.8211 154.941 30.5 155.326 30.5H157.895V33.0684Z" fill="#BDB3B3"/>
<path d="M157.638 30.3716H154.812C154.62 30.3716 154.427 30.5643 154.427 30.8211V32.619C154.427 32.8759 154.62 33.0685 154.812 33.0685H157.638C157.83 33.0685 158.023 32.8759 158.023 32.619V30.8211C158.023 30.5643 157.895 30.3716 157.638 30.3716ZM155.069 30.5643H157.381C157.574 30.5643 157.766 30.7569 157.766 31.0138V32.4264C157.766 32.6832 157.574 32.8759 157.381 32.8759H155.069C154.877 32.8759 154.684 32.6832 154.684 32.4264V31.0138C154.62 30.7569 154.812 30.5643 155.069 30.5643Z" fill="#878181"/>
<path d="M163.031 33.0684H159.692V31.2705C159.692 30.8211 160.078 30.5 160.463 30.5H163.031V33.0684Z" fill="#BDB3B3"/>
<path d="M162.839 30.3716H160.014C159.821 30.3716 159.628 30.5643 159.628 30.8211V32.619C159.628 32.8759 159.821 33.0685 160.014 33.0685H162.839C163.031 33.0685 163.224 32.8759 163.224 32.619V30.8211C163.224 30.6285 163.031 30.3716 162.839 30.3716ZM160.206 30.5643H162.518C162.71 30.5643 162.903 30.7569 162.903 31.0138V32.4264C162.903 32.6832 162.71 32.8759 162.518 32.8759H160.206C160.014 32.8759 159.821 32.6832 159.821 32.4264V31.0138C159.821 30.8211 160.014 30.5643 160.206 30.5643Z" fill="#878181"/>
<path d="M125.211 51.4971C126.303 52.1392 125.661 53.8086 125.019 54.9002L118.79 65.2382C117.827 66.8434 116.286 67.8066 114.937 67.0361L112.497 65.5592L121.038 52.1392C121.68 51.0476 123.285 50.2128 124.377 50.8549L125.211 51.4971Z" fill="#FFAB91"/>
<path d="M102.665 66.9227L102.399 75.266L114.85 75.6633L115.116 67.3201L102.665 66.9227Z" fill="#FFCCBC"/>
<path d="M108.998 67.1398L108.731 75.4831L114.828 75.6777L115.095 67.3344L108.998 67.1398Z" fill="#FFAB91"/>
<path d="M115.515 109.094L116.414 75.7046L101.196 75.1909L100.297 108.581" fill="#2FA2DB"/>
<path d="M115.515 109.094L116.414 75.7046L108.837 75.4478L107.874 108.837" fill="#298DBF"/>
<path d="M102.673 66.9078L115.451 67.293C117.313 67.3573 118.919 65.8804 118.983 64.0183L119.496 47.8371L99.9121 47.195L99.3984 63.3762C99.3342 65.3025 100.811 66.9078 102.673 66.9078Z" fill="#FFCCBC"/>
<path d="M112.369 31.078H113.204C114.167 31.078 114.873 31.9128 114.873 32.8117L114.424 47.6444L110.186 47.516L110.635 32.6833C110.635 31.7844 111.47 31.078 112.369 31.078Z" fill="#FFCCBC"/>
<path d="M107.232 32.6191H108.067C109.03 32.6191 109.736 33.4538 109.736 34.3528L109.287 47.516L105.049 47.3876L105.498 34.2243C105.498 33.3254 106.269 32.5549 107.232 32.6191Z" fill="#FFCCBC"/>
<path d="M102.031 35.8296H102.866C103.829 35.8296 104.535 36.6643 104.535 37.5633L104.214 47.3233L99.9763 47.1949L100.297 37.4349C100.297 36.5359 101.068 35.8296 102.031 35.8296Z" fill="#FFCCBC"/>
<path d="M117.377 34.6097H118.212C119.175 34.6097 119.882 35.4445 119.882 36.3434L119.496 47.773L115.259 47.6445L115.644 36.215C115.644 35.3161 116.414 34.6097 117.377 34.6097Z" fill="#FFCCBC"/>
<path d="M113.396 81.1625C113.396 81.612 113.717 81.933 114.167 81.933C114.616 81.933 114.938 81.612 114.938 81.1625C114.938 80.713 114.616 80.392 114.167 80.392C113.717 80.392 113.396 80.713 113.396 81.1625Z" fill="white"/>
<path d="M113.653 78.851C113.653 79.3005 113.974 79.6215 114.424 79.6215C114.873 79.6215 115.194 79.3005 115.194 78.851C115.194 78.4015 114.873 78.0804 114.424 78.0804C114.039 78.0804 113.653 78.4015 113.653 78.851Z" fill="white"/>
<path d="M114.873 83.4099C114.873 82.9604 114.552 82.6394 114.103 82.6394C113.653 82.6394 113.332 82.9604 113.332 83.4099" fill="white"/>
<path d="M129.834 51.4971C128.743 52.1392 129.385 53.8086 130.027 54.9002L136.255 65.2382C137.219 66.8434 138.76 67.8066 140.108 67.0361L142.548 65.5592L134.008 52.1392C133.366 51.0476 131.761 50.2128 130.669 50.8549L129.834 51.4971Z" fill="#FFAB91"/>
<path d="M152.304 66.9659L139.854 67.3633L140.12 75.7065L152.571 75.3091L152.304 66.9659Z" fill="#FFAB91"/>
<path d="M145.947 67.1347L139.85 67.3293L140.116 75.6725L146.213 75.4779L145.947 67.1347Z" fill="#FFCCBC"/>
<path d="M154.748 108.581L153.785 75.1909L138.567 75.7046L139.466 109.094" fill="#2FA2DB"/>
<path d="M139.466 109.094L138.567 75.7046L146.208 75.4478L147.107 108.837" fill="#298DBF"/>
<path d="M152.308 66.9078L139.53 67.293C137.668 67.3573 136.063 65.8804 135.999 64.0183L135.485 47.8371L155.069 47.195L155.583 63.3762C155.647 65.3025 154.17 66.9078 152.308 66.9078Z" fill="#FFCCBC"/>
<path d="M142.612 31.078H141.778C140.814 31.078 140.108 31.9128 140.108 32.8117L140.558 47.6444L144.796 47.516L144.41 32.7475C144.346 31.7844 143.576 31.078 142.612 31.078Z" fill="#FFCCBC"/>
<path d="M147.749 32.6191H146.914C145.951 32.6191 145.245 33.4538 145.245 34.3528L145.694 47.516L149.932 47.3876L149.483 34.2243C149.483 33.3254 148.712 32.5549 147.749 32.6191Z" fill="#FFCCBC"/>
<path d="M153.015 35.8296H152.18C151.217 35.8296 150.51 36.6643 150.51 37.5633L150.831 47.3233L155.069 47.1949L154.748 37.4991C154.684 36.5359 153.914 35.8296 153.015 35.8296Z" fill="#FFCCBC"/>
<path d="M137.668 34.6097H136.833C135.87 34.6097 135.164 35.4445 135.164 36.3434L135.549 47.773L139.787 47.6445L139.402 36.215C139.338 35.3161 138.567 34.6097 137.668 34.6097Z" fill="#FFCCBC"/>
<path d="M141.585 81.1625C141.585 81.612 141.264 81.933 140.814 81.933C140.365 81.933 140.044 81.612 140.044 81.1625C140.044 80.713 140.365 80.392 140.814 80.392C141.264 80.392 141.585 80.713 141.585 81.1625Z" fill="white"/>
<path d="M141.328 78.851C141.328 79.3005 141.007 79.6215 140.558 79.6215C140.108 79.6215 139.787 79.3005 139.787 78.851C139.787 78.4015 140.108 78.0804 140.558 78.0804C141.007 78.0804 141.328 78.4015 141.328 78.851Z" fill="white"/>
<path d="M140.172 83.4099C140.172 82.9604 140.493 82.6394 140.943 82.6394C141.392 82.6394 141.713 82.9604 141.713 83.4099" fill="white"/>
<path d="M102.352 37.0496C103.123 37.0496 103.765 37.6917 103.765 38.4623H100.94C100.94 37.6917 101.582 37.0496 102.352 37.0496Z" fill="#FCECE5"/>
<path d="M100.94 38.4623H103.765H100.94Z" stroke="#FCECE5" stroke-width="0.0728" stroke-miterlimit="10"/>
<path d="M107.489 33.5181C108.26 33.5181 108.902 34.1602 108.902 34.9307H106.076C106.076 34.1602 106.719 33.5181 107.489 33.5181Z" fill="#FCECE5"/>
<path d="M106.076 34.9307H108.902H106.076Z" stroke="#FCECE5" stroke-width="0.0728" stroke-miterlimit="10"/>
<path d="M112.754 32.1695C113.525 32.1695 114.167 32.8116 114.167 33.5822H111.342C111.342 32.8116 111.984 32.1695 112.754 32.1695Z" fill="#FCECE5"/>
<path d="M111.342 33.5822H114.167H111.342Z" stroke="#FCECE5" stroke-width="0.0728" stroke-miterlimit="10"/>
<path d="M137.283 35.5727C138.053 35.5727 138.696 36.2148 138.696 36.9853H135.87C135.87 36.1506 136.512 35.5727 137.283 35.5727Z" fill="#FCECE5"/>
<path d="M135.87 36.9854H138.696H135.87Z" stroke="#FCECE5" stroke-width="0.0728" stroke-miterlimit="10"/>
<path d="M142.227 32.0412C142.998 32.0412 143.64 32.6833 143.64 33.4538H140.814C140.814 32.6833 141.457 32.0412 142.227 32.0412Z" fill="#FCECE5"/>
<path d="M140.814 33.4538H143.64H140.814Z" stroke="#FCECE5" stroke-width="0.0728" stroke-miterlimit="10"/>
<path d="M147.364 33.3254C148.135 33.3254 148.777 33.9675 148.777 34.7381H145.951C145.951 33.9675 146.593 33.3254 147.364 33.3254Z" fill="#FCECE5"/>
<path d="M145.951 34.7381H148.777H145.951Z" stroke="#FCECE5" stroke-width="0.0728" stroke-miterlimit="10"/>
<path d="M152.693 36.4717C153.464 36.4717 154.106 37.1139 154.106 37.8844H151.281C151.281 37.1139 151.859 36.4717 152.693 36.4717Z" fill="#FCECE5"/>
<path d="M151.281 37.8844H154.106H151.281Z" stroke="#FCECE5" stroke-width="0.0728" stroke-miterlimit="10"/>
<path d="M117.634 35.7012C118.405 35.7012 119.047 36.3433 119.047 37.1139H116.222C116.222 36.3433 116.864 35.7012 117.634 35.7012Z" fill="#FCECE5"/>
<path d="M116.222 37.1139H119.047H116.222Z" stroke="#FCECE5" stroke-width="0.0728" stroke-miterlimit="10"/>
<path d="M75.512 16.0527V49.8919C75.512 51.5614 74.1636 52.9098 72.4941 52.9098H56.5056C54.8361 52.9098 53.4877 51.5614 53.4877 49.8919V16.0527" fill="#FFF6F2"/>
<path d="M74.0351 18.4928H54.9645V47.3877H74.0351V18.4928Z" fill="#323D42"/>
<path d="M74.0352 19.5201H56.313V47.3877H74.0352V19.5201Z" fill="#5A6C75"/>
<path d="M56.313 47.3877H74.0352V19.5201L56.313 47.3877Z" fill="#47565D"/>
<path d="M66.5867 49.956C66.5867 51.1118 65.6877 52.0108 64.5319 52.0108C63.3761 52.0108 62.4772 51.1118 62.4772 49.956C62.4772 48.8002 63.3761 47.9013 64.5319 47.9013C65.6235 47.9013 66.5867 48.8002 66.5867 49.956Z" fill="#D1CAC7"/>
<path d="M90.7942 82.2542H79.4288C76.6678 82.2542 74.4204 80.0068 74.4204 77.2457C74.4204 75.2552 72.8151 73.5857 70.7604 73.5857H50.0203C47.2592 73.5857 45.0118 71.3383 45.0118 68.5773V66.972C45.0118 64.2109 47.2592 61.9635 50.0203 61.9635H60.1656C62.1561 61.9635 63.8256 60.3583 63.8256 58.3035V52.0109H65.174V58.3035C65.174 61.0646 62.9266 63.312 60.1656 63.312H50.0203C48.0297 63.312 46.3602 64.9172 46.3602 66.972V68.5773C46.3602 70.5678 47.9655 72.2373 50.0203 72.2373H70.8246C73.5856 72.2373 75.833 74.4847 75.833 77.2457C75.833 79.2363 77.4383 80.9058 79.4931 80.9058H90.8584C92.8489 80.9058 94.5184 79.3005 94.5184 77.2457V65.3667H95.8668V77.2457C95.8026 80.0068 93.5552 82.2542 90.7942 82.2542Z" fill="white"/>
<path d="M64.6603 55.8636C62.9908 55.8636 61.6424 54.5151 61.6424 52.8456H67.6782C67.6782 54.5151 66.3298 55.8636 64.6603 55.8636Z" fill="white"/>
<path d="M65.174 55.0288C63.5045 55.0288 62.1561 53.6803 62.1561 52.0109H68.1919C68.1919 53.6803 66.8435 55.0288 65.174 55.0288Z" fill="#F5ECE8"/>
<path d="M95.1605 67.7426C93.491 67.7426 92.1426 66.3942 92.1426 64.7247H98.1784C98.1784 66.3942 96.83 67.7426 95.1605 67.7426Z" fill="white"/>
<path d="M95.6742 66.9078C94.0047 66.9078 92.6563 65.5594 92.6563 63.8899H98.6921C98.6921 65.5594 97.3437 66.9078 95.6742 66.9078Z" fill="#F5ECE8"/>
<path d="M6.97157 34.4971H48.1308C48.7086 34.4971 49.2223 35.2676 49.2223 36.1665V40.2118C49.2223 41.1108 48.7086 41.8813 48.1308 41.8813H6.97157V34.4971Z" fill="url(#paint1_linear)"/>
<path d="M49.2224 40.212V37.5151V36.1667V35.2035C49.2224 34.6898 49.094 34.2404 49.0298 34.2404H40.7466V34.4972V38.4141V41.8172H49.0298C49.094 41.8814 49.2224 41.1109 49.2224 40.212Z" fill="#182C3C"/>
<path d="M49.2224 37.3224V35.8456V35.075V34.4971C49.2224 34.1761 49.1582 33.9835 49.0298 33.9835H40.7466V34.1119V36.2951V38.2214H49.0298C49.094 38.2856 49.2224 37.8361 49.2224 37.3224Z" fill="#2F5675"/>
<path d="M1 38.1572L6.97161 34.2404V41.8815L1 38.1572Z" fill="white"/>
<path d="M1 38.1572L3.3758 39.634L3.11896 36.8087L1 38.1572Z" fill="#175882"/>
<path d="M158.472 76.5394V75.7046C158.472 72.3657 161.169 69.6688 164.508 69.6688H170.994C174.333 69.6688 177.029 72.3657 177.029 75.7046V76.5394C177.029 79.8783 174.333 82.5752 170.994 82.5752H164.508C161.169 82.511 158.472 79.8141 158.472 76.5394Z" fill="#EBE1E1"/>
<path d="M180.497 59.6519L160.848 69.412V70.7604C160.848 76.1541 165.086 80.5205 170.287 80.5205H180.497C185.698 80.5205 189.936 76.1541 189.936 70.7604V69.412C190 64.0183 185.762 59.6519 180.497 59.6519Z" fill="white"/>
<path d="M178.506 74.8699H176.965V77.4383H178.506V74.8699Z" fill="white"/>
<path d="M179.277 76.8605H177.736V75.512H179.277C180.368 75.512 181.331 74.6131 181.331 73.4573V67.2288C181.331 66.1372 180.433 65.1741 179.277 65.1741H177.158C175.296 65.1741 173.755 63.633 173.755 61.7709V37.4992C173.755 36.4076 172.856 35.4444 171.7 35.4444H168.425V34.1602H171.7C173.562 34.1602 175.103 35.7013 175.103 37.5634V61.8993C175.103 62.9909 176.002 63.9541 177.158 63.9541H179.277C181.139 63.9541 182.68 65.4951 182.68 67.3572V73.5857C182.616 75.3194 181.139 76.8605 179.277 76.8605Z" fill="white"/>
</g>
<defs>
<linearGradient id="paint0_linear" x1="54.5915" y1="79.2882" x2="54.5915" y2="67.1864" gradientUnits="userSpaceOnUse">
<stop offset="0.5" stop-color="#636C80"/>
</linearGradient>
<linearGradient id="paint1_linear" x1="28.0918" y1="41.88" x2="28.0918" y2="34.5022" gradientUnits="userSpaceOnUse">
<stop offset="0.5" stop-color="#FFA745"/>
</linearGradient>
<clipPath id="clip0">
<rect width="190" height="109.094" fill="white"/>
</clipPath>
</defs>
</svg>
