<svg width="200" height="72" viewBox="0 0 200 72" fill="none" xmlns="http://www.w3.org/2000/svg">
<g clip-path="url(#clip0)">
<rect width="200" height="72" fill="#F7F7F7"/>
<path d="M-4 11.0101H5.02193V22.2002H7.34285V15.8629H18.8166V25.8946H20.3365V2.35422H30.306V8.81629H35.419V16.8556H36.9669V11.7996H46.0307V26.8873H48.6832V14.6207H56.9722V5.30545H62.6105V0H69.1317V23.5315H71.3218V13.7118H82.0643V27.7694H83.5494V16.296H94.4438V5.9595H100V58H-4V11.0101Z" fill="#EBEBEB"/>
<path d="M1.27878 12.4162H-0.248138V14.5548H1.27878V12.4162Z" fill="white"/>
<path d="M3.92426 12.4162H2.39734V14.5548H3.92426V12.4162Z" fill="white"/>
<path d="M1.27878 15.6348H-0.248138V17.7734H1.27878V15.6348Z" fill="white"/>
<path d="M3.92426 15.6348H2.39734V17.7734H3.92426V15.6348Z" fill="white"/>
<path d="M1.27878 18.8551H-0.248138V20.9937H1.27878V18.8551Z" fill="white"/>
<path d="M3.92426 18.8551H2.39734V20.9937H3.92426V18.8551Z" fill="white"/>
<path d="M1.27878 22.0737H-0.248138V24.2123H1.27878V22.0737Z" fill="white"/>
<path d="M3.92426 22.0737H2.39734V24.2123H3.92426V22.0737Z" fill="white"/>
<path d="M51.4823 16.1498H49.9553V17.9338H51.4823V16.1498Z" fill="white"/>
<path d="M54.1295 16.1498H52.6026V17.9338H54.1295V16.1498Z" fill="white"/>
<path d="M56.775 16.1498H55.2481V17.9338H56.775V16.1498Z" fill="white"/>
<path d="M51.4823 18.8355H49.9553V20.6195H51.4823V18.8355Z" fill="white"/>
<path d="M54.1295 18.8355H52.6026V20.6195H54.1295V18.8355Z" fill="white"/>
<path d="M56.775 18.8355H55.2481V20.6195H56.775V18.8355Z" fill="white"/>
<path d="M51.4823 21.5212H49.9553V23.3051H51.4823V21.5212Z" fill="white"/>
<path d="M54.1295 21.5212H52.6026V23.3051H54.1295V21.5212Z" fill="white"/>
<path d="M56.775 21.5212H55.2481V23.3051H56.775V21.5212Z" fill="white"/>
<path d="M51.4823 24.2069H49.9553V25.9908H51.4823V24.2069Z" fill="white"/>
<path d="M54.1295 24.2069H52.6026V25.9908H54.1295V24.2069Z" fill="white"/>
<path d="M56.775 24.2069H55.2481V25.9908H56.775V24.2069Z" fill="white"/>
<path d="M51.4823 26.9585H49.9553V28.7425H51.4823V26.9585Z" fill="white"/>
<path d="M54.1295 26.9585H52.6026V28.7425H54.1295V26.9585Z" fill="white"/>
<path d="M56.775 26.9585H55.2481V28.7425H56.775V26.9585Z" fill="white"/>
<path d="M51.4823 29.7102H49.9553V31.4941H51.4823V29.7102Z" fill="white"/>
<path d="M54.1295 29.7102H52.6026V31.4941H54.1295V29.7102Z" fill="white"/>
<path d="M56.775 29.7102H55.2481V31.4941H56.775V29.7102Z" fill="white"/>
<path d="M51.4823 32.4618H49.9553V34.2457H51.4823V32.4618Z" fill="white"/>
<path d="M54.1295 32.4618H52.6026V34.2457H54.1295V32.4618Z" fill="white"/>
<path d="M56.775 32.4618H55.2481V34.2457H56.775V32.4618Z" fill="white"/>
<path d="M51.4823 35.2152H49.9553V36.9992H51.4823V35.2152Z" fill="white"/>
<path d="M54.1295 35.2152H52.6026V36.9992H54.1295V35.2152Z" fill="white"/>
<path d="M56.775 35.2152H55.2481V36.9992H56.775V35.2152Z" fill="white"/>
<path d="M17.4362 17.2369H8.64813V18.5753H17.4362V17.2369Z" fill="white"/>
<path d="M17.4362 19.8317H8.64813V21.1701H17.4362V19.8317Z" fill="white"/>
<path d="M17.4362 22.4283H8.64813V23.7667H17.4362V22.4283Z" fill="white"/>
<path d="M17.4362 25.0249H8.64813V26.3633H17.4362V25.0249Z" fill="white"/>
<path d="M17.4362 27.6215H8.64813V28.9599H17.4362V27.6215Z" fill="white"/>
<path d="M17.4362 30.2163H8.64813V31.5547H17.4362V30.2163Z" fill="white"/>
<path d="M17.4362 32.8129H8.64813V34.1513H17.4362V32.8129Z" fill="white"/>
<path d="M17.4362 35.4095H8.64813V36.7479H17.4362V35.4095Z" fill="white"/>
<path d="M80.7014 14.9594H72.6218V16.2977H80.7014V14.9594Z" fill="white"/>
<path d="M80.7014 17.5559H72.6218V18.8943H80.7014V17.5559Z" fill="white"/>
<path d="M80.7014 20.1525H72.6218V21.4909H80.7014V20.1525Z" fill="white"/>
<path d="M80.7014 22.7491H72.6218V24.0875H80.7014V22.7491Z" fill="white"/>
<path d="M80.7014 25.3439H72.6218V26.6823H80.7014V25.3439Z" fill="white"/>
<path d="M80.7014 27.9405H72.6218V29.2789H80.7014V27.9405Z" fill="white"/>
<path d="M80.7014 30.5371H72.6218V31.8755H80.7014V30.5371Z" fill="white"/>
<path d="M80.7014 33.1319H72.6218V34.4703H80.7014V33.1319Z" fill="white"/>
<path d="M80.7014 35.6002H72.6218V36.9386H80.7014V35.6002Z" fill="white"/>
<path d="M80.7014 38.0667H72.6218V39.4051H80.7014V38.0667Z" fill="white"/>
<path d="M80.7014 40.5332H72.6218V41.8716H80.7014V40.5332Z" fill="white"/>
<path d="M80.7014 42.9997H72.6218V44.3381H80.7014V42.9997Z" fill="white"/>
<path d="M80.7014 45.4661H72.6218V46.8045H80.7014V45.4661Z" fill="white"/>
<path d="M93.7649 18.0959H85.2299V19.4343H93.7649V18.0959Z" fill="white"/>
<path d="M93.7649 20.6925H85.2299V22.0309H93.7649V20.6925Z" fill="white"/>
<path d="M93.7649 23.2873H85.2299V24.6257H93.7649V23.2873Z" fill="white"/>
<path d="M93.7649 25.8839H85.2299V27.2223H93.7649V25.8839Z" fill="white"/>
<path d="M93.7649 28.4805H85.2299V29.8189H93.7649V28.4805Z" fill="white"/>
<path d="M93.7649 31.0753H85.2299V32.4137H93.7649V31.0753Z" fill="white"/>
<path d="M93.7649 33.6719H85.2299V35.0103H93.7649V33.6719Z" fill="white"/>
<path d="M93.7649 36.2685H85.2299V37.6069H93.7649V36.2685Z" fill="white"/>
<path d="M93.7649 38.5924H85.2299V39.9308H93.7649V38.5924Z" fill="white"/>
<path d="M93.7649 40.9163H85.2299V42.2547H93.7649V40.9163Z" fill="white"/>
<path d="M93.7649 43.2385H85.2299V44.5769H93.7649V43.2385Z" fill="white"/>
<path d="M42.3312 13.0115H39.6176V14.3035H42.3312V13.0115Z" fill="white"/>
<path d="M42.3312 15.5189H39.6176V16.811H42.3312V15.5189Z" fill="white"/>
<path d="M42.3312 18.0246H39.6176V19.3167H42.3312V18.0246Z" fill="white"/>
<path d="M42.3312 20.5321H39.6176V21.8242H42.3312V20.5321Z" fill="white"/>
<path d="M42.3312 23.0396H39.6176V24.3317H42.3312V23.0396Z" fill="white"/>
<path d="M42.3312 25.5471H39.6176V26.8391H42.3312V25.5471Z" fill="white"/>
<path d="M42.3312 28.0528H39.6176V29.3449H42.3312V28.0528Z" fill="white"/>
<path d="M42.3312 30.5603H39.6176V31.8523H42.3312V30.5603Z" fill="white"/>
<path d="M46.0255 13.0115H43.3119V14.3035H46.0255V13.0115Z" fill="white"/>
<path d="M46.0255 15.5189H43.3119V16.811H46.0255V15.5189Z" fill="white"/>
<path d="M46.0255 18.0246H43.3119V19.3167H46.0255V18.0246Z" fill="white"/>
<path d="M46.0255 20.5321H43.3119V21.8242H46.0255V20.5321Z" fill="white"/>
<path d="M46.0255 23.0396H43.3119V24.3317H46.0255V23.0396Z" fill="white"/>
<path d="M46.0255 25.5471H43.3119V26.8391H46.0255V25.5471Z" fill="white"/>
<path d="M46.0255 28.0528H43.3119V29.3449H46.0255V28.0528Z" fill="white"/>
<path d="M46.0255 30.5603H43.3119V31.8523H46.0255V30.5603Z" fill="white"/>
<path d="M24.6747 3.71043H21.8477V5.74743H24.6747V3.71043Z" fill="white"/>
<path d="M28.889 3.71043H26.062V5.74743H28.889V3.71043Z" fill="white"/>
<path d="M24.6747 6.70266H21.8477V8.73966H24.6747V6.70266Z" fill="white"/>
<path d="M28.889 6.70266H26.062V8.73966H28.889V6.70266Z" fill="white"/>
<path d="M24.6747 9.69667H21.8477V11.7337H24.6747V9.69667Z" fill="white"/>
<path d="M28.889 9.69667H26.062V11.7337H28.889V9.69667Z" fill="white"/>
<path d="M24.6747 12.6907H21.8477V14.7277H24.6747V12.6907Z" fill="white"/>
<path d="M28.889 12.6907H26.062V14.7277H28.889V12.6907Z" fill="white"/>
<path d="M24.6747 15.6829H21.8477V17.7199H24.6747V15.6829Z" fill="white"/>
<path d="M28.889 15.6829H26.062V17.7199H28.889V15.6829Z" fill="white"/>
<path d="M24.6747 18.6769H21.8477V20.7139H24.6747V18.6769Z" fill="white"/>
<path d="M28.889 18.6769H26.062V20.7139H28.889V18.6769Z" fill="white"/>
<path d="M24.6747 21.6691H21.8477V23.7061H24.6747V21.6691Z" fill="white"/>
<path d="M28.889 21.6691H26.062V23.7061H28.889V21.6691Z" fill="white"/>
<path d="M24.6747 24.6631H21.8477V26.7001H24.6747V24.6631Z" fill="white"/>
<path d="M28.889 24.6631H26.062V26.7001H28.889V24.6631Z" fill="white"/>
<path d="M34.1137 9.69666H31.2867V11.7337H34.1137V9.69666Z" fill="white"/>
<path d="M34.1137 12.6907H31.2867V14.7277H34.1137V12.6907Z" fill="white"/>
<path d="M34.1137 15.6829H31.2867V17.7199H34.1137V15.6829Z" fill="white"/>
<path d="M34.1137 18.6769H31.2867V20.7139H34.1137V18.6769Z" fill="white"/>
<path d="M34.1137 21.6691H31.2867V23.7061H34.1137V21.6691Z" fill="white"/>
<path d="M34.1137 24.6631H31.2867V26.7001H34.1137V24.6631Z" fill="white"/>
<path d="M24.6747 27.6215H21.8477V29.6585H24.6747V27.6215Z" fill="white"/>
<path d="M28.889 27.6215H26.062V29.6585H28.889V27.6215Z" fill="white"/>
<path d="M34.1137 27.6215H31.2867V29.6585H34.1137V27.6215Z" fill="white"/>
<path d="M24.6747 30.5781H21.8477V32.6151H24.6747V30.5781Z" fill="white"/>
<path d="M28.889 30.5781H26.062V32.6151H28.889V30.5781Z" fill="white"/>
<path d="M34.1137 30.5781H31.2867V32.6151H34.1137V30.5781Z" fill="white"/>
<path d="M24.6747 33.5365H21.8477V35.5735H24.6747V33.5365Z" fill="white"/>
<path d="M28.889 33.5365H26.062V35.5735H28.889V33.5365Z" fill="white"/>
<path d="M34.1137 33.5365H31.2867V35.5735H34.1137V33.5365Z" fill="white"/>
<path d="M24.6747 36.493H21.8477V38.53H24.6747V36.493Z" fill="white"/>
<path d="M28.889 36.493H26.062V38.53H28.889V36.493Z" fill="white"/>
<path d="M34.1137 36.493H31.2867V38.53H34.1137V36.493Z" fill="white"/>
<path d="M24.6747 39.4514H21.8477V41.4884H24.6747V39.4514Z" fill="white"/>
<path d="M28.889 39.4514H26.062V41.4884H28.889V39.4514Z" fill="white"/>
<path d="M34.1137 39.4514H31.2867V41.4884H34.1137V39.4514Z" fill="white"/>
<path d="M59.6509 6.6189H58.1239V8.40283H59.6509V6.6189Z" fill="white"/>
<path d="M62.2964 6.6189H60.7694V8.40283H62.2964V6.6189Z" fill="white"/>
<path d="M59.6509 9.3046H58.1239V11.0885H59.6509V9.3046Z" fill="white"/>
<path d="M62.2964 9.3046H60.7694V11.0885H62.2964V9.3046Z" fill="white"/>
<path d="M59.6509 11.9885H58.1239V13.7724H59.6509V11.9885Z" fill="white"/>
<path d="M62.2964 11.9885H60.7694V13.7724H62.2964V11.9885Z" fill="white"/>
<path d="M59.6509 14.6742H58.1239V16.4581H59.6509V14.6742Z" fill="white"/>
<path d="M62.2964 14.6742H60.7694V16.4581H62.2964V14.6742Z" fill="white"/>
<path d="M59.6509 17.4258H58.1239V19.2098H59.6509V17.4258Z" fill="white"/>
<path d="M62.2964 17.4258H60.7694V19.2098H62.2964V17.4258Z" fill="white"/>
<path d="M59.6509 20.1793H58.1239V21.9632H59.6509V20.1793Z" fill="white"/>
<path d="M62.2964 20.1793H60.7694V21.9632H62.2964V20.1793Z" fill="white"/>
<path d="M59.6509 22.9309H58.1239V24.7148H59.6509V22.9309Z" fill="white"/>
<path d="M62.2964 22.9309H60.7694V24.7148H62.2964V22.9309Z" fill="white"/>
<path d="M59.6509 25.6825H58.1239V27.4665H59.6509V25.6825Z" fill="white"/>
<path d="M62.2964 25.6825H60.7694V27.4665H62.2964V25.6825Z" fill="white"/>
<path d="M59.6509 28.4645H58.1239V30.2484H59.6509V28.4645Z" fill="white"/>
<path d="M62.2964 28.4645H60.7694V30.2484H62.2964V28.4645Z" fill="white"/>
<path d="M59.6509 31.2446H58.1239V33.0285H59.6509V31.2446Z" fill="white"/>
<path d="M62.2964 31.2446H60.7694V33.0285H62.2964V31.2446Z" fill="white"/>
<path d="M59.6509 34.0265H58.1239V35.8105H59.6509V34.0265Z" fill="white"/>
<path d="M62.2964 34.0265H60.7694V35.8105H62.2964V34.0265Z" fill="white"/>
<path d="M59.6509 36.8067H58.1239V38.5906H59.6509V36.8067Z" fill="white"/>
<path d="M62.2964 36.8067H60.7694V38.5906H62.2964V36.8067Z" fill="white"/>
<path d="M96.9269 6.90761H95.4V9.01054H96.9269V6.90761Z" fill="white"/>
<path d="M99.5724 6.90761H98.0455V9.01054H99.5724V6.90761Z" fill="white"/>
<path d="M96.9269 10.0727H95.4V12.1756H96.9269V10.0727Z" fill="white"/>
<path d="M99.5724 10.0727H98.0455V12.1756H99.5724V10.0727Z" fill="white"/>
<path d="M96.9269 13.236H95.4V15.3389H96.9269V13.236Z" fill="white"/>
<path d="M99.5724 13.236H98.0455V15.3389H99.5724V13.236Z" fill="white"/>
<path d="M96.9269 16.3993H95.4V18.5023H96.9269V16.3993Z" fill="white"/>
<path d="M99.5724 16.3993H98.0455V18.5023H99.5724V16.3993Z" fill="white"/>
<path d="M96.9269 19.641H95.4V21.744H96.9269V19.641Z" fill="white"/>
<path d="M99.5724 19.641H98.0455V21.744H99.5724V19.641Z" fill="white"/>
<path d="M96.9269 22.8846H95.4V24.9875H96.9269V22.8846Z" fill="white"/>
<path d="M99.5724 22.8846H98.0455V24.9875H99.5724V22.8846Z" fill="white"/>
<path d="M96.9269 26.1263H95.4V28.2292H96.9269V26.1263Z" fill="white"/>
<path d="M99.5724 26.1263H98.0455V28.2292H99.5724V26.1263Z" fill="white"/>
<path d="M96.9269 29.368H95.4V31.4709H96.9269V29.368Z" fill="white"/>
<path d="M99.5724 29.368H98.0455V31.4709H99.5724V29.368Z" fill="white"/>
<path d="M96.9269 32.6454H95.4V34.7483H96.9269V32.6454Z" fill="white"/>
<path d="M99.5724 32.6454H98.0455V34.7483H99.5724V32.6454Z" fill="white"/>
<path d="M96.9269 35.921H95.4V38.0239H96.9269V35.921Z" fill="white"/>
<path d="M99.5724 35.921H98.0455V38.0239H99.5724V35.921Z" fill="white"/>
<path d="M96.9269 39.1983H95.4V41.3013H96.9269V39.1983Z" fill="white"/>
<path d="M99.5724 39.1983H98.0455V41.3013H99.5724V39.1983Z" fill="white"/>
<path d="M96.9269 42.4739H95.4V44.5769H96.9269V42.4739Z" fill="white"/>
<path d="M99.5724 42.4739H98.0455V44.5769H99.5724V42.4739Z" fill="white"/>
<path d="M65.3101 6.6189H63.7831V8.40283H65.3101V6.6189Z" fill="white"/>
<path d="M67.9556 6.6189H66.4286V8.40283H67.9556V6.6189Z" fill="white"/>
<path d="M65.3101 3.86548H63.7831V5.64941H65.3101V3.86548Z" fill="white"/>
<path d="M67.9556 3.86548H66.4286V5.64941H67.9556V3.86548Z" fill="white"/>
<path d="M65.3101 1.11206H63.7831V2.89599H65.3101V1.11206Z" fill="white"/>
<path d="M67.9556 1.11206H66.4286V2.89599H67.9556V1.11206Z" fill="white"/>
<path d="M65.3101 9.3046H63.7831V11.0885H65.3101V9.3046Z" fill="white"/>
<path d="M67.9556 9.3046H66.4286V11.0885H67.9556V9.3046Z" fill="white"/>
<path d="M65.3101 11.9885H63.7831V13.7724H65.3101V11.9885Z" fill="white"/>
<path d="M67.9556 11.9885H66.4286V13.7724H67.9556V11.9885Z" fill="white"/>
<path d="M65.3101 14.6742H63.7831V16.4581H65.3101V14.6742Z" fill="white"/>
<path d="M67.9556 14.6742H66.4286V16.4581H67.9556V14.6742Z" fill="white"/>
<path d="M65.3101 17.4258H63.7831V19.2098H65.3101V17.4258Z" fill="white"/>
<path d="M67.9556 17.4258H66.4286V19.2098H67.9556V17.4258Z" fill="white"/>
<path d="M65.3101 20.1793H63.7831V21.9632H65.3101V20.1793Z" fill="white"/>
<path d="M67.9556 20.1793H66.4286V21.9632H67.9556V20.1793Z" fill="white"/>
<path d="M65.3101 22.9309H63.7831V24.7148H65.3101V22.9309Z" fill="white"/>
<path d="M67.9556 22.9309H66.4286V24.7148H67.9556V22.9309Z" fill="white"/>
<path d="M65.3101 25.6825H63.7831V27.4665H65.3101V25.6825Z" fill="white"/>
<path d="M67.9556 25.6825H66.4286V27.4665H67.9556V25.6825Z" fill="white"/>
<path d="M65.3101 28.4645H63.7831V30.2484H65.3101V28.4645Z" fill="white"/>
<path d="M67.9556 28.4645H66.4286V30.2484H67.9556V28.4645Z" fill="white"/>
<path d="M65.3101 31.2446H63.7831V33.0285H65.3101V31.2446Z" fill="white"/>
<path d="M67.9556 31.2446H66.4286V33.0285H67.9556V31.2446Z" fill="white"/>
<path d="M65.3101 34.0265H63.7831V35.8105H65.3101V34.0265Z" fill="white"/>
<path d="M67.9556 34.0265H66.4286V35.8105H67.9556V34.0265Z" fill="white"/>
<path d="M65.3101 36.8067H63.7831V38.5906H65.3101V36.8067Z" fill="white"/>
<path d="M67.9556 36.8067H66.4286V38.5906H67.9556V36.8067Z" fill="white"/>
<path d="M204 11.0101H194.978V22.2002H192.657V15.8629H181.183V25.8946H179.663V2.35422H169.694V8.81629H164.581V16.8556H163.033V11.7996H153.969V26.8873H151.317V14.6207H143.028V5.30545H137.39V0H130.868V23.5315H128.678V13.7118H117.936V27.7694H116.451V16.296H105.556V5.9595H100V58H204V11.0101Z" fill="#EBEBEB"/>
<path d="M198.721 12.4162H200.248V14.5548H198.721V12.4162Z" fill="white"/>
<path d="M196.076 12.4162H197.603V14.5548H196.076V12.4162Z" fill="white"/>
<path d="M198.721 15.6348H200.248V17.7734H198.721V15.6348Z" fill="white"/>
<path d="M196.076 15.6348H197.603V17.7734H196.076V15.6348Z" fill="white"/>
<path d="M198.721 18.8551H200.248V20.9937H198.721V18.8551Z" fill="white"/>
<path d="M196.076 18.8551H197.603V20.9937H196.076V18.8551Z" fill="white"/>
<path d="M198.721 22.0737H200.248V24.2123H198.721V22.0737Z" fill="white"/>
<path d="M196.076 22.0737H197.603V24.2123H196.076V22.0737Z" fill="white"/>
<path d="M148.518 16.1498H150.045V17.9338H148.518V16.1498Z" fill="white"/>
<path d="M145.871 16.1498H147.397V17.9338H145.871V16.1498Z" fill="white"/>
<path d="M143.225 16.1498H144.752V17.9338H143.225V16.1498Z" fill="white"/>
<path d="M148.518 18.8355H150.045V20.6195H148.518V18.8355Z" fill="white"/>
<path d="M145.871 18.8355H147.397V20.6195H145.871V18.8355Z" fill="white"/>
<path d="M143.225 18.8355H144.752V20.6195H143.225V18.8355Z" fill="white"/>
<path d="M148.518 21.5212H150.045V23.3051H148.518V21.5212Z" fill="white"/>
<path d="M145.871 21.5212H147.397V23.3051H145.871V21.5212Z" fill="white"/>
<path d="M143.225 21.5212H144.752V23.3051H143.225V21.5212Z" fill="white"/>
<path d="M148.518 24.2069H150.045V25.9908H148.518V24.2069Z" fill="white"/>
<path d="M145.871 24.2069H147.397V25.9908H145.871V24.2069Z" fill="white"/>
<path d="M143.225 24.2069H144.752V25.9908H143.225V24.2069Z" fill="white"/>
<path d="M148.518 26.9585H150.045V28.7425H148.518V26.9585Z" fill="white"/>
<path d="M145.871 26.9585H147.397V28.7425H145.871V26.9585Z" fill="white"/>
<path d="M143.225 26.9585H144.752V28.7425H143.225V26.9585Z" fill="white"/>
<path d="M148.518 29.7102H150.045V31.4941H148.518V29.7102Z" fill="white"/>
<path d="M145.871 29.7102H147.397V31.4941H145.871V29.7102Z" fill="white"/>
<path d="M143.225 29.7102H144.752V31.4941H143.225V29.7102Z" fill="white"/>
<path d="M148.518 32.4618H150.045V34.2457H148.518V32.4618Z" fill="white"/>
<path d="M145.871 32.4618H147.397V34.2457H145.871V32.4618Z" fill="white"/>
<path d="M143.225 32.4618H144.752V34.2457H143.225V32.4618Z" fill="white"/>
<path d="M148.518 35.2152H150.045V36.9992H148.518V35.2152Z" fill="white"/>
<path d="M145.871 35.2152H147.397V36.9992H145.871V35.2152Z" fill="white"/>
<path d="M143.225 35.2152H144.752V36.9992H143.225V35.2152Z" fill="white"/>
<path d="M182.564 17.2369H191.352V18.5753H182.564V17.2369Z" fill="white"/>
<path d="M182.564 19.8317H191.352V21.1701H182.564V19.8317Z" fill="white"/>
<path d="M182.564 22.4283H191.352V23.7667H182.564V22.4283Z" fill="white"/>
<path d="M182.564 25.0249H191.352V26.3633H182.564V25.0249Z" fill="white"/>
<path d="M182.564 27.6215H191.352V28.9599H182.564V27.6215Z" fill="white"/>
<path d="M182.564 30.2163H191.352V31.5547H182.564V30.2163Z" fill="white"/>
<path d="M182.564 32.8129H191.352V34.1513H182.564V32.8129Z" fill="white"/>
<path d="M182.564 35.4095H191.352V36.7479H182.564V35.4095Z" fill="white"/>
<path d="M119.299 14.9594H127.378V16.2977H119.299V14.9594Z" fill="white"/>
<path d="M119.299 17.5559H127.378V18.8943H119.299V17.5559Z" fill="white"/>
<path d="M119.299 20.1525H127.378V21.4909H119.299V20.1525Z" fill="white"/>
<path d="M119.299 22.7491H127.378V24.0875H119.299V22.7491Z" fill="white"/>
<path d="M119.299 25.3439H127.378V26.6823H119.299V25.3439Z" fill="white"/>
<path d="M119.299 27.9405H127.378V29.2789H119.299V27.9405Z" fill="white"/>
<path d="M119.299 30.5371H127.378V31.8755H119.299V30.5371Z" fill="white"/>
<path d="M119.299 33.1319H127.378V34.4703H119.299V33.1319Z" fill="white"/>
<path d="M119.299 35.6002H127.378V36.9386H119.299V35.6002Z" fill="white"/>
<path d="M119.299 38.0667H127.378V39.4051H119.299V38.0667Z" fill="white"/>
<path d="M119.299 40.5332H127.378V41.8716H119.299V40.5332Z" fill="white"/>
<path d="M119.299 42.9997H127.378V44.3381H119.299V42.9997Z" fill="white"/>
<path d="M119.299 45.4661H127.378V46.8045H119.299V45.4661Z" fill="white"/>
<path d="M106.235 18.0959H114.77V19.4343H106.235V18.0959Z" fill="white"/>
<path d="M106.235 20.6925H114.77V22.0309H106.235V20.6925Z" fill="white"/>
<path d="M106.235 23.2873H114.77V24.6257H106.235V23.2873Z" fill="white"/>
<path d="M106.235 25.8839H114.77V27.2223H106.235V25.8839Z" fill="white"/>
<path d="M106.235 28.4805H114.77V29.8189H106.235V28.4805Z" fill="white"/>
<path d="M106.235 31.0753H114.77V32.4137H106.235V31.0753Z" fill="white"/>
<path d="M106.235 33.6719H114.77V35.0103H106.235V33.6719Z" fill="white"/>
<path d="M106.235 36.2685H114.77V37.6069H106.235V36.2685Z" fill="white"/>
<path d="M106.235 38.5924H114.77V39.9308H106.235V38.5924Z" fill="white"/>
<path d="M106.235 40.9163H114.77V42.2547H106.235V40.9163Z" fill="white"/>
<path d="M106.235 43.2385H114.77V44.5769H106.235V43.2385Z" fill="white"/>
<path d="M157.669 13.0115H160.382V14.3035H157.669V13.0115Z" fill="white"/>
<path d="M157.669 15.5189H160.382V16.811H157.669V15.5189Z" fill="white"/>
<path d="M157.669 18.0246H160.382V19.3167H157.669V18.0246Z" fill="white"/>
<path d="M157.669 20.5321H160.382V21.8242H157.669V20.5321Z" fill="white"/>
<path d="M157.669 23.0396H160.382V24.3317H157.669V23.0396Z" fill="white"/>
<path d="M157.669 25.5471H160.382V26.8391H157.669V25.5471Z" fill="white"/>
<path d="M157.669 28.0528H160.382V29.3449H157.669V28.0528Z" fill="white"/>
<path d="M157.669 30.5603H160.382V31.8523H157.669V30.5603Z" fill="white"/>
<path d="M153.975 13.0115H156.688V14.3035H153.975V13.0115Z" fill="white"/>
<path d="M153.975 15.5189H156.688V16.811H153.975V15.5189Z" fill="white"/>
<path d="M153.975 18.0246H156.688V19.3167H153.975V18.0246Z" fill="white"/>
<path d="M153.975 20.5321H156.688V21.8242H153.975V20.5321Z" fill="white"/>
<path d="M153.975 23.0396H156.688V24.3317H153.975V23.0396Z" fill="white"/>
<path d="M153.975 25.5471H156.688V26.8391H153.975V25.5471Z" fill="white"/>
<path d="M153.975 28.0528H156.688V29.3449H153.975V28.0528Z" fill="white"/>
<path d="M153.975 30.5603H156.688V31.8523H153.975V30.5603Z" fill="white"/>
<path d="M175.325 3.71043H178.152V5.74743H175.325V3.71043Z" fill="white"/>
<path d="M171.111 3.71043H173.938V5.74743H171.111V3.71043Z" fill="white"/>
<path d="M175.325 6.70266H178.152V8.73966H175.325V6.70266Z" fill="white"/>
<path d="M171.111 6.70266H173.938V8.73966H171.111V6.70266Z" fill="white"/>
<path d="M175.325 9.69667H178.152V11.7337H175.325V9.69667Z" fill="white"/>
<path d="M171.111 9.69667H173.938V11.7337H171.111V9.69667Z" fill="white"/>
<path d="M175.325 12.6907H178.152V14.7277H175.325V12.6907Z" fill="white"/>
<path d="M171.111 12.6907H173.938V14.7277H171.111V12.6907Z" fill="white"/>
<path d="M175.325 15.6829H178.152V17.7199H175.325V15.6829Z" fill="white"/>
<path d="M171.111 15.6829H173.938V17.7199H171.111V15.6829Z" fill="white"/>
<path d="M175.325 18.6769H178.152V20.7139H175.325V18.6769Z" fill="white"/>
<path d="M171.111 18.6769H173.938V20.7139H171.111V18.6769Z" fill="white"/>
<path d="M175.325 21.6691H178.152V23.7061H175.325V21.6691Z" fill="white"/>
<path d="M171.111 21.6691H173.938V23.7061H171.111V21.6691Z" fill="white"/>
<path d="M175.325 24.6631H178.152V26.7001H175.325V24.6631Z" fill="white"/>
<path d="M171.111 24.6631H173.938V26.7001H171.111V24.6631Z" fill="white"/>
<path d="M165.886 9.69666H168.713V11.7337H165.886V9.69666Z" fill="white"/>
<path d="M165.886 12.6907H168.713V14.7277H165.886V12.6907Z" fill="white"/>
<path d="M165.886 15.6829H168.713V17.7199H165.886V15.6829Z" fill="white"/>
<path d="M165.886 18.6769H168.713V20.7139H165.886V18.6769Z" fill="white"/>
<path d="M165.886 21.6691H168.713V23.7061H165.886V21.6691Z" fill="white"/>
<path d="M165.886 24.6631H168.713V26.7001H165.886V24.6631Z" fill="white"/>
<path d="M175.325 27.6215H178.152V29.6585H175.325V27.6215Z" fill="white"/>
<path d="M171.111 27.6215H173.938V29.6585H171.111V27.6215Z" fill="white"/>
<path d="M165.886 27.6215H168.713V29.6585H165.886V27.6215Z" fill="white"/>
<path d="M175.325 30.5781H178.152V32.6151H175.325V30.5781Z" fill="white"/>
<path d="M171.111 30.5781H173.938V32.6151H171.111V30.5781Z" fill="white"/>
<path d="M165.886 30.5781H168.713V32.6151H165.886V30.5781Z" fill="white"/>
<path d="M175.325 33.5365H178.152V35.5735H175.325V33.5365Z" fill="white"/>
<path d="M171.111 33.5365H173.938V35.5735H171.111V33.5365Z" fill="white"/>
<path d="M165.886 33.5365H168.713V35.5735H165.886V33.5365Z" fill="white"/>
<path d="M175.325 36.493H178.152V38.53H175.325V36.493Z" fill="white"/>
<path d="M171.111 36.493H173.938V38.53H171.111V36.493Z" fill="white"/>
<path d="M165.886 36.493H168.713V38.53H165.886V36.493Z" fill="white"/>
<path d="M175.325 39.4514H178.152V41.4884H175.325V39.4514Z" fill="white"/>
<path d="M171.111 39.4514H173.938V41.4884H171.111V39.4514Z" fill="white"/>
<path d="M165.886 39.4514H168.713V41.4884H165.886V39.4514Z" fill="white"/>
<path d="M140.349 6.6189H141.876V8.40283H140.349V6.6189Z" fill="white"/>
<path d="M137.704 6.6189H139.231V8.40283H137.704V6.6189Z" fill="white"/>
<path d="M140.349 9.3046H141.876V11.0885H140.349V9.3046Z" fill="white"/>
<path d="M137.704 9.3046H139.231V11.0885H137.704V9.3046Z" fill="white"/>
<path d="M140.349 11.9885H141.876V13.7724H140.349V11.9885Z" fill="white"/>
<path d="M137.704 11.9885H139.231V13.7724H137.704V11.9885Z" fill="white"/>
<path d="M140.349 14.6742H141.876V16.4581H140.349V14.6742Z" fill="white"/>
<path d="M137.704 14.6742H139.231V16.4581H137.704V14.6742Z" fill="white"/>
<path d="M140.349 17.4258H141.876V19.2098H140.349V17.4258Z" fill="white"/>
<path d="M137.704 17.4258H139.231V19.2098H137.704V17.4258Z" fill="white"/>
<path d="M140.349 20.1793H141.876V21.9632H140.349V20.1793Z" fill="white"/>
<path d="M137.704 20.1793H139.231V21.9632H137.704V20.1793Z" fill="white"/>
<path d="M140.349 22.9309H141.876V24.7148H140.349V22.9309Z" fill="white"/>
<path d="M137.704 22.9309H139.231V24.7148H137.704V22.9309Z" fill="white"/>
<path d="M140.349 25.6825H141.876V27.4665H140.349V25.6825Z" fill="white"/>
<path d="M137.704 25.6825H139.231V27.4665H137.704V25.6825Z" fill="white"/>
<path d="M140.349 28.4645H141.876V30.2484H140.349V28.4645Z" fill="white"/>
<path d="M137.704 28.4645H139.231V30.2484H137.704V28.4645Z" fill="white"/>
<path d="M140.349 31.2446H141.876V33.0285H140.349V31.2446Z" fill="white"/>
<path d="M137.704 31.2446H139.231V33.0285H137.704V31.2446Z" fill="white"/>
<path d="M140.349 34.0265H141.876V35.8105H140.349V34.0265Z" fill="white"/>
<path d="M137.704 34.0265H139.231V35.8105H137.704V34.0265Z" fill="white"/>
<path d="M140.349 36.8067H141.876V38.5906H140.349V36.8067Z" fill="white"/>
<path d="M137.704 36.8067H139.231V38.5906H137.704V36.8067Z" fill="white"/>
<path d="M103.073 6.90761H104.6V9.01054H103.073V6.90761Z" fill="white"/>
<path d="M100.428 6.90761H101.954V9.01054H100.428V6.90761Z" fill="white"/>
<path d="M103.073 10.0727H104.6V12.1756H103.073V10.0727Z" fill="white"/>
<path d="M100.428 10.0727H101.954V12.1756H100.428V10.0727Z" fill="white"/>
<path d="M103.073 13.236H104.6V15.3389H103.073V13.236Z" fill="white"/>
<path d="M100.428 13.236H101.954V15.3389H100.428V13.236Z" fill="white"/>
<path d="M103.073 16.3993H104.6V18.5023H103.073V16.3993Z" fill="white"/>
<path d="M100.428 16.3993H101.954V18.5023H100.428V16.3993Z" fill="white"/>
<path d="M103.073 19.641H104.6V21.744H103.073V19.641Z" fill="white"/>
<path d="M100.428 19.641H101.954V21.744H100.428V19.641Z" fill="white"/>
<path d="M103.073 22.8846H104.6V24.9875H103.073V22.8846Z" fill="white"/>
<path d="M100.428 22.8846H101.954V24.9875H100.428V22.8846Z" fill="white"/>
<path d="M103.073 26.1263H104.6V28.2292H103.073V26.1263Z" fill="white"/>
<path d="M100.428 26.1263H101.954V28.2292H100.428V26.1263Z" fill="white"/>
<path d="M103.073 29.368H104.6V31.4709H103.073V29.368Z" fill="white"/>
<path d="M100.428 29.368H101.954V31.4709H100.428V29.368Z" fill="white"/>
<path d="M103.073 32.6454H104.6V34.7483H103.073V32.6454Z" fill="white"/>
<path d="M100.428 32.6454H101.954V34.7483H100.428V32.6454Z" fill="white"/>
<path d="M103.073 35.921H104.6V38.0239H103.073V35.921Z" fill="white"/>
<path d="M100.428 35.921H101.954V38.0239H100.428V35.921Z" fill="white"/>
<path d="M103.073 39.1983H104.6V41.3013H103.073V39.1983Z" fill="white"/>
<path d="M100.428 39.1983H101.954V41.3013H100.428V39.1983Z" fill="white"/>
<path d="M103.073 42.4739H104.6V44.5769H103.073V42.4739Z" fill="white"/>
<path d="M100.428 42.4739H101.954V44.5769H100.428V42.4739Z" fill="white"/>
<path d="M134.69 6.6189H136.217V8.40283H134.69V6.6189Z" fill="white"/>
<path d="M132.044 6.6189H133.571V8.40283H132.044V6.6189Z" fill="white"/>
<path d="M134.69 3.86548H136.217V5.64941H134.69V3.86548Z" fill="white"/>
<path d="M132.044 3.86548H133.571V5.64941H132.044V3.86548Z" fill="white"/>
<path d="M134.69 1.11206H136.217V2.89599H134.69V1.11206Z" fill="white"/>
<path d="M132.044 1.11206H133.571V2.89599H132.044V1.11206Z" fill="white"/>
<path d="M134.69 9.3046H136.217V11.0885H134.69V9.3046Z" fill="white"/>
<path d="M132.044 9.3046H133.571V11.0885H132.044V9.3046Z" fill="white"/>
<path d="M134.69 11.9885H136.217V13.7724H134.69V11.9885Z" fill="white"/>
<path d="M132.044 11.9885H133.571V13.7724H132.044V11.9885Z" fill="white"/>
<path d="M134.69 14.6742H136.217V16.4581H134.69V14.6742Z" fill="white"/>
<path d="M132.044 14.6742H133.571V16.4581H132.044V14.6742Z" fill="white"/>
<path d="M134.69 17.4258H136.217V19.2098H134.69V17.4258Z" fill="white"/>
<path d="M132.044 17.4258H133.571V19.2098H132.044V17.4258Z" fill="white"/>
<path d="M134.69 20.1793H136.217V21.9632H134.69V20.1793Z" fill="white"/>
<path d="M132.044 20.1793H133.571V21.9632H132.044V20.1793Z" fill="white"/>
<path d="M134.69 22.9309H136.217V24.7148H134.69V22.9309Z" fill="white"/>
<path d="M132.044 22.9309H133.571V24.7148H132.044V22.9309Z" fill="white"/>
<path d="M134.69 25.6825H136.217V27.4665H134.69V25.6825Z" fill="white"/>
<path d="M132.044 25.6825H133.571V27.4665H132.044V25.6825Z" fill="white"/>
<path d="M134.69 28.4645H136.217V30.2484H134.69V28.4645Z" fill="white"/>
<path d="M132.044 28.4645H133.571V30.2484H132.044V28.4645Z" fill="white"/>
<path d="M134.69 31.2446H136.217V33.0285H134.69V31.2446Z" fill="white"/>
<path d="M132.044 31.2446H133.571V33.0285H132.044V31.2446Z" fill="white"/>
<path d="M134.69 34.0265H136.217V35.8105H134.69V34.0265Z" fill="white"/>
<path d="M132.044 34.0265H133.571V35.8105H132.044V34.0265Z" fill="white"/>
<path d="M134.69 36.8067H136.217V38.5906H134.69V36.8067Z" fill="white"/>
<path d="M132.044 36.8067H133.571V38.5906H132.044V36.8067Z" fill="white"/>
<rect x="47" y="28" width="156" height="45" fill="#E0E0E0"/>
<rect x="49" y="31" width="28" height="35" fill="white"/>
<path d="M55.002 53.7177L75.4737 53.6248L75.4717 53L55 53.0929L55.002 53.7177Z" fill="#F5F5F5"/>
<path d="M55.002 55.7738L75.4737 55.6789L75.4717 55.0542L55 55.1491L55.002 55.7738Z" fill="#F5F5F5"/>
<path d="M63.1016 57.1137L55.0005 57.1528L55.0037 57.7776L63.1048 57.7384L63.1016 57.1137Z" fill="#F5F5F5"/>
<path d="M55.002 59.7177L75.4737 59.6248L75.4717 59L55 59.0929L55.002 59.7177Z" fill="#F5F5F5"/>
<path d="M55.002 61.7738L75.4737 61.6789L75.4717 61.0542L55 61.1491L55.002 61.7738Z" fill="#F5F5F5"/>
<path d="M63.1016 63.1137L55.0005 63.1528L55.0037 63.7776L63.1048 63.7384L63.1016 63.1137Z" fill="#F5F5F5"/>
<path d="M75.5644 33.0523H51V51.5607H75.5644V33.0523Z" fill="#FA9D99"/>
<path d="M51.0077 51.5735L59.5756 40.0603L64.8967 47.2532L68.4995 43.4026L75.5721 51.5504L51.0077 51.5735Z" fill="#E0E0E0"/>
<path d="M67.1475 38.6433C67.1475 39.7138 66.282 40.584 65.2142 40.584C64.1464 40.584 63.2784 39.7189 63.2784 38.6459C63.2784 37.5754 64.1413 36.7052 65.2116 36.7052C66.2794 36.7052 67.1449 37.5729 67.1475 38.6433Z" fill="#E0E0E0"/>
<path d="M48 41.5L59.5 30.5L48 30V41.5Z" fill="#E0E0E0"/>
<path d="M60 44L60 31L59 31L48 43.4783L60 44Z" fill="#E0E0E0"/>
<path d="M59 31L47 42.4783L59 43L59 31Z" fill="white"/>
<rect x="79" y="31" width="28" height="35" fill="white"/>
<path d="M85.002 53.7177L105.474 53.6248L105.472 53L85 53.0929L85.002 53.7177Z" fill="#F5F5F5"/>
<path d="M85.002 55.7738L105.474 55.6789L105.472 55.0542L85 55.1491L85.002 55.7738Z" fill="#F5F5F5"/>
<path d="M93.1016 57.1137L85.0005 57.1528L85.0037 57.7776L93.1048 57.7384L93.1016 57.1137Z" fill="#F5F5F5"/>
<path d="M85.002 59.7177L105.474 59.6248L105.472 59L85 59.0929L85.002 59.7177Z" fill="#F5F5F5"/>
<path d="M85.002 61.7738L105.474 61.6789L105.472 61.0542L85 61.1491L85.002 61.7738Z" fill="#F5F5F5"/>
<path d="M93.1016 63.1137L85.0005 63.1528L85.0037 63.7776L93.1048 63.7384L93.1016 63.1137Z" fill="#F5F5F5"/>
<path d="M105.564 33.0523H81V51.5607H105.564V33.0523Z" fill="#CA3D3D"/>
<path d="M81.0077 51.5735L89.5756 40.0603L94.8967 47.2532L98.4995 43.4026L105.572 51.5504L81.0077 51.5735Z" fill="#E0E0E0"/>
<path d="M97.1475 38.6433C97.1475 39.7138 96.282 40.584 95.2142 40.584C94.1464 40.584 93.2784 39.7189 93.2784 38.6459C93.2784 37.5754 94.1413 36.7052 95.2116 36.7052C96.2794 36.7052 97.1449 37.5729 97.1475 38.6433Z" fill="#E0E0E0"/>
<rect x="109" y="31" width="28" height="35" fill="white"/>
<path d="M115.002 53.7177L135.474 53.6248L135.472 53L115 53.0929L115.002 53.7177Z" fill="#F5F5F5"/>
<path d="M115.002 55.7738L135.474 55.6789L135.472 55.0542L115 55.1491L115.002 55.7738Z" fill="#F5F5F5"/>
<path d="M123.102 57.1137L115.001 57.1528L115.004 57.7776L123.105 57.7384L123.102 57.1137Z" fill="#F5F5F5"/>
<path d="M115.002 59.7177L135.474 59.6248L135.472 59L115 59.0929L115.002 59.7177Z" fill="#F5F5F5"/>
<path d="M115.002 61.7738L135.474 61.6789L135.472 61.0542L115 61.1491L115.002 61.7738Z" fill="#F5F5F5"/>
<path d="M123.102 63.1137L115.001 63.1528L115.004 63.7776L123.105 63.7384L123.102 63.1137Z" fill="#F5F5F5"/>
<path d="M135.564 33.0523H111V51.5607H135.564V33.0523Z" fill="#CA3D3D"/>
<path d="M111.008 51.5735L119.576 40.0603L124.897 47.2532L128.5 43.4026L135.572 51.5504L111.008 51.5735Z" fill="#E0E0E0"/>
<path d="M127.148 38.6433C127.148 39.7138 126.282 40.584 125.214 40.584C124.146 40.584 123.278 39.7189 123.278 38.6459C123.278 37.5754 124.141 36.7052 125.212 36.7052C126.279 36.7052 127.145 37.5729 127.148 38.6433Z" fill="#E0E0E0"/>
<rect x="139" y="31" width="28" height="35" fill="white"/>
<path d="M145.002 53.7177L165.474 53.6248L165.472 53L145 53.0929L145.002 53.7177Z" fill="#F5F5F5"/>
<path d="M145.002 55.7738L165.474 55.6789L165.472 55.0542L145 55.1491L145.002 55.7738Z" fill="#F5F5F5"/>
<path d="M153.102 57.1137L145.001 57.1528L145.004 57.7776L153.105 57.7384L153.102 57.1137Z" fill="#F5F5F5"/>
<path d="M145.002 59.7177L165.474 59.6248L165.472 59L145 59.0929L145.002 59.7177Z" fill="#F5F5F5"/>
<path d="M145.002 61.7738L165.474 61.6789L165.472 61.0542L145 61.1491L145.002 61.7738Z" fill="#F5F5F5"/>
<path d="M153.102 63.1137L145.001 63.1528L145.004 63.7776L153.105 63.7384L153.102 63.1137Z" fill="#F5F5F5"/>
<path d="M165.564 33.0523H141V51.5607H165.564V33.0523Z" fill="#CA3D3D"/>
<path d="M141.008 51.5735L149.576 40.0603L154.897 47.2532L158.5 43.4026L165.572 51.5504L141.008 51.5735Z" fill="#E0E0E0"/>
<path d="M157.147 38.6433C157.147 39.7138 156.282 40.584 155.214 40.584C154.146 40.584 153.278 39.7189 153.278 38.6459C153.278 37.5754 154.141 36.7052 155.212 36.7052C156.279 36.7052 157.145 37.5729 157.147 38.6433Z" fill="#E0E0E0"/>
<rect x="169" y="31" width="28" height="35" fill="white"/>
<path d="M175.002 53.7177L195.474 53.6248L195.472 53L175 53.0929L175.002 53.7177Z" fill="#F5F5F5"/>
<path d="M175.002 55.7738L195.474 55.6789L195.472 55.0542L175 55.1491L175.002 55.7738Z" fill="#F5F5F5"/>
<path d="M183.102 57.1137L175.001 57.1528L175.004 57.7776L183.105 57.7384L183.102 57.1137Z" fill="#F5F5F5"/>
<path d="M175.002 59.7177L195.474 59.6248L195.472 59L175 59.0929L175.002 59.7177Z" fill="#F5F5F5"/>
<path d="M175.002 61.7738L195.474 61.6789L195.472 61.0542L175 61.1491L175.002 61.7738Z" fill="#F5F5F5"/>
<path d="M183.102 63.1137L175.001 63.1528L175.004 63.7776L183.105 63.7384L183.102 63.1137Z" fill="#F5F5F5"/>
<path d="M195.564 33.0523H171V51.5607H195.564V33.0523Z" fill="#CA3D3D"/>
<path d="M171.008 51.5735L179.576 40.0603L184.897 47.2532L188.5 43.4026L195.572 51.5504L171.008 51.5735Z" fill="#E0E0E0"/>
<path d="M187.147 38.6433C187.147 39.7138 186.282 40.584 185.214 40.584C184.146 40.584 183.278 39.7189 183.278 38.6459C183.278 37.5754 184.141 36.7052 185.212 36.7052C186.279 36.7052 187.145 37.5729 187.147 38.6433Z" fill="#E0E0E0"/>
<g clip-path="url(#clip1)">
<path d="M58.8071 41.6816C58.8071 41.6816 58.3718 38.2587 57.9679 37.6743C57.5639 37.0898 56.2563 35.3245 53.9143 36.0546C51.5724 36.7846 51.5177 39.7946 52.7707 40.9755C54.0236 42.1564 54.3222 43.6025 54.3222 43.6025C54.3222 43.6025 55.8269 44.7934 56.4768 44.4662C57.1267 44.1371 57.1853 42.9423 57.1853 42.9423L58.8071 41.6816Z" fill="#E8B299"/>
<path d="M58.7407 34.5226L59.7146 35.8172C59.7146 35.8172 60.1869 36.5612 59.818 36.7208C59.4941 36.8604 59.2833 36.4435 59.2833 36.4435C59.2833 36.4435 59.0784 35.494 58.6744 35.7254C58.6178 35.7573 58.7173 36.4315 58.77 36.7746C58.7895 36.9003 58.8559 37.012 58.9534 37.0898L60.0249 37.9276C60.224 38.0832 60.4601 38.1809 60.708 38.2108L61.0885 38.2567L61.4008 38.897L63.1299 38.1769L61.754 36.3557L61.0144 35.2008C60.9031 35.1011 60.7529 35.0632 60.6104 35.1011L60.4386 35.147L60.3118 35.0153C60.2357 34.9375 60.1244 34.9076 60.021 34.9375L59.9156 34.9674L59.6268 34.6742C59.5311 34.5765 58.8715 33.9501 58.7485 34.004C58.7485 34.004 58.5007 34.2035 58.7407 34.5226Z" fill="#E8B299"/>
<path d="M60.7021 35.7494C60.6963 35.7514 60.6748 35.6855 60.6026 35.6037C60.5323 35.518 60.4113 35.4382 60.2415 35.4003C60.1088 35.2846 60.021 35.1649 59.9546 35.0751C59.8922 34.9834 59.8649 34.9196 59.8688 34.9176C59.8727 34.9156 59.9059 34.9754 59.9722 35.0612C60.0386 35.145 60.1401 35.2666 60.2571 35.3724C60.2923 35.3843 60.3313 35.3923 60.3703 35.4063C60.4074 35.4202 60.4426 35.4382 60.4738 35.4581C60.5362 35.498 60.585 35.5459 60.6182 35.5898C60.6533 35.6337 60.6748 35.6736 60.6865 35.7035C60.6982 35.7334 60.7021 35.7494 60.7021 35.7494Z" fill="#E8B299"/>
<path d="M60.9012 35.488C60.8973 35.488 60.8875 35.4541 60.8426 35.4182C60.7997 35.3823 60.7216 35.3544 60.6397 35.3823L60.6299 35.3843L60.624 35.3763C60.6162 35.3684 60.6104 35.3604 60.6026 35.3524C60.4699 35.2068 60.3664 35.0831 60.3723 35.0771C60.3781 35.0712 60.4913 35.1849 60.626 35.3305C60.6338 35.3384 60.6397 35.3464 60.6475 35.3544L60.6318 35.3504C60.7255 35.3205 60.8172 35.3564 60.8582 35.4003C60.9012 35.4462 60.907 35.488 60.9012 35.488Z" fill="#E8B299"/>
<path d="M56.9257 80L58.6431 62.9313H51.8846C51.8846 62.9313 51.4123 66.8369 51.6368 68.4127C51.8612 69.9866 51.5763 79.611 51.5763 79.611" fill="#455A64"/>
<path d="M58.5124 79.2739L57.8137 67.3416L57.398 63.8947L61.6486 59.6101C61.6486 59.6101 63.5124 61.2338 63.9281 63.9745C64.3438 66.7132 65.1069 79.4634 65.1069 79.4634" fill="#455A64"/>
<path d="M59.4374 64.0722C59.4413 64.0742 59.453 64.1341 59.4765 64.2458C59.4999 64.3675 59.5292 64.525 59.5662 64.7185C59.6424 65.1354 59.7458 65.7079 59.8707 66.3961L59.8453 66.3642C60.3254 66.5497 60.868 66.7611 61.4515 66.9865L61.3949 67.0025C61.6506 66.6634 61.9238 66.3003 62.2049 65.9273C62.2712 65.8415 62.3356 65.7538 62.4 65.67L62.3903 65.7079C62.3005 64.8941 62.2146 64.1301 62.1405 63.4619L62.2068 63.4958C61.8204 63.7032 61.4359 63.783 61.0983 63.8588C60.7606 63.9286 60.462 63.9745 60.2161 64.0064C59.9702 64.0383 59.7751 64.0563 59.6424 64.0682C59.5077 64.0762 59.4394 64.0762 59.4374 64.0722C59.4335 64.0682 59.5096 64.0563 59.6385 64.0363C59.7829 64.0144 59.9722 63.9865 60.2083 63.9506C60.4523 63.9107 60.7489 63.8588 61.0827 63.783C61.4144 63.7032 61.7989 63.6135 62.16 63.414L62.2185 63.3821L62.2263 63.4499C62.3044 64.1201 62.3922 64.8821 62.4878 65.6959L62.4898 65.7159L62.4781 65.7318C62.4137 65.8176 62.3493 65.9034 62.2829 65.9892C62.0019 66.3622 61.7267 66.7232 61.471 67.0623L61.4476 67.0922L61.4144 67.0783C60.8329 66.8469 60.2903 66.6314 59.8141 66.442L59.7907 66.434L59.7868 66.41C59.6775 65.7079 59.5877 65.1234 59.5214 64.6986C59.494 64.5071 59.4706 64.3515 59.453 64.2318C59.4394 64.1241 59.4335 64.0702 59.4374 64.0722Z" fill="#263238"/>
<path d="M56.1489 64.6188C56.1528 64.6148 56.1509 64.6706 56.1489 64.7784C56.145 64.9 56.1392 65.0556 56.1314 65.2491C56.1119 65.678 56.0845 66.2704 56.0514 66.9805L56.0494 67.0045L56.0279 67.0164C55.5732 67.2578 55.058 67.5331 54.5037 67.8283L54.4705 67.8462L54.4452 67.8183C54.1544 67.5111 53.8421 67.182 53.522 66.8429C53.4479 66.7631 53.3737 66.6853 53.2996 66.6075L53.2859 66.5916V66.5696C53.2917 65.7518 53.2995 64.9818 53.3054 64.3076V64.2398L53.3679 64.2657C53.7484 64.4253 54.1407 64.4692 54.4783 64.5111C54.8199 64.549 55.1185 64.5669 55.3663 64.5789C55.6025 64.5869 55.7957 64.5948 55.9421 64.6008C56.0767 64.6088 56.1509 64.6128 56.1489 64.6188C56.147 64.6228 56.0787 64.6308 55.944 64.6347C55.8113 64.6387 55.6161 64.6427 55.3663 64.6387C55.1185 64.6347 54.8179 64.6228 54.4725 64.5909C54.129 64.553 53.7387 64.5171 53.3327 64.3535L53.3952 64.3116C53.3932 64.9858 53.3913 65.7538 53.3893 66.5736L53.3757 66.5377C53.4498 66.6155 53.522 66.6933 53.5981 66.7731C53.9182 67.1122 54.2266 67.4413 54.5174 67.7505L54.4588 67.7405C55.015 67.4493 55.5322 67.18 55.9889 66.9426L55.9655 66.9785C56.0162 66.2804 56.0572 65.6999 56.0884 65.277C56.104 65.0796 56.1177 64.92 56.1275 64.7963C56.1392 64.6826 56.145 64.6208 56.1489 64.6188Z" fill="#263238"/>
<path d="M54.2695 43.3233C54.2695 43.3233 50.8756 44.8273 50.0872 45.1803L51.1625 50.4404L51.4338 56.8414L51.7207 63.404C51.7207 63.404 55.7137 64.1241 57.6712 63.8648C60.3508 63.5097 63.7662 62.5024 63.7662 62.5024L62.4917 54.3161L61.7872 48.7888L60.6455 44.0673L57.6283 43.3213H54.2695V43.3233Z" fill="#263238"/>
<path d="M63.0343 42.683L60.9519 38.4203L62.6264 37.3232C62.6264 37.3232 64.7186 39.5293 65.1167 39.9582C65.1167 39.9582 67.525 42.2282 66.8966 43.3233C66.3618 44.2548 65.5148 44.9749 65.5148 44.9749L63.0343 42.683Z" fill="#263238"/>
<path d="M50.0872 45.1823C50.0501 45.294 44.4821 53.1652 44.1835 54.0009C44.1679 54.0468 44.1503 54.0947 44.1366 54.1446C43.8049 55.2337 44.0898 56.4225 44.8353 57.2723L49.4256 62.5064L51.4319 60.1347L48.239 54.3839L51.2874 50.9411L50.0872 45.1823Z" fill="#263238"/>
<path d="M53.5767 60.4858C53.3913 60.4977 53.0517 60.761 52.8995 60.8847C52.8507 60.9266 52.7863 60.9465 52.7238 60.9406C52.6184 60.9326 52.5287 60.8588 52.4974 60.755L52.2984 60.0709C52.0974 60.0888 51.9178 60.2045 51.8144 60.382L51.5938 60.769L51.2133 60.394L49.4275 62.4785C49.4275 62.4785 50.1301 63.2544 50.577 63.2664C51.024 63.2784 53.1181 61.519 53.1181 61.519L53.6743 61.0183C53.6743 61.0183 54.1232 60.4519 53.5767 60.4858Z" fill="#E8B299"/>
<path d="M59.3633 43.9137L60.9422 43.9855L63.1924 42.2262L66.3774 44.0114C66.3774 44.0114 64.945 45.5793 63.5944 47.185C62.5015 48.4836 61.7248 49.2954 61.7248 49.2954L59.3633 43.9137Z" fill="#263238"/>
<path d="M60.8465 57.7749C60.8524 57.7809 60.7704 57.8667 60.6201 58.0203C60.4718 58.1739 60.2454 58.3873 59.9585 58.6426C59.3867 59.1513 58.5514 59.8076 57.5561 60.4159C56.5588 61.0223 55.5986 61.4652 54.8882 61.7384C54.533 61.8761 54.2422 61.9778 54.0392 62.0376C53.8362 62.0995 53.723 62.1314 53.7211 62.1254C53.7191 62.1194 53.8284 62.0735 54.0275 61.9997C54.2266 61.9279 54.5135 61.8162 54.8628 61.6706C55.5634 61.3814 56.5139 60.9326 57.5053 60.3282C58.4948 59.7218 59.332 59.0815 59.9136 58.5888C60.2044 58.3434 60.4367 58.138 60.5947 57.9924C60.7509 57.8468 60.8407 57.769 60.8465 57.7749Z" fill="#455A64"/>
<path d="M55.3175 56.8434C55.341 56.8594 54.7808 57.7889 54.0646 58.9199C53.3483 60.0509 52.7492 60.9565 52.7258 60.9405C52.7024 60.9246 53.2625 59.9951 53.9787 58.8641C54.693 57.7331 55.2922 56.8275 55.3175 56.8434Z" fill="#455A64"/>
<path d="M61.5354 48.8646C61.5198 48.8626 61.5237 48.6332 61.5101 48.2602C61.4964 47.8872 61.4671 47.3725 61.4164 46.808C61.3637 46.2415 61.2993 45.7309 61.231 45.3659C61.1666 44.9988 61.0905 44.7834 61.1061 44.7774C61.1178 44.7714 61.2193 44.9849 61.3012 45.3519C61.3891 45.7169 61.4632 46.2296 61.5179 46.8C61.5686 47.3685 61.5881 47.8872 61.5823 48.2622C61.5784 48.6352 61.5491 48.8646 61.5354 48.8646Z" fill="#455A64"/>
<path d="M65.3704 42.3917C65.3626 42.4057 65.2279 42.3299 65.0035 42.2381C64.779 42.1464 64.4551 42.0407 64.0882 42.0327C63.7193 42.0207 63.3953 42.1185 63.1904 42.2461C62.9835 42.3718 62.884 42.4915 62.8703 42.4795C62.8625 42.4735 62.9445 42.3339 63.1514 42.1843C63.3563 42.0327 63.7056 41.915 64.0901 41.929C64.4765 41.9369 64.8103 42.0606 65.0328 42.1703C65.2552 42.282 65.3782 42.3798 65.3704 42.3917Z" fill="#455A64"/>
<path d="M64.3536 41.4822C64.3595 41.5201 63.9087 41.4702 63.4773 41.7554C63.0499 42.0447 62.9016 42.4795 62.8704 42.4576C62.8587 42.4536 62.884 42.3459 62.9641 42.1863C63.0441 42.0287 63.1944 41.8213 63.4227 41.6677C63.651 41.5161 63.8989 41.4602 64.0726 41.4522C64.2482 41.4443 64.3556 41.4702 64.3536 41.4822Z" fill="#455A64"/>
<path d="M50.9634 50.1013C50.9517 50.1053 50.858 49.8998 50.7312 49.5547C50.6063 49.2097 50.4541 48.7249 50.3252 48.1764C50.1984 47.6298 50.1184 47.1252 50.0774 46.7602C50.0364 46.3951 50.0286 46.1657 50.0423 46.1657C50.0579 46.1637 50.0891 46.3891 50.1496 46.7502C50.2081 47.1112 50.2979 47.6099 50.4248 48.1525C50.5516 48.695 50.6922 49.1817 50.7995 49.5308C50.9068 49.8819 50.979 50.0973 50.9634 50.1013Z" fill="#455A64"/>
<path d="M57.7005 38.1909C57.5268 38.1151 57.2965 38.1909 57.1228 38.2707C56.8808 38.3804 56.2738 38.7015 56.547 38.9449C56.5509 38.9489 56.5549 38.9509 56.5607 38.9529C56.5588 38.9728 56.59 38.9848 56.6134 38.9688C56.6173 38.9648 56.6232 38.9628 56.629 38.9588C56.6485 38.9529 56.6661 38.9429 56.6778 38.9289C56.8378 38.8412 57.0564 38.7953 57.2282 38.7634C57.4624 38.7195 57.6751 38.7953 57.9093 38.7295C57.9483 38.7195 57.9717 38.6896 57.9678 38.6576C57.9444 38.4741 57.9112 38.2826 57.7005 38.1909Z" fill="#4A1D1D"/>
<path d="M58.7719 40.9575C58.6216 41.0194 58.2079 40.7401 58.1201 40.6244C57.9464 40.391 58.2547 40.3531 58.4245 40.405C58.4499 40.2873 58.444 40.2095 58.4245 40.0879C58.3933 39.9043 58.3601 39.7228 58.3211 39.5413C58.2762 39.3358 58.2079 39.0905 58.2606 38.8811C58.2918 38.7554 58.4031 38.7215 58.4401 38.8511C58.5689 38.9728 58.6021 39.288 58.6314 39.4236C58.6685 39.5932 58.6899 39.7607 58.727 39.9283C58.7543 40.0539 58.7426 40.2734 58.8246 40.3671C58.8246 40.3691 58.9456 40.8857 58.7719 40.9575Z" fill="#CD8B6D"/>
<path d="M57.8859 39.3538C57.9678 39.5493 57.9444 39.7488 57.8332 39.7986C57.7219 39.8485 57.5639 39.7308 57.4819 39.5333C57.3999 39.3378 57.4233 39.1384 57.5346 39.0885C57.6458 39.0386 57.8039 39.1583 57.8859 39.3538Z" fill="#4A1D1D"/>
<path d="M55.7547 40.0519C55.7547 40.0519 58.1201 41.3764 58.6607 41.2927C59.1993 41.2089 58.7934 43.8798 58.0479 44.0474C57.3023 44.2149 56.3695 44.2408 56.1489 43.3233C55.9284 42.4057 56.1294 40.6464 55.7547 40.0519Z" fill="#4A1D1D"/>
<path d="M58.1981 41.8791C58.1981 41.8791 58.7251 42.9423 58.807 42.0945C58.807 42.0945 58.7485 44.1391 58.1981 41.8791Z" fill="white"/>
<path d="M55.7644 39.7188C55.7644 39.7188 55.0658 38.518 54.7594 39.5413C54.4529 40.5646 55.1594 41.0573 55.6278 40.9615C56.0943 40.8678 55.7644 39.7188 55.7644 39.7188Z" fill="#CD8B6D"/>
<path d="M55.6747 39.9123C55.6747 39.9123 55.1926 39.1523 55.017 39.4555C54.8413 39.7587 54.8862 40.1497 54.8862 40.1497C54.8862 40.1497 54.9896 39.7228 55.3058 39.9702C55.3058 39.9702 54.9916 40.6504 55.62 40.4609C55.62 40.4629 55.8796 40.2554 55.6747 39.9123Z" fill="#CD8B6D"/>
</g>
<path d="M22.7262 70.117C22.5527 69.2915 23.0069 68.466 23.5159 67.8728C24.0248 67.2769 24.6319 66.7466 24.899 65.9566C25.3326 64.6773 24.7666 63.0153 25.4992 61.9519C25.9306 61.3259 26.6997 61.1209 27.0832 60.4512C27.284 60.1013 27.3502 59.6667 27.4301 59.2539C27.8386 57.1381 28.7333 55.1618 29.9886 53.5954C30.0662 55.4816 29.7101 57.3923 28.9684 59.0598C28.6694 59.7295 28.3065 60.3829 28.2038 61.1318C28.0395 62.3483 28.6009 63.6084 28.3453 64.803C28.0532 66.1698 26.7659 67.0746 26.6974 68.4824C26.6404 69.6715 27.5008 70.7239 27.4324 71.913C27.4027 72.4187 27.2041 72.8889 26.9827 73.3208C26.2067 74.8461 25.0724 75.8931 23.3607 75.8466L21.2632 75.9204L22.7262 70.117Z" fill="#A23840"/>
<path d="M20.8438 75.9805C20.8438 75.9805 20.643 76.0352 20.2664 75.9614C20.0793 75.9286 19.8487 75.8657 19.5863 75.7509C19.3261 75.6361 19.0294 75.4693 18.7487 75.1933C18.614 75.0484 18.4771 74.8734 18.4063 74.6383C18.3355 74.406 18.3241 74.149 18.3104 73.8866C18.3013 73.6242 18.3013 73.3508 18.2648 73.0747C18.2306 72.7987 18.1416 72.5253 18.0115 72.2656C17.7672 71.7435 17.3587 71.2487 17.2286 70.5407C17.0894 69.8464 17.1944 69.0947 17.2971 68.3402C17.3975 67.5885 17.4956 66.7684 17.2583 65.9812C17.0369 65.1939 16.5804 64.4832 16.3545 63.5948C16.1308 62.6982 16.2404 61.7387 16.197 60.7901C16.1765 60.3145 16.1034 59.8361 15.93 59.3933C15.7633 58.9477 15.5283 58.5268 15.348 58.0593C14.9805 57.1108 14.9189 56.0392 14.823 54.9868C14.7751 54.4565 14.7294 53.9207 14.6792 53.3822C14.6313 52.8382 14.5948 52.2997 14.4533 51.7749C14.3255 51.2473 14.1429 50.7388 13.9603 50.2167C13.8713 49.9543 13.7754 49.6946 13.7206 49.4049C13.6818 49.1096 13.6704 48.8308 13.6567 48.5411C13.6362 47.9643 13.659 47.382 13.7206 46.8025C13.78 46.223 13.8713 45.649 13.9261 45.0695C13.9283 45.0339 13.9329 45.0011 13.9352 44.9683L13.9466 44.8535L14.0333 44.9054C14.4807 45.1788 14.8641 45.5806 15.1562 46.0535C15.4552 46.5237 15.6698 47.0513 15.8432 47.5898C16.1879 48.6695 16.3088 49.8012 16.48 50.881C16.6466 51.9607 16.8703 53.0241 17.3268 53.9234C17.555 54.3717 17.8312 54.7818 18.0708 55.2191C18.3104 55.6538 18.5227 56.1322 18.5843 56.6543C18.703 57.7176 18.21 58.647 18.3082 59.5874C18.3424 60.0548 18.4953 60.4922 18.6847 60.894C18.8742 61.2958 19.0956 61.6703 19.3055 62.0448C19.5155 62.4193 19.7164 62.7993 19.8624 63.2066C20.0108 63.6112 20.093 64.0431 20.1135 64.4668C20.1614 65.3142 20.0564 66.1151 20.1044 66.875C20.1432 67.635 20.3623 68.3238 20.611 68.9416C20.8621 69.5621 21.1406 70.1225 21.3756 70.6637C21.4943 70.9344 21.6016 71.1995 21.6906 71.4647C21.7842 71.7298 21.8298 72.0005 21.8709 72.2601C21.9371 72.7823 21.928 73.2661 21.88 73.6925C21.7842 74.5509 21.5149 75.1686 21.2706 75.5158C21.2159 75.6087 21.1497 75.6744 21.0995 75.7345C21.0493 75.7974 21.0013 75.8411 20.9602 75.8739C20.8872 75.9504 20.8438 75.9805 20.8438 75.9805C20.8347 75.9668 21.0173 75.8548 21.2524 75.5021C21.4852 75.155 21.7431 74.5399 21.8298 73.6898C21.8732 73.2688 21.8777 72.7877 21.8093 72.2765C21.7659 72.0223 21.7203 71.7572 21.6267 71.5002C21.5377 71.2405 21.4281 70.9781 21.3117 70.7075C21.0766 70.169 20.7936 69.6113 20.538 68.9881C20.2847 68.3676 20.0564 67.665 20.0131 66.886C19.9606 66.1124 20.0633 65.306 20.0131 64.4777C19.9902 64.0649 19.9126 63.6522 19.7666 63.2585C19.6228 62.8649 19.4265 62.4931 19.2165 62.1186C19.0066 61.7469 18.7806 61.3697 18.5889 60.9596C18.3949 60.5523 18.2328 60.0958 18.1963 59.601C18.1005 58.5978 18.5889 57.6629 18.4679 56.6761C18.4109 56.1868 18.21 55.7303 17.9727 55.3039C17.7353 54.8747 17.4568 54.4647 17.224 54.0027C16.7516 53.076 16.5256 51.9936 16.3568 50.9111C16.1833 49.8258 16.0623 48.7051 15.7245 47.6472C15.5557 47.1196 15.3434 46.6057 15.0558 46.1519C14.7728 45.6954 14.4076 45.31 13.9808 45.0503L14.0767 44.9874C14.0744 45.0202 14.0698 45.0531 14.0676 45.0886C14.0128 45.6763 13.9215 46.2503 13.8622 46.8217C13.8005 47.393 13.7777 47.9643 13.7982 48.5329C13.8097 48.8117 13.8234 49.1069 13.8576 49.3721C13.9078 49.6372 14.0014 49.8969 14.0881 50.1566C14.2707 50.6732 14.4578 51.1926 14.5857 51.7311C14.7294 52.2669 14.7682 52.8273 14.8139 53.3658C14.8618 53.907 14.9075 54.4428 14.9554 54.9731C15.0513 56.0283 15.1106 57.0834 15.4644 57.9992C15.6401 58.4557 15.8729 58.8766 16.0441 59.3359C16.2221 59.7951 16.2997 60.2981 16.318 60.7819C16.359 61.7523 16.2495 62.6982 16.464 63.5565C16.6763 64.4121 17.1305 65.1283 17.3587 65.9402C17.6029 66.7602 17.4956 67.6076 17.3929 68.3566C17.288 69.1111 17.183 69.8464 17.3153 70.5161C17.434 71.1913 17.8289 71.6806 18.0799 72.2191C18.21 72.4843 18.3036 72.7741 18.3355 73.0611C18.3698 73.3481 18.3675 73.6242 18.3766 73.8839C18.3858 74.1436 18.3972 74.3951 18.4634 74.6137C18.5273 74.8297 18.6551 75.0019 18.7852 75.144C19.0568 75.4174 19.3489 75.5841 19.6045 75.7044C19.8624 75.822 20.0907 75.8876 20.2755 75.9286C20.4604 75.9696 20.6042 75.9778 20.7023 75.9805C20.7959 75.9778 20.8438 75.9805 20.8438 75.9805Z" fill="#263238"/>
<path d="M14.3614 46.3597C14.3637 46.3597 14.3705 46.3843 14.3819 46.4362C14.3933 46.4964 14.4093 46.5702 14.4276 46.6631C14.4687 46.8599 14.5166 47.1606 14.5919 47.5324C14.6718 47.9042 14.8612 48.3279 15.021 48.8472C15.1876 49.3639 15.3565 49.9598 15.5117 50.6322C15.6692 51.302 15.8061 52.0482 15.9499 52.8437C16.0983 53.6392 16.2466 54.492 16.6095 55.3012C16.7784 55.7112 16.9701 56.124 17.123 56.5777C17.2782 57.0315 17.3604 57.5235 17.4174 58.0211C17.5133 59.0161 17.6617 60.0275 17.8557 61.0608C18.2665 63.1219 18.6568 65.0818 19.0128 66.8696C19.378 68.6491 19.7066 70.2537 19.9828 71.6068C20.2521 72.9463 20.4712 74.037 20.6264 74.8051C20.6972 75.1741 20.7542 75.4639 20.7953 75.6771C20.8113 75.77 20.825 75.8438 20.8364 75.904C20.8455 75.9559 20.8478 75.9833 20.8455 75.9833C20.8432 75.9833 20.8364 75.9587 20.8227 75.9094C20.809 75.8493 20.7908 75.7755 20.7702 75.6853C20.7223 75.4748 20.6584 75.1878 20.5785 74.8215C20.4142 74.0561 20.1814 72.9709 19.8938 71.6369C19.6085 70.2865 19.2707 68.6847 18.8941 66.9078C18.5335 65.1201 18.141 63.1574 17.7256 61.0963C17.5316 60.063 17.3832 59.0352 17.2896 58.0429C17.2349 57.5509 17.155 57.0752 17.0066 56.6351C16.8606 56.195 16.6711 55.7823 16.5022 55.3695C16.1371 54.5467 15.9887 53.6692 15.8449 52.8765C15.7057 52.0783 15.5733 51.3348 15.4227 50.665C15.2743 49.9953 15.1123 49.3994 14.9548 48.8828C14.7996 48.3607 14.617 47.9342 14.5417 47.5488C14.4709 47.1661 14.4321 46.8709 14.4002 46.6686C14.3865 46.5756 14.3774 46.4991 14.3682 46.439C14.3614 46.387 14.3591 46.3624 14.3614 46.3597Z" fill="#263238"/>
<path d="M20.4735 75.986C19.1087 75.0019 18.7298 72.0415 19.3095 70.2647C19.8892 68.4878 20.8958 66.8668 21.0601 64.9698C21.1856 63.51 20.793 62.0093 21.0852 60.5851C21.4778 58.6634 23.0526 57.1819 23.0457 55.2028C23.0412 54.0929 22.5185 53.0432 22.5664 51.9362C22.6235 50.5748 23.5022 49.5033 24.0477 48.3087C24.883 46.48 24.9469 44.3123 25.2391 42.2566C25.5289 40.1983 26.1954 38.0005 27.7222 37C27.9391 38.7467 28.3179 39.9468 28.1856 42.3113C28.1376 43.1614 27.3069 44.7824 27.1859 46.644C27.1129 47.7565 27.0626 48.8718 26.9987 49.9844C26.9394 51.0669 26.8755 52.1712 26.5446 53.1827C26.2912 53.959 25.8895 54.6615 25.7001 55.4624C25.3463 56.9686 25.7937 58.606 25.5061 60.1341C25.2619 61.4271 24.5087 62.5369 24.3489 63.8517C24.1253 65.6969 25.1135 67.6213 24.5954 69.379C24.3375 70.251 23.735 70.948 23.5592 71.8501C23.4246 72.5499 23.5638 73.2907 23.4406 73.9932C23.2466 75.1222 21.4367 76.0625 20.4735 75.986Z" fill="#CA3D3D"/>
<path d="M27.3365 38.7303C27.3388 38.7303 27.3365 38.7631 27.3297 38.8288C27.3205 38.9026 27.3114 38.9955 27.2977 39.1158C27.2658 39.3673 27.227 39.739 27.1539 40.2174C27.0741 40.6985 26.8664 41.2398 26.6975 41.8931C26.5194 42.5437 26.3414 43.2954 26.1839 44.1346C26.0242 44.9738 25.8895 45.9059 25.7457 46.9064C25.5997 47.9014 25.449 48.9976 25.0291 50.0391C24.8351 50.5612 24.616 51.086 24.4516 51.6437C24.2827 52.1986 24.2051 52.7972 24.1549 53.4123C24.0773 54.6478 23.9358 55.9354 23.735 57.2283C23.3036 59.8143 22.8928 62.2745 22.5185 64.516C22.1237 66.7493 21.7699 68.7585 21.4709 70.4505C21.1696 72.1317 20.9254 73.493 20.7542 74.4497C20.6675 74.9117 20.6013 75.2753 20.5534 75.535C20.5306 75.6525 20.5123 75.7454 20.4986 75.8165C20.4849 75.8794 20.4781 75.9122 20.4758 75.9122C20.4735 75.9122 20.4758 75.8794 20.4849 75.8138C20.4963 75.74 20.51 75.647 20.5283 75.5295C20.5694 75.2698 20.6287 74.9035 20.7063 74.4388C20.8684 73.4821 21.0989 72.1153 21.3819 70.4287C21.6717 68.7339 22.0187 66.722 22.3998 64.4859C22.7696 62.2444 23.1781 59.7842 23.6049 57.201C23.8035 55.9053 23.9472 54.6369 24.0248 53.3959C24.0751 52.7781 24.1572 52.1603 24.333 51.5917C24.5019 51.0232 24.7232 50.4956 24.9172 49.9789C25.3349 48.9538 25.4855 47.8823 25.6362 46.8845C25.7822 45.8841 25.9238 44.9519 26.0904 44.11C26.2547 43.2681 26.4396 42.5163 26.6244 41.8657C26.8025 41.2097 27.017 40.6739 27.1014 40.2065C27.1813 39.7363 27.227 39.3618 27.2681 39.113C27.2863 38.9955 27.3023 38.9026 27.3137 38.8288C27.3274 38.7631 27.3342 38.7303 27.3365 38.7303Z" fill="#263238"/>
</g>
<defs>
<clipPath id="clip0">
<rect width="200" height="72" fill="white"/>
</clipPath>
<clipPath id="clip1">
<rect width="23" height="46" fill="white" transform="translate(44 34)"/>
</clipPath>
</defs>
</svg>
