<svg width="200" height="72" viewBox="0 0 200 72" fill="none" xmlns="http://www.w3.org/2000/svg">
<g clip-path="url(#clip0)">
<rect width="200" height="72" fill="#F7F7F7"/>
<g clip-path="url(#clip1)">
<path d="M58.194 72.3585C63.1909 69.0178 64.411 62.6976 64.3033 56.9992C64.2854 56.0468 64.4056 55.0459 63.9624 54.2066C63.5174 53.3656 62.4588 52.7798 61.5922 53.168C60.8727 53.4896 60.548 54.3055 60.1389 54.9794C59.5935 55.8743 58.7897 56.6111 57.8495 57.0765C57.2323 57.382 56.4715 57.5617 55.8722 57.2239C55.0487 56.7584 54.9698 55.6245 54.9895 54.6793C55.0272 52.9164 55.0666 51.1553 55.1043 49.3924C55.1259 48.4472 55.1438 47.4822 54.8585 46.58C54.575 45.6779 53.9309 44.8351 53.0248 44.5692C52.1187 44.3032 50.9848 44.8064 50.7785 45.7283C50.6923 46.1128 50.7659 46.5136 50.7336 46.9053C50.7013 47.2971 50.5093 47.7283 50.1307 47.8326C49.7468 47.9368 49.3682 47.6637 49.0865 47.3833C48.114 46.4129 47.4627 45.173 46.8563 43.9402C46.248 42.7074 45.6613 41.4459 44.7804 40.3911C43.9012 39.3362 42.6739 38.4916 41.305 38.3946C39.936 38.2975 38.4629 39.1116 38.0969 40.436C37.7291 41.764 38.4952 43.1279 39.3349 44.2205C40.5801 45.8415 42.0603 47.2791 43.7164 48.4759C44.0142 48.6916 44.3372 48.9252 44.4484 49.2774C44.6458 49.9099 44.0322 50.5281 43.3988 50.7258C42.6811 50.9504 41.9096 50.8642 41.1614 50.9414C40.4132 51.0169 39.6004 51.3296 39.308 52.0233C38.9007 52.9847 39.7027 54.009 40.4976 54.6847C42.089 56.0378 43.912 57.1142 45.8641 57.8546C46.5638 58.1206 47.3012 58.3542 47.861 58.852C48.4208 59.3498 48.751 60.2051 48.3975 60.8647C48.0441 61.526 47.1613 61.7272 46.4257 61.5799C45.69 61.4343 45.0369 61.0282 44.339 60.755C43.031 60.2447 41.3319 60.3094 40.4724 61.4199C39.9073 62.1495 39.8427 63.1774 40.11 64.0616C40.3755 64.9457 40.9318 65.713 41.5239 66.4211C43.5926 68.8974 46.2606 70.9047 49.2946 71.9955C52.3233 73.0845 55.1456 73.4097 58.194 72.3585Z" fill="#E0E0E0"/>
<path d="M56.746 68.7698C55.9422 65.8838 54.7957 62.7911 53.4841 59.5977C53.154 58.7999 52.8257 58.0128 52.5045 57.2364C52.1815 56.4619 51.8604 55.6946 51.4997 54.9632C50.7856 53.4968 49.9854 52.1401 49.1852 50.8767C48.385 49.6116 47.5793 48.44 46.8186 47.3492C46.0543 46.2602 45.324 45.2574 44.6189 44.3733C43.2122 42.5978 41.9096 41.3004 40.9784 40.445C40.5137 40.0155 40.1423 39.6938 39.8875 39.48C39.7637 39.3757 39.6668 39.2967 39.5969 39.2374C39.5305 39.1835 39.4946 39.1583 39.4946 39.1583C39.4946 39.1583 39.5251 39.1906 39.5879 39.2481C39.6561 39.3092 39.7494 39.3937 39.8696 39.5015C40.1172 39.7244 40.4832 40.0514 40.9407 40.4863C41.8594 41.3525 43.1458 42.6571 44.5399 44.4362C45.2397 45.3239 45.9645 46.3267 46.7235 47.4175C47.4807 48.5101 48.2809 49.6835 49.0757 50.9468C49.8706 52.2101 50.6654 53.5633 51.3759 55.0243C51.733 55.7539 52.0506 56.5158 52.3753 57.2922C52.6965 58.0685 53.023 58.8556 53.3549 59.6517C54.6647 62.8432 55.813 65.9287 56.6222 68.8057" fill="#C4C4C4"/>
<path d="M51.4656 54.9488C51.4746 54.9506 51.5087 54.8069 51.5589 54.5463C51.611 54.2857 51.6756 53.9048 51.7491 53.4357C51.8963 52.4959 52.0559 51.1912 52.23 49.7518C52.404 48.3124 52.5852 47.0131 52.7521 46.0787C52.8346 45.6114 52.9046 45.2341 52.9584 44.9735C53.0105 44.7129 53.0338 44.5674 53.0248 44.5656C53.0158 44.5638 52.9728 44.7039 52.9046 44.9609C52.8346 45.2179 52.7485 45.5935 52.6534 46.0607C52.4596 46.9934 52.2605 48.2944 52.0882 49.7356C51.9178 51.1625 51.7653 52.4527 51.6504 53.4231C51.5912 53.8742 51.5428 54.2498 51.5051 54.5391C51.4692 54.7997 51.4549 54.947 51.4656 54.9488Z" fill="#C4C4C4"/>
<path d="M39.2003 52.4923C39.2003 52.4977 39.2434 52.5048 39.3259 52.5138C39.4264 52.5246 39.5448 52.5354 39.6902 52.5498C40.0059 52.5803 40.4617 52.6234 41.0251 52.6953C42.15 52.8283 43.6984 53.0709 45.394 53.4123C47.0895 53.7574 48.6092 54.1365 49.7001 54.4438C50.2474 54.593 50.6851 54.7278 50.9902 54.8176C51.1283 54.8589 51.2449 54.8931 51.34 54.92C51.4208 54.9416 51.4638 54.9524 51.4656 54.947C51.4674 54.9416 51.428 54.9236 51.349 54.8931C51.2557 54.8571 51.1427 54.8158 51.0063 54.7655C50.7067 54.6577 50.2725 54.5103 49.727 54.3468C48.6397 54.0143 47.12 53.619 45.4209 53.2722C43.7218 52.9289 42.1662 52.7025 41.0358 52.5947C40.4706 52.5354 40.0113 52.5084 39.6937 52.4941C39.5484 52.4905 39.4282 52.4869 39.3277 52.4833C39.2452 52.4851 39.2003 52.4869 39.2003 52.4923Z" fill="#C4C4C4"/>
<path d="M56.6133 68.5398C56.6169 68.5416 56.6456 68.4912 56.6958 68.3906C56.7514 68.2774 56.8232 68.1318 56.9111 67.9521C57.0959 67.5712 57.3507 67.0141 57.6557 66.3204C58.2675 64.9349 59.0552 62.9959 59.8967 60.8467C60.7382 58.6956 61.5097 56.753 62.0982 55.3603C62.3889 54.6775 62.6275 54.1186 62.8015 53.7124C62.8787 53.5292 62.9415 53.38 62.9917 53.2632C63.033 53.1608 63.0545 53.1051 63.0491 53.1033C63.0455 53.1015 63.0168 53.1518 62.9648 53.2524C62.9092 53.3656 62.8374 53.5112 62.7495 53.6909C62.5647 54.0719 62.3099 54.6289 62.0049 55.3226C61.3931 56.7081 60.6054 58.6471 59.7639 60.7981C58.9224 62.9492 58.1509 64.89 57.5642 66.2845C57.2735 66.9674 57.0349 67.5262 56.8609 67.9324C56.7837 68.1157 56.7209 68.2648 56.6707 68.3816C56.6294 68.4823 56.6097 68.538 56.6133 68.5398Z" fill="#C4C4C4"/>
<path d="M40.3486 63.0876C40.3469 63.093 40.4025 63.1145 40.5101 63.1523C40.6321 63.1936 40.79 63.2475 40.9838 63.314C41.4126 63.4578 42.0047 63.6554 42.7278 63.8962C44.199 64.3886 46.2229 65.0949 48.4567 65.8802C50.6923 66.6655 52.7216 67.3573 54.2036 67.8264C54.9446 68.0618 55.5439 68.2451 55.962 68.3655C56.1593 68.4212 56.319 68.4661 56.4428 68.502C56.5541 68.5308 56.6115 68.5452 56.6133 68.5398C56.6151 68.5344 56.5594 68.5128 56.4518 68.4751C56.3298 68.4337 56.1737 68.3798 55.9781 68.3133C55.5493 68.1696 54.959 67.9737 54.2341 67.7311C52.7629 67.2387 50.739 66.5325 48.5034 65.7454C46.2696 64.9601 44.2385 64.2682 42.7583 63.7992C42.0173 63.5638 41.418 63.3805 40.9999 63.2601C40.8026 63.2044 40.6429 63.1595 40.5191 63.1235C40.4096 63.0966 40.3504 63.084 40.3486 63.0876Z" fill="#C4C4C4"/>
<path d="M135.056 35.7371L129.242 50.5471L151.178 59.1858L156.992 44.3757L135.056 35.7371Z" fill="#E0E0E0"/>
<path d="M157 44.5799C157.002 44.5871 156.905 44.6267 156.718 44.6967C156.512 44.7704 156.237 44.8693 155.897 44.9915C155.157 45.2466 154.127 45.6042 152.861 46.0409C150.27 46.9161 146.724 48.1111 142.795 49.4373L142.713 49.4661L142.67 49.3906C142.635 49.3331 142.6 49.2702 142.564 49.2073C140.482 45.5611 138.598 42.2618 137.22 39.8484C136.555 38.6605 136.011 37.6937 135.622 37.0001C135.446 36.6766 135.304 36.416 135.197 36.2201C135.102 36.0404 135.055 35.9452 135.06 35.9416C135.067 35.938 135.127 36.0261 135.232 36.1986C135.349 36.3909 135.502 36.6424 135.692 36.9587C136.096 37.6434 136.659 38.5994 137.35 39.7729C138.742 42.1773 140.644 45.4659 142.747 49.1013C142.783 49.1642 142.818 49.2271 142.853 49.2846L142.725 49.236C146.662 47.935 150.214 46.7579 152.81 45.9008C154.086 45.4892 155.123 45.155 155.868 44.9142C156.214 44.8064 156.492 44.7219 156.702 44.6572C156.896 44.5997 156.998 44.5728 157 44.5799Z" fill="#C4C4C4"/>
<path d="M129.247 50.7509C129.218 50.6988 131.666 49.3187 134.71 47.6672C137.757 46.0158 140.249 44.7201 140.278 44.7722C140.307 44.8243 137.859 46.2044 134.813 47.8559C131.768 49.5056 129.276 50.8031 129.247 50.7509Z" fill="#C4C4C4"/>
<path d="M147.643 47.4588C147.701 47.4426 148.538 50.0986 149.516 53.3925C150.494 56.6883 151.242 59.3713 151.185 59.3892C151.128 59.4054 150.29 56.7494 149.312 53.4536C148.334 50.1615 147.588 47.4767 147.643 47.4588Z" fill="#C4C4C4"/>
<path d="M151.375 16.5732L138.448 22.2125L142.243 30.9394L155.17 25.3001L151.375 16.5732Z" fill="#E0E0E0"/>
<path d="M151.465 16.6612C151.468 16.663 151.445 16.7205 151.395 16.8302C151.339 16.9488 151.264 17.1069 151.172 17.3028C150.968 17.7233 150.683 18.3109 150.333 19.0333C149.606 20.5015 148.612 22.5088 147.51 24.7335L147.487 24.7802L147.437 24.7658C147.397 24.7551 147.356 24.7443 147.315 24.7335C144.894 24.074 142.704 23.4756 141.101 23.0389C140.317 22.8197 139.68 22.64 139.223 22.5106C139.011 22.4477 138.842 22.3992 138.713 22.3614C138.597 22.3255 138.537 22.3057 138.537 22.3003C138.539 22.2967 138.602 22.3093 138.719 22.3363C138.848 22.3686 139.02 22.4099 139.234 22.4621C139.693 22.5807 140.335 22.746 141.123 22.9508C142.727 23.3785 144.921 23.9626 147.345 24.6095C147.387 24.6203 147.43 24.6329 147.467 24.6419L147.394 24.6742C148.508 22.4567 149.514 20.453 150.25 18.9902C150.616 18.2768 150.914 17.6945 151.127 17.2776C151.228 17.0853 151.311 16.9326 151.372 16.8158C151.429 16.7134 151.459 16.6594 151.465 16.6612Z" fill="#C4C4C4"/>
<path d="M142.33 31.0285C142.296 31.0177 142.748 29.3986 143.341 27.4093C143.933 25.42 144.439 23.817 144.473 23.826C144.507 23.8368 144.055 25.4559 143.463 27.4452C142.872 29.4345 142.365 31.0375 142.33 31.0285Z" fill="#C4C4C4"/>
<path d="M148.723 21.8421C148.739 21.8115 150.218 22.5789 152.023 23.5582C153.828 24.5376 155.278 25.3571 155.261 25.3876C155.245 25.4182 153.769 24.6508 151.962 23.6714C150.155 22.6921 148.705 21.8744 148.723 21.8421Z" fill="#C4C4C4"/>
<path d="M133.932 71.7277H59.7495C58.3052 71.7277 57.1354 70.556 57.1354 69.1094V21.7486C57.1354 20.302 58.3052 19.1304 59.7495 19.1304H133.932C135.376 19.1304 136.546 20.302 136.546 21.7486V69.1076C136.546 70.5542 135.374 71.7277 133.932 71.7277Z" fill="#263238"/>
<path d="M136.655 72.4393H57.008C55.2443 72.4393 53.8143 71.0071 53.8143 69.2406V67.8371H139.849V69.2406C139.849 71.0071 138.419 72.4393 136.655 72.4393Z" fill="#263238"/>
<path d="M134.192 21.2221H59.2669V65.6376H134.192V21.2221Z" fill="#455A64"/>
<path d="M89.0115 67.8371L90.0791 69.5371H105.102L106.094 67.8371H89.0115Z" fill="#455A64"/>
<path d="M132.215 65.4956H61.3966C61.0719 65.4956 60.8099 65.2314 60.8099 64.908V23.3139C60.8099 22.9886 61.0737 22.7262 61.3966 22.7262H132.215C132.539 22.7262 132.801 22.9904 132.801 23.3139V64.908C132.803 65.2314 132.539 65.4956 132.215 65.4956Z" fill="#E0E0E0"/>
<path d="M132.803 25.8585H60.8099V65.4956H132.803V25.8585Z" fill="#E0E0E0"/>
<path d="M66.7147 24.3759C66.7147 24.694 66.4581 24.9509 66.1406 24.9509C65.823 24.9509 65.5664 24.694 65.5664 24.3759C65.5664 24.0578 65.823 23.8008 66.1406 23.8008C66.4564 23.8008 66.7147 24.0596 66.7147 24.3759Z" fill="#455A64"/>
<path d="M63.2304 24.3759C63.2304 24.694 62.9738 24.9509 62.6562 24.9509C62.3386 24.9509 62.0821 24.694 62.0821 24.3759C62.0821 24.0578 62.3404 23.8008 62.6562 23.8008C62.972 23.8008 63.2304 24.0596 63.2304 24.3759Z" fill="#455A64"/>
<path d="M64.9026 24.3759C64.9026 24.694 64.646 24.9509 64.3284 24.9509C64.0108 24.9509 63.7543 24.694 63.7543 24.3759C63.7543 24.0578 64.0108 23.8008 64.3284 23.8008C64.6442 23.8008 64.9026 24.0596 64.9026 24.3759Z" fill="#455A64"/>
<path d="M135.862 67.8371C135.862 67.8659 118.238 67.8892 96.5006 67.8892C74.7564 67.8892 57.1354 67.8659 57.1354 67.8371C57.1354 67.8084 74.7564 67.785 96.5006 67.785C118.238 67.785 135.862 67.8084 135.862 67.8371Z" fill="#455A64"/>
<path d="M57.1192 68.4158C57.1192 68.4176 57.0977 68.405 57.0582 68.3798C57.017 68.3529 56.9595 68.3133 56.8824 68.263C56.8052 68.2109 56.7083 68.1444 56.5953 68.0671C56.4823 67.9881 56.3459 67.9018 56.206 67.785C56.0624 67.6718 55.9027 67.546 55.7269 67.4058C55.5529 67.2639 55.377 67.0931 55.1779 66.9152C54.7867 66.554 54.3651 66.1048 53.9273 65.5675C53.0607 64.491 52.1761 63.0121 51.5643 61.136C50.965 59.2635 50.6331 57.0028 50.8197 54.5283C50.9148 53.2937 51.114 52.0035 51.489 50.7024C51.8586 49.4014 52.3825 48.0787 53.1468 46.8316C53.3352 46.5189 53.5469 46.217 53.7676 45.9169C54.0009 45.6276 54.2341 45.3365 54.471 45.0436C54.7203 44.7614 54.9805 44.4865 55.2389 44.2025C55.5026 43.9258 55.7879 43.667 56.0642 43.3939C57.2018 42.339 58.4828 41.3758 59.8554 40.4881C62.6042 38.7072 65.71 37.2337 68.9073 35.699C72.0956 34.1356 75.4544 32.635 78.8993 31.1184C92.6951 25.0659 105.323 19.9121 114.52 16.3324C119.117 14.5353 122.867 13.1642 125.463 12.2244C126.762 11.7607 127.777 11.4157 128.463 11.1785C128.806 11.0617 129.068 10.9718 129.245 10.9125C129.333 10.8838 129.399 10.8622 129.446 10.846C129.491 10.8317 129.514 10.8263 129.514 10.8263C129.514 10.8263 129.493 10.837 129.45 10.855C129.405 10.873 129.338 10.8963 129.252 10.9305C129.077 10.9952 128.816 11.0904 128.475 11.2144C127.792 11.4624 126.783 11.8254 125.488 12.2944C122.901 13.2541 119.158 14.6432 114.568 16.4564C105.386 20.0666 92.7686 25.2403 78.9746 31.2909C75.5297 32.8076 72.1745 34.3045 68.9862 35.8661C65.7871 37.399 62.6849 38.8654 59.9487 40.6336C58.5815 41.516 57.3076 42.4702 56.1755 43.5161C55.9009 43.7856 55.6157 44.0426 55.3537 44.3158C55.0971 44.5961 54.8388 44.8692 54.5912 45.1478C54.3561 45.4389 54.1229 45.7264 53.8932 46.0122C53.6761 46.3069 53.4662 46.6034 53.2796 46.9125C52.5224 48.1416 52.0003 49.4517 51.6289 50.7402C51.2521 52.0304 51.0512 53.3117 50.9525 54.5373C50.7587 56.9938 51.0781 59.2401 51.6648 61.1036C52.2623 62.969 53.1325 64.4443 53.9847 65.5207C54.4153 66.0581 54.8316 66.5091 55.2156 66.8721C55.4111 67.05 55.5852 67.2243 55.7574 67.3663C55.9314 67.5083 56.0875 67.6358 56.2293 67.7509C56.3674 67.8695 56.5002 67.9593 56.6115 68.0384C56.7227 68.1192 56.8178 68.1857 56.8932 68.2414C56.9667 68.2954 57.0241 68.3367 57.0636 68.3654C57.1013 68.3996 57.1192 68.414 57.1192 68.4158Z" fill="#263238"/>
<path d="M126.5 4.91223L129.821 7.67068L129.514 10.8317L132.236 9.31496L135.136 11.378L145.942 4.42703L126.5 4.91223Z" fill="#CA3D3D"/>
<g opacity="0.5">
<g opacity="0.5">
<path opacity="0.5" d="M129.821 7.67066L145.65 4.4342L131.434 8.74349L129.514 10.8316L129.821 7.67066Z" fill="#263238"/>
</g>
</g>
<g opacity="0.8">
<g opacity="0.8">
<path opacity="0.8" d="M131.434 8.7435L132.236 9.31496L129.514 10.8317L131.434 8.7435Z" fill="#263238"/>
</g>
</g>
<path d="M81.6533 46.4516L64.3937 48.0908L65.4969 59.7422L82.7564 58.103L81.6533 46.4516Z" fill="white"/>
<path d="M82.7622 58.1044C82.7622 58.1044 82.7497 58.0289 82.7353 57.8887C82.7192 57.7414 82.6976 57.5365 82.6689 57.2705C82.6133 56.7242 82.5326 55.9335 82.4303 54.9236C82.2294 52.8966 81.9441 49.9926 81.5942 46.4578L81.6642 46.5153C76.8987 46.9717 70.9042 47.5486 64.4074 48.1704C64.3894 48.1883 64.5437 48.005 64.4791 48.0841V48.0877V48.0931L64.4809 48.1057L64.4827 48.1308L64.4881 48.1794L64.4971 48.2764L64.515 48.4705L64.5509 48.8586C64.576 49.1174 64.5993 49.3744 64.6245 49.6296C64.6729 50.1417 64.7213 50.6503 64.768 51.1552C64.8631 52.1652 64.9564 53.1589 65.0497 54.1347C65.2327 56.0845 65.4085 57.9606 65.5754 59.7361L65.4947 59.6696C70.5687 59.2023 74.8748 58.8052 77.9196 58.5249C79.4393 58.3883 80.6451 58.2805 81.4776 58.2068C81.8867 58.1709 82.2042 58.1439 82.4267 58.1259C82.5308 58.1187 82.6115 58.1115 82.6743 58.1062C82.7299 58.1044 82.7604 58.1026 82.7622 58.1044C82.764 58.1062 82.7371 58.1098 82.6851 58.1169C82.6259 58.1241 82.5469 58.1331 82.4465 58.1439C82.2276 58.1673 81.9154 58.1996 81.5135 58.2409C80.6845 58.3236 79.486 58.444 77.9753 58.5967C74.9197 58.8969 70.5992 59.3192 65.509 59.8169L65.4354 59.8241L65.4283 59.7504C65.2578 57.975 65.0784 56.1007 64.8936 54.1509C64.8003 53.1751 64.707 52.1813 64.6101 51.1714C64.5617 50.6664 64.5132 50.1579 64.4648 49.6457C64.4396 49.3888 64.4163 49.1318 64.3912 48.8748L64.3553 48.4866L64.3374 48.2926L64.3284 48.1955L64.323 48.147L64.3212 48.1218L64.3194 48.1093V48.1039V48.1003C64.2548 48.1776 64.4074 47.9907 64.393 48.0104C70.8917 47.3994 76.888 46.8352 81.6534 46.3859L81.718 46.3805L81.7234 46.4452C82.0463 49.9997 82.3101 52.9199 82.4949 54.9578C82.5828 55.9623 82.6528 56.7494 82.6994 57.2939C82.721 57.5545 82.7371 57.7575 82.7497 57.9013C82.7604 58.0379 82.7622 58.1044 82.7622 58.1044Z" fill="#455A64"/>
<path d="M81.657 46.4524C81.6606 46.456 81.6157 46.5153 81.5242 46.6249C81.422 46.7453 81.2856 46.9034 81.1169 47.0993C80.7473 47.5198 80.2306 48.1075 79.5954 48.8299C78.2857 50.2962 76.4896 52.3071 74.4891 54.5498L74.4442 54.6001L74.3868 54.5642C74.2415 54.4708 74.0854 54.3719 73.9275 54.2713C71.2954 52.5803 68.9126 51.0492 67.1705 49.9314C66.3218 49.3762 65.6292 48.9251 65.1322 48.5998C64.9044 48.4471 64.7213 48.3249 64.5832 48.2314C64.4594 48.1452 64.3948 48.0985 64.3966 48.0931C64.4002 48.0877 64.4702 48.1272 64.5993 48.2027C64.7429 48.289 64.9295 48.404 65.1645 48.5459C65.6669 48.8586 66.3684 49.2971 67.2297 49.8344C68.9772 50.9432 71.3689 52.4599 74.0118 54.1347C74.1697 54.2353 74.3258 54.336 74.4711 54.4276L74.3689 54.442C76.3838 52.2137 78.1924 50.2136 79.5129 48.7562C80.1642 48.0482 80.6935 47.4713 81.0721 47.058C81.2497 46.8693 81.3915 46.7183 81.5009 46.6033C81.5996 46.5009 81.6534 46.4488 81.657 46.4524Z" fill="#455A64"/>
<path d="M118.148 29.6223L115.816 37.8866L128.059 41.3526L130.391 33.0883L118.148 29.6223Z" fill="white"/>
<path d="M128.057 41.3507C128.057 41.3507 128.07 41.2968 128.095 41.1961C128.124 41.0919 128.163 40.9445 128.213 40.7559C128.319 40.3677 128.475 39.8052 128.673 39.0864C129.073 37.647 129.645 35.584 130.343 33.0735L130.376 33.131C126.995 32.1768 122.741 30.9782 118.132 29.6771C118.116 29.6861 118.268 29.5999 118.204 29.6376V29.6394L118.202 29.643L118.2 29.652L118.195 29.67L118.186 29.7041L118.166 29.7724L118.126 29.9108L118.049 30.1857C117.997 30.369 117.947 30.5505 117.895 30.732C117.793 31.095 117.69 31.4562 117.59 31.8138C117.387 32.5308 117.188 33.2353 116.992 33.9271C116.601 35.3108 116.225 36.6389 115.867 37.8986L115.83 37.8321C119.425 38.8618 122.476 39.7351 124.632 40.3515C125.709 40.6624 126.561 40.9086 127.151 41.0793C127.44 41.1638 127.664 41.2303 127.822 41.277C127.896 41.2986 127.953 41.3165 127.996 41.3291C128.036 41.3435 128.056 41.3489 128.057 41.3507C128.057 41.3525 128.039 41.3471 128.002 41.3381C127.959 41.3273 127.903 41.3129 127.831 41.2932C127.675 41.25 127.453 41.1907 127.167 41.1117C126.579 40.9481 125.727 40.7127 124.652 40.4144C122.483 39.807 119.415 38.948 115.801 37.9363L115.749 37.9219L115.763 37.8698C116.117 36.6101 116.492 35.2803 116.881 33.8966C117.077 33.2047 117.274 32.5003 117.477 31.7833C117.577 31.4257 117.68 31.0645 117.782 30.7015C117.834 30.52 117.884 30.3367 117.936 30.1552L118.013 29.8802L118.053 29.7418L118.073 29.6735L118.082 29.6394L118.087 29.6214L118.089 29.6124L118.09 29.6089V29.6071C118.026 29.643 118.18 29.5567 118.164 29.5657C122.772 30.874 127.024 32.0834 130.402 33.043L130.447 33.0556L130.435 33.1005C129.713 35.6181 129.121 37.6847 128.707 39.1295C128.501 39.8394 128.339 40.3964 128.228 40.781C128.174 40.9661 128.131 41.1081 128.1 41.2105C128.074 41.3039 128.057 41.3507 128.057 41.3507Z" fill="#455A64"/>
<path d="M130.39 33.0861C130.392 33.0897 130.345 33.1184 130.254 33.1688C130.151 33.2245 130.017 33.2964 129.85 33.3862C129.486 33.5767 128.976 33.8409 128.35 34.1661C127.065 34.822 125.303 35.7205 123.342 36.7215L123.297 36.7449L123.267 36.7035C123.191 36.6011 123.111 36.4915 123.03 36.3801C121.677 34.5237 120.453 32.8435 119.558 31.6143C119.124 31.0087 118.77 30.5163 118.517 30.1623C118.403 29.997 118.309 29.864 118.239 29.7634C118.177 29.6717 118.146 29.6214 118.15 29.6196C118.153 29.6178 118.191 29.6627 118.259 29.749C118.334 29.846 118.431 29.9736 118.555 30.1336C118.815 30.4822 119.18 30.9674 119.626 31.564C120.529 32.7878 121.763 34.4608 123.127 36.3082C123.208 36.4196 123.288 36.5292 123.364 36.6316L123.29 36.6137C125.26 35.6253 127.026 34.7376 128.316 34.0906C128.949 33.7798 129.464 33.5246 129.832 33.3431C130.004 33.2604 130.141 33.1957 130.246 33.1454C130.336 33.1041 130.388 33.0825 130.39 33.0861Z" fill="#455A64"/>
<path d="M65.8212 27.6483C65.8212 27.6483 66.6663 26.9636 67.9743 29.0176C69.2823 31.0717 69.8187 32.2775 69.8187 32.2775C69.8187 32.2775 70.1525 32.7016 70.4342 32.3763C70.7159 32.051 71.0603 31.1705 71.6022 31.2693C72.1638 31.3736 72.4042 31.9666 72.3863 32.8759C72.3683 33.7852 72.4042 35.7781 72.4078 35.9578C72.4114 36.1339 72.537 36.3837 72.7649 36.1932C72.9927 36.0027 74.2433 34.3027 75.013 34.9443C75.7827 35.5876 75.318 38.1124 75.2732 38.3892C75.2283 38.6659 75.2911 38.7755 75.4257 38.8312C75.5603 38.8851 75.9263 38.2742 76.3031 37.8051C76.6781 37.3361 77.1966 36.8581 77.6093 37.266C78.0219 37.6739 78.3198 39.5051 76.8575 42.6697L76.0842 44.0912L74.4622 44.1576C70.9814 44.0894 69.4671 43.0201 69.2823 42.4684C69.0975 41.9185 69.7524 41.6616 70.3373 41.5286C70.9222 41.3956 71.6327 41.3327 71.6417 41.1889C71.6524 41.0434 71.5807 40.9374 71.3115 40.8583C71.0424 40.7774 68.5735 40.091 68.3331 39.1152C68.0927 38.1412 70.1668 37.7584 70.4377 37.638C70.7087 37.5176 70.54 37.2948 70.3839 37.2139C70.2242 37.1312 68.4497 36.2273 67.6262 35.8446C66.8027 35.4618 66.3738 34.9856 66.5263 34.4339C66.6735 33.902 67.6154 33.9775 68.0317 33.866C68.448 33.7546 68.2129 33.2676 68.2129 33.2676C68.2129 33.2676 67.366 32.2559 66.0957 30.1785C64.8254 28.1012 65.8356 27.6339 65.8356 27.6339" fill="#CA3D3D"/>
<path d="M66.9964 29.4849C66.9964 29.4849 67.0036 29.501 67.0215 29.5298C67.0395 29.5603 67.0646 29.6035 67.0969 29.6592C67.1651 29.7742 67.2656 29.9395 67.393 30.1534C67.6513 30.5811 68.0281 31.1992 68.4982 31.9594C69.4366 33.4815 70.7517 35.5732 72.2122 37.8788C73.6727 40.1844 74.9933 42.2744 75.9388 43.791C76.4107 44.5476 76.7929 45.1622 77.0584 45.5881C77.1894 45.7983 77.2917 45.9619 77.3634 46.0769C77.3975 46.1308 77.4244 46.1721 77.4442 46.2027C77.4621 46.2314 77.4729 46.244 77.4729 46.244C77.4729 46.244 77.4657 46.2278 77.4478 46.1991C77.4298 46.1685 77.4047 46.1254 77.3724 46.0697C77.3042 45.9547 77.2038 45.7893 77.0764 45.5755C76.818 45.1478 76.4412 44.5296 75.9711 43.7695C75.0328 42.2474 73.7176 40.1556 72.2571 37.8483C70.7966 35.5427 69.4778 33.4545 68.5305 31.9378C68.0586 31.1813 67.6764 30.5667 67.4109 30.1408C67.2799 29.9305 67.1776 29.767 67.1059 29.652C67.0718 29.5981 67.0449 29.5567 67.0251 29.5262C67.0072 29.4992 66.9964 29.4849 66.9964 29.4849Z" fill="#263238"/>
<path d="M71.1716 32.5201C71.168 32.5201 71.1572 32.5596 71.1411 32.6333C71.1249 32.7069 71.1034 32.813 71.0783 32.9459C71.0298 33.2101 70.9724 33.5785 70.9168 33.9846C70.8648 34.3854 70.8163 34.7466 70.7786 35.0251C70.7625 35.1491 70.7481 35.2533 70.7356 35.3396C70.7248 35.4133 70.7212 35.4564 70.7248 35.4564C70.7284 35.4564 70.7392 35.4169 70.7571 35.3432C70.7733 35.2695 70.7948 35.1635 70.8181 35.0305C70.8648 34.7645 70.9168 34.398 70.9724 33.9918C71.028 33.5929 71.0783 33.2317 71.1178 32.9531C71.1357 32.8291 71.1501 32.7249 71.1626 32.6387C71.1716 32.5632 71.1752 32.5218 71.1716 32.5201Z" fill="#263238"/>
<path d="M70.5813 35.4995C70.5849 35.4852 69.8331 35.3324 68.9055 35.1599C67.9761 34.9874 67.2225 34.8598 67.2189 34.8742C67.2153 34.8886 67.9671 35.0413 68.8947 35.2138C69.8223 35.3863 70.5777 35.5157 70.5813 35.4995Z" fill="#263238"/>
<path d="M72.982 38.9391C72.982 38.9355 72.9389 38.9373 72.8617 38.9445C72.7738 38.9535 72.6662 38.9642 72.5388 38.9768C72.2661 39.0038 71.8893 39.0379 71.473 39.0631C71.0568 39.0882 70.6782 39.0972 70.4037 39.1026C70.2763 39.1044 70.1668 39.108 70.0789 39.1098C70.0018 39.1116 69.9605 39.1152 69.9605 39.1188C69.9605 39.1224 70.0035 39.126 70.0789 39.1314C70.1561 39.135 70.2673 39.1403 70.4037 39.1421C70.6782 39.1475 71.0568 39.1439 71.4748 39.1188C71.8929 39.0954 72.2697 39.0523 72.5424 39.0164C72.6787 38.9984 72.7882 38.9804 72.8635 38.9678C72.9407 38.9535 72.982 38.9427 72.982 38.9391Z" fill="#263238"/>
<path d="M74.1087 36.3621C74.1051 36.3603 74.0854 36.3945 74.0531 36.4574C74.0208 36.5203 73.976 36.6137 73.9221 36.7269C73.8127 36.9551 73.6656 37.2732 73.5059 37.6254C73.3462 37.9777 73.2044 38.2975 73.104 38.5311C73.0537 38.648 73.0142 38.7432 72.9873 38.8079C72.9604 38.8744 72.9479 38.9103 72.9515 38.9121C72.955 38.9139 72.9748 38.8798 73.0071 38.8169C73.0394 38.754 73.0842 38.6623 73.138 38.5473C73.2475 38.3191 73.3946 38.001 73.5543 37.6488C73.714 37.2966 73.8557 36.9767 73.9544 36.7431C74.0047 36.6263 74.0441 36.531 74.071 36.4664C74.0998 36.4017 74.1123 36.3639 74.1087 36.3621Z" fill="#263238"/>
<path d="M76.6135 39.1296C76.6099 39.1278 76.5847 39.1727 76.5453 39.2536C76.5004 39.3452 76.443 39.4602 76.3748 39.5986C76.2331 39.8915 76.0411 40.2976 75.833 40.7469C75.6248 41.1962 75.4382 41.6059 75.3055 41.9024C75.2445 42.0444 75.1924 42.1612 75.1512 42.2546C75.1153 42.3391 75.0973 42.3858 75.1009 42.3876C75.1045 42.3894 75.1296 42.3445 75.1691 42.2636C75.214 42.172 75.2714 42.0569 75.3396 41.9186C75.4813 41.6257 75.6733 41.2195 75.8814 40.7703C76.0895 40.321 76.2761 39.9131 76.4089 39.6148C76.4699 39.4728 76.5219 39.356 76.5632 39.2626C76.5991 39.1781 76.617 39.1314 76.6135 39.1296Z" fill="#263238"/>
<path d="M75.1171 42.2977C75.1171 42.2941 75.0633 42.2959 74.9664 42.3013C74.8587 42.3085 74.7206 42.3175 74.5555 42.3265C74.2092 42.348 73.7301 42.3768 73.2008 42.3929C72.6715 42.4109 72.1907 42.4127 71.8444 42.4127C71.6793 42.4127 71.5412 42.4127 71.4335 42.4127C71.3366 42.4127 71.2828 42.4163 71.2828 42.4199C71.2828 42.4235 71.3366 42.4289 71.4335 42.4343C71.5304 42.4397 71.6704 42.4468 71.8444 42.4504C72.1925 42.4612 72.6733 42.463 73.2044 42.4468C73.7355 42.4307 74.2146 42.3965 74.5609 42.3642C74.7349 42.348 74.8749 42.3336 74.97 42.3211C75.0633 42.3103 75.1171 42.3013 75.1171 42.2977Z" fill="#263238"/>
<path d="M128.567 43.8575C127.964 43.5808 127.246 43.6221 126.631 43.8719C126.016 44.1217 125.493 44.562 125.052 45.0597C124.198 46.0212 123.723 47.4228 123.484 48.6862C124.9 48.8605 126.283 47.9512 126.956 47.4462C128.02 46.6483 129.459 44.5566 128.567 43.8575Z" fill="#CA3D3D"/>
<path d="M120.924 49.1822C121.6 48.8767 122.041 48.1542 122.093 47.4121C122.145 46.6717 121.837 45.9295 121.34 45.3796C121.11 45.1244 120.805 44.8926 120.462 44.9106C120.143 44.9268 119.865 45.1676 119.73 45.4605C119.596 45.7516 119.585 46.0859 119.617 46.4057C119.725 47.5019 120.03 48.5424 120.924 49.1822Z" fill="#CA3D3D"/>
<path d="M119.065 52.7583C119.072 52.7636 119.137 52.6918 119.242 52.5552C119.35 52.4186 119.501 52.2191 119.68 51.9658C120.034 51.459 120.518 50.7366 120.843 49.8345C121.168 48.9306 121.196 48.0321 121.058 47.4193C120.994 47.112 120.902 46.873 120.825 46.7166C120.748 46.5603 120.692 46.4812 120.685 46.4848C120.658 46.4974 120.859 46.8335 120.959 47.4373C121.067 48.0375 121.024 48.9036 120.708 49.7842C120.391 50.6647 119.928 51.3871 119.596 51.9065C119.259 52.4258 119.047 52.7457 119.065 52.7583Z" fill="#263238"/>
<path d="M127.289 45.3257C127.282 45.3185 127.157 45.412 126.931 45.5899C126.706 45.7678 126.385 46.0284 125.99 46.3572C125.205 47.0131 124.132 47.9368 122.973 48.9845C121.814 50.034 120.789 51.0097 120.059 51.7268C119.693 52.0862 119.4 52.3791 119.203 52.5857C119.004 52.7924 118.898 52.9092 118.905 52.9164C118.912 52.9236 119.032 52.8194 119.242 52.6271C119.47 52.415 119.77 52.1365 120.131 51.8022C120.879 51.1032 121.914 50.1418 123.071 49.0923C124.229 48.0446 125.289 47.1102 126.059 46.4363C126.428 46.111 126.735 45.8415 126.968 45.6348C127.182 45.4425 127.297 45.3347 127.289 45.3257Z" fill="#263238"/>
<path d="M121.738 51.1212C123.034 50.2442 124.763 50.0501 126.22 50.6198C126.592 50.7653 126.993 51.0313 127.001 51.4303C127.008 51.8292 126.611 52.1095 126.242 52.2587C124.7 52.8769 122.8 52.4402 121.681 51.2128" fill="#CA3D3D"/>
<path d="M125.258 51.344C125.262 51.335 125.179 51.2937 125.027 51.229C124.952 51.1949 124.856 51.1571 124.742 51.1248C124.629 51.0906 124.501 51.0439 124.354 51.0169C124.063 50.9451 123.71 50.9001 123.315 50.8858C122.921 50.8804 122.485 50.9127 122.036 51.0044C121.589 51.1014 121.178 51.2488 120.818 51.4141C120.462 51.5866 120.156 51.7717 119.919 51.955C119.795 52.0394 119.698 52.1329 119.607 52.2102C119.515 52.2856 119.445 52.3593 119.388 52.4204C119.275 52.5426 119.215 52.6127 119.223 52.6199C119.242 52.6397 119.495 52.3719 119.976 52.0377C120.215 51.8687 120.52 51.6962 120.87 51.5345C121.223 51.3799 121.627 51.2398 122.061 51.1445C122.497 51.0547 122.922 51.0205 123.308 51.0187C123.694 51.0241 124.042 51.0583 124.329 51.1158C124.909 51.2254 125.248 51.3692 125.258 51.344Z" fill="#263238"/>
<path d="M120.547 11.9926H75.1996V61.7937H120.547V11.9926Z" fill="white"/>
<path d="M120.545 61.7919C120.545 61.4379 120.529 41.7514 120.504 11.9908L120.545 12.0321C107.248 12.0339 91.7172 12.0357 75.2032 12.0375H75.1978L75.2445 11.9908C75.2427 30.3151 75.2391 47.43 75.2373 61.7919L75.1978 61.7524C102.468 61.7757 120.209 61.7919 120.545 61.7919C120.209 61.7919 102.468 61.8081 75.1978 61.8315H75.1583V61.7919C75.1566 47.43 75.1548 30.3169 75.1512 11.9908V11.944H75.1978H75.2032C91.7172 11.9458 107.248 11.9476 120.545 11.9494H120.586V11.9908C120.563 41.7532 120.547 61.4379 120.545 61.7919Z" fill="#263238"/>
<path d="M108.283 57.2347H90.9529C89.5157 57.2347 88.3495 56.0684 88.3495 54.6272V54.0971C88.3495 52.6576 89.5139 51.4896 90.9529 51.4896H108.283C109.72 51.4896 110.887 52.6558 110.887 54.0971V54.6272C110.887 56.0684 109.72 57.2347 108.283 57.2347Z" fill="#CA3D3D"/>
<g opacity="0.5">
<g opacity="0.5">
<path opacity="0.5" d="M108.283 57.2347H90.9529C89.5157 57.2347 88.3495 56.0684 88.3495 54.6272V54.0971C88.3495 52.6576 89.5139 51.4896 90.9529 51.4896H108.283C109.72 51.4896 110.887 52.6558 110.887 54.0971V54.6272C110.887 56.0684 109.72 57.2347 108.283 57.2347Z" fill="#263238"/>
</g>
</g>
<path d="M106.392 57.2347H89.0618C87.6246 57.2347 86.4584 56.0684 86.4584 54.6272V54.0971C86.4584 52.6576 87.6228 51.4896 89.0618 51.4896H106.392C107.829 51.4896 108.996 52.6558 108.996 54.0971V54.6272C108.994 56.0684 107.829 57.2347 106.392 57.2347Z" fill="#CA3D3D"/>
<path d="M92.6771 54.7349L92.7542 54.5624C92.8493 54.6397 93.0001 54.6936 93.1472 54.6936C93.332 54.6936 93.4109 54.6271 93.4109 54.539C93.4109 54.2821 92.704 54.451 92.704 54.0089C92.704 53.8166 92.8565 53.6531 93.1831 53.6531C93.3248 53.6531 93.4755 53.6908 93.5778 53.7591L93.5078 53.9316C93.4002 53.8687 93.2835 53.8382 93.1795 53.8382C92.9965 53.8382 92.9211 53.9101 92.9211 53.9999C92.9211 54.2533 93.6262 54.088 93.6262 54.5247C93.6262 54.7151 93.4719 54.8787 93.1454 54.8787C92.9606 54.8787 92.7758 54.8212 92.6771 54.7349Z" fill="white"/>
<path d="M93.8344 54.3432V53.6711H94.0551V54.3342C94.0551 54.5786 94.1645 54.6846 94.3565 54.6846C94.5485 54.6846 94.6561 54.5786 94.6561 54.3342V53.6711H94.8732V54.3432C94.8732 54.69 94.6777 54.8787 94.3547 54.8787C94.0299 54.8787 93.8344 54.69 93.8344 54.3432Z" fill="white"/>
<path d="M96.2404 54.5391C96.2404 54.7439 96.0807 54.8625 95.7757 54.8625H95.1854V53.6729H95.7416C96.0269 53.6729 96.1794 53.7933 96.1794 53.982C96.1794 54.1042 96.1184 54.1941 96.0269 54.2444C96.1543 54.2839 96.2404 54.3845 96.2404 54.5391ZM95.4061 53.8454V54.1743H95.7183C95.8708 54.1743 95.9569 54.1204 95.9569 54.0108C95.9569 53.8993 95.8708 53.8454 95.7183 53.8454H95.4061ZM96.0179 54.5157C96.0179 54.3971 95.9282 54.3432 95.7614 54.3432H95.4043V54.6864H95.7614C95.9282 54.6882 96.0179 54.6361 96.0179 54.5157Z" fill="white"/>
<path d="M96.3768 54.7349L96.4539 54.5624C96.549 54.6397 96.6997 54.6936 96.8469 54.6936C97.0317 54.6936 97.1106 54.6271 97.1106 54.539C97.1106 54.2821 96.4037 54.451 96.4037 54.0089C96.4037 53.8166 96.5562 53.6531 96.8828 53.6531C97.0245 53.6531 97.1752 53.6908 97.2775 53.7591L97.2075 53.9316C97.0999 53.8687 96.9832 53.8382 96.8792 53.8382C96.6962 53.8382 96.6208 53.9101 96.6208 53.9999C96.6208 54.2533 97.3259 54.088 97.3259 54.5247C97.3259 54.7151 97.1716 54.8787 96.8451 54.8787C96.6603 54.8787 96.4755 54.8212 96.3768 54.7349Z" fill="white"/>
<path d="M97.4614 54.2668C97.4614 53.911 97.7323 53.654 98.0983 53.654C98.2921 53.654 98.459 53.7241 98.5684 53.8535L98.4267 53.9883C98.3406 53.8948 98.2329 53.8481 98.1091 53.8481C97.8633 53.8481 97.6857 54.0206 97.6857 54.2668C97.6857 54.5112 97.8633 54.6855 98.1091 54.6855C98.2329 54.6855 98.3406 54.6406 98.4267 54.5436L98.5684 54.6801C98.4572 54.8095 98.2921 54.8796 98.0965 54.8796C97.7341 54.8796 97.4614 54.6226 97.4614 54.2668Z" fill="white"/>
<path d="M99.5589 54.8617L99.3166 54.5131C99.3023 54.5149 99.2861 54.5149 99.2718 54.5149H99.0026V54.8617H98.782V53.6721H99.27C99.5822 53.6721 99.776 53.832 99.776 54.0962C99.776 54.2759 99.6845 54.4088 99.523 54.4717L99.7957 54.8635H99.5589V54.8617ZM99.261 53.8589H99.0026V54.3334H99.261C99.4548 54.3334 99.5553 54.2453 99.5553 54.0962C99.5535 53.9452 99.453 53.8589 99.261 53.8589Z" fill="white"/>
<path d="M100.023 53.6711H100.243V54.8608H100.023V53.6711Z" fill="white"/>
<path d="M101.619 54.5391C101.619 54.7439 101.46 54.8625 101.155 54.8625H100.565V53.6729H101.121C101.406 53.6729 101.558 53.7933 101.558 53.982C101.558 54.1042 101.497 54.1941 101.406 54.2444C101.533 54.2839 101.619 54.3845 101.619 54.5391ZM100.785 53.8454V54.1743H101.097C101.25 54.1743 101.336 54.1204 101.336 54.0108C101.336 53.8993 101.25 53.8454 101.097 53.8454H100.785ZM101.397 54.5157C101.397 54.3971 101.307 54.3432 101.14 54.3432H100.783V54.6864H101.14C101.307 54.6882 101.397 54.6361 101.397 54.5157Z" fill="white"/>
<path d="M102.748 54.6757V54.8608H101.856V53.6711H102.723V53.8562H102.077V54.1653H102.651V54.3486H102.077V54.6775H102.748V54.6757Z" fill="white"/>
<path d="M111.068 47.6618C111.068 47.687 105.301 47.7086 98.189 47.7086C91.0749 47.7086 85.3083 47.687 85.3083 47.6618C85.3083 47.6367 91.0731 47.6151 98.189 47.6151C105.301 47.6151 111.068 47.6349 111.068 47.6618Z" fill="#263238"/>
<path d="M115.098 49.2217C115.098 49.2469 107.526 49.2684 98.189 49.2684C88.8483 49.2684 81.2784 49.2469 81.2784 49.2217C81.2784 49.1966 88.8483 49.175 98.189 49.175C107.528 49.175 115.098 49.1966 115.098 49.2217Z" fill="#263238"/>
<path d="M77.3312 13.9298C77.3312 14.1418 77.1589 14.3143 76.9472 14.3143C76.7355 14.3143 76.5632 14.1418 76.5632 13.9298C76.5632 13.7177 76.7355 13.5452 76.9472 13.5452C77.1589 13.5452 77.3312 13.7159 77.3312 13.9298Z" fill="#C4C4C4"/>
<path d="M78.2265 14.3143C78.4385 14.3143 78.6104 14.1422 78.6104 13.9298C78.6104 13.7174 78.4385 13.5452 78.2265 13.5452C78.0144 13.5452 77.8425 13.7174 77.8425 13.9298C77.8425 14.1422 78.0144 14.3143 78.2265 14.3143Z" fill="#C4C4C4"/>
<path d="M79.8915 13.9298C79.8915 14.1418 79.7193 14.3143 79.5075 14.3143C79.2958 14.3143 79.1236 14.1418 79.1236 13.9298C79.1236 13.7177 79.2958 13.5452 79.5075 13.5452C79.7193 13.5452 79.8915 13.7159 79.8915 13.9298Z" fill="#C4C4C4"/>
<path d="M117.172 21.9823L117.918 19.2885C117.918 19.2885 118.187 18.1941 118.252 17.9389C118.336 17.6011 118.099 17.4951 117.96 17.7251C117.906 17.8131 117.317 18.9273 117.317 18.9273C117.317 18.9273 117.787 17.1033 117.805 17.0368C117.958 16.442 117.59 16.5031 117.482 16.7152C117.371 16.9344 116.705 18.7296 116.705 18.7296C117.332 16.3845 117.136 16.1778 116.96 16.1401C116.784 16.1024 116.233 18.248 116.233 18.248C116.233 18.248 116.034 17.8814 115.668 17.6281C115.103 17.2381 114.159 17.6281 114.114 17.894C114.07 18.16 114.405 18.2354 114.405 18.2354C115.114 17.7772 115.841 18.3325 115.765 19.01C115.692 19.6874 114.834 19.594 114.728 19.1106C114.495 18.0522 114.131 18.3972 114.131 18.3972L114.495 20.7297L114.109 21.9032" fill="#E8B299"/>
<path d="M90.3124 32.9603L106.433 32.8525L106.877 43.8306L90.1832 43.6652L90.3124 32.9603Z" fill="#455A64"/>
<path d="M90.3123 32.9603L98.5012 26.3329L106.433 32.8525" fill="#263238"/>
<path d="M90.1832 43.6653C90.1634 43.6455 91.4553 42.2366 93.0665 40.5151C94.6795 38.7935 96.0036 37.4134 96.0233 37.4332C96.0431 37.4529 94.753 38.8618 93.1382 40.5834C91.527 42.3049 90.2029 43.685 90.1832 43.6653Z" fill="#263238"/>
<path d="M106.877 43.8306C106.857 43.8486 105.599 42.4648 104.072 40.7415C102.544 39.0163 101.322 37.6039 101.341 37.5841C101.361 37.5661 102.617 38.9498 104.148 40.675C105.674 42.3983 106.896 43.8126 106.877 43.8306Z" fill="#263238"/>
<path d="M106.433 32.8525L98.3343 39.3254L90.3123 32.9603" fill="#263238"/>
<path d="M79.5398 20.5896L79.5937 20.5878L79.3784 19.8653L78.6876 17.1051C78.6212 16.8553 78.7611 16.5965 79.0123 16.5031L79.5093 16.4869L81.2121 15.689C81.5332 15.5704 81.8885 15.7717 81.9297 16.1006C81.9925 16.6073 82.337 17.9713 82.7031 17.4933C82.712 17.4825 82.721 17.4735 82.73 17.4627C83.2449 16.7529 83.8873 16.3683 84.151 16.3791C84.4094 16.3899 84.5045 16.7026 84.3304 16.8895C84.3053 16.9218 84.2748 16.9506 84.2335 16.9739C84.2156 16.9829 84.1959 16.9991 84.1779 17.0117C83.9788 17.1734 83.7401 17.4591 83.5661 17.6856C83.3992 17.9012 83.2718 18.1474 83.1911 18.4044C83.0996 18.6901 83.0332 18.9417 82.9812 19.1537L83.1139 20.5626" fill="#E8B299"/>
<path d="M84.081 8.08401C84.081 8.08401 82.0912 7.70304 79.233 5.10094C76.3748 2.50063 74.9664 -1.01976 74.6273 -0.9928C74.2863 -0.965844 72.781 -1.61457 70.1273 4.62652C67.4737 10.8676 68.6292 12.2675 69.1908 12.2405C69.7524 12.2136 73.5435 11.0383 75.9388 11.2414C78.3323 11.4463 81.4363 12.6035 81.4363 12.6035L84.081 8.08401Z" fill="#455A64"/>
<path d="M88.3764 11.3241L87.7376 12.6269L87.4524 13.211C87.0612 14.0124 86.1103 14.3646 85.2921 14.016L81.0129 12.6575L83.3203 6.9447L87.6174 9.08497C88.4428 9.49469 88.7819 10.4956 88.3764 11.3241Z" fill="#263238"/>
<path d="M85.9919 13.45L84.7162 16.1383L84.0362 15.9694L79.7282 19.6875L78.4274 17.3064C78.4274 17.3064 81.0021 16.1078 81.4579 15.1643C81.9136 14.2191 81.3502 14.025 81.3502 14.025L82.538 12.5946L85.9919 13.45Z" fill="#263238"/>
<path d="M70.3606 4.73255C68.9503 8.11277 68.4085 11.1048 69.1495 11.4157C69.8905 11.7266 71.6363 9.23771 73.0465 5.85749C74.4568 2.47727 74.9987 -0.514785 74.2576 -0.825671C73.5148 -1.13656 71.7709 1.35233 70.3606 4.73255Z" fill="#263238"/>
<path d="M88.7926 13.1696L87.6336 12.8407L88.3064 11.4678L89.1838 11.9782L88.7926 13.1696Z" fill="#455A64"/>
<path d="M82.1289 13.0833L85.2724 14.9666L85.6348 14.2011L82.1289 13.0833Z" fill="#455A64"/>
<path d="M88.3064 11.4678L87.6336 12.8407L87.8722 12.909L88.4123 11.5289L88.3064 11.4678Z" fill="#455A64"/>
<path d="M87.5241 11.8021C87.508 11.8398 86.9285 11.6331 86.2305 11.3402C85.5307 11.0473 84.9763 10.7795 84.9925 10.7418C85.0086 10.7041 85.5882 10.9107 86.2861 11.2036C86.9859 11.4966 87.5403 11.7643 87.5241 11.8021Z" fill="#455A64"/>
<path d="M87.8543 10.9862C87.8363 11.024 87.3124 10.8191 86.6826 10.5298C86.0511 10.2405 85.5541 9.9763 85.572 9.93856C85.5882 9.90082 86.1139 10.1057 86.7436 10.395C87.3734 10.6843 87.8722 10.9485 87.8543 10.9862Z" fill="#455A64"/>
<path d="M87.1025 12.6593C87.0971 12.679 86.959 12.6521 86.7401 12.591C86.6306 12.5604 86.4996 12.5209 86.3561 12.476C86.2126 12.4292 86.0636 12.3592 85.9039 12.2909C85.267 12.0159 84.779 11.7446 84.7933 11.7104C84.8113 11.6691 85.3298 11.8829 85.9614 12.1561C86.1193 12.2226 86.2664 12.2963 86.4045 12.3502C86.5427 12.4023 86.6683 12.4508 86.7724 12.4921C86.9805 12.5766 87.1079 12.6395 87.1025 12.6593Z" fill="#455A64"/>
<path d="M73.4072 3.90411C73.4072 3.90411 71.6578 2.88519 70.784 5.23751C69.9102 7.58983 71.7278 7.92048 71.7278 7.92048C72.4365 6.75061 72.9999 5.41542 73.4072 3.90411Z" fill="#455A64"/>
<path d="M75.1566 1.08098C75.1673 1.08278 75.1476 1.24091 75.1009 1.52664C75.0543 1.81237 74.9897 2.22748 74.8928 2.73604C74.8264 2.98763 74.7546 3.26258 74.6793 3.55729C74.6398 3.70464 74.6003 3.85739 74.5591 4.01373C74.5375 4.0928 74.5178 4.17187 74.4963 4.25274C74.473 4.33361 74.4425 4.41088 74.4137 4.49354C74.2989 4.81701 74.1787 5.15665 74.0549 5.50707C74.0244 5.59512 73.9921 5.68318 73.9598 5.77303C73.9293 5.86288 73.8844 5.94734 73.8468 6.03719C73.7678 6.2133 73.6871 6.39121 73.6063 6.57271C73.5256 6.75241 73.4449 6.93211 73.3659 7.10643C73.3247 7.19268 73.2906 7.28254 73.2439 7.3652C73.1973 7.44786 73.1524 7.53053 73.1075 7.61319C72.9263 7.94025 72.7523 8.25473 72.5854 8.55483C72.5424 8.62851 72.5047 8.70399 72.4598 8.77587C72.4132 8.84595 72.3683 8.91424 72.3235 8.98253C72.2338 9.1173 72.1458 9.24849 72.0615 9.37608C71.8911 9.62946 71.7332 9.86487 71.5878 10.0805C71.2703 10.4884 71.0047 10.8101 70.8217 11.0347C70.6369 11.2576 70.531 11.378 70.5239 11.3708C70.5167 11.3654 70.6064 11.2324 70.7769 10.9988C70.9545 10.7616 71.2021 10.4273 71.5071 10.0158C71.6471 9.79838 71.7978 9.56117 71.961 9.30599C72.0436 9.1784 72.1279 9.04722 72.2158 8.91244C72.2589 8.84416 72.3037 8.77587 72.3486 8.70578C72.3917 8.6357 72.4293 8.56022 72.4706 8.48475C72.6339 8.18464 72.8043 7.87016 72.9802 7.5449C73.025 7.46404 73.0699 7.38137 73.1147 7.29871C73.1614 7.21604 73.1937 7.12619 73.2349 7.03994C73.3139 6.86562 73.3928 6.68772 73.4736 6.50801C73.5543 6.32831 73.6351 6.1522 73.7122 5.97789C73.7499 5.88984 73.7947 5.80538 73.8252 5.71732C73.8575 5.62927 73.8898 5.54121 73.9203 5.45316C74.0477 5.10453 74.1697 4.76849 74.2864 4.44862C74.3151 4.36775 74.3474 4.29048 74.3707 4.21141C74.3922 4.13234 74.4155 4.05327 74.4371 3.9742C74.4801 3.81965 74.5232 3.6687 74.5645 3.52135C74.647 3.23023 74.7241 2.95888 74.7941 2.70909C74.9 2.20951 74.9861 1.80339 75.0471 1.51406C75.1063 1.23552 75.1458 1.07918 75.1566 1.08098Z" fill="#263238"/>
<path d="M85.4877 26.766L83.7096 19.9965L79.2635 20.1152L80.6469 29.5622C80.8245 31.618 82.032 32.9639 84.0649 33.291C85.2849 33.4869 86.6055 32.3224 87.5851 31.5694C88.2239 31.077 88.3387 31.1741 88.999 30.5739L91.8626 28.5001L91.9325 28.8397H91.9146L92.4008 34.6118L98.3325 39.2769L105.407 33.6001L105.246 31.1453C105.264 31.1435 105.28 31.1094 105.244 31.1094L105.061 28.3258L108.685 32.4895C109.52 33.7097 110.939 34.3926 112.412 34.2794C114.003 34.159 115.383 33.1311 115.959 31.6395L117.827 22.1224L113.729 21.2401L111.809 28.0976L107.23 22.8269C104.591 19.382 101.507 19.6731 101.507 19.6731L95.8224 19.5724C95.8188 19.5724 95.8134 19.5724 95.8099 19.5724C95.6412 19.5814 92.4654 19.6785 90.3124 21.9823L85.4877 26.766Z" fill="#263238"/>
<g opacity="0.3">
<g opacity="0.3">
<g opacity="0.3">
<path opacity="0.3" d="M97.3224 38.4844C99.6262 37.1474 102.292 35.5786 103.622 33.2676C104.472 31.7905 104.894 30.024 105.059 28.3258L105.405 33.6001L98.3307 39.2769L97.3224 38.4844Z" fill="#263238"/>
</g>
</g>
</g>
<g opacity="0.2">
<g opacity="0.2">
<g opacity="0.2">
<path opacity="0.2" d="M91.353 21.037C90.8093 23.0605 89.7687 24.8036 88.1898 26.1801C87.8094 26.5126 87.3949 26.8217 86.9177 26.9852C86.4404 27.1487 85.886 27.1505 85.4536 26.8882L85.4877 26.7678L89.0725 23.2114L91.353 21.037Z" fill="#263238"/>
</g>
</g>
</g>
<path d="M85.9452 29.5945C85.9308 29.5891 85.9883 29.431 86.0367 29.1686C86.0851 28.9062 86.1103 28.5342 86.0457 28.1317C85.9793 27.7292 85.8358 27.3859 85.7048 27.1523C85.5738 26.9187 85.4679 26.7875 85.4805 26.7785C85.4877 26.7714 85.6133 26.8882 85.7604 27.12C85.9093 27.35 86.0672 27.7022 86.1372 28.1173C86.2054 28.5324 86.1677 28.9188 86.1013 29.183C86.0349 29.4489 85.9524 29.5999 85.9452 29.5945Z" fill="#455A64"/>
<path d="M84.9171 28.6888C84.8938 28.6708 85.206 28.3437 85.3441 27.8226C85.4913 27.3051 85.3926 26.863 85.4213 26.8594C85.432 26.8576 85.4715 26.9618 85.493 27.1433C85.5146 27.323 85.5074 27.5782 85.4338 27.8478C85.3585 28.1155 85.2347 28.3384 85.1235 28.4821C85.014 28.6277 84.9243 28.6978 84.9171 28.6888Z" fill="#455A64"/>
<path d="M91.5916 24.9743C91.6167 24.9725 91.7639 26.4047 91.92 28.173C92.0761 29.9431 92.1819 31.3789 92.155 31.3807C92.1299 31.3825 91.9828 29.9503 91.8267 28.182C91.6724 26.4119 91.5665 24.9761 91.5916 24.9743Z" fill="#455A64"/>
<path d="M101.171 19.4682C101.175 19.4664 101.187 19.5006 101.209 19.5652C101.234 19.6299 101.259 19.727 101.288 19.8546C101.34 20.108 101.367 20.4925 101.27 20.9526C101.169 21.4054 100.936 21.9391 100.487 22.374C100.046 22.8125 99.375 23.0946 98.6591 23.1126C97.9432 23.127 97.2596 22.8736 96.7985 22.4549C96.332 22.0398 96.0754 21.5186 95.9552 21.0694C95.8385 20.6147 95.8493 20.2302 95.8906 19.9732C95.9121 19.8456 95.9336 19.7467 95.9552 19.6821C95.9749 19.6174 95.9857 19.5832 95.9893 19.5832C96 19.5868 95.9552 19.7234 95.9247 19.9786C95.896 20.2319 95.896 20.6111 96.018 21.0514C96.1436 21.4881 96.4001 21.993 96.8541 22.3884C97.3008 22.7891 97.9611 23.0299 98.6555 23.0174C99.3481 22.9994 99.9976 22.7298 100.426 22.3111C100.862 21.8942 101.097 21.3785 101.203 20.9382C101.306 20.4907 101.289 20.1133 101.248 19.8618C101.212 19.6066 101.16 19.4718 101.171 19.4682Z" fill="#455A64"/>
<path d="M111.594 30.2953C111.568 30.2971 111.527 29.7904 111.565 29.1668C111.599 28.5432 111.698 28.0454 111.721 28.049C111.748 28.0526 111.692 28.5522 111.658 29.1722C111.622 29.7904 111.621 30.2935 111.594 30.2953Z" fill="#455A64"/>
<path d="M112.315 30.6206C112.304 30.6242 112.241 30.4858 112.162 30.254C112.083 30.0222 111.988 29.6952 111.913 29.3286C111.838 28.962 111.795 28.6241 111.777 28.3797C111.757 28.1353 111.76 27.9826 111.771 27.9826C111.8 27.9808 111.852 28.5828 112.004 29.3106C112.152 30.0384 112.342 30.6116 112.315 30.6206Z" fill="#455A64"/>
<path d="M105.059 30.7248C105.034 30.7266 104.975 29.7131 104.928 28.4642C104.881 27.2134 104.863 26.1999 104.89 26.1999C104.916 26.1981 104.975 27.2116 105.021 28.4606C105.068 29.7095 105.084 30.723 105.059 30.7248Z" fill="#455A64"/>
<path d="M98.6286 22.8287C97.2829 22.8035 96.1902 21.7343 96.1346 20.3883C96.0933 19.4035 96.0592 18.4996 96.0592 18.4996C96.0592 18.4996 96.3732 18.4062 96.2494 16.3611C96.1256 14.3161 96.0556 11.378 96.0556 11.378C98.3702 10.2458 97.4498 10.2243 99.5633 11.696L99.8773 11.9153L101.219 20.3182C101.198 21.7307 100.037 22.8556 98.6286 22.8287Z" fill="#E8B299"/>
<path d="M95.2949 14.388C95.2949 14.388 94.2578 12.794 93.89 14.2047C93.5222 15.6136 94.5306 16.2443 95.1747 16.088C95.8188 15.9316 95.2949 14.388 95.2949 14.388Z" fill="#E8B299"/>
<path d="M95.1837 14.6575C95.1837 14.6575 94.4714 13.6512 94.2453 14.0753C94.0192 14.4994 94.1035 15.0277 94.1035 15.0277C94.1035 15.0277 94.222 14.4419 94.6759 14.7582C94.6759 14.7582 94.2776 15.7034 95.1388 15.4069C95.137 15.4069 95.4869 15.1122 95.1837 14.6575Z" fill="#CD8B6D"/>
<path d="M101.06 13.9837C101.06 13.9837 102 12.3214 102.452 13.7033C102.902 15.0835 101.934 15.7825 101.28 15.6729C100.627 15.5615 101.06 13.9837 101.06 13.9837Z" fill="#E8B299"/>
<path d="M101.085 14.3574C101.085 14.3574 101.736 13.3044 101.987 13.7105C102.239 14.1184 102.186 14.6522 102.186 14.6522C102.186 14.6522 102.032 14.0753 101.6 14.4239C101.6 14.4239 102.054 15.3386 101.176 15.1032C101.175 15.1032 100.809 14.8337 101.085 14.3574Z" fill="#CD8B6D"/>
<path d="M98.5945 19.2939C95.4851 19.3999 94.8804 16.4276 94.762 15.3674C94.7136 14.9325 94.7136 14.2173 94.7351 13.5128C94.7656 12.5029 94.8374 11.5181 94.8643 11.4409C95.6896 9.03104 98.7488 8.98072 99.7948 9.64922C101.135 10.5064 101.264 11.4876 101.264 11.4876C101.401 12.0698 101.505 12.6682 101.569 13.2577C101.903 16.3108 101.201 19.2058 98.5945 19.2939Z" fill="#E8B299"/>
<path d="M97.0249 13.7136C97.0338 14.0533 96.8131 14.3372 96.5297 14.3462C96.2462 14.3552 96.0093 14.0874 96.0004 13.7478C95.9896 13.4081 96.2121 13.1242 96.4938 13.1152C96.7773 13.1062 97.0159 13.374 97.0249 13.7136Z" fill="#4A1D1D"/>
<path d="M100.405 13.5986C100.416 13.9383 100.193 14.2222 99.91 14.2312C99.6265 14.2402 99.3897 13.9724 99.3789 13.6328C99.3699 13.2931 99.5906 13.0092 99.8741 13.0002C100.158 12.9912 100.394 13.259 100.405 13.5986Z" fill="#4A1D1D"/>
<path d="M101.645 13.6674C101.664 13.9873 101.119 14.4545 100.95 14.7276C100.918 14.7797 100.882 14.8301 100.844 14.8804C100.622 15.1769 100.304 15.4339 99.9312 15.6351C99.8845 15.6621 99.8361 15.6872 99.7858 15.7124C99.3193 15.9406 98.7829 16.0862 98.2482 16.1203C98.2159 16.1221 98.1836 16.1239 98.1513 16.1257H98.1262C97.6525 16.1401 97.2147 16.0143 96.8308 15.8238C96.7931 15.8059 96.7554 15.7861 96.7177 15.7663C96.5024 15.6477 96.3051 15.5111 96.1274 15.3674C95.9659 15.2362 95.7829 15.0798 95.6089 14.9091C95.6017 14.9019 95.5963 14.8948 95.5892 14.8894C95.3398 14.6414 94.8733 14.2766 94.7315 13.9801C94.5611 14.1238 94.1502 17.1464 94.7979 17.9497C94.8141 17.9713 94.832 17.991 94.8481 18.0108C94.9127 18.0881 94.9773 18.1618 95.0473 18.23C95.4779 18.6685 95.9929 18.974 96.5742 19.1519C96.6782 19.1843 96.7859 19.213 96.8954 19.2382C97.3852 19.346 97.9163 19.373 98.4761 19.3191C98.5389 19.3137 98.5999 19.3065 98.6627 19.2993C98.8367 19.2777 99.0143 19.249 99.1938 19.213C99.5329 19.1447 99.8379 19.0531 100.114 18.9381C100.2 18.9021 100.285 18.8644 100.365 18.8249C101.097 18.4637 101.584 17.9353 101.862 17.2992C101.923 17.1608 101.973 17.0188 102.016 16.8715C102.086 16.6271 102.129 16.3701 102.151 16.1042C102.178 15.7358 101.641 13.6045 101.645 13.6674Z" fill="#4A1D1D"/>
<path d="M97.186 12.1669C96.9779 12.0267 96.6567 12.0662 96.4127 12.1237C96.07 12.2028 95.198 12.4616 95.4976 12.8443C95.5012 12.8497 95.5084 12.8533 95.512 12.8569C95.5048 12.8821 95.5425 12.9054 95.5766 12.8911C95.5838 12.8875 95.5909 12.8857 95.5981 12.8821C95.625 12.8803 95.6502 12.8695 95.6699 12.8551C95.9014 12.7814 96.1974 12.7779 96.4306 12.7814C96.7482 12.785 97.0084 12.9324 97.3296 12.909C97.3834 12.9054 97.4211 12.8749 97.4228 12.8336C97.4354 12.5892 97.4372 12.3358 97.186 12.1669Z" fill="#4A1D1D"/>
<path d="M98.8421 12.785C98.8475 12.8264 98.8851 12.8551 98.939 12.8551C99.2601 12.8569 99.5113 12.6916 99.8271 12.6664C100.06 12.6485 100.356 12.6305 100.59 12.688C100.611 12.7006 100.636 12.7096 100.663 12.7096C100.67 12.7114 100.679 12.7132 100.687 12.7167C100.721 12.7293 100.756 12.7024 100.748 12.6772C100.753 12.6718 100.758 12.67 100.762 12.6628C101.038 12.2621 100.152 12.0626 99.8056 12.0051C99.5562 11.9656 99.235 11.9458 99.0359 12.1004C98.7954 12.2891 98.8134 12.5424 98.8421 12.785Z" fill="#4A1D1D"/>
<path d="M98.546 15.6783C98.4276 15.5561 98.5066 15.2955 98.4904 15.1409C98.4707 14.9343 98.4761 14.7312 98.4563 14.5246C98.442 14.3592 98.4671 13.9765 98.2733 13.8165C98.2428 13.6566 98.0401 13.6853 97.9539 13.8327C97.8104 14.0789 97.866 14.379 97.8893 14.6324C97.9091 14.8534 97.9216 15.0745 97.927 15.2991C97.9306 15.4464 97.9629 15.6675 97.8876 15.8058C97.6059 15.725 97.265 15.6657 97.5072 15.9622C97.6274 16.1113 98.0257 16.4258 98.3038 16.3791C98.6052 16.3288 98.9784 15.928 99.0717 15.7286C99.2153 15.4267 98.756 15.5579 98.546 15.6783Z" fill="#CD8B6D"/>
<path d="M96.2494 16.3611C96.2494 16.3611 98.3702 18.2642 99.9706 16.0862C99.9706 16.0844 99.0305 20.2517 96.2494 16.3611Z" fill="white"/>
<path d="M94.9463 27C95.4689 27 95.8926 26.5715 95.8926 26.0429C95.8926 25.5143 95.4689 25.0858 94.9463 25.0858C94.4237 25.0858 94 25.5143 94 26.0429C94 26.5715 94.4237 27 94.9463 27Z" fill="#CA3D3D"/>
<path d="M94.6782 26.5124C94.6189 26.5197 94.5901 26.5288 94.5793 26.5997L94.5379 26.9054C94.6315 26.9509 94.734 26.9818 94.8419 26.9927L94.7952 26.5742C94.7898 26.5342 94.7376 26.5051 94.6782 26.5124Z" fill="#263238"/>
<path d="M95.0452 26.5324C95.0452 26.5906 94.9985 26.5888 94.9409 26.5888C94.8833 26.5888 94.8365 26.5906 94.8365 26.5324V26.1102C94.8365 26.052 94.8833 26.0047 94.9409 26.0047C94.9985 26.0047 95.0452 26.052 95.0452 26.1102V26.5324Z" fill="#E8B299"/>
<path d="M94.8383 26.4687C94.8455 26.4687 94.8527 26.4687 94.8599 26.4687C94.9265 26.4687 94.9895 26.4577 95.0452 26.4377V26.112C95.0452 26.0538 94.9985 26.0065 94.9409 26.0065C94.8833 26.0065 94.8365 26.0538 94.8365 26.112V26.4687H94.8383Z" fill="#E8B299"/>
<path d="M95.2737 26.5124H95.047C95.047 26.587 94.8401 26.587 94.8401 26.5124H94.6872C94.6602 26.5124 94.6387 26.5415 94.6405 26.5779L94.6548 26.9527C94.7466 26.9836 94.8455 27 94.9463 27C95.0776 27 95.2036 26.9727 95.3169 26.9236L95.3205 26.5779C95.3223 26.5415 95.3007 26.5124 95.2737 26.5124Z" fill="#455A64"/>
<path d="M95.2305 26.5633C95.173 26.5815 95.1784 26.6579 95.1874 26.738C95.1946 26.7944 95.2162 26.96 95.2162 26.96C95.2503 26.9491 95.2827 26.9382 95.3151 26.9236L95.3187 26.5997L95.3079 26.5652C95.2971 26.5251 95.2881 26.5451 95.2305 26.5633Z" fill="#263238"/>
<path d="M95.3745 26.5597C95.3619 26.5196 95.3061 26.5014 95.2485 26.5178C95.191 26.536 95.155 26.5815 95.1658 26.6233L95.2701 26.9418C95.3385 26.9163 95.4032 26.8835 95.4626 26.8435L95.3745 26.5597Z" fill="#455A64"/>
<path d="M94.5523 25.6899C94.5523 25.6899 94.4192 25.4643 94.3598 25.6572C94.3022 25.85 94.4354 25.9428 94.5253 25.9246C94.6153 25.9065 94.5523 25.6899 94.5523 25.6899Z" fill="#E8B299"/>
<path d="M94.5343 25.7264C94.5343 25.7264 94.4426 25.5826 94.4084 25.6408C94.3742 25.6991 94.3832 25.7718 94.3832 25.7718C94.3832 25.7718 94.403 25.6918 94.4624 25.7373C94.4624 25.7373 94.403 25.8665 94.5217 25.8301C94.5235 25.8301 94.5739 25.7919 94.5343 25.7264Z" fill="#B66C50"/>
<path d="M95.3439 25.6663C95.3439 25.6663 95.4824 25.4425 95.5364 25.6354C95.5903 25.8282 95.4536 25.921 95.3655 25.901C95.2755 25.8828 95.3439 25.6663 95.3439 25.6663Z" fill="#E8B299"/>
<path d="M95.3457 25.7191C95.3457 25.7191 95.441 25.5771 95.4734 25.6354C95.5058 25.6936 95.495 25.7664 95.495 25.7664C95.495 25.7664 95.477 25.6863 95.4158 25.7318C95.4158 25.7318 95.4734 25.861 95.3547 25.8228C95.3529 25.8228 95.3043 25.7827 95.3457 25.7191Z" fill="#B66C50"/>
<path d="M94.9769 26.3886C94.5505 26.385 94.4839 25.9701 94.4731 25.8228C94.4695 25.7627 94.4731 25.6626 94.4803 25.5662C94.4893 25.4261 94.5055 25.2915 94.5091 25.2805C94.635 24.9512 95.056 24.9621 95.1945 25.0604C95.3727 25.1859 95.3852 25.3224 95.3852 25.3224C95.4014 25.4043 95.4122 25.488 95.4176 25.5699C95.4464 25.9938 95.3349 26.3905 94.9769 26.3886Z" fill="#E8B299"/>
<path d="M94.788 25.6663C94.788 25.7136 94.7556 25.7518 94.716 25.7518C94.6764 25.7518 94.6458 25.7136 94.6458 25.6663C94.6458 25.619 94.6782 25.5808 94.7178 25.5808C94.7574 25.5808 94.788 25.6208 94.788 25.6663Z" fill="#4A1D1D"/>
<path d="M95.2503 25.67C95.2503 25.7173 95.2179 25.7555 95.1784 25.7555C95.1388 25.7555 95.1082 25.7173 95.1082 25.67C95.1082 25.6227 95.1406 25.5844 95.1802 25.5844C95.2197 25.5844 95.2521 25.6227 95.2503 25.67Z" fill="#4A1D1D"/>
<path d="M95.4266 25.6262C95.4284 25.6699 95.3511 25.7318 95.3259 25.77C95.3205 25.7773 95.3169 25.7845 95.3097 25.79C95.2773 25.83 95.2323 25.8628 95.1802 25.8901C95.173 25.8937 95.1676 25.8974 95.1604 25.8992C95.0956 25.9283 95.02 25.9447 94.9481 25.9465C94.9445 25.9465 94.9391 25.9465 94.9355 25.9465H94.9319C94.8671 25.9465 94.8078 25.9265 94.7556 25.8974C94.7502 25.8955 94.7448 25.8919 94.7412 25.8883C94.7124 25.8701 94.6854 25.85 94.662 25.83C94.6405 25.8118 94.6171 25.7882 94.5937 25.7645C94.5919 25.7627 94.5919 25.7627 94.5919 25.7609C94.5595 25.7245 94.4965 25.6717 94.4785 25.6299C94.4552 25.6481 94.3814 26.0647 94.4659 26.1794C94.4677 26.183 94.4695 26.1848 94.4731 26.1885C94.4821 26.1994 94.4893 26.2103 94.5001 26.2194C94.5559 26.2831 94.6261 26.3286 94.7034 26.3559C94.7178 26.3613 94.7322 26.365 94.7466 26.3704C94.8132 26.3886 94.8851 26.3941 94.9625 26.3904C94.9715 26.3904 94.9787 26.3886 94.9877 26.3886C95.0111 26.3868 95.0362 26.3832 95.0614 26.3795C95.1082 26.3723 95.1514 26.3613 95.1892 26.3468C95.2017 26.3431 95.2125 26.3377 95.2233 26.3322C95.3259 26.2867 95.396 26.2158 95.4374 26.1303C95.4464 26.1121 95.4536 26.092 95.4608 26.072C95.4716 26.0393 95.4788 26.0029 95.4842 25.9665C95.4878 25.9155 95.4266 25.6171 95.4266 25.6262Z" fill="#4A1D1D"/>
<path d="M94.8239 25.3934C94.797 25.3733 94.752 25.377 94.7178 25.3824C94.671 25.3915 94.5487 25.4225 94.5883 25.4771L94.5901 25.4789C94.5883 25.4825 94.5937 25.4862 94.5991 25.4843C94.6009 25.4843 94.6009 25.4843 94.6027 25.4825C94.6063 25.4825 94.6099 25.4807 94.6135 25.4789C94.6458 25.4698 94.6854 25.4716 94.7178 25.4734C94.761 25.4752 94.7952 25.4971 94.8401 25.4953C94.8473 25.4953 94.8527 25.4916 94.8527 25.4843C94.8545 25.4534 94.8563 25.4188 94.8239 25.3934Z" fill="#4A1D1D"/>
<path d="M95.047 25.488C95.047 25.4934 95.0524 25.4971 95.0596 25.4989C95.1046 25.5007 95.1388 25.4789 95.182 25.477C95.2143 25.4752 95.2539 25.4752 95.2863 25.4843C95.2899 25.4861 95.2917 25.488 95.2953 25.488C95.2971 25.488 95.2971 25.488 95.2989 25.4898C95.3043 25.4916 95.3079 25.488 95.3079 25.4843L95.3097 25.4825C95.3493 25.4279 95.2287 25.3952 95.182 25.3861C95.1478 25.3788 95.1046 25.3752 95.0758 25.3952C95.0434 25.4188 95.0434 25.4552 95.047 25.488Z" fill="#4A1D1D"/>
<path d="M94.9895 25.8865C94.9733 25.8683 94.9859 25.8337 94.9841 25.8119C94.9823 25.7828 94.9841 25.7555 94.9823 25.7264C94.9805 25.7027 94.9877 25.6499 94.9607 25.6281C94.9571 25.6063 94.9301 25.6081 94.9175 25.6281C94.8959 25.6608 94.9031 25.7027 94.9049 25.7391C94.9067 25.77 94.9067 25.801 94.9067 25.8319C94.9067 25.8519 94.9103 25.8828 94.8977 25.901C94.8599 25.8883 94.8132 25.8774 94.8455 25.921C94.8617 25.9429 94.9139 25.9884 94.9517 25.9829C94.9931 25.9774 95.047 25.9247 95.0614 25.8974C95.083 25.8555 95.02 25.8719 94.9895 25.8865Z" fill="#E8B299"/>
<path d="M94.671 25.9683C94.671 25.9683 94.9517 26.2431 95.182 25.952C95.182 25.952 95.0308 26.5233 94.671 25.9683Z" fill="white"/>
<path d="M96.1444 25.6808H96.5636C96.6338 25.6808 96.6842 25.6972 96.7165 25.7281C96.7489 25.7609 96.7633 25.8118 96.7633 25.8828V25.9847C96.7633 26.0556 96.7471 26.1066 96.7165 26.1393C96.6842 26.1721 96.6338 26.1866 96.5636 26.1866H96.3244V26.3886H96.1444V25.6808ZM96.5852 25.8828C96.5852 25.8428 96.5654 25.8227 96.5258 25.8227H96.3244V26.0447H96.524C96.5636 26.0447 96.5834 26.0247 96.5834 25.9847V25.8828H96.5852Z" fill="white"/>
<path d="M96.9198 26.3886H96.7255L96.99 25.6808H97.1897L97.4541 26.3886H97.2598L97.2149 26.2631H96.9648L96.9198 26.3886ZM97.0098 26.1302H97.1699L97.0907 25.8919L97.0098 26.1302Z" fill="white"/>
<path d="M97.5045 25.6808H97.9237C97.9938 25.6808 98.0442 25.6972 98.0766 25.7281C98.109 25.7609 98.1234 25.8118 98.1234 25.8828V25.9847C98.1234 26.0556 98.1072 26.1066 98.0766 26.1393C98.0442 26.1721 97.9938 26.1866 97.9237 26.1866H97.6844V26.3886H97.5045V25.6808ZM97.9453 25.8828C97.9453 25.8428 97.9255 25.8227 97.8859 25.8227H97.6862V26.0447H97.8859C97.9255 26.0447 97.9453 26.0247 97.9453 25.9847V25.8828Z" fill="white"/>
<path d="M98.5461 26.3886H98.1863V26.2467H98.2763V25.8227H98.1863V25.6808H98.5461V25.8227H98.4562V26.2467H98.5461V26.3886Z" fill="white"/>
<path d="M99.0247 25.6808C99.1002 25.6808 99.1578 25.7008 99.1956 25.7409C99.2352 25.7809 99.255 25.8373 99.255 25.9137V26.1557C99.255 26.2321 99.2352 26.2904 99.1956 26.3286C99.156 26.3686 99.1002 26.3886 99.0247 26.3886H98.6343V25.6808H99.0247ZM99.0751 25.9119C99.0751 25.8519 99.0445 25.8209 98.9851 25.8209H98.816V26.2449H98.9851C99.0445 26.2449 99.0751 26.2139 99.0751 26.1539V25.9119Z" fill="#CA3D3D"/>
<path d="M99.6849 26.3886H99.3251V26.2467H99.4151V25.8227H99.3251V25.6808H99.6849V25.8227H99.595V26.2467H99.6849V26.3886Z" fill="#CA3D3D"/>
<path d="M99.9458 26.3959C99.881 26.3959 99.8325 26.3813 99.8019 26.3504C99.7713 26.3195 99.7551 26.2703 99.7551 26.2048V25.8828C99.7551 25.8118 99.7713 25.7609 99.8019 25.7299C99.8343 25.6972 99.8846 25.6826 99.9548 25.6826H100.315V25.8245H99.9944C99.9548 25.8245 99.935 25.8446 99.935 25.8846V26.2066C99.935 26.2212 99.9404 26.2339 99.9494 26.243C99.9584 26.2521 99.971 26.2558 99.9854 26.2558C100.005 26.2558 100.027 26.2558 100.052 26.2558C100.077 26.2558 100.099 26.2558 100.12 26.2558C100.145 26.2558 100.171 26.2558 100.196 26.2558V26.1066H100.066V25.9847H100.376V26.374C100.325 26.3813 100.275 26.385 100.225 26.385C100.181 26.3922 100.135 26.3959 100.084 26.3959C100.034 26.3959 99.989 26.3959 99.9458 26.3959Z" fill="#CA3D3D"/>
<path d="M100.806 26.3886H100.446V26.2467H100.536V25.8227H100.446V25.6808H100.806V25.8227H100.716V26.2467H100.806V26.3886Z" fill="#CA3D3D"/>
<path d="M101.236 26.3886H101.056V25.8227H100.845V25.6808H101.446V25.8227H101.236V26.3886Z" fill="#CA3D3D"/>
<path d="M101.57 26.3886H101.376L101.64 25.6808H101.84L102.105 26.3886H101.91L101.865 26.2631H101.615L101.57 26.3886ZM101.66 26.1302H101.82L101.741 25.8919L101.66 26.1302Z" fill="#CA3D3D"/>
<path d="M102.335 26.2467H102.7V26.3886H102.155V25.6808H102.335V26.2467Z" fill="#CA3D3D"/>
</g>
<path d="M24.7522 -4.83615L18.9382 9.97391L40.8747 18.6126L46.6887 3.80254L24.7522 -4.83615Z" fill="#E0E0E0"/>
<path d="M46.6966 4.00673C46.6984 4.01392 46.6015 4.05345 46.4149 4.12353C46.2085 4.19721 45.934 4.29605 45.5931 4.41825C44.8539 4.67342 43.824 5.03103 42.5573 5.46771C39.9664 6.34287 36.4211 7.5379 32.4917 8.86411L32.4092 8.89286L32.3661 8.81738C32.332 8.75988 32.2962 8.69699 32.2603 8.63409C30.179 4.98791 28.295 1.68855 26.9171 -0.72486C26.2514 -1.9127 25.7078 -2.8795 25.3184 -3.57316C25.1426 -3.89662 25.0008 -4.15719 24.8932 -4.35307C24.7981 -4.53277 24.7515 -4.62801 24.7568 -4.63161C24.764 -4.6352 24.8232 -4.54715 24.9291 -4.37463C25.0457 -4.18235 25.1982 -3.93077 25.3884 -3.61449C25.7921 -2.92982 26.3555 -1.9738 27.0463 -0.800335C28.4386 1.60409 30.3404 4.89266 32.4433 8.52806C32.4792 8.59096 32.515 8.65386 32.5491 8.71136L32.4217 8.66284C36.3583 7.36178 39.9108 6.18473 42.5071 5.32754C43.7828 4.91602 44.8198 4.58178 45.5644 4.34097C45.9107 4.23315 46.1888 4.14869 46.3987 4.084C46.5925 4.0265 46.6948 3.99954 46.6966 4.00673Z" fill="#C4C4C4"/>
<path d="M18.9435 10.1777C18.9148 10.1256 21.3622 8.74549 24.407 7.09402C27.4535 5.44254 29.9457 4.14688 29.9744 4.199C30.0031 4.25111 27.5558 5.63123 24.5092 7.2827C21.4644 8.93238 18.9723 10.2298 18.9435 10.1777Z" fill="#C4C4C4"/>
<path d="M37.3397 6.88554C37.3972 6.86937 38.2351 9.52538 39.2129 12.8193C40.1908 16.1151 40.9389 18.7981 40.8815 18.816C40.8241 18.8322 39.9862 16.1762 39.0084 12.8804C38.0305 9.58827 37.2841 6.90351 37.3397 6.88554Z" fill="#C4C4C4"/>
<path d="M30.0719 26L17.1443 31.6393L20.9392 40.3662L33.8668 34.7269L30.0719 26Z" fill="#E0E0E0"/>
<path d="M30.1614 26.088C30.165 26.0898 30.1417 26.1473 30.0914 26.2569C30.0358 26.3756 29.9604 26.5337 29.8689 26.7296C29.6644 27.1501 29.3791 27.7377 29.0292 28.4601C28.3026 29.9283 27.3086 31.9356 26.2069 34.1603L26.1836 34.207L26.1334 34.1926C26.0939 34.1819 26.0526 34.1711 26.0114 34.1603C23.591 33.5008 21.4002 32.9024 19.798 32.4657C19.0139 32.2465 18.3769 32.0667 17.9194 31.9374C17.7077 31.8745 17.5391 31.8259 17.4099 31.7882C17.2932 31.7523 17.234 31.7325 17.234 31.7271C17.2358 31.7235 17.2986 31.7361 17.4152 31.7631C17.5444 31.7954 17.7167 31.8367 17.9302 31.8888C18.3895 32.0074 19.0318 32.1728 19.8195 32.3776C21.4235 32.8053 23.6179 33.3894 26.0419 34.0363C26.0831 34.0471 26.1262 34.0597 26.1639 34.0686L26.0903 34.101C27.2045 31.8835 28.2111 29.8798 28.9467 28.417C29.3127 27.7036 29.6106 27.1213 29.8241 26.7044C29.9246 26.5121 30.0071 26.3594 30.0681 26.2426C30.1255 26.1401 30.156 26.0862 30.1614 26.088Z" fill="#C4C4C4"/>
<path d="M21.027 40.4553C20.9929 40.4445 21.4451 38.8254 22.0372 36.8361C22.6293 34.8468 23.1352 33.2438 23.1693 33.2528C23.2034 33.2636 22.7513 34.8827 22.1592 36.872C21.5689 38.8613 21.0611 40.4643 21.027 40.4553Z" fill="#C4C4C4"/>
<path d="M27.4198 31.2689C27.436 31.2383 28.9144 32.0056 30.7194 32.985C32.5244 33.9644 33.9742 34.7838 33.958 34.8144C33.9419 34.8449 32.4652 34.0776 30.6584 33.0982C28.8516 32.1189 27.4019 31.3012 27.4198 31.2689Z" fill="#C4C4C4"/>
<path d="M30.3499 53.071L13.0903 54.7103L14.1935 66.3617L31.453 64.7225L30.3499 53.071Z" fill="white"/>
<path d="M31.4588 64.7238C31.4588 64.7238 31.4463 64.6484 31.4319 64.5082C31.4158 64.3608 31.3942 64.156 31.3655 63.89C31.3099 63.3437 31.2292 62.553 31.1269 61.5431C30.9259 59.516 30.6407 56.612 30.2908 53.0773L30.3608 53.1348C25.5953 53.5912 19.6008 54.1681 13.1039 54.7898C13.086 54.8078 13.2403 54.6245 13.1757 54.7036V54.7072V54.7126L13.1775 54.7252L13.1793 54.7503L13.1847 54.7988L13.1936 54.8959L13.2116 55.0899L13.2475 55.4781C13.2726 55.7369 13.2959 55.9939 13.321 56.249C13.3695 56.7612 13.4179 57.2697 13.4646 57.7747C13.5597 58.7846 13.653 59.7784 13.7463 60.7542C13.9293 62.704 14.1051 64.5801 14.272 66.3555L14.1912 66.289C19.2653 65.8218 23.5714 65.4247 26.6162 65.1443C28.1359 65.0078 29.3416 64.8999 30.1742 64.8263C30.5832 64.7903 30.9008 64.7634 31.1233 64.7454C31.2274 64.7382 31.3081 64.731 31.3709 64.7256C31.4265 64.7238 31.457 64.722 31.4588 64.7238C31.4606 64.7256 31.4337 64.7292 31.3817 64.7364C31.3225 64.7436 31.2435 64.7526 31.143 64.7634C30.9241 64.7867 30.612 64.8191 30.21 64.8604C29.3811 64.9431 28.1826 65.0635 26.6718 65.2162C23.6163 65.5163 19.2958 65.9386 14.2056 66.4364L14.132 66.4436L14.1249 66.3699C13.9544 64.5944 13.775 62.7201 13.5902 60.7704C13.4969 59.7946 13.4036 58.8008 13.3067 57.7909C13.2582 57.2859 13.2098 56.7774 13.1614 56.2652C13.1362 56.0082 13.1129 55.7513 13.0878 55.4943L13.0519 55.1061L13.034 54.912L13.025 54.815L13.0196 54.7665L13.0178 54.7413L13.016 54.7287V54.7234V54.7198C12.9514 54.797 13.1039 54.6101 13.0896 54.6299C19.5883 54.0189 25.5845 53.4546 30.35 53.0054L30.4146 53L30.42 53.0647C30.7429 56.6192 31.0067 59.5394 31.1915 61.5772C31.2794 62.5818 31.3494 63.3689 31.396 63.9134C31.4176 64.1739 31.4337 64.377 31.4463 64.5208C31.457 64.6573 31.4588 64.7238 31.4588 64.7238Z" fill="#455A64"/>
<path d="M30.3536 53.0719C30.3572 53.0755 30.3123 53.1348 30.2208 53.2444C30.1185 53.3648 29.9822 53.5229 29.8135 53.7188C29.4439 54.1393 28.9272 54.7269 28.292 55.4493C26.9822 56.9157 25.1862 58.9266 23.1857 61.1693L23.1408 61.2196L23.0834 61.1837C22.9381 61.0902 22.782 60.9914 22.6241 60.8908C19.992 59.1998 17.6092 57.6687 15.867 56.5509C15.0184 55.9956 14.3258 55.5446 13.8288 55.2193C13.6009 55.0666 13.4179 54.9444 13.2798 54.8509C13.156 54.7647 13.0914 54.7179 13.0932 54.7126C13.0968 54.7072 13.1667 54.7467 13.2959 54.8222C13.4395 54.9084 13.6261 55.0234 13.8611 55.1654C14.3635 55.4781 15.065 55.9166 15.9263 56.4539C17.6738 57.5627 20.0655 59.0794 22.7084 60.7542C22.8663 60.8548 23.0224 60.9555 23.1677 61.0471L23.0655 61.0615C25.0804 58.8332 26.8889 56.8331 28.2095 55.3757C28.8608 54.6676 29.3901 54.0908 29.7687 53.6775C29.9463 53.4888 30.088 53.3378 30.1975 53.2228C30.2962 53.1204 30.35 53.0683 30.3536 53.0719Z" fill="#455A64"/>
<path d="M-2.15547 19.0491L-4.48776 27.3134L7.75545 30.7794L10.0877 22.5151L-2.15547 19.0491Z" fill="white"/>
<path d="M7.75398 30.7775C7.75398 30.7775 7.76655 30.7235 7.79167 30.6229C7.82037 30.5187 7.85984 30.3713 7.91008 30.1826C8.01594 29.7945 8.17204 29.232 8.3694 28.5132C8.76951 27.0738 9.34187 25.0108 10.0398 22.5003L10.0721 22.5578C6.6918 21.6036 2.4377 20.405 -2.17166 19.1039C-2.1878 19.1129 -2.03529 19.0267 -2.09988 19.0644V19.0662L-2.10168 19.0698L-2.10347 19.0788L-2.10886 19.0967L-2.11783 19.1309L-2.13756 19.1992L-2.17704 19.3375L-2.25419 19.6125C-2.30622 19.7958 -2.35646 19.9773 -2.40849 20.1588C-2.51076 20.5218 -2.61303 20.883 -2.71351 21.2406C-2.91626 21.9576 -3.11541 22.6621 -3.31098 23.3539C-3.70212 24.7376 -4.07891 26.0656 -4.43596 27.3254L-4.47364 27.2589C-0.878018 28.2886 2.17216 29.1619 4.32881 29.7783C5.40535 30.0892 6.25761 30.3354 6.8479 30.5061C7.13677 30.5906 7.36105 30.6571 7.51894 30.7038C7.59251 30.7253 7.64992 30.7433 7.69298 30.7559C7.73245 30.7703 7.75219 30.7757 7.75398 30.7775C7.75398 30.7793 7.73604 30.7739 7.69836 30.7649C7.6553 30.7541 7.59969 30.7397 7.52792 30.72C7.37182 30.6768 7.14933 30.6175 6.86405 30.5385C6.27555 30.3749 5.42329 30.1395 4.34855 29.8412C2.17934 29.2338 -0.888784 28.3748 -4.50235 27.3631L-4.55438 27.3487L-4.54003 27.2966C-4.18656 26.0369 -3.81157 24.7071 -3.42222 23.3234C-3.22665 22.6315 -3.02929 21.9271 -2.82655 21.2101C-2.72607 20.8524 -2.6238 20.4912 -2.52153 20.1282C-2.46949 19.9467 -2.41926 19.7634 -2.36722 19.5819L-2.29007 19.307L-2.2506 19.1686L-2.23086 19.1003L-2.22189 19.0662L-2.21651 19.0482L-2.21471 19.0392L-2.21292 19.0356V19.0338C-2.27751 19.0698 -2.12321 18.9835 -2.13935 18.9925C2.46821 20.3008 6.72051 21.5102 10.099 22.4698L10.1439 22.4824L10.1313 22.5273C9.41005 25.0449 8.81796 27.1115 8.40349 28.5563C8.19716 29.2662 8.03568 29.8232 7.92444 30.2078C7.87061 30.3929 7.82755 30.5349 7.79705 30.6373C7.77014 30.7307 7.75398 30.7775 7.75398 30.7775Z" fill="#455A64"/>
<path d="M10.0865 22.5129C10.0883 22.5165 10.0416 22.5452 9.95013 22.5955C9.84786 22.6513 9.7133 22.7231 9.54644 22.813C9.18221 23.0035 8.67265 23.2676 8.04646 23.5929C6.76179 24.2488 4.99986 25.1473 3.03876 26.1483L2.99391 26.1716L2.96341 26.1303C2.88805 26.0279 2.80731 25.9183 2.72657 25.8068C1.37372 23.9505 0.150054 22.2703 -0.745267 21.0411C-1.17947 20.4355 -1.53293 19.9431 -1.78592 19.5891C-1.90075 19.4238 -1.99405 19.2908 -2.06403 19.1902C-2.12683 19.0985 -2.15733 19.0482 -2.15374 19.0464C-2.15015 19.0446 -2.11247 19.0895 -2.04429 19.1758C-1.96893 19.2728 -1.87204 19.4004 -1.74824 19.5604C-1.48808 19.909 -1.12385 20.3942 -0.677086 20.9908C0.225412 22.2146 1.45984 23.8876 2.82346 25.735C2.9042 25.8464 2.98494 25.956 3.06029 26.0584L2.98673 26.0405C4.95679 25.0521 6.72232 24.1644 8.01237 23.5174C8.64573 23.2065 9.16068 22.9514 9.52849 22.7699C9.70074 22.6872 9.8371 22.6225 9.94296 22.5722C10.0327 22.5309 10.0847 22.5093 10.0865 22.5129Z" fill="#455A64"/>
<path d="M169.307 55.1638L163.493 69.9739L185.429 78.6126L191.243 63.8025L169.307 55.1638Z" fill="#E0E0E0"/>
<path d="M191.251 64.0067C191.253 64.0139 191.156 64.0534 190.969 64.1235C190.763 64.1972 190.488 64.296 190.148 64.4182C189.408 64.6734 188.378 65.031 187.112 65.4677C184.521 66.3429 180.975 67.5379 177.046 68.8641L176.964 68.8929L176.921 68.8174C176.886 68.7599 176.851 68.697 176.815 68.6341C174.733 64.9879 172.849 61.6886 171.471 59.2751C170.806 58.0873 170.262 57.1205 169.873 56.4268C169.697 56.1034 169.555 55.8428 169.448 55.6469C169.352 55.4672 169.306 55.372 169.311 55.3684C169.318 55.3648 169.378 55.4529 169.483 55.6254C169.6 55.8176 169.753 56.0692 169.943 56.3855C170.346 57.0702 170.91 58.0262 171.601 59.1997C172.993 61.6041 174.895 64.8927 176.998 68.5281C177.034 68.591 177.069 68.6539 177.104 68.7114L176.976 68.6628C180.913 67.3618 184.465 66.1847 187.061 65.3275C188.337 64.916 189.374 64.5818 190.119 64.341C190.465 64.2332 190.743 64.1487 190.953 64.084C191.147 64.0265 191.249 63.9995 191.251 64.0067Z" fill="#C4C4C4"/>
<path d="M163.498 70.1777C163.469 70.1256 165.917 68.7455 168.961 67.094C172.008 65.4425 174.5 64.1469 174.529 64.199C174.558 64.2511 172.11 65.6312 169.064 67.2827C166.019 68.9324 163.527 70.2298 163.498 70.1777Z" fill="#C4C4C4"/>
<path d="M181.894 66.8855C181.952 66.8694 182.789 69.5254 183.767 72.8193C184.745 76.1151 185.493 78.7981 185.436 78.816C185.378 78.8322 184.541 76.1762 183.563 72.8804C182.585 69.5883 181.838 66.9035 181.894 66.8855Z" fill="#C4C4C4"/>
<path d="M184.626 24L171.699 29.6393L175.494 38.3662L188.421 32.7269L184.626 24Z" fill="#E0E0E0"/>
<path d="M184.716 24.088C184.719 24.0898 184.696 24.1473 184.646 24.2569C184.59 24.3756 184.515 24.5337 184.423 24.7296C184.219 25.1501 183.934 25.7377 183.584 26.4601C182.857 27.9283 181.863 29.9356 180.761 32.1603L180.738 32.207L180.688 32.1926C180.648 32.1819 180.607 32.1711 180.566 32.1603C178.145 31.5008 175.955 30.9024 174.352 30.4657C173.568 30.2465 172.931 30.0667 172.474 29.9374C172.262 29.8745 172.093 29.8259 171.964 29.7882C171.848 29.7523 171.788 29.7325 171.788 29.7271C171.79 29.7235 171.853 29.7361 171.97 29.7631C172.099 29.7954 172.271 29.8367 172.485 29.8888C172.944 30.0074 173.586 30.1728 174.374 30.3776C175.978 30.8053 178.172 31.3894 180.596 32.0363C180.638 32.0471 180.681 32.0597 180.718 32.0686L180.645 32.101C181.759 29.8835 182.765 27.8798 183.501 26.417C183.867 25.7036 184.165 25.1213 184.378 24.7044C184.479 24.5121 184.561 24.3594 184.622 24.2426C184.68 24.1401 184.71 24.0862 184.716 24.088Z" fill="#C4C4C4"/>
<path d="M175.581 38.4553C175.547 38.4445 175.999 36.8254 176.592 34.8361C177.184 32.8468 177.69 31.2438 177.724 31.2528C177.758 31.2636 177.306 32.8827 176.714 34.872C176.123 36.8613 175.615 38.4643 175.581 38.4553Z" fill="#C4C4C4"/>
<path d="M181.974 29.2689C181.99 29.2383 183.469 30.0056 185.274 30.985C187.079 31.9644 188.529 32.7838 188.512 32.8144C188.496 32.8449 187.02 32.0776 185.213 31.0982C183.406 30.1189 181.956 29.3012 181.974 29.2689Z" fill="#C4C4C4"/>
<path d="M194.35 4.07103L177.09 5.71027L178.193 17.3617L195.453 15.7225L194.35 4.07103Z" fill="white"/>
<path d="M195.459 15.7238C195.459 15.7238 195.446 15.6484 195.432 15.5082C195.416 15.3608 195.394 15.156 195.366 14.89C195.31 14.3437 195.229 13.553 195.127 12.5431C194.926 10.516 194.641 7.61203 194.291 4.07727L194.361 4.13478C189.595 4.59122 183.601 5.16807 177.104 5.78984C177.086 5.80781 177.24 5.62452 177.176 5.70359V5.70718V5.71257L177.178 5.72515L177.179 5.75031L177.185 5.79883L177.194 5.89587L177.212 6.08995L177.247 6.47811C177.273 6.73688 177.296 6.99385 177.321 7.24903C177.369 7.76119 177.418 8.26975 177.465 8.77472C177.56 9.78465 177.653 10.7784 177.746 11.7542C177.929 13.704 178.105 15.5801 178.272 17.3555L178.191 17.289C183.265 16.8218 187.571 16.4247 190.616 16.1443C192.136 16.0078 193.342 15.8999 194.174 15.8263C194.583 15.7903 194.901 15.7634 195.123 15.7454C195.227 15.7382 195.308 15.731 195.371 15.7256C195.427 15.7238 195.457 15.722 195.459 15.7238C195.461 15.7256 195.434 15.7292 195.382 15.7364C195.322 15.7436 195.244 15.7526 195.143 15.7634C194.924 15.7867 194.612 15.8191 194.21 15.8604C193.381 15.9431 192.183 16.0635 190.672 16.2162C187.616 16.5163 183.296 16.9386 178.206 17.4364L178.132 17.4436L178.125 17.3699C177.954 15.5944 177.775 13.7201 177.59 11.7704C177.497 10.7946 177.404 9.80082 177.307 8.79089C177.258 8.28592 177.21 7.77736 177.161 7.2652C177.136 7.00823 177.113 6.75126 177.088 6.49428L177.052 6.10612L177.034 5.91204L177.025 5.815L177.02 5.76648L177.018 5.74132L177.016 5.72874V5.72335V5.71976C176.951 5.79703 177.104 5.61014 177.09 5.62991C183.588 5.01892 189.585 4.45465 194.35 4.00539L194.415 4L194.42 4.06469C194.743 7.61922 195.007 10.5394 195.191 12.5772C195.279 13.5818 195.349 14.3689 195.396 14.9134C195.418 15.1739 195.434 15.377 195.446 15.5208C195.457 15.6573 195.459 15.7238 195.459 15.7238Z" fill="#455A64"/>
<path d="M194.354 4.07186C194.357 4.07545 194.312 4.13475 194.221 4.24437C194.119 4.36478 193.982 4.52292 193.814 4.71879C193.444 5.1393 192.927 5.72693 192.292 6.44934C190.982 7.91572 189.186 9.9266 187.186 12.1693L187.141 12.2196L187.083 12.1837C186.938 12.0902 186.782 11.9914 186.624 11.8908C183.992 10.1998 181.609 8.66868 179.867 7.55092C179.018 6.99564 178.326 6.54458 177.829 6.21932C177.601 6.06657 177.418 5.94437 177.28 5.85092C177.156 5.76467 177.091 5.71795 177.093 5.71255C177.097 5.70716 177.167 5.7467 177.296 5.82217C177.439 5.90843 177.626 6.02344 177.861 6.16541C178.363 6.47809 179.065 6.91657 179.926 7.45388C181.674 8.56265 184.066 10.0794 186.708 11.7542C186.866 11.8548 187.022 11.9555 187.168 12.0471L187.065 12.0615C189.08 9.83316 190.889 7.83306 192.209 6.37566C192.861 5.66763 193.39 5.09078 193.769 4.67746C193.946 4.48877 194.088 4.33782 194.197 4.22281C194.296 4.12038 194.35 4.06827 194.354 4.07186Z" fill="#455A64"/>
<path d="M153.35 38.1147L147.596 44.4888L157.034 53.0229L162.788 46.6488L153.35 38.1147Z" fill="white"/>
<path d="M157.034 53.0205C157.034 53.0205 157.069 52.9777 157.136 52.8987C157.208 52.818 157.309 52.7034 157.437 52.5565C157.704 52.2555 158.094 51.8205 158.589 51.2636C159.586 50.1507 161.013 48.5552 162.752 46.6143L162.755 46.6801C160.148 44.3264 156.866 41.3662 153.311 38.1567C153.293 38.1576 153.468 38.1479 153.393 38.1531L153.392 38.1547L153.389 38.1571L153.384 38.1644L153.371 38.1781L153.348 38.2047L153.3 38.2572L153.203 38.3637L153.012 38.576C152.884 38.7172 152.759 38.8576 152.631 38.9973C152.379 39.2773 152.127 39.5558 151.879 39.8318C151.379 40.3846 150.888 40.9278 150.406 41.4613C149.442 42.5282 148.516 43.5516 147.637 44.5225L147.633 44.4462C150.4 46.9631 152.747 49.098 154.407 50.6065C155.234 51.3624 155.888 51.9609 156.342 52.3756C156.563 52.5794 156.735 52.7384 156.856 52.8503C156.912 52.9022 156.956 52.9438 156.989 52.9741C157.018 53.0045 157.033 53.0181 157.034 53.0205C157.033 53.0221 157.019 53.0093 156.99 52.9846C156.956 52.9558 156.912 52.9183 156.857 52.8687C156.736 52.7609 156.563 52.6091 156.342 52.4118C155.887 52.0043 155.227 51.4155 154.396 50.6717C152.721 49.1656 150.352 47.0356 147.561 44.5269L147.521 44.4909L147.557 44.4506C148.432 43.4781 149.358 42.4523 150.32 41.3846C150.802 40.8511 151.291 40.3071 151.791 39.7543C152.039 39.4783 152.291 39.1998 152.544 38.9198C152.671 38.7801 152.797 38.6381 152.924 38.4985L153.115 38.2862L153.212 38.1797L153.26 38.1272L153.283 38.1006L153.296 38.0869L153.301 38.0796L153.305 38.0772L153.305 38.0756C153.232 38.0792 153.408 38.0702 153.39 38.0711C156.94 41.2863 160.216 44.2553 162.819 46.6131L162.853 46.6443L162.822 46.679C161.059 48.616 159.613 50.206 158.601 51.3174C158.101 51.8622 157.709 52.29 157.439 52.5854C157.309 52.7275 157.207 52.8356 157.135 52.9139C157.069 52.9858 157.034 53.0205 157.034 53.0205Z" fill="#455A64"/>
<path d="M162.788 46.6462C162.788 46.6502 162.734 46.6553 162.629 46.6599C162.513 46.6645 162.36 46.6693 162.171 46.6758C161.76 46.6851 161.186 46.696 160.481 46.71C159.038 46.7285 157.061 46.7529 154.859 46.7808L154.809 46.7819L154.8 46.7313C154.778 46.6061 154.754 46.472 154.731 46.3363C154.341 44.0727 153.989 42.0241 153.731 40.5254C153.61 39.7901 153.512 39.1921 153.442 38.7626C153.412 38.5635 153.388 38.4029 153.37 38.2817C153.354 38.1717 153.349 38.1131 153.353 38.1131C153.357 38.113 153.371 38.17 153.394 38.2776C153.418 38.3979 153.448 38.5553 153.489 38.7535C153.567 39.1813 153.679 39.7777 153.815 40.5105C154.081 42.0076 154.446 44.0545 154.849 46.3149C154.872 46.4505 154.896 46.5846 154.918 46.7098L154.86 46.6611C157.064 46.6484 159.041 46.6353 160.484 46.6273C161.189 46.6293 161.764 46.6289 162.174 46.6292C162.365 46.6315 162.516 46.6339 162.633 46.6358C162.732 46.6385 162.788 46.6422 162.788 46.6462Z" fill="#455A64"/>
</g>
<defs>
<clipPath id="clip0">
<rect width="200" height="72" fill="white"/>
</clipPath>
<clipPath id="clip1">
<rect width="119" height="74" fill="white" transform="translate(38 -1)"/>
</clipPath>
</defs>
</svg>
