<svg width="200" height="72" viewBox="0 0 200 72" fill="none" xmlns="http://www.w3.org/2000/svg">
<rect width="200" height="72" fill="#F7F7F7"/>
<path d="M70.5453 3L59 5.51718L62.4119 21.4674L73.9572 18.9502L70.5453 3Z" fill="white"/>
<path d="M152.41 3H107.867V32.2427H152.41V3Z" fill="white"/>
<path d="M136.03 17.8108C136.808 14.5242 134.799 11.2236 131.544 10.4386C128.288 9.65362 125.019 11.6816 124.242 14.9681C123.464 18.2547 125.473 21.5554 128.728 22.3403C131.983 23.1253 135.253 21.0974 136.03 17.8108Z" fill="#E0E0E0"/>
<path d="M132.175 16.3845L130.593 17.3083L129.01 18.2296V16.3845V14.5395L130.593 15.4632L132.175 16.3845Z" fill="white"/>
<path d="M152.41 26.9908H107.867V32.2451H152.41V26.9908Z" fill="#E0E0E0"/>
<path d="M112.194 29.6167L111.553 29.9905L110.911 30.3667V29.6167V28.8668L111.553 29.2429L112.194 29.6167Z" fill="white"/>
<path d="M148.743 29.4977H115.887V29.7358H148.743V29.4977Z" fill="white"/>
<path d="M116.552 29.6167C116.552 29.8905 116.333 30.1119 116.062 30.1119C115.79 30.1119 115.571 29.8905 115.571 29.6167C115.571 29.343 115.79 29.1216 116.062 29.1216C116.333 29.1216 116.552 29.343 116.552 29.6167Z" fill="white"/>
<path d="M183.703 63.2875H140.69C139.976 63.2875 139.396 62.7019 139.396 61.9805V23.103C139.396 22.3816 139.976 21.7959 140.69 21.7959H183.705C184.42 21.7959 185 22.3816 185 23.103V61.9805C184.998 62.7043 184.418 63.2875 183.703 63.2875Z" fill="#E0E0E0"/>
<path d="M184.998 26.4312H139.396V23.3244C139.396 22.4816 140.072 21.7983 140.907 21.7983H183.486C184.321 21.7983 184.998 22.4816 184.998 23.3244V26.4312Z" fill="#D3D3D3"/>
<path d="M142.178 24.4862C142.377 24.4862 142.539 24.3231 142.539 24.1219C142.539 23.9207 142.377 23.7577 142.178 23.7577C141.979 23.7577 141.817 23.9207 141.817 24.1219C141.817 24.3231 141.979 24.4862 142.178 24.4862Z" fill="white"/>
<path d="M144.697 24.1219C144.697 24.3219 144.536 24.4862 144.336 24.4862C144.138 24.4862 143.975 24.3243 143.975 24.1219C143.975 23.9219 144.135 23.7577 144.336 23.7577C144.536 23.7577 144.697 23.9219 144.697 24.1219Z" fill="white"/>
<path d="M146.494 24.4862C146.693 24.4862 146.854 24.3231 146.854 24.1219C146.854 23.9207 146.693 23.7577 146.494 23.7577C146.294 23.7577 146.133 23.9207 146.133 24.1219C146.133 24.3231 146.294 24.4862 146.494 24.4862Z" fill="white"/>
<path d="M179.515 30.1643H162.296V30.7928H179.515V30.1643Z" fill="white"/>
<path d="M179.515 32.7545H162.296V33.383H179.515V32.7545Z" fill="white"/>
<path d="M179.515 35.3447H162.296V35.9732H179.515V35.3447Z" fill="white"/>
<path d="M179.515 37.9326H162.296V38.5612H179.515V37.9326Z" fill="white"/>
<path d="M170.905 40.5229H162.296V41.1514H170.905V40.5229Z" fill="white"/>
<path d="M144.005 46.2437H161.224V45.6152H144.005V46.2437Z" fill="white"/>
<path d="M144.005 48.8343H161.224V48.2057H144.005V48.8343Z" fill="white"/>
<path d="M144.005 51.4224H161.224V50.7939H144.005V51.4224Z" fill="white"/>
<path d="M144.005 54.0129H161.224V53.3844H144.005V54.0129Z" fill="white"/>
<path d="M152.615 56.601H161.225V55.9725H152.615V56.601Z" fill="white"/>
<path d="M178.934 44.9201H164.198V57.2976H178.934V44.9201Z" fill="white"/>
<path d="M164.175 53.5598L168.528 50.4791L171.568 52.6003L176.346 48.5197L178.935 51.1076V57.2975H164.199L164.175 53.5598Z" fill="#D3D3D3"/>
<path d="M171.823 49.7649C172.504 49.7649 173.056 49.2074 173.056 48.5198C173.056 47.8321 172.504 47.2746 171.823 47.2746C171.142 47.2746 170.589 47.8321 170.589 48.5198C170.589 49.2074 171.142 49.7649 171.823 49.7649Z" fill="#D3D3D3"/>
<path d="M158.742 29.7833H144.006V42.1608H158.742V29.7833Z" fill="white"/>
<path d="M143.98 38.4231L148.335 35.3448L151.373 37.466L156.153 33.383L158.74 35.9733V42.1608H144.006L143.98 38.4231Z" fill="#D3D3D3"/>
<path d="M151.627 34.6281C152.309 34.6281 152.861 34.0707 152.861 33.383C152.861 32.6953 152.309 32.1379 151.627 32.1379C150.946 32.1379 150.394 32.6953 150.394 33.383C150.394 34.0707 150.946 34.6281 151.627 34.6281Z" fill="#D3D3D3"/>
<path d="M78.2665 54.1863H18.2496C17.5589 54.1863 17 53.622 17 52.9247V20H79.5161V52.9247C79.5161 53.622 78.9571 54.1863 78.2665 54.1863Z" fill="#E0E0E0"/>
<path d="M79.5161 20H17V26.3511H79.5161V20Z" fill="#D3D3D3"/>
<path d="M20.8159 23.6842C21.089 23.6842 21.3103 23.4607 21.3103 23.185C21.3103 22.9093 21.089 22.6858 20.8159 22.6858C20.5428 22.6858 20.3214 22.9093 20.3214 23.185C20.3214 23.4607 20.5428 23.6842 20.8159 23.6842Z" fill="white"/>
<path d="M23.7745 23.6842C24.0476 23.6842 24.269 23.4607 24.269 23.185C24.269 22.9093 24.0476 22.6858 23.7745 22.6858C23.5015 22.6858 23.2801 22.9093 23.2801 23.185C23.2801 23.4607 23.5015 23.6842 23.7745 23.6842Z" fill="white"/>
<path d="M26.7332 23.6842C27.0063 23.6842 27.2276 23.4607 27.2276 23.185C27.2276 22.9093 27.0063 22.6858 26.7332 22.6858C26.4601 22.6858 26.2387 22.9093 26.2387 23.185C26.2387 23.4607 26.4601 23.6842 26.7332 23.6842Z" fill="white"/>
<path d="M71.9999 31.4705H48.3924V32.3332H71.9999V31.4705Z" fill="white"/>
<path d="M71.9999 35.0191H48.3924V35.8818H71.9999V35.0191Z" fill="white"/>
<path d="M71.9999 38.5703H48.3924V39.433H71.9999V38.5703Z" fill="white"/>
<path d="M71.9999 42.1189H48.3924V42.9817H71.9999V42.1189Z" fill="white"/>
<path d="M60.1948 45.6702H48.3924V46.533H60.1948V45.6702Z" fill="white"/>
<path d="M42.3998 30.8655H22.1998V47.8352H42.3998V30.8655Z" fill="white"/>
<path d="M22.1649 42.7103L28.1359 38.4889L32.3012 41.3972L38.8527 35.8004L42.4025 39.3516V47.8351H22.1998L22.1649 42.7103Z" fill="#D3D3D3"/>
<path d="M34.3408 35.8004C34.3408 36.7445 33.583 37.5095 32.6478 37.5095C31.7127 37.5095 30.9549 36.7445 30.9549 35.8004C30.9549 34.8562 31.7127 34.0912 32.6478 34.0912C33.5857 34.0939 34.3408 34.859 34.3408 35.8004Z" fill="#D3D3D3"/>
<path d="M68.0745 2.07189L54.0872 5.12149L58.2208 24.4454L72.2081 21.3958L68.0745 2.07189Z" fill="white"/>
<path d="M72.2058 21.3941C72.2058 21.3941 72.1957 21.361 72.183 21.2999C72.1679 21.2336 72.1477 21.1445 72.1225 21.0273C72.0695 20.7827 71.9912 20.4311 71.8903 19.9725C71.6884 19.0501 71.3957 17.7074 71.0247 16.008C70.2903 12.6092 69.248 7.78869 68.0165 2.08408L68.0871 2.12994C63.8751 3.04971 59.1205 4.08923 54.1035 5.1848H54.1009L54.1514 5.10581C55.6909 12.3238 57.1167 19.0068 58.2726 24.4312L58.2095 24.3904C62.4442 23.4783 65.9344 22.7267 68.3723 22.2044C69.5912 21.9445 70.5452 21.7407 71.2013 21.6031C71.5244 21.5343 71.7742 21.4833 71.9458 21.4477C72.1149 21.4094 72.2058 21.3941 72.2058 21.3941C72.2058 21.3941 72.125 21.4171 71.9584 21.4527C71.7894 21.491 71.5446 21.547 71.2241 21.6184C70.5729 21.7636 69.624 21.9751 68.4127 22.2451C65.9698 22.7853 62.472 23.5573 58.2271 24.4949L58.1741 24.5076L58.1615 24.4541C56.9981 19.0323 55.5647 12.3519 54.0151 5.13384L54 5.07015L54.0631 5.05486H54.0656C59.0827 3.96438 63.8398 2.92741 68.0518 2.01274L68.1098 2L68.1225 2.0586C69.3338 7.78359 70.3584 12.6219 71.0827 16.0335C71.4386 17.7304 71.7187 19.0705 71.913 19.9928C72.0064 20.4463 72.0796 20.798 72.13 21.0374C72.1528 21.1521 72.1704 21.2413 72.183 21.305C72.2007 21.3636 72.2058 21.3941 72.2058 21.3941Z" fill="#263238"/>
<path d="M63.4688 7.13899C63.4764 7.17466 61.9622 7.53645 60.0846 7.9441C58.2069 8.3543 56.6801 8.65495 56.6725 8.61928C56.665 8.58361 58.1792 8.22182 60.0568 7.81417C61.9344 7.40651 63.4612 7.10332 63.4688 7.13899Z" fill="#263238"/>
<path d="M67.5042 8.01546C67.5117 8.05113 65.1723 8.59127 62.2827 9.22314C59.3906 9.855 57.041 10.3365 57.0335 10.3009C57.0259 10.2652 59.3628 9.72506 62.2575 9.0932C65.1471 8.46388 67.4966 7.97979 67.5042 8.01546Z" fill="#263238"/>
<path d="M67.8802 9.76837C67.8878 9.80404 65.5483 10.3442 62.6587 10.976C59.7666 11.6079 57.417 12.0895 57.4095 12.0538C57.4019 12.0181 59.7388 11.478 62.6335 10.8461C65.5206 10.2142 67.8726 9.7327 67.8802 9.76837Z" fill="#263238"/>
<path d="M68.2537 11.5187C68.2613 11.5544 65.9218 12.0945 63.0322 12.7264C60.1401 13.3583 57.7905 13.8398 57.783 13.8041C57.7754 13.7685 60.1123 13.2283 63.0045 12.5965C65.8966 11.9671 68.2461 11.4831 68.2537 11.5187Z" fill="#263238"/>
<path d="M68.6297 13.2716C68.6373 13.3073 66.2978 13.8474 63.4082 14.4793C60.5161 15.1112 58.1666 15.5927 58.159 15.557C58.1514 15.5214 60.4884 14.9812 63.3805 14.3494C66.2701 13.7175 68.6221 13.236 68.6297 13.2716Z" fill="#263238"/>
<path d="M69.0032 15.022C69.0108 15.0577 66.6714 15.5978 63.7818 16.2297C60.8896 16.8616 58.5401 17.3431 58.5325 17.3074C58.5249 17.2718 60.8619 16.7316 63.754 16.0998C66.6461 15.4704 68.9957 14.9864 69.0032 15.022Z" fill="#263238"/>
<path d="M69.3793 16.7749C69.3868 16.8106 67.0474 17.3507 64.1578 17.9826C61.2657 18.6145 58.9161 19.096 58.906 19.0603C58.8985 19.0247 61.2354 18.4845 64.13 17.8527C67.0196 17.2208 69.3717 16.7393 69.3793 16.7749Z" fill="#263238"/>
<path d="M64.9098 19.5826C64.9174 19.6183 63.6631 19.9215 62.1085 20.2604C60.554 20.5992 59.2871 20.8438 59.2795 20.8082C59.2719 20.7725 60.5262 20.4693 62.0808 20.1304C63.6354 19.7916 64.9022 19.547 64.9098 19.5826Z" fill="#263238"/>
<path d="M134.806 46.2601L137.76 53.9193L138.993 51.9109L140.699 54.1716L142.734 52.2179L140.795 50.3315L142.584 49.1097L134.806 46.2601Z" fill="#CA3D3D"/>
<path d="M133.694 47.3936C133.71 47.4188 133.227 47.7574 132.617 48.1485C132.006 48.5397 131.498 48.8362 131.481 48.811C131.465 48.7858 131.948 48.4472 132.558 48.056C133.171 47.6627 133.679 47.3662 133.694 47.3936Z" fill="#263238"/>
<path d="M133.923 45.85C133.919 45.8647 133.737 45.8163 133.448 45.7238C133.16 45.6312 132.765 45.4882 132.338 45.3137C131.908 45.1391 131.527 44.9667 131.254 44.8363C130.981 44.7059 130.815 44.6176 130.821 44.605C130.827 44.5902 131.004 44.6533 131.286 44.7669C131.604 44.8973 131.973 45.0466 132.379 45.2148C132.788 45.3789 133.156 45.5261 133.475 45.6544C133.756 45.7616 133.929 45.8352 133.923 45.85Z" fill="#263238"/>
<path d="M134.814 42.3716C134.829 42.3695 134.871 42.5293 134.923 42.7943C134.975 43.0572 135.033 43.4252 135.083 43.8311C135.133 44.2391 135.164 44.6092 135.181 44.8763C135.196 45.1455 135.196 45.3116 135.179 45.3116C135.148 45.3137 135.077 44.6555 134.975 43.8437C134.877 43.034 134.785 42.3779 134.814 42.3716Z" fill="#263238"/>
<path d="M138.906 44.0855C138.918 44.1171 138.37 44.3547 137.756 44.7522C137.139 45.1496 136.652 45.4988 136.633 45.4714C136.625 45.4588 136.737 45.36 136.927 45.2085C137.118 45.0592 137.385 44.8573 137.699 44.6596C138.322 44.2559 138.897 44.0603 138.906 44.0855Z" fill="#263238"/>
<path d="M66.073 47.5639C66.0543 47.566 66.0793 47.2232 65.9335 46.6386C65.8647 46.3463 65.7273 45.9993 65.5127 45.6333C65.2961 45.2674 64.9815 44.8868 64.5566 44.565C64.1337 44.2453 63.5984 43.974 62.9818 43.8647C62.3693 43.7595 61.6798 43.7785 61.0216 44.0308C60.6904 44.1465 60.3717 44.3231 60.078 44.544C59.9259 44.6491 59.7947 44.7795 59.6551 44.9078C59.5301 45.0487 59.3989 45.1854 59.2906 45.3431C58.8323 45.9593 58.574 46.75 58.5657 47.566C58.5719 48.382 58.8302 49.1727 59.2906 49.7889C59.3989 49.9487 59.5301 50.0854 59.6551 50.2242C59.7947 50.3504 59.9259 50.4829 60.078 50.5881C60.3717 50.8089 60.6904 50.9855 61.0216 51.1012C61.6778 51.3536 62.3693 51.3746 62.9818 51.2673C63.5984 51.158 64.1316 50.8867 64.5566 50.567C64.9815 50.2432 65.294 49.8625 65.5127 49.4987C65.7293 49.1328 65.8668 48.7858 65.9335 48.4934C66.0793 47.9046 66.0522 47.5618 66.073 47.5639C66.0751 47.5639 66.0751 47.5849 66.0751 47.6249C66.0751 47.6712 66.073 47.7322 66.071 47.8079C66.071 47.8878 66.0668 47.9866 66.046 48.1023C66.0314 48.2179 66.0147 48.3525 65.9731 48.4998C65.9106 48.7984 65.7772 49.1517 65.5627 49.526C65.346 49.9004 65.0315 50.2915 64.6024 50.6259C64.1733 50.9561 63.6296 51.2379 62.9984 51.3557C62.3735 51.4671 61.6653 51.4503 60.9883 51.1937C60.6487 51.076 60.3196 50.8972 60.0176 50.6701C59.8613 50.5628 59.7259 50.4282 59.5822 50.2978C59.453 50.1548 59.3176 50.0139 59.2052 49.8499C58.7323 49.2169 58.4657 48.403 58.4573 47.5639C58.4657 46.7248 58.7323 45.9109 59.2052 45.2779C59.3156 45.1139 59.453 44.973 59.5822 44.83C59.7259 44.6996 59.8613 44.565 60.0176 44.4577C60.3196 44.2306 60.6487 44.0519 60.9883 43.9341C61.6653 43.6775 62.3714 43.6607 62.9984 43.7722C63.6296 43.8878 64.1733 44.1696 64.6024 44.5019C65.0336 44.8363 65.3481 45.2274 65.5627 45.6018C65.7772 45.9782 65.9106 46.3315 65.9731 46.6281C66.0147 46.7753 66.0293 46.9099 66.046 47.0255C66.0647 47.1412 66.071 47.24 66.071 47.32C66.073 47.3957 66.073 47.4545 66.0751 47.5029C66.0751 47.5429 66.0751 47.5639 66.073 47.5639Z" fill="#263238"/>
<path d="M62.2944 49.4798C62.2652 49.4798 62.2402 48.6217 62.2402 47.5639C62.2402 46.5061 62.2652 45.6481 62.2944 45.6481C62.3235 45.6481 62.3485 46.5061 62.3485 47.5639C62.3485 48.6217 62.3235 49.4798 62.2944 49.4798Z" fill="#263238"/>
<path d="M64.192 47.5639C64.192 47.5934 63.3421 47.6186 62.2943 47.6186C61.2466 47.6186 60.3967 47.5934 60.3967 47.5639C60.3967 47.5345 61.2466 47.5092 62.2943 47.5092C63.3421 47.5092 64.192 47.5345 64.192 47.5639Z" fill="#263238"/>
<path d="M124.053 59.896C124.028 59.9128 121.412 55.8267 118.21 50.771C115.006 45.7132 112.432 41.6039 112.457 41.5871C112.482 41.5703 115.098 45.6565 118.302 50.7121C121.504 55.7678 124.078 59.8792 124.053 59.896Z" fill="#263238"/>
<path d="M125.191 68.817C128.544 68.817 131.263 66.0724 131.263 62.6867C131.263 59.301 128.544 56.5564 125.191 56.5564C121.837 56.5564 119.118 59.301 119.118 62.6867C119.118 66.0724 121.837 68.817 125.191 68.817Z" fill="white"/>
<path d="M119.118 62.6867C119.118 62.6867 119.116 62.653 119.118 62.5878C119.121 62.5163 119.125 62.4196 119.127 62.2955C119.129 62.2303 119.131 62.1588 119.135 62.081C119.141 62.0011 119.158 61.917 119.168 61.8223C119.195 61.6352 119.218 61.4207 119.287 61.1851C119.389 60.7077 119.606 60.142 119.95 59.5406C120.297 58.9433 120.802 58.3166 121.493 57.7824C122.181 57.2546 123.053 56.8045 124.062 56.6195C124.314 56.5816 124.57 56.529 124.834 56.5269C124.966 56.5227 125.099 56.508 125.232 56.5101C125.366 56.5164 125.501 56.5227 125.636 56.529C125.774 56.5312 125.909 56.5501 126.045 56.5732C126.18 56.5963 126.32 56.6111 126.457 56.6405C126.728 56.7141 127.007 56.7688 127.274 56.8802C127.549 56.9686 127.807 57.1053 128.074 57.2336C128.203 57.3051 128.328 57.3871 128.455 57.4628C128.586 57.5364 128.705 57.6268 128.826 57.7194C129.075 57.8918 129.292 58.1063 129.521 58.3145C129.727 58.5437 129.944 58.7688 130.123 59.0295C130.488 59.5406 130.807 60.1084 131 60.733C131.2 61.3534 131.309 62.0137 131.317 62.6846C131.309 63.3554 131.2 64.0158 131 64.6362C130.807 65.2608 130.488 65.8286 130.123 66.3396C129.946 66.6004 129.73 66.8254 129.521 67.0568C129.292 67.265 129.075 67.4795 128.826 67.6519C128.705 67.7444 128.586 67.8349 128.455 67.9085C128.326 67.9842 128.203 68.0662 128.074 68.1377C127.807 68.266 127.549 68.4027 127.274 68.491C127.007 68.6025 126.728 68.6572 126.457 68.7308C126.32 68.7581 126.182 68.7749 126.045 68.7981C125.909 68.8212 125.772 68.8401 125.636 68.8422C125.501 68.8485 125.366 68.8548 125.232 68.8612C125.099 68.8633 124.966 68.8506 124.834 68.8443C124.57 68.8422 124.314 68.7897 124.062 68.7518C123.053 68.5667 122.183 68.1167 121.493 67.5888C120.804 67.0568 120.297 66.4301 119.95 65.8307C119.606 65.2292 119.389 64.6635 119.287 64.1861C119.22 63.9506 119.195 63.734 119.168 63.5489C119.156 63.4564 119.141 63.3702 119.135 63.2924C119.133 63.2145 119.129 63.1409 119.127 63.0778C119.123 62.9538 119.121 62.857 119.118 62.7855C119.116 62.7203 119.118 62.6867 119.118 62.6867C119.118 62.6867 119.125 62.7203 119.129 62.7855C119.133 62.8549 119.139 62.9517 119.15 63.0757C119.154 63.1409 119.158 63.2124 119.162 63.2903C119.17 63.3681 119.187 63.4543 119.202 63.5468C119.231 63.7319 119.258 63.9464 119.329 64.1777C119.437 64.6509 119.656 65.2082 120.002 65.8013C120.352 66.3901 120.854 67.0063 121.539 67.5278C122.222 68.0452 123.083 68.4847 124.076 68.6635C124.326 68.6992 124.578 68.7518 124.839 68.7518C124.968 68.756 125.099 68.7686 125.232 68.7665C125.363 68.7602 125.497 68.7518 125.63 68.7455C125.765 68.7434 125.899 68.7245 126.032 68.7013C126.165 68.6782 126.303 68.6635 126.438 68.634C126.705 68.5604 126.98 68.5057 127.24 68.3964C127.511 68.3081 127.765 68.1735 128.026 68.0473C128.153 67.9779 128.276 67.8959 128.401 67.8202C128.53 67.7487 128.646 67.6582 128.763 67.5678C129.007 67.3975 129.221 67.185 129.446 66.9811C129.648 66.7539 129.861 66.5331 130.036 66.2765C130.394 65.7739 130.707 65.2166 130.896 64.6025C131.092 63.9927 131.198 63.3449 131.206 62.6846C131.198 62.0263 131.092 61.3786 130.896 60.7687C130.707 60.1547 130.394 59.5974 130.036 59.0947C129.861 58.8382 129.648 58.6173 129.446 58.3902C129.221 58.1862 129.009 57.9738 128.763 57.8035C128.646 57.713 128.528 57.6226 128.401 57.5511C128.276 57.4754 128.153 57.3955 128.026 57.324C127.765 57.1978 127.511 57.0632 127.24 56.9749C126.978 56.8634 126.703 56.8109 126.438 56.7372C126.303 56.7099 126.168 56.6931 126.032 56.6699C125.899 56.6468 125.763 56.6279 125.63 56.6258C125.497 56.6195 125.363 56.6111 125.232 56.6048C125.101 56.6027 124.97 56.6153 124.839 56.6195C124.578 56.6216 124.326 56.6721 124.076 56.7078C123.083 56.8845 122.22 57.3261 121.539 57.8434C120.854 58.365 120.352 58.9812 120.002 59.57C119.656 60.161 119.435 60.7204 119.327 61.1935C119.256 61.427 119.229 61.6415 119.2 61.8245C119.185 61.917 119.168 62.0011 119.16 62.081C119.156 62.1588 119.152 62.2303 119.148 62.2955C119.139 62.4196 119.133 62.5163 119.127 62.5857C119.125 62.653 119.118 62.6867 119.118 62.6867Z" fill="#263238"/>
<path d="M123.535 60.4344L122.703 65.2313L125.191 64.8864L127.678 65.2313L126.678 60.4344H123.535Z" fill="#CA3D3D"/>
<path d="M126.24 60.4975C126.222 60.5038 126.172 60.3271 126.04 60.0726C125.974 59.9465 125.88 59.8035 125.743 59.6836C125.672 59.6268 125.591 59.5763 125.499 59.5406C125.407 59.509 125.305 59.4901 125.201 59.488C124.989 59.4859 124.784 59.5258 124.634 59.6268C124.482 59.7256 124.387 59.8665 124.324 59.9927C124.199 60.2493 124.157 60.4302 124.139 60.4238C124.128 60.4217 124.143 60.2388 124.253 59.9591C124.312 59.8224 124.407 59.6583 124.578 59.5406C124.747 59.4207 124.974 59.3744 125.201 59.3765C125.318 59.3786 125.43 59.3997 125.534 59.4375C125.636 59.4796 125.728 59.5385 125.805 59.6037C125.955 59.7425 126.047 59.9002 126.107 60.0348C126.228 60.3124 126.251 60.4953 126.24 60.4975Z" fill="#CA3D3D"/>
<path d="M100.96 60.3061C100.931 60.3061 100.906 56.0854 100.906 50.8783C100.906 45.6712 100.931 41.4504 100.96 41.4504C100.989 41.4504 101.014 45.6712 101.014 50.8783C101.014 56.0854 100.989 60.3061 100.96 60.3061Z" fill="#263238"/>
<path d="M100.835 68.9538C104.189 68.9538 106.907 66.2091 106.907 62.8234C106.907 59.4378 104.189 56.6931 100.835 56.6931C97.4817 56.6931 94.7632 59.4378 94.7632 62.8234C94.7632 66.2091 97.4817 68.9538 100.835 68.9538Z" fill="white"/>
<path d="M94.7662 62.8234C94.7662 62.8234 94.7642 62.7898 94.7662 62.7246C94.7683 62.6531 94.7725 62.5564 94.7746 62.4323C94.7767 62.3671 94.7787 62.2956 94.7829 62.2178C94.7892 62.1379 94.8058 62.0537 94.8162 61.9591C94.8433 61.7719 94.8662 61.5574 94.935 61.3219C95.037 60.8445 95.2537 60.2788 95.5974 59.6773C95.9453 59.0801 96.4494 58.4534 97.1409 57.9192C97.8284 57.3913 98.7012 56.9413 99.7094 56.7562C99.9614 56.7184 100.218 56.6658 100.482 56.6637C100.613 56.6595 100.747 56.6448 100.88 56.6469C101.013 56.6532 101.149 56.6595 101.284 56.6658C101.422 56.6679 101.557 56.6868 101.692 56.71C101.828 56.7331 101.967 56.7478 102.105 56.7773C102.376 56.8509 102.655 56.9055 102.921 57.017C103.196 57.1053 103.455 57.242 103.721 57.3703C103.851 57.4418 103.976 57.5238 104.103 57.5995C104.234 57.6731 104.353 57.7636 104.473 57.8561C104.723 58.0286 104.94 58.2431 105.169 58.4513C105.375 58.6805 105.592 58.9055 105.771 59.1663C106.136 59.6773 106.454 60.2451 106.648 60.8697C106.848 61.4901 106.956 62.1505 106.965 62.8213C106.956 63.4922 106.848 64.1526 106.648 64.7729C106.454 65.3975 106.136 65.9654 105.771 66.4764C105.594 66.7372 105.377 66.9622 105.169 67.1935C104.94 67.4017 104.723 67.6162 104.473 67.7887C104.353 67.8812 104.234 67.9716 104.103 68.0452C103.973 68.121 103.851 68.203 103.721 68.2745C103.455 68.4028 103.196 68.5395 102.921 68.6278C102.655 68.7392 102.376 68.7939 102.105 68.8675C101.967 68.8949 101.83 68.9117 101.692 68.9348C101.557 68.958 101.42 68.9769 101.284 68.979C101.149 68.9853 101.013 68.9916 100.88 69C100.747 69.0021 100.613 68.9874 100.482 68.9832C100.218 68.9811 99.9614 68.9285 99.7094 68.8907C98.7012 68.7056 97.8304 68.2556 97.1409 67.7277C96.4514 67.1956 95.9453 66.5689 95.5974 65.9696C95.2537 65.3681 95.037 64.8024 94.935 64.325C94.8683 64.0895 94.8433 63.8728 94.8162 63.6878C94.8037 63.5953 94.7892 63.509 94.7829 63.4312C94.7808 63.3534 94.7767 63.2798 94.7746 63.2167C94.7704 63.0926 94.7683 62.9959 94.7662 62.9244C94.7642 62.8571 94.7662 62.8234 94.7662 62.8234C94.7662 62.8234 94.7725 62.8571 94.7767 62.9223C94.7808 62.9917 94.7871 63.0884 94.7975 63.2125C94.8017 63.2777 94.8058 63.3492 94.81 63.427C94.8183 63.5048 94.835 63.591 94.8496 63.6836C94.8787 63.8686 94.9058 64.0832 94.9766 64.3145C95.085 64.7877 95.3037 65.345 95.6495 65.938C95.9994 66.5269 96.5014 67.143 97.1868 67.6646C97.87 68.1819 98.7303 68.6215 99.724 68.8002C99.9739 68.836 100.226 68.8886 100.486 68.8886C100.616 68.8928 100.747 68.9054 100.88 68.9033C101.011 68.897 101.145 68.8886 101.278 68.8822C101.413 68.8801 101.547 68.8612 101.68 68.8381C101.813 68.815 101.951 68.8002 102.086 68.7708C102.353 68.6972 102.628 68.6425 102.89 68.5331C103.161 68.4448 103.415 68.3102 103.676 68.184C103.803 68.1146 103.926 68.0326 104.051 67.9569C104.18 67.8854 104.296 67.795 104.413 67.7046C104.659 67.5342 104.871 67.3218 105.096 67.1178C105.298 66.8907 105.511 66.6699 105.686 66.4133C106.044 65.9107 106.356 65.3534 106.546 64.7393C106.742 64.1294 106.848 63.4817 106.856 62.8213C106.848 62.1631 106.742 61.5154 106.546 60.9055C106.356 60.2914 106.044 59.7341 105.686 59.2315C105.511 58.9749 105.298 58.7541 105.096 58.527C104.871 58.323 104.659 58.1106 104.413 57.9402C104.296 57.8498 104.178 57.7594 104.051 57.6879C103.926 57.6122 103.803 57.5322 103.676 57.4607C103.415 57.3346 103.161 57.2 102.89 57.1116C102.628 57.0002 102.353 56.9476 102.088 56.874C101.953 56.8467 101.817 56.8298 101.682 56.8067C101.549 56.7836 101.413 56.7646 101.28 56.7625C101.147 56.7562 101.013 56.7478 100.882 56.7415C100.751 56.7394 100.62 56.752 100.488 56.7562C100.228 56.7583 99.976 56.8088 99.726 56.8446C98.7324 57.0212 97.87 57.4628 97.1889 57.9802C96.5035 58.5017 96.0015 59.1179 95.6516 59.7068C95.3058 60.2977 95.085 60.8571 94.9766 61.3303C94.9058 61.5637 94.8787 61.7782 94.8496 61.9612C94.835 62.0537 94.8183 62.1379 94.81 62.2178C94.8058 62.2956 94.8017 62.3671 94.7975 62.4323C94.7892 62.5564 94.7829 62.6531 94.7767 62.7225C94.7704 62.7898 94.7662 62.8234 94.7662 62.8234Z" fill="#263238"/>
<path d="M100.835 60.079L98.2023 62.4954V65.5574H100.254V63.7214H101.558V65.5574H103.47V62.4954L100.835 60.079Z" fill="#CA3D3D"/>
<path d="M77.4549 60.1105C77.4299 60.0937 80.0442 55.9213 83.2938 50.79C86.5454 45.6586 89.1993 41.5114 89.2243 41.5282C89.2493 41.5451 86.635 45.7175 83.3854 50.8488C80.1358 55.9802 77.4799 60.1274 77.4549 60.1105Z" fill="#263238"/>
<path d="M76.4717 68.8759C79.8253 68.8759 82.5439 66.1313 82.5439 62.7456C82.5439 59.36 79.8253 56.6153 76.4717 56.6153C73.1182 56.6153 70.3996 59.36 70.3996 62.7456C70.3996 66.1313 73.1182 68.8759 76.4717 68.8759Z" fill="white"/>
<path d="M82.5439 62.7456C82.5439 62.7456 82.5376 62.712 82.5334 62.6468C82.5293 62.5774 82.523 62.4806 82.5126 62.3566C82.5084 62.2914 82.5043 62.2199 82.5001 62.1421C82.4918 62.0642 82.4751 61.978 82.4605 61.8855C82.4314 61.7004 82.4043 61.4859 82.3335 61.2546C82.2252 60.7814 82.0064 60.2241 81.6586 59.631C81.3086 59.0422 80.8066 58.426 80.1213 57.9045C79.438 57.3871 78.5777 56.9476 77.5841 56.7688C77.3341 56.7331 77.0821 56.6826 76.8217 56.6805C76.6925 56.6763 76.5613 56.6637 76.428 56.6658C76.2967 56.6721 76.1634 56.6805 76.0301 56.6868C75.8947 56.6889 75.7614 56.7078 75.6281 56.731C75.4947 56.7541 75.3573 56.7688 75.2219 56.7983C74.9552 56.8719 74.6803 56.9266 74.4199 57.0359C74.1491 57.1242 73.895 57.2588 73.6346 57.385C73.5075 57.4544 73.3846 57.5364 73.2596 57.6121C73.1305 57.6836 73.0138 57.7741 72.8972 57.8645C72.6534 58.0349 72.4389 58.2473 72.2139 58.4513C72.0119 58.6784 71.7994 58.8992 71.6244 59.1558C71.2661 59.6584 70.9537 60.2157 70.7641 60.8298C70.5683 61.4396 70.4621 62.0874 70.4537 62.7456C70.4621 63.406 70.5683 64.0537 70.7641 64.6636C70.9537 65.2777 71.2661 65.835 71.6244 66.3376C71.7994 66.5941 72.0119 66.815 72.2139 67.0421C72.4389 67.2461 72.6514 67.4585 72.8972 67.6288C73.0159 67.7193 73.1325 67.8097 73.2596 67.8812C73.3846 67.9569 73.5075 68.0368 73.6346 68.1083C73.895 68.2345 74.1491 68.3691 74.4199 68.4574C74.6824 68.5689 74.9573 68.6236 75.2219 68.6951C75.3573 68.7224 75.4927 68.7392 75.6281 68.7624C75.7614 68.7855 75.8968 68.8044 76.0301 68.8065C76.1634 68.8128 76.2967 68.8212 76.428 68.8276C76.5592 68.8297 76.6904 68.817 76.8217 68.8128C77.0821 68.8107 77.3341 68.7603 77.5841 68.7245C78.5777 68.5458 79.4401 68.1062 80.1213 67.5889C80.8066 67.0673 81.3086 66.4511 81.6586 65.8623C82.0043 65.2714 82.2252 64.7119 82.3314 64.2388C82.4022 64.0053 82.4293 63.7908 82.4585 63.6079C82.473 63.5153 82.4897 63.4312 82.498 63.3513C82.5022 63.2735 82.5064 63.202 82.5105 63.1368C82.5189 63.0127 82.5251 62.916 82.5314 62.8466C82.5397 62.7793 82.5439 62.7456 82.5439 62.7456C82.5439 62.7456 82.5459 62.7793 82.5439 62.8445C82.5418 62.916 82.5376 63.0127 82.5355 63.1368C82.5334 63.202 82.5314 63.2735 82.5272 63.3513C82.5209 63.4312 82.5043 63.5153 82.4939 63.6079C82.4668 63.795 82.4439 64.0095 82.3751 64.2451C82.2731 64.7225 82.0564 65.2882 81.7127 65.8896C81.3648 66.4869 80.8607 67.1136 80.1692 67.6478C79.4817 68.1756 78.6089 68.6257 77.6007 68.8107C77.3487 68.8486 77.0925 68.9012 76.8279 68.9033C76.6967 68.9075 76.5634 68.9222 76.43 68.9201C76.2967 68.9138 76.1613 68.9075 76.0259 68.8991C75.8884 68.897 75.753 68.878 75.6176 68.8549C75.4822 68.8318 75.3427 68.817 75.2052 68.7876C74.9344 68.714 74.6553 68.6593 74.3886 68.5479C74.1137 68.4595 73.8554 68.3228 73.5887 68.1946C73.4596 68.123 73.3346 68.041 73.2075 67.9653C73.0763 67.8917 72.9576 67.8013 72.8368 67.7088C72.5868 67.5363 72.3701 67.3218 72.141 67.1136C71.9348 66.8844 71.7181 66.6593 71.539 66.3965C71.1745 65.8854 70.8558 65.3176 70.662 64.693C70.4621 64.0726 70.3537 63.4123 70.3454 62.7414C70.3537 62.0705 70.4621 61.4102 70.662 60.7898C70.8558 60.1652 71.1745 59.5974 71.539 59.0864C71.7161 58.8256 71.9327 58.6006 72.141 58.3713C72.3701 58.1631 72.5868 57.9486 72.8368 57.7762C72.9576 57.6836 73.0763 57.5932 73.2075 57.5196C73.3367 57.4439 73.4596 57.3619 73.5887 57.2904C73.8554 57.1621 74.1137 57.0254 74.3886 56.9371C74.6553 56.8256 74.9344 56.7709 75.2052 56.6973C75.3427 56.67 75.4802 56.6532 75.6176 56.63C75.753 56.6069 75.8905 56.588 76.0259 56.5859C76.1613 56.5796 76.2967 56.5733 76.43 56.5669C76.5634 56.5648 76.6967 56.5775 76.8279 56.5838C77.0925 56.5859 77.3487 56.6384 77.6007 56.6763C78.6089 56.8614 79.4797 57.3114 80.1692 57.8393C80.8587 58.3713 81.3648 58.998 81.7127 59.5974C82.0585 60.1989 82.2731 60.7646 82.3751 61.242C82.4418 61.4775 82.4668 61.6941 82.4939 61.8792C82.5064 61.9717 82.5209 62.0579 82.5272 62.1378C82.5293 62.2157 82.5334 62.2893 82.5355 62.3524C82.5397 62.4764 82.5418 62.5732 82.5439 62.6447C82.5459 62.712 82.5439 62.7456 82.5439 62.7456Z" fill="#263238"/>
<path d="M78.8214 59.5553H74.0533V65.938H78.8214V59.5553Z" fill="#CA3D3D"/>
<path d="M76.6696 60.5753C76.6696 60.6047 76.3196 60.63 75.8864 60.63C75.4531 60.63 75.1031 60.6047 75.1031 60.5753C75.1031 60.5459 75.4531 60.5206 75.8864 60.5206C76.3176 60.5206 76.6696 60.5438 76.6696 60.5753Z" fill="white"/>
<path d="M78.0486 61.4733C78.0486 61.5027 77.3466 61.528 76.4821 61.528C75.6176 61.528 74.9156 61.5027 74.9156 61.4733C74.9156 61.4438 75.6156 61.4186 76.4821 61.4186C77.3487 61.4186 78.0486 61.4417 78.0486 61.4733Z" fill="white"/>
<path d="M78.0486 62.018C78.0486 62.0474 77.3466 62.0726 76.4821 62.0726C75.6176 62.0726 74.9156 62.0474 74.9156 62.018C74.9156 61.9885 75.6156 61.9633 76.4821 61.9633C77.3487 61.9633 78.0486 61.9885 78.0486 62.018Z" fill="white"/>
<path d="M78.0486 62.5647C78.0486 62.5942 77.3466 62.6194 76.4821 62.6194C75.6176 62.6194 74.9156 62.5942 74.9156 62.5647C74.9156 62.5353 75.6156 62.5101 76.4821 62.5101C77.3487 62.5101 78.0486 62.5332 78.0486 62.5647Z" fill="white"/>
<path d="M78.0486 63.1095C78.0486 63.1389 77.3466 63.1641 76.4821 63.1641C75.6176 63.1641 74.9156 63.1389 74.9156 63.1095C74.9156 63.08 75.6156 63.0548 76.4821 63.0548C77.3487 63.0548 78.0486 63.08 78.0486 63.1095Z" fill="white"/>
<path d="M78.0486 63.6562C78.0486 63.6857 77.3466 63.7109 76.4821 63.7109C75.6176 63.7109 74.9156 63.6857 74.9156 63.6562C74.9156 63.6268 75.6156 63.6016 76.4821 63.6016C77.3487 63.6016 78.0486 63.6247 78.0486 63.6562Z" fill="white"/>
<path d="M78.0486 64.2009C78.0486 64.2303 77.3466 64.2556 76.4821 64.2556C75.6176 64.2556 74.9156 64.2303 74.9156 64.2009C74.9156 64.1714 75.6156 64.1462 76.4821 64.1462C77.3487 64.1462 78.0486 64.1714 78.0486 64.2009Z" fill="white"/>
<path d="M78.0486 64.7477C78.0486 64.7772 77.3466 64.8024 76.4821 64.8024C75.6176 64.8024 74.9156 64.7772 74.9156 64.7477C74.9156 64.7183 75.6156 64.6931 76.4821 64.6931C77.3487 64.691 78.0486 64.7162 78.0486 64.7477Z" fill="white"/>
<path d="M128.892 41.686H75.1344C72.3972 41.686 70.1787 39.4463 70.1787 36.6829V36.134C70.1787 33.3706 72.3972 31.1309 75.1344 31.1309H128.892C131.629 31.1309 133.848 33.3706 133.848 36.134V36.6829C133.848 39.4442 131.629 41.686 128.892 41.686Z" fill="white"/>
<path d="M119.741 31.0342V41.6839H128.636C131.55 41.6839 133.91 39.299 133.91 36.359C133.91 33.4169 131.548 31.0342 128.636 31.0342H119.741Z" fill="#CA3D3D"/>
<path d="M128.019 36.0646C128.005 36.0667 128.017 35.8648 127.93 35.5199C127.842 35.1834 127.619 34.6892 127.117 34.3065C126.87 34.1193 126.557 33.9616 126.197 33.8985C125.838 33.8375 125.436 33.8501 125.053 33.9973C124.859 34.0646 124.674 34.1677 124.503 34.2981C124.33 34.4242 124.174 34.582 124.045 34.7649C123.778 35.1245 123.626 35.5851 123.622 36.0625C123.626 36.5378 123.776 37.0004 124.045 37.3601C124.174 37.543 124.33 37.7007 124.503 37.8269C124.674 37.9573 124.859 38.0583 125.053 38.1277C125.436 38.2749 125.84 38.2875 126.197 38.2265C126.557 38.1634 126.87 38.0057 127.117 37.8185C127.619 37.4379 127.842 36.9416 127.93 36.6051C128.017 36.2644 128.005 36.0625 128.019 36.0646C128.019 36.0646 128.046 36.2665 127.969 36.6177C127.892 36.9647 127.676 37.4778 127.163 37.8816C126.909 38.0793 126.586 38.2475 126.211 38.3169C125.84 38.3842 125.418 38.3758 125.016 38.2223C124.814 38.1529 124.618 38.0456 124.439 37.911C124.257 37.7786 124.091 37.6145 123.955 37.4231C123.674 37.0467 123.514 36.5609 123.51 36.0625C123.514 35.5641 123.674 35.0783 123.955 34.7018C124.091 34.5105 124.257 34.3464 124.439 34.2139C124.618 34.0793 124.814 33.9721 125.016 33.9027C125.418 33.7513 125.838 33.7408 126.211 33.808C126.586 33.8774 126.909 34.0457 127.163 34.2434C127.676 34.6472 127.894 35.1603 127.971 35.5073C128.049 35.8627 128.019 36.0646 128.019 36.0646Z" fill="white"/>
<path d="M130.088 39.2086C130.071 39.2338 129.496 38.8469 128.805 38.3485C128.113 37.8479 127.567 37.4231 127.584 37.3979C127.601 37.3727 128.176 37.7575 128.867 38.258C129.559 38.7586 130.107 39.1855 130.088 39.2086Z" fill="white"/>
<path d="M115.154 35.419H76.2321V37.6776H115.154V35.419Z" fill="#D3D3D3"/>
<path d="M128.892 41.686C128.892 41.686 129.015 41.6755 129.253 41.6629C129.371 41.6629 129.519 41.6355 129.692 41.6082C129.867 41.5893 130.065 41.5304 130.29 41.4715C130.732 41.3327 131.269 41.1077 131.817 40.6976C131.886 40.6471 131.954 40.5945 132.023 40.5398C132.09 40.4831 132.154 40.42 132.223 40.3569C132.363 40.237 132.488 40.094 132.619 39.9468C132.754 39.8038 132.86 39.6292 132.99 39.4652C133.044 39.3748 133.098 39.2843 133.154 39.1918L133.237 39.053L133.308 38.9037C133.514 38.5104 133.65 38.0562 133.746 37.5746C133.764 37.4526 133.783 37.3285 133.802 37.2045C133.808 37.0783 133.814 36.95 133.823 36.8217C133.833 36.563 133.831 36.296 133.823 36.0268C133.808 34.95 133.406 33.7723 132.571 32.8302C131.748 31.888 130.471 31.2109 129.05 31.1751C127.63 31.1604 126.122 31.173 124.543 31.1709C111.898 31.1751 94.434 31.1814 75.1427 31.1877C73.947 31.1898 72.7722 31.6441 71.891 32.4369C71.0078 33.2234 70.4183 34.3317 70.2829 35.4989C70.2537 35.644 70.2579 35.7912 70.2475 35.9363C70.2371 36.0814 70.235 36.2287 70.2371 36.378C70.2329 36.6745 70.2454 36.9647 70.2725 37.2549C70.3308 37.8354 70.51 38.3969 70.7662 38.9121C71.2828 39.9426 72.1535 40.7754 73.1888 41.2254C73.7054 41.4505 74.2574 41.5808 74.8136 41.6187C75.0906 41.6397 75.3718 41.6355 75.6531 41.6355C75.9343 41.6355 76.2134 41.6355 76.4925 41.6355C77.6091 41.6355 78.7152 41.6355 79.8088 41.6355C81.996 41.6355 84.1395 41.6376 86.2288 41.6376C94.5882 41.6418 102.116 41.646 108.436 41.6502C114.756 41.6566 119.872 41.6629 123.41 41.6671C125.176 41.6713 126.549 41.6755 127.48 41.6776C127.944 41.6797 128.298 41.6818 128.538 41.6839C128.771 41.6818 128.892 41.686 128.892 41.686C128.892 41.686 128.769 41.6902 128.532 41.6923C128.292 41.6944 127.938 41.6944 127.474 41.6986C126.542 41.7007 125.17 41.7049 123.403 41.7091C119.866 41.7133 114.752 41.7196 108.43 41.726C102.108 41.7302 94.5798 41.7323 86.2226 41.7386C84.1332 41.7386 81.9918 41.7407 79.8025 41.7407C78.7089 41.7407 77.6028 41.7407 76.4863 41.7407C76.2072 41.7407 75.928 41.7407 75.6468 41.7407C75.3656 41.7407 75.0865 41.7449 74.8011 41.7238C74.2345 41.686 73.67 41.5514 73.1409 41.3222C72.0827 40.8616 71.1932 40.0099 70.6641 38.9584C70.4016 38.4326 70.2204 37.8585 70.16 37.2654C70.1329 36.9689 70.1204 36.6703 70.1246 36.3759C70.1225 36.2287 70.1246 36.0793 70.135 35.93C70.1454 35.7807 70.1413 35.6314 70.1704 35.4821C70.31 34.2897 70.912 33.1562 71.814 32.3528C72.7118 31.5431 73.9158 31.0784 75.1365 31.0763C94.4257 31.0826 111.89 31.0889 124.536 31.0931C126.118 31.0973 127.621 31.0868 129.046 31.1057C130.488 31.1457 131.779 31.8355 132.61 32.7902C133.452 33.745 133.856 34.9395 133.869 36.0268C133.877 36.3002 133.877 36.563 133.867 36.8238C133.86 36.9542 133.852 37.0825 133.846 37.2108C133.827 37.337 133.808 37.461 133.789 37.5851C133.694 38.0709 133.554 38.5294 133.344 38.9247C133.319 38.9752 133.296 39.0257 133.271 39.074L133.185 39.2149C133.129 39.3075 133.073 39.4 133.019 39.4904C132.89 39.6566 132.781 39.8311 132.644 39.9741C132.513 40.1213 132.385 40.2644 132.244 40.3842C132.175 40.4452 132.111 40.5083 132.042 40.5672C131.971 40.6198 131.9 40.6723 131.831 40.7249C131.279 41.1329 130.738 41.3579 130.292 41.4925C130.065 41.5493 129.867 41.6082 129.692 41.625C129.517 41.6523 129.371 41.6755 129.25 41.6755C129.015 41.6818 128.892 41.686 128.892 41.686Z" fill="#263238"/>
<path d="M101.306 35.1225C101.117 34.8995 101.098 34.7103 101.525 34.6724C102.464 34.5862 103.158 34.1719 103.266 33.9321C103.375 33.6924 103.077 33.459 102.823 33.602C102.616 33.7176 102.212 33.8081 101.908 33.8627C101.656 33.909 101.398 33.9132 101.146 33.8733C100.927 33.8396 100.735 33.8018 100.562 33.7639C100.562 33.7639 99.5688 33.5473 99.1376 33.2087L97.0337 35.4779L98.0211 36.603C98.0211 36.603 98.4919 37.3138 99.3376 37.2297C100.183 37.1456 101.323 36.5315 101.323 36.5315C101.477 36.2938 102.839 37.1414 103.279 37.4589C103.712 37.7744 104.041 37.6966 104.024 37.3916C104.014 37.1834 102.693 36.1761 102.252 35.8732C102.01 35.7113 101.535 35.3916 101.306 35.1225Z" fill="#E8B299"/>
<path d="M100.071 37.0951C100.073 37.1077 100.01 37.1351 99.9021 37.133C99.7938 37.1309 99.6438 37.0888 99.5105 36.9857C99.3772 36.8848 99.2959 36.7481 99.2647 36.6451C99.2314 36.5399 99.2418 36.4726 99.2543 36.4705C99.2835 36.4642 99.3355 36.7208 99.5772 36.8974C99.8105 37.0846 100.069 37.0636 100.071 37.0951Z" fill="#E8B299"/>
<path d="M100.904 36.7628C100.906 36.7754 100.844 36.7986 100.74 36.7923C100.637 36.786 100.494 36.7418 100.369 36.643C100.244 36.5441 100.165 36.4158 100.133 36.3149C100.102 36.216 100.108 36.1487 100.121 36.1466C100.15 36.1403 100.206 36.3822 100.433 36.5546C100.658 36.7376 100.904 36.7313 100.904 36.7628Z" fill="#E8B299"/>
<path d="M115.763 26.4896L102.5 22.5148C101.4 22.0438 100.569 21.9281 100.569 21.9281L96.0901 21.9575C95.4818 21.9575 94.909 22.09 94.3715 22.3193L82.2981 26.3676C81.4044 26.6536 80.7878 27.5789 80.7878 28.6325C80.7878 29.9322 81.7148 30.9837 82.8584 30.9837H88.4327C88.416 31.0363 88.4077 31.0657 88.4077 31.0657L107.797 31.1393C107.797 31.1372 107.797 31.1351 107.797 31.1309L115.198 31.1477C116.342 31.1477 117.269 30.0836 117.269 28.7734C117.273 27.7114 116.656 26.7777 115.763 26.4896Z" fill="#263238"/>
<path d="M113.105 27.9364C113.105 27.9406 113.063 27.9385 112.984 27.9301C112.894 27.9196 112.782 27.907 112.642 27.8902C112.346 27.8523 111.917 27.8039 111.386 27.7514C110.324 27.6462 108.853 27.5537 107.226 27.5747C105.599 27.5979 104.129 27.7282 103.07 27.8607C102.541 27.9259 102.114 27.9869 101.819 28.0311C101.681 28.05 101.569 28.0668 101.479 28.0794C101.402 28.09 101.36 28.0921 101.358 28.0879C101.358 28.0836 101.398 28.0731 101.475 28.0563C101.564 28.0374 101.675 28.0164 101.812 27.9869C102.106 27.928 102.533 27.8565 103.062 27.7808C104.12 27.6294 105.593 27.4843 107.226 27.4612C108.857 27.4401 110.334 27.5453 111.396 27.6694C111.928 27.7303 112.357 27.7913 112.65 27.8418C112.788 27.8649 112.9 27.886 112.99 27.9007C113.065 27.9238 113.107 27.9343 113.105 27.9364Z" fill="#45758B"/>
<g opacity="0.2">
<path opacity="0.2" d="M89.3826 27.9091L97.7669 29.5053L96.7983 31.0973L96.5442 31.1015L89.3826 27.9091Z" fill="black"/>
</g>
<path d="M82.3126 30.7124C82.3126 30.7124 97.469 37.4631 97.3899 37.3117C97.3107 37.1582 99.7958 32.7313 99.7958 32.7313L87.5161 26.6052L82.3126 30.7124Z" fill="#263238"/>
<path d="M89.268 27.478C89.2722 27.4717 89.3826 27.5179 89.5805 27.6105C89.795 27.7114 90.0762 27.846 90.4137 28.0079C91.1157 28.3465 92.0822 28.8218 93.1467 29.3539C94.2111 29.8859 95.1735 30.3717 95.8672 30.7293C96.2005 30.9038 96.4754 31.0468 96.6858 31.1583C96.8775 31.2613 96.9837 31.3223 96.9795 31.3286C96.9754 31.3349 96.865 31.2887 96.6671 31.1961C96.4525 31.0952 96.1713 30.9606 95.8338 30.7987C95.1318 30.4601 94.1653 29.9827 93.0988 29.4527C92.0343 28.9207 91.0719 28.4349 90.3783 28.0773C90.045 27.9028 89.77 27.7598 89.5596 27.6483C89.3701 27.5453 89.2659 27.4843 89.268 27.478Z" fill="#45758B"/>
<path d="M100.958 21.7031C100.994 20.8787 101.037 20.1342 101.037 20.1342C101.037 20.1342 102.86 19.9029 102.939 18.0228C103.018 16.1427 99.7958 15.577 99.7958 15.577L96.3359 16.6579L96.4317 21.7578C96.5129 23.0006 97.5649 23.9512 98.7981 23.8923C99.9708 23.8377 100.908 22.8871 100.958 21.7031Z" fill="#E8B299"/>
<path d="M101.477 31.1499V28.0605C101.477 28.0605 96.9337 29.0111 96.8504 31.112L101.477 31.1499Z" fill="#E8B299"/>
<path d="M95.4631 15.8735C95.4631 15.8735 94.2591 14.0081 93.832 15.659C93.405 17.3078 94.5757 18.0459 95.3235 17.863C96.0713 17.6821 95.4631 15.8735 95.4631 15.8735Z" fill="#CD8B6D"/>
<path d="M95.3339 16.189C95.3339 16.189 94.5069 15.0113 94.2445 15.5076C93.982 16.0039 94.0799 16.6222 94.0799 16.6222C94.0799 16.6222 94.2174 15.9366 94.7444 16.3068C94.7444 16.3068 94.282 17.4129 95.2818 17.0659C95.2818 17.0659 95.688 16.7211 95.3339 16.189Z" fill="#B66C50"/>
<path d="M102.156 15.4025C102.156 15.4025 103.248 13.4572 103.772 15.0744C104.295 16.6895 103.17 17.5076 102.412 17.3793C101.656 17.2489 102.156 15.4025 102.156 15.4025Z" fill="#CD8B6D"/>
<path d="M102.185 15.8399C102.185 15.8399 102.941 14.6075 103.233 15.0828C103.525 15.5602 103.464 16.1848 103.464 16.1848C103.464 16.1848 103.285 15.5097 102.783 15.9177C102.783 15.9177 103.31 16.9881 102.291 16.7126C102.289 16.7105 101.864 16.3951 102.185 15.8399Z" fill="#B66C50"/>
<path d="M99.2959 21.6169C95.686 21.741 94.984 18.2626 94.8465 17.0218C94.7903 16.5129 94.7903 15.6759 94.8153 14.8515C94.8507 13.6696 94.934 12.5171 94.9652 12.4267C95.9234 9.60654 99.4751 9.54766 100.69 10.33C102.246 11.3331 102.396 12.4814 102.396 12.4814C102.554 13.1627 102.675 13.8631 102.75 14.5528C103.137 18.1259 102.321 21.5138 99.2959 21.6169Z" fill="#E8B299"/>
<path d="M97.5399 16.3068C97.5503 16.7042 97.2941 17.0365 96.965 17.047C96.6358 17.0575 96.3609 16.7442 96.3505 16.3467C96.338 15.9492 96.5963 15.617 96.9233 15.6065C97.2545 15.5959 97.5295 15.9093 97.5399 16.3068Z" fill="#4A1D1D"/>
<path d="M101.464 16.1722C101.477 16.5697 101.219 16.9019 100.889 16.9124C100.56 16.923 100.285 16.6096 100.273 16.2121C100.262 15.8147 100.519 15.4824 100.848 15.4719C101.177 15.4614 101.452 15.7747 101.464 16.1722Z" fill="#4A1D1D"/>
<path d="M102.835 15.0302C102.858 15.4046 102.225 15.9513 102.029 16.271C101.991 16.332 101.95 16.3909 101.906 16.4498C101.648 16.7968 101.279 17.0975 100.846 17.333C100.792 17.3646 100.735 17.394 100.677 17.4235C100.135 17.6905 99.5126 17.8609 98.8918 17.9008C98.8543 17.9029 98.8168 17.905 98.7793 17.9072H98.7502C98.2002 17.924 97.692 17.7768 97.2462 17.5538C97.2024 17.5328 97.1587 17.5097 97.1149 17.4865C96.865 17.3477 96.6358 17.1879 96.4296 17.0197C96.2421 16.8662 96.0297 16.6832 95.8276 16.4834C95.8193 16.475 95.813 16.4666 95.8047 16.4603C95.5152 16.1701 94.9736 15.7431 94.809 15.3961C94.6111 15.5644 94.1341 19.1017 94.8861 20.0417C94.9048 20.067 94.9256 20.0901 94.9444 20.1132C95.0194 20.2037 95.0944 20.2899 95.1756 20.3698C95.6755 20.8829 96.2734 21.2404 96.9483 21.4486C97.0691 21.4865 97.1941 21.5201 97.3212 21.5496C97.8899 21.6758 98.5064 21.7073 99.1564 21.6442C99.2293 21.6379 99.3001 21.6295 99.373 21.6211C99.5751 21.5959 99.7813 21.5622 99.9896 21.5201C100.383 21.4402 100.737 21.333 101.058 21.1984C101.158 21.1563 101.256 21.1122 101.35 21.0659C102.2 20.6432 102.764 20.0249 103.087 19.2804C103.158 19.1185 103.216 18.9524 103.266 18.7799C103.347 18.4939 103.397 18.1932 103.422 17.8819C103.454 17.4529 102.831 14.9566 102.835 15.0302Z" fill="#4A1D1D"/>
<path d="M97.6586 13.2742C97.417 13.1102 97.0441 13.1565 96.7608 13.2238C96.363 13.3163 95.3506 13.6191 95.6985 14.0671C95.7026 14.0734 95.711 14.0776 95.7151 14.0818C95.7068 14.1112 95.7505 14.1386 95.7901 14.1217C95.7984 14.1175 95.8068 14.1154 95.8151 14.1112C95.8464 14.1091 95.8755 14.0965 95.8984 14.0797C96.1671 13.9935 96.5109 13.9893 96.7817 13.9935C97.1504 13.9977 97.4524 14.1701 97.8253 14.1428C97.8878 14.1386 97.9315 14.1028 97.9336 14.0544C97.9482 13.7705 97.9503 13.474 97.6586 13.2742Z" fill="#4A1D1D"/>
<path d="M99.5813 13.9977C99.5875 14.046 99.6313 14.0797 99.6938 14.0797C100.067 14.0818 100.358 13.8883 100.725 13.8589C100.996 13.8378 101.339 13.8168 101.61 13.8841C101.635 13.8988 101.664 13.9093 101.696 13.9093C101.704 13.9114 101.714 13.9135 101.723 13.9177C101.762 13.9325 101.804 13.9009 101.794 13.8715C101.8 13.8652 101.806 13.8631 101.81 13.8546C102.131 13.3857 101.102 13.1522 100.7 13.0849C100.41 13.0387 100.037 13.0155 99.8063 13.1964C99.5271 13.4193 99.548 13.7159 99.5813 13.9977Z" fill="#4A1D1D"/>
<path d="M99.2376 17.3856C99.1001 17.2426 99.1918 16.9377 99.173 16.7568C99.1501 16.515 99.1563 16.2773 99.1334 16.0355C99.1168 15.842 99.1459 15.3941 98.921 15.2069C98.8856 15.0197 98.6502 15.0534 98.5502 15.2258C98.3835 15.5139 98.4481 15.8651 98.4752 16.1617C98.4981 16.4203 98.5127 16.679 98.5189 16.9419C98.5231 17.1143 98.5606 17.373 98.4731 17.5349C98.1461 17.4403 97.7503 17.3709 98.0315 17.7179C98.1711 17.8924 98.6335 18.2605 98.9564 18.2058C99.3063 18.1469 99.7396 17.6779 99.8479 17.4445C100.015 17.0891 99.4813 17.2426 99.2376 17.3856Z" fill="#CD8B6D"/>
<path d="M96.5713 18.1827C96.5713 18.1827 99.0334 20.4098 100.892 17.8609C100.892 17.8609 99.8021 22.7357 96.5713 18.1827Z" fill="white"/>
</svg>
